G04 #@! TF.GenerationSoftware,KiCad,Pcbnew,(5.1.0-0)*
G04 #@! TF.CreationDate,2019-03-15T08:32:39-07:00*
G04 #@! TF.ProjectId,unijoysticle,756e696a-6f79-4737-9469-636c652e6b69,rev?*
G04 #@! TF.SameCoordinates,Original*
G04 #@! TF.FileFunction,Copper,L2,Bot*
G04 #@! TF.FilePolarity,Positive*
%FSLAX46Y46*%
G04 Gerber Fmt 4.6, Leading zero omitted, Abs format (unit mm)*
G04 Created by KiCad (PCBNEW (5.1.0-0)) date 2019-03-15 08:32:39*
%MOMM*%
%LPD*%
G04 APERTURE LIST*
%ADD10C,2.000000*%
%ADD11R,2.000000X2.000000*%
%ADD12C,2.100000*%
%ADD13C,1.750000*%
%ADD14C,1.879600*%
%ADD15R,1.879600X1.879600*%
%ADD16R,1.600000X1.600000*%
%ADD17C,1.600000*%
%ADD18R,2.200000X2.200000*%
%ADD19O,2.200000X2.200000*%
%ADD20O,1.400000X1.400000*%
%ADD21C,1.400000*%
%ADD22O,2.400000X1.600000*%
%ADD23R,2.400000X1.600000*%
%ADD24C,0.100000*%
%ADD25C,3.500000*%
%ADD26C,3.000000*%
%ADD27R,3.500000X3.500000*%
%ADD28C,0.152400*%
%ADD29C,0.254000*%
G04 APERTURE END LIST*
D10*
X118110000Y-101727000D03*
D11*
X118110000Y-104267000D03*
D12*
X119330000Y-107270000D03*
D13*
X116840000Y-108530000D03*
X116840000Y-113030000D03*
D12*
X119330000Y-114280000D03*
D14*
X128524000Y-113792000D03*
X128524000Y-111252000D03*
X128524000Y-108712000D03*
X128524000Y-106172000D03*
X128524000Y-103632000D03*
X128524000Y-101092000D03*
X128524000Y-98552000D03*
X128524000Y-96012000D03*
X128524000Y-93472000D03*
X128524000Y-90932000D03*
D15*
X131064000Y-113792000D03*
D14*
X131064000Y-111252000D03*
X131064000Y-108712000D03*
X131064000Y-106172000D03*
X131064000Y-103632000D03*
X131064000Y-101092000D03*
X131064000Y-98552000D03*
X131064000Y-96012000D03*
X131064000Y-93472000D03*
X131064000Y-90932000D03*
X153924000Y-90932000D03*
X153924000Y-93472000D03*
X153924000Y-96012000D03*
X153924000Y-98552000D03*
X153924000Y-101092000D03*
X153924000Y-103632000D03*
X153924000Y-106172000D03*
X153924000Y-108712000D03*
X153924000Y-111252000D03*
X153924000Y-113792000D03*
X156464000Y-90932000D03*
X156464000Y-93472000D03*
X156464000Y-96012000D03*
X156464000Y-98552000D03*
X156464000Y-101092000D03*
X156464000Y-103632000D03*
X156464000Y-106172000D03*
X156464000Y-108712000D03*
X156464000Y-111252000D03*
D15*
X156464000Y-113792000D03*
D16*
X120777000Y-79248000D03*
D17*
X123547000Y-79248000D03*
X126317000Y-79248000D03*
X129087000Y-79248000D03*
X131857000Y-79248000D03*
X122162000Y-76408000D03*
X124932000Y-76408000D03*
X127702000Y-76408000D03*
X130472000Y-76408000D03*
D18*
X142748000Y-103378000D03*
D19*
X142748000Y-93218000D03*
D20*
X125476000Y-108077000D03*
D21*
X125476000Y-113157000D03*
X122809000Y-113157000D03*
D20*
X122809000Y-108077000D03*
D22*
X168148000Y-83058000D03*
X160528000Y-98298000D03*
X168148000Y-85598000D03*
X160528000Y-95758000D03*
X168148000Y-88138000D03*
X160528000Y-93218000D03*
X168148000Y-90678000D03*
X160528000Y-90678000D03*
X168148000Y-93218000D03*
X160528000Y-88138000D03*
X168148000Y-95758000D03*
X160528000Y-85598000D03*
X168148000Y-98298000D03*
D23*
X160528000Y-83058000D03*
X117094000Y-83058000D03*
D22*
X124714000Y-98298000D03*
X117094000Y-85598000D03*
X124714000Y-95758000D03*
X117094000Y-88138000D03*
X124714000Y-93218000D03*
X117094000Y-90678000D03*
X124714000Y-90678000D03*
X117094000Y-93218000D03*
X124714000Y-88138000D03*
X117094000Y-95758000D03*
X124714000Y-85598000D03*
X117094000Y-98298000D03*
X124714000Y-83058000D03*
D10*
X123952000Y-101727000D03*
D11*
X123952000Y-104267000D03*
D16*
X152781000Y-79248000D03*
D17*
X155551000Y-79248000D03*
X158321000Y-79248000D03*
X161091000Y-79248000D03*
X163861000Y-79248000D03*
X154166000Y-76408000D03*
X156936000Y-76408000D03*
X159706000Y-76408000D03*
X162476000Y-76408000D03*
D24*
G36*
X164488765Y-104298213D02*
G01*
X164573704Y-104310813D01*
X164656999Y-104331677D01*
X164737848Y-104360605D01*
X164815472Y-104397319D01*
X164889124Y-104441464D01*
X164958094Y-104492616D01*
X165021718Y-104550282D01*
X165079384Y-104613906D01*
X165130536Y-104682876D01*
X165174681Y-104756528D01*
X165211395Y-104834152D01*
X165240323Y-104915001D01*
X165261187Y-104998296D01*
X165273787Y-105083235D01*
X165278000Y-105169000D01*
X165278000Y-106919000D01*
X165273787Y-107004765D01*
X165261187Y-107089704D01*
X165240323Y-107172999D01*
X165211395Y-107253848D01*
X165174681Y-107331472D01*
X165130536Y-107405124D01*
X165079384Y-107474094D01*
X165021718Y-107537718D01*
X164958094Y-107595384D01*
X164889124Y-107646536D01*
X164815472Y-107690681D01*
X164737848Y-107727395D01*
X164656999Y-107756323D01*
X164573704Y-107777187D01*
X164488765Y-107789787D01*
X164403000Y-107794000D01*
X162653000Y-107794000D01*
X162567235Y-107789787D01*
X162482296Y-107777187D01*
X162399001Y-107756323D01*
X162318152Y-107727395D01*
X162240528Y-107690681D01*
X162166876Y-107646536D01*
X162097906Y-107595384D01*
X162034282Y-107537718D01*
X161976616Y-107474094D01*
X161925464Y-107405124D01*
X161881319Y-107331472D01*
X161844605Y-107253848D01*
X161815677Y-107172999D01*
X161794813Y-107089704D01*
X161782213Y-107004765D01*
X161778000Y-106919000D01*
X161778000Y-105169000D01*
X161782213Y-105083235D01*
X161794813Y-104998296D01*
X161815677Y-104915001D01*
X161844605Y-104834152D01*
X161881319Y-104756528D01*
X161925464Y-104682876D01*
X161976616Y-104613906D01*
X162034282Y-104550282D01*
X162097906Y-104492616D01*
X162166876Y-104441464D01*
X162240528Y-104397319D01*
X162318152Y-104360605D01*
X162399001Y-104331677D01*
X162482296Y-104310813D01*
X162567235Y-104298213D01*
X162653000Y-104294000D01*
X164403000Y-104294000D01*
X164488765Y-104298213D01*
X164488765Y-104298213D01*
G37*
D25*
X163528000Y-106044000D03*
D24*
G36*
X167351513Y-108997611D02*
G01*
X167424318Y-109008411D01*
X167495714Y-109026295D01*
X167565013Y-109051090D01*
X167631548Y-109082559D01*
X167694678Y-109120398D01*
X167753795Y-109164242D01*
X167808330Y-109213670D01*
X167857758Y-109268205D01*
X167901602Y-109327322D01*
X167939441Y-109390452D01*
X167970910Y-109456987D01*
X167995705Y-109526286D01*
X168013589Y-109597682D01*
X168024389Y-109670487D01*
X168028000Y-109744000D01*
X168028000Y-111744000D01*
X168024389Y-111817513D01*
X168013589Y-111890318D01*
X167995705Y-111961714D01*
X167970910Y-112031013D01*
X167939441Y-112097548D01*
X167901602Y-112160678D01*
X167857758Y-112219795D01*
X167808330Y-112274330D01*
X167753795Y-112323758D01*
X167694678Y-112367602D01*
X167631548Y-112405441D01*
X167565013Y-112436910D01*
X167495714Y-112461705D01*
X167424318Y-112479589D01*
X167351513Y-112490389D01*
X167278000Y-112494000D01*
X165778000Y-112494000D01*
X165704487Y-112490389D01*
X165631682Y-112479589D01*
X165560286Y-112461705D01*
X165490987Y-112436910D01*
X165424452Y-112405441D01*
X165361322Y-112367602D01*
X165302205Y-112323758D01*
X165247670Y-112274330D01*
X165198242Y-112219795D01*
X165154398Y-112160678D01*
X165116559Y-112097548D01*
X165085090Y-112031013D01*
X165060295Y-111961714D01*
X165042411Y-111890318D01*
X165031611Y-111817513D01*
X165028000Y-111744000D01*
X165028000Y-109744000D01*
X165031611Y-109670487D01*
X165042411Y-109597682D01*
X165060295Y-109526286D01*
X165085090Y-109456987D01*
X165116559Y-109390452D01*
X165154398Y-109327322D01*
X165198242Y-109268205D01*
X165247670Y-109213670D01*
X165302205Y-109164242D01*
X165361322Y-109120398D01*
X165424452Y-109082559D01*
X165490987Y-109051090D01*
X165560286Y-109026295D01*
X165631682Y-109008411D01*
X165704487Y-108997611D01*
X165778000Y-108994000D01*
X167278000Y-108994000D01*
X167351513Y-108997611D01*
X167351513Y-108997611D01*
G37*
D26*
X166528000Y-110744000D03*
D27*
X160528000Y-110744000D03*
D28*
X124714000Y-85598000D02*
X126142900Y-85598000D01*
X126142900Y-85598000D02*
X126142900Y-96170900D01*
X126142900Y-96170900D02*
X128524000Y-98552000D01*
X168148000Y-85598000D02*
X166719100Y-85598000D01*
X166719100Y-85598000D02*
X166719100Y-91436100D01*
X166719100Y-91436100D02*
X161127200Y-97028000D01*
X161127200Y-97028000D02*
X159897900Y-97028000D01*
X159897900Y-97028000D02*
X157002700Y-99923200D01*
X157002700Y-99923200D02*
X155957000Y-99923200D01*
X155957000Y-99923200D02*
X155194000Y-100686200D01*
X155194000Y-100686200D02*
X155194000Y-102362000D01*
X155194000Y-102362000D02*
X153924000Y-103632000D01*
X160528000Y-93218000D02*
X159099100Y-93218000D01*
X159099100Y-93218000D02*
X159099100Y-95916900D01*
X159099100Y-95916900D02*
X156464000Y-98552000D01*
X124714000Y-90678000D02*
X123285100Y-90678000D01*
X123285100Y-90678000D02*
X123285100Y-98798400D01*
X123285100Y-98798400D02*
X127152800Y-102666100D01*
X127152800Y-102666100D02*
X127152800Y-104800800D01*
X127152800Y-104800800D02*
X128524000Y-106172000D01*
X124714000Y-95758000D02*
X124714000Y-96404500D01*
X124714000Y-96404500D02*
X128232700Y-99923200D01*
X128232700Y-99923200D02*
X129031000Y-99923200D01*
X129031000Y-99923200D02*
X129794000Y-100686200D01*
X129794000Y-100686200D02*
X129794000Y-102362000D01*
X129794000Y-102362000D02*
X131064000Y-103632000D01*
X120777000Y-79248000D02*
X120777000Y-80276900D01*
X117094000Y-85598000D02*
X118522900Y-85598000D01*
X118522900Y-85598000D02*
X118522900Y-82531000D01*
X118522900Y-82531000D02*
X120777000Y-80276900D01*
X117094000Y-95758000D02*
X118522900Y-95758000D01*
X118522900Y-95758000D02*
X118522900Y-87042100D01*
X118522900Y-87042100D02*
X126317000Y-79248000D01*
X117094000Y-90678000D02*
X115665100Y-90678000D01*
X115665100Y-90678000D02*
X115665100Y-87679000D01*
X115665100Y-87679000D02*
X116473400Y-86870700D01*
X116473400Y-86870700D02*
X117696400Y-86870700D01*
X117696400Y-86870700D02*
X123547000Y-81020100D01*
X123547000Y-81020100D02*
X123547000Y-79248000D01*
X160528000Y-95758000D02*
X161956900Y-95758000D01*
X161956900Y-95758000D02*
X161956900Y-82103800D01*
X161956900Y-82103800D02*
X159101100Y-79248000D01*
X159101100Y-79248000D02*
X158321000Y-79248000D01*
X160528000Y-90678000D02*
X159099100Y-90678000D01*
X159099100Y-90678000D02*
X159099100Y-82796100D01*
X159099100Y-82796100D02*
X155551000Y-79248000D01*
X168148000Y-98298000D02*
X169576900Y-98298000D01*
X169576900Y-98298000D02*
X169576900Y-85170700D01*
X169576900Y-85170700D02*
X168734200Y-84328000D01*
X168734200Y-84328000D02*
X166171000Y-84328000D01*
X166171000Y-84328000D02*
X161091000Y-79248000D01*
X122809000Y-108077000D02*
X122809000Y-106426000D01*
X122809000Y-106426000D02*
X118110000Y-101727000D01*
X126142900Y-83058000D02*
X142748000Y-99663100D01*
X142748000Y-99663100D02*
X142748000Y-103378000D01*
X124714000Y-83058000D02*
X126142900Y-83058000D01*
X131064000Y-113792000D02*
X129895300Y-113792000D01*
X129895300Y-113792000D02*
X129895300Y-113499700D01*
X129895300Y-113499700D02*
X129018900Y-112623300D01*
X129018900Y-112623300D02*
X127750500Y-112623300D01*
X127750500Y-112623300D02*
X125545000Y-110417800D01*
X125545000Y-110417800D02*
X118727800Y-110417800D01*
X118727800Y-110417800D02*
X116840000Y-108530000D01*
X125476000Y-108077000D02*
X125476000Y-103251000D01*
X125476000Y-103251000D02*
X123952000Y-101727000D01*
X142748000Y-93218000D02*
X142748000Y-94546900D01*
X160528000Y-110744000D02*
X158549100Y-110744000D01*
X158549100Y-110744000D02*
X158549100Y-109130000D01*
X158549100Y-109130000D02*
X156759900Y-107340800D01*
X156759900Y-107340800D02*
X155957000Y-107340800D01*
X155957000Y-107340800D02*
X155092800Y-106476600D01*
X155092800Y-106476600D02*
X155092800Y-105665000D01*
X155092800Y-105665000D02*
X154329800Y-104902000D01*
X154329800Y-104902000D02*
X153103100Y-104902000D01*
X153103100Y-104902000D02*
X142748000Y-94546900D01*
D29*
G36*
X126888903Y-75415298D02*
G01*
X127702000Y-76228395D01*
X128515097Y-75415298D01*
X128474519Y-75277000D01*
X158933481Y-75277000D01*
X158892903Y-75415298D01*
X159706000Y-76228395D01*
X160519097Y-75415298D01*
X160478519Y-75277000D01*
X168258028Y-75277000D01*
X168626629Y-75313142D01*
X168964865Y-75415261D01*
X169276823Y-75581132D01*
X169550625Y-75804440D01*
X169775836Y-76076672D01*
X169943882Y-76387467D01*
X170048361Y-76724983D01*
X170087000Y-77092615D01*
X170087001Y-113394018D01*
X170050858Y-113762629D01*
X169948739Y-114100864D01*
X169782867Y-114412825D01*
X169559560Y-114686625D01*
X169287328Y-114911836D01*
X168976533Y-115079882D01*
X168639017Y-115184361D01*
X168271385Y-115223000D01*
X120291947Y-115223000D01*
X120376284Y-115138663D01*
X120523696Y-114918044D01*
X120625236Y-114672906D01*
X120677000Y-114412668D01*
X120677000Y-114147332D01*
X120625236Y-113887094D01*
X120523696Y-113641956D01*
X120376284Y-113421337D01*
X120188663Y-113233716D01*
X119968044Y-113086304D01*
X119901654Y-113058804D01*
X121812000Y-113058804D01*
X121812000Y-113255196D01*
X121850314Y-113447814D01*
X121925470Y-113629257D01*
X122034580Y-113792550D01*
X122173450Y-113931420D01*
X122336743Y-114040530D01*
X122518186Y-114115686D01*
X122710804Y-114154000D01*
X122907196Y-114154000D01*
X123099814Y-114115686D01*
X123281257Y-114040530D01*
X123444550Y-113931420D01*
X123583420Y-113792550D01*
X123692530Y-113629257D01*
X123767686Y-113447814D01*
X123806000Y-113255196D01*
X123806000Y-113058804D01*
X124479000Y-113058804D01*
X124479000Y-113255196D01*
X124517314Y-113447814D01*
X124592470Y-113629257D01*
X124701580Y-113792550D01*
X124840450Y-113931420D01*
X125003743Y-114040530D01*
X125185186Y-114115686D01*
X125377804Y-114154000D01*
X125574196Y-114154000D01*
X125766814Y-114115686D01*
X125948257Y-114040530D01*
X126111550Y-113931420D01*
X126250420Y-113792550D01*
X126359530Y-113629257D01*
X126434686Y-113447814D01*
X126473000Y-113255196D01*
X126473000Y-113058804D01*
X126434686Y-112866186D01*
X126359530Y-112684743D01*
X126250420Y-112521450D01*
X126111550Y-112382580D01*
X125948257Y-112273470D01*
X125766814Y-112198314D01*
X125574196Y-112160000D01*
X125377804Y-112160000D01*
X125185186Y-112198314D01*
X125003743Y-112273470D01*
X124840450Y-112382580D01*
X124701580Y-112521450D01*
X124592470Y-112684743D01*
X124517314Y-112866186D01*
X124479000Y-113058804D01*
X123806000Y-113058804D01*
X123767686Y-112866186D01*
X123692530Y-112684743D01*
X123583420Y-112521450D01*
X123444550Y-112382580D01*
X123281257Y-112273470D01*
X123099814Y-112198314D01*
X122907196Y-112160000D01*
X122710804Y-112160000D01*
X122518186Y-112198314D01*
X122336743Y-112273470D01*
X122173450Y-112382580D01*
X122034580Y-112521450D01*
X121925470Y-112684743D01*
X121850314Y-112866186D01*
X121812000Y-113058804D01*
X119901654Y-113058804D01*
X119722906Y-112984764D01*
X119462668Y-112933000D01*
X119197332Y-112933000D01*
X118937094Y-112984764D01*
X118691956Y-113086304D01*
X118471337Y-113233716D01*
X118303603Y-113401450D01*
X118339855Y-113259474D01*
X118355804Y-112962457D01*
X118313501Y-112668037D01*
X118214572Y-112387526D01*
X118137868Y-112244025D01*
X117886240Y-112163365D01*
X117019605Y-113030000D01*
X117886240Y-113896635D01*
X118052947Y-113843197D01*
X118034764Y-113887094D01*
X117983000Y-114147332D01*
X117983000Y-114412668D01*
X118034764Y-114672906D01*
X118136304Y-114918044D01*
X118283716Y-115138663D01*
X118368053Y-115223000D01*
X116983972Y-115223000D01*
X116615371Y-115186858D01*
X116277136Y-115084739D01*
X115965175Y-114918867D01*
X115691375Y-114695560D01*
X115466164Y-114423328D01*
X115298118Y-114112533D01*
X115286884Y-114076240D01*
X115973365Y-114076240D01*
X116054025Y-114327868D01*
X116322329Y-114456267D01*
X116610526Y-114529855D01*
X116907543Y-114545804D01*
X117201963Y-114503501D01*
X117482474Y-114404572D01*
X117625975Y-114327868D01*
X117706635Y-114076240D01*
X116840000Y-113209605D01*
X115973365Y-114076240D01*
X115286884Y-114076240D01*
X115193639Y-113775017D01*
X115155000Y-113407385D01*
X115155000Y-113097543D01*
X115324196Y-113097543D01*
X115366499Y-113391963D01*
X115465428Y-113672474D01*
X115542132Y-113815975D01*
X115793760Y-113896635D01*
X116660395Y-113030000D01*
X115793760Y-112163365D01*
X115542132Y-112244025D01*
X115413733Y-112512329D01*
X115340145Y-112800526D01*
X115324196Y-113097543D01*
X115155000Y-113097543D01*
X115155000Y-111983760D01*
X115973365Y-111983760D01*
X116840000Y-112850395D01*
X117706635Y-111983760D01*
X117625975Y-111732132D01*
X117357671Y-111603733D01*
X117069474Y-111530145D01*
X116772457Y-111514196D01*
X116478037Y-111556499D01*
X116197526Y-111655428D01*
X116054025Y-111732132D01*
X115973365Y-111983760D01*
X115155000Y-111983760D01*
X115155000Y-108414568D01*
X115668000Y-108414568D01*
X115668000Y-108645432D01*
X115713039Y-108871860D01*
X115801387Y-109085150D01*
X115929648Y-109277107D01*
X116092893Y-109440352D01*
X116284850Y-109568613D01*
X116498140Y-109656961D01*
X116724568Y-109702000D01*
X116955432Y-109702000D01*
X117181860Y-109656961D01*
X117363810Y-109581594D01*
X118450948Y-110668733D01*
X118462631Y-110682969D01*
X118519458Y-110729605D01*
X118584292Y-110764259D01*
X118654640Y-110785599D01*
X118727799Y-110792805D01*
X118746125Y-110791000D01*
X125390417Y-110791000D01*
X127473643Y-112874227D01*
X127485331Y-112888469D01*
X127542158Y-112935105D01*
X127600573Y-112966328D01*
X127563315Y-113003586D01*
X127427962Y-113206156D01*
X127334730Y-113431239D01*
X127287200Y-113670186D01*
X127287200Y-113913814D01*
X127334730Y-114152761D01*
X127427962Y-114377844D01*
X127563315Y-114580414D01*
X127735586Y-114752685D01*
X127938156Y-114888038D01*
X128163239Y-114981270D01*
X128402186Y-115028800D01*
X128645814Y-115028800D01*
X128884761Y-114981270D01*
X129109844Y-114888038D01*
X129312414Y-114752685D01*
X129484685Y-114580414D01*
X129620038Y-114377844D01*
X129713270Y-114152761D01*
X129719544Y-114121222D01*
X129751792Y-114138459D01*
X129822140Y-114159799D01*
X129825763Y-114160156D01*
X129825763Y-114731800D01*
X129831497Y-114790022D01*
X129848480Y-114846007D01*
X129876059Y-114897603D01*
X129913173Y-114942827D01*
X129958397Y-114979941D01*
X130009993Y-115007520D01*
X130065978Y-115024503D01*
X130124200Y-115030237D01*
X132003800Y-115030237D01*
X132062022Y-115024503D01*
X132118007Y-115007520D01*
X132169603Y-114979941D01*
X132214827Y-114942827D01*
X132251941Y-114897603D01*
X132279520Y-114846007D01*
X132296503Y-114790022D01*
X132302237Y-114731800D01*
X132302237Y-113670186D01*
X152687200Y-113670186D01*
X152687200Y-113913814D01*
X152734730Y-114152761D01*
X152827962Y-114377844D01*
X152963315Y-114580414D01*
X153135586Y-114752685D01*
X153338156Y-114888038D01*
X153563239Y-114981270D01*
X153802186Y-115028800D01*
X154045814Y-115028800D01*
X154284761Y-114981270D01*
X154509844Y-114888038D01*
X154712414Y-114752685D01*
X154884685Y-114580414D01*
X155020038Y-114377844D01*
X155113270Y-114152761D01*
X155160800Y-113913814D01*
X155160800Y-113670186D01*
X155113270Y-113431239D01*
X155020038Y-113206156D01*
X154884685Y-113003586D01*
X154733299Y-112852200D01*
X155225763Y-112852200D01*
X155225763Y-114731800D01*
X155231497Y-114790022D01*
X155248480Y-114846007D01*
X155276059Y-114897603D01*
X155313173Y-114942827D01*
X155358397Y-114979941D01*
X155409993Y-115007520D01*
X155465978Y-115024503D01*
X155524200Y-115030237D01*
X157403800Y-115030237D01*
X157462022Y-115024503D01*
X157518007Y-115007520D01*
X157569603Y-114979941D01*
X157614827Y-114942827D01*
X157651941Y-114897603D01*
X157679520Y-114846007D01*
X157696503Y-114790022D01*
X157702237Y-114731800D01*
X157702237Y-112852200D01*
X157696503Y-112793978D01*
X157679520Y-112737993D01*
X157651941Y-112686397D01*
X157614827Y-112641173D01*
X157569603Y-112604059D01*
X157518007Y-112576480D01*
X157462022Y-112559497D01*
X157403800Y-112553763D01*
X155524200Y-112553763D01*
X155465978Y-112559497D01*
X155409993Y-112576480D01*
X155358397Y-112604059D01*
X155313173Y-112641173D01*
X155276059Y-112686397D01*
X155248480Y-112737993D01*
X155231497Y-112793978D01*
X155225763Y-112852200D01*
X154733299Y-112852200D01*
X154712414Y-112831315D01*
X154509844Y-112695962D01*
X154284761Y-112602730D01*
X154045814Y-112555200D01*
X153802186Y-112555200D01*
X153563239Y-112602730D01*
X153338156Y-112695962D01*
X153135586Y-112831315D01*
X152963315Y-113003586D01*
X152827962Y-113206156D01*
X152734730Y-113431239D01*
X152687200Y-113670186D01*
X132302237Y-113670186D01*
X132302237Y-112852200D01*
X132296503Y-112793978D01*
X132279520Y-112737993D01*
X132251941Y-112686397D01*
X132214827Y-112641173D01*
X132169603Y-112604059D01*
X132118007Y-112576480D01*
X132062022Y-112559497D01*
X132003800Y-112553763D01*
X130124200Y-112553763D01*
X130065978Y-112559497D01*
X130009993Y-112576480D01*
X129958397Y-112604059D01*
X129913173Y-112641173D01*
X129876059Y-112686397D01*
X129848480Y-112737993D01*
X129831497Y-112793978D01*
X129825763Y-112852200D01*
X129825763Y-112902379D01*
X129295761Y-112372378D01*
X129284069Y-112358131D01*
X129227242Y-112311495D01*
X129192403Y-112292874D01*
X129312414Y-112212685D01*
X129484685Y-112040414D01*
X129620038Y-111837844D01*
X129713270Y-111612761D01*
X129760800Y-111373814D01*
X129760800Y-111130186D01*
X129827200Y-111130186D01*
X129827200Y-111373814D01*
X129874730Y-111612761D01*
X129967962Y-111837844D01*
X130103315Y-112040414D01*
X130275586Y-112212685D01*
X130478156Y-112348038D01*
X130703239Y-112441270D01*
X130942186Y-112488800D01*
X131185814Y-112488800D01*
X131424761Y-112441270D01*
X131649844Y-112348038D01*
X131852414Y-112212685D01*
X132024685Y-112040414D01*
X132160038Y-111837844D01*
X132253270Y-111612761D01*
X132300800Y-111373814D01*
X132300800Y-111130186D01*
X152687200Y-111130186D01*
X152687200Y-111373814D01*
X152734730Y-111612761D01*
X152827962Y-111837844D01*
X152963315Y-112040414D01*
X153135586Y-112212685D01*
X153338156Y-112348038D01*
X153563239Y-112441270D01*
X153802186Y-112488800D01*
X154045814Y-112488800D01*
X154284761Y-112441270D01*
X154509844Y-112348038D01*
X154712414Y-112212685D01*
X154884685Y-112040414D01*
X155020038Y-111837844D01*
X155113270Y-111612761D01*
X155160800Y-111373814D01*
X155160800Y-111130186D01*
X155227200Y-111130186D01*
X155227200Y-111373814D01*
X155274730Y-111612761D01*
X155367962Y-111837844D01*
X155503315Y-112040414D01*
X155675586Y-112212685D01*
X155878156Y-112348038D01*
X156103239Y-112441270D01*
X156342186Y-112488800D01*
X156585814Y-112488800D01*
X156824761Y-112441270D01*
X157049844Y-112348038D01*
X157252414Y-112212685D01*
X157424685Y-112040414D01*
X157560038Y-111837844D01*
X157653270Y-111612761D01*
X157700800Y-111373814D01*
X157700800Y-111130186D01*
X157653270Y-110891239D01*
X157560038Y-110666156D01*
X157424685Y-110463586D01*
X157252414Y-110291315D01*
X157049844Y-110155962D01*
X156824761Y-110062730D01*
X156585814Y-110015200D01*
X156342186Y-110015200D01*
X156103239Y-110062730D01*
X155878156Y-110155962D01*
X155675586Y-110291315D01*
X155503315Y-110463586D01*
X155367962Y-110666156D01*
X155274730Y-110891239D01*
X155227200Y-111130186D01*
X155160800Y-111130186D01*
X155113270Y-110891239D01*
X155020038Y-110666156D01*
X154884685Y-110463586D01*
X154712414Y-110291315D01*
X154509844Y-110155962D01*
X154284761Y-110062730D01*
X154045814Y-110015200D01*
X153802186Y-110015200D01*
X153563239Y-110062730D01*
X153338156Y-110155962D01*
X153135586Y-110291315D01*
X152963315Y-110463586D01*
X152827962Y-110666156D01*
X152734730Y-110891239D01*
X152687200Y-111130186D01*
X132300800Y-111130186D01*
X132253270Y-110891239D01*
X132160038Y-110666156D01*
X132024685Y-110463586D01*
X131852414Y-110291315D01*
X131649844Y-110155962D01*
X131424761Y-110062730D01*
X131185814Y-110015200D01*
X130942186Y-110015200D01*
X130703239Y-110062730D01*
X130478156Y-110155962D01*
X130275586Y-110291315D01*
X130103315Y-110463586D01*
X129967962Y-110666156D01*
X129874730Y-110891239D01*
X129827200Y-111130186D01*
X129760800Y-111130186D01*
X129713270Y-110891239D01*
X129620038Y-110666156D01*
X129484685Y-110463586D01*
X129312414Y-110291315D01*
X129109844Y-110155962D01*
X128884761Y-110062730D01*
X128645814Y-110015200D01*
X128402186Y-110015200D01*
X128163239Y-110062730D01*
X127938156Y-110155962D01*
X127735586Y-110291315D01*
X127563315Y-110463586D01*
X127427962Y-110666156D01*
X127334730Y-110891239D01*
X127287200Y-111130186D01*
X127287200Y-111373814D01*
X127334730Y-111612761D01*
X127382095Y-111727112D01*
X125821861Y-110166878D01*
X125810169Y-110152631D01*
X125753342Y-110105995D01*
X125688508Y-110071341D01*
X125618160Y-110050001D01*
X125563326Y-110044600D01*
X125563325Y-110044600D01*
X125545000Y-110042795D01*
X125526675Y-110044600D01*
X118882385Y-110044600D01*
X117891594Y-109053810D01*
X117966961Y-108871860D01*
X118012000Y-108645432D01*
X118012000Y-108414568D01*
X117966961Y-108188140D01*
X117878613Y-107974850D01*
X117750352Y-107782893D01*
X117587107Y-107619648D01*
X117395150Y-107491387D01*
X117181860Y-107403039D01*
X116955432Y-107358000D01*
X116724568Y-107358000D01*
X116498140Y-107403039D01*
X116284850Y-107491387D01*
X116092893Y-107619648D01*
X115929648Y-107782893D01*
X115801387Y-107974850D01*
X115713039Y-108188140D01*
X115668000Y-108414568D01*
X115155000Y-108414568D01*
X115155000Y-107137332D01*
X117983000Y-107137332D01*
X117983000Y-107402668D01*
X118034764Y-107662906D01*
X118136304Y-107908044D01*
X118283716Y-108128663D01*
X118471337Y-108316284D01*
X118691956Y-108463696D01*
X118937094Y-108565236D01*
X119197332Y-108617000D01*
X119462668Y-108617000D01*
X119722906Y-108565236D01*
X119968044Y-108463696D01*
X120188663Y-108316284D01*
X120376284Y-108128663D01*
X120523696Y-107908044D01*
X120625236Y-107662906D01*
X120677000Y-107402668D01*
X120677000Y-107137332D01*
X120625236Y-106877094D01*
X120523696Y-106631956D01*
X120376284Y-106411337D01*
X120188663Y-106223716D01*
X119968044Y-106076304D01*
X119722906Y-105974764D01*
X119462668Y-105923000D01*
X119197332Y-105923000D01*
X118937094Y-105974764D01*
X118691956Y-106076304D01*
X118471337Y-106223716D01*
X118283716Y-106411337D01*
X118136304Y-106631956D01*
X118034764Y-106877094D01*
X117983000Y-107137332D01*
X115155000Y-107137332D01*
X115155000Y-105267000D01*
X116471928Y-105267000D01*
X116484188Y-105391482D01*
X116520498Y-105511180D01*
X116579463Y-105621494D01*
X116658815Y-105718185D01*
X116755506Y-105797537D01*
X116865820Y-105856502D01*
X116985518Y-105892812D01*
X117110000Y-105905072D01*
X117824250Y-105902000D01*
X117983000Y-105743250D01*
X117983000Y-104394000D01*
X118237000Y-104394000D01*
X118237000Y-105743250D01*
X118395750Y-105902000D01*
X119110000Y-105905072D01*
X119234482Y-105892812D01*
X119354180Y-105856502D01*
X119464494Y-105797537D01*
X119561185Y-105718185D01*
X119640537Y-105621494D01*
X119699502Y-105511180D01*
X119735812Y-105391482D01*
X119748072Y-105267000D01*
X119745000Y-104552750D01*
X119586250Y-104394000D01*
X118237000Y-104394000D01*
X117983000Y-104394000D01*
X116633750Y-104394000D01*
X116475000Y-104552750D01*
X116471928Y-105267000D01*
X115155000Y-105267000D01*
X115155000Y-103267000D01*
X116471928Y-103267000D01*
X116475000Y-103981250D01*
X116633750Y-104140000D01*
X117983000Y-104140000D01*
X117983000Y-104120000D01*
X118237000Y-104120000D01*
X118237000Y-104140000D01*
X119586250Y-104140000D01*
X119745000Y-103981250D01*
X119745392Y-103890176D01*
X122435801Y-106580586D01*
X122435801Y-107148346D01*
X122425619Y-107151435D01*
X122252416Y-107244014D01*
X122100603Y-107368603D01*
X121976014Y-107520416D01*
X121883435Y-107693619D01*
X121826426Y-107881554D01*
X121807176Y-108077000D01*
X121826426Y-108272446D01*
X121883435Y-108460381D01*
X121976014Y-108633584D01*
X122100603Y-108785397D01*
X122252416Y-108909986D01*
X122425619Y-109002565D01*
X122613554Y-109059574D01*
X122760022Y-109074000D01*
X122857978Y-109074000D01*
X123004446Y-109059574D01*
X123192381Y-109002565D01*
X123365584Y-108909986D01*
X123517397Y-108785397D01*
X123641986Y-108633584D01*
X123734565Y-108460381D01*
X123791574Y-108272446D01*
X123810824Y-108077000D01*
X123791574Y-107881554D01*
X123734565Y-107693619D01*
X123641986Y-107520416D01*
X123517397Y-107368603D01*
X123365584Y-107244014D01*
X123192381Y-107151435D01*
X123182200Y-107148347D01*
X123182200Y-106444325D01*
X123184005Y-106426000D01*
X123176799Y-106352840D01*
X123155459Y-106282492D01*
X123124043Y-106223716D01*
X123120805Y-106217658D01*
X123074169Y-106160831D01*
X123059933Y-106149148D01*
X122793181Y-105882396D01*
X122827518Y-105892812D01*
X122952000Y-105905072D01*
X123666250Y-105902000D01*
X123825000Y-105743250D01*
X123825000Y-104394000D01*
X122475750Y-104394000D01*
X122317000Y-104552750D01*
X122313928Y-105267000D01*
X122326188Y-105391482D01*
X122336604Y-105425819D01*
X120177785Y-103267000D01*
X122313928Y-103267000D01*
X122317000Y-103981250D01*
X122475750Y-104140000D01*
X123825000Y-104140000D01*
X123825000Y-104120000D01*
X124079000Y-104120000D01*
X124079000Y-104140000D01*
X124099000Y-104140000D01*
X124099000Y-104394000D01*
X124079000Y-104394000D01*
X124079000Y-105743250D01*
X124237750Y-105902000D01*
X124952000Y-105905072D01*
X125076482Y-105892812D01*
X125102800Y-105884828D01*
X125102800Y-107148347D01*
X125092619Y-107151435D01*
X124919416Y-107244014D01*
X124767603Y-107368603D01*
X124643014Y-107520416D01*
X124550435Y-107693619D01*
X124493426Y-107881554D01*
X124474176Y-108077000D01*
X124493426Y-108272446D01*
X124550435Y-108460381D01*
X124643014Y-108633584D01*
X124767603Y-108785397D01*
X124919416Y-108909986D01*
X125092619Y-109002565D01*
X125280554Y-109059574D01*
X125427022Y-109074000D01*
X125524978Y-109074000D01*
X125671446Y-109059574D01*
X125859381Y-109002565D01*
X126032584Y-108909986D01*
X126184397Y-108785397D01*
X126308986Y-108633584D01*
X126332182Y-108590186D01*
X127287200Y-108590186D01*
X127287200Y-108833814D01*
X127334730Y-109072761D01*
X127427962Y-109297844D01*
X127563315Y-109500414D01*
X127735586Y-109672685D01*
X127938156Y-109808038D01*
X128163239Y-109901270D01*
X128402186Y-109948800D01*
X128645814Y-109948800D01*
X128884761Y-109901270D01*
X129109844Y-109808038D01*
X129312414Y-109672685D01*
X129484685Y-109500414D01*
X129620038Y-109297844D01*
X129713270Y-109072761D01*
X129760800Y-108833814D01*
X129760800Y-108590186D01*
X129827200Y-108590186D01*
X129827200Y-108833814D01*
X129874730Y-109072761D01*
X129967962Y-109297844D01*
X130103315Y-109500414D01*
X130275586Y-109672685D01*
X130478156Y-109808038D01*
X130703239Y-109901270D01*
X130942186Y-109948800D01*
X131185814Y-109948800D01*
X131424761Y-109901270D01*
X131649844Y-109808038D01*
X131852414Y-109672685D01*
X132024685Y-109500414D01*
X132160038Y-109297844D01*
X132253270Y-109072761D01*
X132300800Y-108833814D01*
X132300800Y-108590186D01*
X152687200Y-108590186D01*
X152687200Y-108833814D01*
X152734730Y-109072761D01*
X152827962Y-109297844D01*
X152963315Y-109500414D01*
X153135586Y-109672685D01*
X153338156Y-109808038D01*
X153563239Y-109901270D01*
X153802186Y-109948800D01*
X154045814Y-109948800D01*
X154284761Y-109901270D01*
X154509844Y-109808038D01*
X154712414Y-109672685D01*
X154884685Y-109500414D01*
X155020038Y-109297844D01*
X155113270Y-109072761D01*
X155160800Y-108833814D01*
X155160800Y-108590186D01*
X155113270Y-108351239D01*
X155020038Y-108126156D01*
X154884685Y-107923586D01*
X154712414Y-107751315D01*
X154529060Y-107628802D01*
X154589086Y-107607865D01*
X154748377Y-107522723D01*
X154836871Y-107264476D01*
X153924000Y-106351605D01*
X153011129Y-107264476D01*
X153099623Y-107522723D01*
X153319106Y-107628691D01*
X153135586Y-107751315D01*
X152963315Y-107923586D01*
X152827962Y-108126156D01*
X152734730Y-108351239D01*
X152687200Y-108590186D01*
X132300800Y-108590186D01*
X132253270Y-108351239D01*
X132160038Y-108126156D01*
X132024685Y-107923586D01*
X131852414Y-107751315D01*
X131649844Y-107615962D01*
X131424761Y-107522730D01*
X131185814Y-107475200D01*
X130942186Y-107475200D01*
X130703239Y-107522730D01*
X130478156Y-107615962D01*
X130275586Y-107751315D01*
X130103315Y-107923586D01*
X129967962Y-108126156D01*
X129874730Y-108351239D01*
X129827200Y-108590186D01*
X129760800Y-108590186D01*
X129713270Y-108351239D01*
X129620038Y-108126156D01*
X129484685Y-107923586D01*
X129312414Y-107751315D01*
X129109844Y-107615962D01*
X128884761Y-107522730D01*
X128645814Y-107475200D01*
X128402186Y-107475200D01*
X128163239Y-107522730D01*
X127938156Y-107615962D01*
X127735586Y-107751315D01*
X127563315Y-107923586D01*
X127427962Y-108126156D01*
X127334730Y-108351239D01*
X127287200Y-108590186D01*
X126332182Y-108590186D01*
X126401565Y-108460381D01*
X126458574Y-108272446D01*
X126477824Y-108077000D01*
X126458574Y-107881554D01*
X126401565Y-107693619D01*
X126308986Y-107520416D01*
X126184397Y-107368603D01*
X126032584Y-107244014D01*
X125859381Y-107151435D01*
X125849200Y-107148347D01*
X125849200Y-103269325D01*
X125851005Y-103250999D01*
X125843799Y-103177840D01*
X125833084Y-103142518D01*
X125822459Y-103107492D01*
X125787805Y-103042658D01*
X125741169Y-102985831D01*
X125726933Y-102974148D01*
X125098486Y-102345702D01*
X125101387Y-102341360D01*
X125199157Y-102105321D01*
X125249000Y-101854743D01*
X125249000Y-101599257D01*
X125199157Y-101348679D01*
X125122480Y-101163564D01*
X126779600Y-102820684D01*
X126779601Y-104782465D01*
X126777795Y-104800800D01*
X126785001Y-104873959D01*
X126806342Y-104944308D01*
X126826879Y-104982730D01*
X126840996Y-105009142D01*
X126887632Y-105065969D01*
X126901873Y-105077657D01*
X127422810Y-105598594D01*
X127334730Y-105811239D01*
X127287200Y-106050186D01*
X127287200Y-106293814D01*
X127334730Y-106532761D01*
X127427962Y-106757844D01*
X127563315Y-106960414D01*
X127735586Y-107132685D01*
X127938156Y-107268038D01*
X128163239Y-107361270D01*
X128402186Y-107408800D01*
X128645814Y-107408800D01*
X128884761Y-107361270D01*
X129109844Y-107268038D01*
X129312414Y-107132685D01*
X129484685Y-106960414D01*
X129620038Y-106757844D01*
X129713270Y-106532761D01*
X129760800Y-106293814D01*
X129760800Y-106050186D01*
X129827200Y-106050186D01*
X129827200Y-106293814D01*
X129874730Y-106532761D01*
X129967962Y-106757844D01*
X130103315Y-106960414D01*
X130275586Y-107132685D01*
X130478156Y-107268038D01*
X130703239Y-107361270D01*
X130942186Y-107408800D01*
X131185814Y-107408800D01*
X131424761Y-107361270D01*
X131649844Y-107268038D01*
X131852414Y-107132685D01*
X132024685Y-106960414D01*
X132160038Y-106757844D01*
X132253270Y-106532761D01*
X132300800Y-106293814D01*
X132300800Y-106050186D01*
X132253270Y-105811239D01*
X132160038Y-105586156D01*
X132024685Y-105383586D01*
X131852414Y-105211315D01*
X131649844Y-105075962D01*
X131424761Y-104982730D01*
X131185814Y-104935200D01*
X130942186Y-104935200D01*
X130703239Y-104982730D01*
X130478156Y-105075962D01*
X130275586Y-105211315D01*
X130103315Y-105383586D01*
X129967962Y-105586156D01*
X129874730Y-105811239D01*
X129827200Y-106050186D01*
X129760800Y-106050186D01*
X129713270Y-105811239D01*
X129620038Y-105586156D01*
X129484685Y-105383586D01*
X129312414Y-105211315D01*
X129109844Y-105075962D01*
X128884761Y-104982730D01*
X128645814Y-104935200D01*
X128402186Y-104935200D01*
X128163239Y-104982730D01*
X127950594Y-105070810D01*
X127526000Y-104646217D01*
X127526000Y-104364568D01*
X127563315Y-104420414D01*
X127735586Y-104592685D01*
X127938156Y-104728038D01*
X128163239Y-104821270D01*
X128402186Y-104868800D01*
X128645814Y-104868800D01*
X128884761Y-104821270D01*
X129109844Y-104728038D01*
X129312414Y-104592685D01*
X129484685Y-104420414D01*
X129620038Y-104217844D01*
X129713270Y-103992761D01*
X129760800Y-103753814D01*
X129760800Y-103510186D01*
X129713270Y-103271239D01*
X129620038Y-103046156D01*
X129484685Y-102843586D01*
X129312414Y-102671315D01*
X129109844Y-102535962D01*
X128884761Y-102442730D01*
X128645814Y-102395200D01*
X128402186Y-102395200D01*
X128163239Y-102442730D01*
X127938156Y-102535962D01*
X127735586Y-102671315D01*
X127563315Y-102843586D01*
X127526000Y-102899432D01*
X127526000Y-102684425D01*
X127527805Y-102666100D01*
X127520599Y-102592940D01*
X127499259Y-102522592D01*
X127464605Y-102457758D01*
X127452272Y-102442730D01*
X127417969Y-102400931D01*
X127403729Y-102389245D01*
X124409483Y-99395000D01*
X125167882Y-99395000D01*
X125329049Y-99379126D01*
X125535835Y-99316399D01*
X125726409Y-99214535D01*
X125893449Y-99077449D01*
X126030535Y-98910409D01*
X126132399Y-98719835D01*
X126195126Y-98513049D01*
X126204060Y-98422343D01*
X127841957Y-100060240D01*
X127735586Y-100131315D01*
X127563315Y-100303586D01*
X127427962Y-100506156D01*
X127334730Y-100731239D01*
X127287200Y-100970186D01*
X127287200Y-101213814D01*
X127334730Y-101452761D01*
X127427962Y-101677844D01*
X127563315Y-101880414D01*
X127735586Y-102052685D01*
X127938156Y-102188038D01*
X128163239Y-102281270D01*
X128402186Y-102328800D01*
X128645814Y-102328800D01*
X128884761Y-102281270D01*
X129109844Y-102188038D01*
X129312414Y-102052685D01*
X129420801Y-101944298D01*
X129420801Y-102343665D01*
X129418995Y-102362000D01*
X129426201Y-102435159D01*
X129428498Y-102442730D01*
X129447542Y-102505508D01*
X129482196Y-102570342D01*
X129528832Y-102627169D01*
X129543073Y-102638857D01*
X129962810Y-103058594D01*
X129874730Y-103271239D01*
X129827200Y-103510186D01*
X129827200Y-103753814D01*
X129874730Y-103992761D01*
X129967962Y-104217844D01*
X130103315Y-104420414D01*
X130275586Y-104592685D01*
X130478156Y-104728038D01*
X130703239Y-104821270D01*
X130942186Y-104868800D01*
X131185814Y-104868800D01*
X131424761Y-104821270D01*
X131649844Y-104728038D01*
X131852414Y-104592685D01*
X132024685Y-104420414D01*
X132160038Y-104217844D01*
X132253270Y-103992761D01*
X132300800Y-103753814D01*
X132300800Y-103510186D01*
X132253270Y-103271239D01*
X132160038Y-103046156D01*
X132024685Y-102843586D01*
X131852414Y-102671315D01*
X131649844Y-102535962D01*
X131424761Y-102442730D01*
X131185814Y-102395200D01*
X130942186Y-102395200D01*
X130703239Y-102442730D01*
X130490594Y-102530810D01*
X130167200Y-102207417D01*
X130167200Y-101944299D01*
X130275586Y-102052685D01*
X130478156Y-102188038D01*
X130703239Y-102281270D01*
X130942186Y-102328800D01*
X131185814Y-102328800D01*
X131424761Y-102281270D01*
X131649844Y-102188038D01*
X131852414Y-102052685D01*
X132024685Y-101880414D01*
X132160038Y-101677844D01*
X132253270Y-101452761D01*
X132300800Y-101213814D01*
X132300800Y-100970186D01*
X132253270Y-100731239D01*
X132160038Y-100506156D01*
X132024685Y-100303586D01*
X131852414Y-100131315D01*
X131649844Y-99995962D01*
X131424761Y-99902730D01*
X131185814Y-99855200D01*
X130942186Y-99855200D01*
X130703239Y-99902730D01*
X130478156Y-99995962D01*
X130275586Y-100131315D01*
X130103315Y-100303586D01*
X130037568Y-100401984D01*
X129307861Y-99672278D01*
X129296169Y-99658031D01*
X129239342Y-99611395D01*
X129197864Y-99589225D01*
X129312414Y-99512685D01*
X129484685Y-99340414D01*
X129620038Y-99137844D01*
X129713270Y-98912761D01*
X129760800Y-98673814D01*
X129760800Y-98430186D01*
X129827200Y-98430186D01*
X129827200Y-98673814D01*
X129874730Y-98912761D01*
X129967962Y-99137844D01*
X130103315Y-99340414D01*
X130275586Y-99512685D01*
X130478156Y-99648038D01*
X130703239Y-99741270D01*
X130942186Y-99788800D01*
X131185814Y-99788800D01*
X131424761Y-99741270D01*
X131649844Y-99648038D01*
X131852414Y-99512685D01*
X132024685Y-99340414D01*
X132160038Y-99137844D01*
X132253270Y-98912761D01*
X132300800Y-98673814D01*
X132300800Y-98430186D01*
X132253270Y-98191239D01*
X132160038Y-97966156D01*
X132024685Y-97763586D01*
X131852414Y-97591315D01*
X131649844Y-97455962D01*
X131424761Y-97362730D01*
X131185814Y-97315200D01*
X130942186Y-97315200D01*
X130703239Y-97362730D01*
X130478156Y-97455962D01*
X130275586Y-97591315D01*
X130103315Y-97763586D01*
X129967962Y-97966156D01*
X129874730Y-98191239D01*
X129827200Y-98430186D01*
X129760800Y-98430186D01*
X129713270Y-98191239D01*
X129620038Y-97966156D01*
X129484685Y-97763586D01*
X129312414Y-97591315D01*
X129109844Y-97455962D01*
X128884761Y-97362730D01*
X128645814Y-97315200D01*
X128402186Y-97315200D01*
X128163239Y-97362730D01*
X127950594Y-97450810D01*
X126516100Y-96016317D01*
X126516100Y-95890186D01*
X127287200Y-95890186D01*
X127287200Y-96133814D01*
X127334730Y-96372761D01*
X127427962Y-96597844D01*
X127563315Y-96800414D01*
X127735586Y-96972685D01*
X127938156Y-97108038D01*
X128163239Y-97201270D01*
X128402186Y-97248800D01*
X128645814Y-97248800D01*
X128884761Y-97201270D01*
X129109844Y-97108038D01*
X129312414Y-96972685D01*
X129484685Y-96800414D01*
X129620038Y-96597844D01*
X129713270Y-96372761D01*
X129760800Y-96133814D01*
X129760800Y-95890186D01*
X129827200Y-95890186D01*
X129827200Y-96133814D01*
X129874730Y-96372761D01*
X129967962Y-96597844D01*
X130103315Y-96800414D01*
X130275586Y-96972685D01*
X130478156Y-97108038D01*
X130703239Y-97201270D01*
X130942186Y-97248800D01*
X131185814Y-97248800D01*
X131424761Y-97201270D01*
X131649844Y-97108038D01*
X131852414Y-96972685D01*
X132024685Y-96800414D01*
X132160038Y-96597844D01*
X132253270Y-96372761D01*
X132300800Y-96133814D01*
X132300800Y-95890186D01*
X132253270Y-95651239D01*
X132160038Y-95426156D01*
X132024685Y-95223586D01*
X131852414Y-95051315D01*
X131649844Y-94915962D01*
X131424761Y-94822730D01*
X131185814Y-94775200D01*
X130942186Y-94775200D01*
X130703239Y-94822730D01*
X130478156Y-94915962D01*
X130275586Y-95051315D01*
X130103315Y-95223586D01*
X129967962Y-95426156D01*
X129874730Y-95651239D01*
X129827200Y-95890186D01*
X129760800Y-95890186D01*
X129713270Y-95651239D01*
X129620038Y-95426156D01*
X129484685Y-95223586D01*
X129312414Y-95051315D01*
X129109844Y-94915962D01*
X128884761Y-94822730D01*
X128645814Y-94775200D01*
X128402186Y-94775200D01*
X128163239Y-94822730D01*
X127938156Y-94915962D01*
X127735586Y-95051315D01*
X127563315Y-95223586D01*
X127427962Y-95426156D01*
X127334730Y-95651239D01*
X127287200Y-95890186D01*
X126516100Y-95890186D01*
X126516100Y-93350186D01*
X127287200Y-93350186D01*
X127287200Y-93593814D01*
X127334730Y-93832761D01*
X127427962Y-94057844D01*
X127563315Y-94260414D01*
X127735586Y-94432685D01*
X127938156Y-94568038D01*
X128163239Y-94661270D01*
X128402186Y-94708800D01*
X128645814Y-94708800D01*
X128884761Y-94661270D01*
X129109844Y-94568038D01*
X129312414Y-94432685D01*
X129484685Y-94260414D01*
X129620038Y-94057844D01*
X129713270Y-93832761D01*
X129760800Y-93593814D01*
X129760800Y-93350186D01*
X129827200Y-93350186D01*
X129827200Y-93593814D01*
X129874730Y-93832761D01*
X129967962Y-94057844D01*
X130103315Y-94260414D01*
X130275586Y-94432685D01*
X130478156Y-94568038D01*
X130703239Y-94661270D01*
X130942186Y-94708800D01*
X131185814Y-94708800D01*
X131424761Y-94661270D01*
X131649844Y-94568038D01*
X131852414Y-94432685D01*
X132024685Y-94260414D01*
X132160038Y-94057844D01*
X132253270Y-93832761D01*
X132300800Y-93593814D01*
X132300800Y-93350186D01*
X132253270Y-93111239D01*
X132160038Y-92886156D01*
X132024685Y-92683586D01*
X131852414Y-92511315D01*
X131649844Y-92375962D01*
X131424761Y-92282730D01*
X131185814Y-92235200D01*
X130942186Y-92235200D01*
X130703239Y-92282730D01*
X130478156Y-92375962D01*
X130275586Y-92511315D01*
X130103315Y-92683586D01*
X129967962Y-92886156D01*
X129874730Y-93111239D01*
X129827200Y-93350186D01*
X129760800Y-93350186D01*
X129713270Y-93111239D01*
X129620038Y-92886156D01*
X129484685Y-92683586D01*
X129312414Y-92511315D01*
X129129060Y-92388802D01*
X129189086Y-92367865D01*
X129348377Y-92282723D01*
X129436871Y-92024476D01*
X128524000Y-91111605D01*
X127611129Y-92024476D01*
X127699623Y-92282723D01*
X127919106Y-92388691D01*
X127735586Y-92511315D01*
X127563315Y-92683586D01*
X127427962Y-92886156D01*
X127334730Y-93111239D01*
X127287200Y-93350186D01*
X126516100Y-93350186D01*
X126516100Y-90996977D01*
X126942916Y-90996977D01*
X126985973Y-91304184D01*
X127088135Y-91597086D01*
X127173277Y-91756377D01*
X127431524Y-91844871D01*
X128344395Y-90932000D01*
X128703605Y-90932000D01*
X129616476Y-91844871D01*
X129874723Y-91756377D01*
X129980691Y-91536894D01*
X130103315Y-91720414D01*
X130275586Y-91892685D01*
X130478156Y-92028038D01*
X130703239Y-92121270D01*
X130942186Y-92168800D01*
X131185814Y-92168800D01*
X131424761Y-92121270D01*
X131649844Y-92028038D01*
X131852414Y-91892685D01*
X132024685Y-91720414D01*
X132160038Y-91517844D01*
X132253270Y-91292761D01*
X132300800Y-91053814D01*
X132300800Y-90810186D01*
X132253270Y-90571239D01*
X132160038Y-90346156D01*
X132024685Y-90143586D01*
X131852414Y-89971315D01*
X131649844Y-89835962D01*
X131424761Y-89742730D01*
X131185814Y-89695200D01*
X130942186Y-89695200D01*
X130703239Y-89742730D01*
X130478156Y-89835962D01*
X130275586Y-89971315D01*
X130103315Y-90143586D01*
X129980802Y-90326940D01*
X129959865Y-90266914D01*
X129874723Y-90107623D01*
X129616476Y-90019129D01*
X128703605Y-90932000D01*
X128344395Y-90932000D01*
X127431524Y-90019129D01*
X127173277Y-90107623D01*
X127038403Y-90386976D01*
X126960619Y-90687275D01*
X126942916Y-90996977D01*
X126516100Y-90996977D01*
X126516100Y-89839524D01*
X127611129Y-89839524D01*
X128524000Y-90752395D01*
X129436871Y-89839524D01*
X129348377Y-89581277D01*
X129069024Y-89446403D01*
X128768725Y-89368619D01*
X128459023Y-89350916D01*
X128151816Y-89393973D01*
X127858914Y-89496135D01*
X127699623Y-89581277D01*
X127611129Y-89839524D01*
X126516100Y-89839524D01*
X126516100Y-85616325D01*
X126517905Y-85598000D01*
X126510699Y-85524840D01*
X126489359Y-85454492D01*
X126454705Y-85389658D01*
X126408069Y-85332831D01*
X126351242Y-85286195D01*
X126286408Y-85251541D01*
X126216060Y-85230201D01*
X126161226Y-85224800D01*
X126161225Y-85224800D01*
X126146719Y-85223371D01*
X126132399Y-85176165D01*
X126030535Y-84985591D01*
X125893449Y-84818551D01*
X125726409Y-84681465D01*
X125535835Y-84579601D01*
X125329049Y-84516874D01*
X125167882Y-84501000D01*
X124260118Y-84501000D01*
X124098951Y-84516874D01*
X123892165Y-84579601D01*
X123701591Y-84681465D01*
X123534551Y-84818551D01*
X123397465Y-84985591D01*
X123295601Y-85176165D01*
X123232874Y-85382951D01*
X123211693Y-85598000D01*
X123232874Y-85813049D01*
X123295601Y-86019835D01*
X123397465Y-86210409D01*
X123534551Y-86377449D01*
X123701591Y-86514535D01*
X123892165Y-86616399D01*
X124098951Y-86679126D01*
X124260118Y-86695000D01*
X125167882Y-86695000D01*
X125329049Y-86679126D01*
X125535835Y-86616399D01*
X125726409Y-86514535D01*
X125769700Y-86479007D01*
X125769700Y-87256993D01*
X125726409Y-87221465D01*
X125535835Y-87119601D01*
X125329049Y-87056874D01*
X125167882Y-87041000D01*
X124260118Y-87041000D01*
X124098951Y-87056874D01*
X123892165Y-87119601D01*
X123701591Y-87221465D01*
X123534551Y-87358551D01*
X123397465Y-87525591D01*
X123295601Y-87716165D01*
X123232874Y-87922951D01*
X123211693Y-88138000D01*
X123232874Y-88353049D01*
X123295601Y-88559835D01*
X123397465Y-88750409D01*
X123534551Y-88917449D01*
X123701591Y-89054535D01*
X123892165Y-89156399D01*
X124098951Y-89219126D01*
X124260118Y-89235000D01*
X125167882Y-89235000D01*
X125329049Y-89219126D01*
X125535835Y-89156399D01*
X125726409Y-89054535D01*
X125769700Y-89019007D01*
X125769700Y-89796993D01*
X125726409Y-89761465D01*
X125535835Y-89659601D01*
X125329049Y-89596874D01*
X125167882Y-89581000D01*
X124260118Y-89581000D01*
X124098951Y-89596874D01*
X123892165Y-89659601D01*
X123701591Y-89761465D01*
X123534551Y-89898551D01*
X123397465Y-90065591D01*
X123295601Y-90256165D01*
X123281281Y-90303371D01*
X123266774Y-90304800D01*
X123211940Y-90310201D01*
X123141592Y-90331541D01*
X123076758Y-90366195D01*
X123019931Y-90412831D01*
X122973295Y-90469658D01*
X122938641Y-90534492D01*
X122917301Y-90604840D01*
X122910095Y-90678000D01*
X122911900Y-90696325D01*
X122911901Y-98780065D01*
X122910095Y-98798400D01*
X122917301Y-98871559D01*
X122929800Y-98912761D01*
X122938642Y-98941908D01*
X122973296Y-99006742D01*
X123019932Y-99063569D01*
X123034174Y-99075257D01*
X124515437Y-100556520D01*
X124330321Y-100479843D01*
X124079743Y-100430000D01*
X123824257Y-100430000D01*
X123573679Y-100479843D01*
X123337640Y-100577613D01*
X123125210Y-100719554D01*
X122944554Y-100900210D01*
X122802613Y-101112640D01*
X122704843Y-101348679D01*
X122655000Y-101599257D01*
X122655000Y-101854743D01*
X122704843Y-102105321D01*
X122802613Y-102341360D01*
X122944554Y-102553790D01*
X123019984Y-102629220D01*
X122952000Y-102628928D01*
X122827518Y-102641188D01*
X122707820Y-102677498D01*
X122597506Y-102736463D01*
X122500815Y-102815815D01*
X122421463Y-102912506D01*
X122362498Y-103022820D01*
X122326188Y-103142518D01*
X122313928Y-103267000D01*
X120177785Y-103267000D01*
X119256486Y-102345702D01*
X119259387Y-102341360D01*
X119357157Y-102105321D01*
X119407000Y-101854743D01*
X119407000Y-101599257D01*
X119357157Y-101348679D01*
X119259387Y-101112640D01*
X119117446Y-100900210D01*
X118936790Y-100719554D01*
X118724360Y-100577613D01*
X118488321Y-100479843D01*
X118237743Y-100430000D01*
X117982257Y-100430000D01*
X117731679Y-100479843D01*
X117495640Y-100577613D01*
X117283210Y-100719554D01*
X117102554Y-100900210D01*
X116960613Y-101112640D01*
X116862843Y-101348679D01*
X116813000Y-101599257D01*
X116813000Y-101854743D01*
X116862843Y-102105321D01*
X116960613Y-102341360D01*
X117102554Y-102553790D01*
X117177984Y-102629220D01*
X117110000Y-102628928D01*
X116985518Y-102641188D01*
X116865820Y-102677498D01*
X116755506Y-102736463D01*
X116658815Y-102815815D01*
X116579463Y-102912506D01*
X116520498Y-103022820D01*
X116484188Y-103142518D01*
X116471928Y-103267000D01*
X115155000Y-103267000D01*
X115155000Y-98647039D01*
X115302096Y-98647039D01*
X115319633Y-98729818D01*
X115430285Y-98989646D01*
X115589500Y-99222895D01*
X115791161Y-99420601D01*
X116027517Y-99575166D01*
X116289486Y-99680650D01*
X116567000Y-99733000D01*
X116967000Y-99733000D01*
X116967000Y-98425000D01*
X117221000Y-98425000D01*
X117221000Y-99733000D01*
X117621000Y-99733000D01*
X117898514Y-99680650D01*
X118160483Y-99575166D01*
X118396839Y-99420601D01*
X118598500Y-99222895D01*
X118757715Y-98989646D01*
X118868367Y-98729818D01*
X118885904Y-98647039D01*
X118763915Y-98425000D01*
X117221000Y-98425000D01*
X116967000Y-98425000D01*
X115424085Y-98425000D01*
X115302096Y-98647039D01*
X115155000Y-98647039D01*
X115155000Y-97948961D01*
X115302096Y-97948961D01*
X115424085Y-98171000D01*
X116967000Y-98171000D01*
X116967000Y-98151000D01*
X117221000Y-98151000D01*
X117221000Y-98171000D01*
X118763915Y-98171000D01*
X118885904Y-97948961D01*
X118868367Y-97866182D01*
X118757715Y-97606354D01*
X118598500Y-97373105D01*
X118396839Y-97175399D01*
X118160483Y-97020834D01*
X117898514Y-96915350D01*
X117621000Y-96863000D01*
X116567000Y-96863000D01*
X116289486Y-96915350D01*
X116027517Y-97020834D01*
X115791161Y-97175399D01*
X115589500Y-97373105D01*
X115430285Y-97606354D01*
X115319633Y-97866182D01*
X115302096Y-97948961D01*
X115155000Y-97948961D01*
X115155000Y-87679000D01*
X115290095Y-87679000D01*
X115291901Y-87697335D01*
X115291900Y-90659674D01*
X115290095Y-90678000D01*
X115297301Y-90751160D01*
X115318641Y-90821508D01*
X115353295Y-90886342D01*
X115390765Y-90932000D01*
X115399931Y-90943169D01*
X115456758Y-90989805D01*
X115521592Y-91024459D01*
X115591940Y-91045799D01*
X115661281Y-91052629D01*
X115675601Y-91099835D01*
X115777465Y-91290409D01*
X115914551Y-91457449D01*
X116081591Y-91594535D01*
X116272165Y-91696399D01*
X116478951Y-91759126D01*
X116640118Y-91775000D01*
X117547882Y-91775000D01*
X117709049Y-91759126D01*
X117915835Y-91696399D01*
X118106409Y-91594535D01*
X118149700Y-91559007D01*
X118149700Y-92336993D01*
X118106409Y-92301465D01*
X117915835Y-92199601D01*
X117709049Y-92136874D01*
X117547882Y-92121000D01*
X116640118Y-92121000D01*
X116478951Y-92136874D01*
X116272165Y-92199601D01*
X116081591Y-92301465D01*
X115914551Y-92438551D01*
X115777465Y-92605591D01*
X115675601Y-92796165D01*
X115612874Y-93002951D01*
X115591693Y-93218000D01*
X115612874Y-93433049D01*
X115675601Y-93639835D01*
X115777465Y-93830409D01*
X115914551Y-93997449D01*
X116081591Y-94134535D01*
X116272165Y-94236399D01*
X116478951Y-94299126D01*
X116640118Y-94315000D01*
X117547882Y-94315000D01*
X117709049Y-94299126D01*
X117915835Y-94236399D01*
X118106409Y-94134535D01*
X118149700Y-94099007D01*
X118149700Y-94876993D01*
X118106409Y-94841465D01*
X117915835Y-94739601D01*
X117709049Y-94676874D01*
X117547882Y-94661000D01*
X116640118Y-94661000D01*
X116478951Y-94676874D01*
X116272165Y-94739601D01*
X116081591Y-94841465D01*
X115914551Y-94978551D01*
X115777465Y-95145591D01*
X115675601Y-95336165D01*
X115612874Y-95542951D01*
X115591693Y-95758000D01*
X115612874Y-95973049D01*
X115675601Y-96179835D01*
X115777465Y-96370409D01*
X115914551Y-96537449D01*
X116081591Y-96674535D01*
X116272165Y-96776399D01*
X116478951Y-96839126D01*
X116640118Y-96855000D01*
X117547882Y-96855000D01*
X117709049Y-96839126D01*
X117915835Y-96776399D01*
X118106409Y-96674535D01*
X118273449Y-96537449D01*
X118410535Y-96370409D01*
X118512399Y-96179835D01*
X118526719Y-96132629D01*
X118541225Y-96131200D01*
X118541226Y-96131200D01*
X118596060Y-96125799D01*
X118666408Y-96104459D01*
X118731242Y-96069805D01*
X118788069Y-96023169D01*
X118834705Y-95966342D01*
X118869359Y-95901508D01*
X118890699Y-95831160D01*
X118893463Y-95803101D01*
X118896100Y-95776326D01*
X118896100Y-95776325D01*
X118897905Y-95758000D01*
X118896100Y-95739674D01*
X118896100Y-87196683D01*
X123231021Y-82861762D01*
X123211693Y-83058000D01*
X123232874Y-83273049D01*
X123295601Y-83479835D01*
X123397465Y-83670409D01*
X123534551Y-83837449D01*
X123701591Y-83974535D01*
X123892165Y-84076399D01*
X124098951Y-84139126D01*
X124260118Y-84155000D01*
X125167882Y-84155000D01*
X125329049Y-84139126D01*
X125535835Y-84076399D01*
X125726409Y-83974535D01*
X125893449Y-83837449D01*
X126030535Y-83670409D01*
X126099152Y-83542035D01*
X142374800Y-99817684D01*
X142374801Y-101979563D01*
X141648000Y-101979563D01*
X141589778Y-101985297D01*
X141533793Y-102002280D01*
X141482197Y-102029859D01*
X141436973Y-102066973D01*
X141399859Y-102112197D01*
X141372280Y-102163793D01*
X141355297Y-102219778D01*
X141349563Y-102278000D01*
X141349563Y-104478000D01*
X141355297Y-104536222D01*
X141372280Y-104592207D01*
X141399859Y-104643803D01*
X141436973Y-104689027D01*
X141482197Y-104726141D01*
X141533793Y-104753720D01*
X141589778Y-104770703D01*
X141648000Y-104776437D01*
X143848000Y-104776437D01*
X143906222Y-104770703D01*
X143962207Y-104753720D01*
X144013803Y-104726141D01*
X144059027Y-104689027D01*
X144096141Y-104643803D01*
X144123720Y-104592207D01*
X144140703Y-104536222D01*
X144146437Y-104478000D01*
X144146437Y-102278000D01*
X144140703Y-102219778D01*
X144123720Y-102163793D01*
X144096141Y-102112197D01*
X144059027Y-102066973D01*
X144013803Y-102029859D01*
X143962207Y-102002280D01*
X143906222Y-101985297D01*
X143848000Y-101979563D01*
X143121200Y-101979563D01*
X143121200Y-99681425D01*
X143123005Y-99663100D01*
X143115799Y-99589940D01*
X143094459Y-99519592D01*
X143090767Y-99512685D01*
X143059805Y-99454758D01*
X143013169Y-99397931D01*
X142998929Y-99386245D01*
X136830684Y-93218000D01*
X141344241Y-93218000D01*
X141371214Y-93491860D01*
X141451096Y-93755195D01*
X141580817Y-93997887D01*
X141755392Y-94210608D01*
X141968113Y-94385183D01*
X142210805Y-94514904D01*
X142374742Y-94564634D01*
X142380201Y-94620059D01*
X142401542Y-94690408D01*
X142427836Y-94739601D01*
X142436196Y-94755242D01*
X142482832Y-94812069D01*
X142497074Y-94823757D01*
X152766153Y-105092837D01*
X152715691Y-105143299D01*
X152831522Y-105259130D01*
X152573277Y-105347623D01*
X152438403Y-105626976D01*
X152360619Y-105927275D01*
X152342916Y-106236977D01*
X152385973Y-106544184D01*
X152488135Y-106837086D01*
X152573277Y-106996377D01*
X152831524Y-107084871D01*
X153744395Y-106172000D01*
X153730253Y-106157858D01*
X153909858Y-105978253D01*
X153924000Y-105992395D01*
X154408206Y-105508189D01*
X154587811Y-105687794D01*
X154103605Y-106172000D01*
X155016476Y-107084871D01*
X155133266Y-107044850D01*
X155680148Y-107591733D01*
X155691831Y-107605969D01*
X155748658Y-107652605D01*
X155790136Y-107674775D01*
X155675586Y-107751315D01*
X155503315Y-107923586D01*
X155367962Y-108126156D01*
X155274730Y-108351239D01*
X155227200Y-108590186D01*
X155227200Y-108833814D01*
X155274730Y-109072761D01*
X155367962Y-109297844D01*
X155503315Y-109500414D01*
X155675586Y-109672685D01*
X155878156Y-109808038D01*
X156103239Y-109901270D01*
X156342186Y-109948800D01*
X156585814Y-109948800D01*
X156824761Y-109901270D01*
X157049844Y-109808038D01*
X157252414Y-109672685D01*
X157424685Y-109500414D01*
X157560038Y-109297844D01*
X157653270Y-109072761D01*
X157700800Y-108833814D01*
X157700800Y-108809484D01*
X158175901Y-109284585D01*
X158175900Y-110725674D01*
X158174095Y-110744000D01*
X158181301Y-110817160D01*
X158202641Y-110887508D01*
X158237295Y-110952342D01*
X158283931Y-111009169D01*
X158340758Y-111055805D01*
X158405592Y-111090459D01*
X158475940Y-111111799D01*
X158479563Y-111112156D01*
X158479563Y-112494000D01*
X158485297Y-112552222D01*
X158502280Y-112608207D01*
X158529859Y-112659803D01*
X158566973Y-112705027D01*
X158612197Y-112742141D01*
X158663793Y-112769720D01*
X158719778Y-112786703D01*
X158778000Y-112792437D01*
X162278000Y-112792437D01*
X162336222Y-112786703D01*
X162392207Y-112769720D01*
X162443803Y-112742141D01*
X162489027Y-112705027D01*
X162526141Y-112659803D01*
X162553720Y-112608207D01*
X162570703Y-112552222D01*
X162576437Y-112494000D01*
X164389928Y-112494000D01*
X164402188Y-112618482D01*
X164438498Y-112738180D01*
X164497463Y-112848494D01*
X164576815Y-112945185D01*
X164673506Y-113024537D01*
X164783820Y-113083502D01*
X164903518Y-113119812D01*
X165028000Y-113132072D01*
X166242250Y-113129000D01*
X166401000Y-112970250D01*
X166401000Y-110871000D01*
X166655000Y-110871000D01*
X166655000Y-112970250D01*
X166813750Y-113129000D01*
X168028000Y-113132072D01*
X168152482Y-113119812D01*
X168272180Y-113083502D01*
X168382494Y-113024537D01*
X168479185Y-112945185D01*
X168558537Y-112848494D01*
X168617502Y-112738180D01*
X168653812Y-112618482D01*
X168666072Y-112494000D01*
X168663000Y-111029750D01*
X168504250Y-110871000D01*
X166655000Y-110871000D01*
X166401000Y-110871000D01*
X164551750Y-110871000D01*
X164393000Y-111029750D01*
X164389928Y-112494000D01*
X162576437Y-112494000D01*
X162576437Y-108994000D01*
X164389928Y-108994000D01*
X164393000Y-110458250D01*
X164551750Y-110617000D01*
X166401000Y-110617000D01*
X166401000Y-108517750D01*
X166655000Y-108517750D01*
X166655000Y-110617000D01*
X168504250Y-110617000D01*
X168663000Y-110458250D01*
X168666072Y-108994000D01*
X168653812Y-108869518D01*
X168617502Y-108749820D01*
X168558537Y-108639506D01*
X168479185Y-108542815D01*
X168382494Y-108463463D01*
X168272180Y-108404498D01*
X168152482Y-108368188D01*
X168028000Y-108355928D01*
X166813750Y-108359000D01*
X166655000Y-108517750D01*
X166401000Y-108517750D01*
X166242250Y-108359000D01*
X165028000Y-108355928D01*
X164903518Y-108368188D01*
X164783820Y-108404498D01*
X164673506Y-108463463D01*
X164576815Y-108542815D01*
X164497463Y-108639506D01*
X164438498Y-108749820D01*
X164402188Y-108869518D01*
X164389928Y-108994000D01*
X162576437Y-108994000D01*
X162570703Y-108935778D01*
X162553720Y-108879793D01*
X162526141Y-108828197D01*
X162489027Y-108782973D01*
X162443803Y-108745859D01*
X162392207Y-108718280D01*
X162336222Y-108701297D01*
X162278000Y-108695563D01*
X158778000Y-108695563D01*
X158719778Y-108701297D01*
X158664845Y-108717961D01*
X157148800Y-107201917D01*
X157252414Y-107132685D01*
X157424685Y-106960414D01*
X157560038Y-106757844D01*
X157653270Y-106532761D01*
X157700800Y-106293814D01*
X157700800Y-106050186D01*
X157653270Y-105811239D01*
X157560038Y-105586156D01*
X157424685Y-105383586D01*
X157252414Y-105211315D01*
X157189086Y-105169000D01*
X161479563Y-105169000D01*
X161479563Y-106919000D01*
X161502110Y-107147926D01*
X161568886Y-107368055D01*
X161677323Y-107570927D01*
X161823255Y-107748745D01*
X162001073Y-107894677D01*
X162203945Y-108003114D01*
X162424074Y-108069890D01*
X162653000Y-108092437D01*
X164403000Y-108092437D01*
X164631926Y-108069890D01*
X164852055Y-108003114D01*
X165054927Y-107894677D01*
X165232745Y-107748745D01*
X165378677Y-107570927D01*
X165487114Y-107368055D01*
X165553890Y-107147926D01*
X165576437Y-106919000D01*
X165576437Y-105169000D01*
X165553890Y-104940074D01*
X165487114Y-104719945D01*
X165378677Y-104517073D01*
X165232745Y-104339255D01*
X165054927Y-104193323D01*
X164852055Y-104084886D01*
X164631926Y-104018110D01*
X164403000Y-103995563D01*
X162653000Y-103995563D01*
X162424074Y-104018110D01*
X162203945Y-104084886D01*
X162001073Y-104193323D01*
X161823255Y-104339255D01*
X161677323Y-104517073D01*
X161568886Y-104719945D01*
X161502110Y-104940074D01*
X161479563Y-105169000D01*
X157189086Y-105169000D01*
X157049844Y-105075962D01*
X156824761Y-104982730D01*
X156585814Y-104935200D01*
X156342186Y-104935200D01*
X156103239Y-104982730D01*
X155878156Y-105075962D01*
X155675586Y-105211315D01*
X155503315Y-105383586D01*
X155426775Y-105498136D01*
X155404605Y-105456658D01*
X155357969Y-105399831D01*
X155343727Y-105388143D01*
X154614016Y-104658433D01*
X154712414Y-104592685D01*
X154884685Y-104420414D01*
X155020038Y-104217844D01*
X155113270Y-103992761D01*
X155160800Y-103753814D01*
X155160800Y-103510186D01*
X155227200Y-103510186D01*
X155227200Y-103753814D01*
X155274730Y-103992761D01*
X155367962Y-104217844D01*
X155503315Y-104420414D01*
X155675586Y-104592685D01*
X155878156Y-104728038D01*
X156103239Y-104821270D01*
X156342186Y-104868800D01*
X156585814Y-104868800D01*
X156824761Y-104821270D01*
X157049844Y-104728038D01*
X157252414Y-104592685D01*
X157424685Y-104420414D01*
X157560038Y-104217844D01*
X157653270Y-103992761D01*
X157700800Y-103753814D01*
X157700800Y-103510186D01*
X157653270Y-103271239D01*
X157560038Y-103046156D01*
X157424685Y-102843586D01*
X157252414Y-102671315D01*
X157049844Y-102535962D01*
X156824761Y-102442730D01*
X156585814Y-102395200D01*
X156342186Y-102395200D01*
X156103239Y-102442730D01*
X155878156Y-102535962D01*
X155675586Y-102671315D01*
X155503315Y-102843586D01*
X155367962Y-103046156D01*
X155274730Y-103271239D01*
X155227200Y-103510186D01*
X155160800Y-103510186D01*
X155113270Y-103271239D01*
X155025190Y-103058594D01*
X155444927Y-102638857D01*
X155459169Y-102627169D01*
X155505805Y-102570342D01*
X155540459Y-102505508D01*
X155561799Y-102435160D01*
X155567200Y-102380326D01*
X155569005Y-102362001D01*
X155567200Y-102343675D01*
X155567200Y-101944299D01*
X155675586Y-102052685D01*
X155878156Y-102188038D01*
X156103239Y-102281270D01*
X156342186Y-102328800D01*
X156585814Y-102328800D01*
X156824761Y-102281270D01*
X157049844Y-102188038D01*
X157252414Y-102052685D01*
X157424685Y-101880414D01*
X157560038Y-101677844D01*
X157653270Y-101452761D01*
X157700800Y-101213814D01*
X157700800Y-100970186D01*
X157653270Y-100731239D01*
X157560038Y-100506156D01*
X157424685Y-100303586D01*
X157287391Y-100166292D01*
X158748429Y-98705254D01*
X158753633Y-98729818D01*
X158864285Y-98989646D01*
X159023500Y-99222895D01*
X159225161Y-99420601D01*
X159461517Y-99575166D01*
X159723486Y-99680650D01*
X160001000Y-99733000D01*
X160401000Y-99733000D01*
X160401000Y-98425000D01*
X160655000Y-98425000D01*
X160655000Y-99733000D01*
X161055000Y-99733000D01*
X161332514Y-99680650D01*
X161594483Y-99575166D01*
X161830839Y-99420601D01*
X162032500Y-99222895D01*
X162191715Y-98989646D01*
X162302367Y-98729818D01*
X162319904Y-98647039D01*
X162197915Y-98425000D01*
X160655000Y-98425000D01*
X160401000Y-98425000D01*
X160381000Y-98425000D01*
X160381000Y-98171000D01*
X160401000Y-98171000D01*
X160401000Y-98151000D01*
X160655000Y-98151000D01*
X160655000Y-98171000D01*
X162197915Y-98171000D01*
X162319904Y-97948961D01*
X162302367Y-97866182D01*
X162191715Y-97606354D01*
X162032500Y-97373105D01*
X161830839Y-97175399D01*
X161635395Y-97047588D01*
X166970027Y-91712957D01*
X166984269Y-91701269D01*
X167030905Y-91644442D01*
X167065559Y-91579608D01*
X167075893Y-91545542D01*
X167135591Y-91594535D01*
X167326165Y-91696399D01*
X167532951Y-91759126D01*
X167694118Y-91775000D01*
X168601882Y-91775000D01*
X168763049Y-91759126D01*
X168969835Y-91696399D01*
X169160409Y-91594535D01*
X169203701Y-91559007D01*
X169203700Y-92336993D01*
X169160409Y-92301465D01*
X168969835Y-92199601D01*
X168763049Y-92136874D01*
X168601882Y-92121000D01*
X167694118Y-92121000D01*
X167532951Y-92136874D01*
X167326165Y-92199601D01*
X167135591Y-92301465D01*
X166968551Y-92438551D01*
X166831465Y-92605591D01*
X166729601Y-92796165D01*
X166666874Y-93002951D01*
X166645693Y-93218000D01*
X166666874Y-93433049D01*
X166729601Y-93639835D01*
X166831465Y-93830409D01*
X166968551Y-93997449D01*
X167135591Y-94134535D01*
X167326165Y-94236399D01*
X167532951Y-94299126D01*
X167694118Y-94315000D01*
X168601882Y-94315000D01*
X168763049Y-94299126D01*
X168969835Y-94236399D01*
X169160409Y-94134535D01*
X169203700Y-94099007D01*
X169203700Y-94876993D01*
X169160409Y-94841465D01*
X168969835Y-94739601D01*
X168763049Y-94676874D01*
X168601882Y-94661000D01*
X167694118Y-94661000D01*
X167532951Y-94676874D01*
X167326165Y-94739601D01*
X167135591Y-94841465D01*
X166968551Y-94978551D01*
X166831465Y-95145591D01*
X166729601Y-95336165D01*
X166666874Y-95542951D01*
X166645693Y-95758000D01*
X166666874Y-95973049D01*
X166729601Y-96179835D01*
X166831465Y-96370409D01*
X166968551Y-96537449D01*
X167135591Y-96674535D01*
X167326165Y-96776399D01*
X167532951Y-96839126D01*
X167694118Y-96855000D01*
X168601882Y-96855000D01*
X168763049Y-96839126D01*
X168969835Y-96776399D01*
X169160409Y-96674535D01*
X169203700Y-96639007D01*
X169203700Y-97416993D01*
X169160409Y-97381465D01*
X168969835Y-97279601D01*
X168763049Y-97216874D01*
X168601882Y-97201000D01*
X167694118Y-97201000D01*
X167532951Y-97216874D01*
X167326165Y-97279601D01*
X167135591Y-97381465D01*
X166968551Y-97518551D01*
X166831465Y-97685591D01*
X166729601Y-97876165D01*
X166666874Y-98082951D01*
X166645693Y-98298000D01*
X166666874Y-98513049D01*
X166729601Y-98719835D01*
X166831465Y-98910409D01*
X166968551Y-99077449D01*
X167135591Y-99214535D01*
X167326165Y-99316399D01*
X167532951Y-99379126D01*
X167694118Y-99395000D01*
X168601882Y-99395000D01*
X168763049Y-99379126D01*
X168969835Y-99316399D01*
X169160409Y-99214535D01*
X169327449Y-99077449D01*
X169464535Y-98910409D01*
X169566399Y-98719835D01*
X169580719Y-98672629D01*
X169595225Y-98671200D01*
X169595226Y-98671200D01*
X169650060Y-98665799D01*
X169720408Y-98644459D01*
X169785242Y-98609805D01*
X169842069Y-98563169D01*
X169888705Y-98506342D01*
X169923359Y-98441508D01*
X169944699Y-98371160D01*
X169951905Y-98298000D01*
X169950100Y-98279674D01*
X169950100Y-85189025D01*
X169951905Y-85170700D01*
X169944699Y-85097540D01*
X169923359Y-85027192D01*
X169888705Y-84962358D01*
X169842069Y-84905531D01*
X169827827Y-84893843D01*
X169011061Y-84077078D01*
X168999369Y-84062831D01*
X168997732Y-84061488D01*
X169160409Y-83974535D01*
X169327449Y-83837449D01*
X169464535Y-83670409D01*
X169566399Y-83479835D01*
X169629126Y-83273049D01*
X169650307Y-83058000D01*
X169629126Y-82842951D01*
X169566399Y-82636165D01*
X169464535Y-82445591D01*
X169327449Y-82278551D01*
X169160409Y-82141465D01*
X168969835Y-82039601D01*
X168763049Y-81976874D01*
X168601882Y-81961000D01*
X167694118Y-81961000D01*
X167532951Y-81976874D01*
X167326165Y-82039601D01*
X167135591Y-82141465D01*
X166968551Y-82278551D01*
X166831465Y-82445591D01*
X166729601Y-82636165D01*
X166666874Y-82842951D01*
X166645693Y-83058000D01*
X166666874Y-83273049D01*
X166729601Y-83479835D01*
X166831465Y-83670409D01*
X166968551Y-83837449D01*
X167111544Y-83954800D01*
X166325584Y-83954800D01*
X162085192Y-79714408D01*
X162145843Y-79567983D01*
X162188000Y-79356045D01*
X162188000Y-79139955D01*
X162764000Y-79139955D01*
X162764000Y-79356045D01*
X162806157Y-79567983D01*
X162888851Y-79767624D01*
X163008904Y-79947297D01*
X163161703Y-80100096D01*
X163341376Y-80220149D01*
X163541017Y-80302843D01*
X163752955Y-80345000D01*
X163969045Y-80345000D01*
X164180983Y-80302843D01*
X164380624Y-80220149D01*
X164560297Y-80100096D01*
X164713096Y-79947297D01*
X164833149Y-79767624D01*
X164915843Y-79567983D01*
X164958000Y-79356045D01*
X164958000Y-79139955D01*
X164915843Y-78928017D01*
X164833149Y-78728376D01*
X164713096Y-78548703D01*
X164560297Y-78395904D01*
X164380624Y-78275851D01*
X164180983Y-78193157D01*
X163969045Y-78151000D01*
X163752955Y-78151000D01*
X163541017Y-78193157D01*
X163341376Y-78275851D01*
X163161703Y-78395904D01*
X163008904Y-78548703D01*
X162888851Y-78728376D01*
X162806157Y-78928017D01*
X162764000Y-79139955D01*
X162188000Y-79139955D01*
X162145843Y-78928017D01*
X162063149Y-78728376D01*
X161943096Y-78548703D01*
X161790297Y-78395904D01*
X161610624Y-78275851D01*
X161410983Y-78193157D01*
X161199045Y-78151000D01*
X160982955Y-78151000D01*
X160771017Y-78193157D01*
X160571376Y-78275851D01*
X160391703Y-78395904D01*
X160238904Y-78548703D01*
X160118851Y-78728376D01*
X160036157Y-78928017D01*
X159994000Y-79139955D01*
X159994000Y-79356045D01*
X160036157Y-79567983D01*
X160097881Y-79716998D01*
X159392465Y-79011582D01*
X159375843Y-78928017D01*
X159293149Y-78728376D01*
X159173096Y-78548703D01*
X159020297Y-78395904D01*
X158840624Y-78275851D01*
X158640983Y-78193157D01*
X158429045Y-78151000D01*
X158212955Y-78151000D01*
X158001017Y-78193157D01*
X157801376Y-78275851D01*
X157621703Y-78395904D01*
X157468904Y-78548703D01*
X157348851Y-78728376D01*
X157266157Y-78928017D01*
X157224000Y-79139955D01*
X157224000Y-79356045D01*
X157266157Y-79567983D01*
X157348851Y-79767624D01*
X157468904Y-79947297D01*
X157621703Y-80100096D01*
X157801376Y-80220149D01*
X158001017Y-80302843D01*
X158212955Y-80345000D01*
X158429045Y-80345000D01*
X158640983Y-80302843D01*
X158840624Y-80220149D01*
X159020297Y-80100096D01*
X159173096Y-79947297D01*
X159212957Y-79887640D01*
X161284879Y-81959563D01*
X159328000Y-81959563D01*
X159269778Y-81965297D01*
X159213793Y-81982280D01*
X159162197Y-82009859D01*
X159116973Y-82046973D01*
X159079859Y-82092197D01*
X159052280Y-82143793D01*
X159035297Y-82199778D01*
X159034872Y-82204089D01*
X156545192Y-79714408D01*
X156605843Y-79567983D01*
X156648000Y-79356045D01*
X156648000Y-79139955D01*
X156605843Y-78928017D01*
X156523149Y-78728376D01*
X156403096Y-78548703D01*
X156250297Y-78395904D01*
X156070624Y-78275851D01*
X155870983Y-78193157D01*
X155659045Y-78151000D01*
X155442955Y-78151000D01*
X155231017Y-78193157D01*
X155031376Y-78275851D01*
X154851703Y-78395904D01*
X154698904Y-78548703D01*
X154578851Y-78728376D01*
X154496157Y-78928017D01*
X154454000Y-79139955D01*
X154454000Y-79356045D01*
X154496157Y-79567983D01*
X154578851Y-79767624D01*
X154698904Y-79947297D01*
X154851703Y-80100096D01*
X155031376Y-80220149D01*
X155231017Y-80302843D01*
X155442955Y-80345000D01*
X155659045Y-80345000D01*
X155870983Y-80302843D01*
X156017408Y-80242192D01*
X158725901Y-82950685D01*
X158725900Y-90659674D01*
X158724095Y-90678000D01*
X158731301Y-90751160D01*
X158752641Y-90821508D01*
X158787295Y-90886342D01*
X158824765Y-90932000D01*
X158833931Y-90943169D01*
X158890758Y-90989805D01*
X158955592Y-91024459D01*
X159025940Y-91045799D01*
X159095281Y-91052629D01*
X159109601Y-91099835D01*
X159211465Y-91290409D01*
X159348551Y-91457449D01*
X159515591Y-91594535D01*
X159706165Y-91696399D01*
X159912951Y-91759126D01*
X160074118Y-91775000D01*
X160981882Y-91775000D01*
X161143049Y-91759126D01*
X161349835Y-91696399D01*
X161540409Y-91594535D01*
X161583700Y-91559007D01*
X161583700Y-92336993D01*
X161540409Y-92301465D01*
X161349835Y-92199601D01*
X161143049Y-92136874D01*
X160981882Y-92121000D01*
X160074118Y-92121000D01*
X159912951Y-92136874D01*
X159706165Y-92199601D01*
X159515591Y-92301465D01*
X159348551Y-92438551D01*
X159211465Y-92605591D01*
X159109601Y-92796165D01*
X159095281Y-92843371D01*
X159080774Y-92844800D01*
X159025940Y-92850201D01*
X158955592Y-92871541D01*
X158890758Y-92906195D01*
X158833931Y-92952831D01*
X158787295Y-93009658D01*
X158752641Y-93074492D01*
X158731301Y-93144840D01*
X158724095Y-93218000D01*
X158725900Y-93236326D01*
X158725901Y-95762315D01*
X157037406Y-97450810D01*
X156824761Y-97362730D01*
X156585814Y-97315200D01*
X156342186Y-97315200D01*
X156103239Y-97362730D01*
X155878156Y-97455962D01*
X155675586Y-97591315D01*
X155503315Y-97763586D01*
X155367962Y-97966156D01*
X155274730Y-98191239D01*
X155227200Y-98430186D01*
X155227200Y-98673814D01*
X155274730Y-98912761D01*
X155367962Y-99137844D01*
X155503315Y-99340414D01*
X155675586Y-99512685D01*
X155790136Y-99589225D01*
X155748658Y-99611395D01*
X155691831Y-99658031D01*
X155680143Y-99672273D01*
X154950433Y-100401984D01*
X154884685Y-100303586D01*
X154712414Y-100131315D01*
X154509844Y-99995962D01*
X154284761Y-99902730D01*
X154045814Y-99855200D01*
X153802186Y-99855200D01*
X153563239Y-99902730D01*
X153338156Y-99995962D01*
X153135586Y-100131315D01*
X152963315Y-100303586D01*
X152827962Y-100506156D01*
X152734730Y-100731239D01*
X152687200Y-100970186D01*
X152687200Y-101213814D01*
X152734730Y-101452761D01*
X152827962Y-101677844D01*
X152963315Y-101880414D01*
X153135586Y-102052685D01*
X153338156Y-102188038D01*
X153563239Y-102281270D01*
X153802186Y-102328800D01*
X154045814Y-102328800D01*
X154284761Y-102281270D01*
X154509844Y-102188038D01*
X154712414Y-102052685D01*
X154820801Y-101944298D01*
X154820801Y-102207415D01*
X154497406Y-102530810D01*
X154284761Y-102442730D01*
X154045814Y-102395200D01*
X153802186Y-102395200D01*
X153563239Y-102442730D01*
X153338156Y-102535962D01*
X153135586Y-102671315D01*
X152963315Y-102843586D01*
X152827962Y-103046156D01*
X152734730Y-103271239D01*
X152687200Y-103510186D01*
X152687200Y-103753814D01*
X152734730Y-103992761D01*
X152743982Y-104015099D01*
X147159070Y-98430186D01*
X152687200Y-98430186D01*
X152687200Y-98673814D01*
X152734730Y-98912761D01*
X152827962Y-99137844D01*
X152963315Y-99340414D01*
X153135586Y-99512685D01*
X153338156Y-99648038D01*
X153563239Y-99741270D01*
X153802186Y-99788800D01*
X154045814Y-99788800D01*
X154284761Y-99741270D01*
X154509844Y-99648038D01*
X154712414Y-99512685D01*
X154884685Y-99340414D01*
X155020038Y-99137844D01*
X155113270Y-98912761D01*
X155160800Y-98673814D01*
X155160800Y-98430186D01*
X155113270Y-98191239D01*
X155020038Y-97966156D01*
X154884685Y-97763586D01*
X154712414Y-97591315D01*
X154509844Y-97455962D01*
X154284761Y-97362730D01*
X154045814Y-97315200D01*
X153802186Y-97315200D01*
X153563239Y-97362730D01*
X153338156Y-97455962D01*
X153135586Y-97591315D01*
X152963315Y-97763586D01*
X152827962Y-97966156D01*
X152734730Y-98191239D01*
X152687200Y-98430186D01*
X147159070Y-98430186D01*
X144619070Y-95890186D01*
X152687200Y-95890186D01*
X152687200Y-96133814D01*
X152734730Y-96372761D01*
X152827962Y-96597844D01*
X152963315Y-96800414D01*
X153135586Y-96972685D01*
X153338156Y-97108038D01*
X153563239Y-97201270D01*
X153802186Y-97248800D01*
X154045814Y-97248800D01*
X154284761Y-97201270D01*
X154509844Y-97108038D01*
X154712414Y-96972685D01*
X154884685Y-96800414D01*
X155020038Y-96597844D01*
X155113270Y-96372761D01*
X155160800Y-96133814D01*
X155160800Y-95890186D01*
X155227200Y-95890186D01*
X155227200Y-96133814D01*
X155274730Y-96372761D01*
X155367962Y-96597844D01*
X155503315Y-96800414D01*
X155675586Y-96972685D01*
X155878156Y-97108038D01*
X156103239Y-97201270D01*
X156342186Y-97248800D01*
X156585814Y-97248800D01*
X156824761Y-97201270D01*
X157049844Y-97108038D01*
X157252414Y-96972685D01*
X157424685Y-96800414D01*
X157560038Y-96597844D01*
X157653270Y-96372761D01*
X157700800Y-96133814D01*
X157700800Y-95890186D01*
X157653270Y-95651239D01*
X157560038Y-95426156D01*
X157424685Y-95223586D01*
X157252414Y-95051315D01*
X157049844Y-94915962D01*
X156824761Y-94822730D01*
X156585814Y-94775200D01*
X156342186Y-94775200D01*
X156103239Y-94822730D01*
X155878156Y-94915962D01*
X155675586Y-95051315D01*
X155503315Y-95223586D01*
X155367962Y-95426156D01*
X155274730Y-95651239D01*
X155227200Y-95890186D01*
X155160800Y-95890186D01*
X155113270Y-95651239D01*
X155020038Y-95426156D01*
X154884685Y-95223586D01*
X154712414Y-95051315D01*
X154509844Y-94915962D01*
X154284761Y-94822730D01*
X154045814Y-94775200D01*
X153802186Y-94775200D01*
X153563239Y-94822730D01*
X153338156Y-94915962D01*
X153135586Y-95051315D01*
X152963315Y-95223586D01*
X152827962Y-95426156D01*
X152734730Y-95651239D01*
X152687200Y-95890186D01*
X144619070Y-95890186D01*
X143253425Y-94524541D01*
X143285195Y-94514904D01*
X143527887Y-94385183D01*
X143740608Y-94210608D01*
X143915183Y-93997887D01*
X144044904Y-93755195D01*
X144124786Y-93491860D01*
X144138739Y-93350186D01*
X152687200Y-93350186D01*
X152687200Y-93593814D01*
X152734730Y-93832761D01*
X152827962Y-94057844D01*
X152963315Y-94260414D01*
X153135586Y-94432685D01*
X153338156Y-94568038D01*
X153563239Y-94661270D01*
X153802186Y-94708800D01*
X154045814Y-94708800D01*
X154284761Y-94661270D01*
X154509844Y-94568038D01*
X154712414Y-94432685D01*
X154884685Y-94260414D01*
X155020038Y-94057844D01*
X155113270Y-93832761D01*
X155160800Y-93593814D01*
X155160800Y-93350186D01*
X155227200Y-93350186D01*
X155227200Y-93593814D01*
X155274730Y-93832761D01*
X155367962Y-94057844D01*
X155503315Y-94260414D01*
X155675586Y-94432685D01*
X155878156Y-94568038D01*
X156103239Y-94661270D01*
X156342186Y-94708800D01*
X156585814Y-94708800D01*
X156824761Y-94661270D01*
X157049844Y-94568038D01*
X157252414Y-94432685D01*
X157424685Y-94260414D01*
X157560038Y-94057844D01*
X157653270Y-93832761D01*
X157700800Y-93593814D01*
X157700800Y-93350186D01*
X157653270Y-93111239D01*
X157560038Y-92886156D01*
X157424685Y-92683586D01*
X157252414Y-92511315D01*
X157069060Y-92388802D01*
X157129086Y-92367865D01*
X157288377Y-92282723D01*
X157376871Y-92024476D01*
X156464000Y-91111605D01*
X155551129Y-92024476D01*
X155639623Y-92282723D01*
X155859106Y-92388691D01*
X155675586Y-92511315D01*
X155503315Y-92683586D01*
X155367962Y-92886156D01*
X155274730Y-93111239D01*
X155227200Y-93350186D01*
X155160800Y-93350186D01*
X155113270Y-93111239D01*
X155020038Y-92886156D01*
X154884685Y-92683586D01*
X154712414Y-92511315D01*
X154509844Y-92375962D01*
X154284761Y-92282730D01*
X154045814Y-92235200D01*
X153802186Y-92235200D01*
X153563239Y-92282730D01*
X153338156Y-92375962D01*
X153135586Y-92511315D01*
X152963315Y-92683586D01*
X152827962Y-92886156D01*
X152734730Y-93111239D01*
X152687200Y-93350186D01*
X144138739Y-93350186D01*
X144151759Y-93218000D01*
X144124786Y-92944140D01*
X144044904Y-92680805D01*
X143915183Y-92438113D01*
X143740608Y-92225392D01*
X143527887Y-92050817D01*
X143285195Y-91921096D01*
X143021860Y-91841214D01*
X142816625Y-91821000D01*
X142679375Y-91821000D01*
X142474140Y-91841214D01*
X142210805Y-91921096D01*
X141968113Y-92050817D01*
X141755392Y-92225392D01*
X141580817Y-92438113D01*
X141451096Y-92680805D01*
X141371214Y-92944140D01*
X141344241Y-93218000D01*
X136830684Y-93218000D01*
X134422870Y-90810186D01*
X152687200Y-90810186D01*
X152687200Y-91053814D01*
X152734730Y-91292761D01*
X152827962Y-91517844D01*
X152963315Y-91720414D01*
X153135586Y-91892685D01*
X153338156Y-92028038D01*
X153563239Y-92121270D01*
X153802186Y-92168800D01*
X154045814Y-92168800D01*
X154284761Y-92121270D01*
X154509844Y-92028038D01*
X154712414Y-91892685D01*
X154884685Y-91720414D01*
X155007198Y-91537060D01*
X155028135Y-91597086D01*
X155113277Y-91756377D01*
X155371524Y-91844871D01*
X156284395Y-90932000D01*
X156643605Y-90932000D01*
X157556476Y-91844871D01*
X157814723Y-91756377D01*
X157949597Y-91477024D01*
X158027381Y-91176725D01*
X158045084Y-90867023D01*
X158002027Y-90559816D01*
X157899865Y-90266914D01*
X157814723Y-90107623D01*
X157556476Y-90019129D01*
X156643605Y-90932000D01*
X156284395Y-90932000D01*
X155371524Y-90019129D01*
X155113277Y-90107623D01*
X155007309Y-90327106D01*
X154884685Y-90143586D01*
X154712414Y-89971315D01*
X154515175Y-89839524D01*
X155551129Y-89839524D01*
X156464000Y-90752395D01*
X157376871Y-89839524D01*
X157288377Y-89581277D01*
X157009024Y-89446403D01*
X156708725Y-89368619D01*
X156399023Y-89350916D01*
X156091816Y-89393973D01*
X155798914Y-89496135D01*
X155639623Y-89581277D01*
X155551129Y-89839524D01*
X154515175Y-89839524D01*
X154509844Y-89835962D01*
X154284761Y-89742730D01*
X154045814Y-89695200D01*
X153802186Y-89695200D01*
X153563239Y-89742730D01*
X153338156Y-89835962D01*
X153135586Y-89971315D01*
X152963315Y-90143586D01*
X152827962Y-90346156D01*
X152734730Y-90571239D01*
X152687200Y-90810186D01*
X134422870Y-90810186D01*
X126419761Y-82807078D01*
X126408069Y-82792831D01*
X126351242Y-82746195D01*
X126286408Y-82711541D01*
X126216060Y-82690201D01*
X126161226Y-82684800D01*
X126161225Y-82684800D01*
X126146719Y-82683371D01*
X126132399Y-82636165D01*
X126030535Y-82445591D01*
X125893449Y-82278551D01*
X125726409Y-82141465D01*
X125535835Y-82039601D01*
X125329049Y-81976874D01*
X125167882Y-81961000D01*
X124260118Y-81961000D01*
X124117763Y-81975021D01*
X125850592Y-80242192D01*
X125997017Y-80302843D01*
X126208955Y-80345000D01*
X126425045Y-80345000D01*
X126636983Y-80302843D01*
X126836624Y-80220149D01*
X127016297Y-80100096D01*
X127169096Y-79947297D01*
X127289149Y-79767624D01*
X127371843Y-79567983D01*
X127414000Y-79356045D01*
X127414000Y-79139955D01*
X127990000Y-79139955D01*
X127990000Y-79356045D01*
X128032157Y-79567983D01*
X128114851Y-79767624D01*
X128234904Y-79947297D01*
X128387703Y-80100096D01*
X128567376Y-80220149D01*
X128767017Y-80302843D01*
X128978955Y-80345000D01*
X129195045Y-80345000D01*
X129406983Y-80302843D01*
X129606624Y-80220149D01*
X129786297Y-80100096D01*
X129939096Y-79947297D01*
X130059149Y-79767624D01*
X130141843Y-79567983D01*
X130184000Y-79356045D01*
X130184000Y-79139955D01*
X130760000Y-79139955D01*
X130760000Y-79356045D01*
X130802157Y-79567983D01*
X130884851Y-79767624D01*
X131004904Y-79947297D01*
X131157703Y-80100096D01*
X131337376Y-80220149D01*
X131537017Y-80302843D01*
X131748955Y-80345000D01*
X131965045Y-80345000D01*
X132176983Y-80302843D01*
X132376624Y-80220149D01*
X132556297Y-80100096D01*
X132709096Y-79947297D01*
X132829149Y-79767624D01*
X132911843Y-79567983D01*
X132954000Y-79356045D01*
X132954000Y-79139955D01*
X132911843Y-78928017D01*
X132829149Y-78728376D01*
X132709096Y-78548703D01*
X132608393Y-78448000D01*
X151682563Y-78448000D01*
X151682563Y-80048000D01*
X151688297Y-80106222D01*
X151705280Y-80162207D01*
X151732859Y-80213803D01*
X151769973Y-80259027D01*
X151815197Y-80296141D01*
X151866793Y-80323720D01*
X151922778Y-80340703D01*
X151981000Y-80346437D01*
X153581000Y-80346437D01*
X153639222Y-80340703D01*
X153695207Y-80323720D01*
X153746803Y-80296141D01*
X153792027Y-80259027D01*
X153829141Y-80213803D01*
X153856720Y-80162207D01*
X153873703Y-80106222D01*
X153879437Y-80048000D01*
X153879437Y-78448000D01*
X153873703Y-78389778D01*
X153856720Y-78333793D01*
X153829141Y-78282197D01*
X153792027Y-78236973D01*
X153746803Y-78199859D01*
X153695207Y-78172280D01*
X153639222Y-78155297D01*
X153581000Y-78149563D01*
X151981000Y-78149563D01*
X151922778Y-78155297D01*
X151866793Y-78172280D01*
X151815197Y-78199859D01*
X151769973Y-78236973D01*
X151732859Y-78282197D01*
X151705280Y-78333793D01*
X151688297Y-78389778D01*
X151682563Y-78448000D01*
X132608393Y-78448000D01*
X132556297Y-78395904D01*
X132376624Y-78275851D01*
X132176983Y-78193157D01*
X131965045Y-78151000D01*
X131748955Y-78151000D01*
X131537017Y-78193157D01*
X131337376Y-78275851D01*
X131157703Y-78395904D01*
X131004904Y-78548703D01*
X130884851Y-78728376D01*
X130802157Y-78928017D01*
X130760000Y-79139955D01*
X130184000Y-79139955D01*
X130141843Y-78928017D01*
X130059149Y-78728376D01*
X129939096Y-78548703D01*
X129786297Y-78395904D01*
X129606624Y-78275851D01*
X129406983Y-78193157D01*
X129195045Y-78151000D01*
X128978955Y-78151000D01*
X128767017Y-78193157D01*
X128567376Y-78275851D01*
X128387703Y-78395904D01*
X128234904Y-78548703D01*
X128114851Y-78728376D01*
X128032157Y-78928017D01*
X127990000Y-79139955D01*
X127414000Y-79139955D01*
X127371843Y-78928017D01*
X127289149Y-78728376D01*
X127169096Y-78548703D01*
X127016297Y-78395904D01*
X126836624Y-78275851D01*
X126636983Y-78193157D01*
X126425045Y-78151000D01*
X126208955Y-78151000D01*
X125997017Y-78193157D01*
X125797376Y-78275851D01*
X125617703Y-78395904D01*
X125464904Y-78548703D01*
X125344851Y-78728376D01*
X125262157Y-78928017D01*
X125220000Y-79139955D01*
X125220000Y-79356045D01*
X125262157Y-79567983D01*
X125322808Y-79714408D01*
X123902103Y-81135113D01*
X123914799Y-81093260D01*
X123920200Y-81038426D01*
X123920200Y-81038425D01*
X123922005Y-81020100D01*
X123920200Y-81001775D01*
X123920200Y-80280800D01*
X124066624Y-80220149D01*
X124246297Y-80100096D01*
X124399096Y-79947297D01*
X124519149Y-79767624D01*
X124601843Y-79567983D01*
X124644000Y-79356045D01*
X124644000Y-79139955D01*
X124601843Y-78928017D01*
X124519149Y-78728376D01*
X124399096Y-78548703D01*
X124246297Y-78395904D01*
X124066624Y-78275851D01*
X123866983Y-78193157D01*
X123655045Y-78151000D01*
X123438955Y-78151000D01*
X123227017Y-78193157D01*
X123027376Y-78275851D01*
X122847703Y-78395904D01*
X122694904Y-78548703D01*
X122574851Y-78728376D01*
X122492157Y-78928017D01*
X122450000Y-79139955D01*
X122450000Y-79356045D01*
X122492157Y-79567983D01*
X122574851Y-79767624D01*
X122694904Y-79947297D01*
X122847703Y-80100096D01*
X123027376Y-80220149D01*
X123173800Y-80280800D01*
X123173800Y-80865516D01*
X118896100Y-85143217D01*
X118896100Y-82685583D01*
X121027927Y-80553757D01*
X121042169Y-80542069D01*
X121088805Y-80485242D01*
X121123459Y-80420408D01*
X121144799Y-80350060D01*
X121145156Y-80346437D01*
X121577000Y-80346437D01*
X121635222Y-80340703D01*
X121691207Y-80323720D01*
X121742803Y-80296141D01*
X121788027Y-80259027D01*
X121825141Y-80213803D01*
X121852720Y-80162207D01*
X121869703Y-80106222D01*
X121875437Y-80048000D01*
X121875437Y-78448000D01*
X121869703Y-78389778D01*
X121852720Y-78333793D01*
X121825141Y-78282197D01*
X121788027Y-78236973D01*
X121742803Y-78199859D01*
X121691207Y-78172280D01*
X121635222Y-78155297D01*
X121577000Y-78149563D01*
X119977000Y-78149563D01*
X119918778Y-78155297D01*
X119862793Y-78172280D01*
X119811197Y-78199859D01*
X119765973Y-78236973D01*
X119728859Y-78282197D01*
X119701280Y-78333793D01*
X119684297Y-78389778D01*
X119678563Y-78448000D01*
X119678563Y-80048000D01*
X119684297Y-80106222D01*
X119701280Y-80162207D01*
X119728859Y-80213803D01*
X119765973Y-80259027D01*
X119811197Y-80296141D01*
X119862793Y-80323720D01*
X119918778Y-80340703D01*
X119977000Y-80346437D01*
X120179679Y-80346437D01*
X118490811Y-82035306D01*
X118459803Y-82009859D01*
X118408207Y-81982280D01*
X118352222Y-81965297D01*
X118294000Y-81959563D01*
X115894000Y-81959563D01*
X115835778Y-81965297D01*
X115779793Y-81982280D01*
X115728197Y-82009859D01*
X115682973Y-82046973D01*
X115645859Y-82092197D01*
X115618280Y-82143793D01*
X115601297Y-82199778D01*
X115595563Y-82258000D01*
X115595563Y-83858000D01*
X115601297Y-83916222D01*
X115618280Y-83972207D01*
X115645859Y-84023803D01*
X115682973Y-84069027D01*
X115728197Y-84106141D01*
X115779793Y-84133720D01*
X115835778Y-84150703D01*
X115894000Y-84156437D01*
X118149700Y-84156437D01*
X118149700Y-84716993D01*
X118106409Y-84681465D01*
X117915835Y-84579601D01*
X117709049Y-84516874D01*
X117547882Y-84501000D01*
X116640118Y-84501000D01*
X116478951Y-84516874D01*
X116272165Y-84579601D01*
X116081591Y-84681465D01*
X115914551Y-84818551D01*
X115777465Y-84985591D01*
X115675601Y-85176165D01*
X115612874Y-85382951D01*
X115591693Y-85598000D01*
X115612874Y-85813049D01*
X115675601Y-86019835D01*
X115777465Y-86210409D01*
X115914551Y-86377449D01*
X116081591Y-86514535D01*
X116225428Y-86591418D01*
X116208231Y-86605531D01*
X116196543Y-86619773D01*
X115414173Y-87402144D01*
X115399932Y-87413831D01*
X115358590Y-87464207D01*
X115353295Y-87470659D01*
X115318642Y-87535492D01*
X115297301Y-87605841D01*
X115290095Y-87679000D01*
X115155000Y-87679000D01*
X115155000Y-77105972D01*
X115191142Y-76737371D01*
X115293261Y-76399135D01*
X115345995Y-76299955D01*
X121065000Y-76299955D01*
X121065000Y-76516045D01*
X121107157Y-76727983D01*
X121189851Y-76927624D01*
X121309904Y-77107297D01*
X121462703Y-77260096D01*
X121642376Y-77380149D01*
X121842017Y-77462843D01*
X122053955Y-77505000D01*
X122270045Y-77505000D01*
X122481983Y-77462843D01*
X122681624Y-77380149D01*
X122861297Y-77260096D01*
X123014096Y-77107297D01*
X123134149Y-76927624D01*
X123216843Y-76727983D01*
X123259000Y-76516045D01*
X123259000Y-76299955D01*
X123835000Y-76299955D01*
X123835000Y-76516045D01*
X123877157Y-76727983D01*
X123959851Y-76927624D01*
X124079904Y-77107297D01*
X124232703Y-77260096D01*
X124412376Y-77380149D01*
X124612017Y-77462843D01*
X124823955Y-77505000D01*
X125040045Y-77505000D01*
X125251983Y-77462843D01*
X125402004Y-77400702D01*
X126888903Y-77400702D01*
X126960486Y-77644671D01*
X127215996Y-77765571D01*
X127490184Y-77834300D01*
X127772512Y-77848217D01*
X128052130Y-77806787D01*
X128318292Y-77711603D01*
X128443514Y-77644671D01*
X128515097Y-77400702D01*
X127702000Y-76587605D01*
X126888903Y-77400702D01*
X125402004Y-77400702D01*
X125451624Y-77380149D01*
X125631297Y-77260096D01*
X125784096Y-77107297D01*
X125904149Y-76927624D01*
X125986843Y-76727983D01*
X126029000Y-76516045D01*
X126029000Y-76478512D01*
X126261783Y-76478512D01*
X126303213Y-76758130D01*
X126398397Y-77024292D01*
X126465329Y-77149514D01*
X126709298Y-77221097D01*
X127522395Y-76408000D01*
X127881605Y-76408000D01*
X128694702Y-77221097D01*
X128938671Y-77149514D01*
X129059571Y-76894004D01*
X129128300Y-76619816D01*
X129142217Y-76337488D01*
X129136656Y-76299955D01*
X129375000Y-76299955D01*
X129375000Y-76516045D01*
X129417157Y-76727983D01*
X129499851Y-76927624D01*
X129619904Y-77107297D01*
X129772703Y-77260096D01*
X129952376Y-77380149D01*
X130152017Y-77462843D01*
X130363955Y-77505000D01*
X130580045Y-77505000D01*
X130791983Y-77462843D01*
X130991624Y-77380149D01*
X131171297Y-77260096D01*
X131324096Y-77107297D01*
X131444149Y-76927624D01*
X131526843Y-76727983D01*
X131569000Y-76516045D01*
X131569000Y-76299955D01*
X153069000Y-76299955D01*
X153069000Y-76516045D01*
X153111157Y-76727983D01*
X153193851Y-76927624D01*
X153313904Y-77107297D01*
X153466703Y-77260096D01*
X153646376Y-77380149D01*
X153846017Y-77462843D01*
X154057955Y-77505000D01*
X154274045Y-77505000D01*
X154485983Y-77462843D01*
X154685624Y-77380149D01*
X154865297Y-77260096D01*
X155018096Y-77107297D01*
X155138149Y-76927624D01*
X155220843Y-76727983D01*
X155263000Y-76516045D01*
X155263000Y-76299955D01*
X155839000Y-76299955D01*
X155839000Y-76516045D01*
X155881157Y-76727983D01*
X155963851Y-76927624D01*
X156083904Y-77107297D01*
X156236703Y-77260096D01*
X156416376Y-77380149D01*
X156616017Y-77462843D01*
X156827955Y-77505000D01*
X157044045Y-77505000D01*
X157255983Y-77462843D01*
X157406004Y-77400702D01*
X158892903Y-77400702D01*
X158964486Y-77644671D01*
X159219996Y-77765571D01*
X159494184Y-77834300D01*
X159776512Y-77848217D01*
X160056130Y-77806787D01*
X160322292Y-77711603D01*
X160447514Y-77644671D01*
X160519097Y-77400702D01*
X159706000Y-76587605D01*
X158892903Y-77400702D01*
X157406004Y-77400702D01*
X157455624Y-77380149D01*
X157635297Y-77260096D01*
X157788096Y-77107297D01*
X157908149Y-76927624D01*
X157990843Y-76727983D01*
X158033000Y-76516045D01*
X158033000Y-76478512D01*
X158265783Y-76478512D01*
X158307213Y-76758130D01*
X158402397Y-77024292D01*
X158469329Y-77149514D01*
X158713298Y-77221097D01*
X159526395Y-76408000D01*
X159885605Y-76408000D01*
X160698702Y-77221097D01*
X160942671Y-77149514D01*
X161063571Y-76894004D01*
X161132300Y-76619816D01*
X161146217Y-76337488D01*
X161140656Y-76299955D01*
X161379000Y-76299955D01*
X161379000Y-76516045D01*
X161421157Y-76727983D01*
X161503851Y-76927624D01*
X161623904Y-77107297D01*
X161776703Y-77260096D01*
X161956376Y-77380149D01*
X162156017Y-77462843D01*
X162367955Y-77505000D01*
X162584045Y-77505000D01*
X162795983Y-77462843D01*
X162995624Y-77380149D01*
X163175297Y-77260096D01*
X163328096Y-77107297D01*
X163448149Y-76927624D01*
X163530843Y-76727983D01*
X163573000Y-76516045D01*
X163573000Y-76299955D01*
X163530843Y-76088017D01*
X163448149Y-75888376D01*
X163328096Y-75708703D01*
X163175297Y-75555904D01*
X162995624Y-75435851D01*
X162795983Y-75353157D01*
X162584045Y-75311000D01*
X162367955Y-75311000D01*
X162156017Y-75353157D01*
X161956376Y-75435851D01*
X161776703Y-75555904D01*
X161623904Y-75708703D01*
X161503851Y-75888376D01*
X161421157Y-76088017D01*
X161379000Y-76299955D01*
X161140656Y-76299955D01*
X161104787Y-76057870D01*
X161009603Y-75791708D01*
X160942671Y-75666486D01*
X160698702Y-75594903D01*
X159885605Y-76408000D01*
X159526395Y-76408000D01*
X158713298Y-75594903D01*
X158469329Y-75666486D01*
X158348429Y-75921996D01*
X158279700Y-76196184D01*
X158265783Y-76478512D01*
X158033000Y-76478512D01*
X158033000Y-76299955D01*
X157990843Y-76088017D01*
X157908149Y-75888376D01*
X157788096Y-75708703D01*
X157635297Y-75555904D01*
X157455624Y-75435851D01*
X157255983Y-75353157D01*
X157044045Y-75311000D01*
X156827955Y-75311000D01*
X156616017Y-75353157D01*
X156416376Y-75435851D01*
X156236703Y-75555904D01*
X156083904Y-75708703D01*
X155963851Y-75888376D01*
X155881157Y-76088017D01*
X155839000Y-76299955D01*
X155263000Y-76299955D01*
X155220843Y-76088017D01*
X155138149Y-75888376D01*
X155018096Y-75708703D01*
X154865297Y-75555904D01*
X154685624Y-75435851D01*
X154485983Y-75353157D01*
X154274045Y-75311000D01*
X154057955Y-75311000D01*
X153846017Y-75353157D01*
X153646376Y-75435851D01*
X153466703Y-75555904D01*
X153313904Y-75708703D01*
X153193851Y-75888376D01*
X153111157Y-76088017D01*
X153069000Y-76299955D01*
X131569000Y-76299955D01*
X131526843Y-76088017D01*
X131444149Y-75888376D01*
X131324096Y-75708703D01*
X131171297Y-75555904D01*
X130991624Y-75435851D01*
X130791983Y-75353157D01*
X130580045Y-75311000D01*
X130363955Y-75311000D01*
X130152017Y-75353157D01*
X129952376Y-75435851D01*
X129772703Y-75555904D01*
X129619904Y-75708703D01*
X129499851Y-75888376D01*
X129417157Y-76088017D01*
X129375000Y-76299955D01*
X129136656Y-76299955D01*
X129100787Y-76057870D01*
X129005603Y-75791708D01*
X128938671Y-75666486D01*
X128694702Y-75594903D01*
X127881605Y-76408000D01*
X127522395Y-76408000D01*
X126709298Y-75594903D01*
X126465329Y-75666486D01*
X126344429Y-75921996D01*
X126275700Y-76196184D01*
X126261783Y-76478512D01*
X126029000Y-76478512D01*
X126029000Y-76299955D01*
X125986843Y-76088017D01*
X125904149Y-75888376D01*
X125784096Y-75708703D01*
X125631297Y-75555904D01*
X125451624Y-75435851D01*
X125251983Y-75353157D01*
X125040045Y-75311000D01*
X124823955Y-75311000D01*
X124612017Y-75353157D01*
X124412376Y-75435851D01*
X124232703Y-75555904D01*
X124079904Y-75708703D01*
X123959851Y-75888376D01*
X123877157Y-76088017D01*
X123835000Y-76299955D01*
X123259000Y-76299955D01*
X123216843Y-76088017D01*
X123134149Y-75888376D01*
X123014096Y-75708703D01*
X122861297Y-75555904D01*
X122681624Y-75435851D01*
X122481983Y-75353157D01*
X122270045Y-75311000D01*
X122053955Y-75311000D01*
X121842017Y-75353157D01*
X121642376Y-75435851D01*
X121462703Y-75555904D01*
X121309904Y-75708703D01*
X121189851Y-75888376D01*
X121107157Y-76088017D01*
X121065000Y-76299955D01*
X115345995Y-76299955D01*
X115459132Y-76087177D01*
X115682440Y-75813375D01*
X115954672Y-75588164D01*
X116265467Y-75420118D01*
X116602983Y-75315639D01*
X116970615Y-75277000D01*
X126929481Y-75277000D01*
X126888903Y-75415298D01*
X126888903Y-75415298D01*
G37*
X126888903Y-75415298D02*
X127702000Y-76228395D01*
X128515097Y-75415298D01*
X128474519Y-75277000D01*
X158933481Y-75277000D01*
X158892903Y-75415298D01*
X159706000Y-76228395D01*
X160519097Y-75415298D01*
X160478519Y-75277000D01*
X168258028Y-75277000D01*
X168626629Y-75313142D01*
X168964865Y-75415261D01*
X169276823Y-75581132D01*
X169550625Y-75804440D01*
X169775836Y-76076672D01*
X169943882Y-76387467D01*
X170048361Y-76724983D01*
X170087000Y-77092615D01*
X170087001Y-113394018D01*
X170050858Y-113762629D01*
X169948739Y-114100864D01*
X169782867Y-114412825D01*
X169559560Y-114686625D01*
X169287328Y-114911836D01*
X168976533Y-115079882D01*
X168639017Y-115184361D01*
X168271385Y-115223000D01*
X120291947Y-115223000D01*
X120376284Y-115138663D01*
X120523696Y-114918044D01*
X120625236Y-114672906D01*
X120677000Y-114412668D01*
X120677000Y-114147332D01*
X120625236Y-113887094D01*
X120523696Y-113641956D01*
X120376284Y-113421337D01*
X120188663Y-113233716D01*
X119968044Y-113086304D01*
X119901654Y-113058804D01*
X121812000Y-113058804D01*
X121812000Y-113255196D01*
X121850314Y-113447814D01*
X121925470Y-113629257D01*
X122034580Y-113792550D01*
X122173450Y-113931420D01*
X122336743Y-114040530D01*
X122518186Y-114115686D01*
X122710804Y-114154000D01*
X122907196Y-114154000D01*
X123099814Y-114115686D01*
X123281257Y-114040530D01*
X123444550Y-113931420D01*
X123583420Y-113792550D01*
X123692530Y-113629257D01*
X123767686Y-113447814D01*
X123806000Y-113255196D01*
X123806000Y-113058804D01*
X124479000Y-113058804D01*
X124479000Y-113255196D01*
X124517314Y-113447814D01*
X124592470Y-113629257D01*
X124701580Y-113792550D01*
X124840450Y-113931420D01*
X125003743Y-114040530D01*
X125185186Y-114115686D01*
X125377804Y-114154000D01*
X125574196Y-114154000D01*
X125766814Y-114115686D01*
X125948257Y-114040530D01*
X126111550Y-113931420D01*
X126250420Y-113792550D01*
X126359530Y-113629257D01*
X126434686Y-113447814D01*
X126473000Y-113255196D01*
X126473000Y-113058804D01*
X126434686Y-112866186D01*
X126359530Y-112684743D01*
X126250420Y-112521450D01*
X126111550Y-112382580D01*
X125948257Y-112273470D01*
X125766814Y-112198314D01*
X125574196Y-112160000D01*
X125377804Y-112160000D01*
X125185186Y-112198314D01*
X125003743Y-112273470D01*
X124840450Y-112382580D01*
X124701580Y-112521450D01*
X124592470Y-112684743D01*
X124517314Y-112866186D01*
X124479000Y-113058804D01*
X123806000Y-113058804D01*
X123767686Y-112866186D01*
X123692530Y-112684743D01*
X123583420Y-112521450D01*
X123444550Y-112382580D01*
X123281257Y-112273470D01*
X123099814Y-112198314D01*
X122907196Y-112160000D01*
X122710804Y-112160000D01*
X122518186Y-112198314D01*
X122336743Y-112273470D01*
X122173450Y-112382580D01*
X122034580Y-112521450D01*
X121925470Y-112684743D01*
X121850314Y-112866186D01*
X121812000Y-113058804D01*
X119901654Y-113058804D01*
X119722906Y-112984764D01*
X119462668Y-112933000D01*
X119197332Y-112933000D01*
X118937094Y-112984764D01*
X118691956Y-113086304D01*
X118471337Y-113233716D01*
X118303603Y-113401450D01*
X118339855Y-113259474D01*
X118355804Y-112962457D01*
X118313501Y-112668037D01*
X118214572Y-112387526D01*
X118137868Y-112244025D01*
X117886240Y-112163365D01*
X117019605Y-113030000D01*
X117886240Y-113896635D01*
X118052947Y-113843197D01*
X118034764Y-113887094D01*
X117983000Y-114147332D01*
X117983000Y-114412668D01*
X118034764Y-114672906D01*
X118136304Y-114918044D01*
X118283716Y-115138663D01*
X118368053Y-115223000D01*
X116983972Y-115223000D01*
X116615371Y-115186858D01*
X116277136Y-115084739D01*
X115965175Y-114918867D01*
X115691375Y-114695560D01*
X115466164Y-114423328D01*
X115298118Y-114112533D01*
X115286884Y-114076240D01*
X115973365Y-114076240D01*
X116054025Y-114327868D01*
X116322329Y-114456267D01*
X116610526Y-114529855D01*
X116907543Y-114545804D01*
X117201963Y-114503501D01*
X117482474Y-114404572D01*
X117625975Y-114327868D01*
X117706635Y-114076240D01*
X116840000Y-113209605D01*
X115973365Y-114076240D01*
X115286884Y-114076240D01*
X115193639Y-113775017D01*
X115155000Y-113407385D01*
X115155000Y-113097543D01*
X115324196Y-113097543D01*
X115366499Y-113391963D01*
X115465428Y-113672474D01*
X115542132Y-113815975D01*
X115793760Y-113896635D01*
X116660395Y-113030000D01*
X115793760Y-112163365D01*
X115542132Y-112244025D01*
X115413733Y-112512329D01*
X115340145Y-112800526D01*
X115324196Y-113097543D01*
X115155000Y-113097543D01*
X115155000Y-111983760D01*
X115973365Y-111983760D01*
X116840000Y-112850395D01*
X117706635Y-111983760D01*
X117625975Y-111732132D01*
X117357671Y-111603733D01*
X117069474Y-111530145D01*
X116772457Y-111514196D01*
X116478037Y-111556499D01*
X116197526Y-111655428D01*
X116054025Y-111732132D01*
X115973365Y-111983760D01*
X115155000Y-111983760D01*
X115155000Y-108414568D01*
X115668000Y-108414568D01*
X115668000Y-108645432D01*
X115713039Y-108871860D01*
X115801387Y-109085150D01*
X115929648Y-109277107D01*
X116092893Y-109440352D01*
X116284850Y-109568613D01*
X116498140Y-109656961D01*
X116724568Y-109702000D01*
X116955432Y-109702000D01*
X117181860Y-109656961D01*
X117363810Y-109581594D01*
X118450948Y-110668733D01*
X118462631Y-110682969D01*
X118519458Y-110729605D01*
X118584292Y-110764259D01*
X118654640Y-110785599D01*
X118727799Y-110792805D01*
X118746125Y-110791000D01*
X125390417Y-110791000D01*
X127473643Y-112874227D01*
X127485331Y-112888469D01*
X127542158Y-112935105D01*
X127600573Y-112966328D01*
X127563315Y-113003586D01*
X127427962Y-113206156D01*
X127334730Y-113431239D01*
X127287200Y-113670186D01*
X127287200Y-113913814D01*
X127334730Y-114152761D01*
X127427962Y-114377844D01*
X127563315Y-114580414D01*
X127735586Y-114752685D01*
X127938156Y-114888038D01*
X128163239Y-114981270D01*
X128402186Y-115028800D01*
X128645814Y-115028800D01*
X128884761Y-114981270D01*
X129109844Y-114888038D01*
X129312414Y-114752685D01*
X129484685Y-114580414D01*
X129620038Y-114377844D01*
X129713270Y-114152761D01*
X129719544Y-114121222D01*
X129751792Y-114138459D01*
X129822140Y-114159799D01*
X129825763Y-114160156D01*
X129825763Y-114731800D01*
X129831497Y-114790022D01*
X129848480Y-114846007D01*
X129876059Y-114897603D01*
X129913173Y-114942827D01*
X129958397Y-114979941D01*
X130009993Y-115007520D01*
X130065978Y-115024503D01*
X130124200Y-115030237D01*
X132003800Y-115030237D01*
X132062022Y-115024503D01*
X132118007Y-115007520D01*
X132169603Y-114979941D01*
X132214827Y-114942827D01*
X132251941Y-114897603D01*
X132279520Y-114846007D01*
X132296503Y-114790022D01*
X132302237Y-114731800D01*
X132302237Y-113670186D01*
X152687200Y-113670186D01*
X152687200Y-113913814D01*
X152734730Y-114152761D01*
X152827962Y-114377844D01*
X152963315Y-114580414D01*
X153135586Y-114752685D01*
X153338156Y-114888038D01*
X153563239Y-114981270D01*
X153802186Y-115028800D01*
X154045814Y-115028800D01*
X154284761Y-114981270D01*
X154509844Y-114888038D01*
X154712414Y-114752685D01*
X154884685Y-114580414D01*
X155020038Y-114377844D01*
X155113270Y-114152761D01*
X155160800Y-113913814D01*
X155160800Y-113670186D01*
X155113270Y-113431239D01*
X155020038Y-113206156D01*
X154884685Y-113003586D01*
X154733299Y-112852200D01*
X155225763Y-112852200D01*
X155225763Y-114731800D01*
X155231497Y-114790022D01*
X155248480Y-114846007D01*
X155276059Y-114897603D01*
X155313173Y-114942827D01*
X155358397Y-114979941D01*
X155409993Y-115007520D01*
X155465978Y-115024503D01*
X155524200Y-115030237D01*
X157403800Y-115030237D01*
X157462022Y-115024503D01*
X157518007Y-115007520D01*
X157569603Y-114979941D01*
X157614827Y-114942827D01*
X157651941Y-114897603D01*
X157679520Y-114846007D01*
X157696503Y-114790022D01*
X157702237Y-114731800D01*
X157702237Y-112852200D01*
X157696503Y-112793978D01*
X157679520Y-112737993D01*
X157651941Y-112686397D01*
X157614827Y-112641173D01*
X157569603Y-112604059D01*
X157518007Y-112576480D01*
X157462022Y-112559497D01*
X157403800Y-112553763D01*
X155524200Y-112553763D01*
X155465978Y-112559497D01*
X155409993Y-112576480D01*
X155358397Y-112604059D01*
X155313173Y-112641173D01*
X155276059Y-112686397D01*
X155248480Y-112737993D01*
X155231497Y-112793978D01*
X155225763Y-112852200D01*
X154733299Y-112852200D01*
X154712414Y-112831315D01*
X154509844Y-112695962D01*
X154284761Y-112602730D01*
X154045814Y-112555200D01*
X153802186Y-112555200D01*
X153563239Y-112602730D01*
X153338156Y-112695962D01*
X153135586Y-112831315D01*
X152963315Y-113003586D01*
X152827962Y-113206156D01*
X152734730Y-113431239D01*
X152687200Y-113670186D01*
X132302237Y-113670186D01*
X132302237Y-112852200D01*
X132296503Y-112793978D01*
X132279520Y-112737993D01*
X132251941Y-112686397D01*
X132214827Y-112641173D01*
X132169603Y-112604059D01*
X132118007Y-112576480D01*
X132062022Y-112559497D01*
X132003800Y-112553763D01*
X130124200Y-112553763D01*
X130065978Y-112559497D01*
X130009993Y-112576480D01*
X129958397Y-112604059D01*
X129913173Y-112641173D01*
X129876059Y-112686397D01*
X129848480Y-112737993D01*
X129831497Y-112793978D01*
X129825763Y-112852200D01*
X129825763Y-112902379D01*
X129295761Y-112372378D01*
X129284069Y-112358131D01*
X129227242Y-112311495D01*
X129192403Y-112292874D01*
X129312414Y-112212685D01*
X129484685Y-112040414D01*
X129620038Y-111837844D01*
X129713270Y-111612761D01*
X129760800Y-111373814D01*
X129760800Y-111130186D01*
X129827200Y-111130186D01*
X129827200Y-111373814D01*
X129874730Y-111612761D01*
X129967962Y-111837844D01*
X130103315Y-112040414D01*
X130275586Y-112212685D01*
X130478156Y-112348038D01*
X130703239Y-112441270D01*
X130942186Y-112488800D01*
X131185814Y-112488800D01*
X131424761Y-112441270D01*
X131649844Y-112348038D01*
X131852414Y-112212685D01*
X132024685Y-112040414D01*
X132160038Y-111837844D01*
X132253270Y-111612761D01*
X132300800Y-111373814D01*
X132300800Y-111130186D01*
X152687200Y-111130186D01*
X152687200Y-111373814D01*
X152734730Y-111612761D01*
X152827962Y-111837844D01*
X152963315Y-112040414D01*
X153135586Y-112212685D01*
X153338156Y-112348038D01*
X153563239Y-112441270D01*
X153802186Y-112488800D01*
X154045814Y-112488800D01*
X154284761Y-112441270D01*
X154509844Y-112348038D01*
X154712414Y-112212685D01*
X154884685Y-112040414D01*
X155020038Y-111837844D01*
X155113270Y-111612761D01*
X155160800Y-111373814D01*
X155160800Y-111130186D01*
X155227200Y-111130186D01*
X155227200Y-111373814D01*
X155274730Y-111612761D01*
X155367962Y-111837844D01*
X155503315Y-112040414D01*
X155675586Y-112212685D01*
X155878156Y-112348038D01*
X156103239Y-112441270D01*
X156342186Y-112488800D01*
X156585814Y-112488800D01*
X156824761Y-112441270D01*
X157049844Y-112348038D01*
X157252414Y-112212685D01*
X157424685Y-112040414D01*
X157560038Y-111837844D01*
X157653270Y-111612761D01*
X157700800Y-111373814D01*
X157700800Y-111130186D01*
X157653270Y-110891239D01*
X157560038Y-110666156D01*
X157424685Y-110463586D01*
X157252414Y-110291315D01*
X157049844Y-110155962D01*
X156824761Y-110062730D01*
X156585814Y-110015200D01*
X156342186Y-110015200D01*
X156103239Y-110062730D01*
X155878156Y-110155962D01*
X155675586Y-110291315D01*
X155503315Y-110463586D01*
X155367962Y-110666156D01*
X155274730Y-110891239D01*
X155227200Y-111130186D01*
X155160800Y-111130186D01*
X155113270Y-110891239D01*
X155020038Y-110666156D01*
X154884685Y-110463586D01*
X154712414Y-110291315D01*
X154509844Y-110155962D01*
X154284761Y-110062730D01*
X154045814Y-110015200D01*
X153802186Y-110015200D01*
X153563239Y-110062730D01*
X153338156Y-110155962D01*
X153135586Y-110291315D01*
X152963315Y-110463586D01*
X152827962Y-110666156D01*
X152734730Y-110891239D01*
X152687200Y-111130186D01*
X132300800Y-111130186D01*
X132253270Y-110891239D01*
X132160038Y-110666156D01*
X132024685Y-110463586D01*
X131852414Y-110291315D01*
X131649844Y-110155962D01*
X131424761Y-110062730D01*
X131185814Y-110015200D01*
X130942186Y-110015200D01*
X130703239Y-110062730D01*
X130478156Y-110155962D01*
X130275586Y-110291315D01*
X130103315Y-110463586D01*
X129967962Y-110666156D01*
X129874730Y-110891239D01*
X129827200Y-111130186D01*
X129760800Y-111130186D01*
X129713270Y-110891239D01*
X129620038Y-110666156D01*
X129484685Y-110463586D01*
X129312414Y-110291315D01*
X129109844Y-110155962D01*
X128884761Y-110062730D01*
X128645814Y-110015200D01*
X128402186Y-110015200D01*
X128163239Y-110062730D01*
X127938156Y-110155962D01*
X127735586Y-110291315D01*
X127563315Y-110463586D01*
X127427962Y-110666156D01*
X127334730Y-110891239D01*
X127287200Y-111130186D01*
X127287200Y-111373814D01*
X127334730Y-111612761D01*
X127382095Y-111727112D01*
X125821861Y-110166878D01*
X125810169Y-110152631D01*
X125753342Y-110105995D01*
X125688508Y-110071341D01*
X125618160Y-110050001D01*
X125563326Y-110044600D01*
X125563325Y-110044600D01*
X125545000Y-110042795D01*
X125526675Y-110044600D01*
X118882385Y-110044600D01*
X117891594Y-109053810D01*
X117966961Y-108871860D01*
X118012000Y-108645432D01*
X118012000Y-108414568D01*
X117966961Y-108188140D01*
X117878613Y-107974850D01*
X117750352Y-107782893D01*
X117587107Y-107619648D01*
X117395150Y-107491387D01*
X117181860Y-107403039D01*
X116955432Y-107358000D01*
X116724568Y-107358000D01*
X116498140Y-107403039D01*
X116284850Y-107491387D01*
X116092893Y-107619648D01*
X115929648Y-107782893D01*
X115801387Y-107974850D01*
X115713039Y-108188140D01*
X115668000Y-108414568D01*
X115155000Y-108414568D01*
X115155000Y-107137332D01*
X117983000Y-107137332D01*
X117983000Y-107402668D01*
X118034764Y-107662906D01*
X118136304Y-107908044D01*
X118283716Y-108128663D01*
X118471337Y-108316284D01*
X118691956Y-108463696D01*
X118937094Y-108565236D01*
X119197332Y-108617000D01*
X119462668Y-108617000D01*
X119722906Y-108565236D01*
X119968044Y-108463696D01*
X120188663Y-108316284D01*
X120376284Y-108128663D01*
X120523696Y-107908044D01*
X120625236Y-107662906D01*
X120677000Y-107402668D01*
X120677000Y-107137332D01*
X120625236Y-106877094D01*
X120523696Y-106631956D01*
X120376284Y-106411337D01*
X120188663Y-106223716D01*
X119968044Y-106076304D01*
X119722906Y-105974764D01*
X119462668Y-105923000D01*
X119197332Y-105923000D01*
X118937094Y-105974764D01*
X118691956Y-106076304D01*
X118471337Y-106223716D01*
X118283716Y-106411337D01*
X118136304Y-106631956D01*
X118034764Y-106877094D01*
X117983000Y-107137332D01*
X115155000Y-107137332D01*
X115155000Y-105267000D01*
X116471928Y-105267000D01*
X116484188Y-105391482D01*
X116520498Y-105511180D01*
X116579463Y-105621494D01*
X116658815Y-105718185D01*
X116755506Y-105797537D01*
X116865820Y-105856502D01*
X116985518Y-105892812D01*
X117110000Y-105905072D01*
X117824250Y-105902000D01*
X117983000Y-105743250D01*
X117983000Y-104394000D01*
X118237000Y-104394000D01*
X118237000Y-105743250D01*
X118395750Y-105902000D01*
X119110000Y-105905072D01*
X119234482Y-105892812D01*
X119354180Y-105856502D01*
X119464494Y-105797537D01*
X119561185Y-105718185D01*
X119640537Y-105621494D01*
X119699502Y-105511180D01*
X119735812Y-105391482D01*
X119748072Y-105267000D01*
X119745000Y-104552750D01*
X119586250Y-104394000D01*
X118237000Y-104394000D01*
X117983000Y-104394000D01*
X116633750Y-104394000D01*
X116475000Y-104552750D01*
X116471928Y-105267000D01*
X115155000Y-105267000D01*
X115155000Y-103267000D01*
X116471928Y-103267000D01*
X116475000Y-103981250D01*
X116633750Y-104140000D01*
X117983000Y-104140000D01*
X117983000Y-104120000D01*
X118237000Y-104120000D01*
X118237000Y-104140000D01*
X119586250Y-104140000D01*
X119745000Y-103981250D01*
X119745392Y-103890176D01*
X122435801Y-106580586D01*
X122435801Y-107148346D01*
X122425619Y-107151435D01*
X122252416Y-107244014D01*
X122100603Y-107368603D01*
X121976014Y-107520416D01*
X121883435Y-107693619D01*
X121826426Y-107881554D01*
X121807176Y-108077000D01*
X121826426Y-108272446D01*
X121883435Y-108460381D01*
X121976014Y-108633584D01*
X122100603Y-108785397D01*
X122252416Y-108909986D01*
X122425619Y-109002565D01*
X122613554Y-109059574D01*
X122760022Y-109074000D01*
X122857978Y-109074000D01*
X123004446Y-109059574D01*
X123192381Y-109002565D01*
X123365584Y-108909986D01*
X123517397Y-108785397D01*
X123641986Y-108633584D01*
X123734565Y-108460381D01*
X123791574Y-108272446D01*
X123810824Y-108077000D01*
X123791574Y-107881554D01*
X123734565Y-107693619D01*
X123641986Y-107520416D01*
X123517397Y-107368603D01*
X123365584Y-107244014D01*
X123192381Y-107151435D01*
X123182200Y-107148347D01*
X123182200Y-106444325D01*
X123184005Y-106426000D01*
X123176799Y-106352840D01*
X123155459Y-106282492D01*
X123124043Y-106223716D01*
X123120805Y-106217658D01*
X123074169Y-106160831D01*
X123059933Y-106149148D01*
X122793181Y-105882396D01*
X122827518Y-105892812D01*
X122952000Y-105905072D01*
X123666250Y-105902000D01*
X123825000Y-105743250D01*
X123825000Y-104394000D01*
X122475750Y-104394000D01*
X122317000Y-104552750D01*
X122313928Y-105267000D01*
X122326188Y-105391482D01*
X122336604Y-105425819D01*
X120177785Y-103267000D01*
X122313928Y-103267000D01*
X122317000Y-103981250D01*
X122475750Y-104140000D01*
X123825000Y-104140000D01*
X123825000Y-104120000D01*
X124079000Y-104120000D01*
X124079000Y-104140000D01*
X124099000Y-104140000D01*
X124099000Y-104394000D01*
X124079000Y-104394000D01*
X124079000Y-105743250D01*
X124237750Y-105902000D01*
X124952000Y-105905072D01*
X125076482Y-105892812D01*
X125102800Y-105884828D01*
X125102800Y-107148347D01*
X125092619Y-107151435D01*
X124919416Y-107244014D01*
X124767603Y-107368603D01*
X124643014Y-107520416D01*
X124550435Y-107693619D01*
X124493426Y-107881554D01*
X124474176Y-108077000D01*
X124493426Y-108272446D01*
X124550435Y-108460381D01*
X124643014Y-108633584D01*
X124767603Y-108785397D01*
X124919416Y-108909986D01*
X125092619Y-109002565D01*
X125280554Y-109059574D01*
X125427022Y-109074000D01*
X125524978Y-109074000D01*
X125671446Y-109059574D01*
X125859381Y-109002565D01*
X126032584Y-108909986D01*
X126184397Y-108785397D01*
X126308986Y-108633584D01*
X126332182Y-108590186D01*
X127287200Y-108590186D01*
X127287200Y-108833814D01*
X127334730Y-109072761D01*
X127427962Y-109297844D01*
X127563315Y-109500414D01*
X127735586Y-109672685D01*
X127938156Y-109808038D01*
X128163239Y-109901270D01*
X128402186Y-109948800D01*
X128645814Y-109948800D01*
X128884761Y-109901270D01*
X129109844Y-109808038D01*
X129312414Y-109672685D01*
X129484685Y-109500414D01*
X129620038Y-109297844D01*
X129713270Y-109072761D01*
X129760800Y-108833814D01*
X129760800Y-108590186D01*
X129827200Y-108590186D01*
X129827200Y-108833814D01*
X129874730Y-109072761D01*
X129967962Y-109297844D01*
X130103315Y-109500414D01*
X130275586Y-109672685D01*
X130478156Y-109808038D01*
X130703239Y-109901270D01*
X130942186Y-109948800D01*
X131185814Y-109948800D01*
X131424761Y-109901270D01*
X131649844Y-109808038D01*
X131852414Y-109672685D01*
X132024685Y-109500414D01*
X132160038Y-109297844D01*
X132253270Y-109072761D01*
X132300800Y-108833814D01*
X132300800Y-108590186D01*
X152687200Y-108590186D01*
X152687200Y-108833814D01*
X152734730Y-109072761D01*
X152827962Y-109297844D01*
X152963315Y-109500414D01*
X153135586Y-109672685D01*
X153338156Y-109808038D01*
X153563239Y-109901270D01*
X153802186Y-109948800D01*
X154045814Y-109948800D01*
X154284761Y-109901270D01*
X154509844Y-109808038D01*
X154712414Y-109672685D01*
X154884685Y-109500414D01*
X155020038Y-109297844D01*
X155113270Y-109072761D01*
X155160800Y-108833814D01*
X155160800Y-108590186D01*
X155113270Y-108351239D01*
X155020038Y-108126156D01*
X154884685Y-107923586D01*
X154712414Y-107751315D01*
X154529060Y-107628802D01*
X154589086Y-107607865D01*
X154748377Y-107522723D01*
X154836871Y-107264476D01*
X153924000Y-106351605D01*
X153011129Y-107264476D01*
X153099623Y-107522723D01*
X153319106Y-107628691D01*
X153135586Y-107751315D01*
X152963315Y-107923586D01*
X152827962Y-108126156D01*
X152734730Y-108351239D01*
X152687200Y-108590186D01*
X132300800Y-108590186D01*
X132253270Y-108351239D01*
X132160038Y-108126156D01*
X132024685Y-107923586D01*
X131852414Y-107751315D01*
X131649844Y-107615962D01*
X131424761Y-107522730D01*
X131185814Y-107475200D01*
X130942186Y-107475200D01*
X130703239Y-107522730D01*
X130478156Y-107615962D01*
X130275586Y-107751315D01*
X130103315Y-107923586D01*
X129967962Y-108126156D01*
X129874730Y-108351239D01*
X129827200Y-108590186D01*
X129760800Y-108590186D01*
X129713270Y-108351239D01*
X129620038Y-108126156D01*
X129484685Y-107923586D01*
X129312414Y-107751315D01*
X129109844Y-107615962D01*
X128884761Y-107522730D01*
X128645814Y-107475200D01*
X128402186Y-107475200D01*
X128163239Y-107522730D01*
X127938156Y-107615962D01*
X127735586Y-107751315D01*
X127563315Y-107923586D01*
X127427962Y-108126156D01*
X127334730Y-108351239D01*
X127287200Y-108590186D01*
X126332182Y-108590186D01*
X126401565Y-108460381D01*
X126458574Y-108272446D01*
X126477824Y-108077000D01*
X126458574Y-107881554D01*
X126401565Y-107693619D01*
X126308986Y-107520416D01*
X126184397Y-107368603D01*
X126032584Y-107244014D01*
X125859381Y-107151435D01*
X125849200Y-107148347D01*
X125849200Y-103269325D01*
X125851005Y-103250999D01*
X125843799Y-103177840D01*
X125833084Y-103142518D01*
X125822459Y-103107492D01*
X125787805Y-103042658D01*
X125741169Y-102985831D01*
X125726933Y-102974148D01*
X125098486Y-102345702D01*
X125101387Y-102341360D01*
X125199157Y-102105321D01*
X125249000Y-101854743D01*
X125249000Y-101599257D01*
X125199157Y-101348679D01*
X125122480Y-101163564D01*
X126779600Y-102820684D01*
X126779601Y-104782465D01*
X126777795Y-104800800D01*
X126785001Y-104873959D01*
X126806342Y-104944308D01*
X126826879Y-104982730D01*
X126840996Y-105009142D01*
X126887632Y-105065969D01*
X126901873Y-105077657D01*
X127422810Y-105598594D01*
X127334730Y-105811239D01*
X127287200Y-106050186D01*
X127287200Y-106293814D01*
X127334730Y-106532761D01*
X127427962Y-106757844D01*
X127563315Y-106960414D01*
X127735586Y-107132685D01*
X127938156Y-107268038D01*
X128163239Y-107361270D01*
X128402186Y-107408800D01*
X128645814Y-107408800D01*
X128884761Y-107361270D01*
X129109844Y-107268038D01*
X129312414Y-107132685D01*
X129484685Y-106960414D01*
X129620038Y-106757844D01*
X129713270Y-106532761D01*
X129760800Y-106293814D01*
X129760800Y-106050186D01*
X129827200Y-106050186D01*
X129827200Y-106293814D01*
X129874730Y-106532761D01*
X129967962Y-106757844D01*
X130103315Y-106960414D01*
X130275586Y-107132685D01*
X130478156Y-107268038D01*
X130703239Y-107361270D01*
X130942186Y-107408800D01*
X131185814Y-107408800D01*
X131424761Y-107361270D01*
X131649844Y-107268038D01*
X131852414Y-107132685D01*
X132024685Y-106960414D01*
X132160038Y-106757844D01*
X132253270Y-106532761D01*
X132300800Y-106293814D01*
X132300800Y-106050186D01*
X132253270Y-105811239D01*
X132160038Y-105586156D01*
X132024685Y-105383586D01*
X131852414Y-105211315D01*
X131649844Y-105075962D01*
X131424761Y-104982730D01*
X131185814Y-104935200D01*
X130942186Y-104935200D01*
X130703239Y-104982730D01*
X130478156Y-105075962D01*
X130275586Y-105211315D01*
X130103315Y-105383586D01*
X129967962Y-105586156D01*
X129874730Y-105811239D01*
X129827200Y-106050186D01*
X129760800Y-106050186D01*
X129713270Y-105811239D01*
X129620038Y-105586156D01*
X129484685Y-105383586D01*
X129312414Y-105211315D01*
X129109844Y-105075962D01*
X128884761Y-104982730D01*
X128645814Y-104935200D01*
X128402186Y-104935200D01*
X128163239Y-104982730D01*
X127950594Y-105070810D01*
X127526000Y-104646217D01*
X127526000Y-104364568D01*
X127563315Y-104420414D01*
X127735586Y-104592685D01*
X127938156Y-104728038D01*
X128163239Y-104821270D01*
X128402186Y-104868800D01*
X128645814Y-104868800D01*
X128884761Y-104821270D01*
X129109844Y-104728038D01*
X129312414Y-104592685D01*
X129484685Y-104420414D01*
X129620038Y-104217844D01*
X129713270Y-103992761D01*
X129760800Y-103753814D01*
X129760800Y-103510186D01*
X129713270Y-103271239D01*
X129620038Y-103046156D01*
X129484685Y-102843586D01*
X129312414Y-102671315D01*
X129109844Y-102535962D01*
X128884761Y-102442730D01*
X128645814Y-102395200D01*
X128402186Y-102395200D01*
X128163239Y-102442730D01*
X127938156Y-102535962D01*
X127735586Y-102671315D01*
X127563315Y-102843586D01*
X127526000Y-102899432D01*
X127526000Y-102684425D01*
X127527805Y-102666100D01*
X127520599Y-102592940D01*
X127499259Y-102522592D01*
X127464605Y-102457758D01*
X127452272Y-102442730D01*
X127417969Y-102400931D01*
X127403729Y-102389245D01*
X124409483Y-99395000D01*
X125167882Y-99395000D01*
X125329049Y-99379126D01*
X125535835Y-99316399D01*
X125726409Y-99214535D01*
X125893449Y-99077449D01*
X126030535Y-98910409D01*
X126132399Y-98719835D01*
X126195126Y-98513049D01*
X126204060Y-98422343D01*
X127841957Y-100060240D01*
X127735586Y-100131315D01*
X127563315Y-100303586D01*
X127427962Y-100506156D01*
X127334730Y-100731239D01*
X127287200Y-100970186D01*
X127287200Y-101213814D01*
X127334730Y-101452761D01*
X127427962Y-101677844D01*
X127563315Y-101880414D01*
X127735586Y-102052685D01*
X127938156Y-102188038D01*
X128163239Y-102281270D01*
X128402186Y-102328800D01*
X128645814Y-102328800D01*
X128884761Y-102281270D01*
X129109844Y-102188038D01*
X129312414Y-102052685D01*
X129420801Y-101944298D01*
X129420801Y-102343665D01*
X129418995Y-102362000D01*
X129426201Y-102435159D01*
X129428498Y-102442730D01*
X129447542Y-102505508D01*
X129482196Y-102570342D01*
X129528832Y-102627169D01*
X129543073Y-102638857D01*
X129962810Y-103058594D01*
X129874730Y-103271239D01*
X129827200Y-103510186D01*
X129827200Y-103753814D01*
X129874730Y-103992761D01*
X129967962Y-104217844D01*
X130103315Y-104420414D01*
X130275586Y-104592685D01*
X130478156Y-104728038D01*
X130703239Y-104821270D01*
X130942186Y-104868800D01*
X131185814Y-104868800D01*
X131424761Y-104821270D01*
X131649844Y-104728038D01*
X131852414Y-104592685D01*
X132024685Y-104420414D01*
X132160038Y-104217844D01*
X132253270Y-103992761D01*
X132300800Y-103753814D01*
X132300800Y-103510186D01*
X132253270Y-103271239D01*
X132160038Y-103046156D01*
X132024685Y-102843586D01*
X131852414Y-102671315D01*
X131649844Y-102535962D01*
X131424761Y-102442730D01*
X131185814Y-102395200D01*
X130942186Y-102395200D01*
X130703239Y-102442730D01*
X130490594Y-102530810D01*
X130167200Y-102207417D01*
X130167200Y-101944299D01*
X130275586Y-102052685D01*
X130478156Y-102188038D01*
X130703239Y-102281270D01*
X130942186Y-102328800D01*
X131185814Y-102328800D01*
X131424761Y-102281270D01*
X131649844Y-102188038D01*
X131852414Y-102052685D01*
X132024685Y-101880414D01*
X132160038Y-101677844D01*
X132253270Y-101452761D01*
X132300800Y-101213814D01*
X132300800Y-100970186D01*
X132253270Y-100731239D01*
X132160038Y-100506156D01*
X132024685Y-100303586D01*
X131852414Y-100131315D01*
X131649844Y-99995962D01*
X131424761Y-99902730D01*
X131185814Y-99855200D01*
X130942186Y-99855200D01*
X130703239Y-99902730D01*
X130478156Y-99995962D01*
X130275586Y-100131315D01*
X130103315Y-100303586D01*
X130037568Y-100401984D01*
X129307861Y-99672278D01*
X129296169Y-99658031D01*
X129239342Y-99611395D01*
X129197864Y-99589225D01*
X129312414Y-99512685D01*
X129484685Y-99340414D01*
X129620038Y-99137844D01*
X129713270Y-98912761D01*
X129760800Y-98673814D01*
X129760800Y-98430186D01*
X129827200Y-98430186D01*
X129827200Y-98673814D01*
X129874730Y-98912761D01*
X129967962Y-99137844D01*
X130103315Y-99340414D01*
X130275586Y-99512685D01*
X130478156Y-99648038D01*
X130703239Y-99741270D01*
X130942186Y-99788800D01*
X131185814Y-99788800D01*
X131424761Y-99741270D01*
X131649844Y-99648038D01*
X131852414Y-99512685D01*
X132024685Y-99340414D01*
X132160038Y-99137844D01*
X132253270Y-98912761D01*
X132300800Y-98673814D01*
X132300800Y-98430186D01*
X132253270Y-98191239D01*
X132160038Y-97966156D01*
X132024685Y-97763586D01*
X131852414Y-97591315D01*
X131649844Y-97455962D01*
X131424761Y-97362730D01*
X131185814Y-97315200D01*
X130942186Y-97315200D01*
X130703239Y-97362730D01*
X130478156Y-97455962D01*
X130275586Y-97591315D01*
X130103315Y-97763586D01*
X129967962Y-97966156D01*
X129874730Y-98191239D01*
X129827200Y-98430186D01*
X129760800Y-98430186D01*
X129713270Y-98191239D01*
X129620038Y-97966156D01*
X129484685Y-97763586D01*
X129312414Y-97591315D01*
X129109844Y-97455962D01*
X128884761Y-97362730D01*
X128645814Y-97315200D01*
X128402186Y-97315200D01*
X128163239Y-97362730D01*
X127950594Y-97450810D01*
X126516100Y-96016317D01*
X126516100Y-95890186D01*
X127287200Y-95890186D01*
X127287200Y-96133814D01*
X127334730Y-96372761D01*
X127427962Y-96597844D01*
X127563315Y-96800414D01*
X127735586Y-96972685D01*
X127938156Y-97108038D01*
X128163239Y-97201270D01*
X128402186Y-97248800D01*
X128645814Y-97248800D01*
X128884761Y-97201270D01*
X129109844Y-97108038D01*
X129312414Y-96972685D01*
X129484685Y-96800414D01*
X129620038Y-96597844D01*
X129713270Y-96372761D01*
X129760800Y-96133814D01*
X129760800Y-95890186D01*
X129827200Y-95890186D01*
X129827200Y-96133814D01*
X129874730Y-96372761D01*
X129967962Y-96597844D01*
X130103315Y-96800414D01*
X130275586Y-96972685D01*
X130478156Y-97108038D01*
X130703239Y-97201270D01*
X130942186Y-97248800D01*
X131185814Y-97248800D01*
X131424761Y-97201270D01*
X131649844Y-97108038D01*
X131852414Y-96972685D01*
X132024685Y-96800414D01*
X132160038Y-96597844D01*
X132253270Y-96372761D01*
X132300800Y-96133814D01*
X132300800Y-95890186D01*
X132253270Y-95651239D01*
X132160038Y-95426156D01*
X132024685Y-95223586D01*
X131852414Y-95051315D01*
X131649844Y-94915962D01*
X131424761Y-94822730D01*
X131185814Y-94775200D01*
X130942186Y-94775200D01*
X130703239Y-94822730D01*
X130478156Y-94915962D01*
X130275586Y-95051315D01*
X130103315Y-95223586D01*
X129967962Y-95426156D01*
X129874730Y-95651239D01*
X129827200Y-95890186D01*
X129760800Y-95890186D01*
X129713270Y-95651239D01*
X129620038Y-95426156D01*
X129484685Y-95223586D01*
X129312414Y-95051315D01*
X129109844Y-94915962D01*
X128884761Y-94822730D01*
X128645814Y-94775200D01*
X128402186Y-94775200D01*
X128163239Y-94822730D01*
X127938156Y-94915962D01*
X127735586Y-95051315D01*
X127563315Y-95223586D01*
X127427962Y-95426156D01*
X127334730Y-95651239D01*
X127287200Y-95890186D01*
X126516100Y-95890186D01*
X126516100Y-93350186D01*
X127287200Y-93350186D01*
X127287200Y-93593814D01*
X127334730Y-93832761D01*
X127427962Y-94057844D01*
X127563315Y-94260414D01*
X127735586Y-94432685D01*
X127938156Y-94568038D01*
X128163239Y-94661270D01*
X128402186Y-94708800D01*
X128645814Y-94708800D01*
X128884761Y-94661270D01*
X129109844Y-94568038D01*
X129312414Y-94432685D01*
X129484685Y-94260414D01*
X129620038Y-94057844D01*
X129713270Y-93832761D01*
X129760800Y-93593814D01*
X129760800Y-93350186D01*
X129827200Y-93350186D01*
X129827200Y-93593814D01*
X129874730Y-93832761D01*
X129967962Y-94057844D01*
X130103315Y-94260414D01*
X130275586Y-94432685D01*
X130478156Y-94568038D01*
X130703239Y-94661270D01*
X130942186Y-94708800D01*
X131185814Y-94708800D01*
X131424761Y-94661270D01*
X131649844Y-94568038D01*
X131852414Y-94432685D01*
X132024685Y-94260414D01*
X132160038Y-94057844D01*
X132253270Y-93832761D01*
X132300800Y-93593814D01*
X132300800Y-93350186D01*
X132253270Y-93111239D01*
X132160038Y-92886156D01*
X132024685Y-92683586D01*
X131852414Y-92511315D01*
X131649844Y-92375962D01*
X131424761Y-92282730D01*
X131185814Y-92235200D01*
X130942186Y-92235200D01*
X130703239Y-92282730D01*
X130478156Y-92375962D01*
X130275586Y-92511315D01*
X130103315Y-92683586D01*
X129967962Y-92886156D01*
X129874730Y-93111239D01*
X129827200Y-93350186D01*
X129760800Y-93350186D01*
X129713270Y-93111239D01*
X129620038Y-92886156D01*
X129484685Y-92683586D01*
X129312414Y-92511315D01*
X129129060Y-92388802D01*
X129189086Y-92367865D01*
X129348377Y-92282723D01*
X129436871Y-92024476D01*
X128524000Y-91111605D01*
X127611129Y-92024476D01*
X127699623Y-92282723D01*
X127919106Y-92388691D01*
X127735586Y-92511315D01*
X127563315Y-92683586D01*
X127427962Y-92886156D01*
X127334730Y-93111239D01*
X127287200Y-93350186D01*
X126516100Y-93350186D01*
X126516100Y-90996977D01*
X126942916Y-90996977D01*
X126985973Y-91304184D01*
X127088135Y-91597086D01*
X127173277Y-91756377D01*
X127431524Y-91844871D01*
X128344395Y-90932000D01*
X128703605Y-90932000D01*
X129616476Y-91844871D01*
X129874723Y-91756377D01*
X129980691Y-91536894D01*
X130103315Y-91720414D01*
X130275586Y-91892685D01*
X130478156Y-92028038D01*
X130703239Y-92121270D01*
X130942186Y-92168800D01*
X131185814Y-92168800D01*
X131424761Y-92121270D01*
X131649844Y-92028038D01*
X131852414Y-91892685D01*
X132024685Y-91720414D01*
X132160038Y-91517844D01*
X132253270Y-91292761D01*
X132300800Y-91053814D01*
X132300800Y-90810186D01*
X132253270Y-90571239D01*
X132160038Y-90346156D01*
X132024685Y-90143586D01*
X131852414Y-89971315D01*
X131649844Y-89835962D01*
X131424761Y-89742730D01*
X131185814Y-89695200D01*
X130942186Y-89695200D01*
X130703239Y-89742730D01*
X130478156Y-89835962D01*
X130275586Y-89971315D01*
X130103315Y-90143586D01*
X129980802Y-90326940D01*
X129959865Y-90266914D01*
X129874723Y-90107623D01*
X129616476Y-90019129D01*
X128703605Y-90932000D01*
X128344395Y-90932000D01*
X127431524Y-90019129D01*
X127173277Y-90107623D01*
X127038403Y-90386976D01*
X126960619Y-90687275D01*
X126942916Y-90996977D01*
X126516100Y-90996977D01*
X126516100Y-89839524D01*
X127611129Y-89839524D01*
X128524000Y-90752395D01*
X129436871Y-89839524D01*
X129348377Y-89581277D01*
X129069024Y-89446403D01*
X128768725Y-89368619D01*
X128459023Y-89350916D01*
X128151816Y-89393973D01*
X127858914Y-89496135D01*
X127699623Y-89581277D01*
X127611129Y-89839524D01*
X126516100Y-89839524D01*
X126516100Y-85616325D01*
X126517905Y-85598000D01*
X126510699Y-85524840D01*
X126489359Y-85454492D01*
X126454705Y-85389658D01*
X126408069Y-85332831D01*
X126351242Y-85286195D01*
X126286408Y-85251541D01*
X126216060Y-85230201D01*
X126161226Y-85224800D01*
X126161225Y-85224800D01*
X126146719Y-85223371D01*
X126132399Y-85176165D01*
X126030535Y-84985591D01*
X125893449Y-84818551D01*
X125726409Y-84681465D01*
X125535835Y-84579601D01*
X125329049Y-84516874D01*
X125167882Y-84501000D01*
X124260118Y-84501000D01*
X124098951Y-84516874D01*
X123892165Y-84579601D01*
X123701591Y-84681465D01*
X123534551Y-84818551D01*
X123397465Y-84985591D01*
X123295601Y-85176165D01*
X123232874Y-85382951D01*
X123211693Y-85598000D01*
X123232874Y-85813049D01*
X123295601Y-86019835D01*
X123397465Y-86210409D01*
X123534551Y-86377449D01*
X123701591Y-86514535D01*
X123892165Y-86616399D01*
X124098951Y-86679126D01*
X124260118Y-86695000D01*
X125167882Y-86695000D01*
X125329049Y-86679126D01*
X125535835Y-86616399D01*
X125726409Y-86514535D01*
X125769700Y-86479007D01*
X125769700Y-87256993D01*
X125726409Y-87221465D01*
X125535835Y-87119601D01*
X125329049Y-87056874D01*
X125167882Y-87041000D01*
X124260118Y-87041000D01*
X124098951Y-87056874D01*
X123892165Y-87119601D01*
X123701591Y-87221465D01*
X123534551Y-87358551D01*
X123397465Y-87525591D01*
X123295601Y-87716165D01*
X123232874Y-87922951D01*
X123211693Y-88138000D01*
X123232874Y-88353049D01*
X123295601Y-88559835D01*
X123397465Y-88750409D01*
X123534551Y-88917449D01*
X123701591Y-89054535D01*
X123892165Y-89156399D01*
X124098951Y-89219126D01*
X124260118Y-89235000D01*
X125167882Y-89235000D01*
X125329049Y-89219126D01*
X125535835Y-89156399D01*
X125726409Y-89054535D01*
X125769700Y-89019007D01*
X125769700Y-89796993D01*
X125726409Y-89761465D01*
X125535835Y-89659601D01*
X125329049Y-89596874D01*
X125167882Y-89581000D01*
X124260118Y-89581000D01*
X124098951Y-89596874D01*
X123892165Y-89659601D01*
X123701591Y-89761465D01*
X123534551Y-89898551D01*
X123397465Y-90065591D01*
X123295601Y-90256165D01*
X123281281Y-90303371D01*
X123266774Y-90304800D01*
X123211940Y-90310201D01*
X123141592Y-90331541D01*
X123076758Y-90366195D01*
X123019931Y-90412831D01*
X122973295Y-90469658D01*
X122938641Y-90534492D01*
X122917301Y-90604840D01*
X122910095Y-90678000D01*
X122911900Y-90696325D01*
X122911901Y-98780065D01*
X122910095Y-98798400D01*
X122917301Y-98871559D01*
X122929800Y-98912761D01*
X122938642Y-98941908D01*
X122973296Y-99006742D01*
X123019932Y-99063569D01*
X123034174Y-99075257D01*
X124515437Y-100556520D01*
X124330321Y-100479843D01*
X124079743Y-100430000D01*
X123824257Y-100430000D01*
X123573679Y-100479843D01*
X123337640Y-100577613D01*
X123125210Y-100719554D01*
X122944554Y-100900210D01*
X122802613Y-101112640D01*
X122704843Y-101348679D01*
X122655000Y-101599257D01*
X122655000Y-101854743D01*
X122704843Y-102105321D01*
X122802613Y-102341360D01*
X122944554Y-102553790D01*
X123019984Y-102629220D01*
X122952000Y-102628928D01*
X122827518Y-102641188D01*
X122707820Y-102677498D01*
X122597506Y-102736463D01*
X122500815Y-102815815D01*
X122421463Y-102912506D01*
X122362498Y-103022820D01*
X122326188Y-103142518D01*
X122313928Y-103267000D01*
X120177785Y-103267000D01*
X119256486Y-102345702D01*
X119259387Y-102341360D01*
X119357157Y-102105321D01*
X119407000Y-101854743D01*
X119407000Y-101599257D01*
X119357157Y-101348679D01*
X119259387Y-101112640D01*
X119117446Y-100900210D01*
X118936790Y-100719554D01*
X118724360Y-100577613D01*
X118488321Y-100479843D01*
X118237743Y-100430000D01*
X117982257Y-100430000D01*
X117731679Y-100479843D01*
X117495640Y-100577613D01*
X117283210Y-100719554D01*
X117102554Y-100900210D01*
X116960613Y-101112640D01*
X116862843Y-101348679D01*
X116813000Y-101599257D01*
X116813000Y-101854743D01*
X116862843Y-102105321D01*
X116960613Y-102341360D01*
X117102554Y-102553790D01*
X117177984Y-102629220D01*
X117110000Y-102628928D01*
X116985518Y-102641188D01*
X116865820Y-102677498D01*
X116755506Y-102736463D01*
X116658815Y-102815815D01*
X116579463Y-102912506D01*
X116520498Y-103022820D01*
X116484188Y-103142518D01*
X116471928Y-103267000D01*
X115155000Y-103267000D01*
X115155000Y-98647039D01*
X115302096Y-98647039D01*
X115319633Y-98729818D01*
X115430285Y-98989646D01*
X115589500Y-99222895D01*
X115791161Y-99420601D01*
X116027517Y-99575166D01*
X116289486Y-99680650D01*
X116567000Y-99733000D01*
X116967000Y-99733000D01*
X116967000Y-98425000D01*
X117221000Y-98425000D01*
X117221000Y-99733000D01*
X117621000Y-99733000D01*
X117898514Y-99680650D01*
X118160483Y-99575166D01*
X118396839Y-99420601D01*
X118598500Y-99222895D01*
X118757715Y-98989646D01*
X118868367Y-98729818D01*
X118885904Y-98647039D01*
X118763915Y-98425000D01*
X117221000Y-98425000D01*
X116967000Y-98425000D01*
X115424085Y-98425000D01*
X115302096Y-98647039D01*
X115155000Y-98647039D01*
X115155000Y-97948961D01*
X115302096Y-97948961D01*
X115424085Y-98171000D01*
X116967000Y-98171000D01*
X116967000Y-98151000D01*
X117221000Y-98151000D01*
X117221000Y-98171000D01*
X118763915Y-98171000D01*
X118885904Y-97948961D01*
X118868367Y-97866182D01*
X118757715Y-97606354D01*
X118598500Y-97373105D01*
X118396839Y-97175399D01*
X118160483Y-97020834D01*
X117898514Y-96915350D01*
X117621000Y-96863000D01*
X116567000Y-96863000D01*
X116289486Y-96915350D01*
X116027517Y-97020834D01*
X115791161Y-97175399D01*
X115589500Y-97373105D01*
X115430285Y-97606354D01*
X115319633Y-97866182D01*
X115302096Y-97948961D01*
X115155000Y-97948961D01*
X115155000Y-87679000D01*
X115290095Y-87679000D01*
X115291901Y-87697335D01*
X115291900Y-90659674D01*
X115290095Y-90678000D01*
X115297301Y-90751160D01*
X115318641Y-90821508D01*
X115353295Y-90886342D01*
X115390765Y-90932000D01*
X115399931Y-90943169D01*
X115456758Y-90989805D01*
X115521592Y-91024459D01*
X115591940Y-91045799D01*
X115661281Y-91052629D01*
X115675601Y-91099835D01*
X115777465Y-91290409D01*
X115914551Y-91457449D01*
X116081591Y-91594535D01*
X116272165Y-91696399D01*
X116478951Y-91759126D01*
X116640118Y-91775000D01*
X117547882Y-91775000D01*
X117709049Y-91759126D01*
X117915835Y-91696399D01*
X118106409Y-91594535D01*
X118149700Y-91559007D01*
X118149700Y-92336993D01*
X118106409Y-92301465D01*
X117915835Y-92199601D01*
X117709049Y-92136874D01*
X117547882Y-92121000D01*
X116640118Y-92121000D01*
X116478951Y-92136874D01*
X116272165Y-92199601D01*
X116081591Y-92301465D01*
X115914551Y-92438551D01*
X115777465Y-92605591D01*
X115675601Y-92796165D01*
X115612874Y-93002951D01*
X115591693Y-93218000D01*
X115612874Y-93433049D01*
X115675601Y-93639835D01*
X115777465Y-93830409D01*
X115914551Y-93997449D01*
X116081591Y-94134535D01*
X116272165Y-94236399D01*
X116478951Y-94299126D01*
X116640118Y-94315000D01*
X117547882Y-94315000D01*
X117709049Y-94299126D01*
X117915835Y-94236399D01*
X118106409Y-94134535D01*
X118149700Y-94099007D01*
X118149700Y-94876993D01*
X118106409Y-94841465D01*
X117915835Y-94739601D01*
X117709049Y-94676874D01*
X117547882Y-94661000D01*
X116640118Y-94661000D01*
X116478951Y-94676874D01*
X116272165Y-94739601D01*
X116081591Y-94841465D01*
X115914551Y-94978551D01*
X115777465Y-95145591D01*
X115675601Y-95336165D01*
X115612874Y-95542951D01*
X115591693Y-95758000D01*
X115612874Y-95973049D01*
X115675601Y-96179835D01*
X115777465Y-96370409D01*
X115914551Y-96537449D01*
X116081591Y-96674535D01*
X116272165Y-96776399D01*
X116478951Y-96839126D01*
X116640118Y-96855000D01*
X117547882Y-96855000D01*
X117709049Y-96839126D01*
X117915835Y-96776399D01*
X118106409Y-96674535D01*
X118273449Y-96537449D01*
X118410535Y-96370409D01*
X118512399Y-96179835D01*
X118526719Y-96132629D01*
X118541225Y-96131200D01*
X118541226Y-96131200D01*
X118596060Y-96125799D01*
X118666408Y-96104459D01*
X118731242Y-96069805D01*
X118788069Y-96023169D01*
X118834705Y-95966342D01*
X118869359Y-95901508D01*
X118890699Y-95831160D01*
X118893463Y-95803101D01*
X118896100Y-95776326D01*
X118896100Y-95776325D01*
X118897905Y-95758000D01*
X118896100Y-95739674D01*
X118896100Y-87196683D01*
X123231021Y-82861762D01*
X123211693Y-83058000D01*
X123232874Y-83273049D01*
X123295601Y-83479835D01*
X123397465Y-83670409D01*
X123534551Y-83837449D01*
X123701591Y-83974535D01*
X123892165Y-84076399D01*
X124098951Y-84139126D01*
X124260118Y-84155000D01*
X125167882Y-84155000D01*
X125329049Y-84139126D01*
X125535835Y-84076399D01*
X125726409Y-83974535D01*
X125893449Y-83837449D01*
X126030535Y-83670409D01*
X126099152Y-83542035D01*
X142374800Y-99817684D01*
X142374801Y-101979563D01*
X141648000Y-101979563D01*
X141589778Y-101985297D01*
X141533793Y-102002280D01*
X141482197Y-102029859D01*
X141436973Y-102066973D01*
X141399859Y-102112197D01*
X141372280Y-102163793D01*
X141355297Y-102219778D01*
X141349563Y-102278000D01*
X141349563Y-104478000D01*
X141355297Y-104536222D01*
X141372280Y-104592207D01*
X141399859Y-104643803D01*
X141436973Y-104689027D01*
X141482197Y-104726141D01*
X141533793Y-104753720D01*
X141589778Y-104770703D01*
X141648000Y-104776437D01*
X143848000Y-104776437D01*
X143906222Y-104770703D01*
X143962207Y-104753720D01*
X144013803Y-104726141D01*
X144059027Y-104689027D01*
X144096141Y-104643803D01*
X144123720Y-104592207D01*
X144140703Y-104536222D01*
X144146437Y-104478000D01*
X144146437Y-102278000D01*
X144140703Y-102219778D01*
X144123720Y-102163793D01*
X144096141Y-102112197D01*
X144059027Y-102066973D01*
X144013803Y-102029859D01*
X143962207Y-102002280D01*
X143906222Y-101985297D01*
X143848000Y-101979563D01*
X143121200Y-101979563D01*
X143121200Y-99681425D01*
X143123005Y-99663100D01*
X143115799Y-99589940D01*
X143094459Y-99519592D01*
X143090767Y-99512685D01*
X143059805Y-99454758D01*
X143013169Y-99397931D01*
X142998929Y-99386245D01*
X136830684Y-93218000D01*
X141344241Y-93218000D01*
X141371214Y-93491860D01*
X141451096Y-93755195D01*
X141580817Y-93997887D01*
X141755392Y-94210608D01*
X141968113Y-94385183D01*
X142210805Y-94514904D01*
X142374742Y-94564634D01*
X142380201Y-94620059D01*
X142401542Y-94690408D01*
X142427836Y-94739601D01*
X142436196Y-94755242D01*
X142482832Y-94812069D01*
X142497074Y-94823757D01*
X152766153Y-105092837D01*
X152715691Y-105143299D01*
X152831522Y-105259130D01*
X152573277Y-105347623D01*
X152438403Y-105626976D01*
X152360619Y-105927275D01*
X152342916Y-106236977D01*
X152385973Y-106544184D01*
X152488135Y-106837086D01*
X152573277Y-106996377D01*
X152831524Y-107084871D01*
X153744395Y-106172000D01*
X153730253Y-106157858D01*
X153909858Y-105978253D01*
X153924000Y-105992395D01*
X154408206Y-105508189D01*
X154587811Y-105687794D01*
X154103605Y-106172000D01*
X155016476Y-107084871D01*
X155133266Y-107044850D01*
X155680148Y-107591733D01*
X155691831Y-107605969D01*
X155748658Y-107652605D01*
X155790136Y-107674775D01*
X155675586Y-107751315D01*
X155503315Y-107923586D01*
X155367962Y-108126156D01*
X155274730Y-108351239D01*
X155227200Y-108590186D01*
X155227200Y-108833814D01*
X155274730Y-109072761D01*
X155367962Y-109297844D01*
X155503315Y-109500414D01*
X155675586Y-109672685D01*
X155878156Y-109808038D01*
X156103239Y-109901270D01*
X156342186Y-109948800D01*
X156585814Y-109948800D01*
X156824761Y-109901270D01*
X157049844Y-109808038D01*
X157252414Y-109672685D01*
X157424685Y-109500414D01*
X157560038Y-109297844D01*
X157653270Y-109072761D01*
X157700800Y-108833814D01*
X157700800Y-108809484D01*
X158175901Y-109284585D01*
X158175900Y-110725674D01*
X158174095Y-110744000D01*
X158181301Y-110817160D01*
X158202641Y-110887508D01*
X158237295Y-110952342D01*
X158283931Y-111009169D01*
X158340758Y-111055805D01*
X158405592Y-111090459D01*
X158475940Y-111111799D01*
X158479563Y-111112156D01*
X158479563Y-112494000D01*
X158485297Y-112552222D01*
X158502280Y-112608207D01*
X158529859Y-112659803D01*
X158566973Y-112705027D01*
X158612197Y-112742141D01*
X158663793Y-112769720D01*
X158719778Y-112786703D01*
X158778000Y-112792437D01*
X162278000Y-112792437D01*
X162336222Y-112786703D01*
X162392207Y-112769720D01*
X162443803Y-112742141D01*
X162489027Y-112705027D01*
X162526141Y-112659803D01*
X162553720Y-112608207D01*
X162570703Y-112552222D01*
X162576437Y-112494000D01*
X164389928Y-112494000D01*
X164402188Y-112618482D01*
X164438498Y-112738180D01*
X164497463Y-112848494D01*
X164576815Y-112945185D01*
X164673506Y-113024537D01*
X164783820Y-113083502D01*
X164903518Y-113119812D01*
X165028000Y-113132072D01*
X166242250Y-113129000D01*
X166401000Y-112970250D01*
X166401000Y-110871000D01*
X166655000Y-110871000D01*
X166655000Y-112970250D01*
X166813750Y-113129000D01*
X168028000Y-113132072D01*
X168152482Y-113119812D01*
X168272180Y-113083502D01*
X168382494Y-113024537D01*
X168479185Y-112945185D01*
X168558537Y-112848494D01*
X168617502Y-112738180D01*
X168653812Y-112618482D01*
X168666072Y-112494000D01*
X168663000Y-111029750D01*
X168504250Y-110871000D01*
X166655000Y-110871000D01*
X166401000Y-110871000D01*
X164551750Y-110871000D01*
X164393000Y-111029750D01*
X164389928Y-112494000D01*
X162576437Y-112494000D01*
X162576437Y-108994000D01*
X164389928Y-108994000D01*
X164393000Y-110458250D01*
X164551750Y-110617000D01*
X166401000Y-110617000D01*
X166401000Y-108517750D01*
X166655000Y-108517750D01*
X166655000Y-110617000D01*
X168504250Y-110617000D01*
X168663000Y-110458250D01*
X168666072Y-108994000D01*
X168653812Y-108869518D01*
X168617502Y-108749820D01*
X168558537Y-108639506D01*
X168479185Y-108542815D01*
X168382494Y-108463463D01*
X168272180Y-108404498D01*
X168152482Y-108368188D01*
X168028000Y-108355928D01*
X166813750Y-108359000D01*
X166655000Y-108517750D01*
X166401000Y-108517750D01*
X166242250Y-108359000D01*
X165028000Y-108355928D01*
X164903518Y-108368188D01*
X164783820Y-108404498D01*
X164673506Y-108463463D01*
X164576815Y-108542815D01*
X164497463Y-108639506D01*
X164438498Y-108749820D01*
X164402188Y-108869518D01*
X164389928Y-108994000D01*
X162576437Y-108994000D01*
X162570703Y-108935778D01*
X162553720Y-108879793D01*
X162526141Y-108828197D01*
X162489027Y-108782973D01*
X162443803Y-108745859D01*
X162392207Y-108718280D01*
X162336222Y-108701297D01*
X162278000Y-108695563D01*
X158778000Y-108695563D01*
X158719778Y-108701297D01*
X158664845Y-108717961D01*
X157148800Y-107201917D01*
X157252414Y-107132685D01*
X157424685Y-106960414D01*
X157560038Y-106757844D01*
X157653270Y-106532761D01*
X157700800Y-106293814D01*
X157700800Y-106050186D01*
X157653270Y-105811239D01*
X157560038Y-105586156D01*
X157424685Y-105383586D01*
X157252414Y-105211315D01*
X157189086Y-105169000D01*
X161479563Y-105169000D01*
X161479563Y-106919000D01*
X161502110Y-107147926D01*
X161568886Y-107368055D01*
X161677323Y-107570927D01*
X161823255Y-107748745D01*
X162001073Y-107894677D01*
X162203945Y-108003114D01*
X162424074Y-108069890D01*
X162653000Y-108092437D01*
X164403000Y-108092437D01*
X164631926Y-108069890D01*
X164852055Y-108003114D01*
X165054927Y-107894677D01*
X165232745Y-107748745D01*
X165378677Y-107570927D01*
X165487114Y-107368055D01*
X165553890Y-107147926D01*
X165576437Y-106919000D01*
X165576437Y-105169000D01*
X165553890Y-104940074D01*
X165487114Y-104719945D01*
X165378677Y-104517073D01*
X165232745Y-104339255D01*
X165054927Y-104193323D01*
X164852055Y-104084886D01*
X164631926Y-104018110D01*
X164403000Y-103995563D01*
X162653000Y-103995563D01*
X162424074Y-104018110D01*
X162203945Y-104084886D01*
X162001073Y-104193323D01*
X161823255Y-104339255D01*
X161677323Y-104517073D01*
X161568886Y-104719945D01*
X161502110Y-104940074D01*
X161479563Y-105169000D01*
X157189086Y-105169000D01*
X157049844Y-105075962D01*
X156824761Y-104982730D01*
X156585814Y-104935200D01*
X156342186Y-104935200D01*
X156103239Y-104982730D01*
X155878156Y-105075962D01*
X155675586Y-105211315D01*
X155503315Y-105383586D01*
X155426775Y-105498136D01*
X155404605Y-105456658D01*
X155357969Y-105399831D01*
X155343727Y-105388143D01*
X154614016Y-104658433D01*
X154712414Y-104592685D01*
X154884685Y-104420414D01*
X155020038Y-104217844D01*
X155113270Y-103992761D01*
X155160800Y-103753814D01*
X155160800Y-103510186D01*
X155227200Y-103510186D01*
X155227200Y-103753814D01*
X155274730Y-103992761D01*
X155367962Y-104217844D01*
X155503315Y-104420414D01*
X155675586Y-104592685D01*
X155878156Y-104728038D01*
X156103239Y-104821270D01*
X156342186Y-104868800D01*
X156585814Y-104868800D01*
X156824761Y-104821270D01*
X157049844Y-104728038D01*
X157252414Y-104592685D01*
X157424685Y-104420414D01*
X157560038Y-104217844D01*
X157653270Y-103992761D01*
X157700800Y-103753814D01*
X157700800Y-103510186D01*
X157653270Y-103271239D01*
X157560038Y-103046156D01*
X157424685Y-102843586D01*
X157252414Y-102671315D01*
X157049844Y-102535962D01*
X156824761Y-102442730D01*
X156585814Y-102395200D01*
X156342186Y-102395200D01*
X156103239Y-102442730D01*
X155878156Y-102535962D01*
X155675586Y-102671315D01*
X155503315Y-102843586D01*
X155367962Y-103046156D01*
X155274730Y-103271239D01*
X155227200Y-103510186D01*
X155160800Y-103510186D01*
X155113270Y-103271239D01*
X155025190Y-103058594D01*
X155444927Y-102638857D01*
X155459169Y-102627169D01*
X155505805Y-102570342D01*
X155540459Y-102505508D01*
X155561799Y-102435160D01*
X155567200Y-102380326D01*
X155569005Y-102362001D01*
X155567200Y-102343675D01*
X155567200Y-101944299D01*
X155675586Y-102052685D01*
X155878156Y-102188038D01*
X156103239Y-102281270D01*
X156342186Y-102328800D01*
X156585814Y-102328800D01*
X156824761Y-102281270D01*
X157049844Y-102188038D01*
X157252414Y-102052685D01*
X157424685Y-101880414D01*
X157560038Y-101677844D01*
X157653270Y-101452761D01*
X157700800Y-101213814D01*
X157700800Y-100970186D01*
X157653270Y-100731239D01*
X157560038Y-100506156D01*
X157424685Y-100303586D01*
X157287391Y-100166292D01*
X158748429Y-98705254D01*
X158753633Y-98729818D01*
X158864285Y-98989646D01*
X159023500Y-99222895D01*
X159225161Y-99420601D01*
X159461517Y-99575166D01*
X159723486Y-99680650D01*
X160001000Y-99733000D01*
X160401000Y-99733000D01*
X160401000Y-98425000D01*
X160655000Y-98425000D01*
X160655000Y-99733000D01*
X161055000Y-99733000D01*
X161332514Y-99680650D01*
X161594483Y-99575166D01*
X161830839Y-99420601D01*
X162032500Y-99222895D01*
X162191715Y-98989646D01*
X162302367Y-98729818D01*
X162319904Y-98647039D01*
X162197915Y-98425000D01*
X160655000Y-98425000D01*
X160401000Y-98425000D01*
X160381000Y-98425000D01*
X160381000Y-98171000D01*
X160401000Y-98171000D01*
X160401000Y-98151000D01*
X160655000Y-98151000D01*
X160655000Y-98171000D01*
X162197915Y-98171000D01*
X162319904Y-97948961D01*
X162302367Y-97866182D01*
X162191715Y-97606354D01*
X162032500Y-97373105D01*
X161830839Y-97175399D01*
X161635395Y-97047588D01*
X166970027Y-91712957D01*
X166984269Y-91701269D01*
X167030905Y-91644442D01*
X167065559Y-91579608D01*
X167075893Y-91545542D01*
X167135591Y-91594535D01*
X167326165Y-91696399D01*
X167532951Y-91759126D01*
X167694118Y-91775000D01*
X168601882Y-91775000D01*
X168763049Y-91759126D01*
X168969835Y-91696399D01*
X169160409Y-91594535D01*
X169203701Y-91559007D01*
X169203700Y-92336993D01*
X169160409Y-92301465D01*
X168969835Y-92199601D01*
X168763049Y-92136874D01*
X168601882Y-92121000D01*
X167694118Y-92121000D01*
X167532951Y-92136874D01*
X167326165Y-92199601D01*
X167135591Y-92301465D01*
X166968551Y-92438551D01*
X166831465Y-92605591D01*
X166729601Y-92796165D01*
X166666874Y-93002951D01*
X166645693Y-93218000D01*
X166666874Y-93433049D01*
X166729601Y-93639835D01*
X166831465Y-93830409D01*
X166968551Y-93997449D01*
X167135591Y-94134535D01*
X167326165Y-94236399D01*
X167532951Y-94299126D01*
X167694118Y-94315000D01*
X168601882Y-94315000D01*
X168763049Y-94299126D01*
X168969835Y-94236399D01*
X169160409Y-94134535D01*
X169203700Y-94099007D01*
X169203700Y-94876993D01*
X169160409Y-94841465D01*
X168969835Y-94739601D01*
X168763049Y-94676874D01*
X168601882Y-94661000D01*
X167694118Y-94661000D01*
X167532951Y-94676874D01*
X167326165Y-94739601D01*
X167135591Y-94841465D01*
X166968551Y-94978551D01*
X166831465Y-95145591D01*
X166729601Y-95336165D01*
X166666874Y-95542951D01*
X166645693Y-95758000D01*
X166666874Y-95973049D01*
X166729601Y-96179835D01*
X166831465Y-96370409D01*
X166968551Y-96537449D01*
X167135591Y-96674535D01*
X167326165Y-96776399D01*
X167532951Y-96839126D01*
X167694118Y-96855000D01*
X168601882Y-96855000D01*
X168763049Y-96839126D01*
X168969835Y-96776399D01*
X169160409Y-96674535D01*
X169203700Y-96639007D01*
X169203700Y-97416993D01*
X169160409Y-97381465D01*
X168969835Y-97279601D01*
X168763049Y-97216874D01*
X168601882Y-97201000D01*
X167694118Y-97201000D01*
X167532951Y-97216874D01*
X167326165Y-97279601D01*
X167135591Y-97381465D01*
X166968551Y-97518551D01*
X166831465Y-97685591D01*
X166729601Y-97876165D01*
X166666874Y-98082951D01*
X166645693Y-98298000D01*
X166666874Y-98513049D01*
X166729601Y-98719835D01*
X166831465Y-98910409D01*
X166968551Y-99077449D01*
X167135591Y-99214535D01*
X167326165Y-99316399D01*
X167532951Y-99379126D01*
X167694118Y-99395000D01*
X168601882Y-99395000D01*
X168763049Y-99379126D01*
X168969835Y-99316399D01*
X169160409Y-99214535D01*
X169327449Y-99077449D01*
X169464535Y-98910409D01*
X169566399Y-98719835D01*
X169580719Y-98672629D01*
X169595225Y-98671200D01*
X169595226Y-98671200D01*
X169650060Y-98665799D01*
X169720408Y-98644459D01*
X169785242Y-98609805D01*
X169842069Y-98563169D01*
X169888705Y-98506342D01*
X169923359Y-98441508D01*
X169944699Y-98371160D01*
X169951905Y-98298000D01*
X169950100Y-98279674D01*
X169950100Y-85189025D01*
X169951905Y-85170700D01*
X169944699Y-85097540D01*
X169923359Y-85027192D01*
X169888705Y-84962358D01*
X169842069Y-84905531D01*
X169827827Y-84893843D01*
X169011061Y-84077078D01*
X168999369Y-84062831D01*
X168997732Y-84061488D01*
X169160409Y-83974535D01*
X169327449Y-83837449D01*
X169464535Y-83670409D01*
X169566399Y-83479835D01*
X169629126Y-83273049D01*
X169650307Y-83058000D01*
X169629126Y-82842951D01*
X169566399Y-82636165D01*
X169464535Y-82445591D01*
X169327449Y-82278551D01*
X169160409Y-82141465D01*
X168969835Y-82039601D01*
X168763049Y-81976874D01*
X168601882Y-81961000D01*
X167694118Y-81961000D01*
X167532951Y-81976874D01*
X167326165Y-82039601D01*
X167135591Y-82141465D01*
X166968551Y-82278551D01*
X166831465Y-82445591D01*
X166729601Y-82636165D01*
X166666874Y-82842951D01*
X166645693Y-83058000D01*
X166666874Y-83273049D01*
X166729601Y-83479835D01*
X166831465Y-83670409D01*
X166968551Y-83837449D01*
X167111544Y-83954800D01*
X166325584Y-83954800D01*
X162085192Y-79714408D01*
X162145843Y-79567983D01*
X162188000Y-79356045D01*
X162188000Y-79139955D01*
X162764000Y-79139955D01*
X162764000Y-79356045D01*
X162806157Y-79567983D01*
X162888851Y-79767624D01*
X163008904Y-79947297D01*
X163161703Y-80100096D01*
X163341376Y-80220149D01*
X163541017Y-80302843D01*
X163752955Y-80345000D01*
X163969045Y-80345000D01*
X164180983Y-80302843D01*
X164380624Y-80220149D01*
X164560297Y-80100096D01*
X164713096Y-79947297D01*
X164833149Y-79767624D01*
X164915843Y-79567983D01*
X164958000Y-79356045D01*
X164958000Y-79139955D01*
X164915843Y-78928017D01*
X164833149Y-78728376D01*
X164713096Y-78548703D01*
X164560297Y-78395904D01*
X164380624Y-78275851D01*
X164180983Y-78193157D01*
X163969045Y-78151000D01*
X163752955Y-78151000D01*
X163541017Y-78193157D01*
X163341376Y-78275851D01*
X163161703Y-78395904D01*
X163008904Y-78548703D01*
X162888851Y-78728376D01*
X162806157Y-78928017D01*
X162764000Y-79139955D01*
X162188000Y-79139955D01*
X162145843Y-78928017D01*
X162063149Y-78728376D01*
X161943096Y-78548703D01*
X161790297Y-78395904D01*
X161610624Y-78275851D01*
X161410983Y-78193157D01*
X161199045Y-78151000D01*
X160982955Y-78151000D01*
X160771017Y-78193157D01*
X160571376Y-78275851D01*
X160391703Y-78395904D01*
X160238904Y-78548703D01*
X160118851Y-78728376D01*
X160036157Y-78928017D01*
X159994000Y-79139955D01*
X159994000Y-79356045D01*
X160036157Y-79567983D01*
X160097881Y-79716998D01*
X159392465Y-79011582D01*
X159375843Y-78928017D01*
X159293149Y-78728376D01*
X159173096Y-78548703D01*
X159020297Y-78395904D01*
X158840624Y-78275851D01*
X158640983Y-78193157D01*
X158429045Y-78151000D01*
X158212955Y-78151000D01*
X158001017Y-78193157D01*
X157801376Y-78275851D01*
X157621703Y-78395904D01*
X157468904Y-78548703D01*
X157348851Y-78728376D01*
X157266157Y-78928017D01*
X157224000Y-79139955D01*
X157224000Y-79356045D01*
X157266157Y-79567983D01*
X157348851Y-79767624D01*
X157468904Y-79947297D01*
X157621703Y-80100096D01*
X157801376Y-80220149D01*
X158001017Y-80302843D01*
X158212955Y-80345000D01*
X158429045Y-80345000D01*
X158640983Y-80302843D01*
X158840624Y-80220149D01*
X159020297Y-80100096D01*
X159173096Y-79947297D01*
X159212957Y-79887640D01*
X161284879Y-81959563D01*
X159328000Y-81959563D01*
X159269778Y-81965297D01*
X159213793Y-81982280D01*
X159162197Y-82009859D01*
X159116973Y-82046973D01*
X159079859Y-82092197D01*
X159052280Y-82143793D01*
X159035297Y-82199778D01*
X159034872Y-82204089D01*
X156545192Y-79714408D01*
X156605843Y-79567983D01*
X156648000Y-79356045D01*
X156648000Y-79139955D01*
X156605843Y-78928017D01*
X156523149Y-78728376D01*
X156403096Y-78548703D01*
X156250297Y-78395904D01*
X156070624Y-78275851D01*
X155870983Y-78193157D01*
X155659045Y-78151000D01*
X155442955Y-78151000D01*
X155231017Y-78193157D01*
X155031376Y-78275851D01*
X154851703Y-78395904D01*
X154698904Y-78548703D01*
X154578851Y-78728376D01*
X154496157Y-78928017D01*
X154454000Y-79139955D01*
X154454000Y-79356045D01*
X154496157Y-79567983D01*
X154578851Y-79767624D01*
X154698904Y-79947297D01*
X154851703Y-80100096D01*
X155031376Y-80220149D01*
X155231017Y-80302843D01*
X155442955Y-80345000D01*
X155659045Y-80345000D01*
X155870983Y-80302843D01*
X156017408Y-80242192D01*
X158725901Y-82950685D01*
X158725900Y-90659674D01*
X158724095Y-90678000D01*
X158731301Y-90751160D01*
X158752641Y-90821508D01*
X158787295Y-90886342D01*
X158824765Y-90932000D01*
X158833931Y-90943169D01*
X158890758Y-90989805D01*
X158955592Y-91024459D01*
X159025940Y-91045799D01*
X159095281Y-91052629D01*
X159109601Y-91099835D01*
X159211465Y-91290409D01*
X159348551Y-91457449D01*
X159515591Y-91594535D01*
X159706165Y-91696399D01*
X159912951Y-91759126D01*
X160074118Y-91775000D01*
X160981882Y-91775000D01*
X161143049Y-91759126D01*
X161349835Y-91696399D01*
X161540409Y-91594535D01*
X161583700Y-91559007D01*
X161583700Y-92336993D01*
X161540409Y-92301465D01*
X161349835Y-92199601D01*
X161143049Y-92136874D01*
X160981882Y-92121000D01*
X160074118Y-92121000D01*
X159912951Y-92136874D01*
X159706165Y-92199601D01*
X159515591Y-92301465D01*
X159348551Y-92438551D01*
X159211465Y-92605591D01*
X159109601Y-92796165D01*
X159095281Y-92843371D01*
X159080774Y-92844800D01*
X159025940Y-92850201D01*
X158955592Y-92871541D01*
X158890758Y-92906195D01*
X158833931Y-92952831D01*
X158787295Y-93009658D01*
X158752641Y-93074492D01*
X158731301Y-93144840D01*
X158724095Y-93218000D01*
X158725900Y-93236326D01*
X158725901Y-95762315D01*
X157037406Y-97450810D01*
X156824761Y-97362730D01*
X156585814Y-97315200D01*
X156342186Y-97315200D01*
X156103239Y-97362730D01*
X155878156Y-97455962D01*
X155675586Y-97591315D01*
X155503315Y-97763586D01*
X155367962Y-97966156D01*
X155274730Y-98191239D01*
X155227200Y-98430186D01*
X155227200Y-98673814D01*
X155274730Y-98912761D01*
X155367962Y-99137844D01*
X155503315Y-99340414D01*
X155675586Y-99512685D01*
X155790136Y-99589225D01*
X155748658Y-99611395D01*
X155691831Y-99658031D01*
X155680143Y-99672273D01*
X154950433Y-100401984D01*
X154884685Y-100303586D01*
X154712414Y-100131315D01*
X154509844Y-99995962D01*
X154284761Y-99902730D01*
X154045814Y-99855200D01*
X153802186Y-99855200D01*
X153563239Y-99902730D01*
X153338156Y-99995962D01*
X153135586Y-100131315D01*
X152963315Y-100303586D01*
X152827962Y-100506156D01*
X152734730Y-100731239D01*
X152687200Y-100970186D01*
X152687200Y-101213814D01*
X152734730Y-101452761D01*
X152827962Y-101677844D01*
X152963315Y-101880414D01*
X153135586Y-102052685D01*
X153338156Y-102188038D01*
X153563239Y-102281270D01*
X153802186Y-102328800D01*
X154045814Y-102328800D01*
X154284761Y-102281270D01*
X154509844Y-102188038D01*
X154712414Y-102052685D01*
X154820801Y-101944298D01*
X154820801Y-102207415D01*
X154497406Y-102530810D01*
X154284761Y-102442730D01*
X154045814Y-102395200D01*
X153802186Y-102395200D01*
X153563239Y-102442730D01*
X153338156Y-102535962D01*
X153135586Y-102671315D01*
X152963315Y-102843586D01*
X152827962Y-103046156D01*
X152734730Y-103271239D01*
X152687200Y-103510186D01*
X152687200Y-103753814D01*
X152734730Y-103992761D01*
X152743982Y-104015099D01*
X147159070Y-98430186D01*
X152687200Y-98430186D01*
X152687200Y-98673814D01*
X152734730Y-98912761D01*
X152827962Y-99137844D01*
X152963315Y-99340414D01*
X153135586Y-99512685D01*
X153338156Y-99648038D01*
X153563239Y-99741270D01*
X153802186Y-99788800D01*
X154045814Y-99788800D01*
X154284761Y-99741270D01*
X154509844Y-99648038D01*
X154712414Y-99512685D01*
X154884685Y-99340414D01*
X155020038Y-99137844D01*
X155113270Y-98912761D01*
X155160800Y-98673814D01*
X155160800Y-98430186D01*
X155113270Y-98191239D01*
X155020038Y-97966156D01*
X154884685Y-97763586D01*
X154712414Y-97591315D01*
X154509844Y-97455962D01*
X154284761Y-97362730D01*
X154045814Y-97315200D01*
X153802186Y-97315200D01*
X153563239Y-97362730D01*
X153338156Y-97455962D01*
X153135586Y-97591315D01*
X152963315Y-97763586D01*
X152827962Y-97966156D01*
X152734730Y-98191239D01*
X152687200Y-98430186D01*
X147159070Y-98430186D01*
X144619070Y-95890186D01*
X152687200Y-95890186D01*
X152687200Y-96133814D01*
X152734730Y-96372761D01*
X152827962Y-96597844D01*
X152963315Y-96800414D01*
X153135586Y-96972685D01*
X153338156Y-97108038D01*
X153563239Y-97201270D01*
X153802186Y-97248800D01*
X154045814Y-97248800D01*
X154284761Y-97201270D01*
X154509844Y-97108038D01*
X154712414Y-96972685D01*
X154884685Y-96800414D01*
X155020038Y-96597844D01*
X155113270Y-96372761D01*
X155160800Y-96133814D01*
X155160800Y-95890186D01*
X155227200Y-95890186D01*
X155227200Y-96133814D01*
X155274730Y-96372761D01*
X155367962Y-96597844D01*
X155503315Y-96800414D01*
X155675586Y-96972685D01*
X155878156Y-97108038D01*
X156103239Y-97201270D01*
X156342186Y-97248800D01*
X156585814Y-97248800D01*
X156824761Y-97201270D01*
X157049844Y-97108038D01*
X157252414Y-96972685D01*
X157424685Y-96800414D01*
X157560038Y-96597844D01*
X157653270Y-96372761D01*
X157700800Y-96133814D01*
X157700800Y-95890186D01*
X157653270Y-95651239D01*
X157560038Y-95426156D01*
X157424685Y-95223586D01*
X157252414Y-95051315D01*
X157049844Y-94915962D01*
X156824761Y-94822730D01*
X156585814Y-94775200D01*
X156342186Y-94775200D01*
X156103239Y-94822730D01*
X155878156Y-94915962D01*
X155675586Y-95051315D01*
X155503315Y-95223586D01*
X155367962Y-95426156D01*
X155274730Y-95651239D01*
X155227200Y-95890186D01*
X155160800Y-95890186D01*
X155113270Y-95651239D01*
X155020038Y-95426156D01*
X154884685Y-95223586D01*
X154712414Y-95051315D01*
X154509844Y-94915962D01*
X154284761Y-94822730D01*
X154045814Y-94775200D01*
X153802186Y-94775200D01*
X153563239Y-94822730D01*
X153338156Y-94915962D01*
X153135586Y-95051315D01*
X152963315Y-95223586D01*
X152827962Y-95426156D01*
X152734730Y-95651239D01*
X152687200Y-95890186D01*
X144619070Y-95890186D01*
X143253425Y-94524541D01*
X143285195Y-94514904D01*
X143527887Y-94385183D01*
X143740608Y-94210608D01*
X143915183Y-93997887D01*
X144044904Y-93755195D01*
X144124786Y-93491860D01*
X144138739Y-93350186D01*
X152687200Y-93350186D01*
X152687200Y-93593814D01*
X152734730Y-93832761D01*
X152827962Y-94057844D01*
X152963315Y-94260414D01*
X153135586Y-94432685D01*
X153338156Y-94568038D01*
X153563239Y-94661270D01*
X153802186Y-94708800D01*
X154045814Y-94708800D01*
X154284761Y-94661270D01*
X154509844Y-94568038D01*
X154712414Y-94432685D01*
X154884685Y-94260414D01*
X155020038Y-94057844D01*
X155113270Y-93832761D01*
X155160800Y-93593814D01*
X155160800Y-93350186D01*
X155227200Y-93350186D01*
X155227200Y-93593814D01*
X155274730Y-93832761D01*
X155367962Y-94057844D01*
X155503315Y-94260414D01*
X155675586Y-94432685D01*
X155878156Y-94568038D01*
X156103239Y-94661270D01*
X156342186Y-94708800D01*
X156585814Y-94708800D01*
X156824761Y-94661270D01*
X157049844Y-94568038D01*
X157252414Y-94432685D01*
X157424685Y-94260414D01*
X157560038Y-94057844D01*
X157653270Y-93832761D01*
X157700800Y-93593814D01*
X157700800Y-93350186D01*
X157653270Y-93111239D01*
X157560038Y-92886156D01*
X157424685Y-92683586D01*
X157252414Y-92511315D01*
X157069060Y-92388802D01*
X157129086Y-92367865D01*
X157288377Y-92282723D01*
X157376871Y-92024476D01*
X156464000Y-91111605D01*
X155551129Y-92024476D01*
X155639623Y-92282723D01*
X155859106Y-92388691D01*
X155675586Y-92511315D01*
X155503315Y-92683586D01*
X155367962Y-92886156D01*
X155274730Y-93111239D01*
X155227200Y-93350186D01*
X155160800Y-93350186D01*
X155113270Y-93111239D01*
X155020038Y-92886156D01*
X154884685Y-92683586D01*
X154712414Y-92511315D01*
X154509844Y-92375962D01*
X154284761Y-92282730D01*
X154045814Y-92235200D01*
X153802186Y-92235200D01*
X153563239Y-92282730D01*
X153338156Y-92375962D01*
X153135586Y-92511315D01*
X152963315Y-92683586D01*
X152827962Y-92886156D01*
X152734730Y-93111239D01*
X152687200Y-93350186D01*
X144138739Y-93350186D01*
X144151759Y-93218000D01*
X144124786Y-92944140D01*
X144044904Y-92680805D01*
X143915183Y-92438113D01*
X143740608Y-92225392D01*
X143527887Y-92050817D01*
X143285195Y-91921096D01*
X143021860Y-91841214D01*
X142816625Y-91821000D01*
X142679375Y-91821000D01*
X142474140Y-91841214D01*
X142210805Y-91921096D01*
X141968113Y-92050817D01*
X141755392Y-92225392D01*
X141580817Y-92438113D01*
X141451096Y-92680805D01*
X141371214Y-92944140D01*
X141344241Y-93218000D01*
X136830684Y-93218000D01*
X134422870Y-90810186D01*
X152687200Y-90810186D01*
X152687200Y-91053814D01*
X152734730Y-91292761D01*
X152827962Y-91517844D01*
X152963315Y-91720414D01*
X153135586Y-91892685D01*
X153338156Y-92028038D01*
X153563239Y-92121270D01*
X153802186Y-92168800D01*
X154045814Y-92168800D01*
X154284761Y-92121270D01*
X154509844Y-92028038D01*
X154712414Y-91892685D01*
X154884685Y-91720414D01*
X155007198Y-91537060D01*
X155028135Y-91597086D01*
X155113277Y-91756377D01*
X155371524Y-91844871D01*
X156284395Y-90932000D01*
X156643605Y-90932000D01*
X157556476Y-91844871D01*
X157814723Y-91756377D01*
X157949597Y-91477024D01*
X158027381Y-91176725D01*
X158045084Y-90867023D01*
X158002027Y-90559816D01*
X157899865Y-90266914D01*
X157814723Y-90107623D01*
X157556476Y-90019129D01*
X156643605Y-90932000D01*
X156284395Y-90932000D01*
X155371524Y-90019129D01*
X155113277Y-90107623D01*
X155007309Y-90327106D01*
X154884685Y-90143586D01*
X154712414Y-89971315D01*
X154515175Y-89839524D01*
X155551129Y-89839524D01*
X156464000Y-90752395D01*
X157376871Y-89839524D01*
X157288377Y-89581277D01*
X157009024Y-89446403D01*
X156708725Y-89368619D01*
X156399023Y-89350916D01*
X156091816Y-89393973D01*
X155798914Y-89496135D01*
X155639623Y-89581277D01*
X155551129Y-89839524D01*
X154515175Y-89839524D01*
X154509844Y-89835962D01*
X154284761Y-89742730D01*
X154045814Y-89695200D01*
X153802186Y-89695200D01*
X153563239Y-89742730D01*
X153338156Y-89835962D01*
X153135586Y-89971315D01*
X152963315Y-90143586D01*
X152827962Y-90346156D01*
X152734730Y-90571239D01*
X152687200Y-90810186D01*
X134422870Y-90810186D01*
X126419761Y-82807078D01*
X126408069Y-82792831D01*
X126351242Y-82746195D01*
X126286408Y-82711541D01*
X126216060Y-82690201D01*
X126161226Y-82684800D01*
X126161225Y-82684800D01*
X126146719Y-82683371D01*
X126132399Y-82636165D01*
X126030535Y-82445591D01*
X125893449Y-82278551D01*
X125726409Y-82141465D01*
X125535835Y-82039601D01*
X125329049Y-81976874D01*
X125167882Y-81961000D01*
X124260118Y-81961000D01*
X124117763Y-81975021D01*
X125850592Y-80242192D01*
X125997017Y-80302843D01*
X126208955Y-80345000D01*
X126425045Y-80345000D01*
X126636983Y-80302843D01*
X126836624Y-80220149D01*
X127016297Y-80100096D01*
X127169096Y-79947297D01*
X127289149Y-79767624D01*
X127371843Y-79567983D01*
X127414000Y-79356045D01*
X127414000Y-79139955D01*
X127990000Y-79139955D01*
X127990000Y-79356045D01*
X128032157Y-79567983D01*
X128114851Y-79767624D01*
X128234904Y-79947297D01*
X128387703Y-80100096D01*
X128567376Y-80220149D01*
X128767017Y-80302843D01*
X128978955Y-80345000D01*
X129195045Y-80345000D01*
X129406983Y-80302843D01*
X129606624Y-80220149D01*
X129786297Y-80100096D01*
X129939096Y-79947297D01*
X130059149Y-79767624D01*
X130141843Y-79567983D01*
X130184000Y-79356045D01*
X130184000Y-79139955D01*
X130760000Y-79139955D01*
X130760000Y-79356045D01*
X130802157Y-79567983D01*
X130884851Y-79767624D01*
X131004904Y-79947297D01*
X131157703Y-80100096D01*
X131337376Y-80220149D01*
X131537017Y-80302843D01*
X131748955Y-80345000D01*
X131965045Y-80345000D01*
X132176983Y-80302843D01*
X132376624Y-80220149D01*
X132556297Y-80100096D01*
X132709096Y-79947297D01*
X132829149Y-79767624D01*
X132911843Y-79567983D01*
X132954000Y-79356045D01*
X132954000Y-79139955D01*
X132911843Y-78928017D01*
X132829149Y-78728376D01*
X132709096Y-78548703D01*
X132608393Y-78448000D01*
X151682563Y-78448000D01*
X151682563Y-80048000D01*
X151688297Y-80106222D01*
X151705280Y-80162207D01*
X151732859Y-80213803D01*
X151769973Y-80259027D01*
X151815197Y-80296141D01*
X151866793Y-80323720D01*
X151922778Y-80340703D01*
X151981000Y-80346437D01*
X153581000Y-80346437D01*
X153639222Y-80340703D01*
X153695207Y-80323720D01*
X153746803Y-80296141D01*
X153792027Y-80259027D01*
X153829141Y-80213803D01*
X153856720Y-80162207D01*
X153873703Y-80106222D01*
X153879437Y-80048000D01*
X153879437Y-78448000D01*
X153873703Y-78389778D01*
X153856720Y-78333793D01*
X153829141Y-78282197D01*
X153792027Y-78236973D01*
X153746803Y-78199859D01*
X153695207Y-78172280D01*
X153639222Y-78155297D01*
X153581000Y-78149563D01*
X151981000Y-78149563D01*
X151922778Y-78155297D01*
X151866793Y-78172280D01*
X151815197Y-78199859D01*
X151769973Y-78236973D01*
X151732859Y-78282197D01*
X151705280Y-78333793D01*
X151688297Y-78389778D01*
X151682563Y-78448000D01*
X132608393Y-78448000D01*
X132556297Y-78395904D01*
X132376624Y-78275851D01*
X132176983Y-78193157D01*
X131965045Y-78151000D01*
X131748955Y-78151000D01*
X131537017Y-78193157D01*
X131337376Y-78275851D01*
X131157703Y-78395904D01*
X131004904Y-78548703D01*
X130884851Y-78728376D01*
X130802157Y-78928017D01*
X130760000Y-79139955D01*
X130184000Y-79139955D01*
X130141843Y-78928017D01*
X130059149Y-78728376D01*
X129939096Y-78548703D01*
X129786297Y-78395904D01*
X129606624Y-78275851D01*
X129406983Y-78193157D01*
X129195045Y-78151000D01*
X128978955Y-78151000D01*
X128767017Y-78193157D01*
X128567376Y-78275851D01*
X128387703Y-78395904D01*
X128234904Y-78548703D01*
X128114851Y-78728376D01*
X128032157Y-78928017D01*
X127990000Y-79139955D01*
X127414000Y-79139955D01*
X127371843Y-78928017D01*
X127289149Y-78728376D01*
X127169096Y-78548703D01*
X127016297Y-78395904D01*
X126836624Y-78275851D01*
X126636983Y-78193157D01*
X126425045Y-78151000D01*
X126208955Y-78151000D01*
X125997017Y-78193157D01*
X125797376Y-78275851D01*
X125617703Y-78395904D01*
X125464904Y-78548703D01*
X125344851Y-78728376D01*
X125262157Y-78928017D01*
X125220000Y-79139955D01*
X125220000Y-79356045D01*
X125262157Y-79567983D01*
X125322808Y-79714408D01*
X123902103Y-81135113D01*
X123914799Y-81093260D01*
X123920200Y-81038426D01*
X123920200Y-81038425D01*
X123922005Y-81020100D01*
X123920200Y-81001775D01*
X123920200Y-80280800D01*
X124066624Y-80220149D01*
X124246297Y-80100096D01*
X124399096Y-79947297D01*
X124519149Y-79767624D01*
X124601843Y-79567983D01*
X124644000Y-79356045D01*
X124644000Y-79139955D01*
X124601843Y-78928017D01*
X124519149Y-78728376D01*
X124399096Y-78548703D01*
X124246297Y-78395904D01*
X124066624Y-78275851D01*
X123866983Y-78193157D01*
X123655045Y-78151000D01*
X123438955Y-78151000D01*
X123227017Y-78193157D01*
X123027376Y-78275851D01*
X122847703Y-78395904D01*
X122694904Y-78548703D01*
X122574851Y-78728376D01*
X122492157Y-78928017D01*
X122450000Y-79139955D01*
X122450000Y-79356045D01*
X122492157Y-79567983D01*
X122574851Y-79767624D01*
X122694904Y-79947297D01*
X122847703Y-80100096D01*
X123027376Y-80220149D01*
X123173800Y-80280800D01*
X123173800Y-80865516D01*
X118896100Y-85143217D01*
X118896100Y-82685583D01*
X121027927Y-80553757D01*
X121042169Y-80542069D01*
X121088805Y-80485242D01*
X121123459Y-80420408D01*
X121144799Y-80350060D01*
X121145156Y-80346437D01*
X121577000Y-80346437D01*
X121635222Y-80340703D01*
X121691207Y-80323720D01*
X121742803Y-80296141D01*
X121788027Y-80259027D01*
X121825141Y-80213803D01*
X121852720Y-80162207D01*
X121869703Y-80106222D01*
X121875437Y-80048000D01*
X121875437Y-78448000D01*
X121869703Y-78389778D01*
X121852720Y-78333793D01*
X121825141Y-78282197D01*
X121788027Y-78236973D01*
X121742803Y-78199859D01*
X121691207Y-78172280D01*
X121635222Y-78155297D01*
X121577000Y-78149563D01*
X119977000Y-78149563D01*
X119918778Y-78155297D01*
X119862793Y-78172280D01*
X119811197Y-78199859D01*
X119765973Y-78236973D01*
X119728859Y-78282197D01*
X119701280Y-78333793D01*
X119684297Y-78389778D01*
X119678563Y-78448000D01*
X119678563Y-80048000D01*
X119684297Y-80106222D01*
X119701280Y-80162207D01*
X119728859Y-80213803D01*
X119765973Y-80259027D01*
X119811197Y-80296141D01*
X119862793Y-80323720D01*
X119918778Y-80340703D01*
X119977000Y-80346437D01*
X120179679Y-80346437D01*
X118490811Y-82035306D01*
X118459803Y-82009859D01*
X118408207Y-81982280D01*
X118352222Y-81965297D01*
X118294000Y-81959563D01*
X115894000Y-81959563D01*
X115835778Y-81965297D01*
X115779793Y-81982280D01*
X115728197Y-82009859D01*
X115682973Y-82046973D01*
X115645859Y-82092197D01*
X115618280Y-82143793D01*
X115601297Y-82199778D01*
X115595563Y-82258000D01*
X115595563Y-83858000D01*
X115601297Y-83916222D01*
X115618280Y-83972207D01*
X115645859Y-84023803D01*
X115682973Y-84069027D01*
X115728197Y-84106141D01*
X115779793Y-84133720D01*
X115835778Y-84150703D01*
X115894000Y-84156437D01*
X118149700Y-84156437D01*
X118149700Y-84716993D01*
X118106409Y-84681465D01*
X117915835Y-84579601D01*
X117709049Y-84516874D01*
X117547882Y-84501000D01*
X116640118Y-84501000D01*
X116478951Y-84516874D01*
X116272165Y-84579601D01*
X116081591Y-84681465D01*
X115914551Y-84818551D01*
X115777465Y-84985591D01*
X115675601Y-85176165D01*
X115612874Y-85382951D01*
X115591693Y-85598000D01*
X115612874Y-85813049D01*
X115675601Y-86019835D01*
X115777465Y-86210409D01*
X115914551Y-86377449D01*
X116081591Y-86514535D01*
X116225428Y-86591418D01*
X116208231Y-86605531D01*
X116196543Y-86619773D01*
X115414173Y-87402144D01*
X115399932Y-87413831D01*
X115358590Y-87464207D01*
X115353295Y-87470659D01*
X115318642Y-87535492D01*
X115297301Y-87605841D01*
X115290095Y-87679000D01*
X115155000Y-87679000D01*
X115155000Y-77105972D01*
X115191142Y-76737371D01*
X115293261Y-76399135D01*
X115345995Y-76299955D01*
X121065000Y-76299955D01*
X121065000Y-76516045D01*
X121107157Y-76727983D01*
X121189851Y-76927624D01*
X121309904Y-77107297D01*
X121462703Y-77260096D01*
X121642376Y-77380149D01*
X121842017Y-77462843D01*
X122053955Y-77505000D01*
X122270045Y-77505000D01*
X122481983Y-77462843D01*
X122681624Y-77380149D01*
X122861297Y-77260096D01*
X123014096Y-77107297D01*
X123134149Y-76927624D01*
X123216843Y-76727983D01*
X123259000Y-76516045D01*
X123259000Y-76299955D01*
X123835000Y-76299955D01*
X123835000Y-76516045D01*
X123877157Y-76727983D01*
X123959851Y-76927624D01*
X124079904Y-77107297D01*
X124232703Y-77260096D01*
X124412376Y-77380149D01*
X124612017Y-77462843D01*
X124823955Y-77505000D01*
X125040045Y-77505000D01*
X125251983Y-77462843D01*
X125402004Y-77400702D01*
X126888903Y-77400702D01*
X126960486Y-77644671D01*
X127215996Y-77765571D01*
X127490184Y-77834300D01*
X127772512Y-77848217D01*
X128052130Y-77806787D01*
X128318292Y-77711603D01*
X128443514Y-77644671D01*
X128515097Y-77400702D01*
X127702000Y-76587605D01*
X126888903Y-77400702D01*
X125402004Y-77400702D01*
X125451624Y-77380149D01*
X125631297Y-77260096D01*
X125784096Y-77107297D01*
X125904149Y-76927624D01*
X125986843Y-76727983D01*
X126029000Y-76516045D01*
X126029000Y-76478512D01*
X126261783Y-76478512D01*
X126303213Y-76758130D01*
X126398397Y-77024292D01*
X126465329Y-77149514D01*
X126709298Y-77221097D01*
X127522395Y-76408000D01*
X127881605Y-76408000D01*
X128694702Y-77221097D01*
X128938671Y-77149514D01*
X129059571Y-76894004D01*
X129128300Y-76619816D01*
X129142217Y-76337488D01*
X129136656Y-76299955D01*
X129375000Y-76299955D01*
X129375000Y-76516045D01*
X129417157Y-76727983D01*
X129499851Y-76927624D01*
X129619904Y-77107297D01*
X129772703Y-77260096D01*
X129952376Y-77380149D01*
X130152017Y-77462843D01*
X130363955Y-77505000D01*
X130580045Y-77505000D01*
X130791983Y-77462843D01*
X130991624Y-77380149D01*
X131171297Y-77260096D01*
X131324096Y-77107297D01*
X131444149Y-76927624D01*
X131526843Y-76727983D01*
X131569000Y-76516045D01*
X131569000Y-76299955D01*
X153069000Y-76299955D01*
X153069000Y-76516045D01*
X153111157Y-76727983D01*
X153193851Y-76927624D01*
X153313904Y-77107297D01*
X153466703Y-77260096D01*
X153646376Y-77380149D01*
X153846017Y-77462843D01*
X154057955Y-77505000D01*
X154274045Y-77505000D01*
X154485983Y-77462843D01*
X154685624Y-77380149D01*
X154865297Y-77260096D01*
X155018096Y-77107297D01*
X155138149Y-76927624D01*
X155220843Y-76727983D01*
X155263000Y-76516045D01*
X155263000Y-76299955D01*
X155839000Y-76299955D01*
X155839000Y-76516045D01*
X155881157Y-76727983D01*
X155963851Y-76927624D01*
X156083904Y-77107297D01*
X156236703Y-77260096D01*
X156416376Y-77380149D01*
X156616017Y-77462843D01*
X156827955Y-77505000D01*
X157044045Y-77505000D01*
X157255983Y-77462843D01*
X157406004Y-77400702D01*
X158892903Y-77400702D01*
X158964486Y-77644671D01*
X159219996Y-77765571D01*
X159494184Y-77834300D01*
X159776512Y-77848217D01*
X160056130Y-77806787D01*
X160322292Y-77711603D01*
X160447514Y-77644671D01*
X160519097Y-77400702D01*
X159706000Y-76587605D01*
X158892903Y-77400702D01*
X157406004Y-77400702D01*
X157455624Y-77380149D01*
X157635297Y-77260096D01*
X157788096Y-77107297D01*
X157908149Y-76927624D01*
X157990843Y-76727983D01*
X158033000Y-76516045D01*
X158033000Y-76478512D01*
X158265783Y-76478512D01*
X158307213Y-76758130D01*
X158402397Y-77024292D01*
X158469329Y-77149514D01*
X158713298Y-77221097D01*
X159526395Y-76408000D01*
X159885605Y-76408000D01*
X160698702Y-77221097D01*
X160942671Y-77149514D01*
X161063571Y-76894004D01*
X161132300Y-76619816D01*
X161146217Y-76337488D01*
X161140656Y-76299955D01*
X161379000Y-76299955D01*
X161379000Y-76516045D01*
X161421157Y-76727983D01*
X161503851Y-76927624D01*
X161623904Y-77107297D01*
X161776703Y-77260096D01*
X161956376Y-77380149D01*
X162156017Y-77462843D01*
X162367955Y-77505000D01*
X162584045Y-77505000D01*
X162795983Y-77462843D01*
X162995624Y-77380149D01*
X163175297Y-77260096D01*
X163328096Y-77107297D01*
X163448149Y-76927624D01*
X163530843Y-76727983D01*
X163573000Y-76516045D01*
X163573000Y-76299955D01*
X163530843Y-76088017D01*
X163448149Y-75888376D01*
X163328096Y-75708703D01*
X163175297Y-75555904D01*
X162995624Y-75435851D01*
X162795983Y-75353157D01*
X162584045Y-75311000D01*
X162367955Y-75311000D01*
X162156017Y-75353157D01*
X161956376Y-75435851D01*
X161776703Y-75555904D01*
X161623904Y-75708703D01*
X161503851Y-75888376D01*
X161421157Y-76088017D01*
X161379000Y-76299955D01*
X161140656Y-76299955D01*
X161104787Y-76057870D01*
X161009603Y-75791708D01*
X160942671Y-75666486D01*
X160698702Y-75594903D01*
X159885605Y-76408000D01*
X159526395Y-76408000D01*
X158713298Y-75594903D01*
X158469329Y-75666486D01*
X158348429Y-75921996D01*
X158279700Y-76196184D01*
X158265783Y-76478512D01*
X158033000Y-76478512D01*
X158033000Y-76299955D01*
X157990843Y-76088017D01*
X157908149Y-75888376D01*
X157788096Y-75708703D01*
X157635297Y-75555904D01*
X157455624Y-75435851D01*
X157255983Y-75353157D01*
X157044045Y-75311000D01*
X156827955Y-75311000D01*
X156616017Y-75353157D01*
X156416376Y-75435851D01*
X156236703Y-75555904D01*
X156083904Y-75708703D01*
X155963851Y-75888376D01*
X155881157Y-76088017D01*
X155839000Y-76299955D01*
X155263000Y-76299955D01*
X155220843Y-76088017D01*
X155138149Y-75888376D01*
X155018096Y-75708703D01*
X154865297Y-75555904D01*
X154685624Y-75435851D01*
X154485983Y-75353157D01*
X154274045Y-75311000D01*
X154057955Y-75311000D01*
X153846017Y-75353157D01*
X153646376Y-75435851D01*
X153466703Y-75555904D01*
X153313904Y-75708703D01*
X153193851Y-75888376D01*
X153111157Y-76088017D01*
X153069000Y-76299955D01*
X131569000Y-76299955D01*
X131526843Y-76088017D01*
X131444149Y-75888376D01*
X131324096Y-75708703D01*
X131171297Y-75555904D01*
X130991624Y-75435851D01*
X130791983Y-75353157D01*
X130580045Y-75311000D01*
X130363955Y-75311000D01*
X130152017Y-75353157D01*
X129952376Y-75435851D01*
X129772703Y-75555904D01*
X129619904Y-75708703D01*
X129499851Y-75888376D01*
X129417157Y-76088017D01*
X129375000Y-76299955D01*
X129136656Y-76299955D01*
X129100787Y-76057870D01*
X129005603Y-75791708D01*
X128938671Y-75666486D01*
X128694702Y-75594903D01*
X127881605Y-76408000D01*
X127522395Y-76408000D01*
X126709298Y-75594903D01*
X126465329Y-75666486D01*
X126344429Y-75921996D01*
X126275700Y-76196184D01*
X126261783Y-76478512D01*
X126029000Y-76478512D01*
X126029000Y-76299955D01*
X125986843Y-76088017D01*
X125904149Y-75888376D01*
X125784096Y-75708703D01*
X125631297Y-75555904D01*
X125451624Y-75435851D01*
X125251983Y-75353157D01*
X125040045Y-75311000D01*
X124823955Y-75311000D01*
X124612017Y-75353157D01*
X124412376Y-75435851D01*
X124232703Y-75555904D01*
X124079904Y-75708703D01*
X123959851Y-75888376D01*
X123877157Y-76088017D01*
X123835000Y-76299955D01*
X123259000Y-76299955D01*
X123216843Y-76088017D01*
X123134149Y-75888376D01*
X123014096Y-75708703D01*
X122861297Y-75555904D01*
X122681624Y-75435851D01*
X122481983Y-75353157D01*
X122270045Y-75311000D01*
X122053955Y-75311000D01*
X121842017Y-75353157D01*
X121642376Y-75435851D01*
X121462703Y-75555904D01*
X121309904Y-75708703D01*
X121189851Y-75888376D01*
X121107157Y-76088017D01*
X121065000Y-76299955D01*
X115345995Y-76299955D01*
X115459132Y-76087177D01*
X115682440Y-75813375D01*
X115954672Y-75588164D01*
X116265467Y-75420118D01*
X116602983Y-75315639D01*
X116970615Y-75277000D01*
X126929481Y-75277000D01*
X126888903Y-75415298D01*
M02*
