G04 #@! TF.GenerationSoftware,KiCad,Pcbnew,(5.1.0-0)*
G04 #@! TF.CreationDate,2019-03-31T22:53:22-07:00*
G04 #@! TF.ProjectId,unijoysticle,756e696a-6f79-4737-9469-636c652e6b69,v0.0.1*
G04 #@! TF.SameCoordinates,Original*
G04 #@! TF.FileFunction,Copper,L1,Top*
G04 #@! TF.FilePolarity,Positive*
%FSLAX46Y46*%
G04 Gerber Fmt 4.6, Leading zero omitted, Abs format (unit mm)*
G04 Created by KiCad (PCBNEW (5.1.0-0)) date 2019-03-31 22:53:22*
%MOMM*%
%LPD*%
G04 APERTURE LIST*
%ADD10C,0.100000*%
%ADD11C,3.500000*%
%ADD12R,1.879600X1.879600*%
%ADD13C,1.879600*%
%ADD14O,2.200000X2.200000*%
%ADD15R,2.200000X2.200000*%
%ADD16O,1.400000X1.400000*%
%ADD17C,1.400000*%
%ADD18C,2.000000*%
%ADD19R,2.000000X2.000000*%
%ADD20C,2.100000*%
%ADD21C,1.750000*%
%ADD22R,1.600000X1.600000*%
%ADD23C,1.600000*%
%ADD24O,2.400000X1.600000*%
%ADD25R,2.400000X1.600000*%
%ADD26C,0.152400*%
%ADD27C,0.254000*%
G04 APERTURE END LIST*
D10*
G36*
X164361765Y-107092213D02*
G01*
X164446704Y-107104813D01*
X164529999Y-107125677D01*
X164610848Y-107154605D01*
X164688472Y-107191319D01*
X164762124Y-107235464D01*
X164831094Y-107286616D01*
X164894718Y-107344282D01*
X164952384Y-107407906D01*
X165003536Y-107476876D01*
X165047681Y-107550528D01*
X165084395Y-107628152D01*
X165113323Y-107709001D01*
X165134187Y-107792296D01*
X165146787Y-107877235D01*
X165151000Y-107963000D01*
X165151000Y-109713000D01*
X165146787Y-109798765D01*
X165134187Y-109883704D01*
X165113323Y-109966999D01*
X165084395Y-110047848D01*
X165047681Y-110125472D01*
X165003536Y-110199124D01*
X164952384Y-110268094D01*
X164894718Y-110331718D01*
X164831094Y-110389384D01*
X164762124Y-110440536D01*
X164688472Y-110484681D01*
X164610848Y-110521395D01*
X164529999Y-110550323D01*
X164446704Y-110571187D01*
X164361765Y-110583787D01*
X164276000Y-110588000D01*
X162526000Y-110588000D01*
X162440235Y-110583787D01*
X162355296Y-110571187D01*
X162272001Y-110550323D01*
X162191152Y-110521395D01*
X162113528Y-110484681D01*
X162039876Y-110440536D01*
X161970906Y-110389384D01*
X161907282Y-110331718D01*
X161849616Y-110268094D01*
X161798464Y-110199124D01*
X161754319Y-110125472D01*
X161717605Y-110047848D01*
X161688677Y-109966999D01*
X161667813Y-109883704D01*
X161655213Y-109798765D01*
X161651000Y-109713000D01*
X161651000Y-107963000D01*
X161655213Y-107877235D01*
X161667813Y-107792296D01*
X161688677Y-107709001D01*
X161717605Y-107628152D01*
X161754319Y-107550528D01*
X161798464Y-107476876D01*
X161849616Y-107407906D01*
X161907282Y-107344282D01*
X161970906Y-107286616D01*
X162039876Y-107235464D01*
X162113528Y-107191319D01*
X162191152Y-107154605D01*
X162272001Y-107125677D01*
X162355296Y-107104813D01*
X162440235Y-107092213D01*
X162526000Y-107088000D01*
X164276000Y-107088000D01*
X164361765Y-107092213D01*
X164361765Y-107092213D01*
G37*
D11*
X163401000Y-108838000D03*
D10*
G36*
X167361765Y-111792213D02*
G01*
X167446704Y-111804813D01*
X167529999Y-111825677D01*
X167610848Y-111854605D01*
X167688472Y-111891319D01*
X167762124Y-111935464D01*
X167831094Y-111986616D01*
X167894718Y-112044282D01*
X167952384Y-112107906D01*
X168003536Y-112176876D01*
X168047681Y-112250528D01*
X168084395Y-112328152D01*
X168113323Y-112409001D01*
X168134187Y-112492296D01*
X168146787Y-112577235D01*
X168151000Y-112663000D01*
X168151000Y-114413000D01*
X168146787Y-114498765D01*
X168134187Y-114583704D01*
X168113323Y-114666999D01*
X168084395Y-114747848D01*
X168047681Y-114825472D01*
X168003536Y-114899124D01*
X167952384Y-114968094D01*
X167894718Y-115031718D01*
X167831094Y-115089384D01*
X167762124Y-115140536D01*
X167688472Y-115184681D01*
X167610848Y-115221395D01*
X167529999Y-115250323D01*
X167446704Y-115271187D01*
X167361765Y-115283787D01*
X167276000Y-115288000D01*
X165526000Y-115288000D01*
X165440235Y-115283787D01*
X165355296Y-115271187D01*
X165272001Y-115250323D01*
X165191152Y-115221395D01*
X165113528Y-115184681D01*
X165039876Y-115140536D01*
X164970906Y-115089384D01*
X164907282Y-115031718D01*
X164849616Y-114968094D01*
X164798464Y-114899124D01*
X164754319Y-114825472D01*
X164717605Y-114747848D01*
X164688677Y-114666999D01*
X164667813Y-114583704D01*
X164655213Y-114498765D01*
X164651000Y-114413000D01*
X164651000Y-112663000D01*
X164655213Y-112577235D01*
X164667813Y-112492296D01*
X164688677Y-112409001D01*
X164717605Y-112328152D01*
X164754319Y-112250528D01*
X164798464Y-112176876D01*
X164849616Y-112107906D01*
X164907282Y-112044282D01*
X164970906Y-111986616D01*
X165039876Y-111935464D01*
X165113528Y-111891319D01*
X165191152Y-111854605D01*
X165272001Y-111825677D01*
X165355296Y-111804813D01*
X165440235Y-111792213D01*
X165526000Y-111788000D01*
X167276000Y-111788000D01*
X167361765Y-111792213D01*
X167361765Y-111792213D01*
G37*
D11*
X166401000Y-113538000D03*
D10*
G36*
X161361765Y-111792213D02*
G01*
X161446704Y-111804813D01*
X161529999Y-111825677D01*
X161610848Y-111854605D01*
X161688472Y-111891319D01*
X161762124Y-111935464D01*
X161831094Y-111986616D01*
X161894718Y-112044282D01*
X161952384Y-112107906D01*
X162003536Y-112176876D01*
X162047681Y-112250528D01*
X162084395Y-112328152D01*
X162113323Y-112409001D01*
X162134187Y-112492296D01*
X162146787Y-112577235D01*
X162151000Y-112663000D01*
X162151000Y-114413000D01*
X162146787Y-114498765D01*
X162134187Y-114583704D01*
X162113323Y-114666999D01*
X162084395Y-114747848D01*
X162047681Y-114825472D01*
X162003536Y-114899124D01*
X161952384Y-114968094D01*
X161894718Y-115031718D01*
X161831094Y-115089384D01*
X161762124Y-115140536D01*
X161688472Y-115184681D01*
X161610848Y-115221395D01*
X161529999Y-115250323D01*
X161446704Y-115271187D01*
X161361765Y-115283787D01*
X161276000Y-115288000D01*
X159526000Y-115288000D01*
X159440235Y-115283787D01*
X159355296Y-115271187D01*
X159272001Y-115250323D01*
X159191152Y-115221395D01*
X159113528Y-115184681D01*
X159039876Y-115140536D01*
X158970906Y-115089384D01*
X158907282Y-115031718D01*
X158849616Y-114968094D01*
X158798464Y-114899124D01*
X158754319Y-114825472D01*
X158717605Y-114747848D01*
X158688677Y-114666999D01*
X158667813Y-114583704D01*
X158655213Y-114498765D01*
X158651000Y-114413000D01*
X158651000Y-112663000D01*
X158655213Y-112577235D01*
X158667813Y-112492296D01*
X158688677Y-112409001D01*
X158717605Y-112328152D01*
X158754319Y-112250528D01*
X158798464Y-112176876D01*
X158849616Y-112107906D01*
X158907282Y-112044282D01*
X158970906Y-111986616D01*
X159039876Y-111935464D01*
X159113528Y-111891319D01*
X159191152Y-111854605D01*
X159272001Y-111825677D01*
X159355296Y-111804813D01*
X159440235Y-111792213D01*
X159526000Y-111788000D01*
X161276000Y-111788000D01*
X161361765Y-111792213D01*
X161361765Y-111792213D01*
G37*
D11*
X160401000Y-113538000D03*
D12*
X156464000Y-114300000D03*
D13*
X156464000Y-111760000D03*
X156464000Y-109220000D03*
X156464000Y-106680000D03*
X156464000Y-104140000D03*
X156464000Y-101600000D03*
X156464000Y-99060000D03*
X156464000Y-96520000D03*
X156464000Y-93980000D03*
X156464000Y-91440000D03*
X153924000Y-114300000D03*
X153924000Y-111760000D03*
X153924000Y-109220000D03*
X153924000Y-106680000D03*
X153924000Y-104140000D03*
X153924000Y-101600000D03*
X153924000Y-99060000D03*
X153924000Y-96520000D03*
X153924000Y-93980000D03*
X153924000Y-91440000D03*
X131064000Y-91440000D03*
X131064000Y-93980000D03*
X131064000Y-96520000D03*
X131064000Y-99060000D03*
X131064000Y-101600000D03*
X131064000Y-104140000D03*
X131064000Y-106680000D03*
X131064000Y-109220000D03*
X131064000Y-111760000D03*
D12*
X131064000Y-114300000D03*
D13*
X128524000Y-91440000D03*
X128524000Y-93980000D03*
X128524000Y-96520000D03*
X128524000Y-99060000D03*
X128524000Y-101600000D03*
X128524000Y-104140000D03*
X128524000Y-106680000D03*
X128524000Y-109220000D03*
X128524000Y-111760000D03*
X128524000Y-114300000D03*
D14*
X168148000Y-103505000D03*
D15*
X160528000Y-103505000D03*
D16*
X125349000Y-107569000D03*
D17*
X125349000Y-115189000D03*
D16*
X122555000Y-107569000D03*
D17*
X122555000Y-115189000D03*
D18*
X117983000Y-104521000D03*
D19*
X117983000Y-101981000D03*
D20*
X118822000Y-107905000D03*
D21*
X116332000Y-109165000D03*
X116332000Y-113665000D03*
D20*
X118822000Y-114915000D03*
D22*
X121412000Y-79248000D03*
D23*
X124182000Y-79248000D03*
X126952000Y-79248000D03*
X129722000Y-79248000D03*
X132492000Y-79248000D03*
X122797000Y-76408000D03*
X125567000Y-76408000D03*
X128337000Y-76408000D03*
X131107000Y-76408000D03*
D24*
X168148000Y-83439000D03*
X160528000Y-98679000D03*
X168148000Y-85979000D03*
X160528000Y-96139000D03*
X168148000Y-88519000D03*
X160528000Y-93599000D03*
X168148000Y-91059000D03*
X160528000Y-91059000D03*
X168148000Y-93599000D03*
X160528000Y-88519000D03*
X168148000Y-96139000D03*
X160528000Y-85979000D03*
X168148000Y-98679000D03*
D25*
X160528000Y-83439000D03*
X117094000Y-83439000D03*
D24*
X124714000Y-98679000D03*
X117094000Y-85979000D03*
X124714000Y-96139000D03*
X117094000Y-88519000D03*
X124714000Y-93599000D03*
X117094000Y-91059000D03*
X124714000Y-91059000D03*
X117094000Y-93599000D03*
X124714000Y-88519000D03*
X117094000Y-96139000D03*
X124714000Y-85979000D03*
X117094000Y-98679000D03*
X124714000Y-83439000D03*
D18*
X124079000Y-104521000D03*
D19*
X124079000Y-101981000D03*
D22*
X152781000Y-79248000D03*
D23*
X155551000Y-79248000D03*
X158321000Y-79248000D03*
X161091000Y-79248000D03*
X163861000Y-79248000D03*
X154166000Y-76408000D03*
X156936000Y-76408000D03*
X159706000Y-76408000D03*
X162476000Y-76408000D03*
D26*
X124714000Y-85979000D02*
X126142900Y-85979000D01*
X126142900Y-85979000D02*
X129692800Y-89528900D01*
X129692800Y-89528900D02*
X129692800Y-91821100D01*
X129692800Y-91821100D02*
X130581700Y-92710000D01*
X130581700Y-92710000D02*
X131510500Y-92710000D01*
X131510500Y-92710000D02*
X132234300Y-93433800D01*
X132234300Y-93433800D02*
X132234300Y-102175700D01*
X132234300Y-102175700D02*
X131626800Y-102783200D01*
X131626800Y-102783200D02*
X129707200Y-102783200D01*
X129707200Y-102783200D02*
X128524000Y-101600000D01*
X117094000Y-88519000D02*
X118522900Y-88519000D01*
X118522900Y-88519000D02*
X118522900Y-89322800D01*
X118522900Y-89322800D02*
X124174300Y-94974200D01*
X124174300Y-94974200D02*
X125468800Y-94974200D01*
X125468800Y-94974200D02*
X126448100Y-95953500D01*
X126448100Y-95953500D02*
X126448100Y-96097000D01*
X126448100Y-96097000D02*
X128141100Y-97790000D01*
X128141100Y-97790000D02*
X129794000Y-97790000D01*
X129794000Y-97790000D02*
X131064000Y-99060000D01*
X117094000Y-83439000D02*
X118522900Y-83439000D01*
X118522900Y-83439000D02*
X118522900Y-84210700D01*
X118522900Y-84210700D02*
X124101200Y-89789000D01*
X124101200Y-89789000D02*
X125304900Y-89789000D01*
X125304900Y-89789000D02*
X126143000Y-90627100D01*
X126143000Y-90627100D02*
X126143000Y-90743100D01*
X126143000Y-90743100D02*
X128121500Y-92721600D01*
X128121500Y-92721600D02*
X128935500Y-92721600D01*
X128935500Y-92721600D02*
X129794000Y-93580100D01*
X129794000Y-93580100D02*
X129794000Y-95250000D01*
X129794000Y-95250000D02*
X131064000Y-96520000D01*
X168148000Y-85979000D02*
X166719100Y-85979000D01*
X166719100Y-85979000D02*
X166719100Y-89281300D01*
X166719100Y-89281300D02*
X161131400Y-94869000D01*
X161131400Y-94869000D02*
X159940500Y-94869000D01*
X159940500Y-94869000D02*
X158017400Y-96792100D01*
X158017400Y-96792100D02*
X158017400Y-99161900D01*
X158017400Y-99161900D02*
X156748100Y-100431200D01*
X156748100Y-100431200D02*
X155957000Y-100431200D01*
X155957000Y-100431200D02*
X155194000Y-101194200D01*
X155194000Y-101194200D02*
X155194000Y-102870000D01*
X155194000Y-102870000D02*
X153924000Y-104140000D01*
X168148000Y-91059000D02*
X169576900Y-91059000D01*
X169576900Y-91059000D02*
X169576900Y-94086900D01*
X169576900Y-94086900D02*
X168788500Y-94875300D01*
X168788500Y-94875300D02*
X166930800Y-94875300D01*
X166930800Y-94875300D02*
X160206100Y-101600000D01*
X160206100Y-101600000D02*
X156464000Y-101600000D01*
X160528000Y-83439000D02*
X159099100Y-83439000D01*
X159099100Y-83439000D02*
X159099100Y-91344900D01*
X159099100Y-91344900D02*
X156464000Y-93980000D01*
X117094000Y-93599000D02*
X118522900Y-93599000D01*
X118522900Y-93599000D02*
X122332900Y-97409000D01*
X122332900Y-97409000D02*
X125335500Y-97409000D01*
X125335500Y-97409000D02*
X126630900Y-98704400D01*
X126630900Y-98704400D02*
X126630900Y-98907700D01*
X126630900Y-98907700D02*
X128053200Y-100330000D01*
X128053200Y-100330000D02*
X129794000Y-100330000D01*
X129794000Y-100330000D02*
X131064000Y-101600000D01*
X168148000Y-88519000D02*
X169576900Y-88519000D01*
X169576900Y-88519000D02*
X169576900Y-82973700D01*
X169576900Y-82973700D02*
X168175400Y-81572200D01*
X168175400Y-81572200D02*
X134816200Y-81572200D01*
X134816200Y-81572200D02*
X132492000Y-79248000D01*
X124714000Y-93599000D02*
X123285100Y-93599000D01*
X123285100Y-93599000D02*
X123285100Y-92795200D01*
X123285100Y-92795200D02*
X117738900Y-87249000D01*
X117738900Y-87249000D02*
X116508400Y-87249000D01*
X116508400Y-87249000D02*
X115665000Y-86405600D01*
X115665000Y-86405600D02*
X115665000Y-82450400D01*
X115665000Y-82450400D02*
X121707400Y-76408000D01*
X121707400Y-76408000D02*
X122797000Y-76408000D01*
X124714000Y-83439000D02*
X128143000Y-83439000D01*
X128143000Y-83439000D02*
X153924000Y-109220000D01*
X131064000Y-114300000D02*
X129895300Y-114300000D01*
X116332000Y-109165000D02*
X120298300Y-113131300D01*
X120298300Y-113131300D02*
X129018900Y-113131300D01*
X129018900Y-113131300D02*
X129895300Y-114007700D01*
X129895300Y-114007700D02*
X129895300Y-114300000D01*
D27*
G36*
X127523903Y-75415298D02*
G01*
X128337000Y-76228395D01*
X129150097Y-75415298D01*
X129109519Y-75277000D01*
X158933481Y-75277000D01*
X158892903Y-75415298D01*
X159706000Y-76228395D01*
X160519097Y-75415298D01*
X160478519Y-75277000D01*
X168258028Y-75277000D01*
X168626629Y-75313142D01*
X168964865Y-75415261D01*
X169276823Y-75581132D01*
X169550625Y-75804440D01*
X169775836Y-76076672D01*
X169943882Y-76387467D01*
X170048361Y-76724983D01*
X170087000Y-77092615D01*
X170087001Y-114410018D01*
X170050858Y-114778629D01*
X169948739Y-115116864D01*
X169782867Y-115428825D01*
X169559560Y-115702625D01*
X169287328Y-115927836D01*
X168976533Y-116095882D01*
X168639017Y-116200361D01*
X168271385Y-116239000D01*
X119070298Y-116239000D01*
X119214906Y-116210236D01*
X119460044Y-116108696D01*
X119680663Y-115961284D01*
X119868284Y-115773663D01*
X120015696Y-115553044D01*
X120117236Y-115307906D01*
X120160419Y-115090804D01*
X121558000Y-115090804D01*
X121558000Y-115287196D01*
X121596314Y-115479814D01*
X121671470Y-115661257D01*
X121780580Y-115824550D01*
X121919450Y-115963420D01*
X122082743Y-116072530D01*
X122264186Y-116147686D01*
X122456804Y-116186000D01*
X122653196Y-116186000D01*
X122845814Y-116147686D01*
X123027257Y-116072530D01*
X123190550Y-115963420D01*
X123329420Y-115824550D01*
X123438530Y-115661257D01*
X123513686Y-115479814D01*
X123552000Y-115287196D01*
X123552000Y-115090804D01*
X124352000Y-115090804D01*
X124352000Y-115287196D01*
X124390314Y-115479814D01*
X124465470Y-115661257D01*
X124574580Y-115824550D01*
X124713450Y-115963420D01*
X124876743Y-116072530D01*
X125058186Y-116147686D01*
X125250804Y-116186000D01*
X125447196Y-116186000D01*
X125639814Y-116147686D01*
X125821257Y-116072530D01*
X125984550Y-115963420D01*
X126123420Y-115824550D01*
X126232530Y-115661257D01*
X126307686Y-115479814D01*
X126346000Y-115287196D01*
X126346000Y-115090804D01*
X126307686Y-114898186D01*
X126232530Y-114716743D01*
X126123420Y-114553450D01*
X125984550Y-114414580D01*
X125821257Y-114305470D01*
X125639814Y-114230314D01*
X125447196Y-114192000D01*
X125250804Y-114192000D01*
X125058186Y-114230314D01*
X124876743Y-114305470D01*
X124713450Y-114414580D01*
X124574580Y-114553450D01*
X124465470Y-114716743D01*
X124390314Y-114898186D01*
X124352000Y-115090804D01*
X123552000Y-115090804D01*
X123513686Y-114898186D01*
X123438530Y-114716743D01*
X123329420Y-114553450D01*
X123190550Y-114414580D01*
X123027257Y-114305470D01*
X122845814Y-114230314D01*
X122653196Y-114192000D01*
X122456804Y-114192000D01*
X122264186Y-114230314D01*
X122082743Y-114305470D01*
X121919450Y-114414580D01*
X121780580Y-114553450D01*
X121671470Y-114716743D01*
X121596314Y-114898186D01*
X121558000Y-115090804D01*
X120160419Y-115090804D01*
X120169000Y-115047668D01*
X120169000Y-114782332D01*
X120117236Y-114522094D01*
X120015696Y-114276956D01*
X119868284Y-114056337D01*
X119680663Y-113868716D01*
X119460044Y-113721304D01*
X119214906Y-113619764D01*
X118954668Y-113568000D01*
X118689332Y-113568000D01*
X118429094Y-113619764D01*
X118183956Y-113721304D01*
X117963337Y-113868716D01*
X117795603Y-114036450D01*
X117831855Y-113894474D01*
X117847804Y-113597457D01*
X117805501Y-113303037D01*
X117706572Y-113022526D01*
X117629868Y-112879025D01*
X117378240Y-112798365D01*
X116511605Y-113665000D01*
X117378240Y-114531635D01*
X117544947Y-114478197D01*
X117526764Y-114522094D01*
X117475000Y-114782332D01*
X117475000Y-115047668D01*
X117526764Y-115307906D01*
X117628304Y-115553044D01*
X117775716Y-115773663D01*
X117963337Y-115961284D01*
X118183956Y-116108696D01*
X118429094Y-116210236D01*
X118573702Y-116239000D01*
X116983972Y-116239000D01*
X116615371Y-116202858D01*
X116277136Y-116100739D01*
X115965175Y-115934867D01*
X115691375Y-115711560D01*
X115466164Y-115439328D01*
X115298118Y-115128533D01*
X115193639Y-114791017D01*
X115185255Y-114711240D01*
X115465365Y-114711240D01*
X115546025Y-114962868D01*
X115814329Y-115091267D01*
X116102526Y-115164855D01*
X116399543Y-115180804D01*
X116693963Y-115138501D01*
X116974474Y-115039572D01*
X117117975Y-114962868D01*
X117198635Y-114711240D01*
X116332000Y-113844605D01*
X115465365Y-114711240D01*
X115185255Y-114711240D01*
X115162215Y-114492032D01*
X115285760Y-114531635D01*
X116152395Y-113665000D01*
X115285760Y-112798365D01*
X115155000Y-112840280D01*
X115155000Y-112618760D01*
X115465365Y-112618760D01*
X116332000Y-113485395D01*
X117198635Y-112618760D01*
X117117975Y-112367132D01*
X116849671Y-112238733D01*
X116561474Y-112165145D01*
X116264457Y-112149196D01*
X115970037Y-112191499D01*
X115689526Y-112290428D01*
X115546025Y-112367132D01*
X115465365Y-112618760D01*
X115155000Y-112618760D01*
X115155000Y-109049568D01*
X115160000Y-109049568D01*
X115160000Y-109280432D01*
X115205039Y-109506860D01*
X115293387Y-109720150D01*
X115421648Y-109912107D01*
X115584893Y-110075352D01*
X115776850Y-110203613D01*
X115990140Y-110291961D01*
X116216568Y-110337000D01*
X116447432Y-110337000D01*
X116673860Y-110291961D01*
X116855811Y-110216594D01*
X120021443Y-113382227D01*
X120033131Y-113396469D01*
X120089958Y-113443105D01*
X120154792Y-113477759D01*
X120225140Y-113499099D01*
X120298299Y-113506305D01*
X120316625Y-113504500D01*
X127570401Y-113504500D01*
X127563315Y-113511586D01*
X127427962Y-113714156D01*
X127334730Y-113939239D01*
X127287200Y-114178186D01*
X127287200Y-114421814D01*
X127334730Y-114660761D01*
X127427962Y-114885844D01*
X127563315Y-115088414D01*
X127735586Y-115260685D01*
X127938156Y-115396038D01*
X128163239Y-115489270D01*
X128402186Y-115536800D01*
X128645814Y-115536800D01*
X128884761Y-115489270D01*
X129109844Y-115396038D01*
X129312414Y-115260685D01*
X129484685Y-115088414D01*
X129620038Y-114885844D01*
X129713270Y-114660761D01*
X129719544Y-114629222D01*
X129751792Y-114646459D01*
X129822140Y-114667799D01*
X129825763Y-114668156D01*
X129825763Y-115239800D01*
X129831497Y-115298022D01*
X129848480Y-115354007D01*
X129876059Y-115405603D01*
X129913173Y-115450827D01*
X129958397Y-115487941D01*
X130009993Y-115515520D01*
X130065978Y-115532503D01*
X130124200Y-115538237D01*
X132003800Y-115538237D01*
X132062022Y-115532503D01*
X132118007Y-115515520D01*
X132169603Y-115487941D01*
X132214827Y-115450827D01*
X132251941Y-115405603D01*
X132279520Y-115354007D01*
X132296503Y-115298022D01*
X132302237Y-115239800D01*
X132302237Y-114178186D01*
X152687200Y-114178186D01*
X152687200Y-114421814D01*
X152734730Y-114660761D01*
X152827962Y-114885844D01*
X152963315Y-115088414D01*
X153135586Y-115260685D01*
X153338156Y-115396038D01*
X153563239Y-115489270D01*
X153802186Y-115536800D01*
X154045814Y-115536800D01*
X154284761Y-115489270D01*
X154509844Y-115396038D01*
X154712414Y-115260685D01*
X154884685Y-115088414D01*
X155020038Y-114885844D01*
X155113270Y-114660761D01*
X155160800Y-114421814D01*
X155160800Y-114178186D01*
X155113270Y-113939239D01*
X155020038Y-113714156D01*
X154884685Y-113511586D01*
X154733299Y-113360200D01*
X155225763Y-113360200D01*
X155225763Y-115239800D01*
X155231497Y-115298022D01*
X155248480Y-115354007D01*
X155276059Y-115405603D01*
X155313173Y-115450827D01*
X155358397Y-115487941D01*
X155409993Y-115515520D01*
X155465978Y-115532503D01*
X155524200Y-115538237D01*
X157403800Y-115538237D01*
X157462022Y-115532503D01*
X157518007Y-115515520D01*
X157569603Y-115487941D01*
X157614827Y-115450827D01*
X157651941Y-115405603D01*
X157679520Y-115354007D01*
X157696503Y-115298022D01*
X157702237Y-115239800D01*
X157702237Y-113360200D01*
X157696503Y-113301978D01*
X157679520Y-113245993D01*
X157651941Y-113194397D01*
X157614827Y-113149173D01*
X157569603Y-113112059D01*
X157518007Y-113084480D01*
X157462022Y-113067497D01*
X157403800Y-113061763D01*
X155524200Y-113061763D01*
X155465978Y-113067497D01*
X155409993Y-113084480D01*
X155358397Y-113112059D01*
X155313173Y-113149173D01*
X155276059Y-113194397D01*
X155248480Y-113245993D01*
X155231497Y-113301978D01*
X155225763Y-113360200D01*
X154733299Y-113360200D01*
X154712414Y-113339315D01*
X154509844Y-113203962D01*
X154284761Y-113110730D01*
X154045814Y-113063200D01*
X153802186Y-113063200D01*
X153563239Y-113110730D01*
X153338156Y-113203962D01*
X153135586Y-113339315D01*
X152963315Y-113511586D01*
X152827962Y-113714156D01*
X152734730Y-113939239D01*
X152687200Y-114178186D01*
X132302237Y-114178186D01*
X132302237Y-113360200D01*
X132296503Y-113301978D01*
X132279520Y-113245993D01*
X132251941Y-113194397D01*
X132214827Y-113149173D01*
X132169603Y-113112059D01*
X132118007Y-113084480D01*
X132062022Y-113067497D01*
X132003800Y-113061763D01*
X130124200Y-113061763D01*
X130065978Y-113067497D01*
X130009993Y-113084480D01*
X129958397Y-113112059D01*
X129913173Y-113149173D01*
X129876059Y-113194397D01*
X129848480Y-113245993D01*
X129831497Y-113301978D01*
X129825763Y-113360200D01*
X129825763Y-113410379D01*
X129295761Y-112880378D01*
X129284069Y-112866131D01*
X129227242Y-112819495D01*
X129192403Y-112800874D01*
X129312414Y-112720685D01*
X129484685Y-112548414D01*
X129620038Y-112345844D01*
X129713270Y-112120761D01*
X129760800Y-111881814D01*
X129760800Y-111638186D01*
X129827200Y-111638186D01*
X129827200Y-111881814D01*
X129874730Y-112120761D01*
X129967962Y-112345844D01*
X130103315Y-112548414D01*
X130275586Y-112720685D01*
X130478156Y-112856038D01*
X130703239Y-112949270D01*
X130942186Y-112996800D01*
X131185814Y-112996800D01*
X131424761Y-112949270D01*
X131649844Y-112856038D01*
X131852414Y-112720685D01*
X132024685Y-112548414D01*
X132160038Y-112345844D01*
X132253270Y-112120761D01*
X132300800Y-111881814D01*
X132300800Y-111638186D01*
X152687200Y-111638186D01*
X152687200Y-111881814D01*
X152734730Y-112120761D01*
X152827962Y-112345844D01*
X152963315Y-112548414D01*
X153135586Y-112720685D01*
X153338156Y-112856038D01*
X153563239Y-112949270D01*
X153802186Y-112996800D01*
X154045814Y-112996800D01*
X154284761Y-112949270D01*
X154509844Y-112856038D01*
X154712414Y-112720685D01*
X154884685Y-112548414D01*
X155020038Y-112345844D01*
X155113270Y-112120761D01*
X155160800Y-111881814D01*
X155160800Y-111638186D01*
X155227200Y-111638186D01*
X155227200Y-111881814D01*
X155274730Y-112120761D01*
X155367962Y-112345844D01*
X155503315Y-112548414D01*
X155675586Y-112720685D01*
X155878156Y-112856038D01*
X156103239Y-112949270D01*
X156342186Y-112996800D01*
X156585814Y-112996800D01*
X156824761Y-112949270D01*
X157049844Y-112856038D01*
X157252414Y-112720685D01*
X157310099Y-112663000D01*
X158352563Y-112663000D01*
X158352563Y-114413000D01*
X158375110Y-114641926D01*
X158441886Y-114862055D01*
X158550323Y-115064927D01*
X158696255Y-115242745D01*
X158874073Y-115388677D01*
X159076945Y-115497114D01*
X159297074Y-115563890D01*
X159526000Y-115586437D01*
X161276000Y-115586437D01*
X161504926Y-115563890D01*
X161725055Y-115497114D01*
X161927927Y-115388677D01*
X162050601Y-115288000D01*
X164012928Y-115288000D01*
X164025188Y-115412482D01*
X164061498Y-115532180D01*
X164120463Y-115642494D01*
X164199815Y-115739185D01*
X164296506Y-115818537D01*
X164406820Y-115877502D01*
X164526518Y-115913812D01*
X164651000Y-115926072D01*
X166115250Y-115923000D01*
X166274000Y-115764250D01*
X166274000Y-113665000D01*
X166528000Y-113665000D01*
X166528000Y-115764250D01*
X166686750Y-115923000D01*
X168151000Y-115926072D01*
X168275482Y-115913812D01*
X168395180Y-115877502D01*
X168505494Y-115818537D01*
X168602185Y-115739185D01*
X168681537Y-115642494D01*
X168740502Y-115532180D01*
X168776812Y-115412482D01*
X168789072Y-115288000D01*
X168786000Y-113823750D01*
X168627250Y-113665000D01*
X166528000Y-113665000D01*
X166274000Y-113665000D01*
X164174750Y-113665000D01*
X164016000Y-113823750D01*
X164012928Y-115288000D01*
X162050601Y-115288000D01*
X162105745Y-115242745D01*
X162251677Y-115064927D01*
X162360114Y-114862055D01*
X162426890Y-114641926D01*
X162449437Y-114413000D01*
X162449437Y-112663000D01*
X162426890Y-112434074D01*
X162360114Y-112213945D01*
X162251677Y-112011073D01*
X162105745Y-111833255D01*
X162050602Y-111788000D01*
X164012928Y-111788000D01*
X164016000Y-113252250D01*
X164174750Y-113411000D01*
X166274000Y-113411000D01*
X166274000Y-111311750D01*
X166528000Y-111311750D01*
X166528000Y-113411000D01*
X168627250Y-113411000D01*
X168786000Y-113252250D01*
X168789072Y-111788000D01*
X168776812Y-111663518D01*
X168740502Y-111543820D01*
X168681537Y-111433506D01*
X168602185Y-111336815D01*
X168505494Y-111257463D01*
X168395180Y-111198498D01*
X168275482Y-111162188D01*
X168151000Y-111149928D01*
X166686750Y-111153000D01*
X166528000Y-111311750D01*
X166274000Y-111311750D01*
X166115250Y-111153000D01*
X164651000Y-111149928D01*
X164526518Y-111162188D01*
X164406820Y-111198498D01*
X164296506Y-111257463D01*
X164199815Y-111336815D01*
X164120463Y-111433506D01*
X164061498Y-111543820D01*
X164025188Y-111663518D01*
X164012928Y-111788000D01*
X162050602Y-111788000D01*
X161927927Y-111687323D01*
X161725055Y-111578886D01*
X161504926Y-111512110D01*
X161276000Y-111489563D01*
X159526000Y-111489563D01*
X159297074Y-111512110D01*
X159076945Y-111578886D01*
X158874073Y-111687323D01*
X158696255Y-111833255D01*
X158550323Y-112011073D01*
X158441886Y-112213945D01*
X158375110Y-112434074D01*
X158352563Y-112663000D01*
X157310099Y-112663000D01*
X157424685Y-112548414D01*
X157560038Y-112345844D01*
X157653270Y-112120761D01*
X157700800Y-111881814D01*
X157700800Y-111638186D01*
X157653270Y-111399239D01*
X157560038Y-111174156D01*
X157424685Y-110971586D01*
X157252414Y-110799315D01*
X157049844Y-110663962D01*
X156824761Y-110570730D01*
X156585814Y-110523200D01*
X156342186Y-110523200D01*
X156103239Y-110570730D01*
X155878156Y-110663962D01*
X155675586Y-110799315D01*
X155503315Y-110971586D01*
X155367962Y-111174156D01*
X155274730Y-111399239D01*
X155227200Y-111638186D01*
X155160800Y-111638186D01*
X155113270Y-111399239D01*
X155020038Y-111174156D01*
X154884685Y-110971586D01*
X154712414Y-110799315D01*
X154509844Y-110663962D01*
X154284761Y-110570730D01*
X154045814Y-110523200D01*
X153802186Y-110523200D01*
X153563239Y-110570730D01*
X153338156Y-110663962D01*
X153135586Y-110799315D01*
X152963315Y-110971586D01*
X152827962Y-111174156D01*
X152734730Y-111399239D01*
X152687200Y-111638186D01*
X132300800Y-111638186D01*
X132253270Y-111399239D01*
X132160038Y-111174156D01*
X132024685Y-110971586D01*
X131852414Y-110799315D01*
X131649844Y-110663962D01*
X131424761Y-110570730D01*
X131185814Y-110523200D01*
X130942186Y-110523200D01*
X130703239Y-110570730D01*
X130478156Y-110663962D01*
X130275586Y-110799315D01*
X130103315Y-110971586D01*
X129967962Y-111174156D01*
X129874730Y-111399239D01*
X129827200Y-111638186D01*
X129760800Y-111638186D01*
X129713270Y-111399239D01*
X129620038Y-111174156D01*
X129484685Y-110971586D01*
X129312414Y-110799315D01*
X129109844Y-110663962D01*
X128884761Y-110570730D01*
X128645814Y-110523200D01*
X128402186Y-110523200D01*
X128163239Y-110570730D01*
X127938156Y-110663962D01*
X127735586Y-110799315D01*
X127563315Y-110971586D01*
X127427962Y-111174156D01*
X127334730Y-111399239D01*
X127287200Y-111638186D01*
X127287200Y-111881814D01*
X127334730Y-112120761D01*
X127427962Y-112345844D01*
X127563315Y-112548414D01*
X127735586Y-112720685D01*
X127791581Y-112758100D01*
X120452884Y-112758100D01*
X117383594Y-109688811D01*
X117458961Y-109506860D01*
X117504000Y-109280432D01*
X117504000Y-109049568D01*
X117458961Y-108823140D01*
X117370613Y-108609850D01*
X117242352Y-108417893D01*
X117079107Y-108254648D01*
X116887150Y-108126387D01*
X116673860Y-108038039D01*
X116447432Y-107993000D01*
X116216568Y-107993000D01*
X115990140Y-108038039D01*
X115776850Y-108126387D01*
X115584893Y-108254648D01*
X115421648Y-108417893D01*
X115293387Y-108609850D01*
X115205039Y-108823140D01*
X115160000Y-109049568D01*
X115155000Y-109049568D01*
X115155000Y-107772332D01*
X117475000Y-107772332D01*
X117475000Y-108037668D01*
X117526764Y-108297906D01*
X117628304Y-108543044D01*
X117775716Y-108763663D01*
X117963337Y-108951284D01*
X118183956Y-109098696D01*
X118429094Y-109200236D01*
X118689332Y-109252000D01*
X118954668Y-109252000D01*
X119214906Y-109200236D01*
X119460044Y-109098696D01*
X119460807Y-109098186D01*
X127287200Y-109098186D01*
X127287200Y-109341814D01*
X127334730Y-109580761D01*
X127427962Y-109805844D01*
X127563315Y-110008414D01*
X127735586Y-110180685D01*
X127938156Y-110316038D01*
X128163239Y-110409270D01*
X128402186Y-110456800D01*
X128645814Y-110456800D01*
X128884761Y-110409270D01*
X129109844Y-110316038D01*
X129312414Y-110180685D01*
X129484685Y-110008414D01*
X129620038Y-109805844D01*
X129713270Y-109580761D01*
X129760800Y-109341814D01*
X129760800Y-109098186D01*
X129827200Y-109098186D01*
X129827200Y-109341814D01*
X129874730Y-109580761D01*
X129967962Y-109805844D01*
X130103315Y-110008414D01*
X130275586Y-110180685D01*
X130478156Y-110316038D01*
X130703239Y-110409270D01*
X130942186Y-110456800D01*
X131185814Y-110456800D01*
X131424761Y-110409270D01*
X131649844Y-110316038D01*
X131852414Y-110180685D01*
X132024685Y-110008414D01*
X132160038Y-109805844D01*
X132253270Y-109580761D01*
X132300800Y-109341814D01*
X132300800Y-109098186D01*
X132253270Y-108859239D01*
X132160038Y-108634156D01*
X132024685Y-108431586D01*
X131852414Y-108259315D01*
X131649844Y-108123962D01*
X131424761Y-108030730D01*
X131185814Y-107983200D01*
X130942186Y-107983200D01*
X130703239Y-108030730D01*
X130478156Y-108123962D01*
X130275586Y-108259315D01*
X130103315Y-108431586D01*
X129967962Y-108634156D01*
X129874730Y-108859239D01*
X129827200Y-109098186D01*
X129760800Y-109098186D01*
X129713270Y-108859239D01*
X129620038Y-108634156D01*
X129484685Y-108431586D01*
X129312414Y-108259315D01*
X129109844Y-108123962D01*
X128884761Y-108030730D01*
X128645814Y-107983200D01*
X128402186Y-107983200D01*
X128163239Y-108030730D01*
X127938156Y-108123962D01*
X127735586Y-108259315D01*
X127563315Y-108431586D01*
X127427962Y-108634156D01*
X127334730Y-108859239D01*
X127287200Y-109098186D01*
X119460807Y-109098186D01*
X119680663Y-108951284D01*
X119868284Y-108763663D01*
X120015696Y-108543044D01*
X120117236Y-108297906D01*
X120169000Y-108037668D01*
X120169000Y-107772332D01*
X120128556Y-107569000D01*
X121553176Y-107569000D01*
X121572426Y-107764446D01*
X121629435Y-107952381D01*
X121722014Y-108125584D01*
X121846603Y-108277397D01*
X121998416Y-108401986D01*
X122171619Y-108494565D01*
X122359554Y-108551574D01*
X122506022Y-108566000D01*
X122603978Y-108566000D01*
X122750446Y-108551574D01*
X122938381Y-108494565D01*
X123111584Y-108401986D01*
X123263397Y-108277397D01*
X123387986Y-108125584D01*
X123480565Y-107952381D01*
X123537574Y-107764446D01*
X123556824Y-107569000D01*
X124347176Y-107569000D01*
X124366426Y-107764446D01*
X124423435Y-107952381D01*
X124516014Y-108125584D01*
X124640603Y-108277397D01*
X124792416Y-108401986D01*
X124965619Y-108494565D01*
X125153554Y-108551574D01*
X125300022Y-108566000D01*
X125397978Y-108566000D01*
X125544446Y-108551574D01*
X125732381Y-108494565D01*
X125905584Y-108401986D01*
X126057397Y-108277397D01*
X126181986Y-108125584D01*
X126274565Y-107952381D01*
X126331574Y-107764446D01*
X126350824Y-107569000D01*
X126331574Y-107373554D01*
X126274565Y-107185619D01*
X126181986Y-107012416D01*
X126057397Y-106860603D01*
X125905584Y-106736014D01*
X125732381Y-106643435D01*
X125544446Y-106586426D01*
X125397978Y-106572000D01*
X125300022Y-106572000D01*
X125153554Y-106586426D01*
X124965619Y-106643435D01*
X124792416Y-106736014D01*
X124640603Y-106860603D01*
X124516014Y-107012416D01*
X124423435Y-107185619D01*
X124366426Y-107373554D01*
X124347176Y-107569000D01*
X123556824Y-107569000D01*
X123537574Y-107373554D01*
X123480565Y-107185619D01*
X123387986Y-107012416D01*
X123263397Y-106860603D01*
X123111584Y-106736014D01*
X122938381Y-106643435D01*
X122750446Y-106586426D01*
X122603978Y-106572000D01*
X122506022Y-106572000D01*
X122359554Y-106586426D01*
X122171619Y-106643435D01*
X121998416Y-106736014D01*
X121846603Y-106860603D01*
X121722014Y-107012416D01*
X121629435Y-107185619D01*
X121572426Y-107373554D01*
X121553176Y-107569000D01*
X120128556Y-107569000D01*
X120117236Y-107512094D01*
X120015696Y-107266956D01*
X119868284Y-107046337D01*
X119680663Y-106858716D01*
X119460044Y-106711304D01*
X119214906Y-106609764D01*
X118955604Y-106558186D01*
X127287200Y-106558186D01*
X127287200Y-106801814D01*
X127334730Y-107040761D01*
X127427962Y-107265844D01*
X127563315Y-107468414D01*
X127735586Y-107640685D01*
X127938156Y-107776038D01*
X128163239Y-107869270D01*
X128402186Y-107916800D01*
X128645814Y-107916800D01*
X128884761Y-107869270D01*
X129109844Y-107776038D01*
X129312414Y-107640685D01*
X129484685Y-107468414D01*
X129620038Y-107265844D01*
X129713270Y-107040761D01*
X129760800Y-106801814D01*
X129760800Y-106558186D01*
X129827200Y-106558186D01*
X129827200Y-106801814D01*
X129874730Y-107040761D01*
X129967962Y-107265844D01*
X130103315Y-107468414D01*
X130275586Y-107640685D01*
X130478156Y-107776038D01*
X130703239Y-107869270D01*
X130942186Y-107916800D01*
X131185814Y-107916800D01*
X131424761Y-107869270D01*
X131649844Y-107776038D01*
X131852414Y-107640685D01*
X132024685Y-107468414D01*
X132160038Y-107265844D01*
X132253270Y-107040761D01*
X132300800Y-106801814D01*
X132300800Y-106558186D01*
X132253270Y-106319239D01*
X132160038Y-106094156D01*
X132024685Y-105891586D01*
X131852414Y-105719315D01*
X131649844Y-105583962D01*
X131424761Y-105490730D01*
X131185814Y-105443200D01*
X130942186Y-105443200D01*
X130703239Y-105490730D01*
X130478156Y-105583962D01*
X130275586Y-105719315D01*
X130103315Y-105891586D01*
X129967962Y-106094156D01*
X129874730Y-106319239D01*
X129827200Y-106558186D01*
X129760800Y-106558186D01*
X129713270Y-106319239D01*
X129620038Y-106094156D01*
X129484685Y-105891586D01*
X129312414Y-105719315D01*
X129109844Y-105583962D01*
X128884761Y-105490730D01*
X128645814Y-105443200D01*
X128402186Y-105443200D01*
X128163239Y-105490730D01*
X127938156Y-105583962D01*
X127735586Y-105719315D01*
X127563315Y-105891586D01*
X127427962Y-106094156D01*
X127334730Y-106319239D01*
X127287200Y-106558186D01*
X118955604Y-106558186D01*
X118954668Y-106558000D01*
X118689332Y-106558000D01*
X118429094Y-106609764D01*
X118183956Y-106711304D01*
X117963337Y-106858716D01*
X117775716Y-107046337D01*
X117628304Y-107266956D01*
X117526764Y-107512094D01*
X117475000Y-107772332D01*
X115155000Y-107772332D01*
X115155000Y-102981000D01*
X116344928Y-102981000D01*
X116357188Y-103105482D01*
X116393498Y-103225180D01*
X116452463Y-103335494D01*
X116531815Y-103432185D01*
X116628506Y-103511537D01*
X116738820Y-103570502D01*
X116858518Y-103606812D01*
X116983000Y-103619072D01*
X117050984Y-103618780D01*
X116975554Y-103694210D01*
X116833613Y-103906640D01*
X116735843Y-104142679D01*
X116686000Y-104393257D01*
X116686000Y-104648743D01*
X116735843Y-104899321D01*
X116833613Y-105135360D01*
X116975554Y-105347790D01*
X117156210Y-105528446D01*
X117368640Y-105670387D01*
X117604679Y-105768157D01*
X117855257Y-105818000D01*
X118110743Y-105818000D01*
X118361321Y-105768157D01*
X118597360Y-105670387D01*
X118809790Y-105528446D01*
X118990446Y-105347790D01*
X119132387Y-105135360D01*
X119230157Y-104899321D01*
X119280000Y-104648743D01*
X119280000Y-104393257D01*
X119230157Y-104142679D01*
X119132387Y-103906640D01*
X118990446Y-103694210D01*
X118915016Y-103618780D01*
X118983000Y-103619072D01*
X119107482Y-103606812D01*
X119227180Y-103570502D01*
X119337494Y-103511537D01*
X119434185Y-103432185D01*
X119513537Y-103335494D01*
X119572502Y-103225180D01*
X119608812Y-103105482D01*
X119621072Y-102981000D01*
X122440928Y-102981000D01*
X122453188Y-103105482D01*
X122489498Y-103225180D01*
X122548463Y-103335494D01*
X122627815Y-103432185D01*
X122724506Y-103511537D01*
X122834820Y-103570502D01*
X122954518Y-103606812D01*
X123079000Y-103619072D01*
X123146984Y-103618780D01*
X123071554Y-103694210D01*
X122929613Y-103906640D01*
X122831843Y-104142679D01*
X122782000Y-104393257D01*
X122782000Y-104648743D01*
X122831843Y-104899321D01*
X122929613Y-105135360D01*
X123071554Y-105347790D01*
X123252210Y-105528446D01*
X123464640Y-105670387D01*
X123700679Y-105768157D01*
X123951257Y-105818000D01*
X124206743Y-105818000D01*
X124457321Y-105768157D01*
X124693360Y-105670387D01*
X124905790Y-105528446D01*
X125086446Y-105347790D01*
X125228387Y-105135360D01*
X125326157Y-104899321D01*
X125376000Y-104648743D01*
X125376000Y-104393257D01*
X125326157Y-104142679D01*
X125274591Y-104018186D01*
X127287200Y-104018186D01*
X127287200Y-104261814D01*
X127334730Y-104500761D01*
X127427962Y-104725844D01*
X127563315Y-104928414D01*
X127735586Y-105100685D01*
X127938156Y-105236038D01*
X128163239Y-105329270D01*
X128402186Y-105376800D01*
X128645814Y-105376800D01*
X128884761Y-105329270D01*
X129109844Y-105236038D01*
X129312414Y-105100685D01*
X129484685Y-104928414D01*
X129620038Y-104725844D01*
X129713270Y-104500761D01*
X129760800Y-104261814D01*
X129760800Y-104018186D01*
X129713270Y-103779239D01*
X129620038Y-103554156D01*
X129484685Y-103351586D01*
X129312414Y-103179315D01*
X129109844Y-103043962D01*
X128884761Y-102950730D01*
X128645814Y-102903200D01*
X128402186Y-102903200D01*
X128163239Y-102950730D01*
X127938156Y-103043962D01*
X127735586Y-103179315D01*
X127563315Y-103351586D01*
X127427962Y-103554156D01*
X127334730Y-103779239D01*
X127287200Y-104018186D01*
X125274591Y-104018186D01*
X125228387Y-103906640D01*
X125086446Y-103694210D01*
X125011016Y-103618780D01*
X125079000Y-103619072D01*
X125203482Y-103606812D01*
X125323180Y-103570502D01*
X125433494Y-103511537D01*
X125530185Y-103432185D01*
X125609537Y-103335494D01*
X125668502Y-103225180D01*
X125704812Y-103105482D01*
X125717072Y-102981000D01*
X125714000Y-102266750D01*
X125555250Y-102108000D01*
X124206000Y-102108000D01*
X124206000Y-102128000D01*
X123952000Y-102128000D01*
X123952000Y-102108000D01*
X122602750Y-102108000D01*
X122444000Y-102266750D01*
X122440928Y-102981000D01*
X119621072Y-102981000D01*
X119618000Y-102266750D01*
X119459250Y-102108000D01*
X118110000Y-102108000D01*
X118110000Y-102128000D01*
X117856000Y-102128000D01*
X117856000Y-102108000D01*
X116506750Y-102108000D01*
X116348000Y-102266750D01*
X116344928Y-102981000D01*
X115155000Y-102981000D01*
X115155000Y-100981000D01*
X116344928Y-100981000D01*
X116348000Y-101695250D01*
X116506750Y-101854000D01*
X117856000Y-101854000D01*
X117856000Y-100504750D01*
X118110000Y-100504750D01*
X118110000Y-101854000D01*
X119459250Y-101854000D01*
X119618000Y-101695250D01*
X119621072Y-100981000D01*
X122440928Y-100981000D01*
X122444000Y-101695250D01*
X122602750Y-101854000D01*
X123952000Y-101854000D01*
X123952000Y-100504750D01*
X124206000Y-100504750D01*
X124206000Y-101854000D01*
X125555250Y-101854000D01*
X125714000Y-101695250D01*
X125717072Y-100981000D01*
X125704812Y-100856518D01*
X125668502Y-100736820D01*
X125609537Y-100626506D01*
X125530185Y-100529815D01*
X125433494Y-100450463D01*
X125323180Y-100391498D01*
X125203482Y-100355188D01*
X125079000Y-100342928D01*
X124364750Y-100346000D01*
X124206000Y-100504750D01*
X123952000Y-100504750D01*
X123793250Y-100346000D01*
X123079000Y-100342928D01*
X122954518Y-100355188D01*
X122834820Y-100391498D01*
X122724506Y-100450463D01*
X122627815Y-100529815D01*
X122548463Y-100626506D01*
X122489498Y-100736820D01*
X122453188Y-100856518D01*
X122440928Y-100981000D01*
X119621072Y-100981000D01*
X119608812Y-100856518D01*
X119572502Y-100736820D01*
X119513537Y-100626506D01*
X119434185Y-100529815D01*
X119337494Y-100450463D01*
X119227180Y-100391498D01*
X119107482Y-100355188D01*
X118983000Y-100342928D01*
X118268750Y-100346000D01*
X118110000Y-100504750D01*
X117856000Y-100504750D01*
X117697250Y-100346000D01*
X116983000Y-100342928D01*
X116858518Y-100355188D01*
X116738820Y-100391498D01*
X116628506Y-100450463D01*
X116531815Y-100529815D01*
X116452463Y-100626506D01*
X116393498Y-100736820D01*
X116357188Y-100856518D01*
X116344928Y-100981000D01*
X115155000Y-100981000D01*
X115155000Y-99028039D01*
X115302096Y-99028039D01*
X115319633Y-99110818D01*
X115430285Y-99370646D01*
X115589500Y-99603895D01*
X115791161Y-99801601D01*
X116027517Y-99956166D01*
X116289486Y-100061650D01*
X116567000Y-100114000D01*
X116967000Y-100114000D01*
X116967000Y-98806000D01*
X117221000Y-98806000D01*
X117221000Y-100114000D01*
X117621000Y-100114000D01*
X117898514Y-100061650D01*
X118160483Y-99956166D01*
X118396839Y-99801601D01*
X118598500Y-99603895D01*
X118757715Y-99370646D01*
X118868367Y-99110818D01*
X118885904Y-99028039D01*
X118763915Y-98806000D01*
X117221000Y-98806000D01*
X116967000Y-98806000D01*
X115424085Y-98806000D01*
X115302096Y-99028039D01*
X115155000Y-99028039D01*
X115155000Y-98329961D01*
X115302096Y-98329961D01*
X115424085Y-98552000D01*
X116967000Y-98552000D01*
X116967000Y-98532000D01*
X117221000Y-98532000D01*
X117221000Y-98552000D01*
X118763915Y-98552000D01*
X118885904Y-98329961D01*
X118868367Y-98247182D01*
X118757715Y-97987354D01*
X118598500Y-97754105D01*
X118396839Y-97556399D01*
X118160483Y-97401834D01*
X117898514Y-97296350D01*
X117621000Y-97244000D01*
X116567000Y-97244000D01*
X116289486Y-97296350D01*
X116027517Y-97401834D01*
X115791161Y-97556399D01*
X115589500Y-97754105D01*
X115430285Y-97987354D01*
X115319633Y-98247182D01*
X115302096Y-98329961D01*
X115155000Y-98329961D01*
X115155000Y-96139000D01*
X115591693Y-96139000D01*
X115612874Y-96354049D01*
X115675601Y-96560835D01*
X115777465Y-96751409D01*
X115914551Y-96918449D01*
X116081591Y-97055535D01*
X116272165Y-97157399D01*
X116478951Y-97220126D01*
X116640118Y-97236000D01*
X117547882Y-97236000D01*
X117709049Y-97220126D01*
X117915835Y-97157399D01*
X118106409Y-97055535D01*
X118273449Y-96918449D01*
X118410535Y-96751409D01*
X118512399Y-96560835D01*
X118575126Y-96354049D01*
X118596307Y-96139000D01*
X118575126Y-95923951D01*
X118512399Y-95717165D01*
X118410535Y-95526591D01*
X118273449Y-95359551D01*
X118106409Y-95222465D01*
X117915835Y-95120601D01*
X117709049Y-95057874D01*
X117547882Y-95042000D01*
X116640118Y-95042000D01*
X116478951Y-95057874D01*
X116272165Y-95120601D01*
X116081591Y-95222465D01*
X115914551Y-95359551D01*
X115777465Y-95526591D01*
X115675601Y-95717165D01*
X115612874Y-95923951D01*
X115591693Y-96139000D01*
X115155000Y-96139000D01*
X115155000Y-91059000D01*
X115591693Y-91059000D01*
X115612874Y-91274049D01*
X115675601Y-91480835D01*
X115777465Y-91671409D01*
X115914551Y-91838449D01*
X116081591Y-91975535D01*
X116272165Y-92077399D01*
X116478951Y-92140126D01*
X116640118Y-92156000D01*
X117547882Y-92156000D01*
X117709049Y-92140126D01*
X117915835Y-92077399D01*
X118106409Y-91975535D01*
X118273449Y-91838449D01*
X118410535Y-91671409D01*
X118512399Y-91480835D01*
X118575126Y-91274049D01*
X118596307Y-91059000D01*
X118575126Y-90843951D01*
X118512399Y-90637165D01*
X118410535Y-90446591D01*
X118273449Y-90279551D01*
X118106409Y-90142465D01*
X117915835Y-90040601D01*
X117709049Y-89977874D01*
X117547882Y-89962000D01*
X116640118Y-89962000D01*
X116478951Y-89977874D01*
X116272165Y-90040601D01*
X116081591Y-90142465D01*
X115914551Y-90279551D01*
X115777465Y-90446591D01*
X115675601Y-90637165D01*
X115612874Y-90843951D01*
X115591693Y-91059000D01*
X115155000Y-91059000D01*
X115155000Y-82450400D01*
X115289995Y-82450400D01*
X115291801Y-82468735D01*
X115291800Y-86387275D01*
X115289995Y-86405600D01*
X115291800Y-86423925D01*
X115297201Y-86478759D01*
X115318541Y-86549107D01*
X115353195Y-86613941D01*
X115399831Y-86670769D01*
X115414078Y-86682461D01*
X116231543Y-87499927D01*
X116243231Y-87514169D01*
X116244631Y-87515318D01*
X116081591Y-87602465D01*
X115914551Y-87739551D01*
X115777465Y-87906591D01*
X115675601Y-88097165D01*
X115612874Y-88303951D01*
X115591693Y-88519000D01*
X115612874Y-88734049D01*
X115675601Y-88940835D01*
X115777465Y-89131409D01*
X115914551Y-89298449D01*
X116081591Y-89435535D01*
X116272165Y-89537399D01*
X116478951Y-89600126D01*
X116640118Y-89616000D01*
X117547882Y-89616000D01*
X117709049Y-89600126D01*
X117915835Y-89537399D01*
X118106409Y-89435535D01*
X118155066Y-89395603D01*
X118155101Y-89395959D01*
X118176442Y-89466308D01*
X118209898Y-89528900D01*
X118211096Y-89531142D01*
X118257732Y-89587969D01*
X118271974Y-89599657D01*
X123827487Y-95155172D01*
X123701591Y-95222465D01*
X123534551Y-95359551D01*
X123397465Y-95526591D01*
X123295601Y-95717165D01*
X123232874Y-95923951D01*
X123211693Y-96139000D01*
X123232874Y-96354049D01*
X123295601Y-96560835D01*
X123397465Y-96751409D01*
X123534551Y-96918449D01*
X123677544Y-97035800D01*
X122487484Y-97035800D01*
X118799761Y-93348078D01*
X118788069Y-93333831D01*
X118731242Y-93287195D01*
X118666408Y-93252541D01*
X118596060Y-93231201D01*
X118541226Y-93225800D01*
X118541225Y-93225800D01*
X118526719Y-93224371D01*
X118512399Y-93177165D01*
X118410535Y-92986591D01*
X118273449Y-92819551D01*
X118106409Y-92682465D01*
X117915835Y-92580601D01*
X117709049Y-92517874D01*
X117547882Y-92502000D01*
X116640118Y-92502000D01*
X116478951Y-92517874D01*
X116272165Y-92580601D01*
X116081591Y-92682465D01*
X115914551Y-92819551D01*
X115777465Y-92986591D01*
X115675601Y-93177165D01*
X115612874Y-93383951D01*
X115591693Y-93599000D01*
X115612874Y-93814049D01*
X115675601Y-94020835D01*
X115777465Y-94211409D01*
X115914551Y-94378449D01*
X116081591Y-94515535D01*
X116272165Y-94617399D01*
X116478951Y-94680126D01*
X116640118Y-94696000D01*
X117547882Y-94696000D01*
X117709049Y-94680126D01*
X117915835Y-94617399D01*
X118106409Y-94515535D01*
X118273449Y-94378449D01*
X118410535Y-94211409D01*
X118479152Y-94083035D01*
X122056043Y-97659927D01*
X122067731Y-97674169D01*
X122119727Y-97716840D01*
X122124558Y-97720805D01*
X122189392Y-97755459D01*
X122259740Y-97776799D01*
X122332900Y-97784005D01*
X122351225Y-97782200D01*
X123677544Y-97782200D01*
X123534551Y-97899551D01*
X123397465Y-98066591D01*
X123295601Y-98257165D01*
X123232874Y-98463951D01*
X123211693Y-98679000D01*
X123232874Y-98894049D01*
X123295601Y-99100835D01*
X123397465Y-99291409D01*
X123534551Y-99458449D01*
X123701591Y-99595535D01*
X123892165Y-99697399D01*
X124098951Y-99760126D01*
X124260118Y-99776000D01*
X125167882Y-99776000D01*
X125329049Y-99760126D01*
X125535835Y-99697399D01*
X125726409Y-99595535D01*
X125893449Y-99458449D01*
X126030535Y-99291409D01*
X126132399Y-99100835D01*
X126195126Y-98894049D01*
X126203881Y-98805164D01*
X126257700Y-98858984D01*
X126257700Y-98889375D01*
X126255895Y-98907700D01*
X126257700Y-98926025D01*
X126257700Y-98926026D01*
X126263101Y-98980860D01*
X126284441Y-99051208D01*
X126319095Y-99116042D01*
X126365731Y-99172869D01*
X126379977Y-99184560D01*
X127776343Y-100580927D01*
X127788031Y-100595169D01*
X127794145Y-100600187D01*
X127735586Y-100639315D01*
X127563315Y-100811586D01*
X127427962Y-101014156D01*
X127334730Y-101239239D01*
X127287200Y-101478186D01*
X127287200Y-101721814D01*
X127334730Y-101960761D01*
X127427962Y-102185844D01*
X127563315Y-102388414D01*
X127735586Y-102560685D01*
X127938156Y-102696038D01*
X128163239Y-102789270D01*
X128402186Y-102836800D01*
X128645814Y-102836800D01*
X128884761Y-102789270D01*
X129097406Y-102701190D01*
X129430348Y-103034133D01*
X129442031Y-103048369D01*
X129498858Y-103095005D01*
X129563692Y-103129659D01*
X129634040Y-103150999D01*
X129707199Y-103158205D01*
X129725525Y-103156400D01*
X130309881Y-103156400D01*
X130275586Y-103179315D01*
X130103315Y-103351586D01*
X129967962Y-103554156D01*
X129874730Y-103779239D01*
X129827200Y-104018186D01*
X129827200Y-104261814D01*
X129874730Y-104500761D01*
X129967962Y-104725844D01*
X130103315Y-104928414D01*
X130275586Y-105100685D01*
X130478156Y-105236038D01*
X130703239Y-105329270D01*
X130942186Y-105376800D01*
X131185814Y-105376800D01*
X131424761Y-105329270D01*
X131649844Y-105236038D01*
X131852414Y-105100685D01*
X132024685Y-104928414D01*
X132160038Y-104725844D01*
X132253270Y-104500761D01*
X132300800Y-104261814D01*
X132300800Y-104018186D01*
X132253270Y-103779239D01*
X132160038Y-103554156D01*
X132024685Y-103351586D01*
X131852414Y-103179315D01*
X131774636Y-103127346D01*
X131835142Y-103095005D01*
X131891969Y-103048369D01*
X131903661Y-103034122D01*
X132485227Y-102452557D01*
X132499469Y-102440869D01*
X132546105Y-102384042D01*
X132580759Y-102319208D01*
X132602099Y-102248860D01*
X132607500Y-102194026D01*
X132609305Y-102175700D01*
X132607500Y-102157375D01*
X132607500Y-93452125D01*
X132609305Y-93433800D01*
X132602099Y-93360640D01*
X132580759Y-93290292D01*
X132546105Y-93225458D01*
X132535307Y-93212301D01*
X132499469Y-93168631D01*
X132485228Y-93156944D01*
X131787361Y-92459078D01*
X131779450Y-92449438D01*
X131852414Y-92400685D01*
X132024685Y-92228414D01*
X132160038Y-92025844D01*
X132253270Y-91800761D01*
X132300800Y-91561814D01*
X132300800Y-91318186D01*
X132253270Y-91079239D01*
X132160038Y-90854156D01*
X132024685Y-90651586D01*
X131852414Y-90479315D01*
X131649844Y-90343962D01*
X131424761Y-90250730D01*
X131185814Y-90203200D01*
X130942186Y-90203200D01*
X130703239Y-90250730D01*
X130478156Y-90343962D01*
X130275586Y-90479315D01*
X130103315Y-90651586D01*
X130066000Y-90707432D01*
X130066000Y-89547225D01*
X130067805Y-89528900D01*
X130060599Y-89455740D01*
X130039259Y-89385392D01*
X130004605Y-89320558D01*
X129957969Y-89263731D01*
X129943729Y-89252045D01*
X126419761Y-85728078D01*
X126408069Y-85713831D01*
X126351242Y-85667195D01*
X126286408Y-85632541D01*
X126216060Y-85611201D01*
X126161226Y-85605800D01*
X126161225Y-85605800D01*
X126146719Y-85604371D01*
X126132399Y-85557165D01*
X126030535Y-85366591D01*
X125893449Y-85199551D01*
X125726409Y-85062465D01*
X125535835Y-84960601D01*
X125329049Y-84897874D01*
X125167882Y-84882000D01*
X124260118Y-84882000D01*
X124098951Y-84897874D01*
X123892165Y-84960601D01*
X123701591Y-85062465D01*
X123534551Y-85199551D01*
X123397465Y-85366591D01*
X123295601Y-85557165D01*
X123232874Y-85763951D01*
X123211693Y-85979000D01*
X123232874Y-86194049D01*
X123295601Y-86400835D01*
X123397465Y-86591409D01*
X123534551Y-86758449D01*
X123701591Y-86895535D01*
X123892165Y-86997399D01*
X124098951Y-87060126D01*
X124260118Y-87076000D01*
X125167882Y-87076000D01*
X125329049Y-87060126D01*
X125535835Y-86997399D01*
X125726409Y-86895535D01*
X125893449Y-86758449D01*
X126030535Y-86591409D01*
X126099152Y-86463035D01*
X129319600Y-89683484D01*
X129319600Y-90075383D01*
X129069024Y-89954403D01*
X128768725Y-89876619D01*
X128459023Y-89858916D01*
X128151816Y-89901973D01*
X127858914Y-90004135D01*
X127699623Y-90089277D01*
X127611129Y-90347524D01*
X128524000Y-91260395D01*
X128538143Y-91246253D01*
X128717748Y-91425858D01*
X128703605Y-91440000D01*
X129616476Y-92352871D01*
X129676291Y-92332374D01*
X130304848Y-92960933D01*
X130316531Y-92975169D01*
X130327806Y-92984422D01*
X130275586Y-93019315D01*
X130103315Y-93191586D01*
X130035205Y-93293520D01*
X129395344Y-92653661D01*
X129436871Y-92532476D01*
X128524000Y-91619605D01*
X128035645Y-92107960D01*
X127856040Y-91928355D01*
X128344395Y-91440000D01*
X127431524Y-90527129D01*
X127173277Y-90615623D01*
X127038403Y-90894976D01*
X126994018Y-91066334D01*
X126513987Y-90586304D01*
X126510799Y-90553940D01*
X126489459Y-90483593D01*
X126489459Y-90483592D01*
X126454805Y-90418758D01*
X126408169Y-90361931D01*
X126393934Y-90350249D01*
X125581761Y-89538078D01*
X125570069Y-89523831D01*
X125566578Y-89520966D01*
X125726409Y-89435535D01*
X125893449Y-89298449D01*
X126030535Y-89131409D01*
X126132399Y-88940835D01*
X126195126Y-88734049D01*
X126216307Y-88519000D01*
X126195126Y-88303951D01*
X126132399Y-88097165D01*
X126030535Y-87906591D01*
X125893449Y-87739551D01*
X125726409Y-87602465D01*
X125535835Y-87500601D01*
X125329049Y-87437874D01*
X125167882Y-87422000D01*
X124260118Y-87422000D01*
X124098951Y-87437874D01*
X123892165Y-87500601D01*
X123701591Y-87602465D01*
X123534551Y-87739551D01*
X123397465Y-87906591D01*
X123295601Y-88097165D01*
X123232874Y-88303951D01*
X123224900Y-88384915D01*
X118896100Y-84056117D01*
X118896100Y-83457326D01*
X118897905Y-83439000D01*
X123211693Y-83439000D01*
X123232874Y-83654049D01*
X123295601Y-83860835D01*
X123397465Y-84051409D01*
X123534551Y-84218449D01*
X123701591Y-84355535D01*
X123892165Y-84457399D01*
X124098951Y-84520126D01*
X124260118Y-84536000D01*
X125167882Y-84536000D01*
X125329049Y-84520126D01*
X125535835Y-84457399D01*
X125726409Y-84355535D01*
X125893449Y-84218449D01*
X126030535Y-84051409D01*
X126132399Y-83860835D01*
X126147152Y-83812200D01*
X127988417Y-83812200D01*
X152822810Y-108646594D01*
X152734730Y-108859239D01*
X152687200Y-109098186D01*
X152687200Y-109341814D01*
X152734730Y-109580761D01*
X152827962Y-109805844D01*
X152963315Y-110008414D01*
X153135586Y-110180685D01*
X153338156Y-110316038D01*
X153563239Y-110409270D01*
X153802186Y-110456800D01*
X154045814Y-110456800D01*
X154284761Y-110409270D01*
X154509844Y-110316038D01*
X154712414Y-110180685D01*
X154884685Y-110008414D01*
X155020038Y-109805844D01*
X155113270Y-109580761D01*
X155160800Y-109341814D01*
X155160800Y-109098186D01*
X155227200Y-109098186D01*
X155227200Y-109341814D01*
X155274730Y-109580761D01*
X155367962Y-109805844D01*
X155503315Y-110008414D01*
X155675586Y-110180685D01*
X155878156Y-110316038D01*
X156103239Y-110409270D01*
X156342186Y-110456800D01*
X156585814Y-110456800D01*
X156824761Y-110409270D01*
X157049844Y-110316038D01*
X157252414Y-110180685D01*
X157424685Y-110008414D01*
X157560038Y-109805844D01*
X157653270Y-109580761D01*
X157700800Y-109341814D01*
X157700800Y-109098186D01*
X157653270Y-108859239D01*
X157560038Y-108634156D01*
X157424685Y-108431586D01*
X157252414Y-108259315D01*
X157049844Y-108123962D01*
X156824761Y-108030730D01*
X156585814Y-107983200D01*
X156342186Y-107983200D01*
X156103239Y-108030730D01*
X155878156Y-108123962D01*
X155675586Y-108259315D01*
X155503315Y-108431586D01*
X155367962Y-108634156D01*
X155274730Y-108859239D01*
X155227200Y-109098186D01*
X155160800Y-109098186D01*
X155113270Y-108859239D01*
X155020038Y-108634156D01*
X154884685Y-108431586D01*
X154712414Y-108259315D01*
X154529060Y-108136802D01*
X154589086Y-108115865D01*
X154748377Y-108030723D01*
X154771583Y-107963000D01*
X161352563Y-107963000D01*
X161352563Y-109713000D01*
X161375110Y-109941926D01*
X161441886Y-110162055D01*
X161550323Y-110364927D01*
X161696255Y-110542745D01*
X161874073Y-110688677D01*
X162076945Y-110797114D01*
X162297074Y-110863890D01*
X162526000Y-110886437D01*
X164276000Y-110886437D01*
X164504926Y-110863890D01*
X164725055Y-110797114D01*
X164927927Y-110688677D01*
X165105745Y-110542745D01*
X165251677Y-110364927D01*
X165360114Y-110162055D01*
X165426890Y-109941926D01*
X165449437Y-109713000D01*
X165449437Y-107963000D01*
X165426890Y-107734074D01*
X165360114Y-107513945D01*
X165251677Y-107311073D01*
X165105745Y-107133255D01*
X164927927Y-106987323D01*
X164725055Y-106878886D01*
X164504926Y-106812110D01*
X164276000Y-106789563D01*
X162526000Y-106789563D01*
X162297074Y-106812110D01*
X162076945Y-106878886D01*
X161874073Y-106987323D01*
X161696255Y-107133255D01*
X161550323Y-107311073D01*
X161441886Y-107513945D01*
X161375110Y-107734074D01*
X161352563Y-107963000D01*
X154771583Y-107963000D01*
X154836871Y-107772476D01*
X153924000Y-106859605D01*
X153909858Y-106873748D01*
X153730253Y-106694143D01*
X153744395Y-106680000D01*
X154103605Y-106680000D01*
X155016476Y-107592871D01*
X155274723Y-107504377D01*
X155380691Y-107284894D01*
X155503315Y-107468414D01*
X155675586Y-107640685D01*
X155878156Y-107776038D01*
X156103239Y-107869270D01*
X156342186Y-107916800D01*
X156585814Y-107916800D01*
X156824761Y-107869270D01*
X157049844Y-107776038D01*
X157252414Y-107640685D01*
X157424685Y-107468414D01*
X157560038Y-107265844D01*
X157653270Y-107040761D01*
X157700800Y-106801814D01*
X157700800Y-106558186D01*
X157653270Y-106319239D01*
X157560038Y-106094156D01*
X157424685Y-105891586D01*
X157252414Y-105719315D01*
X157049844Y-105583962D01*
X156824761Y-105490730D01*
X156585814Y-105443200D01*
X156342186Y-105443200D01*
X156103239Y-105490730D01*
X155878156Y-105583962D01*
X155675586Y-105719315D01*
X155503315Y-105891586D01*
X155380802Y-106074940D01*
X155359865Y-106014914D01*
X155274723Y-105855623D01*
X155016476Y-105767129D01*
X154103605Y-106680000D01*
X153744395Y-106680000D01*
X152831524Y-105767129D01*
X152573277Y-105855623D01*
X152438403Y-106134976D01*
X152360619Y-106435275D01*
X152342916Y-106744977D01*
X152385973Y-107052184D01*
X152440608Y-107208824D01*
X144169970Y-98938186D01*
X152687200Y-98938186D01*
X152687200Y-99181814D01*
X152734730Y-99420761D01*
X152827962Y-99645844D01*
X152963315Y-99848414D01*
X153135586Y-100020685D01*
X153338156Y-100156038D01*
X153563239Y-100249270D01*
X153802186Y-100296800D01*
X154045814Y-100296800D01*
X154284761Y-100249270D01*
X154509844Y-100156038D01*
X154712414Y-100020685D01*
X154884685Y-99848414D01*
X155020038Y-99645844D01*
X155113270Y-99420761D01*
X155160800Y-99181814D01*
X155160800Y-98938186D01*
X155113270Y-98699239D01*
X155020038Y-98474156D01*
X154884685Y-98271586D01*
X154712414Y-98099315D01*
X154509844Y-97963962D01*
X154284761Y-97870730D01*
X154045814Y-97823200D01*
X153802186Y-97823200D01*
X153563239Y-97870730D01*
X153338156Y-97963962D01*
X153135586Y-98099315D01*
X152963315Y-98271586D01*
X152827962Y-98474156D01*
X152734730Y-98699239D01*
X152687200Y-98938186D01*
X144169970Y-98938186D01*
X141629970Y-96398186D01*
X152687200Y-96398186D01*
X152687200Y-96641814D01*
X152734730Y-96880761D01*
X152827962Y-97105844D01*
X152963315Y-97308414D01*
X153135586Y-97480685D01*
X153338156Y-97616038D01*
X153563239Y-97709270D01*
X153802186Y-97756800D01*
X154045814Y-97756800D01*
X154284761Y-97709270D01*
X154509844Y-97616038D01*
X154712414Y-97480685D01*
X154884685Y-97308414D01*
X155020038Y-97105844D01*
X155113270Y-96880761D01*
X155160800Y-96641814D01*
X155160800Y-96398186D01*
X155113270Y-96159239D01*
X155020038Y-95934156D01*
X154884685Y-95731586D01*
X154712414Y-95559315D01*
X154509844Y-95423962D01*
X154284761Y-95330730D01*
X154045814Y-95283200D01*
X153802186Y-95283200D01*
X153563239Y-95330730D01*
X153338156Y-95423962D01*
X153135586Y-95559315D01*
X152963315Y-95731586D01*
X152827962Y-95934156D01*
X152734730Y-96159239D01*
X152687200Y-96398186D01*
X141629970Y-96398186D01*
X139089970Y-93858186D01*
X152687200Y-93858186D01*
X152687200Y-94101814D01*
X152734730Y-94340761D01*
X152827962Y-94565844D01*
X152963315Y-94768414D01*
X153135586Y-94940685D01*
X153338156Y-95076038D01*
X153563239Y-95169270D01*
X153802186Y-95216800D01*
X154045814Y-95216800D01*
X154284761Y-95169270D01*
X154509844Y-95076038D01*
X154712414Y-94940685D01*
X154884685Y-94768414D01*
X155020038Y-94565844D01*
X155113270Y-94340761D01*
X155160800Y-94101814D01*
X155160800Y-93858186D01*
X155227200Y-93858186D01*
X155227200Y-94101814D01*
X155274730Y-94340761D01*
X155367962Y-94565844D01*
X155503315Y-94768414D01*
X155675586Y-94940685D01*
X155878156Y-95076038D01*
X156103239Y-95169270D01*
X156342186Y-95216800D01*
X156585814Y-95216800D01*
X156824761Y-95169270D01*
X157049844Y-95076038D01*
X157252414Y-94940685D01*
X157424685Y-94768414D01*
X157560038Y-94565844D01*
X157653270Y-94340761D01*
X157700800Y-94101814D01*
X157700800Y-93858186D01*
X157653270Y-93619239D01*
X157565190Y-93406594D01*
X159251542Y-91720242D01*
X159348551Y-91838449D01*
X159515591Y-91975535D01*
X159706165Y-92077399D01*
X159912951Y-92140126D01*
X160074118Y-92156000D01*
X160981882Y-92156000D01*
X161143049Y-92140126D01*
X161349835Y-92077399D01*
X161540409Y-91975535D01*
X161707449Y-91838449D01*
X161844535Y-91671409D01*
X161946399Y-91480835D01*
X162009126Y-91274049D01*
X162030307Y-91059000D01*
X162009126Y-90843951D01*
X161946399Y-90637165D01*
X161844535Y-90446591D01*
X161707449Y-90279551D01*
X161540409Y-90142465D01*
X161349835Y-90040601D01*
X161143049Y-89977874D01*
X160981882Y-89962000D01*
X160074118Y-89962000D01*
X159912951Y-89977874D01*
X159706165Y-90040601D01*
X159515591Y-90142465D01*
X159472300Y-90177993D01*
X159472300Y-89400007D01*
X159515591Y-89435535D01*
X159706165Y-89537399D01*
X159912951Y-89600126D01*
X160074118Y-89616000D01*
X160981882Y-89616000D01*
X161143049Y-89600126D01*
X161349835Y-89537399D01*
X161540409Y-89435535D01*
X161707449Y-89298449D01*
X161844535Y-89131409D01*
X161946399Y-88940835D01*
X162009126Y-88734049D01*
X162030307Y-88519000D01*
X162009126Y-88303951D01*
X161946399Y-88097165D01*
X161844535Y-87906591D01*
X161707449Y-87739551D01*
X161540409Y-87602465D01*
X161349835Y-87500601D01*
X161143049Y-87437874D01*
X160981882Y-87422000D01*
X160074118Y-87422000D01*
X159912951Y-87437874D01*
X159706165Y-87500601D01*
X159515591Y-87602465D01*
X159472300Y-87637993D01*
X159472300Y-86860007D01*
X159515591Y-86895535D01*
X159706165Y-86997399D01*
X159912951Y-87060126D01*
X160074118Y-87076000D01*
X160981882Y-87076000D01*
X161143049Y-87060126D01*
X161349835Y-86997399D01*
X161540409Y-86895535D01*
X161707449Y-86758449D01*
X161844535Y-86591409D01*
X161946399Y-86400835D01*
X162009126Y-86194049D01*
X162030307Y-85979000D01*
X162009126Y-85763951D01*
X161946399Y-85557165D01*
X161844535Y-85366591D01*
X161707449Y-85199551D01*
X161540409Y-85062465D01*
X161349835Y-84960601D01*
X161143049Y-84897874D01*
X160981882Y-84882000D01*
X160074118Y-84882000D01*
X159912951Y-84897874D01*
X159706165Y-84960601D01*
X159515591Y-85062465D01*
X159472300Y-85097993D01*
X159472300Y-84537437D01*
X161728000Y-84537437D01*
X161786222Y-84531703D01*
X161842207Y-84514720D01*
X161893803Y-84487141D01*
X161939027Y-84450027D01*
X161976141Y-84404803D01*
X162003720Y-84353207D01*
X162020703Y-84297222D01*
X162026437Y-84239000D01*
X162026437Y-82639000D01*
X162020703Y-82580778D01*
X162003720Y-82524793D01*
X161976141Y-82473197D01*
X161939027Y-82427973D01*
X161893803Y-82390859D01*
X161842207Y-82363280D01*
X161786222Y-82346297D01*
X161728000Y-82340563D01*
X159328000Y-82340563D01*
X159269778Y-82346297D01*
X159213793Y-82363280D01*
X159162197Y-82390859D01*
X159116973Y-82427973D01*
X159079859Y-82473197D01*
X159052280Y-82524793D01*
X159035297Y-82580778D01*
X159029563Y-82639000D01*
X159029563Y-83070844D01*
X159025940Y-83071201D01*
X158955592Y-83092541D01*
X158890758Y-83127195D01*
X158833931Y-83173831D01*
X158787295Y-83230658D01*
X158752641Y-83295492D01*
X158731301Y-83365840D01*
X158724095Y-83439000D01*
X158725900Y-83457326D01*
X158725901Y-91190315D01*
X157956031Y-91960186D01*
X158027381Y-91684725D01*
X158045084Y-91375023D01*
X158002027Y-91067816D01*
X157899865Y-90774914D01*
X157814723Y-90615623D01*
X157556476Y-90527129D01*
X156643605Y-91440000D01*
X156657748Y-91454143D01*
X156478143Y-91633748D01*
X156464000Y-91619605D01*
X155551129Y-92532476D01*
X155639623Y-92790723D01*
X155859106Y-92896691D01*
X155675586Y-93019315D01*
X155503315Y-93191586D01*
X155367962Y-93394156D01*
X155274730Y-93619239D01*
X155227200Y-93858186D01*
X155160800Y-93858186D01*
X155113270Y-93619239D01*
X155020038Y-93394156D01*
X154884685Y-93191586D01*
X154712414Y-93019315D01*
X154509844Y-92883962D01*
X154284761Y-92790730D01*
X154045814Y-92743200D01*
X153802186Y-92743200D01*
X153563239Y-92790730D01*
X153338156Y-92883962D01*
X153135586Y-93019315D01*
X152963315Y-93191586D01*
X152827962Y-93394156D01*
X152734730Y-93619239D01*
X152687200Y-93858186D01*
X139089970Y-93858186D01*
X136549970Y-91318186D01*
X152687200Y-91318186D01*
X152687200Y-91561814D01*
X152734730Y-91800761D01*
X152827962Y-92025844D01*
X152963315Y-92228414D01*
X153135586Y-92400685D01*
X153338156Y-92536038D01*
X153563239Y-92629270D01*
X153802186Y-92676800D01*
X154045814Y-92676800D01*
X154284761Y-92629270D01*
X154509844Y-92536038D01*
X154712414Y-92400685D01*
X154884685Y-92228414D01*
X155007198Y-92045060D01*
X155028135Y-92105086D01*
X155113277Y-92264377D01*
X155371524Y-92352871D01*
X156284395Y-91440000D01*
X155371524Y-90527129D01*
X155113277Y-90615623D01*
X155007309Y-90835106D01*
X154884685Y-90651586D01*
X154712414Y-90479315D01*
X154515175Y-90347524D01*
X155551129Y-90347524D01*
X156464000Y-91260395D01*
X157376871Y-90347524D01*
X157288377Y-90089277D01*
X157009024Y-89954403D01*
X156708725Y-89876619D01*
X156399023Y-89858916D01*
X156091816Y-89901973D01*
X155798914Y-90004135D01*
X155639623Y-90089277D01*
X155551129Y-90347524D01*
X154515175Y-90347524D01*
X154509844Y-90343962D01*
X154284761Y-90250730D01*
X154045814Y-90203200D01*
X153802186Y-90203200D01*
X153563239Y-90250730D01*
X153338156Y-90343962D01*
X153135586Y-90479315D01*
X152963315Y-90651586D01*
X152827962Y-90854156D01*
X152734730Y-91079239D01*
X152687200Y-91318186D01*
X136549970Y-91318186D01*
X128419861Y-83188078D01*
X128408169Y-83173831D01*
X128351342Y-83127195D01*
X128286508Y-83092541D01*
X128216160Y-83071201D01*
X128161326Y-83065800D01*
X128161325Y-83065800D01*
X128143000Y-83063995D01*
X128124675Y-83065800D01*
X126147152Y-83065800D01*
X126132399Y-83017165D01*
X126030535Y-82826591D01*
X125893449Y-82659551D01*
X125726409Y-82522465D01*
X125535835Y-82420601D01*
X125329049Y-82357874D01*
X125167882Y-82342000D01*
X124260118Y-82342000D01*
X124098951Y-82357874D01*
X123892165Y-82420601D01*
X123701591Y-82522465D01*
X123534551Y-82659551D01*
X123397465Y-82826591D01*
X123295601Y-83017165D01*
X123232874Y-83223951D01*
X123211693Y-83439000D01*
X118897905Y-83439000D01*
X118890699Y-83365840D01*
X118869359Y-83295492D01*
X118834705Y-83230658D01*
X118788069Y-83173831D01*
X118731242Y-83127195D01*
X118666408Y-83092541D01*
X118596060Y-83071201D01*
X118592437Y-83070844D01*
X118592437Y-82639000D01*
X118586703Y-82580778D01*
X118569720Y-82524793D01*
X118542141Y-82473197D01*
X118505027Y-82427973D01*
X118459803Y-82390859D01*
X118408207Y-82363280D01*
X118352222Y-82346297D01*
X118294000Y-82340563D01*
X116302620Y-82340563D01*
X120377003Y-78266180D01*
X120363859Y-78282197D01*
X120336280Y-78333793D01*
X120319297Y-78389778D01*
X120313563Y-78448000D01*
X120313563Y-80048000D01*
X120319297Y-80106222D01*
X120336280Y-80162207D01*
X120363859Y-80213803D01*
X120400973Y-80259027D01*
X120446197Y-80296141D01*
X120497793Y-80323720D01*
X120553778Y-80340703D01*
X120612000Y-80346437D01*
X122212000Y-80346437D01*
X122270222Y-80340703D01*
X122326207Y-80323720D01*
X122377803Y-80296141D01*
X122423027Y-80259027D01*
X122460141Y-80213803D01*
X122487720Y-80162207D01*
X122504703Y-80106222D01*
X122510437Y-80048000D01*
X122510437Y-79139955D01*
X123085000Y-79139955D01*
X123085000Y-79356045D01*
X123127157Y-79567983D01*
X123209851Y-79767624D01*
X123329904Y-79947297D01*
X123482703Y-80100096D01*
X123662376Y-80220149D01*
X123862017Y-80302843D01*
X124073955Y-80345000D01*
X124290045Y-80345000D01*
X124501983Y-80302843D01*
X124701624Y-80220149D01*
X124881297Y-80100096D01*
X125034096Y-79947297D01*
X125154149Y-79767624D01*
X125236843Y-79567983D01*
X125279000Y-79356045D01*
X125279000Y-79139955D01*
X125855000Y-79139955D01*
X125855000Y-79356045D01*
X125897157Y-79567983D01*
X125979851Y-79767624D01*
X126099904Y-79947297D01*
X126252703Y-80100096D01*
X126432376Y-80220149D01*
X126632017Y-80302843D01*
X126843955Y-80345000D01*
X127060045Y-80345000D01*
X127271983Y-80302843D01*
X127471624Y-80220149D01*
X127651297Y-80100096D01*
X127804096Y-79947297D01*
X127924149Y-79767624D01*
X128006843Y-79567983D01*
X128049000Y-79356045D01*
X128049000Y-79139955D01*
X128625000Y-79139955D01*
X128625000Y-79356045D01*
X128667157Y-79567983D01*
X128749851Y-79767624D01*
X128869904Y-79947297D01*
X129022703Y-80100096D01*
X129202376Y-80220149D01*
X129402017Y-80302843D01*
X129613955Y-80345000D01*
X129830045Y-80345000D01*
X130041983Y-80302843D01*
X130241624Y-80220149D01*
X130421297Y-80100096D01*
X130574096Y-79947297D01*
X130694149Y-79767624D01*
X130776843Y-79567983D01*
X130819000Y-79356045D01*
X130819000Y-79139955D01*
X131395000Y-79139955D01*
X131395000Y-79356045D01*
X131437157Y-79567983D01*
X131519851Y-79767624D01*
X131639904Y-79947297D01*
X131792703Y-80100096D01*
X131972376Y-80220149D01*
X132172017Y-80302843D01*
X132383955Y-80345000D01*
X132600045Y-80345000D01*
X132811983Y-80302843D01*
X132958408Y-80242192D01*
X134539343Y-81823127D01*
X134551031Y-81837369D01*
X134607858Y-81884005D01*
X134672692Y-81918659D01*
X134743040Y-81939999D01*
X134816199Y-81947205D01*
X134834525Y-81945400D01*
X168020817Y-81945400D01*
X168417416Y-82342000D01*
X167694118Y-82342000D01*
X167532951Y-82357874D01*
X167326165Y-82420601D01*
X167135591Y-82522465D01*
X166968551Y-82659551D01*
X166831465Y-82826591D01*
X166729601Y-83017165D01*
X166666874Y-83223951D01*
X166645693Y-83439000D01*
X166666874Y-83654049D01*
X166729601Y-83860835D01*
X166831465Y-84051409D01*
X166968551Y-84218449D01*
X167135591Y-84355535D01*
X167326165Y-84457399D01*
X167532951Y-84520126D01*
X167694118Y-84536000D01*
X168601882Y-84536000D01*
X168763049Y-84520126D01*
X168969835Y-84457399D01*
X169160409Y-84355535D01*
X169203701Y-84320006D01*
X169203701Y-85097993D01*
X169160409Y-85062465D01*
X168969835Y-84960601D01*
X168763049Y-84897874D01*
X168601882Y-84882000D01*
X167694118Y-84882000D01*
X167532951Y-84897874D01*
X167326165Y-84960601D01*
X167135591Y-85062465D01*
X166968551Y-85199551D01*
X166831465Y-85366591D01*
X166729601Y-85557165D01*
X166715281Y-85604371D01*
X166700774Y-85605800D01*
X166645940Y-85611201D01*
X166575592Y-85632541D01*
X166510758Y-85667195D01*
X166453931Y-85713831D01*
X166407295Y-85770658D01*
X166372641Y-85835492D01*
X166351301Y-85905840D01*
X166344095Y-85979000D01*
X166345900Y-85997326D01*
X166345901Y-89126715D01*
X162016258Y-93456359D01*
X162009126Y-93383951D01*
X161946399Y-93177165D01*
X161844535Y-92986591D01*
X161707449Y-92819551D01*
X161540409Y-92682465D01*
X161349835Y-92580601D01*
X161143049Y-92517874D01*
X160981882Y-92502000D01*
X160074118Y-92502000D01*
X159912951Y-92517874D01*
X159706165Y-92580601D01*
X159515591Y-92682465D01*
X159348551Y-92819551D01*
X159211465Y-92986591D01*
X159109601Y-93177165D01*
X159046874Y-93383951D01*
X159025693Y-93599000D01*
X159046874Y-93814049D01*
X159109601Y-94020835D01*
X159211465Y-94211409D01*
X159348551Y-94378449D01*
X159515591Y-94515535D01*
X159677481Y-94602067D01*
X159675331Y-94603831D01*
X159663643Y-94618073D01*
X157766478Y-96515239D01*
X157752231Y-96526931D01*
X157705595Y-96583759D01*
X157700800Y-96592730D01*
X157700800Y-96398186D01*
X157653270Y-96159239D01*
X157560038Y-95934156D01*
X157424685Y-95731586D01*
X157252414Y-95559315D01*
X157049844Y-95423962D01*
X156824761Y-95330730D01*
X156585814Y-95283200D01*
X156342186Y-95283200D01*
X156103239Y-95330730D01*
X155878156Y-95423962D01*
X155675586Y-95559315D01*
X155503315Y-95731586D01*
X155367962Y-95934156D01*
X155274730Y-96159239D01*
X155227200Y-96398186D01*
X155227200Y-96641814D01*
X155274730Y-96880761D01*
X155367962Y-97105844D01*
X155503315Y-97308414D01*
X155675586Y-97480685D01*
X155878156Y-97616038D01*
X156103239Y-97709270D01*
X156342186Y-97756800D01*
X156585814Y-97756800D01*
X156824761Y-97709270D01*
X157049844Y-97616038D01*
X157252414Y-97480685D01*
X157424685Y-97308414D01*
X157560038Y-97105844D01*
X157644200Y-96902658D01*
X157644201Y-98677344D01*
X157560038Y-98474156D01*
X157424685Y-98271586D01*
X157252414Y-98099315D01*
X157049844Y-97963962D01*
X156824761Y-97870730D01*
X156585814Y-97823200D01*
X156342186Y-97823200D01*
X156103239Y-97870730D01*
X155878156Y-97963962D01*
X155675586Y-98099315D01*
X155503315Y-98271586D01*
X155367962Y-98474156D01*
X155274730Y-98699239D01*
X155227200Y-98938186D01*
X155227200Y-99181814D01*
X155274730Y-99420761D01*
X155367962Y-99645844D01*
X155503315Y-99848414D01*
X155675586Y-100020685D01*
X155790136Y-100097225D01*
X155748658Y-100119395D01*
X155691831Y-100166031D01*
X155680143Y-100180273D01*
X154950433Y-100909984D01*
X154884685Y-100811586D01*
X154712414Y-100639315D01*
X154509844Y-100503962D01*
X154284761Y-100410730D01*
X154045814Y-100363200D01*
X153802186Y-100363200D01*
X153563239Y-100410730D01*
X153338156Y-100503962D01*
X153135586Y-100639315D01*
X152963315Y-100811586D01*
X152827962Y-101014156D01*
X152734730Y-101239239D01*
X152687200Y-101478186D01*
X152687200Y-101721814D01*
X152734730Y-101960761D01*
X152827962Y-102185844D01*
X152963315Y-102388414D01*
X153135586Y-102560685D01*
X153338156Y-102696038D01*
X153563239Y-102789270D01*
X153802186Y-102836800D01*
X154045814Y-102836800D01*
X154284761Y-102789270D01*
X154509844Y-102696038D01*
X154712414Y-102560685D01*
X154820801Y-102452298D01*
X154820801Y-102715415D01*
X154497406Y-103038810D01*
X154284761Y-102950730D01*
X154045814Y-102903200D01*
X153802186Y-102903200D01*
X153563239Y-102950730D01*
X153338156Y-103043962D01*
X153135586Y-103179315D01*
X152963315Y-103351586D01*
X152827962Y-103554156D01*
X152734730Y-103779239D01*
X152687200Y-104018186D01*
X152687200Y-104261814D01*
X152734730Y-104500761D01*
X152827962Y-104725844D01*
X152963315Y-104928414D01*
X153135586Y-105100685D01*
X153318940Y-105223198D01*
X153258914Y-105244135D01*
X153099623Y-105329277D01*
X153011129Y-105587524D01*
X153924000Y-106500395D01*
X154836871Y-105587524D01*
X154748377Y-105329277D01*
X154528894Y-105223309D01*
X154712414Y-105100685D01*
X154884685Y-104928414D01*
X155020038Y-104725844D01*
X155113270Y-104500761D01*
X155160800Y-104261814D01*
X155160800Y-104018186D01*
X155227200Y-104018186D01*
X155227200Y-104261814D01*
X155274730Y-104500761D01*
X155367962Y-104725844D01*
X155503315Y-104928414D01*
X155675586Y-105100685D01*
X155878156Y-105236038D01*
X156103239Y-105329270D01*
X156342186Y-105376800D01*
X156585814Y-105376800D01*
X156824761Y-105329270D01*
X157049844Y-105236038D01*
X157252414Y-105100685D01*
X157424685Y-104928414D01*
X157560038Y-104725844D01*
X157653270Y-104500761D01*
X157700800Y-104261814D01*
X157700800Y-104018186D01*
X157653270Y-103779239D01*
X157560038Y-103554156D01*
X157424685Y-103351586D01*
X157252414Y-103179315D01*
X157049844Y-103043962D01*
X156824761Y-102950730D01*
X156585814Y-102903200D01*
X156342186Y-102903200D01*
X156103239Y-102950730D01*
X155878156Y-103043962D01*
X155675586Y-103179315D01*
X155503315Y-103351586D01*
X155367962Y-103554156D01*
X155274730Y-103779239D01*
X155227200Y-104018186D01*
X155160800Y-104018186D01*
X155113270Y-103779239D01*
X155025190Y-103566594D01*
X155444927Y-103146857D01*
X155459169Y-103135169D01*
X155505805Y-103078342D01*
X155540459Y-103013508D01*
X155561799Y-102943160D01*
X155567200Y-102888326D01*
X155569005Y-102870001D01*
X155567200Y-102851675D01*
X155567200Y-102452299D01*
X155675586Y-102560685D01*
X155878156Y-102696038D01*
X156103239Y-102789270D01*
X156342186Y-102836800D01*
X156585814Y-102836800D01*
X156824761Y-102789270D01*
X157049844Y-102696038D01*
X157252414Y-102560685D01*
X157408099Y-102405000D01*
X159129563Y-102405000D01*
X159129563Y-104605000D01*
X159135297Y-104663222D01*
X159152280Y-104719207D01*
X159179859Y-104770803D01*
X159216973Y-104816027D01*
X159262197Y-104853141D01*
X159313793Y-104880720D01*
X159369778Y-104897703D01*
X159428000Y-104903437D01*
X161628000Y-104903437D01*
X161686222Y-104897703D01*
X161742207Y-104880720D01*
X161793803Y-104853141D01*
X161839027Y-104816027D01*
X161876141Y-104770803D01*
X161903720Y-104719207D01*
X161920703Y-104663222D01*
X161926437Y-104605000D01*
X161926437Y-103505000D01*
X166744241Y-103505000D01*
X166771214Y-103778860D01*
X166851096Y-104042195D01*
X166980817Y-104284887D01*
X167155392Y-104497608D01*
X167368113Y-104672183D01*
X167610805Y-104801904D01*
X167874140Y-104881786D01*
X168079375Y-104902000D01*
X168216625Y-104902000D01*
X168421860Y-104881786D01*
X168685195Y-104801904D01*
X168927887Y-104672183D01*
X169140608Y-104497608D01*
X169315183Y-104284887D01*
X169444904Y-104042195D01*
X169524786Y-103778860D01*
X169551759Y-103505000D01*
X169524786Y-103231140D01*
X169444904Y-102967805D01*
X169315183Y-102725113D01*
X169140608Y-102512392D01*
X168927887Y-102337817D01*
X168685195Y-102208096D01*
X168421860Y-102128214D01*
X168216625Y-102108000D01*
X168079375Y-102108000D01*
X167874140Y-102128214D01*
X167610805Y-102208096D01*
X167368113Y-102337817D01*
X167155392Y-102512392D01*
X166980817Y-102725113D01*
X166851096Y-102967805D01*
X166771214Y-103231140D01*
X166744241Y-103505000D01*
X161926437Y-103505000D01*
X161926437Y-102405000D01*
X161920703Y-102346778D01*
X161903720Y-102290793D01*
X161876141Y-102239197D01*
X161839027Y-102193973D01*
X161793803Y-102156859D01*
X161742207Y-102129280D01*
X161686222Y-102112297D01*
X161628000Y-102106563D01*
X159428000Y-102106563D01*
X159369778Y-102112297D01*
X159313793Y-102129280D01*
X159262197Y-102156859D01*
X159216973Y-102193973D01*
X159179859Y-102239197D01*
X159152280Y-102290793D01*
X159135297Y-102346778D01*
X159129563Y-102405000D01*
X157408099Y-102405000D01*
X157424685Y-102388414D01*
X157560038Y-102185844D01*
X157648118Y-101973200D01*
X160187775Y-101973200D01*
X160206100Y-101975005D01*
X160224425Y-101973200D01*
X160224426Y-101973200D01*
X160279260Y-101967799D01*
X160349608Y-101946459D01*
X160414442Y-101911805D01*
X160471269Y-101865169D01*
X160482961Y-101850922D01*
X163654883Y-98679000D01*
X166645693Y-98679000D01*
X166666874Y-98894049D01*
X166729601Y-99100835D01*
X166831465Y-99291409D01*
X166968551Y-99458449D01*
X167135591Y-99595535D01*
X167326165Y-99697399D01*
X167532951Y-99760126D01*
X167694118Y-99776000D01*
X168601882Y-99776000D01*
X168763049Y-99760126D01*
X168969835Y-99697399D01*
X169160409Y-99595535D01*
X169327449Y-99458449D01*
X169464535Y-99291409D01*
X169566399Y-99100835D01*
X169629126Y-98894049D01*
X169650307Y-98679000D01*
X169629126Y-98463951D01*
X169566399Y-98257165D01*
X169464535Y-98066591D01*
X169327449Y-97899551D01*
X169160409Y-97762465D01*
X168969835Y-97660601D01*
X168763049Y-97597874D01*
X168601882Y-97582000D01*
X167694118Y-97582000D01*
X167532951Y-97597874D01*
X167326165Y-97660601D01*
X167135591Y-97762465D01*
X166968551Y-97899551D01*
X166831465Y-98066591D01*
X166729601Y-98257165D01*
X166666874Y-98463951D01*
X166645693Y-98679000D01*
X163654883Y-98679000D01*
X166942090Y-95391794D01*
X166831465Y-95526591D01*
X166729601Y-95717165D01*
X166666874Y-95923951D01*
X166645693Y-96139000D01*
X166666874Y-96354049D01*
X166729601Y-96560835D01*
X166831465Y-96751409D01*
X166968551Y-96918449D01*
X167135591Y-97055535D01*
X167326165Y-97157399D01*
X167532951Y-97220126D01*
X167694118Y-97236000D01*
X168601882Y-97236000D01*
X168763049Y-97220126D01*
X168969835Y-97157399D01*
X169160409Y-97055535D01*
X169327449Y-96918449D01*
X169464535Y-96751409D01*
X169566399Y-96560835D01*
X169629126Y-96354049D01*
X169650307Y-96139000D01*
X169629126Y-95923951D01*
X169566399Y-95717165D01*
X169464535Y-95526591D01*
X169327449Y-95359551D01*
X169160409Y-95222465D01*
X169035264Y-95155573D01*
X169053669Y-95140469D01*
X169065361Y-95126222D01*
X169827827Y-94363757D01*
X169842069Y-94352069D01*
X169888705Y-94295242D01*
X169915470Y-94245168D01*
X169923359Y-94230409D01*
X169944699Y-94160060D01*
X169951905Y-94086900D01*
X169950100Y-94068575D01*
X169950100Y-91077326D01*
X169951905Y-91059000D01*
X169944699Y-90985840D01*
X169923359Y-90915492D01*
X169888705Y-90850658D01*
X169842069Y-90793831D01*
X169785242Y-90747195D01*
X169720408Y-90712541D01*
X169650060Y-90691201D01*
X169595226Y-90685800D01*
X169595225Y-90685800D01*
X169580719Y-90684371D01*
X169566399Y-90637165D01*
X169464535Y-90446591D01*
X169327449Y-90279551D01*
X169160409Y-90142465D01*
X168969835Y-90040601D01*
X168763049Y-89977874D01*
X168601882Y-89962000D01*
X167694118Y-89962000D01*
X167532951Y-89977874D01*
X167326165Y-90040601D01*
X167135591Y-90142465D01*
X166968551Y-90279551D01*
X166831465Y-90446591D01*
X166729601Y-90637165D01*
X166666874Y-90843951D01*
X166645693Y-91059000D01*
X166666874Y-91274049D01*
X166729601Y-91480835D01*
X166831465Y-91671409D01*
X166968551Y-91838449D01*
X167135591Y-91975535D01*
X167326165Y-92077399D01*
X167532951Y-92140126D01*
X167694118Y-92156000D01*
X168601882Y-92156000D01*
X168763049Y-92140126D01*
X168969835Y-92077399D01*
X169160409Y-91975535D01*
X169203700Y-91940007D01*
X169203701Y-92717993D01*
X169160409Y-92682465D01*
X168969835Y-92580601D01*
X168763049Y-92517874D01*
X168601882Y-92502000D01*
X167694118Y-92502000D01*
X167532951Y-92517874D01*
X167326165Y-92580601D01*
X167135591Y-92682465D01*
X166968551Y-92819551D01*
X166831465Y-92986591D01*
X166729601Y-93177165D01*
X166666874Y-93383951D01*
X166645693Y-93599000D01*
X166666874Y-93814049D01*
X166729601Y-94020835D01*
X166831465Y-94211409D01*
X166968551Y-94378449D01*
X167119220Y-94502100D01*
X166949125Y-94502100D01*
X166930800Y-94500295D01*
X166912474Y-94502100D01*
X166857640Y-94507501D01*
X166787292Y-94528841D01*
X166722458Y-94563495D01*
X166665631Y-94610131D01*
X166653943Y-94624373D01*
X162295215Y-98983101D01*
X162197915Y-98806000D01*
X160655000Y-98806000D01*
X160655000Y-100114000D01*
X161055000Y-100114000D01*
X161189733Y-100088584D01*
X160051517Y-101226800D01*
X157648118Y-101226800D01*
X157560038Y-101014156D01*
X157424685Y-100811586D01*
X157252414Y-100639315D01*
X157141727Y-100565356D01*
X158268333Y-99438752D01*
X158282569Y-99427069D01*
X158329205Y-99370242D01*
X158363859Y-99305408D01*
X158385199Y-99235060D01*
X158390600Y-99180226D01*
X158392405Y-99161901D01*
X158390600Y-99143575D01*
X158390600Y-99028039D01*
X158736096Y-99028039D01*
X158753633Y-99110818D01*
X158864285Y-99370646D01*
X159023500Y-99603895D01*
X159225161Y-99801601D01*
X159461517Y-99956166D01*
X159723486Y-100061650D01*
X160001000Y-100114000D01*
X160401000Y-100114000D01*
X160401000Y-98806000D01*
X158858085Y-98806000D01*
X158736096Y-99028039D01*
X158390600Y-99028039D01*
X158390600Y-98329961D01*
X158736096Y-98329961D01*
X158858085Y-98552000D01*
X160401000Y-98552000D01*
X160401000Y-98532000D01*
X160655000Y-98532000D01*
X160655000Y-98552000D01*
X162197915Y-98552000D01*
X162319904Y-98329961D01*
X162302367Y-98247182D01*
X162191715Y-97987354D01*
X162032500Y-97754105D01*
X161830839Y-97556399D01*
X161594483Y-97401834D01*
X161332514Y-97296350D01*
X161055000Y-97244000D01*
X160001000Y-97244000D01*
X159723486Y-97296350D01*
X159461517Y-97401834D01*
X159225161Y-97556399D01*
X159023500Y-97754105D01*
X158864285Y-97987354D01*
X158753633Y-98247182D01*
X158736096Y-98329961D01*
X158390600Y-98329961D01*
X158390600Y-96946683D01*
X159041168Y-96296115D01*
X159046874Y-96354049D01*
X159109601Y-96560835D01*
X159211465Y-96751409D01*
X159348551Y-96918449D01*
X159515591Y-97055535D01*
X159706165Y-97157399D01*
X159912951Y-97220126D01*
X160074118Y-97236000D01*
X160981882Y-97236000D01*
X161143049Y-97220126D01*
X161349835Y-97157399D01*
X161540409Y-97055535D01*
X161707449Y-96918449D01*
X161844535Y-96751409D01*
X161946399Y-96560835D01*
X162009126Y-96354049D01*
X162030307Y-96139000D01*
X162009126Y-95923951D01*
X161946399Y-95717165D01*
X161844535Y-95526591D01*
X161707449Y-95359551D01*
X161540409Y-95222465D01*
X161388148Y-95141080D01*
X161396569Y-95134169D01*
X161408261Y-95119922D01*
X166970027Y-89558157D01*
X166984269Y-89546469D01*
X167030905Y-89489642D01*
X167065559Y-89424808D01*
X167076913Y-89387379D01*
X167135591Y-89435535D01*
X167326165Y-89537399D01*
X167532951Y-89600126D01*
X167694118Y-89616000D01*
X168601882Y-89616000D01*
X168763049Y-89600126D01*
X168969835Y-89537399D01*
X169160409Y-89435535D01*
X169327449Y-89298449D01*
X169464535Y-89131409D01*
X169566399Y-88940835D01*
X169580719Y-88893629D01*
X169595225Y-88892200D01*
X169595226Y-88892200D01*
X169650060Y-88886799D01*
X169720408Y-88865459D01*
X169785242Y-88830805D01*
X169842069Y-88784169D01*
X169888705Y-88727342D01*
X169923359Y-88662508D01*
X169944699Y-88592160D01*
X169951905Y-88519000D01*
X169950100Y-88500674D01*
X169950100Y-82992025D01*
X169951905Y-82973699D01*
X169944699Y-82900540D01*
X169923359Y-82830192D01*
X169888705Y-82765358D01*
X169842069Y-82708531D01*
X169827833Y-82696848D01*
X168452261Y-81321278D01*
X168440569Y-81307031D01*
X168383742Y-81260395D01*
X168318908Y-81225741D01*
X168248560Y-81204401D01*
X168193726Y-81199000D01*
X168193725Y-81199000D01*
X168175400Y-81197195D01*
X168157075Y-81199000D01*
X134970784Y-81199000D01*
X133486192Y-79714408D01*
X133546843Y-79567983D01*
X133589000Y-79356045D01*
X133589000Y-79139955D01*
X133546843Y-78928017D01*
X133464149Y-78728376D01*
X133344096Y-78548703D01*
X133243393Y-78448000D01*
X151682563Y-78448000D01*
X151682563Y-80048000D01*
X151688297Y-80106222D01*
X151705280Y-80162207D01*
X151732859Y-80213803D01*
X151769973Y-80259027D01*
X151815197Y-80296141D01*
X151866793Y-80323720D01*
X151922778Y-80340703D01*
X151981000Y-80346437D01*
X153581000Y-80346437D01*
X153639222Y-80340703D01*
X153695207Y-80323720D01*
X153746803Y-80296141D01*
X153792027Y-80259027D01*
X153829141Y-80213803D01*
X153856720Y-80162207D01*
X153873703Y-80106222D01*
X153879437Y-80048000D01*
X153879437Y-79139955D01*
X154454000Y-79139955D01*
X154454000Y-79356045D01*
X154496157Y-79567983D01*
X154578851Y-79767624D01*
X154698904Y-79947297D01*
X154851703Y-80100096D01*
X155031376Y-80220149D01*
X155231017Y-80302843D01*
X155442955Y-80345000D01*
X155659045Y-80345000D01*
X155870983Y-80302843D01*
X156070624Y-80220149D01*
X156250297Y-80100096D01*
X156403096Y-79947297D01*
X156523149Y-79767624D01*
X156605843Y-79567983D01*
X156648000Y-79356045D01*
X156648000Y-79139955D01*
X157224000Y-79139955D01*
X157224000Y-79356045D01*
X157266157Y-79567983D01*
X157348851Y-79767624D01*
X157468904Y-79947297D01*
X157621703Y-80100096D01*
X157801376Y-80220149D01*
X158001017Y-80302843D01*
X158212955Y-80345000D01*
X158429045Y-80345000D01*
X158640983Y-80302843D01*
X158840624Y-80220149D01*
X159020297Y-80100096D01*
X159173096Y-79947297D01*
X159293149Y-79767624D01*
X159375843Y-79567983D01*
X159418000Y-79356045D01*
X159418000Y-79139955D01*
X159994000Y-79139955D01*
X159994000Y-79356045D01*
X160036157Y-79567983D01*
X160118851Y-79767624D01*
X160238904Y-79947297D01*
X160391703Y-80100096D01*
X160571376Y-80220149D01*
X160771017Y-80302843D01*
X160982955Y-80345000D01*
X161199045Y-80345000D01*
X161410983Y-80302843D01*
X161610624Y-80220149D01*
X161790297Y-80100096D01*
X161943096Y-79947297D01*
X162063149Y-79767624D01*
X162145843Y-79567983D01*
X162188000Y-79356045D01*
X162188000Y-79139955D01*
X162764000Y-79139955D01*
X162764000Y-79356045D01*
X162806157Y-79567983D01*
X162888851Y-79767624D01*
X163008904Y-79947297D01*
X163161703Y-80100096D01*
X163341376Y-80220149D01*
X163541017Y-80302843D01*
X163752955Y-80345000D01*
X163969045Y-80345000D01*
X164180983Y-80302843D01*
X164380624Y-80220149D01*
X164560297Y-80100096D01*
X164713096Y-79947297D01*
X164833149Y-79767624D01*
X164915843Y-79567983D01*
X164958000Y-79356045D01*
X164958000Y-79139955D01*
X164915843Y-78928017D01*
X164833149Y-78728376D01*
X164713096Y-78548703D01*
X164560297Y-78395904D01*
X164380624Y-78275851D01*
X164180983Y-78193157D01*
X163969045Y-78151000D01*
X163752955Y-78151000D01*
X163541017Y-78193157D01*
X163341376Y-78275851D01*
X163161703Y-78395904D01*
X163008904Y-78548703D01*
X162888851Y-78728376D01*
X162806157Y-78928017D01*
X162764000Y-79139955D01*
X162188000Y-79139955D01*
X162145843Y-78928017D01*
X162063149Y-78728376D01*
X161943096Y-78548703D01*
X161790297Y-78395904D01*
X161610624Y-78275851D01*
X161410983Y-78193157D01*
X161199045Y-78151000D01*
X160982955Y-78151000D01*
X160771017Y-78193157D01*
X160571376Y-78275851D01*
X160391703Y-78395904D01*
X160238904Y-78548703D01*
X160118851Y-78728376D01*
X160036157Y-78928017D01*
X159994000Y-79139955D01*
X159418000Y-79139955D01*
X159375843Y-78928017D01*
X159293149Y-78728376D01*
X159173096Y-78548703D01*
X159020297Y-78395904D01*
X158840624Y-78275851D01*
X158640983Y-78193157D01*
X158429045Y-78151000D01*
X158212955Y-78151000D01*
X158001017Y-78193157D01*
X157801376Y-78275851D01*
X157621703Y-78395904D01*
X157468904Y-78548703D01*
X157348851Y-78728376D01*
X157266157Y-78928017D01*
X157224000Y-79139955D01*
X156648000Y-79139955D01*
X156605843Y-78928017D01*
X156523149Y-78728376D01*
X156403096Y-78548703D01*
X156250297Y-78395904D01*
X156070624Y-78275851D01*
X155870983Y-78193157D01*
X155659045Y-78151000D01*
X155442955Y-78151000D01*
X155231017Y-78193157D01*
X155031376Y-78275851D01*
X154851703Y-78395904D01*
X154698904Y-78548703D01*
X154578851Y-78728376D01*
X154496157Y-78928017D01*
X154454000Y-79139955D01*
X153879437Y-79139955D01*
X153879437Y-78448000D01*
X153873703Y-78389778D01*
X153856720Y-78333793D01*
X153829141Y-78282197D01*
X153792027Y-78236973D01*
X153746803Y-78199859D01*
X153695207Y-78172280D01*
X153639222Y-78155297D01*
X153581000Y-78149563D01*
X151981000Y-78149563D01*
X151922778Y-78155297D01*
X151866793Y-78172280D01*
X151815197Y-78199859D01*
X151769973Y-78236973D01*
X151732859Y-78282197D01*
X151705280Y-78333793D01*
X151688297Y-78389778D01*
X151682563Y-78448000D01*
X133243393Y-78448000D01*
X133191297Y-78395904D01*
X133011624Y-78275851D01*
X132811983Y-78193157D01*
X132600045Y-78151000D01*
X132383955Y-78151000D01*
X132172017Y-78193157D01*
X131972376Y-78275851D01*
X131792703Y-78395904D01*
X131639904Y-78548703D01*
X131519851Y-78728376D01*
X131437157Y-78928017D01*
X131395000Y-79139955D01*
X130819000Y-79139955D01*
X130776843Y-78928017D01*
X130694149Y-78728376D01*
X130574096Y-78548703D01*
X130421297Y-78395904D01*
X130241624Y-78275851D01*
X130041983Y-78193157D01*
X129830045Y-78151000D01*
X129613955Y-78151000D01*
X129402017Y-78193157D01*
X129202376Y-78275851D01*
X129022703Y-78395904D01*
X128869904Y-78548703D01*
X128749851Y-78728376D01*
X128667157Y-78928017D01*
X128625000Y-79139955D01*
X128049000Y-79139955D01*
X128006843Y-78928017D01*
X127924149Y-78728376D01*
X127804096Y-78548703D01*
X127651297Y-78395904D01*
X127471624Y-78275851D01*
X127271983Y-78193157D01*
X127060045Y-78151000D01*
X126843955Y-78151000D01*
X126632017Y-78193157D01*
X126432376Y-78275851D01*
X126252703Y-78395904D01*
X126099904Y-78548703D01*
X125979851Y-78728376D01*
X125897157Y-78928017D01*
X125855000Y-79139955D01*
X125279000Y-79139955D01*
X125236843Y-78928017D01*
X125154149Y-78728376D01*
X125034096Y-78548703D01*
X124881297Y-78395904D01*
X124701624Y-78275851D01*
X124501983Y-78193157D01*
X124290045Y-78151000D01*
X124073955Y-78151000D01*
X123862017Y-78193157D01*
X123662376Y-78275851D01*
X123482703Y-78395904D01*
X123329904Y-78548703D01*
X123209851Y-78728376D01*
X123127157Y-78928017D01*
X123085000Y-79139955D01*
X122510437Y-79139955D01*
X122510437Y-78448000D01*
X122504703Y-78389778D01*
X122487720Y-78333793D01*
X122460141Y-78282197D01*
X122423027Y-78236973D01*
X122377803Y-78199859D01*
X122326207Y-78172280D01*
X122270222Y-78155297D01*
X122212000Y-78149563D01*
X120612000Y-78149563D01*
X120553778Y-78155297D01*
X120497793Y-78172280D01*
X120446197Y-78199859D01*
X120430180Y-78213003D01*
X121792840Y-76850344D01*
X121824851Y-76927624D01*
X121944904Y-77107297D01*
X122097703Y-77260096D01*
X122277376Y-77380149D01*
X122477017Y-77462843D01*
X122688955Y-77505000D01*
X122905045Y-77505000D01*
X123116983Y-77462843D01*
X123316624Y-77380149D01*
X123496297Y-77260096D01*
X123649096Y-77107297D01*
X123769149Y-76927624D01*
X123851843Y-76727983D01*
X123894000Y-76516045D01*
X123894000Y-76299955D01*
X124470000Y-76299955D01*
X124470000Y-76516045D01*
X124512157Y-76727983D01*
X124594851Y-76927624D01*
X124714904Y-77107297D01*
X124867703Y-77260096D01*
X125047376Y-77380149D01*
X125247017Y-77462843D01*
X125458955Y-77505000D01*
X125675045Y-77505000D01*
X125886983Y-77462843D01*
X126037004Y-77400702D01*
X127523903Y-77400702D01*
X127595486Y-77644671D01*
X127850996Y-77765571D01*
X128125184Y-77834300D01*
X128407512Y-77848217D01*
X128687130Y-77806787D01*
X128953292Y-77711603D01*
X129078514Y-77644671D01*
X129150097Y-77400702D01*
X128337000Y-76587605D01*
X127523903Y-77400702D01*
X126037004Y-77400702D01*
X126086624Y-77380149D01*
X126266297Y-77260096D01*
X126419096Y-77107297D01*
X126539149Y-76927624D01*
X126621843Y-76727983D01*
X126664000Y-76516045D01*
X126664000Y-76478512D01*
X126896783Y-76478512D01*
X126938213Y-76758130D01*
X127033397Y-77024292D01*
X127100329Y-77149514D01*
X127344298Y-77221097D01*
X128157395Y-76408000D01*
X128516605Y-76408000D01*
X129329702Y-77221097D01*
X129573671Y-77149514D01*
X129694571Y-76894004D01*
X129763300Y-76619816D01*
X129777217Y-76337488D01*
X129771656Y-76299955D01*
X130010000Y-76299955D01*
X130010000Y-76516045D01*
X130052157Y-76727983D01*
X130134851Y-76927624D01*
X130254904Y-77107297D01*
X130407703Y-77260096D01*
X130587376Y-77380149D01*
X130787017Y-77462843D01*
X130998955Y-77505000D01*
X131215045Y-77505000D01*
X131426983Y-77462843D01*
X131626624Y-77380149D01*
X131806297Y-77260096D01*
X131959096Y-77107297D01*
X132079149Y-76927624D01*
X132161843Y-76727983D01*
X132204000Y-76516045D01*
X132204000Y-76299955D01*
X153069000Y-76299955D01*
X153069000Y-76516045D01*
X153111157Y-76727983D01*
X153193851Y-76927624D01*
X153313904Y-77107297D01*
X153466703Y-77260096D01*
X153646376Y-77380149D01*
X153846017Y-77462843D01*
X154057955Y-77505000D01*
X154274045Y-77505000D01*
X154485983Y-77462843D01*
X154685624Y-77380149D01*
X154865297Y-77260096D01*
X155018096Y-77107297D01*
X155138149Y-76927624D01*
X155220843Y-76727983D01*
X155263000Y-76516045D01*
X155263000Y-76299955D01*
X155839000Y-76299955D01*
X155839000Y-76516045D01*
X155881157Y-76727983D01*
X155963851Y-76927624D01*
X156083904Y-77107297D01*
X156236703Y-77260096D01*
X156416376Y-77380149D01*
X156616017Y-77462843D01*
X156827955Y-77505000D01*
X157044045Y-77505000D01*
X157255983Y-77462843D01*
X157406004Y-77400702D01*
X158892903Y-77400702D01*
X158964486Y-77644671D01*
X159219996Y-77765571D01*
X159494184Y-77834300D01*
X159776512Y-77848217D01*
X160056130Y-77806787D01*
X160322292Y-77711603D01*
X160447514Y-77644671D01*
X160519097Y-77400702D01*
X159706000Y-76587605D01*
X158892903Y-77400702D01*
X157406004Y-77400702D01*
X157455624Y-77380149D01*
X157635297Y-77260096D01*
X157788096Y-77107297D01*
X157908149Y-76927624D01*
X157990843Y-76727983D01*
X158033000Y-76516045D01*
X158033000Y-76478512D01*
X158265783Y-76478512D01*
X158307213Y-76758130D01*
X158402397Y-77024292D01*
X158469329Y-77149514D01*
X158713298Y-77221097D01*
X159526395Y-76408000D01*
X159885605Y-76408000D01*
X160698702Y-77221097D01*
X160942671Y-77149514D01*
X161063571Y-76894004D01*
X161132300Y-76619816D01*
X161146217Y-76337488D01*
X161140656Y-76299955D01*
X161379000Y-76299955D01*
X161379000Y-76516045D01*
X161421157Y-76727983D01*
X161503851Y-76927624D01*
X161623904Y-77107297D01*
X161776703Y-77260096D01*
X161956376Y-77380149D01*
X162156017Y-77462843D01*
X162367955Y-77505000D01*
X162584045Y-77505000D01*
X162795983Y-77462843D01*
X162995624Y-77380149D01*
X163175297Y-77260096D01*
X163328096Y-77107297D01*
X163448149Y-76927624D01*
X163530843Y-76727983D01*
X163573000Y-76516045D01*
X163573000Y-76299955D01*
X163530843Y-76088017D01*
X163448149Y-75888376D01*
X163328096Y-75708703D01*
X163175297Y-75555904D01*
X162995624Y-75435851D01*
X162795983Y-75353157D01*
X162584045Y-75311000D01*
X162367955Y-75311000D01*
X162156017Y-75353157D01*
X161956376Y-75435851D01*
X161776703Y-75555904D01*
X161623904Y-75708703D01*
X161503851Y-75888376D01*
X161421157Y-76088017D01*
X161379000Y-76299955D01*
X161140656Y-76299955D01*
X161104787Y-76057870D01*
X161009603Y-75791708D01*
X160942671Y-75666486D01*
X160698702Y-75594903D01*
X159885605Y-76408000D01*
X159526395Y-76408000D01*
X158713298Y-75594903D01*
X158469329Y-75666486D01*
X158348429Y-75921996D01*
X158279700Y-76196184D01*
X158265783Y-76478512D01*
X158033000Y-76478512D01*
X158033000Y-76299955D01*
X157990843Y-76088017D01*
X157908149Y-75888376D01*
X157788096Y-75708703D01*
X157635297Y-75555904D01*
X157455624Y-75435851D01*
X157255983Y-75353157D01*
X157044045Y-75311000D01*
X156827955Y-75311000D01*
X156616017Y-75353157D01*
X156416376Y-75435851D01*
X156236703Y-75555904D01*
X156083904Y-75708703D01*
X155963851Y-75888376D01*
X155881157Y-76088017D01*
X155839000Y-76299955D01*
X155263000Y-76299955D01*
X155220843Y-76088017D01*
X155138149Y-75888376D01*
X155018096Y-75708703D01*
X154865297Y-75555904D01*
X154685624Y-75435851D01*
X154485983Y-75353157D01*
X154274045Y-75311000D01*
X154057955Y-75311000D01*
X153846017Y-75353157D01*
X153646376Y-75435851D01*
X153466703Y-75555904D01*
X153313904Y-75708703D01*
X153193851Y-75888376D01*
X153111157Y-76088017D01*
X153069000Y-76299955D01*
X132204000Y-76299955D01*
X132161843Y-76088017D01*
X132079149Y-75888376D01*
X131959096Y-75708703D01*
X131806297Y-75555904D01*
X131626624Y-75435851D01*
X131426983Y-75353157D01*
X131215045Y-75311000D01*
X130998955Y-75311000D01*
X130787017Y-75353157D01*
X130587376Y-75435851D01*
X130407703Y-75555904D01*
X130254904Y-75708703D01*
X130134851Y-75888376D01*
X130052157Y-76088017D01*
X130010000Y-76299955D01*
X129771656Y-76299955D01*
X129735787Y-76057870D01*
X129640603Y-75791708D01*
X129573671Y-75666486D01*
X129329702Y-75594903D01*
X128516605Y-76408000D01*
X128157395Y-76408000D01*
X127344298Y-75594903D01*
X127100329Y-75666486D01*
X126979429Y-75921996D01*
X126910700Y-76196184D01*
X126896783Y-76478512D01*
X126664000Y-76478512D01*
X126664000Y-76299955D01*
X126621843Y-76088017D01*
X126539149Y-75888376D01*
X126419096Y-75708703D01*
X126266297Y-75555904D01*
X126086624Y-75435851D01*
X125886983Y-75353157D01*
X125675045Y-75311000D01*
X125458955Y-75311000D01*
X125247017Y-75353157D01*
X125047376Y-75435851D01*
X124867703Y-75555904D01*
X124714904Y-75708703D01*
X124594851Y-75888376D01*
X124512157Y-76088017D01*
X124470000Y-76299955D01*
X123894000Y-76299955D01*
X123851843Y-76088017D01*
X123769149Y-75888376D01*
X123649096Y-75708703D01*
X123496297Y-75555904D01*
X123316624Y-75435851D01*
X123116983Y-75353157D01*
X122905045Y-75311000D01*
X122688955Y-75311000D01*
X122477017Y-75353157D01*
X122277376Y-75435851D01*
X122097703Y-75555904D01*
X121944904Y-75708703D01*
X121824851Y-75888376D01*
X121764200Y-76034800D01*
X121725725Y-76034800D01*
X121707399Y-76032995D01*
X121689074Y-76034800D01*
X121634240Y-76040201D01*
X121563892Y-76061541D01*
X121499058Y-76096195D01*
X121442231Y-76142831D01*
X121430543Y-76157073D01*
X115414074Y-82173543D01*
X115399832Y-82185231D01*
X115358490Y-82235607D01*
X115353195Y-82242059D01*
X115318542Y-82306892D01*
X115297201Y-82377241D01*
X115289995Y-82450400D01*
X115155000Y-82450400D01*
X115155000Y-77105972D01*
X115191142Y-76737371D01*
X115293261Y-76399135D01*
X115459132Y-76087177D01*
X115682440Y-75813375D01*
X115954672Y-75588164D01*
X116265467Y-75420118D01*
X116602983Y-75315639D01*
X116970615Y-75277000D01*
X127564481Y-75277000D01*
X127523903Y-75415298D01*
X127523903Y-75415298D01*
G37*
X127523903Y-75415298D02*
X128337000Y-76228395D01*
X129150097Y-75415298D01*
X129109519Y-75277000D01*
X158933481Y-75277000D01*
X158892903Y-75415298D01*
X159706000Y-76228395D01*
X160519097Y-75415298D01*
X160478519Y-75277000D01*
X168258028Y-75277000D01*
X168626629Y-75313142D01*
X168964865Y-75415261D01*
X169276823Y-75581132D01*
X169550625Y-75804440D01*
X169775836Y-76076672D01*
X169943882Y-76387467D01*
X170048361Y-76724983D01*
X170087000Y-77092615D01*
X170087001Y-114410018D01*
X170050858Y-114778629D01*
X169948739Y-115116864D01*
X169782867Y-115428825D01*
X169559560Y-115702625D01*
X169287328Y-115927836D01*
X168976533Y-116095882D01*
X168639017Y-116200361D01*
X168271385Y-116239000D01*
X119070298Y-116239000D01*
X119214906Y-116210236D01*
X119460044Y-116108696D01*
X119680663Y-115961284D01*
X119868284Y-115773663D01*
X120015696Y-115553044D01*
X120117236Y-115307906D01*
X120160419Y-115090804D01*
X121558000Y-115090804D01*
X121558000Y-115287196D01*
X121596314Y-115479814D01*
X121671470Y-115661257D01*
X121780580Y-115824550D01*
X121919450Y-115963420D01*
X122082743Y-116072530D01*
X122264186Y-116147686D01*
X122456804Y-116186000D01*
X122653196Y-116186000D01*
X122845814Y-116147686D01*
X123027257Y-116072530D01*
X123190550Y-115963420D01*
X123329420Y-115824550D01*
X123438530Y-115661257D01*
X123513686Y-115479814D01*
X123552000Y-115287196D01*
X123552000Y-115090804D01*
X124352000Y-115090804D01*
X124352000Y-115287196D01*
X124390314Y-115479814D01*
X124465470Y-115661257D01*
X124574580Y-115824550D01*
X124713450Y-115963420D01*
X124876743Y-116072530D01*
X125058186Y-116147686D01*
X125250804Y-116186000D01*
X125447196Y-116186000D01*
X125639814Y-116147686D01*
X125821257Y-116072530D01*
X125984550Y-115963420D01*
X126123420Y-115824550D01*
X126232530Y-115661257D01*
X126307686Y-115479814D01*
X126346000Y-115287196D01*
X126346000Y-115090804D01*
X126307686Y-114898186D01*
X126232530Y-114716743D01*
X126123420Y-114553450D01*
X125984550Y-114414580D01*
X125821257Y-114305470D01*
X125639814Y-114230314D01*
X125447196Y-114192000D01*
X125250804Y-114192000D01*
X125058186Y-114230314D01*
X124876743Y-114305470D01*
X124713450Y-114414580D01*
X124574580Y-114553450D01*
X124465470Y-114716743D01*
X124390314Y-114898186D01*
X124352000Y-115090804D01*
X123552000Y-115090804D01*
X123513686Y-114898186D01*
X123438530Y-114716743D01*
X123329420Y-114553450D01*
X123190550Y-114414580D01*
X123027257Y-114305470D01*
X122845814Y-114230314D01*
X122653196Y-114192000D01*
X122456804Y-114192000D01*
X122264186Y-114230314D01*
X122082743Y-114305470D01*
X121919450Y-114414580D01*
X121780580Y-114553450D01*
X121671470Y-114716743D01*
X121596314Y-114898186D01*
X121558000Y-115090804D01*
X120160419Y-115090804D01*
X120169000Y-115047668D01*
X120169000Y-114782332D01*
X120117236Y-114522094D01*
X120015696Y-114276956D01*
X119868284Y-114056337D01*
X119680663Y-113868716D01*
X119460044Y-113721304D01*
X119214906Y-113619764D01*
X118954668Y-113568000D01*
X118689332Y-113568000D01*
X118429094Y-113619764D01*
X118183956Y-113721304D01*
X117963337Y-113868716D01*
X117795603Y-114036450D01*
X117831855Y-113894474D01*
X117847804Y-113597457D01*
X117805501Y-113303037D01*
X117706572Y-113022526D01*
X117629868Y-112879025D01*
X117378240Y-112798365D01*
X116511605Y-113665000D01*
X117378240Y-114531635D01*
X117544947Y-114478197D01*
X117526764Y-114522094D01*
X117475000Y-114782332D01*
X117475000Y-115047668D01*
X117526764Y-115307906D01*
X117628304Y-115553044D01*
X117775716Y-115773663D01*
X117963337Y-115961284D01*
X118183956Y-116108696D01*
X118429094Y-116210236D01*
X118573702Y-116239000D01*
X116983972Y-116239000D01*
X116615371Y-116202858D01*
X116277136Y-116100739D01*
X115965175Y-115934867D01*
X115691375Y-115711560D01*
X115466164Y-115439328D01*
X115298118Y-115128533D01*
X115193639Y-114791017D01*
X115185255Y-114711240D01*
X115465365Y-114711240D01*
X115546025Y-114962868D01*
X115814329Y-115091267D01*
X116102526Y-115164855D01*
X116399543Y-115180804D01*
X116693963Y-115138501D01*
X116974474Y-115039572D01*
X117117975Y-114962868D01*
X117198635Y-114711240D01*
X116332000Y-113844605D01*
X115465365Y-114711240D01*
X115185255Y-114711240D01*
X115162215Y-114492032D01*
X115285760Y-114531635D01*
X116152395Y-113665000D01*
X115285760Y-112798365D01*
X115155000Y-112840280D01*
X115155000Y-112618760D01*
X115465365Y-112618760D01*
X116332000Y-113485395D01*
X117198635Y-112618760D01*
X117117975Y-112367132D01*
X116849671Y-112238733D01*
X116561474Y-112165145D01*
X116264457Y-112149196D01*
X115970037Y-112191499D01*
X115689526Y-112290428D01*
X115546025Y-112367132D01*
X115465365Y-112618760D01*
X115155000Y-112618760D01*
X115155000Y-109049568D01*
X115160000Y-109049568D01*
X115160000Y-109280432D01*
X115205039Y-109506860D01*
X115293387Y-109720150D01*
X115421648Y-109912107D01*
X115584893Y-110075352D01*
X115776850Y-110203613D01*
X115990140Y-110291961D01*
X116216568Y-110337000D01*
X116447432Y-110337000D01*
X116673860Y-110291961D01*
X116855811Y-110216594D01*
X120021443Y-113382227D01*
X120033131Y-113396469D01*
X120089958Y-113443105D01*
X120154792Y-113477759D01*
X120225140Y-113499099D01*
X120298299Y-113506305D01*
X120316625Y-113504500D01*
X127570401Y-113504500D01*
X127563315Y-113511586D01*
X127427962Y-113714156D01*
X127334730Y-113939239D01*
X127287200Y-114178186D01*
X127287200Y-114421814D01*
X127334730Y-114660761D01*
X127427962Y-114885844D01*
X127563315Y-115088414D01*
X127735586Y-115260685D01*
X127938156Y-115396038D01*
X128163239Y-115489270D01*
X128402186Y-115536800D01*
X128645814Y-115536800D01*
X128884761Y-115489270D01*
X129109844Y-115396038D01*
X129312414Y-115260685D01*
X129484685Y-115088414D01*
X129620038Y-114885844D01*
X129713270Y-114660761D01*
X129719544Y-114629222D01*
X129751792Y-114646459D01*
X129822140Y-114667799D01*
X129825763Y-114668156D01*
X129825763Y-115239800D01*
X129831497Y-115298022D01*
X129848480Y-115354007D01*
X129876059Y-115405603D01*
X129913173Y-115450827D01*
X129958397Y-115487941D01*
X130009993Y-115515520D01*
X130065978Y-115532503D01*
X130124200Y-115538237D01*
X132003800Y-115538237D01*
X132062022Y-115532503D01*
X132118007Y-115515520D01*
X132169603Y-115487941D01*
X132214827Y-115450827D01*
X132251941Y-115405603D01*
X132279520Y-115354007D01*
X132296503Y-115298022D01*
X132302237Y-115239800D01*
X132302237Y-114178186D01*
X152687200Y-114178186D01*
X152687200Y-114421814D01*
X152734730Y-114660761D01*
X152827962Y-114885844D01*
X152963315Y-115088414D01*
X153135586Y-115260685D01*
X153338156Y-115396038D01*
X153563239Y-115489270D01*
X153802186Y-115536800D01*
X154045814Y-115536800D01*
X154284761Y-115489270D01*
X154509844Y-115396038D01*
X154712414Y-115260685D01*
X154884685Y-115088414D01*
X155020038Y-114885844D01*
X155113270Y-114660761D01*
X155160800Y-114421814D01*
X155160800Y-114178186D01*
X155113270Y-113939239D01*
X155020038Y-113714156D01*
X154884685Y-113511586D01*
X154733299Y-113360200D01*
X155225763Y-113360200D01*
X155225763Y-115239800D01*
X155231497Y-115298022D01*
X155248480Y-115354007D01*
X155276059Y-115405603D01*
X155313173Y-115450827D01*
X155358397Y-115487941D01*
X155409993Y-115515520D01*
X155465978Y-115532503D01*
X155524200Y-115538237D01*
X157403800Y-115538237D01*
X157462022Y-115532503D01*
X157518007Y-115515520D01*
X157569603Y-115487941D01*
X157614827Y-115450827D01*
X157651941Y-115405603D01*
X157679520Y-115354007D01*
X157696503Y-115298022D01*
X157702237Y-115239800D01*
X157702237Y-113360200D01*
X157696503Y-113301978D01*
X157679520Y-113245993D01*
X157651941Y-113194397D01*
X157614827Y-113149173D01*
X157569603Y-113112059D01*
X157518007Y-113084480D01*
X157462022Y-113067497D01*
X157403800Y-113061763D01*
X155524200Y-113061763D01*
X155465978Y-113067497D01*
X155409993Y-113084480D01*
X155358397Y-113112059D01*
X155313173Y-113149173D01*
X155276059Y-113194397D01*
X155248480Y-113245993D01*
X155231497Y-113301978D01*
X155225763Y-113360200D01*
X154733299Y-113360200D01*
X154712414Y-113339315D01*
X154509844Y-113203962D01*
X154284761Y-113110730D01*
X154045814Y-113063200D01*
X153802186Y-113063200D01*
X153563239Y-113110730D01*
X153338156Y-113203962D01*
X153135586Y-113339315D01*
X152963315Y-113511586D01*
X152827962Y-113714156D01*
X152734730Y-113939239D01*
X152687200Y-114178186D01*
X132302237Y-114178186D01*
X132302237Y-113360200D01*
X132296503Y-113301978D01*
X132279520Y-113245993D01*
X132251941Y-113194397D01*
X132214827Y-113149173D01*
X132169603Y-113112059D01*
X132118007Y-113084480D01*
X132062022Y-113067497D01*
X132003800Y-113061763D01*
X130124200Y-113061763D01*
X130065978Y-113067497D01*
X130009993Y-113084480D01*
X129958397Y-113112059D01*
X129913173Y-113149173D01*
X129876059Y-113194397D01*
X129848480Y-113245993D01*
X129831497Y-113301978D01*
X129825763Y-113360200D01*
X129825763Y-113410379D01*
X129295761Y-112880378D01*
X129284069Y-112866131D01*
X129227242Y-112819495D01*
X129192403Y-112800874D01*
X129312414Y-112720685D01*
X129484685Y-112548414D01*
X129620038Y-112345844D01*
X129713270Y-112120761D01*
X129760800Y-111881814D01*
X129760800Y-111638186D01*
X129827200Y-111638186D01*
X129827200Y-111881814D01*
X129874730Y-112120761D01*
X129967962Y-112345844D01*
X130103315Y-112548414D01*
X130275586Y-112720685D01*
X130478156Y-112856038D01*
X130703239Y-112949270D01*
X130942186Y-112996800D01*
X131185814Y-112996800D01*
X131424761Y-112949270D01*
X131649844Y-112856038D01*
X131852414Y-112720685D01*
X132024685Y-112548414D01*
X132160038Y-112345844D01*
X132253270Y-112120761D01*
X132300800Y-111881814D01*
X132300800Y-111638186D01*
X152687200Y-111638186D01*
X152687200Y-111881814D01*
X152734730Y-112120761D01*
X152827962Y-112345844D01*
X152963315Y-112548414D01*
X153135586Y-112720685D01*
X153338156Y-112856038D01*
X153563239Y-112949270D01*
X153802186Y-112996800D01*
X154045814Y-112996800D01*
X154284761Y-112949270D01*
X154509844Y-112856038D01*
X154712414Y-112720685D01*
X154884685Y-112548414D01*
X155020038Y-112345844D01*
X155113270Y-112120761D01*
X155160800Y-111881814D01*
X155160800Y-111638186D01*
X155227200Y-111638186D01*
X155227200Y-111881814D01*
X155274730Y-112120761D01*
X155367962Y-112345844D01*
X155503315Y-112548414D01*
X155675586Y-112720685D01*
X155878156Y-112856038D01*
X156103239Y-112949270D01*
X156342186Y-112996800D01*
X156585814Y-112996800D01*
X156824761Y-112949270D01*
X157049844Y-112856038D01*
X157252414Y-112720685D01*
X157310099Y-112663000D01*
X158352563Y-112663000D01*
X158352563Y-114413000D01*
X158375110Y-114641926D01*
X158441886Y-114862055D01*
X158550323Y-115064927D01*
X158696255Y-115242745D01*
X158874073Y-115388677D01*
X159076945Y-115497114D01*
X159297074Y-115563890D01*
X159526000Y-115586437D01*
X161276000Y-115586437D01*
X161504926Y-115563890D01*
X161725055Y-115497114D01*
X161927927Y-115388677D01*
X162050601Y-115288000D01*
X164012928Y-115288000D01*
X164025188Y-115412482D01*
X164061498Y-115532180D01*
X164120463Y-115642494D01*
X164199815Y-115739185D01*
X164296506Y-115818537D01*
X164406820Y-115877502D01*
X164526518Y-115913812D01*
X164651000Y-115926072D01*
X166115250Y-115923000D01*
X166274000Y-115764250D01*
X166274000Y-113665000D01*
X166528000Y-113665000D01*
X166528000Y-115764250D01*
X166686750Y-115923000D01*
X168151000Y-115926072D01*
X168275482Y-115913812D01*
X168395180Y-115877502D01*
X168505494Y-115818537D01*
X168602185Y-115739185D01*
X168681537Y-115642494D01*
X168740502Y-115532180D01*
X168776812Y-115412482D01*
X168789072Y-115288000D01*
X168786000Y-113823750D01*
X168627250Y-113665000D01*
X166528000Y-113665000D01*
X166274000Y-113665000D01*
X164174750Y-113665000D01*
X164016000Y-113823750D01*
X164012928Y-115288000D01*
X162050601Y-115288000D01*
X162105745Y-115242745D01*
X162251677Y-115064927D01*
X162360114Y-114862055D01*
X162426890Y-114641926D01*
X162449437Y-114413000D01*
X162449437Y-112663000D01*
X162426890Y-112434074D01*
X162360114Y-112213945D01*
X162251677Y-112011073D01*
X162105745Y-111833255D01*
X162050602Y-111788000D01*
X164012928Y-111788000D01*
X164016000Y-113252250D01*
X164174750Y-113411000D01*
X166274000Y-113411000D01*
X166274000Y-111311750D01*
X166528000Y-111311750D01*
X166528000Y-113411000D01*
X168627250Y-113411000D01*
X168786000Y-113252250D01*
X168789072Y-111788000D01*
X168776812Y-111663518D01*
X168740502Y-111543820D01*
X168681537Y-111433506D01*
X168602185Y-111336815D01*
X168505494Y-111257463D01*
X168395180Y-111198498D01*
X168275482Y-111162188D01*
X168151000Y-111149928D01*
X166686750Y-111153000D01*
X166528000Y-111311750D01*
X166274000Y-111311750D01*
X166115250Y-111153000D01*
X164651000Y-111149928D01*
X164526518Y-111162188D01*
X164406820Y-111198498D01*
X164296506Y-111257463D01*
X164199815Y-111336815D01*
X164120463Y-111433506D01*
X164061498Y-111543820D01*
X164025188Y-111663518D01*
X164012928Y-111788000D01*
X162050602Y-111788000D01*
X161927927Y-111687323D01*
X161725055Y-111578886D01*
X161504926Y-111512110D01*
X161276000Y-111489563D01*
X159526000Y-111489563D01*
X159297074Y-111512110D01*
X159076945Y-111578886D01*
X158874073Y-111687323D01*
X158696255Y-111833255D01*
X158550323Y-112011073D01*
X158441886Y-112213945D01*
X158375110Y-112434074D01*
X158352563Y-112663000D01*
X157310099Y-112663000D01*
X157424685Y-112548414D01*
X157560038Y-112345844D01*
X157653270Y-112120761D01*
X157700800Y-111881814D01*
X157700800Y-111638186D01*
X157653270Y-111399239D01*
X157560038Y-111174156D01*
X157424685Y-110971586D01*
X157252414Y-110799315D01*
X157049844Y-110663962D01*
X156824761Y-110570730D01*
X156585814Y-110523200D01*
X156342186Y-110523200D01*
X156103239Y-110570730D01*
X155878156Y-110663962D01*
X155675586Y-110799315D01*
X155503315Y-110971586D01*
X155367962Y-111174156D01*
X155274730Y-111399239D01*
X155227200Y-111638186D01*
X155160800Y-111638186D01*
X155113270Y-111399239D01*
X155020038Y-111174156D01*
X154884685Y-110971586D01*
X154712414Y-110799315D01*
X154509844Y-110663962D01*
X154284761Y-110570730D01*
X154045814Y-110523200D01*
X153802186Y-110523200D01*
X153563239Y-110570730D01*
X153338156Y-110663962D01*
X153135586Y-110799315D01*
X152963315Y-110971586D01*
X152827962Y-111174156D01*
X152734730Y-111399239D01*
X152687200Y-111638186D01*
X132300800Y-111638186D01*
X132253270Y-111399239D01*
X132160038Y-111174156D01*
X132024685Y-110971586D01*
X131852414Y-110799315D01*
X131649844Y-110663962D01*
X131424761Y-110570730D01*
X131185814Y-110523200D01*
X130942186Y-110523200D01*
X130703239Y-110570730D01*
X130478156Y-110663962D01*
X130275586Y-110799315D01*
X130103315Y-110971586D01*
X129967962Y-111174156D01*
X129874730Y-111399239D01*
X129827200Y-111638186D01*
X129760800Y-111638186D01*
X129713270Y-111399239D01*
X129620038Y-111174156D01*
X129484685Y-110971586D01*
X129312414Y-110799315D01*
X129109844Y-110663962D01*
X128884761Y-110570730D01*
X128645814Y-110523200D01*
X128402186Y-110523200D01*
X128163239Y-110570730D01*
X127938156Y-110663962D01*
X127735586Y-110799315D01*
X127563315Y-110971586D01*
X127427962Y-111174156D01*
X127334730Y-111399239D01*
X127287200Y-111638186D01*
X127287200Y-111881814D01*
X127334730Y-112120761D01*
X127427962Y-112345844D01*
X127563315Y-112548414D01*
X127735586Y-112720685D01*
X127791581Y-112758100D01*
X120452884Y-112758100D01*
X117383594Y-109688811D01*
X117458961Y-109506860D01*
X117504000Y-109280432D01*
X117504000Y-109049568D01*
X117458961Y-108823140D01*
X117370613Y-108609850D01*
X117242352Y-108417893D01*
X117079107Y-108254648D01*
X116887150Y-108126387D01*
X116673860Y-108038039D01*
X116447432Y-107993000D01*
X116216568Y-107993000D01*
X115990140Y-108038039D01*
X115776850Y-108126387D01*
X115584893Y-108254648D01*
X115421648Y-108417893D01*
X115293387Y-108609850D01*
X115205039Y-108823140D01*
X115160000Y-109049568D01*
X115155000Y-109049568D01*
X115155000Y-107772332D01*
X117475000Y-107772332D01*
X117475000Y-108037668D01*
X117526764Y-108297906D01*
X117628304Y-108543044D01*
X117775716Y-108763663D01*
X117963337Y-108951284D01*
X118183956Y-109098696D01*
X118429094Y-109200236D01*
X118689332Y-109252000D01*
X118954668Y-109252000D01*
X119214906Y-109200236D01*
X119460044Y-109098696D01*
X119460807Y-109098186D01*
X127287200Y-109098186D01*
X127287200Y-109341814D01*
X127334730Y-109580761D01*
X127427962Y-109805844D01*
X127563315Y-110008414D01*
X127735586Y-110180685D01*
X127938156Y-110316038D01*
X128163239Y-110409270D01*
X128402186Y-110456800D01*
X128645814Y-110456800D01*
X128884761Y-110409270D01*
X129109844Y-110316038D01*
X129312414Y-110180685D01*
X129484685Y-110008414D01*
X129620038Y-109805844D01*
X129713270Y-109580761D01*
X129760800Y-109341814D01*
X129760800Y-109098186D01*
X129827200Y-109098186D01*
X129827200Y-109341814D01*
X129874730Y-109580761D01*
X129967962Y-109805844D01*
X130103315Y-110008414D01*
X130275586Y-110180685D01*
X130478156Y-110316038D01*
X130703239Y-110409270D01*
X130942186Y-110456800D01*
X131185814Y-110456800D01*
X131424761Y-110409270D01*
X131649844Y-110316038D01*
X131852414Y-110180685D01*
X132024685Y-110008414D01*
X132160038Y-109805844D01*
X132253270Y-109580761D01*
X132300800Y-109341814D01*
X132300800Y-109098186D01*
X132253270Y-108859239D01*
X132160038Y-108634156D01*
X132024685Y-108431586D01*
X131852414Y-108259315D01*
X131649844Y-108123962D01*
X131424761Y-108030730D01*
X131185814Y-107983200D01*
X130942186Y-107983200D01*
X130703239Y-108030730D01*
X130478156Y-108123962D01*
X130275586Y-108259315D01*
X130103315Y-108431586D01*
X129967962Y-108634156D01*
X129874730Y-108859239D01*
X129827200Y-109098186D01*
X129760800Y-109098186D01*
X129713270Y-108859239D01*
X129620038Y-108634156D01*
X129484685Y-108431586D01*
X129312414Y-108259315D01*
X129109844Y-108123962D01*
X128884761Y-108030730D01*
X128645814Y-107983200D01*
X128402186Y-107983200D01*
X128163239Y-108030730D01*
X127938156Y-108123962D01*
X127735586Y-108259315D01*
X127563315Y-108431586D01*
X127427962Y-108634156D01*
X127334730Y-108859239D01*
X127287200Y-109098186D01*
X119460807Y-109098186D01*
X119680663Y-108951284D01*
X119868284Y-108763663D01*
X120015696Y-108543044D01*
X120117236Y-108297906D01*
X120169000Y-108037668D01*
X120169000Y-107772332D01*
X120128556Y-107569000D01*
X121553176Y-107569000D01*
X121572426Y-107764446D01*
X121629435Y-107952381D01*
X121722014Y-108125584D01*
X121846603Y-108277397D01*
X121998416Y-108401986D01*
X122171619Y-108494565D01*
X122359554Y-108551574D01*
X122506022Y-108566000D01*
X122603978Y-108566000D01*
X122750446Y-108551574D01*
X122938381Y-108494565D01*
X123111584Y-108401986D01*
X123263397Y-108277397D01*
X123387986Y-108125584D01*
X123480565Y-107952381D01*
X123537574Y-107764446D01*
X123556824Y-107569000D01*
X124347176Y-107569000D01*
X124366426Y-107764446D01*
X124423435Y-107952381D01*
X124516014Y-108125584D01*
X124640603Y-108277397D01*
X124792416Y-108401986D01*
X124965619Y-108494565D01*
X125153554Y-108551574D01*
X125300022Y-108566000D01*
X125397978Y-108566000D01*
X125544446Y-108551574D01*
X125732381Y-108494565D01*
X125905584Y-108401986D01*
X126057397Y-108277397D01*
X126181986Y-108125584D01*
X126274565Y-107952381D01*
X126331574Y-107764446D01*
X126350824Y-107569000D01*
X126331574Y-107373554D01*
X126274565Y-107185619D01*
X126181986Y-107012416D01*
X126057397Y-106860603D01*
X125905584Y-106736014D01*
X125732381Y-106643435D01*
X125544446Y-106586426D01*
X125397978Y-106572000D01*
X125300022Y-106572000D01*
X125153554Y-106586426D01*
X124965619Y-106643435D01*
X124792416Y-106736014D01*
X124640603Y-106860603D01*
X124516014Y-107012416D01*
X124423435Y-107185619D01*
X124366426Y-107373554D01*
X124347176Y-107569000D01*
X123556824Y-107569000D01*
X123537574Y-107373554D01*
X123480565Y-107185619D01*
X123387986Y-107012416D01*
X123263397Y-106860603D01*
X123111584Y-106736014D01*
X122938381Y-106643435D01*
X122750446Y-106586426D01*
X122603978Y-106572000D01*
X122506022Y-106572000D01*
X122359554Y-106586426D01*
X122171619Y-106643435D01*
X121998416Y-106736014D01*
X121846603Y-106860603D01*
X121722014Y-107012416D01*
X121629435Y-107185619D01*
X121572426Y-107373554D01*
X121553176Y-107569000D01*
X120128556Y-107569000D01*
X120117236Y-107512094D01*
X120015696Y-107266956D01*
X119868284Y-107046337D01*
X119680663Y-106858716D01*
X119460044Y-106711304D01*
X119214906Y-106609764D01*
X118955604Y-106558186D01*
X127287200Y-106558186D01*
X127287200Y-106801814D01*
X127334730Y-107040761D01*
X127427962Y-107265844D01*
X127563315Y-107468414D01*
X127735586Y-107640685D01*
X127938156Y-107776038D01*
X128163239Y-107869270D01*
X128402186Y-107916800D01*
X128645814Y-107916800D01*
X128884761Y-107869270D01*
X129109844Y-107776038D01*
X129312414Y-107640685D01*
X129484685Y-107468414D01*
X129620038Y-107265844D01*
X129713270Y-107040761D01*
X129760800Y-106801814D01*
X129760800Y-106558186D01*
X129827200Y-106558186D01*
X129827200Y-106801814D01*
X129874730Y-107040761D01*
X129967962Y-107265844D01*
X130103315Y-107468414D01*
X130275586Y-107640685D01*
X130478156Y-107776038D01*
X130703239Y-107869270D01*
X130942186Y-107916800D01*
X131185814Y-107916800D01*
X131424761Y-107869270D01*
X131649844Y-107776038D01*
X131852414Y-107640685D01*
X132024685Y-107468414D01*
X132160038Y-107265844D01*
X132253270Y-107040761D01*
X132300800Y-106801814D01*
X132300800Y-106558186D01*
X132253270Y-106319239D01*
X132160038Y-106094156D01*
X132024685Y-105891586D01*
X131852414Y-105719315D01*
X131649844Y-105583962D01*
X131424761Y-105490730D01*
X131185814Y-105443200D01*
X130942186Y-105443200D01*
X130703239Y-105490730D01*
X130478156Y-105583962D01*
X130275586Y-105719315D01*
X130103315Y-105891586D01*
X129967962Y-106094156D01*
X129874730Y-106319239D01*
X129827200Y-106558186D01*
X129760800Y-106558186D01*
X129713270Y-106319239D01*
X129620038Y-106094156D01*
X129484685Y-105891586D01*
X129312414Y-105719315D01*
X129109844Y-105583962D01*
X128884761Y-105490730D01*
X128645814Y-105443200D01*
X128402186Y-105443200D01*
X128163239Y-105490730D01*
X127938156Y-105583962D01*
X127735586Y-105719315D01*
X127563315Y-105891586D01*
X127427962Y-106094156D01*
X127334730Y-106319239D01*
X127287200Y-106558186D01*
X118955604Y-106558186D01*
X118954668Y-106558000D01*
X118689332Y-106558000D01*
X118429094Y-106609764D01*
X118183956Y-106711304D01*
X117963337Y-106858716D01*
X117775716Y-107046337D01*
X117628304Y-107266956D01*
X117526764Y-107512094D01*
X117475000Y-107772332D01*
X115155000Y-107772332D01*
X115155000Y-102981000D01*
X116344928Y-102981000D01*
X116357188Y-103105482D01*
X116393498Y-103225180D01*
X116452463Y-103335494D01*
X116531815Y-103432185D01*
X116628506Y-103511537D01*
X116738820Y-103570502D01*
X116858518Y-103606812D01*
X116983000Y-103619072D01*
X117050984Y-103618780D01*
X116975554Y-103694210D01*
X116833613Y-103906640D01*
X116735843Y-104142679D01*
X116686000Y-104393257D01*
X116686000Y-104648743D01*
X116735843Y-104899321D01*
X116833613Y-105135360D01*
X116975554Y-105347790D01*
X117156210Y-105528446D01*
X117368640Y-105670387D01*
X117604679Y-105768157D01*
X117855257Y-105818000D01*
X118110743Y-105818000D01*
X118361321Y-105768157D01*
X118597360Y-105670387D01*
X118809790Y-105528446D01*
X118990446Y-105347790D01*
X119132387Y-105135360D01*
X119230157Y-104899321D01*
X119280000Y-104648743D01*
X119280000Y-104393257D01*
X119230157Y-104142679D01*
X119132387Y-103906640D01*
X118990446Y-103694210D01*
X118915016Y-103618780D01*
X118983000Y-103619072D01*
X119107482Y-103606812D01*
X119227180Y-103570502D01*
X119337494Y-103511537D01*
X119434185Y-103432185D01*
X119513537Y-103335494D01*
X119572502Y-103225180D01*
X119608812Y-103105482D01*
X119621072Y-102981000D01*
X122440928Y-102981000D01*
X122453188Y-103105482D01*
X122489498Y-103225180D01*
X122548463Y-103335494D01*
X122627815Y-103432185D01*
X122724506Y-103511537D01*
X122834820Y-103570502D01*
X122954518Y-103606812D01*
X123079000Y-103619072D01*
X123146984Y-103618780D01*
X123071554Y-103694210D01*
X122929613Y-103906640D01*
X122831843Y-104142679D01*
X122782000Y-104393257D01*
X122782000Y-104648743D01*
X122831843Y-104899321D01*
X122929613Y-105135360D01*
X123071554Y-105347790D01*
X123252210Y-105528446D01*
X123464640Y-105670387D01*
X123700679Y-105768157D01*
X123951257Y-105818000D01*
X124206743Y-105818000D01*
X124457321Y-105768157D01*
X124693360Y-105670387D01*
X124905790Y-105528446D01*
X125086446Y-105347790D01*
X125228387Y-105135360D01*
X125326157Y-104899321D01*
X125376000Y-104648743D01*
X125376000Y-104393257D01*
X125326157Y-104142679D01*
X125274591Y-104018186D01*
X127287200Y-104018186D01*
X127287200Y-104261814D01*
X127334730Y-104500761D01*
X127427962Y-104725844D01*
X127563315Y-104928414D01*
X127735586Y-105100685D01*
X127938156Y-105236038D01*
X128163239Y-105329270D01*
X128402186Y-105376800D01*
X128645814Y-105376800D01*
X128884761Y-105329270D01*
X129109844Y-105236038D01*
X129312414Y-105100685D01*
X129484685Y-104928414D01*
X129620038Y-104725844D01*
X129713270Y-104500761D01*
X129760800Y-104261814D01*
X129760800Y-104018186D01*
X129713270Y-103779239D01*
X129620038Y-103554156D01*
X129484685Y-103351586D01*
X129312414Y-103179315D01*
X129109844Y-103043962D01*
X128884761Y-102950730D01*
X128645814Y-102903200D01*
X128402186Y-102903200D01*
X128163239Y-102950730D01*
X127938156Y-103043962D01*
X127735586Y-103179315D01*
X127563315Y-103351586D01*
X127427962Y-103554156D01*
X127334730Y-103779239D01*
X127287200Y-104018186D01*
X125274591Y-104018186D01*
X125228387Y-103906640D01*
X125086446Y-103694210D01*
X125011016Y-103618780D01*
X125079000Y-103619072D01*
X125203482Y-103606812D01*
X125323180Y-103570502D01*
X125433494Y-103511537D01*
X125530185Y-103432185D01*
X125609537Y-103335494D01*
X125668502Y-103225180D01*
X125704812Y-103105482D01*
X125717072Y-102981000D01*
X125714000Y-102266750D01*
X125555250Y-102108000D01*
X124206000Y-102108000D01*
X124206000Y-102128000D01*
X123952000Y-102128000D01*
X123952000Y-102108000D01*
X122602750Y-102108000D01*
X122444000Y-102266750D01*
X122440928Y-102981000D01*
X119621072Y-102981000D01*
X119618000Y-102266750D01*
X119459250Y-102108000D01*
X118110000Y-102108000D01*
X118110000Y-102128000D01*
X117856000Y-102128000D01*
X117856000Y-102108000D01*
X116506750Y-102108000D01*
X116348000Y-102266750D01*
X116344928Y-102981000D01*
X115155000Y-102981000D01*
X115155000Y-100981000D01*
X116344928Y-100981000D01*
X116348000Y-101695250D01*
X116506750Y-101854000D01*
X117856000Y-101854000D01*
X117856000Y-100504750D01*
X118110000Y-100504750D01*
X118110000Y-101854000D01*
X119459250Y-101854000D01*
X119618000Y-101695250D01*
X119621072Y-100981000D01*
X122440928Y-100981000D01*
X122444000Y-101695250D01*
X122602750Y-101854000D01*
X123952000Y-101854000D01*
X123952000Y-100504750D01*
X124206000Y-100504750D01*
X124206000Y-101854000D01*
X125555250Y-101854000D01*
X125714000Y-101695250D01*
X125717072Y-100981000D01*
X125704812Y-100856518D01*
X125668502Y-100736820D01*
X125609537Y-100626506D01*
X125530185Y-100529815D01*
X125433494Y-100450463D01*
X125323180Y-100391498D01*
X125203482Y-100355188D01*
X125079000Y-100342928D01*
X124364750Y-100346000D01*
X124206000Y-100504750D01*
X123952000Y-100504750D01*
X123793250Y-100346000D01*
X123079000Y-100342928D01*
X122954518Y-100355188D01*
X122834820Y-100391498D01*
X122724506Y-100450463D01*
X122627815Y-100529815D01*
X122548463Y-100626506D01*
X122489498Y-100736820D01*
X122453188Y-100856518D01*
X122440928Y-100981000D01*
X119621072Y-100981000D01*
X119608812Y-100856518D01*
X119572502Y-100736820D01*
X119513537Y-100626506D01*
X119434185Y-100529815D01*
X119337494Y-100450463D01*
X119227180Y-100391498D01*
X119107482Y-100355188D01*
X118983000Y-100342928D01*
X118268750Y-100346000D01*
X118110000Y-100504750D01*
X117856000Y-100504750D01*
X117697250Y-100346000D01*
X116983000Y-100342928D01*
X116858518Y-100355188D01*
X116738820Y-100391498D01*
X116628506Y-100450463D01*
X116531815Y-100529815D01*
X116452463Y-100626506D01*
X116393498Y-100736820D01*
X116357188Y-100856518D01*
X116344928Y-100981000D01*
X115155000Y-100981000D01*
X115155000Y-99028039D01*
X115302096Y-99028039D01*
X115319633Y-99110818D01*
X115430285Y-99370646D01*
X115589500Y-99603895D01*
X115791161Y-99801601D01*
X116027517Y-99956166D01*
X116289486Y-100061650D01*
X116567000Y-100114000D01*
X116967000Y-100114000D01*
X116967000Y-98806000D01*
X117221000Y-98806000D01*
X117221000Y-100114000D01*
X117621000Y-100114000D01*
X117898514Y-100061650D01*
X118160483Y-99956166D01*
X118396839Y-99801601D01*
X118598500Y-99603895D01*
X118757715Y-99370646D01*
X118868367Y-99110818D01*
X118885904Y-99028039D01*
X118763915Y-98806000D01*
X117221000Y-98806000D01*
X116967000Y-98806000D01*
X115424085Y-98806000D01*
X115302096Y-99028039D01*
X115155000Y-99028039D01*
X115155000Y-98329961D01*
X115302096Y-98329961D01*
X115424085Y-98552000D01*
X116967000Y-98552000D01*
X116967000Y-98532000D01*
X117221000Y-98532000D01*
X117221000Y-98552000D01*
X118763915Y-98552000D01*
X118885904Y-98329961D01*
X118868367Y-98247182D01*
X118757715Y-97987354D01*
X118598500Y-97754105D01*
X118396839Y-97556399D01*
X118160483Y-97401834D01*
X117898514Y-97296350D01*
X117621000Y-97244000D01*
X116567000Y-97244000D01*
X116289486Y-97296350D01*
X116027517Y-97401834D01*
X115791161Y-97556399D01*
X115589500Y-97754105D01*
X115430285Y-97987354D01*
X115319633Y-98247182D01*
X115302096Y-98329961D01*
X115155000Y-98329961D01*
X115155000Y-96139000D01*
X115591693Y-96139000D01*
X115612874Y-96354049D01*
X115675601Y-96560835D01*
X115777465Y-96751409D01*
X115914551Y-96918449D01*
X116081591Y-97055535D01*
X116272165Y-97157399D01*
X116478951Y-97220126D01*
X116640118Y-97236000D01*
X117547882Y-97236000D01*
X117709049Y-97220126D01*
X117915835Y-97157399D01*
X118106409Y-97055535D01*
X118273449Y-96918449D01*
X118410535Y-96751409D01*
X118512399Y-96560835D01*
X118575126Y-96354049D01*
X118596307Y-96139000D01*
X118575126Y-95923951D01*
X118512399Y-95717165D01*
X118410535Y-95526591D01*
X118273449Y-95359551D01*
X118106409Y-95222465D01*
X117915835Y-95120601D01*
X117709049Y-95057874D01*
X117547882Y-95042000D01*
X116640118Y-95042000D01*
X116478951Y-95057874D01*
X116272165Y-95120601D01*
X116081591Y-95222465D01*
X115914551Y-95359551D01*
X115777465Y-95526591D01*
X115675601Y-95717165D01*
X115612874Y-95923951D01*
X115591693Y-96139000D01*
X115155000Y-96139000D01*
X115155000Y-91059000D01*
X115591693Y-91059000D01*
X115612874Y-91274049D01*
X115675601Y-91480835D01*
X115777465Y-91671409D01*
X115914551Y-91838449D01*
X116081591Y-91975535D01*
X116272165Y-92077399D01*
X116478951Y-92140126D01*
X116640118Y-92156000D01*
X117547882Y-92156000D01*
X117709049Y-92140126D01*
X117915835Y-92077399D01*
X118106409Y-91975535D01*
X118273449Y-91838449D01*
X118410535Y-91671409D01*
X118512399Y-91480835D01*
X118575126Y-91274049D01*
X118596307Y-91059000D01*
X118575126Y-90843951D01*
X118512399Y-90637165D01*
X118410535Y-90446591D01*
X118273449Y-90279551D01*
X118106409Y-90142465D01*
X117915835Y-90040601D01*
X117709049Y-89977874D01*
X117547882Y-89962000D01*
X116640118Y-89962000D01*
X116478951Y-89977874D01*
X116272165Y-90040601D01*
X116081591Y-90142465D01*
X115914551Y-90279551D01*
X115777465Y-90446591D01*
X115675601Y-90637165D01*
X115612874Y-90843951D01*
X115591693Y-91059000D01*
X115155000Y-91059000D01*
X115155000Y-82450400D01*
X115289995Y-82450400D01*
X115291801Y-82468735D01*
X115291800Y-86387275D01*
X115289995Y-86405600D01*
X115291800Y-86423925D01*
X115297201Y-86478759D01*
X115318541Y-86549107D01*
X115353195Y-86613941D01*
X115399831Y-86670769D01*
X115414078Y-86682461D01*
X116231543Y-87499927D01*
X116243231Y-87514169D01*
X116244631Y-87515318D01*
X116081591Y-87602465D01*
X115914551Y-87739551D01*
X115777465Y-87906591D01*
X115675601Y-88097165D01*
X115612874Y-88303951D01*
X115591693Y-88519000D01*
X115612874Y-88734049D01*
X115675601Y-88940835D01*
X115777465Y-89131409D01*
X115914551Y-89298449D01*
X116081591Y-89435535D01*
X116272165Y-89537399D01*
X116478951Y-89600126D01*
X116640118Y-89616000D01*
X117547882Y-89616000D01*
X117709049Y-89600126D01*
X117915835Y-89537399D01*
X118106409Y-89435535D01*
X118155066Y-89395603D01*
X118155101Y-89395959D01*
X118176442Y-89466308D01*
X118209898Y-89528900D01*
X118211096Y-89531142D01*
X118257732Y-89587969D01*
X118271974Y-89599657D01*
X123827487Y-95155172D01*
X123701591Y-95222465D01*
X123534551Y-95359551D01*
X123397465Y-95526591D01*
X123295601Y-95717165D01*
X123232874Y-95923951D01*
X123211693Y-96139000D01*
X123232874Y-96354049D01*
X123295601Y-96560835D01*
X123397465Y-96751409D01*
X123534551Y-96918449D01*
X123677544Y-97035800D01*
X122487484Y-97035800D01*
X118799761Y-93348078D01*
X118788069Y-93333831D01*
X118731242Y-93287195D01*
X118666408Y-93252541D01*
X118596060Y-93231201D01*
X118541226Y-93225800D01*
X118541225Y-93225800D01*
X118526719Y-93224371D01*
X118512399Y-93177165D01*
X118410535Y-92986591D01*
X118273449Y-92819551D01*
X118106409Y-92682465D01*
X117915835Y-92580601D01*
X117709049Y-92517874D01*
X117547882Y-92502000D01*
X116640118Y-92502000D01*
X116478951Y-92517874D01*
X116272165Y-92580601D01*
X116081591Y-92682465D01*
X115914551Y-92819551D01*
X115777465Y-92986591D01*
X115675601Y-93177165D01*
X115612874Y-93383951D01*
X115591693Y-93599000D01*
X115612874Y-93814049D01*
X115675601Y-94020835D01*
X115777465Y-94211409D01*
X115914551Y-94378449D01*
X116081591Y-94515535D01*
X116272165Y-94617399D01*
X116478951Y-94680126D01*
X116640118Y-94696000D01*
X117547882Y-94696000D01*
X117709049Y-94680126D01*
X117915835Y-94617399D01*
X118106409Y-94515535D01*
X118273449Y-94378449D01*
X118410535Y-94211409D01*
X118479152Y-94083035D01*
X122056043Y-97659927D01*
X122067731Y-97674169D01*
X122119727Y-97716840D01*
X122124558Y-97720805D01*
X122189392Y-97755459D01*
X122259740Y-97776799D01*
X122332900Y-97784005D01*
X122351225Y-97782200D01*
X123677544Y-97782200D01*
X123534551Y-97899551D01*
X123397465Y-98066591D01*
X123295601Y-98257165D01*
X123232874Y-98463951D01*
X123211693Y-98679000D01*
X123232874Y-98894049D01*
X123295601Y-99100835D01*
X123397465Y-99291409D01*
X123534551Y-99458449D01*
X123701591Y-99595535D01*
X123892165Y-99697399D01*
X124098951Y-99760126D01*
X124260118Y-99776000D01*
X125167882Y-99776000D01*
X125329049Y-99760126D01*
X125535835Y-99697399D01*
X125726409Y-99595535D01*
X125893449Y-99458449D01*
X126030535Y-99291409D01*
X126132399Y-99100835D01*
X126195126Y-98894049D01*
X126203881Y-98805164D01*
X126257700Y-98858984D01*
X126257700Y-98889375D01*
X126255895Y-98907700D01*
X126257700Y-98926025D01*
X126257700Y-98926026D01*
X126263101Y-98980860D01*
X126284441Y-99051208D01*
X126319095Y-99116042D01*
X126365731Y-99172869D01*
X126379977Y-99184560D01*
X127776343Y-100580927D01*
X127788031Y-100595169D01*
X127794145Y-100600187D01*
X127735586Y-100639315D01*
X127563315Y-100811586D01*
X127427962Y-101014156D01*
X127334730Y-101239239D01*
X127287200Y-101478186D01*
X127287200Y-101721814D01*
X127334730Y-101960761D01*
X127427962Y-102185844D01*
X127563315Y-102388414D01*
X127735586Y-102560685D01*
X127938156Y-102696038D01*
X128163239Y-102789270D01*
X128402186Y-102836800D01*
X128645814Y-102836800D01*
X128884761Y-102789270D01*
X129097406Y-102701190D01*
X129430348Y-103034133D01*
X129442031Y-103048369D01*
X129498858Y-103095005D01*
X129563692Y-103129659D01*
X129634040Y-103150999D01*
X129707199Y-103158205D01*
X129725525Y-103156400D01*
X130309881Y-103156400D01*
X130275586Y-103179315D01*
X130103315Y-103351586D01*
X129967962Y-103554156D01*
X129874730Y-103779239D01*
X129827200Y-104018186D01*
X129827200Y-104261814D01*
X129874730Y-104500761D01*
X129967962Y-104725844D01*
X130103315Y-104928414D01*
X130275586Y-105100685D01*
X130478156Y-105236038D01*
X130703239Y-105329270D01*
X130942186Y-105376800D01*
X131185814Y-105376800D01*
X131424761Y-105329270D01*
X131649844Y-105236038D01*
X131852414Y-105100685D01*
X132024685Y-104928414D01*
X132160038Y-104725844D01*
X132253270Y-104500761D01*
X132300800Y-104261814D01*
X132300800Y-104018186D01*
X132253270Y-103779239D01*
X132160038Y-103554156D01*
X132024685Y-103351586D01*
X131852414Y-103179315D01*
X131774636Y-103127346D01*
X131835142Y-103095005D01*
X131891969Y-103048369D01*
X131903661Y-103034122D01*
X132485227Y-102452557D01*
X132499469Y-102440869D01*
X132546105Y-102384042D01*
X132580759Y-102319208D01*
X132602099Y-102248860D01*
X132607500Y-102194026D01*
X132609305Y-102175700D01*
X132607500Y-102157375D01*
X132607500Y-93452125D01*
X132609305Y-93433800D01*
X132602099Y-93360640D01*
X132580759Y-93290292D01*
X132546105Y-93225458D01*
X132535307Y-93212301D01*
X132499469Y-93168631D01*
X132485228Y-93156944D01*
X131787361Y-92459078D01*
X131779450Y-92449438D01*
X131852414Y-92400685D01*
X132024685Y-92228414D01*
X132160038Y-92025844D01*
X132253270Y-91800761D01*
X132300800Y-91561814D01*
X132300800Y-91318186D01*
X132253270Y-91079239D01*
X132160038Y-90854156D01*
X132024685Y-90651586D01*
X131852414Y-90479315D01*
X131649844Y-90343962D01*
X131424761Y-90250730D01*
X131185814Y-90203200D01*
X130942186Y-90203200D01*
X130703239Y-90250730D01*
X130478156Y-90343962D01*
X130275586Y-90479315D01*
X130103315Y-90651586D01*
X130066000Y-90707432D01*
X130066000Y-89547225D01*
X130067805Y-89528900D01*
X130060599Y-89455740D01*
X130039259Y-89385392D01*
X130004605Y-89320558D01*
X129957969Y-89263731D01*
X129943729Y-89252045D01*
X126419761Y-85728078D01*
X126408069Y-85713831D01*
X126351242Y-85667195D01*
X126286408Y-85632541D01*
X126216060Y-85611201D01*
X126161226Y-85605800D01*
X126161225Y-85605800D01*
X126146719Y-85604371D01*
X126132399Y-85557165D01*
X126030535Y-85366591D01*
X125893449Y-85199551D01*
X125726409Y-85062465D01*
X125535835Y-84960601D01*
X125329049Y-84897874D01*
X125167882Y-84882000D01*
X124260118Y-84882000D01*
X124098951Y-84897874D01*
X123892165Y-84960601D01*
X123701591Y-85062465D01*
X123534551Y-85199551D01*
X123397465Y-85366591D01*
X123295601Y-85557165D01*
X123232874Y-85763951D01*
X123211693Y-85979000D01*
X123232874Y-86194049D01*
X123295601Y-86400835D01*
X123397465Y-86591409D01*
X123534551Y-86758449D01*
X123701591Y-86895535D01*
X123892165Y-86997399D01*
X124098951Y-87060126D01*
X124260118Y-87076000D01*
X125167882Y-87076000D01*
X125329049Y-87060126D01*
X125535835Y-86997399D01*
X125726409Y-86895535D01*
X125893449Y-86758449D01*
X126030535Y-86591409D01*
X126099152Y-86463035D01*
X129319600Y-89683484D01*
X129319600Y-90075383D01*
X129069024Y-89954403D01*
X128768725Y-89876619D01*
X128459023Y-89858916D01*
X128151816Y-89901973D01*
X127858914Y-90004135D01*
X127699623Y-90089277D01*
X127611129Y-90347524D01*
X128524000Y-91260395D01*
X128538143Y-91246253D01*
X128717748Y-91425858D01*
X128703605Y-91440000D01*
X129616476Y-92352871D01*
X129676291Y-92332374D01*
X130304848Y-92960933D01*
X130316531Y-92975169D01*
X130327806Y-92984422D01*
X130275586Y-93019315D01*
X130103315Y-93191586D01*
X130035205Y-93293520D01*
X129395344Y-92653661D01*
X129436871Y-92532476D01*
X128524000Y-91619605D01*
X128035645Y-92107960D01*
X127856040Y-91928355D01*
X128344395Y-91440000D01*
X127431524Y-90527129D01*
X127173277Y-90615623D01*
X127038403Y-90894976D01*
X126994018Y-91066334D01*
X126513987Y-90586304D01*
X126510799Y-90553940D01*
X126489459Y-90483593D01*
X126489459Y-90483592D01*
X126454805Y-90418758D01*
X126408169Y-90361931D01*
X126393934Y-90350249D01*
X125581761Y-89538078D01*
X125570069Y-89523831D01*
X125566578Y-89520966D01*
X125726409Y-89435535D01*
X125893449Y-89298449D01*
X126030535Y-89131409D01*
X126132399Y-88940835D01*
X126195126Y-88734049D01*
X126216307Y-88519000D01*
X126195126Y-88303951D01*
X126132399Y-88097165D01*
X126030535Y-87906591D01*
X125893449Y-87739551D01*
X125726409Y-87602465D01*
X125535835Y-87500601D01*
X125329049Y-87437874D01*
X125167882Y-87422000D01*
X124260118Y-87422000D01*
X124098951Y-87437874D01*
X123892165Y-87500601D01*
X123701591Y-87602465D01*
X123534551Y-87739551D01*
X123397465Y-87906591D01*
X123295601Y-88097165D01*
X123232874Y-88303951D01*
X123224900Y-88384915D01*
X118896100Y-84056117D01*
X118896100Y-83457326D01*
X118897905Y-83439000D01*
X123211693Y-83439000D01*
X123232874Y-83654049D01*
X123295601Y-83860835D01*
X123397465Y-84051409D01*
X123534551Y-84218449D01*
X123701591Y-84355535D01*
X123892165Y-84457399D01*
X124098951Y-84520126D01*
X124260118Y-84536000D01*
X125167882Y-84536000D01*
X125329049Y-84520126D01*
X125535835Y-84457399D01*
X125726409Y-84355535D01*
X125893449Y-84218449D01*
X126030535Y-84051409D01*
X126132399Y-83860835D01*
X126147152Y-83812200D01*
X127988417Y-83812200D01*
X152822810Y-108646594D01*
X152734730Y-108859239D01*
X152687200Y-109098186D01*
X152687200Y-109341814D01*
X152734730Y-109580761D01*
X152827962Y-109805844D01*
X152963315Y-110008414D01*
X153135586Y-110180685D01*
X153338156Y-110316038D01*
X153563239Y-110409270D01*
X153802186Y-110456800D01*
X154045814Y-110456800D01*
X154284761Y-110409270D01*
X154509844Y-110316038D01*
X154712414Y-110180685D01*
X154884685Y-110008414D01*
X155020038Y-109805844D01*
X155113270Y-109580761D01*
X155160800Y-109341814D01*
X155160800Y-109098186D01*
X155227200Y-109098186D01*
X155227200Y-109341814D01*
X155274730Y-109580761D01*
X155367962Y-109805844D01*
X155503315Y-110008414D01*
X155675586Y-110180685D01*
X155878156Y-110316038D01*
X156103239Y-110409270D01*
X156342186Y-110456800D01*
X156585814Y-110456800D01*
X156824761Y-110409270D01*
X157049844Y-110316038D01*
X157252414Y-110180685D01*
X157424685Y-110008414D01*
X157560038Y-109805844D01*
X157653270Y-109580761D01*
X157700800Y-109341814D01*
X157700800Y-109098186D01*
X157653270Y-108859239D01*
X157560038Y-108634156D01*
X157424685Y-108431586D01*
X157252414Y-108259315D01*
X157049844Y-108123962D01*
X156824761Y-108030730D01*
X156585814Y-107983200D01*
X156342186Y-107983200D01*
X156103239Y-108030730D01*
X155878156Y-108123962D01*
X155675586Y-108259315D01*
X155503315Y-108431586D01*
X155367962Y-108634156D01*
X155274730Y-108859239D01*
X155227200Y-109098186D01*
X155160800Y-109098186D01*
X155113270Y-108859239D01*
X155020038Y-108634156D01*
X154884685Y-108431586D01*
X154712414Y-108259315D01*
X154529060Y-108136802D01*
X154589086Y-108115865D01*
X154748377Y-108030723D01*
X154771583Y-107963000D01*
X161352563Y-107963000D01*
X161352563Y-109713000D01*
X161375110Y-109941926D01*
X161441886Y-110162055D01*
X161550323Y-110364927D01*
X161696255Y-110542745D01*
X161874073Y-110688677D01*
X162076945Y-110797114D01*
X162297074Y-110863890D01*
X162526000Y-110886437D01*
X164276000Y-110886437D01*
X164504926Y-110863890D01*
X164725055Y-110797114D01*
X164927927Y-110688677D01*
X165105745Y-110542745D01*
X165251677Y-110364927D01*
X165360114Y-110162055D01*
X165426890Y-109941926D01*
X165449437Y-109713000D01*
X165449437Y-107963000D01*
X165426890Y-107734074D01*
X165360114Y-107513945D01*
X165251677Y-107311073D01*
X165105745Y-107133255D01*
X164927927Y-106987323D01*
X164725055Y-106878886D01*
X164504926Y-106812110D01*
X164276000Y-106789563D01*
X162526000Y-106789563D01*
X162297074Y-106812110D01*
X162076945Y-106878886D01*
X161874073Y-106987323D01*
X161696255Y-107133255D01*
X161550323Y-107311073D01*
X161441886Y-107513945D01*
X161375110Y-107734074D01*
X161352563Y-107963000D01*
X154771583Y-107963000D01*
X154836871Y-107772476D01*
X153924000Y-106859605D01*
X153909858Y-106873748D01*
X153730253Y-106694143D01*
X153744395Y-106680000D01*
X154103605Y-106680000D01*
X155016476Y-107592871D01*
X155274723Y-107504377D01*
X155380691Y-107284894D01*
X155503315Y-107468414D01*
X155675586Y-107640685D01*
X155878156Y-107776038D01*
X156103239Y-107869270D01*
X156342186Y-107916800D01*
X156585814Y-107916800D01*
X156824761Y-107869270D01*
X157049844Y-107776038D01*
X157252414Y-107640685D01*
X157424685Y-107468414D01*
X157560038Y-107265844D01*
X157653270Y-107040761D01*
X157700800Y-106801814D01*
X157700800Y-106558186D01*
X157653270Y-106319239D01*
X157560038Y-106094156D01*
X157424685Y-105891586D01*
X157252414Y-105719315D01*
X157049844Y-105583962D01*
X156824761Y-105490730D01*
X156585814Y-105443200D01*
X156342186Y-105443200D01*
X156103239Y-105490730D01*
X155878156Y-105583962D01*
X155675586Y-105719315D01*
X155503315Y-105891586D01*
X155380802Y-106074940D01*
X155359865Y-106014914D01*
X155274723Y-105855623D01*
X155016476Y-105767129D01*
X154103605Y-106680000D01*
X153744395Y-106680000D01*
X152831524Y-105767129D01*
X152573277Y-105855623D01*
X152438403Y-106134976D01*
X152360619Y-106435275D01*
X152342916Y-106744977D01*
X152385973Y-107052184D01*
X152440608Y-107208824D01*
X144169970Y-98938186D01*
X152687200Y-98938186D01*
X152687200Y-99181814D01*
X152734730Y-99420761D01*
X152827962Y-99645844D01*
X152963315Y-99848414D01*
X153135586Y-100020685D01*
X153338156Y-100156038D01*
X153563239Y-100249270D01*
X153802186Y-100296800D01*
X154045814Y-100296800D01*
X154284761Y-100249270D01*
X154509844Y-100156038D01*
X154712414Y-100020685D01*
X154884685Y-99848414D01*
X155020038Y-99645844D01*
X155113270Y-99420761D01*
X155160800Y-99181814D01*
X155160800Y-98938186D01*
X155113270Y-98699239D01*
X155020038Y-98474156D01*
X154884685Y-98271586D01*
X154712414Y-98099315D01*
X154509844Y-97963962D01*
X154284761Y-97870730D01*
X154045814Y-97823200D01*
X153802186Y-97823200D01*
X153563239Y-97870730D01*
X153338156Y-97963962D01*
X153135586Y-98099315D01*
X152963315Y-98271586D01*
X152827962Y-98474156D01*
X152734730Y-98699239D01*
X152687200Y-98938186D01*
X144169970Y-98938186D01*
X141629970Y-96398186D01*
X152687200Y-96398186D01*
X152687200Y-96641814D01*
X152734730Y-96880761D01*
X152827962Y-97105844D01*
X152963315Y-97308414D01*
X153135586Y-97480685D01*
X153338156Y-97616038D01*
X153563239Y-97709270D01*
X153802186Y-97756800D01*
X154045814Y-97756800D01*
X154284761Y-97709270D01*
X154509844Y-97616038D01*
X154712414Y-97480685D01*
X154884685Y-97308414D01*
X155020038Y-97105844D01*
X155113270Y-96880761D01*
X155160800Y-96641814D01*
X155160800Y-96398186D01*
X155113270Y-96159239D01*
X155020038Y-95934156D01*
X154884685Y-95731586D01*
X154712414Y-95559315D01*
X154509844Y-95423962D01*
X154284761Y-95330730D01*
X154045814Y-95283200D01*
X153802186Y-95283200D01*
X153563239Y-95330730D01*
X153338156Y-95423962D01*
X153135586Y-95559315D01*
X152963315Y-95731586D01*
X152827962Y-95934156D01*
X152734730Y-96159239D01*
X152687200Y-96398186D01*
X141629970Y-96398186D01*
X139089970Y-93858186D01*
X152687200Y-93858186D01*
X152687200Y-94101814D01*
X152734730Y-94340761D01*
X152827962Y-94565844D01*
X152963315Y-94768414D01*
X153135586Y-94940685D01*
X153338156Y-95076038D01*
X153563239Y-95169270D01*
X153802186Y-95216800D01*
X154045814Y-95216800D01*
X154284761Y-95169270D01*
X154509844Y-95076038D01*
X154712414Y-94940685D01*
X154884685Y-94768414D01*
X155020038Y-94565844D01*
X155113270Y-94340761D01*
X155160800Y-94101814D01*
X155160800Y-93858186D01*
X155227200Y-93858186D01*
X155227200Y-94101814D01*
X155274730Y-94340761D01*
X155367962Y-94565844D01*
X155503315Y-94768414D01*
X155675586Y-94940685D01*
X155878156Y-95076038D01*
X156103239Y-95169270D01*
X156342186Y-95216800D01*
X156585814Y-95216800D01*
X156824761Y-95169270D01*
X157049844Y-95076038D01*
X157252414Y-94940685D01*
X157424685Y-94768414D01*
X157560038Y-94565844D01*
X157653270Y-94340761D01*
X157700800Y-94101814D01*
X157700800Y-93858186D01*
X157653270Y-93619239D01*
X157565190Y-93406594D01*
X159251542Y-91720242D01*
X159348551Y-91838449D01*
X159515591Y-91975535D01*
X159706165Y-92077399D01*
X159912951Y-92140126D01*
X160074118Y-92156000D01*
X160981882Y-92156000D01*
X161143049Y-92140126D01*
X161349835Y-92077399D01*
X161540409Y-91975535D01*
X161707449Y-91838449D01*
X161844535Y-91671409D01*
X161946399Y-91480835D01*
X162009126Y-91274049D01*
X162030307Y-91059000D01*
X162009126Y-90843951D01*
X161946399Y-90637165D01*
X161844535Y-90446591D01*
X161707449Y-90279551D01*
X161540409Y-90142465D01*
X161349835Y-90040601D01*
X161143049Y-89977874D01*
X160981882Y-89962000D01*
X160074118Y-89962000D01*
X159912951Y-89977874D01*
X159706165Y-90040601D01*
X159515591Y-90142465D01*
X159472300Y-90177993D01*
X159472300Y-89400007D01*
X159515591Y-89435535D01*
X159706165Y-89537399D01*
X159912951Y-89600126D01*
X160074118Y-89616000D01*
X160981882Y-89616000D01*
X161143049Y-89600126D01*
X161349835Y-89537399D01*
X161540409Y-89435535D01*
X161707449Y-89298449D01*
X161844535Y-89131409D01*
X161946399Y-88940835D01*
X162009126Y-88734049D01*
X162030307Y-88519000D01*
X162009126Y-88303951D01*
X161946399Y-88097165D01*
X161844535Y-87906591D01*
X161707449Y-87739551D01*
X161540409Y-87602465D01*
X161349835Y-87500601D01*
X161143049Y-87437874D01*
X160981882Y-87422000D01*
X160074118Y-87422000D01*
X159912951Y-87437874D01*
X159706165Y-87500601D01*
X159515591Y-87602465D01*
X159472300Y-87637993D01*
X159472300Y-86860007D01*
X159515591Y-86895535D01*
X159706165Y-86997399D01*
X159912951Y-87060126D01*
X160074118Y-87076000D01*
X160981882Y-87076000D01*
X161143049Y-87060126D01*
X161349835Y-86997399D01*
X161540409Y-86895535D01*
X161707449Y-86758449D01*
X161844535Y-86591409D01*
X161946399Y-86400835D01*
X162009126Y-86194049D01*
X162030307Y-85979000D01*
X162009126Y-85763951D01*
X161946399Y-85557165D01*
X161844535Y-85366591D01*
X161707449Y-85199551D01*
X161540409Y-85062465D01*
X161349835Y-84960601D01*
X161143049Y-84897874D01*
X160981882Y-84882000D01*
X160074118Y-84882000D01*
X159912951Y-84897874D01*
X159706165Y-84960601D01*
X159515591Y-85062465D01*
X159472300Y-85097993D01*
X159472300Y-84537437D01*
X161728000Y-84537437D01*
X161786222Y-84531703D01*
X161842207Y-84514720D01*
X161893803Y-84487141D01*
X161939027Y-84450027D01*
X161976141Y-84404803D01*
X162003720Y-84353207D01*
X162020703Y-84297222D01*
X162026437Y-84239000D01*
X162026437Y-82639000D01*
X162020703Y-82580778D01*
X162003720Y-82524793D01*
X161976141Y-82473197D01*
X161939027Y-82427973D01*
X161893803Y-82390859D01*
X161842207Y-82363280D01*
X161786222Y-82346297D01*
X161728000Y-82340563D01*
X159328000Y-82340563D01*
X159269778Y-82346297D01*
X159213793Y-82363280D01*
X159162197Y-82390859D01*
X159116973Y-82427973D01*
X159079859Y-82473197D01*
X159052280Y-82524793D01*
X159035297Y-82580778D01*
X159029563Y-82639000D01*
X159029563Y-83070844D01*
X159025940Y-83071201D01*
X158955592Y-83092541D01*
X158890758Y-83127195D01*
X158833931Y-83173831D01*
X158787295Y-83230658D01*
X158752641Y-83295492D01*
X158731301Y-83365840D01*
X158724095Y-83439000D01*
X158725900Y-83457326D01*
X158725901Y-91190315D01*
X157956031Y-91960186D01*
X158027381Y-91684725D01*
X158045084Y-91375023D01*
X158002027Y-91067816D01*
X157899865Y-90774914D01*
X157814723Y-90615623D01*
X157556476Y-90527129D01*
X156643605Y-91440000D01*
X156657748Y-91454143D01*
X156478143Y-91633748D01*
X156464000Y-91619605D01*
X155551129Y-92532476D01*
X155639623Y-92790723D01*
X155859106Y-92896691D01*
X155675586Y-93019315D01*
X155503315Y-93191586D01*
X155367962Y-93394156D01*
X155274730Y-93619239D01*
X155227200Y-93858186D01*
X155160800Y-93858186D01*
X155113270Y-93619239D01*
X155020038Y-93394156D01*
X154884685Y-93191586D01*
X154712414Y-93019315D01*
X154509844Y-92883962D01*
X154284761Y-92790730D01*
X154045814Y-92743200D01*
X153802186Y-92743200D01*
X153563239Y-92790730D01*
X153338156Y-92883962D01*
X153135586Y-93019315D01*
X152963315Y-93191586D01*
X152827962Y-93394156D01*
X152734730Y-93619239D01*
X152687200Y-93858186D01*
X139089970Y-93858186D01*
X136549970Y-91318186D01*
X152687200Y-91318186D01*
X152687200Y-91561814D01*
X152734730Y-91800761D01*
X152827962Y-92025844D01*
X152963315Y-92228414D01*
X153135586Y-92400685D01*
X153338156Y-92536038D01*
X153563239Y-92629270D01*
X153802186Y-92676800D01*
X154045814Y-92676800D01*
X154284761Y-92629270D01*
X154509844Y-92536038D01*
X154712414Y-92400685D01*
X154884685Y-92228414D01*
X155007198Y-92045060D01*
X155028135Y-92105086D01*
X155113277Y-92264377D01*
X155371524Y-92352871D01*
X156284395Y-91440000D01*
X155371524Y-90527129D01*
X155113277Y-90615623D01*
X155007309Y-90835106D01*
X154884685Y-90651586D01*
X154712414Y-90479315D01*
X154515175Y-90347524D01*
X155551129Y-90347524D01*
X156464000Y-91260395D01*
X157376871Y-90347524D01*
X157288377Y-90089277D01*
X157009024Y-89954403D01*
X156708725Y-89876619D01*
X156399023Y-89858916D01*
X156091816Y-89901973D01*
X155798914Y-90004135D01*
X155639623Y-90089277D01*
X155551129Y-90347524D01*
X154515175Y-90347524D01*
X154509844Y-90343962D01*
X154284761Y-90250730D01*
X154045814Y-90203200D01*
X153802186Y-90203200D01*
X153563239Y-90250730D01*
X153338156Y-90343962D01*
X153135586Y-90479315D01*
X152963315Y-90651586D01*
X152827962Y-90854156D01*
X152734730Y-91079239D01*
X152687200Y-91318186D01*
X136549970Y-91318186D01*
X128419861Y-83188078D01*
X128408169Y-83173831D01*
X128351342Y-83127195D01*
X128286508Y-83092541D01*
X128216160Y-83071201D01*
X128161326Y-83065800D01*
X128161325Y-83065800D01*
X128143000Y-83063995D01*
X128124675Y-83065800D01*
X126147152Y-83065800D01*
X126132399Y-83017165D01*
X126030535Y-82826591D01*
X125893449Y-82659551D01*
X125726409Y-82522465D01*
X125535835Y-82420601D01*
X125329049Y-82357874D01*
X125167882Y-82342000D01*
X124260118Y-82342000D01*
X124098951Y-82357874D01*
X123892165Y-82420601D01*
X123701591Y-82522465D01*
X123534551Y-82659551D01*
X123397465Y-82826591D01*
X123295601Y-83017165D01*
X123232874Y-83223951D01*
X123211693Y-83439000D01*
X118897905Y-83439000D01*
X118890699Y-83365840D01*
X118869359Y-83295492D01*
X118834705Y-83230658D01*
X118788069Y-83173831D01*
X118731242Y-83127195D01*
X118666408Y-83092541D01*
X118596060Y-83071201D01*
X118592437Y-83070844D01*
X118592437Y-82639000D01*
X118586703Y-82580778D01*
X118569720Y-82524793D01*
X118542141Y-82473197D01*
X118505027Y-82427973D01*
X118459803Y-82390859D01*
X118408207Y-82363280D01*
X118352222Y-82346297D01*
X118294000Y-82340563D01*
X116302620Y-82340563D01*
X120377003Y-78266180D01*
X120363859Y-78282197D01*
X120336280Y-78333793D01*
X120319297Y-78389778D01*
X120313563Y-78448000D01*
X120313563Y-80048000D01*
X120319297Y-80106222D01*
X120336280Y-80162207D01*
X120363859Y-80213803D01*
X120400973Y-80259027D01*
X120446197Y-80296141D01*
X120497793Y-80323720D01*
X120553778Y-80340703D01*
X120612000Y-80346437D01*
X122212000Y-80346437D01*
X122270222Y-80340703D01*
X122326207Y-80323720D01*
X122377803Y-80296141D01*
X122423027Y-80259027D01*
X122460141Y-80213803D01*
X122487720Y-80162207D01*
X122504703Y-80106222D01*
X122510437Y-80048000D01*
X122510437Y-79139955D01*
X123085000Y-79139955D01*
X123085000Y-79356045D01*
X123127157Y-79567983D01*
X123209851Y-79767624D01*
X123329904Y-79947297D01*
X123482703Y-80100096D01*
X123662376Y-80220149D01*
X123862017Y-80302843D01*
X124073955Y-80345000D01*
X124290045Y-80345000D01*
X124501983Y-80302843D01*
X124701624Y-80220149D01*
X124881297Y-80100096D01*
X125034096Y-79947297D01*
X125154149Y-79767624D01*
X125236843Y-79567983D01*
X125279000Y-79356045D01*
X125279000Y-79139955D01*
X125855000Y-79139955D01*
X125855000Y-79356045D01*
X125897157Y-79567983D01*
X125979851Y-79767624D01*
X126099904Y-79947297D01*
X126252703Y-80100096D01*
X126432376Y-80220149D01*
X126632017Y-80302843D01*
X126843955Y-80345000D01*
X127060045Y-80345000D01*
X127271983Y-80302843D01*
X127471624Y-80220149D01*
X127651297Y-80100096D01*
X127804096Y-79947297D01*
X127924149Y-79767624D01*
X128006843Y-79567983D01*
X128049000Y-79356045D01*
X128049000Y-79139955D01*
X128625000Y-79139955D01*
X128625000Y-79356045D01*
X128667157Y-79567983D01*
X128749851Y-79767624D01*
X128869904Y-79947297D01*
X129022703Y-80100096D01*
X129202376Y-80220149D01*
X129402017Y-80302843D01*
X129613955Y-80345000D01*
X129830045Y-80345000D01*
X130041983Y-80302843D01*
X130241624Y-80220149D01*
X130421297Y-80100096D01*
X130574096Y-79947297D01*
X130694149Y-79767624D01*
X130776843Y-79567983D01*
X130819000Y-79356045D01*
X130819000Y-79139955D01*
X131395000Y-79139955D01*
X131395000Y-79356045D01*
X131437157Y-79567983D01*
X131519851Y-79767624D01*
X131639904Y-79947297D01*
X131792703Y-80100096D01*
X131972376Y-80220149D01*
X132172017Y-80302843D01*
X132383955Y-80345000D01*
X132600045Y-80345000D01*
X132811983Y-80302843D01*
X132958408Y-80242192D01*
X134539343Y-81823127D01*
X134551031Y-81837369D01*
X134607858Y-81884005D01*
X134672692Y-81918659D01*
X134743040Y-81939999D01*
X134816199Y-81947205D01*
X134834525Y-81945400D01*
X168020817Y-81945400D01*
X168417416Y-82342000D01*
X167694118Y-82342000D01*
X167532951Y-82357874D01*
X167326165Y-82420601D01*
X167135591Y-82522465D01*
X166968551Y-82659551D01*
X166831465Y-82826591D01*
X166729601Y-83017165D01*
X166666874Y-83223951D01*
X166645693Y-83439000D01*
X166666874Y-83654049D01*
X166729601Y-83860835D01*
X166831465Y-84051409D01*
X166968551Y-84218449D01*
X167135591Y-84355535D01*
X167326165Y-84457399D01*
X167532951Y-84520126D01*
X167694118Y-84536000D01*
X168601882Y-84536000D01*
X168763049Y-84520126D01*
X168969835Y-84457399D01*
X169160409Y-84355535D01*
X169203701Y-84320006D01*
X169203701Y-85097993D01*
X169160409Y-85062465D01*
X168969835Y-84960601D01*
X168763049Y-84897874D01*
X168601882Y-84882000D01*
X167694118Y-84882000D01*
X167532951Y-84897874D01*
X167326165Y-84960601D01*
X167135591Y-85062465D01*
X166968551Y-85199551D01*
X166831465Y-85366591D01*
X166729601Y-85557165D01*
X166715281Y-85604371D01*
X166700774Y-85605800D01*
X166645940Y-85611201D01*
X166575592Y-85632541D01*
X166510758Y-85667195D01*
X166453931Y-85713831D01*
X166407295Y-85770658D01*
X166372641Y-85835492D01*
X166351301Y-85905840D01*
X166344095Y-85979000D01*
X166345900Y-85997326D01*
X166345901Y-89126715D01*
X162016258Y-93456359D01*
X162009126Y-93383951D01*
X161946399Y-93177165D01*
X161844535Y-92986591D01*
X161707449Y-92819551D01*
X161540409Y-92682465D01*
X161349835Y-92580601D01*
X161143049Y-92517874D01*
X160981882Y-92502000D01*
X160074118Y-92502000D01*
X159912951Y-92517874D01*
X159706165Y-92580601D01*
X159515591Y-92682465D01*
X159348551Y-92819551D01*
X159211465Y-92986591D01*
X159109601Y-93177165D01*
X159046874Y-93383951D01*
X159025693Y-93599000D01*
X159046874Y-93814049D01*
X159109601Y-94020835D01*
X159211465Y-94211409D01*
X159348551Y-94378449D01*
X159515591Y-94515535D01*
X159677481Y-94602067D01*
X159675331Y-94603831D01*
X159663643Y-94618073D01*
X157766478Y-96515239D01*
X157752231Y-96526931D01*
X157705595Y-96583759D01*
X157700800Y-96592730D01*
X157700800Y-96398186D01*
X157653270Y-96159239D01*
X157560038Y-95934156D01*
X157424685Y-95731586D01*
X157252414Y-95559315D01*
X157049844Y-95423962D01*
X156824761Y-95330730D01*
X156585814Y-95283200D01*
X156342186Y-95283200D01*
X156103239Y-95330730D01*
X155878156Y-95423962D01*
X155675586Y-95559315D01*
X155503315Y-95731586D01*
X155367962Y-95934156D01*
X155274730Y-96159239D01*
X155227200Y-96398186D01*
X155227200Y-96641814D01*
X155274730Y-96880761D01*
X155367962Y-97105844D01*
X155503315Y-97308414D01*
X155675586Y-97480685D01*
X155878156Y-97616038D01*
X156103239Y-97709270D01*
X156342186Y-97756800D01*
X156585814Y-97756800D01*
X156824761Y-97709270D01*
X157049844Y-97616038D01*
X157252414Y-97480685D01*
X157424685Y-97308414D01*
X157560038Y-97105844D01*
X157644200Y-96902658D01*
X157644201Y-98677344D01*
X157560038Y-98474156D01*
X157424685Y-98271586D01*
X157252414Y-98099315D01*
X157049844Y-97963962D01*
X156824761Y-97870730D01*
X156585814Y-97823200D01*
X156342186Y-97823200D01*
X156103239Y-97870730D01*
X155878156Y-97963962D01*
X155675586Y-98099315D01*
X155503315Y-98271586D01*
X155367962Y-98474156D01*
X155274730Y-98699239D01*
X155227200Y-98938186D01*
X155227200Y-99181814D01*
X155274730Y-99420761D01*
X155367962Y-99645844D01*
X155503315Y-99848414D01*
X155675586Y-100020685D01*
X155790136Y-100097225D01*
X155748658Y-100119395D01*
X155691831Y-100166031D01*
X155680143Y-100180273D01*
X154950433Y-100909984D01*
X154884685Y-100811586D01*
X154712414Y-100639315D01*
X154509844Y-100503962D01*
X154284761Y-100410730D01*
X154045814Y-100363200D01*
X153802186Y-100363200D01*
X153563239Y-100410730D01*
X153338156Y-100503962D01*
X153135586Y-100639315D01*
X152963315Y-100811586D01*
X152827962Y-101014156D01*
X152734730Y-101239239D01*
X152687200Y-101478186D01*
X152687200Y-101721814D01*
X152734730Y-101960761D01*
X152827962Y-102185844D01*
X152963315Y-102388414D01*
X153135586Y-102560685D01*
X153338156Y-102696038D01*
X153563239Y-102789270D01*
X153802186Y-102836800D01*
X154045814Y-102836800D01*
X154284761Y-102789270D01*
X154509844Y-102696038D01*
X154712414Y-102560685D01*
X154820801Y-102452298D01*
X154820801Y-102715415D01*
X154497406Y-103038810D01*
X154284761Y-102950730D01*
X154045814Y-102903200D01*
X153802186Y-102903200D01*
X153563239Y-102950730D01*
X153338156Y-103043962D01*
X153135586Y-103179315D01*
X152963315Y-103351586D01*
X152827962Y-103554156D01*
X152734730Y-103779239D01*
X152687200Y-104018186D01*
X152687200Y-104261814D01*
X152734730Y-104500761D01*
X152827962Y-104725844D01*
X152963315Y-104928414D01*
X153135586Y-105100685D01*
X153318940Y-105223198D01*
X153258914Y-105244135D01*
X153099623Y-105329277D01*
X153011129Y-105587524D01*
X153924000Y-106500395D01*
X154836871Y-105587524D01*
X154748377Y-105329277D01*
X154528894Y-105223309D01*
X154712414Y-105100685D01*
X154884685Y-104928414D01*
X155020038Y-104725844D01*
X155113270Y-104500761D01*
X155160800Y-104261814D01*
X155160800Y-104018186D01*
X155227200Y-104018186D01*
X155227200Y-104261814D01*
X155274730Y-104500761D01*
X155367962Y-104725844D01*
X155503315Y-104928414D01*
X155675586Y-105100685D01*
X155878156Y-105236038D01*
X156103239Y-105329270D01*
X156342186Y-105376800D01*
X156585814Y-105376800D01*
X156824761Y-105329270D01*
X157049844Y-105236038D01*
X157252414Y-105100685D01*
X157424685Y-104928414D01*
X157560038Y-104725844D01*
X157653270Y-104500761D01*
X157700800Y-104261814D01*
X157700800Y-104018186D01*
X157653270Y-103779239D01*
X157560038Y-103554156D01*
X157424685Y-103351586D01*
X157252414Y-103179315D01*
X157049844Y-103043962D01*
X156824761Y-102950730D01*
X156585814Y-102903200D01*
X156342186Y-102903200D01*
X156103239Y-102950730D01*
X155878156Y-103043962D01*
X155675586Y-103179315D01*
X155503315Y-103351586D01*
X155367962Y-103554156D01*
X155274730Y-103779239D01*
X155227200Y-104018186D01*
X155160800Y-104018186D01*
X155113270Y-103779239D01*
X155025190Y-103566594D01*
X155444927Y-103146857D01*
X155459169Y-103135169D01*
X155505805Y-103078342D01*
X155540459Y-103013508D01*
X155561799Y-102943160D01*
X155567200Y-102888326D01*
X155569005Y-102870001D01*
X155567200Y-102851675D01*
X155567200Y-102452299D01*
X155675586Y-102560685D01*
X155878156Y-102696038D01*
X156103239Y-102789270D01*
X156342186Y-102836800D01*
X156585814Y-102836800D01*
X156824761Y-102789270D01*
X157049844Y-102696038D01*
X157252414Y-102560685D01*
X157408099Y-102405000D01*
X159129563Y-102405000D01*
X159129563Y-104605000D01*
X159135297Y-104663222D01*
X159152280Y-104719207D01*
X159179859Y-104770803D01*
X159216973Y-104816027D01*
X159262197Y-104853141D01*
X159313793Y-104880720D01*
X159369778Y-104897703D01*
X159428000Y-104903437D01*
X161628000Y-104903437D01*
X161686222Y-104897703D01*
X161742207Y-104880720D01*
X161793803Y-104853141D01*
X161839027Y-104816027D01*
X161876141Y-104770803D01*
X161903720Y-104719207D01*
X161920703Y-104663222D01*
X161926437Y-104605000D01*
X161926437Y-103505000D01*
X166744241Y-103505000D01*
X166771214Y-103778860D01*
X166851096Y-104042195D01*
X166980817Y-104284887D01*
X167155392Y-104497608D01*
X167368113Y-104672183D01*
X167610805Y-104801904D01*
X167874140Y-104881786D01*
X168079375Y-104902000D01*
X168216625Y-104902000D01*
X168421860Y-104881786D01*
X168685195Y-104801904D01*
X168927887Y-104672183D01*
X169140608Y-104497608D01*
X169315183Y-104284887D01*
X169444904Y-104042195D01*
X169524786Y-103778860D01*
X169551759Y-103505000D01*
X169524786Y-103231140D01*
X169444904Y-102967805D01*
X169315183Y-102725113D01*
X169140608Y-102512392D01*
X168927887Y-102337817D01*
X168685195Y-102208096D01*
X168421860Y-102128214D01*
X168216625Y-102108000D01*
X168079375Y-102108000D01*
X167874140Y-102128214D01*
X167610805Y-102208096D01*
X167368113Y-102337817D01*
X167155392Y-102512392D01*
X166980817Y-102725113D01*
X166851096Y-102967805D01*
X166771214Y-103231140D01*
X166744241Y-103505000D01*
X161926437Y-103505000D01*
X161926437Y-102405000D01*
X161920703Y-102346778D01*
X161903720Y-102290793D01*
X161876141Y-102239197D01*
X161839027Y-102193973D01*
X161793803Y-102156859D01*
X161742207Y-102129280D01*
X161686222Y-102112297D01*
X161628000Y-102106563D01*
X159428000Y-102106563D01*
X159369778Y-102112297D01*
X159313793Y-102129280D01*
X159262197Y-102156859D01*
X159216973Y-102193973D01*
X159179859Y-102239197D01*
X159152280Y-102290793D01*
X159135297Y-102346778D01*
X159129563Y-102405000D01*
X157408099Y-102405000D01*
X157424685Y-102388414D01*
X157560038Y-102185844D01*
X157648118Y-101973200D01*
X160187775Y-101973200D01*
X160206100Y-101975005D01*
X160224425Y-101973200D01*
X160224426Y-101973200D01*
X160279260Y-101967799D01*
X160349608Y-101946459D01*
X160414442Y-101911805D01*
X160471269Y-101865169D01*
X160482961Y-101850922D01*
X163654883Y-98679000D01*
X166645693Y-98679000D01*
X166666874Y-98894049D01*
X166729601Y-99100835D01*
X166831465Y-99291409D01*
X166968551Y-99458449D01*
X167135591Y-99595535D01*
X167326165Y-99697399D01*
X167532951Y-99760126D01*
X167694118Y-99776000D01*
X168601882Y-99776000D01*
X168763049Y-99760126D01*
X168969835Y-99697399D01*
X169160409Y-99595535D01*
X169327449Y-99458449D01*
X169464535Y-99291409D01*
X169566399Y-99100835D01*
X169629126Y-98894049D01*
X169650307Y-98679000D01*
X169629126Y-98463951D01*
X169566399Y-98257165D01*
X169464535Y-98066591D01*
X169327449Y-97899551D01*
X169160409Y-97762465D01*
X168969835Y-97660601D01*
X168763049Y-97597874D01*
X168601882Y-97582000D01*
X167694118Y-97582000D01*
X167532951Y-97597874D01*
X167326165Y-97660601D01*
X167135591Y-97762465D01*
X166968551Y-97899551D01*
X166831465Y-98066591D01*
X166729601Y-98257165D01*
X166666874Y-98463951D01*
X166645693Y-98679000D01*
X163654883Y-98679000D01*
X166942090Y-95391794D01*
X166831465Y-95526591D01*
X166729601Y-95717165D01*
X166666874Y-95923951D01*
X166645693Y-96139000D01*
X166666874Y-96354049D01*
X166729601Y-96560835D01*
X166831465Y-96751409D01*
X166968551Y-96918449D01*
X167135591Y-97055535D01*
X167326165Y-97157399D01*
X167532951Y-97220126D01*
X167694118Y-97236000D01*
X168601882Y-97236000D01*
X168763049Y-97220126D01*
X168969835Y-97157399D01*
X169160409Y-97055535D01*
X169327449Y-96918449D01*
X169464535Y-96751409D01*
X169566399Y-96560835D01*
X169629126Y-96354049D01*
X169650307Y-96139000D01*
X169629126Y-95923951D01*
X169566399Y-95717165D01*
X169464535Y-95526591D01*
X169327449Y-95359551D01*
X169160409Y-95222465D01*
X169035264Y-95155573D01*
X169053669Y-95140469D01*
X169065361Y-95126222D01*
X169827827Y-94363757D01*
X169842069Y-94352069D01*
X169888705Y-94295242D01*
X169915470Y-94245168D01*
X169923359Y-94230409D01*
X169944699Y-94160060D01*
X169951905Y-94086900D01*
X169950100Y-94068575D01*
X169950100Y-91077326D01*
X169951905Y-91059000D01*
X169944699Y-90985840D01*
X169923359Y-90915492D01*
X169888705Y-90850658D01*
X169842069Y-90793831D01*
X169785242Y-90747195D01*
X169720408Y-90712541D01*
X169650060Y-90691201D01*
X169595226Y-90685800D01*
X169595225Y-90685800D01*
X169580719Y-90684371D01*
X169566399Y-90637165D01*
X169464535Y-90446591D01*
X169327449Y-90279551D01*
X169160409Y-90142465D01*
X168969835Y-90040601D01*
X168763049Y-89977874D01*
X168601882Y-89962000D01*
X167694118Y-89962000D01*
X167532951Y-89977874D01*
X167326165Y-90040601D01*
X167135591Y-90142465D01*
X166968551Y-90279551D01*
X166831465Y-90446591D01*
X166729601Y-90637165D01*
X166666874Y-90843951D01*
X166645693Y-91059000D01*
X166666874Y-91274049D01*
X166729601Y-91480835D01*
X166831465Y-91671409D01*
X166968551Y-91838449D01*
X167135591Y-91975535D01*
X167326165Y-92077399D01*
X167532951Y-92140126D01*
X167694118Y-92156000D01*
X168601882Y-92156000D01*
X168763049Y-92140126D01*
X168969835Y-92077399D01*
X169160409Y-91975535D01*
X169203700Y-91940007D01*
X169203701Y-92717993D01*
X169160409Y-92682465D01*
X168969835Y-92580601D01*
X168763049Y-92517874D01*
X168601882Y-92502000D01*
X167694118Y-92502000D01*
X167532951Y-92517874D01*
X167326165Y-92580601D01*
X167135591Y-92682465D01*
X166968551Y-92819551D01*
X166831465Y-92986591D01*
X166729601Y-93177165D01*
X166666874Y-93383951D01*
X166645693Y-93599000D01*
X166666874Y-93814049D01*
X166729601Y-94020835D01*
X166831465Y-94211409D01*
X166968551Y-94378449D01*
X167119220Y-94502100D01*
X166949125Y-94502100D01*
X166930800Y-94500295D01*
X166912474Y-94502100D01*
X166857640Y-94507501D01*
X166787292Y-94528841D01*
X166722458Y-94563495D01*
X166665631Y-94610131D01*
X166653943Y-94624373D01*
X162295215Y-98983101D01*
X162197915Y-98806000D01*
X160655000Y-98806000D01*
X160655000Y-100114000D01*
X161055000Y-100114000D01*
X161189733Y-100088584D01*
X160051517Y-101226800D01*
X157648118Y-101226800D01*
X157560038Y-101014156D01*
X157424685Y-100811586D01*
X157252414Y-100639315D01*
X157141727Y-100565356D01*
X158268333Y-99438752D01*
X158282569Y-99427069D01*
X158329205Y-99370242D01*
X158363859Y-99305408D01*
X158385199Y-99235060D01*
X158390600Y-99180226D01*
X158392405Y-99161901D01*
X158390600Y-99143575D01*
X158390600Y-99028039D01*
X158736096Y-99028039D01*
X158753633Y-99110818D01*
X158864285Y-99370646D01*
X159023500Y-99603895D01*
X159225161Y-99801601D01*
X159461517Y-99956166D01*
X159723486Y-100061650D01*
X160001000Y-100114000D01*
X160401000Y-100114000D01*
X160401000Y-98806000D01*
X158858085Y-98806000D01*
X158736096Y-99028039D01*
X158390600Y-99028039D01*
X158390600Y-98329961D01*
X158736096Y-98329961D01*
X158858085Y-98552000D01*
X160401000Y-98552000D01*
X160401000Y-98532000D01*
X160655000Y-98532000D01*
X160655000Y-98552000D01*
X162197915Y-98552000D01*
X162319904Y-98329961D01*
X162302367Y-98247182D01*
X162191715Y-97987354D01*
X162032500Y-97754105D01*
X161830839Y-97556399D01*
X161594483Y-97401834D01*
X161332514Y-97296350D01*
X161055000Y-97244000D01*
X160001000Y-97244000D01*
X159723486Y-97296350D01*
X159461517Y-97401834D01*
X159225161Y-97556399D01*
X159023500Y-97754105D01*
X158864285Y-97987354D01*
X158753633Y-98247182D01*
X158736096Y-98329961D01*
X158390600Y-98329961D01*
X158390600Y-96946683D01*
X159041168Y-96296115D01*
X159046874Y-96354049D01*
X159109601Y-96560835D01*
X159211465Y-96751409D01*
X159348551Y-96918449D01*
X159515591Y-97055535D01*
X159706165Y-97157399D01*
X159912951Y-97220126D01*
X160074118Y-97236000D01*
X160981882Y-97236000D01*
X161143049Y-97220126D01*
X161349835Y-97157399D01*
X161540409Y-97055535D01*
X161707449Y-96918449D01*
X161844535Y-96751409D01*
X161946399Y-96560835D01*
X162009126Y-96354049D01*
X162030307Y-96139000D01*
X162009126Y-95923951D01*
X161946399Y-95717165D01*
X161844535Y-95526591D01*
X161707449Y-95359551D01*
X161540409Y-95222465D01*
X161388148Y-95141080D01*
X161396569Y-95134169D01*
X161408261Y-95119922D01*
X166970027Y-89558157D01*
X166984269Y-89546469D01*
X167030905Y-89489642D01*
X167065559Y-89424808D01*
X167076913Y-89387379D01*
X167135591Y-89435535D01*
X167326165Y-89537399D01*
X167532951Y-89600126D01*
X167694118Y-89616000D01*
X168601882Y-89616000D01*
X168763049Y-89600126D01*
X168969835Y-89537399D01*
X169160409Y-89435535D01*
X169327449Y-89298449D01*
X169464535Y-89131409D01*
X169566399Y-88940835D01*
X169580719Y-88893629D01*
X169595225Y-88892200D01*
X169595226Y-88892200D01*
X169650060Y-88886799D01*
X169720408Y-88865459D01*
X169785242Y-88830805D01*
X169842069Y-88784169D01*
X169888705Y-88727342D01*
X169923359Y-88662508D01*
X169944699Y-88592160D01*
X169951905Y-88519000D01*
X169950100Y-88500674D01*
X169950100Y-82992025D01*
X169951905Y-82973699D01*
X169944699Y-82900540D01*
X169923359Y-82830192D01*
X169888705Y-82765358D01*
X169842069Y-82708531D01*
X169827833Y-82696848D01*
X168452261Y-81321278D01*
X168440569Y-81307031D01*
X168383742Y-81260395D01*
X168318908Y-81225741D01*
X168248560Y-81204401D01*
X168193726Y-81199000D01*
X168193725Y-81199000D01*
X168175400Y-81197195D01*
X168157075Y-81199000D01*
X134970784Y-81199000D01*
X133486192Y-79714408D01*
X133546843Y-79567983D01*
X133589000Y-79356045D01*
X133589000Y-79139955D01*
X133546843Y-78928017D01*
X133464149Y-78728376D01*
X133344096Y-78548703D01*
X133243393Y-78448000D01*
X151682563Y-78448000D01*
X151682563Y-80048000D01*
X151688297Y-80106222D01*
X151705280Y-80162207D01*
X151732859Y-80213803D01*
X151769973Y-80259027D01*
X151815197Y-80296141D01*
X151866793Y-80323720D01*
X151922778Y-80340703D01*
X151981000Y-80346437D01*
X153581000Y-80346437D01*
X153639222Y-80340703D01*
X153695207Y-80323720D01*
X153746803Y-80296141D01*
X153792027Y-80259027D01*
X153829141Y-80213803D01*
X153856720Y-80162207D01*
X153873703Y-80106222D01*
X153879437Y-80048000D01*
X153879437Y-79139955D01*
X154454000Y-79139955D01*
X154454000Y-79356045D01*
X154496157Y-79567983D01*
X154578851Y-79767624D01*
X154698904Y-79947297D01*
X154851703Y-80100096D01*
X155031376Y-80220149D01*
X155231017Y-80302843D01*
X155442955Y-80345000D01*
X155659045Y-80345000D01*
X155870983Y-80302843D01*
X156070624Y-80220149D01*
X156250297Y-80100096D01*
X156403096Y-79947297D01*
X156523149Y-79767624D01*
X156605843Y-79567983D01*
X156648000Y-79356045D01*
X156648000Y-79139955D01*
X157224000Y-79139955D01*
X157224000Y-79356045D01*
X157266157Y-79567983D01*
X157348851Y-79767624D01*
X157468904Y-79947297D01*
X157621703Y-80100096D01*
X157801376Y-80220149D01*
X158001017Y-80302843D01*
X158212955Y-80345000D01*
X158429045Y-80345000D01*
X158640983Y-80302843D01*
X158840624Y-80220149D01*
X159020297Y-80100096D01*
X159173096Y-79947297D01*
X159293149Y-79767624D01*
X159375843Y-79567983D01*
X159418000Y-79356045D01*
X159418000Y-79139955D01*
X159994000Y-79139955D01*
X159994000Y-79356045D01*
X160036157Y-79567983D01*
X160118851Y-79767624D01*
X160238904Y-79947297D01*
X160391703Y-80100096D01*
X160571376Y-80220149D01*
X160771017Y-80302843D01*
X160982955Y-80345000D01*
X161199045Y-80345000D01*
X161410983Y-80302843D01*
X161610624Y-80220149D01*
X161790297Y-80100096D01*
X161943096Y-79947297D01*
X162063149Y-79767624D01*
X162145843Y-79567983D01*
X162188000Y-79356045D01*
X162188000Y-79139955D01*
X162764000Y-79139955D01*
X162764000Y-79356045D01*
X162806157Y-79567983D01*
X162888851Y-79767624D01*
X163008904Y-79947297D01*
X163161703Y-80100096D01*
X163341376Y-80220149D01*
X163541017Y-80302843D01*
X163752955Y-80345000D01*
X163969045Y-80345000D01*
X164180983Y-80302843D01*
X164380624Y-80220149D01*
X164560297Y-80100096D01*
X164713096Y-79947297D01*
X164833149Y-79767624D01*
X164915843Y-79567983D01*
X164958000Y-79356045D01*
X164958000Y-79139955D01*
X164915843Y-78928017D01*
X164833149Y-78728376D01*
X164713096Y-78548703D01*
X164560297Y-78395904D01*
X164380624Y-78275851D01*
X164180983Y-78193157D01*
X163969045Y-78151000D01*
X163752955Y-78151000D01*
X163541017Y-78193157D01*
X163341376Y-78275851D01*
X163161703Y-78395904D01*
X163008904Y-78548703D01*
X162888851Y-78728376D01*
X162806157Y-78928017D01*
X162764000Y-79139955D01*
X162188000Y-79139955D01*
X162145843Y-78928017D01*
X162063149Y-78728376D01*
X161943096Y-78548703D01*
X161790297Y-78395904D01*
X161610624Y-78275851D01*
X161410983Y-78193157D01*
X161199045Y-78151000D01*
X160982955Y-78151000D01*
X160771017Y-78193157D01*
X160571376Y-78275851D01*
X160391703Y-78395904D01*
X160238904Y-78548703D01*
X160118851Y-78728376D01*
X160036157Y-78928017D01*
X159994000Y-79139955D01*
X159418000Y-79139955D01*
X159375843Y-78928017D01*
X159293149Y-78728376D01*
X159173096Y-78548703D01*
X159020297Y-78395904D01*
X158840624Y-78275851D01*
X158640983Y-78193157D01*
X158429045Y-78151000D01*
X158212955Y-78151000D01*
X158001017Y-78193157D01*
X157801376Y-78275851D01*
X157621703Y-78395904D01*
X157468904Y-78548703D01*
X157348851Y-78728376D01*
X157266157Y-78928017D01*
X157224000Y-79139955D01*
X156648000Y-79139955D01*
X156605843Y-78928017D01*
X156523149Y-78728376D01*
X156403096Y-78548703D01*
X156250297Y-78395904D01*
X156070624Y-78275851D01*
X155870983Y-78193157D01*
X155659045Y-78151000D01*
X155442955Y-78151000D01*
X155231017Y-78193157D01*
X155031376Y-78275851D01*
X154851703Y-78395904D01*
X154698904Y-78548703D01*
X154578851Y-78728376D01*
X154496157Y-78928017D01*
X154454000Y-79139955D01*
X153879437Y-79139955D01*
X153879437Y-78448000D01*
X153873703Y-78389778D01*
X153856720Y-78333793D01*
X153829141Y-78282197D01*
X153792027Y-78236973D01*
X153746803Y-78199859D01*
X153695207Y-78172280D01*
X153639222Y-78155297D01*
X153581000Y-78149563D01*
X151981000Y-78149563D01*
X151922778Y-78155297D01*
X151866793Y-78172280D01*
X151815197Y-78199859D01*
X151769973Y-78236973D01*
X151732859Y-78282197D01*
X151705280Y-78333793D01*
X151688297Y-78389778D01*
X151682563Y-78448000D01*
X133243393Y-78448000D01*
X133191297Y-78395904D01*
X133011624Y-78275851D01*
X132811983Y-78193157D01*
X132600045Y-78151000D01*
X132383955Y-78151000D01*
X132172017Y-78193157D01*
X131972376Y-78275851D01*
X131792703Y-78395904D01*
X131639904Y-78548703D01*
X131519851Y-78728376D01*
X131437157Y-78928017D01*
X131395000Y-79139955D01*
X130819000Y-79139955D01*
X130776843Y-78928017D01*
X130694149Y-78728376D01*
X130574096Y-78548703D01*
X130421297Y-78395904D01*
X130241624Y-78275851D01*
X130041983Y-78193157D01*
X129830045Y-78151000D01*
X129613955Y-78151000D01*
X129402017Y-78193157D01*
X129202376Y-78275851D01*
X129022703Y-78395904D01*
X128869904Y-78548703D01*
X128749851Y-78728376D01*
X128667157Y-78928017D01*
X128625000Y-79139955D01*
X128049000Y-79139955D01*
X128006843Y-78928017D01*
X127924149Y-78728376D01*
X127804096Y-78548703D01*
X127651297Y-78395904D01*
X127471624Y-78275851D01*
X127271983Y-78193157D01*
X127060045Y-78151000D01*
X126843955Y-78151000D01*
X126632017Y-78193157D01*
X126432376Y-78275851D01*
X126252703Y-78395904D01*
X126099904Y-78548703D01*
X125979851Y-78728376D01*
X125897157Y-78928017D01*
X125855000Y-79139955D01*
X125279000Y-79139955D01*
X125236843Y-78928017D01*
X125154149Y-78728376D01*
X125034096Y-78548703D01*
X124881297Y-78395904D01*
X124701624Y-78275851D01*
X124501983Y-78193157D01*
X124290045Y-78151000D01*
X124073955Y-78151000D01*
X123862017Y-78193157D01*
X123662376Y-78275851D01*
X123482703Y-78395904D01*
X123329904Y-78548703D01*
X123209851Y-78728376D01*
X123127157Y-78928017D01*
X123085000Y-79139955D01*
X122510437Y-79139955D01*
X122510437Y-78448000D01*
X122504703Y-78389778D01*
X122487720Y-78333793D01*
X122460141Y-78282197D01*
X122423027Y-78236973D01*
X122377803Y-78199859D01*
X122326207Y-78172280D01*
X122270222Y-78155297D01*
X122212000Y-78149563D01*
X120612000Y-78149563D01*
X120553778Y-78155297D01*
X120497793Y-78172280D01*
X120446197Y-78199859D01*
X120430180Y-78213003D01*
X121792840Y-76850344D01*
X121824851Y-76927624D01*
X121944904Y-77107297D01*
X122097703Y-77260096D01*
X122277376Y-77380149D01*
X122477017Y-77462843D01*
X122688955Y-77505000D01*
X122905045Y-77505000D01*
X123116983Y-77462843D01*
X123316624Y-77380149D01*
X123496297Y-77260096D01*
X123649096Y-77107297D01*
X123769149Y-76927624D01*
X123851843Y-76727983D01*
X123894000Y-76516045D01*
X123894000Y-76299955D01*
X124470000Y-76299955D01*
X124470000Y-76516045D01*
X124512157Y-76727983D01*
X124594851Y-76927624D01*
X124714904Y-77107297D01*
X124867703Y-77260096D01*
X125047376Y-77380149D01*
X125247017Y-77462843D01*
X125458955Y-77505000D01*
X125675045Y-77505000D01*
X125886983Y-77462843D01*
X126037004Y-77400702D01*
X127523903Y-77400702D01*
X127595486Y-77644671D01*
X127850996Y-77765571D01*
X128125184Y-77834300D01*
X128407512Y-77848217D01*
X128687130Y-77806787D01*
X128953292Y-77711603D01*
X129078514Y-77644671D01*
X129150097Y-77400702D01*
X128337000Y-76587605D01*
X127523903Y-77400702D01*
X126037004Y-77400702D01*
X126086624Y-77380149D01*
X126266297Y-77260096D01*
X126419096Y-77107297D01*
X126539149Y-76927624D01*
X126621843Y-76727983D01*
X126664000Y-76516045D01*
X126664000Y-76478512D01*
X126896783Y-76478512D01*
X126938213Y-76758130D01*
X127033397Y-77024292D01*
X127100329Y-77149514D01*
X127344298Y-77221097D01*
X128157395Y-76408000D01*
X128516605Y-76408000D01*
X129329702Y-77221097D01*
X129573671Y-77149514D01*
X129694571Y-76894004D01*
X129763300Y-76619816D01*
X129777217Y-76337488D01*
X129771656Y-76299955D01*
X130010000Y-76299955D01*
X130010000Y-76516045D01*
X130052157Y-76727983D01*
X130134851Y-76927624D01*
X130254904Y-77107297D01*
X130407703Y-77260096D01*
X130587376Y-77380149D01*
X130787017Y-77462843D01*
X130998955Y-77505000D01*
X131215045Y-77505000D01*
X131426983Y-77462843D01*
X131626624Y-77380149D01*
X131806297Y-77260096D01*
X131959096Y-77107297D01*
X132079149Y-76927624D01*
X132161843Y-76727983D01*
X132204000Y-76516045D01*
X132204000Y-76299955D01*
X153069000Y-76299955D01*
X153069000Y-76516045D01*
X153111157Y-76727983D01*
X153193851Y-76927624D01*
X153313904Y-77107297D01*
X153466703Y-77260096D01*
X153646376Y-77380149D01*
X153846017Y-77462843D01*
X154057955Y-77505000D01*
X154274045Y-77505000D01*
X154485983Y-77462843D01*
X154685624Y-77380149D01*
X154865297Y-77260096D01*
X155018096Y-77107297D01*
X155138149Y-76927624D01*
X155220843Y-76727983D01*
X155263000Y-76516045D01*
X155263000Y-76299955D01*
X155839000Y-76299955D01*
X155839000Y-76516045D01*
X155881157Y-76727983D01*
X155963851Y-76927624D01*
X156083904Y-77107297D01*
X156236703Y-77260096D01*
X156416376Y-77380149D01*
X156616017Y-77462843D01*
X156827955Y-77505000D01*
X157044045Y-77505000D01*
X157255983Y-77462843D01*
X157406004Y-77400702D01*
X158892903Y-77400702D01*
X158964486Y-77644671D01*
X159219996Y-77765571D01*
X159494184Y-77834300D01*
X159776512Y-77848217D01*
X160056130Y-77806787D01*
X160322292Y-77711603D01*
X160447514Y-77644671D01*
X160519097Y-77400702D01*
X159706000Y-76587605D01*
X158892903Y-77400702D01*
X157406004Y-77400702D01*
X157455624Y-77380149D01*
X157635297Y-77260096D01*
X157788096Y-77107297D01*
X157908149Y-76927624D01*
X157990843Y-76727983D01*
X158033000Y-76516045D01*
X158033000Y-76478512D01*
X158265783Y-76478512D01*
X158307213Y-76758130D01*
X158402397Y-77024292D01*
X158469329Y-77149514D01*
X158713298Y-77221097D01*
X159526395Y-76408000D01*
X159885605Y-76408000D01*
X160698702Y-77221097D01*
X160942671Y-77149514D01*
X161063571Y-76894004D01*
X161132300Y-76619816D01*
X161146217Y-76337488D01*
X161140656Y-76299955D01*
X161379000Y-76299955D01*
X161379000Y-76516045D01*
X161421157Y-76727983D01*
X161503851Y-76927624D01*
X161623904Y-77107297D01*
X161776703Y-77260096D01*
X161956376Y-77380149D01*
X162156017Y-77462843D01*
X162367955Y-77505000D01*
X162584045Y-77505000D01*
X162795983Y-77462843D01*
X162995624Y-77380149D01*
X163175297Y-77260096D01*
X163328096Y-77107297D01*
X163448149Y-76927624D01*
X163530843Y-76727983D01*
X163573000Y-76516045D01*
X163573000Y-76299955D01*
X163530843Y-76088017D01*
X163448149Y-75888376D01*
X163328096Y-75708703D01*
X163175297Y-75555904D01*
X162995624Y-75435851D01*
X162795983Y-75353157D01*
X162584045Y-75311000D01*
X162367955Y-75311000D01*
X162156017Y-75353157D01*
X161956376Y-75435851D01*
X161776703Y-75555904D01*
X161623904Y-75708703D01*
X161503851Y-75888376D01*
X161421157Y-76088017D01*
X161379000Y-76299955D01*
X161140656Y-76299955D01*
X161104787Y-76057870D01*
X161009603Y-75791708D01*
X160942671Y-75666486D01*
X160698702Y-75594903D01*
X159885605Y-76408000D01*
X159526395Y-76408000D01*
X158713298Y-75594903D01*
X158469329Y-75666486D01*
X158348429Y-75921996D01*
X158279700Y-76196184D01*
X158265783Y-76478512D01*
X158033000Y-76478512D01*
X158033000Y-76299955D01*
X157990843Y-76088017D01*
X157908149Y-75888376D01*
X157788096Y-75708703D01*
X157635297Y-75555904D01*
X157455624Y-75435851D01*
X157255983Y-75353157D01*
X157044045Y-75311000D01*
X156827955Y-75311000D01*
X156616017Y-75353157D01*
X156416376Y-75435851D01*
X156236703Y-75555904D01*
X156083904Y-75708703D01*
X155963851Y-75888376D01*
X155881157Y-76088017D01*
X155839000Y-76299955D01*
X155263000Y-76299955D01*
X155220843Y-76088017D01*
X155138149Y-75888376D01*
X155018096Y-75708703D01*
X154865297Y-75555904D01*
X154685624Y-75435851D01*
X154485983Y-75353157D01*
X154274045Y-75311000D01*
X154057955Y-75311000D01*
X153846017Y-75353157D01*
X153646376Y-75435851D01*
X153466703Y-75555904D01*
X153313904Y-75708703D01*
X153193851Y-75888376D01*
X153111157Y-76088017D01*
X153069000Y-76299955D01*
X132204000Y-76299955D01*
X132161843Y-76088017D01*
X132079149Y-75888376D01*
X131959096Y-75708703D01*
X131806297Y-75555904D01*
X131626624Y-75435851D01*
X131426983Y-75353157D01*
X131215045Y-75311000D01*
X130998955Y-75311000D01*
X130787017Y-75353157D01*
X130587376Y-75435851D01*
X130407703Y-75555904D01*
X130254904Y-75708703D01*
X130134851Y-75888376D01*
X130052157Y-76088017D01*
X130010000Y-76299955D01*
X129771656Y-76299955D01*
X129735787Y-76057870D01*
X129640603Y-75791708D01*
X129573671Y-75666486D01*
X129329702Y-75594903D01*
X128516605Y-76408000D01*
X128157395Y-76408000D01*
X127344298Y-75594903D01*
X127100329Y-75666486D01*
X126979429Y-75921996D01*
X126910700Y-76196184D01*
X126896783Y-76478512D01*
X126664000Y-76478512D01*
X126664000Y-76299955D01*
X126621843Y-76088017D01*
X126539149Y-75888376D01*
X126419096Y-75708703D01*
X126266297Y-75555904D01*
X126086624Y-75435851D01*
X125886983Y-75353157D01*
X125675045Y-75311000D01*
X125458955Y-75311000D01*
X125247017Y-75353157D01*
X125047376Y-75435851D01*
X124867703Y-75555904D01*
X124714904Y-75708703D01*
X124594851Y-75888376D01*
X124512157Y-76088017D01*
X124470000Y-76299955D01*
X123894000Y-76299955D01*
X123851843Y-76088017D01*
X123769149Y-75888376D01*
X123649096Y-75708703D01*
X123496297Y-75555904D01*
X123316624Y-75435851D01*
X123116983Y-75353157D01*
X122905045Y-75311000D01*
X122688955Y-75311000D01*
X122477017Y-75353157D01*
X122277376Y-75435851D01*
X122097703Y-75555904D01*
X121944904Y-75708703D01*
X121824851Y-75888376D01*
X121764200Y-76034800D01*
X121725725Y-76034800D01*
X121707399Y-76032995D01*
X121689074Y-76034800D01*
X121634240Y-76040201D01*
X121563892Y-76061541D01*
X121499058Y-76096195D01*
X121442231Y-76142831D01*
X121430543Y-76157073D01*
X115414074Y-82173543D01*
X115399832Y-82185231D01*
X115358490Y-82235607D01*
X115353195Y-82242059D01*
X115318542Y-82306892D01*
X115297201Y-82377241D01*
X115289995Y-82450400D01*
X115155000Y-82450400D01*
X115155000Y-77105972D01*
X115191142Y-76737371D01*
X115293261Y-76399135D01*
X115459132Y-76087177D01*
X115682440Y-75813375D01*
X115954672Y-75588164D01*
X116265467Y-75420118D01*
X116602983Y-75315639D01*
X116970615Y-75277000D01*
X127564481Y-75277000D01*
X127523903Y-75415298D01*
M02*
