G04 #@! TF.GenerationSoftware,KiCad,Pcbnew,(5.1.0-0)*
G04 #@! TF.CreationDate,2019-04-01T06:31:53-07:00*
G04 #@! TF.ProjectId,unijoysticle,756e696a-6f79-4737-9469-636c652e6b69,v0.0.1*
G04 #@! TF.SameCoordinates,Original*
G04 #@! TF.FileFunction,Copper,L2,Bot*
G04 #@! TF.FilePolarity,Positive*
%FSLAX46Y46*%
G04 Gerber Fmt 4.6, Leading zero omitted, Abs format (unit mm)*
G04 Created by KiCad (PCBNEW (5.1.0-0)) date 2019-04-01 06:31:53*
%MOMM*%
%LPD*%
G04 APERTURE LIST*
%ADD10C,0.100000*%
%ADD11C,3.500000*%
%ADD12R,1.879600X1.879600*%
%ADD13C,1.879600*%
%ADD14O,2.200000X2.200000*%
%ADD15R,2.200000X2.200000*%
%ADD16O,1.400000X1.400000*%
%ADD17C,1.400000*%
%ADD18C,2.000000*%
%ADD19R,2.000000X2.000000*%
%ADD20C,2.100000*%
%ADD21C,1.750000*%
%ADD22R,1.600000X1.600000*%
%ADD23C,1.600000*%
%ADD24O,2.400000X1.600000*%
%ADD25R,2.400000X1.600000*%
%ADD26C,0.152400*%
%ADD27C,0.254000*%
G04 APERTURE END LIST*
D10*
G36*
X165123765Y-107473213D02*
G01*
X165208704Y-107485813D01*
X165291999Y-107506677D01*
X165372848Y-107535605D01*
X165450472Y-107572319D01*
X165524124Y-107616464D01*
X165593094Y-107667616D01*
X165656718Y-107725282D01*
X165714384Y-107788906D01*
X165765536Y-107857876D01*
X165809681Y-107931528D01*
X165846395Y-108009152D01*
X165875323Y-108090001D01*
X165896187Y-108173296D01*
X165908787Y-108258235D01*
X165913000Y-108344000D01*
X165913000Y-110094000D01*
X165908787Y-110179765D01*
X165896187Y-110264704D01*
X165875323Y-110347999D01*
X165846395Y-110428848D01*
X165809681Y-110506472D01*
X165765536Y-110580124D01*
X165714384Y-110649094D01*
X165656718Y-110712718D01*
X165593094Y-110770384D01*
X165524124Y-110821536D01*
X165450472Y-110865681D01*
X165372848Y-110902395D01*
X165291999Y-110931323D01*
X165208704Y-110952187D01*
X165123765Y-110964787D01*
X165038000Y-110969000D01*
X163288000Y-110969000D01*
X163202235Y-110964787D01*
X163117296Y-110952187D01*
X163034001Y-110931323D01*
X162953152Y-110902395D01*
X162875528Y-110865681D01*
X162801876Y-110821536D01*
X162732906Y-110770384D01*
X162669282Y-110712718D01*
X162611616Y-110649094D01*
X162560464Y-110580124D01*
X162516319Y-110506472D01*
X162479605Y-110428848D01*
X162450677Y-110347999D01*
X162429813Y-110264704D01*
X162417213Y-110179765D01*
X162413000Y-110094000D01*
X162413000Y-108344000D01*
X162417213Y-108258235D01*
X162429813Y-108173296D01*
X162450677Y-108090001D01*
X162479605Y-108009152D01*
X162516319Y-107931528D01*
X162560464Y-107857876D01*
X162611616Y-107788906D01*
X162669282Y-107725282D01*
X162732906Y-107667616D01*
X162801876Y-107616464D01*
X162875528Y-107572319D01*
X162953152Y-107535605D01*
X163034001Y-107506677D01*
X163117296Y-107485813D01*
X163202235Y-107473213D01*
X163288000Y-107469000D01*
X165038000Y-107469000D01*
X165123765Y-107473213D01*
X165123765Y-107473213D01*
G37*
D11*
X164163000Y-109219000D03*
D10*
G36*
X168123765Y-112173213D02*
G01*
X168208704Y-112185813D01*
X168291999Y-112206677D01*
X168372848Y-112235605D01*
X168450472Y-112272319D01*
X168524124Y-112316464D01*
X168593094Y-112367616D01*
X168656718Y-112425282D01*
X168714384Y-112488906D01*
X168765536Y-112557876D01*
X168809681Y-112631528D01*
X168846395Y-112709152D01*
X168875323Y-112790001D01*
X168896187Y-112873296D01*
X168908787Y-112958235D01*
X168913000Y-113044000D01*
X168913000Y-114794000D01*
X168908787Y-114879765D01*
X168896187Y-114964704D01*
X168875323Y-115047999D01*
X168846395Y-115128848D01*
X168809681Y-115206472D01*
X168765536Y-115280124D01*
X168714384Y-115349094D01*
X168656718Y-115412718D01*
X168593094Y-115470384D01*
X168524124Y-115521536D01*
X168450472Y-115565681D01*
X168372848Y-115602395D01*
X168291999Y-115631323D01*
X168208704Y-115652187D01*
X168123765Y-115664787D01*
X168038000Y-115669000D01*
X166288000Y-115669000D01*
X166202235Y-115664787D01*
X166117296Y-115652187D01*
X166034001Y-115631323D01*
X165953152Y-115602395D01*
X165875528Y-115565681D01*
X165801876Y-115521536D01*
X165732906Y-115470384D01*
X165669282Y-115412718D01*
X165611616Y-115349094D01*
X165560464Y-115280124D01*
X165516319Y-115206472D01*
X165479605Y-115128848D01*
X165450677Y-115047999D01*
X165429813Y-114964704D01*
X165417213Y-114879765D01*
X165413000Y-114794000D01*
X165413000Y-113044000D01*
X165417213Y-112958235D01*
X165429813Y-112873296D01*
X165450677Y-112790001D01*
X165479605Y-112709152D01*
X165516319Y-112631528D01*
X165560464Y-112557876D01*
X165611616Y-112488906D01*
X165669282Y-112425282D01*
X165732906Y-112367616D01*
X165801876Y-112316464D01*
X165875528Y-112272319D01*
X165953152Y-112235605D01*
X166034001Y-112206677D01*
X166117296Y-112185813D01*
X166202235Y-112173213D01*
X166288000Y-112169000D01*
X168038000Y-112169000D01*
X168123765Y-112173213D01*
X168123765Y-112173213D01*
G37*
D11*
X167163000Y-113919000D03*
D10*
G36*
X162123765Y-112173213D02*
G01*
X162208704Y-112185813D01*
X162291999Y-112206677D01*
X162372848Y-112235605D01*
X162450472Y-112272319D01*
X162524124Y-112316464D01*
X162593094Y-112367616D01*
X162656718Y-112425282D01*
X162714384Y-112488906D01*
X162765536Y-112557876D01*
X162809681Y-112631528D01*
X162846395Y-112709152D01*
X162875323Y-112790001D01*
X162896187Y-112873296D01*
X162908787Y-112958235D01*
X162913000Y-113044000D01*
X162913000Y-114794000D01*
X162908787Y-114879765D01*
X162896187Y-114964704D01*
X162875323Y-115047999D01*
X162846395Y-115128848D01*
X162809681Y-115206472D01*
X162765536Y-115280124D01*
X162714384Y-115349094D01*
X162656718Y-115412718D01*
X162593094Y-115470384D01*
X162524124Y-115521536D01*
X162450472Y-115565681D01*
X162372848Y-115602395D01*
X162291999Y-115631323D01*
X162208704Y-115652187D01*
X162123765Y-115664787D01*
X162038000Y-115669000D01*
X160288000Y-115669000D01*
X160202235Y-115664787D01*
X160117296Y-115652187D01*
X160034001Y-115631323D01*
X159953152Y-115602395D01*
X159875528Y-115565681D01*
X159801876Y-115521536D01*
X159732906Y-115470384D01*
X159669282Y-115412718D01*
X159611616Y-115349094D01*
X159560464Y-115280124D01*
X159516319Y-115206472D01*
X159479605Y-115128848D01*
X159450677Y-115047999D01*
X159429813Y-114964704D01*
X159417213Y-114879765D01*
X159413000Y-114794000D01*
X159413000Y-113044000D01*
X159417213Y-112958235D01*
X159429813Y-112873296D01*
X159450677Y-112790001D01*
X159479605Y-112709152D01*
X159516319Y-112631528D01*
X159560464Y-112557876D01*
X159611616Y-112488906D01*
X159669282Y-112425282D01*
X159732906Y-112367616D01*
X159801876Y-112316464D01*
X159875528Y-112272319D01*
X159953152Y-112235605D01*
X160034001Y-112206677D01*
X160117296Y-112185813D01*
X160202235Y-112173213D01*
X160288000Y-112169000D01*
X162038000Y-112169000D01*
X162123765Y-112173213D01*
X162123765Y-112173213D01*
G37*
D11*
X161163000Y-113919000D03*
D12*
X156464000Y-114300000D03*
D13*
X156464000Y-111760000D03*
X156464000Y-109220000D03*
X156464000Y-106680000D03*
X156464000Y-104140000D03*
X156464000Y-101600000D03*
X156464000Y-99060000D03*
X156464000Y-96520000D03*
X156464000Y-93980000D03*
X156464000Y-91440000D03*
X153924000Y-114300000D03*
X153924000Y-111760000D03*
X153924000Y-109220000D03*
X153924000Y-106680000D03*
X153924000Y-104140000D03*
X153924000Y-101600000D03*
X153924000Y-99060000D03*
X153924000Y-96520000D03*
X153924000Y-93980000D03*
X153924000Y-91440000D03*
X131064000Y-91440000D03*
X131064000Y-93980000D03*
X131064000Y-96520000D03*
X131064000Y-99060000D03*
X131064000Y-101600000D03*
X131064000Y-104140000D03*
X131064000Y-106680000D03*
X131064000Y-109220000D03*
X131064000Y-111760000D03*
D12*
X131064000Y-114300000D03*
D13*
X128524000Y-91440000D03*
X128524000Y-93980000D03*
X128524000Y-96520000D03*
X128524000Y-99060000D03*
X128524000Y-101600000D03*
X128524000Y-104140000D03*
X128524000Y-106680000D03*
X128524000Y-109220000D03*
X128524000Y-111760000D03*
X128524000Y-114300000D03*
D14*
X168148000Y-103886000D03*
D15*
X160528000Y-103886000D03*
D16*
X125349000Y-107569000D03*
D17*
X125349000Y-115189000D03*
D16*
X122555000Y-107569000D03*
D17*
X122555000Y-115189000D03*
D18*
X117983000Y-104521000D03*
D19*
X117983000Y-101981000D03*
D20*
X118822000Y-107905000D03*
D21*
X116332000Y-109165000D03*
X116332000Y-113665000D03*
D20*
X118822000Y-114915000D03*
D22*
X121412000Y-79248000D03*
D23*
X124182000Y-79248000D03*
X126952000Y-79248000D03*
X129722000Y-79248000D03*
X132492000Y-79248000D03*
X122797000Y-76408000D03*
X125567000Y-76408000D03*
X128337000Y-76408000D03*
X131107000Y-76408000D03*
D24*
X168148000Y-83439000D03*
X160528000Y-98679000D03*
X168148000Y-85979000D03*
X160528000Y-96139000D03*
X168148000Y-88519000D03*
X160528000Y-93599000D03*
X168148000Y-91059000D03*
X160528000Y-91059000D03*
X168148000Y-93599000D03*
X160528000Y-88519000D03*
X168148000Y-96139000D03*
X160528000Y-85979000D03*
X168148000Y-98679000D03*
D25*
X160528000Y-83439000D03*
X117094000Y-83439000D03*
D24*
X124714000Y-98679000D03*
X117094000Y-85979000D03*
X124714000Y-96139000D03*
X117094000Y-88519000D03*
X124714000Y-93599000D03*
X117094000Y-91059000D03*
X124714000Y-91059000D03*
X117094000Y-93599000D03*
X124714000Y-88519000D03*
X117094000Y-96139000D03*
X124714000Y-85979000D03*
X117094000Y-98679000D03*
X124714000Y-83439000D03*
D18*
X124079000Y-104521000D03*
D19*
X124079000Y-101981000D03*
D22*
X152781000Y-79248000D03*
D23*
X155551000Y-79248000D03*
X158321000Y-79248000D03*
X161091000Y-79248000D03*
X163861000Y-79248000D03*
X154166000Y-76408000D03*
X156936000Y-76408000D03*
X159706000Y-76408000D03*
X162476000Y-76408000D03*
D26*
X160528000Y-93599000D02*
X159099100Y-93599000D01*
X159099100Y-93599000D02*
X159099100Y-96424900D01*
X159099100Y-96424900D02*
X156464000Y-99060000D01*
X124714000Y-91059000D02*
X123285100Y-91059000D01*
X123285100Y-91059000D02*
X122968000Y-91376100D01*
X122968000Y-91376100D02*
X122968000Y-98835200D01*
X122968000Y-98835200D02*
X124884900Y-100752100D01*
X124884900Y-100752100D02*
X125173800Y-100752100D01*
X125173800Y-100752100D02*
X127152800Y-102731100D01*
X127152800Y-102731100D02*
X127152800Y-105308800D01*
X127152800Y-105308800D02*
X128524000Y-106680000D01*
X124714000Y-96139000D02*
X126142900Y-96139000D01*
X126142900Y-96139000D02*
X126142900Y-98335900D01*
X126142900Y-98335900D02*
X128238200Y-100431200D01*
X128238200Y-100431200D02*
X129031000Y-100431200D01*
X129031000Y-100431200D02*
X129794000Y-101194200D01*
X129794000Y-101194200D02*
X129794000Y-102870000D01*
X129794000Y-102870000D02*
X131064000Y-104140000D01*
X121412000Y-79248000D02*
X121412000Y-80276900D01*
X117094000Y-85979000D02*
X118522900Y-85979000D01*
X118522900Y-85979000D02*
X118522900Y-83166000D01*
X118522900Y-83166000D02*
X121412000Y-80276900D01*
X117094000Y-96139000D02*
X118522900Y-96139000D01*
X118522900Y-96139000D02*
X118522900Y-87677100D01*
X118522900Y-87677100D02*
X126952000Y-79248000D01*
X117094000Y-91059000D02*
X115665100Y-91059000D01*
X115665100Y-91059000D02*
X115665100Y-88060000D01*
X115665100Y-88060000D02*
X116473400Y-87251700D01*
X116473400Y-87251700D02*
X117708700Y-87251700D01*
X117708700Y-87251700D02*
X124182000Y-80778400D01*
X124182000Y-80778400D02*
X124182000Y-79248000D01*
X124714000Y-98679000D02*
X123285100Y-98679000D01*
X123285100Y-98679000D02*
X123285100Y-93115900D01*
X123285100Y-93115900D02*
X124232900Y-92168100D01*
X124232900Y-92168100D02*
X125464000Y-92168100D01*
X125464000Y-92168100D02*
X129722000Y-87910100D01*
X129722000Y-87910100D02*
X129722000Y-79248000D01*
X124714000Y-88519000D02*
X126142900Y-88519000D01*
X126142900Y-88519000D02*
X128229000Y-86432900D01*
X128229000Y-86432900D02*
X128229000Y-79286000D01*
X128229000Y-79286000D02*
X131107000Y-76408000D01*
X160528000Y-96139000D02*
X161956900Y-96139000D01*
X161956900Y-96139000D02*
X161956900Y-82544200D01*
X161956900Y-82544200D02*
X158660700Y-79248000D01*
X158660700Y-79248000D02*
X158321000Y-79248000D01*
X160528000Y-91059000D02*
X159099100Y-91059000D01*
X159099100Y-91059000D02*
X159099100Y-82796100D01*
X159099100Y-82796100D02*
X155551000Y-79248000D01*
X168148000Y-98679000D02*
X169576900Y-98679000D01*
X169576900Y-98679000D02*
X169576900Y-85484600D01*
X169576900Y-85484600D02*
X168801300Y-84709000D01*
X168801300Y-84709000D02*
X166552000Y-84709000D01*
X166552000Y-84709000D02*
X161091000Y-79248000D01*
X168148000Y-93599000D02*
X166719100Y-93599000D01*
X166719100Y-93599000D02*
X166719100Y-86755700D01*
X166719100Y-86755700D02*
X159458800Y-79495400D01*
X159458800Y-79495400D02*
X159458800Y-78857200D01*
X159458800Y-78857200D02*
X158191200Y-77589600D01*
X158191200Y-77589600D02*
X155347600Y-77589600D01*
X155347600Y-77589600D02*
X154166000Y-76408000D01*
X122555000Y-107569000D02*
X121626100Y-107569000D01*
X117983000Y-104521000D02*
X118578100Y-104521000D01*
X118578100Y-104521000D02*
X121626100Y-107569000D01*
X160528000Y-103886000D02*
X160528000Y-105214900D01*
X160528000Y-105214900D02*
X157792900Y-107950000D01*
X157792900Y-107950000D02*
X155194000Y-107950000D01*
X155194000Y-107950000D02*
X153924000Y-109220000D01*
X169576900Y-83439000D02*
X169910500Y-83772600D01*
X169910500Y-83772600D02*
X169910500Y-98779200D01*
X169910500Y-98779200D02*
X164803700Y-103886000D01*
X164803700Y-103886000D02*
X160528000Y-103886000D01*
X168148000Y-83439000D02*
X169576900Y-83439000D01*
X122555000Y-115189000D02*
X122555000Y-113494500D01*
X122555000Y-113494500D02*
X128099500Y-107950000D01*
X128099500Y-107950000D02*
X129794000Y-107950000D01*
X129794000Y-107950000D02*
X131064000Y-106680000D01*
X125349000Y-115189000D02*
X127508000Y-113030000D01*
X127508000Y-113030000D02*
X129794000Y-113030000D01*
X129794000Y-113030000D02*
X131064000Y-111760000D01*
X124079000Y-104521000D02*
X125349000Y-105791000D01*
X125349000Y-105791000D02*
X125349000Y-107569000D01*
X168148000Y-103886000D02*
X168148000Y-108618600D01*
X168148000Y-108618600D02*
X162847600Y-113919000D01*
X162847600Y-113919000D02*
X161163000Y-113919000D01*
D27*
G36*
X127523903Y-75415298D02*
G01*
X128337000Y-76228395D01*
X129150097Y-75415298D01*
X129109519Y-75277000D01*
X158933481Y-75277000D01*
X158892903Y-75415298D01*
X159706000Y-76228395D01*
X160519097Y-75415298D01*
X160478519Y-75277000D01*
X168258028Y-75277000D01*
X168626629Y-75313142D01*
X168964865Y-75415261D01*
X169276823Y-75581132D01*
X169550625Y-75804440D01*
X169775836Y-76076672D01*
X169943882Y-76387467D01*
X170048361Y-76724983D01*
X170087000Y-77092615D01*
X170087000Y-83421316D01*
X169853761Y-83188078D01*
X169842069Y-83173831D01*
X169785242Y-83127195D01*
X169720408Y-83092541D01*
X169650060Y-83071201D01*
X169595226Y-83065800D01*
X169595225Y-83065800D01*
X169580719Y-83064371D01*
X169566399Y-83017165D01*
X169464535Y-82826591D01*
X169327449Y-82659551D01*
X169160409Y-82522465D01*
X168969835Y-82420601D01*
X168763049Y-82357874D01*
X168601882Y-82342000D01*
X167694118Y-82342000D01*
X167532951Y-82357874D01*
X167326165Y-82420601D01*
X167135591Y-82522465D01*
X166968551Y-82659551D01*
X166831465Y-82826591D01*
X166729601Y-83017165D01*
X166666874Y-83223951D01*
X166645693Y-83439000D01*
X166666874Y-83654049D01*
X166729601Y-83860835D01*
X166831465Y-84051409D01*
X166968551Y-84218449D01*
X167111544Y-84335800D01*
X166706584Y-84335800D01*
X162085192Y-79714408D01*
X162145843Y-79567983D01*
X162188000Y-79356045D01*
X162188000Y-79139955D01*
X162764000Y-79139955D01*
X162764000Y-79356045D01*
X162806157Y-79567983D01*
X162888851Y-79767624D01*
X163008904Y-79947297D01*
X163161703Y-80100096D01*
X163341376Y-80220149D01*
X163541017Y-80302843D01*
X163752955Y-80345000D01*
X163969045Y-80345000D01*
X164180983Y-80302843D01*
X164380624Y-80220149D01*
X164560297Y-80100096D01*
X164713096Y-79947297D01*
X164833149Y-79767624D01*
X164915843Y-79567983D01*
X164958000Y-79356045D01*
X164958000Y-79139955D01*
X164915843Y-78928017D01*
X164833149Y-78728376D01*
X164713096Y-78548703D01*
X164560297Y-78395904D01*
X164380624Y-78275851D01*
X164180983Y-78193157D01*
X163969045Y-78151000D01*
X163752955Y-78151000D01*
X163541017Y-78193157D01*
X163341376Y-78275851D01*
X163161703Y-78395904D01*
X163008904Y-78548703D01*
X162888851Y-78728376D01*
X162806157Y-78928017D01*
X162764000Y-79139955D01*
X162188000Y-79139955D01*
X162145843Y-78928017D01*
X162063149Y-78728376D01*
X161943096Y-78548703D01*
X161790297Y-78395904D01*
X161610624Y-78275851D01*
X161410983Y-78193157D01*
X161199045Y-78151000D01*
X160982955Y-78151000D01*
X160771017Y-78193157D01*
X160571376Y-78275851D01*
X160391703Y-78395904D01*
X160238904Y-78548703D01*
X160118851Y-78728376D01*
X160036157Y-78928017D01*
X159994000Y-79139955D01*
X159994000Y-79356045D01*
X160030444Y-79539261D01*
X159832000Y-79340817D01*
X159832000Y-78875525D01*
X159833805Y-78857199D01*
X159826599Y-78784040D01*
X159809713Y-78728376D01*
X159805259Y-78713692D01*
X159770605Y-78648858D01*
X159723969Y-78592031D01*
X159709727Y-78580343D01*
X158530086Y-77400702D01*
X158892903Y-77400702D01*
X158964486Y-77644671D01*
X159219996Y-77765571D01*
X159494184Y-77834300D01*
X159776512Y-77848217D01*
X160056130Y-77806787D01*
X160322292Y-77711603D01*
X160447514Y-77644671D01*
X160519097Y-77400702D01*
X159706000Y-76587605D01*
X158892903Y-77400702D01*
X158530086Y-77400702D01*
X158468061Y-77338678D01*
X158456369Y-77324431D01*
X158399542Y-77277795D01*
X158334708Y-77243141D01*
X158264360Y-77221801D01*
X158209526Y-77216400D01*
X158209525Y-77216400D01*
X158191200Y-77214595D01*
X158172875Y-77216400D01*
X157678993Y-77216400D01*
X157788096Y-77107297D01*
X157908149Y-76927624D01*
X157990843Y-76727983D01*
X158033000Y-76516045D01*
X158033000Y-76478512D01*
X158265783Y-76478512D01*
X158307213Y-76758130D01*
X158402397Y-77024292D01*
X158469329Y-77149514D01*
X158713298Y-77221097D01*
X159526395Y-76408000D01*
X159885605Y-76408000D01*
X160698702Y-77221097D01*
X160942671Y-77149514D01*
X161063571Y-76894004D01*
X161132300Y-76619816D01*
X161146217Y-76337488D01*
X161140656Y-76299955D01*
X161379000Y-76299955D01*
X161379000Y-76516045D01*
X161421157Y-76727983D01*
X161503851Y-76927624D01*
X161623904Y-77107297D01*
X161776703Y-77260096D01*
X161956376Y-77380149D01*
X162156017Y-77462843D01*
X162367955Y-77505000D01*
X162584045Y-77505000D01*
X162795983Y-77462843D01*
X162995624Y-77380149D01*
X163175297Y-77260096D01*
X163328096Y-77107297D01*
X163448149Y-76927624D01*
X163530843Y-76727983D01*
X163573000Y-76516045D01*
X163573000Y-76299955D01*
X163530843Y-76088017D01*
X163448149Y-75888376D01*
X163328096Y-75708703D01*
X163175297Y-75555904D01*
X162995624Y-75435851D01*
X162795983Y-75353157D01*
X162584045Y-75311000D01*
X162367955Y-75311000D01*
X162156017Y-75353157D01*
X161956376Y-75435851D01*
X161776703Y-75555904D01*
X161623904Y-75708703D01*
X161503851Y-75888376D01*
X161421157Y-76088017D01*
X161379000Y-76299955D01*
X161140656Y-76299955D01*
X161104787Y-76057870D01*
X161009603Y-75791708D01*
X160942671Y-75666486D01*
X160698702Y-75594903D01*
X159885605Y-76408000D01*
X159526395Y-76408000D01*
X158713298Y-75594903D01*
X158469329Y-75666486D01*
X158348429Y-75921996D01*
X158279700Y-76196184D01*
X158265783Y-76478512D01*
X158033000Y-76478512D01*
X158033000Y-76299955D01*
X157990843Y-76088017D01*
X157908149Y-75888376D01*
X157788096Y-75708703D01*
X157635297Y-75555904D01*
X157455624Y-75435851D01*
X157255983Y-75353157D01*
X157044045Y-75311000D01*
X156827955Y-75311000D01*
X156616017Y-75353157D01*
X156416376Y-75435851D01*
X156236703Y-75555904D01*
X156083904Y-75708703D01*
X155963851Y-75888376D01*
X155881157Y-76088017D01*
X155839000Y-76299955D01*
X155839000Y-76516045D01*
X155881157Y-76727983D01*
X155963851Y-76927624D01*
X156083904Y-77107297D01*
X156193007Y-77216400D01*
X155502184Y-77216400D01*
X155160192Y-76874408D01*
X155220843Y-76727983D01*
X155263000Y-76516045D01*
X155263000Y-76299955D01*
X155220843Y-76088017D01*
X155138149Y-75888376D01*
X155018096Y-75708703D01*
X154865297Y-75555904D01*
X154685624Y-75435851D01*
X154485983Y-75353157D01*
X154274045Y-75311000D01*
X154057955Y-75311000D01*
X153846017Y-75353157D01*
X153646376Y-75435851D01*
X153466703Y-75555904D01*
X153313904Y-75708703D01*
X153193851Y-75888376D01*
X153111157Y-76088017D01*
X153069000Y-76299955D01*
X153069000Y-76516045D01*
X153111157Y-76727983D01*
X153193851Y-76927624D01*
X153313904Y-77107297D01*
X153466703Y-77260096D01*
X153646376Y-77380149D01*
X153846017Y-77462843D01*
X154057955Y-77505000D01*
X154274045Y-77505000D01*
X154485983Y-77462843D01*
X154632408Y-77402192D01*
X155070743Y-77840527D01*
X155082431Y-77854769D01*
X155139258Y-77901405D01*
X155204092Y-77936059D01*
X155274440Y-77957399D01*
X155347600Y-77964605D01*
X155365925Y-77962800D01*
X158036617Y-77962800D01*
X158224817Y-78151000D01*
X158212955Y-78151000D01*
X158001017Y-78193157D01*
X157801376Y-78275851D01*
X157621703Y-78395904D01*
X157468904Y-78548703D01*
X157348851Y-78728376D01*
X157266157Y-78928017D01*
X157224000Y-79139955D01*
X157224000Y-79356045D01*
X157266157Y-79567983D01*
X157348851Y-79767624D01*
X157468904Y-79947297D01*
X157621703Y-80100096D01*
X157801376Y-80220149D01*
X158001017Y-80302843D01*
X158212955Y-80345000D01*
X158429045Y-80345000D01*
X158640983Y-80302843D01*
X158840624Y-80220149D01*
X158999146Y-80114229D01*
X161225479Y-82340563D01*
X159328000Y-82340563D01*
X159269778Y-82346297D01*
X159213793Y-82363280D01*
X159200936Y-82370152D01*
X156545192Y-79714408D01*
X156605843Y-79567983D01*
X156648000Y-79356045D01*
X156648000Y-79139955D01*
X156605843Y-78928017D01*
X156523149Y-78728376D01*
X156403096Y-78548703D01*
X156250297Y-78395904D01*
X156070624Y-78275851D01*
X155870983Y-78193157D01*
X155659045Y-78151000D01*
X155442955Y-78151000D01*
X155231017Y-78193157D01*
X155031376Y-78275851D01*
X154851703Y-78395904D01*
X154698904Y-78548703D01*
X154578851Y-78728376D01*
X154496157Y-78928017D01*
X154454000Y-79139955D01*
X154454000Y-79356045D01*
X154496157Y-79567983D01*
X154578851Y-79767624D01*
X154698904Y-79947297D01*
X154851703Y-80100096D01*
X155031376Y-80220149D01*
X155231017Y-80302843D01*
X155442955Y-80345000D01*
X155659045Y-80345000D01*
X155870983Y-80302843D01*
X156017408Y-80242192D01*
X158725901Y-82950685D01*
X158725900Y-91040674D01*
X158724095Y-91059000D01*
X158731301Y-91132160D01*
X158752641Y-91202508D01*
X158787295Y-91267342D01*
X158816509Y-91302940D01*
X158833931Y-91324169D01*
X158890758Y-91370805D01*
X158955592Y-91405459D01*
X159025940Y-91426799D01*
X159095281Y-91433629D01*
X159109601Y-91480835D01*
X159211465Y-91671409D01*
X159348551Y-91838449D01*
X159515591Y-91975535D01*
X159706165Y-92077399D01*
X159912951Y-92140126D01*
X160074118Y-92156000D01*
X160981882Y-92156000D01*
X161143049Y-92140126D01*
X161349835Y-92077399D01*
X161540409Y-91975535D01*
X161583700Y-91940007D01*
X161583700Y-92717993D01*
X161540409Y-92682465D01*
X161349835Y-92580601D01*
X161143049Y-92517874D01*
X160981882Y-92502000D01*
X160074118Y-92502000D01*
X159912951Y-92517874D01*
X159706165Y-92580601D01*
X159515591Y-92682465D01*
X159348551Y-92819551D01*
X159211465Y-92986591D01*
X159109601Y-93177165D01*
X159095281Y-93224371D01*
X159080774Y-93225800D01*
X159025940Y-93231201D01*
X158955592Y-93252541D01*
X158890758Y-93287195D01*
X158833931Y-93333831D01*
X158787295Y-93390658D01*
X158752641Y-93455492D01*
X158731301Y-93525840D01*
X158724095Y-93599000D01*
X158725900Y-93617325D01*
X158725901Y-96270315D01*
X157037406Y-97958810D01*
X156824761Y-97870730D01*
X156585814Y-97823200D01*
X156342186Y-97823200D01*
X156103239Y-97870730D01*
X155878156Y-97963962D01*
X155675586Y-98099315D01*
X155503315Y-98271586D01*
X155367962Y-98474156D01*
X155274730Y-98699239D01*
X155227200Y-98938186D01*
X155227200Y-99181814D01*
X155274730Y-99420761D01*
X155367962Y-99645844D01*
X155503315Y-99848414D01*
X155675586Y-100020685D01*
X155878156Y-100156038D01*
X156103239Y-100249270D01*
X156342186Y-100296800D01*
X156585814Y-100296800D01*
X156824761Y-100249270D01*
X157049844Y-100156038D01*
X157252414Y-100020685D01*
X157424685Y-99848414D01*
X157560038Y-99645844D01*
X157653270Y-99420761D01*
X157700800Y-99181814D01*
X157700800Y-99028039D01*
X158736096Y-99028039D01*
X158753633Y-99110818D01*
X158864285Y-99370646D01*
X159023500Y-99603895D01*
X159225161Y-99801601D01*
X159461517Y-99956166D01*
X159723486Y-100061650D01*
X160001000Y-100114000D01*
X160401000Y-100114000D01*
X160401000Y-98806000D01*
X160655000Y-98806000D01*
X160655000Y-100114000D01*
X161055000Y-100114000D01*
X161332514Y-100061650D01*
X161594483Y-99956166D01*
X161830839Y-99801601D01*
X162032500Y-99603895D01*
X162191715Y-99370646D01*
X162302367Y-99110818D01*
X162319904Y-99028039D01*
X162197915Y-98806000D01*
X160655000Y-98806000D01*
X160401000Y-98806000D01*
X158858085Y-98806000D01*
X158736096Y-99028039D01*
X157700800Y-99028039D01*
X157700800Y-98938186D01*
X157653270Y-98699239D01*
X157565190Y-98486594D01*
X157721823Y-98329961D01*
X158736096Y-98329961D01*
X158858085Y-98552000D01*
X160401000Y-98552000D01*
X160401000Y-98532000D01*
X160655000Y-98532000D01*
X160655000Y-98552000D01*
X162197915Y-98552000D01*
X162319904Y-98329961D01*
X162302367Y-98247182D01*
X162191715Y-97987354D01*
X162032500Y-97754105D01*
X161830839Y-97556399D01*
X161594483Y-97401834D01*
X161332514Y-97296350D01*
X161055000Y-97244000D01*
X160001000Y-97244000D01*
X159723486Y-97296350D01*
X159461517Y-97401834D01*
X159225161Y-97556399D01*
X159023500Y-97754105D01*
X158864285Y-97987354D01*
X158753633Y-98247182D01*
X158736096Y-98329961D01*
X157721823Y-98329961D01*
X159251542Y-96800242D01*
X159348551Y-96918449D01*
X159515591Y-97055535D01*
X159706165Y-97157399D01*
X159912951Y-97220126D01*
X160074118Y-97236000D01*
X160981882Y-97236000D01*
X161143049Y-97220126D01*
X161349835Y-97157399D01*
X161540409Y-97055535D01*
X161707449Y-96918449D01*
X161844535Y-96751409D01*
X161946399Y-96560835D01*
X161960719Y-96513629D01*
X161975225Y-96512200D01*
X161975226Y-96512200D01*
X162030060Y-96506799D01*
X162100408Y-96485459D01*
X162165242Y-96450805D01*
X162222069Y-96404169D01*
X162268705Y-96347342D01*
X162303359Y-96282508D01*
X162324699Y-96212160D01*
X162331905Y-96139000D01*
X162330100Y-96120674D01*
X162330100Y-82894483D01*
X166345901Y-86910285D01*
X166345900Y-93580674D01*
X166344095Y-93599000D01*
X166351301Y-93672160D01*
X166372641Y-93742508D01*
X166407295Y-93807342D01*
X166449021Y-93858186D01*
X166453931Y-93864169D01*
X166510758Y-93910805D01*
X166575592Y-93945459D01*
X166645940Y-93966799D01*
X166715281Y-93973629D01*
X166729601Y-94020835D01*
X166831465Y-94211409D01*
X166968551Y-94378449D01*
X167135591Y-94515535D01*
X167326165Y-94617399D01*
X167532951Y-94680126D01*
X167694118Y-94696000D01*
X168601882Y-94696000D01*
X168763049Y-94680126D01*
X168969835Y-94617399D01*
X169160409Y-94515535D01*
X169203700Y-94480007D01*
X169203700Y-95257993D01*
X169160409Y-95222465D01*
X168969835Y-95120601D01*
X168763049Y-95057874D01*
X168601882Y-95042000D01*
X167694118Y-95042000D01*
X167532951Y-95057874D01*
X167326165Y-95120601D01*
X167135591Y-95222465D01*
X166968551Y-95359551D01*
X166831465Y-95526591D01*
X166729601Y-95717165D01*
X166666874Y-95923951D01*
X166645693Y-96139000D01*
X166666874Y-96354049D01*
X166729601Y-96560835D01*
X166831465Y-96751409D01*
X166968551Y-96918449D01*
X167135591Y-97055535D01*
X167326165Y-97157399D01*
X167532951Y-97220126D01*
X167694118Y-97236000D01*
X168601882Y-97236000D01*
X168763049Y-97220126D01*
X168969835Y-97157399D01*
X169160409Y-97055535D01*
X169203700Y-97020007D01*
X169203700Y-97797993D01*
X169160409Y-97762465D01*
X168969835Y-97660601D01*
X168763049Y-97597874D01*
X168601882Y-97582000D01*
X167694118Y-97582000D01*
X167532951Y-97597874D01*
X167326165Y-97660601D01*
X167135591Y-97762465D01*
X166968551Y-97899551D01*
X166831465Y-98066591D01*
X166729601Y-98257165D01*
X166666874Y-98463951D01*
X166645693Y-98679000D01*
X166666874Y-98894049D01*
X166729601Y-99100835D01*
X166831465Y-99291409D01*
X166968551Y-99458449D01*
X167135591Y-99595535D01*
X167326165Y-99697399D01*
X167532951Y-99760126D01*
X167694118Y-99776000D01*
X168385916Y-99776000D01*
X164649117Y-103512800D01*
X161926437Y-103512800D01*
X161926437Y-102786000D01*
X161920703Y-102727778D01*
X161903720Y-102671793D01*
X161876141Y-102620197D01*
X161839027Y-102574973D01*
X161793803Y-102537859D01*
X161742207Y-102510280D01*
X161686222Y-102493297D01*
X161628000Y-102487563D01*
X159428000Y-102487563D01*
X159369778Y-102493297D01*
X159313793Y-102510280D01*
X159262197Y-102537859D01*
X159216973Y-102574973D01*
X159179859Y-102620197D01*
X159152280Y-102671793D01*
X159135297Y-102727778D01*
X159129563Y-102786000D01*
X159129563Y-104986000D01*
X159135297Y-105044222D01*
X159152280Y-105100207D01*
X159179859Y-105151803D01*
X159216973Y-105197027D01*
X159262197Y-105234141D01*
X159313793Y-105261720D01*
X159369778Y-105278703D01*
X159428000Y-105284437D01*
X159930678Y-105284437D01*
X157638317Y-107576800D01*
X157316299Y-107576800D01*
X157424685Y-107468414D01*
X157560038Y-107265844D01*
X157653270Y-107040761D01*
X157700800Y-106801814D01*
X157700800Y-106558186D01*
X157653270Y-106319239D01*
X157560038Y-106094156D01*
X157424685Y-105891586D01*
X157252414Y-105719315D01*
X157049844Y-105583962D01*
X156824761Y-105490730D01*
X156585814Y-105443200D01*
X156342186Y-105443200D01*
X156103239Y-105490730D01*
X155878156Y-105583962D01*
X155675586Y-105719315D01*
X155503315Y-105891586D01*
X155380802Y-106074940D01*
X155359865Y-106014914D01*
X155274723Y-105855623D01*
X155016476Y-105767129D01*
X154103605Y-106680000D01*
X154117748Y-106694143D01*
X153938143Y-106873748D01*
X153924000Y-106859605D01*
X153011129Y-107772476D01*
X153099623Y-108030723D01*
X153319106Y-108136691D01*
X153135586Y-108259315D01*
X152963315Y-108431586D01*
X152827962Y-108634156D01*
X152734730Y-108859239D01*
X152687200Y-109098186D01*
X152687200Y-109341814D01*
X152734730Y-109580761D01*
X152827962Y-109805844D01*
X152963315Y-110008414D01*
X153135586Y-110180685D01*
X153338156Y-110316038D01*
X153563239Y-110409270D01*
X153802186Y-110456800D01*
X154045814Y-110456800D01*
X154284761Y-110409270D01*
X154509844Y-110316038D01*
X154712414Y-110180685D01*
X154884685Y-110008414D01*
X155020038Y-109805844D01*
X155113270Y-109580761D01*
X155160800Y-109341814D01*
X155160800Y-109098186D01*
X155113270Y-108859239D01*
X155025190Y-108646594D01*
X155348584Y-108323200D01*
X155611701Y-108323200D01*
X155503315Y-108431586D01*
X155367962Y-108634156D01*
X155274730Y-108859239D01*
X155227200Y-109098186D01*
X155227200Y-109341814D01*
X155274730Y-109580761D01*
X155367962Y-109805844D01*
X155503315Y-110008414D01*
X155675586Y-110180685D01*
X155878156Y-110316038D01*
X156103239Y-110409270D01*
X156342186Y-110456800D01*
X156585814Y-110456800D01*
X156824761Y-110409270D01*
X157049844Y-110316038D01*
X157252414Y-110180685D01*
X157424685Y-110008414D01*
X157560038Y-109805844D01*
X157653270Y-109580761D01*
X157700800Y-109341814D01*
X157700800Y-109098186D01*
X157653270Y-108859239D01*
X157560038Y-108634156D01*
X157424685Y-108431586D01*
X157316299Y-108323200D01*
X157774575Y-108323200D01*
X157792900Y-108325005D01*
X157811225Y-108323200D01*
X157811226Y-108323200D01*
X157866060Y-108317799D01*
X157936408Y-108296459D01*
X158001242Y-108261805D01*
X158058069Y-108215169D01*
X158069761Y-108200922D01*
X160778933Y-105491752D01*
X160793169Y-105480069D01*
X160839805Y-105423242D01*
X160874459Y-105358408D01*
X160895799Y-105288060D01*
X160896156Y-105284437D01*
X161628000Y-105284437D01*
X161686222Y-105278703D01*
X161742207Y-105261720D01*
X161793803Y-105234141D01*
X161839027Y-105197027D01*
X161876141Y-105151803D01*
X161903720Y-105100207D01*
X161920703Y-105044222D01*
X161926437Y-104986000D01*
X161926437Y-104259200D01*
X164785375Y-104259200D01*
X164803700Y-104261005D01*
X164822025Y-104259200D01*
X164822026Y-104259200D01*
X164876860Y-104253799D01*
X164947208Y-104232459D01*
X165012042Y-104197805D01*
X165068869Y-104151169D01*
X165080561Y-104136922D01*
X170087001Y-99130483D01*
X170087001Y-114410018D01*
X170050858Y-114778629D01*
X169948739Y-115116864D01*
X169782867Y-115428825D01*
X169559560Y-115702625D01*
X169546714Y-115713253D01*
X169551072Y-115669000D01*
X169548000Y-114204750D01*
X169389250Y-114046000D01*
X167290000Y-114046000D01*
X167290000Y-114066000D01*
X167036000Y-114066000D01*
X167036000Y-114046000D01*
X164936750Y-114046000D01*
X164778000Y-114204750D01*
X164774928Y-115669000D01*
X164787188Y-115793482D01*
X164823498Y-115913180D01*
X164882463Y-116023494D01*
X164961815Y-116120185D01*
X165058506Y-116199537D01*
X165132335Y-116239000D01*
X119070298Y-116239000D01*
X119214906Y-116210236D01*
X119460044Y-116108696D01*
X119680663Y-115961284D01*
X119868284Y-115773663D01*
X120015696Y-115553044D01*
X120117236Y-115307906D01*
X120169000Y-115047668D01*
X120169000Y-114782332D01*
X120117236Y-114522094D01*
X120015696Y-114276956D01*
X119868284Y-114056337D01*
X119680663Y-113868716D01*
X119460044Y-113721304D01*
X119214906Y-113619764D01*
X118954668Y-113568000D01*
X118689332Y-113568000D01*
X118429094Y-113619764D01*
X118183956Y-113721304D01*
X117963337Y-113868716D01*
X117795603Y-114036450D01*
X117831855Y-113894474D01*
X117847804Y-113597457D01*
X117805501Y-113303037D01*
X117706572Y-113022526D01*
X117629868Y-112879025D01*
X117378240Y-112798365D01*
X116511605Y-113665000D01*
X117378240Y-114531635D01*
X117544947Y-114478197D01*
X117526764Y-114522094D01*
X117475000Y-114782332D01*
X117475000Y-115047668D01*
X117526764Y-115307906D01*
X117628304Y-115553044D01*
X117775716Y-115773663D01*
X117963337Y-115961284D01*
X118183956Y-116108696D01*
X118429094Y-116210236D01*
X118573702Y-116239000D01*
X116983972Y-116239000D01*
X116615371Y-116202858D01*
X116277136Y-116100739D01*
X115965175Y-115934867D01*
X115691375Y-115711560D01*
X115466164Y-115439328D01*
X115298118Y-115128533D01*
X115193639Y-114791017D01*
X115185255Y-114711240D01*
X115465365Y-114711240D01*
X115546025Y-114962868D01*
X115814329Y-115091267D01*
X116102526Y-115164855D01*
X116399543Y-115180804D01*
X116693963Y-115138501D01*
X116974474Y-115039572D01*
X117117975Y-114962868D01*
X117198635Y-114711240D01*
X116332000Y-113844605D01*
X115465365Y-114711240D01*
X115185255Y-114711240D01*
X115162215Y-114492032D01*
X115285760Y-114531635D01*
X116152395Y-113665000D01*
X115285760Y-112798365D01*
X115155000Y-112840280D01*
X115155000Y-112618760D01*
X115465365Y-112618760D01*
X116332000Y-113485395D01*
X117198635Y-112618760D01*
X117117975Y-112367132D01*
X116849671Y-112238733D01*
X116561474Y-112165145D01*
X116264457Y-112149196D01*
X115970037Y-112191499D01*
X115689526Y-112290428D01*
X115546025Y-112367132D01*
X115465365Y-112618760D01*
X115155000Y-112618760D01*
X115155000Y-109049568D01*
X115160000Y-109049568D01*
X115160000Y-109280432D01*
X115205039Y-109506860D01*
X115293387Y-109720150D01*
X115421648Y-109912107D01*
X115584893Y-110075352D01*
X115776850Y-110203613D01*
X115990140Y-110291961D01*
X116216568Y-110337000D01*
X116447432Y-110337000D01*
X116673860Y-110291961D01*
X116887150Y-110203613D01*
X117079107Y-110075352D01*
X117242352Y-109912107D01*
X117370613Y-109720150D01*
X117458961Y-109506860D01*
X117504000Y-109280432D01*
X117504000Y-109049568D01*
X117458961Y-108823140D01*
X117370613Y-108609850D01*
X117242352Y-108417893D01*
X117079107Y-108254648D01*
X116887150Y-108126387D01*
X116673860Y-108038039D01*
X116447432Y-107993000D01*
X116216568Y-107993000D01*
X115990140Y-108038039D01*
X115776850Y-108126387D01*
X115584893Y-108254648D01*
X115421648Y-108417893D01*
X115293387Y-108609850D01*
X115205039Y-108823140D01*
X115160000Y-109049568D01*
X115155000Y-109049568D01*
X115155000Y-107772332D01*
X117475000Y-107772332D01*
X117475000Y-108037668D01*
X117526764Y-108297906D01*
X117628304Y-108543044D01*
X117775716Y-108763663D01*
X117963337Y-108951284D01*
X118183956Y-109098696D01*
X118429094Y-109200236D01*
X118689332Y-109252000D01*
X118954668Y-109252000D01*
X119214906Y-109200236D01*
X119460044Y-109098696D01*
X119680663Y-108951284D01*
X119868284Y-108763663D01*
X120015696Y-108543044D01*
X120117236Y-108297906D01*
X120169000Y-108037668D01*
X120169000Y-107772332D01*
X120117236Y-107512094D01*
X120015696Y-107266956D01*
X119868284Y-107046337D01*
X119680663Y-106858716D01*
X119460044Y-106711304D01*
X119214906Y-106609764D01*
X118954668Y-106558000D01*
X118689332Y-106558000D01*
X118429094Y-106609764D01*
X118183956Y-106711304D01*
X117963337Y-106858716D01*
X117775716Y-107046337D01*
X117628304Y-107266956D01*
X117526764Y-107512094D01*
X117475000Y-107772332D01*
X115155000Y-107772332D01*
X115155000Y-102981000D01*
X116344928Y-102981000D01*
X116357188Y-103105482D01*
X116393498Y-103225180D01*
X116452463Y-103335494D01*
X116531815Y-103432185D01*
X116628506Y-103511537D01*
X116738820Y-103570502D01*
X116858518Y-103606812D01*
X116983000Y-103619072D01*
X117050984Y-103618780D01*
X116975554Y-103694210D01*
X116833613Y-103906640D01*
X116735843Y-104142679D01*
X116686000Y-104393257D01*
X116686000Y-104648743D01*
X116735843Y-104899321D01*
X116833613Y-105135360D01*
X116975554Y-105347790D01*
X117156210Y-105528446D01*
X117368640Y-105670387D01*
X117604679Y-105768157D01*
X117855257Y-105818000D01*
X118110743Y-105818000D01*
X118361321Y-105768157D01*
X118597360Y-105670387D01*
X118809790Y-105528446D01*
X118933776Y-105404460D01*
X121349243Y-107819927D01*
X121360931Y-107834169D01*
X121412927Y-107876840D01*
X121417758Y-107880805D01*
X121482592Y-107915459D01*
X121552940Y-107936799D01*
X121626100Y-107944005D01*
X121626871Y-107943929D01*
X121629435Y-107952381D01*
X121722014Y-108125584D01*
X121846603Y-108277397D01*
X121998416Y-108401986D01*
X122171619Y-108494565D01*
X122359554Y-108551574D01*
X122506022Y-108566000D01*
X122603978Y-108566000D01*
X122750446Y-108551574D01*
X122938381Y-108494565D01*
X123111584Y-108401986D01*
X123263397Y-108277397D01*
X123387986Y-108125584D01*
X123480565Y-107952381D01*
X123537574Y-107764446D01*
X123556824Y-107569000D01*
X123537574Y-107373554D01*
X123480565Y-107185619D01*
X123387986Y-107012416D01*
X123263397Y-106860603D01*
X123111584Y-106736014D01*
X122938381Y-106643435D01*
X122750446Y-106586426D01*
X122603978Y-106572000D01*
X122506022Y-106572000D01*
X122359554Y-106586426D01*
X122171619Y-106643435D01*
X121998416Y-106736014D01*
X121846603Y-106860603D01*
X121722014Y-107012416D01*
X121678573Y-107093689D01*
X119272306Y-104687423D01*
X119280000Y-104648743D01*
X119280000Y-104393257D01*
X119230157Y-104142679D01*
X119132387Y-103906640D01*
X118990446Y-103694210D01*
X118915016Y-103618780D01*
X118983000Y-103619072D01*
X119107482Y-103606812D01*
X119227180Y-103570502D01*
X119337494Y-103511537D01*
X119434185Y-103432185D01*
X119513537Y-103335494D01*
X119572502Y-103225180D01*
X119608812Y-103105482D01*
X119621072Y-102981000D01*
X122440928Y-102981000D01*
X122453188Y-103105482D01*
X122489498Y-103225180D01*
X122548463Y-103335494D01*
X122627815Y-103432185D01*
X122724506Y-103511537D01*
X122834820Y-103570502D01*
X122954518Y-103606812D01*
X123079000Y-103619072D01*
X123146984Y-103618780D01*
X123071554Y-103694210D01*
X122929613Y-103906640D01*
X122831843Y-104142679D01*
X122782000Y-104393257D01*
X122782000Y-104648743D01*
X122831843Y-104899321D01*
X122929613Y-105135360D01*
X123071554Y-105347790D01*
X123252210Y-105528446D01*
X123464640Y-105670387D01*
X123700679Y-105768157D01*
X123951257Y-105818000D01*
X124206743Y-105818000D01*
X124457321Y-105768157D01*
X124693360Y-105670387D01*
X124697702Y-105667486D01*
X124975800Y-105945584D01*
X124975800Y-106640347D01*
X124965619Y-106643435D01*
X124792416Y-106736014D01*
X124640603Y-106860603D01*
X124516014Y-107012416D01*
X124423435Y-107185619D01*
X124366426Y-107373554D01*
X124347176Y-107569000D01*
X124366426Y-107764446D01*
X124423435Y-107952381D01*
X124516014Y-108125584D01*
X124640603Y-108277397D01*
X124792416Y-108401986D01*
X124965619Y-108494565D01*
X125153554Y-108551574D01*
X125300022Y-108566000D01*
X125397978Y-108566000D01*
X125544446Y-108551574D01*
X125732381Y-108494565D01*
X125905584Y-108401986D01*
X126057397Y-108277397D01*
X126181986Y-108125584D01*
X126274565Y-107952381D01*
X126331574Y-107764446D01*
X126350824Y-107569000D01*
X126331574Y-107373554D01*
X126274565Y-107185619D01*
X126181986Y-107012416D01*
X126057397Y-106860603D01*
X125905584Y-106736014D01*
X125732381Y-106643435D01*
X125722200Y-106640347D01*
X125722200Y-105809325D01*
X125724005Y-105790999D01*
X125716799Y-105717840D01*
X125695459Y-105647492D01*
X125660805Y-105582658D01*
X125614169Y-105525831D01*
X125599928Y-105514144D01*
X125225486Y-105139702D01*
X125228387Y-105135360D01*
X125326157Y-104899321D01*
X125376000Y-104648743D01*
X125376000Y-104393257D01*
X125326157Y-104142679D01*
X125228387Y-103906640D01*
X125086446Y-103694210D01*
X125011016Y-103618780D01*
X125079000Y-103619072D01*
X125203482Y-103606812D01*
X125323180Y-103570502D01*
X125433494Y-103511537D01*
X125530185Y-103432185D01*
X125609537Y-103335494D01*
X125668502Y-103225180D01*
X125704812Y-103105482D01*
X125717072Y-102981000D01*
X125714000Y-102266750D01*
X125555250Y-102108000D01*
X124206000Y-102108000D01*
X124206000Y-102128000D01*
X123952000Y-102128000D01*
X123952000Y-102108000D01*
X122602750Y-102108000D01*
X122444000Y-102266750D01*
X122440928Y-102981000D01*
X119621072Y-102981000D01*
X119618000Y-102266750D01*
X119459250Y-102108000D01*
X118110000Y-102108000D01*
X118110000Y-102128000D01*
X117856000Y-102128000D01*
X117856000Y-102108000D01*
X116506750Y-102108000D01*
X116348000Y-102266750D01*
X116344928Y-102981000D01*
X115155000Y-102981000D01*
X115155000Y-100981000D01*
X116344928Y-100981000D01*
X116348000Y-101695250D01*
X116506750Y-101854000D01*
X117856000Y-101854000D01*
X117856000Y-100504750D01*
X118110000Y-100504750D01*
X118110000Y-101854000D01*
X119459250Y-101854000D01*
X119618000Y-101695250D01*
X119621072Y-100981000D01*
X119608812Y-100856518D01*
X119572502Y-100736820D01*
X119513537Y-100626506D01*
X119434185Y-100529815D01*
X119337494Y-100450463D01*
X119227180Y-100391498D01*
X119107482Y-100355188D01*
X118983000Y-100342928D01*
X118268750Y-100346000D01*
X118110000Y-100504750D01*
X117856000Y-100504750D01*
X117697250Y-100346000D01*
X116983000Y-100342928D01*
X116858518Y-100355188D01*
X116738820Y-100391498D01*
X116628506Y-100450463D01*
X116531815Y-100529815D01*
X116452463Y-100626506D01*
X116393498Y-100736820D01*
X116357188Y-100856518D01*
X116344928Y-100981000D01*
X115155000Y-100981000D01*
X115155000Y-99028039D01*
X115302096Y-99028039D01*
X115319633Y-99110818D01*
X115430285Y-99370646D01*
X115589500Y-99603895D01*
X115791161Y-99801601D01*
X116027517Y-99956166D01*
X116289486Y-100061650D01*
X116567000Y-100114000D01*
X116967000Y-100114000D01*
X116967000Y-98806000D01*
X117221000Y-98806000D01*
X117221000Y-100114000D01*
X117621000Y-100114000D01*
X117898514Y-100061650D01*
X118160483Y-99956166D01*
X118396839Y-99801601D01*
X118598500Y-99603895D01*
X118757715Y-99370646D01*
X118868367Y-99110818D01*
X118885904Y-99028039D01*
X118763915Y-98806000D01*
X117221000Y-98806000D01*
X116967000Y-98806000D01*
X115424085Y-98806000D01*
X115302096Y-99028039D01*
X115155000Y-99028039D01*
X115155000Y-98329961D01*
X115302096Y-98329961D01*
X115424085Y-98552000D01*
X116967000Y-98552000D01*
X116967000Y-98532000D01*
X117221000Y-98532000D01*
X117221000Y-98552000D01*
X118763915Y-98552000D01*
X118885904Y-98329961D01*
X118868367Y-98247182D01*
X118757715Y-97987354D01*
X118598500Y-97754105D01*
X118396839Y-97556399D01*
X118160483Y-97401834D01*
X117898514Y-97296350D01*
X117621000Y-97244000D01*
X116567000Y-97244000D01*
X116289486Y-97296350D01*
X116027517Y-97401834D01*
X115791161Y-97556399D01*
X115589500Y-97754105D01*
X115430285Y-97987354D01*
X115319633Y-98247182D01*
X115302096Y-98329961D01*
X115155000Y-98329961D01*
X115155000Y-88060000D01*
X115290095Y-88060000D01*
X115291901Y-88078335D01*
X115291900Y-91040674D01*
X115290095Y-91059000D01*
X115297301Y-91132160D01*
X115318641Y-91202508D01*
X115353295Y-91267342D01*
X115382509Y-91302940D01*
X115399931Y-91324169D01*
X115456758Y-91370805D01*
X115521592Y-91405459D01*
X115591940Y-91426799D01*
X115661281Y-91433629D01*
X115675601Y-91480835D01*
X115777465Y-91671409D01*
X115914551Y-91838449D01*
X116081591Y-91975535D01*
X116272165Y-92077399D01*
X116478951Y-92140126D01*
X116640118Y-92156000D01*
X117547882Y-92156000D01*
X117709049Y-92140126D01*
X117915835Y-92077399D01*
X118106409Y-91975535D01*
X118149700Y-91940007D01*
X118149700Y-92717993D01*
X118106409Y-92682465D01*
X117915835Y-92580601D01*
X117709049Y-92517874D01*
X117547882Y-92502000D01*
X116640118Y-92502000D01*
X116478951Y-92517874D01*
X116272165Y-92580601D01*
X116081591Y-92682465D01*
X115914551Y-92819551D01*
X115777465Y-92986591D01*
X115675601Y-93177165D01*
X115612874Y-93383951D01*
X115591693Y-93599000D01*
X115612874Y-93814049D01*
X115675601Y-94020835D01*
X115777465Y-94211409D01*
X115914551Y-94378449D01*
X116081591Y-94515535D01*
X116272165Y-94617399D01*
X116478951Y-94680126D01*
X116640118Y-94696000D01*
X117547882Y-94696000D01*
X117709049Y-94680126D01*
X117915835Y-94617399D01*
X118106409Y-94515535D01*
X118149700Y-94480007D01*
X118149700Y-95257993D01*
X118106409Y-95222465D01*
X117915835Y-95120601D01*
X117709049Y-95057874D01*
X117547882Y-95042000D01*
X116640118Y-95042000D01*
X116478951Y-95057874D01*
X116272165Y-95120601D01*
X116081591Y-95222465D01*
X115914551Y-95359551D01*
X115777465Y-95526591D01*
X115675601Y-95717165D01*
X115612874Y-95923951D01*
X115591693Y-96139000D01*
X115612874Y-96354049D01*
X115675601Y-96560835D01*
X115777465Y-96751409D01*
X115914551Y-96918449D01*
X116081591Y-97055535D01*
X116272165Y-97157399D01*
X116478951Y-97220126D01*
X116640118Y-97236000D01*
X117547882Y-97236000D01*
X117709049Y-97220126D01*
X117915835Y-97157399D01*
X118106409Y-97055535D01*
X118273449Y-96918449D01*
X118410535Y-96751409D01*
X118512399Y-96560835D01*
X118526719Y-96513629D01*
X118541225Y-96512200D01*
X118541226Y-96512200D01*
X118596060Y-96506799D01*
X118666408Y-96485459D01*
X118731242Y-96450805D01*
X118788069Y-96404169D01*
X118834705Y-96347342D01*
X118869359Y-96282508D01*
X118890699Y-96212160D01*
X118897905Y-96139000D01*
X118896100Y-96120674D01*
X118896100Y-87831683D01*
X120748783Y-85979000D01*
X123211693Y-85979000D01*
X123232874Y-86194049D01*
X123295601Y-86400835D01*
X123397465Y-86591409D01*
X123534551Y-86758449D01*
X123701591Y-86895535D01*
X123892165Y-86997399D01*
X124098951Y-87060126D01*
X124260118Y-87076000D01*
X125167882Y-87076000D01*
X125329049Y-87060126D01*
X125535835Y-86997399D01*
X125726409Y-86895535D01*
X125893449Y-86758449D01*
X126030535Y-86591409D01*
X126132399Y-86400835D01*
X126195126Y-86194049D01*
X126216307Y-85979000D01*
X126195126Y-85763951D01*
X126132399Y-85557165D01*
X126030535Y-85366591D01*
X125893449Y-85199551D01*
X125726409Y-85062465D01*
X125535835Y-84960601D01*
X125329049Y-84897874D01*
X125167882Y-84882000D01*
X124260118Y-84882000D01*
X124098951Y-84897874D01*
X123892165Y-84960601D01*
X123701591Y-85062465D01*
X123534551Y-85199551D01*
X123397465Y-85366591D01*
X123295601Y-85557165D01*
X123232874Y-85763951D01*
X123211693Y-85979000D01*
X120748783Y-85979000D01*
X123218605Y-83509179D01*
X123232874Y-83654049D01*
X123295601Y-83860835D01*
X123397465Y-84051409D01*
X123534551Y-84218449D01*
X123701591Y-84355535D01*
X123892165Y-84457399D01*
X124098951Y-84520126D01*
X124260118Y-84536000D01*
X125167882Y-84536000D01*
X125329049Y-84520126D01*
X125535835Y-84457399D01*
X125726409Y-84355535D01*
X125893449Y-84218449D01*
X126030535Y-84051409D01*
X126132399Y-83860835D01*
X126195126Y-83654049D01*
X126216307Y-83439000D01*
X126195126Y-83223951D01*
X126132399Y-83017165D01*
X126030535Y-82826591D01*
X125893449Y-82659551D01*
X125726409Y-82522465D01*
X125535835Y-82420601D01*
X125329049Y-82357874D01*
X125167882Y-82342000D01*
X124385784Y-82342000D01*
X126485593Y-80242192D01*
X126632017Y-80302843D01*
X126843955Y-80345000D01*
X127060045Y-80345000D01*
X127271983Y-80302843D01*
X127471624Y-80220149D01*
X127651297Y-80100096D01*
X127804096Y-79947297D01*
X127855801Y-79869915D01*
X127855800Y-86278316D01*
X126099152Y-88034965D01*
X126030535Y-87906591D01*
X125893449Y-87739551D01*
X125726409Y-87602465D01*
X125535835Y-87500601D01*
X125329049Y-87437874D01*
X125167882Y-87422000D01*
X124260118Y-87422000D01*
X124098951Y-87437874D01*
X123892165Y-87500601D01*
X123701591Y-87602465D01*
X123534551Y-87739551D01*
X123397465Y-87906591D01*
X123295601Y-88097165D01*
X123232874Y-88303951D01*
X123211693Y-88519000D01*
X123232874Y-88734049D01*
X123295601Y-88940835D01*
X123397465Y-89131409D01*
X123534551Y-89298449D01*
X123701591Y-89435535D01*
X123892165Y-89537399D01*
X124098951Y-89600126D01*
X124260118Y-89616000D01*
X125167882Y-89616000D01*
X125329049Y-89600126D01*
X125535835Y-89537399D01*
X125726409Y-89435535D01*
X125893449Y-89298449D01*
X126030535Y-89131409D01*
X126132399Y-88940835D01*
X126146719Y-88893629D01*
X126161225Y-88892200D01*
X126161226Y-88892200D01*
X126216060Y-88886799D01*
X126286408Y-88865459D01*
X126351242Y-88830805D01*
X126408069Y-88784169D01*
X126419761Y-88769922D01*
X128479928Y-86709756D01*
X128494169Y-86698069D01*
X128540805Y-86641242D01*
X128575459Y-86576408D01*
X128596799Y-86506060D01*
X128602200Y-86451226D01*
X128602200Y-86451225D01*
X128604005Y-86432900D01*
X128602200Y-86414575D01*
X128602200Y-79440583D01*
X128635243Y-79407540D01*
X128667157Y-79567983D01*
X128749851Y-79767624D01*
X128869904Y-79947297D01*
X129022703Y-80100096D01*
X129202376Y-80220149D01*
X129348801Y-80280800D01*
X129348800Y-87755515D01*
X126200976Y-90903341D01*
X126195126Y-90843951D01*
X126132399Y-90637165D01*
X126030535Y-90446591D01*
X125893449Y-90279551D01*
X125726409Y-90142465D01*
X125535835Y-90040601D01*
X125329049Y-89977874D01*
X125167882Y-89962000D01*
X124260118Y-89962000D01*
X124098951Y-89977874D01*
X123892165Y-90040601D01*
X123701591Y-90142465D01*
X123534551Y-90279551D01*
X123397465Y-90446591D01*
X123295601Y-90637165D01*
X123281281Y-90684371D01*
X123266774Y-90685800D01*
X123211940Y-90691201D01*
X123141592Y-90712541D01*
X123076758Y-90747195D01*
X123019931Y-90793831D01*
X123008243Y-90808073D01*
X122717078Y-91099239D01*
X122702831Y-91110931D01*
X122656195Y-91167759D01*
X122621541Y-91232593D01*
X122600201Y-91302940D01*
X122600201Y-91302941D01*
X122592995Y-91376100D01*
X122594800Y-91394425D01*
X122594801Y-98816865D01*
X122592995Y-98835200D01*
X122600201Y-98908359D01*
X122621542Y-98978708D01*
X122647910Y-99028039D01*
X122656196Y-99043542D01*
X122702832Y-99100369D01*
X122717074Y-99112057D01*
X123951998Y-100346982D01*
X123951998Y-100504748D01*
X123793250Y-100346000D01*
X123079000Y-100342928D01*
X122954518Y-100355188D01*
X122834820Y-100391498D01*
X122724506Y-100450463D01*
X122627815Y-100529815D01*
X122548463Y-100626506D01*
X122489498Y-100736820D01*
X122453188Y-100856518D01*
X122440928Y-100981000D01*
X122444000Y-101695250D01*
X122602750Y-101854000D01*
X123952000Y-101854000D01*
X123952000Y-101834000D01*
X124206000Y-101834000D01*
X124206000Y-101854000D01*
X125555250Y-101854000D01*
X125651583Y-101757667D01*
X126779600Y-102885684D01*
X126779601Y-105290465D01*
X126777795Y-105308800D01*
X126785001Y-105381959D01*
X126806342Y-105452308D01*
X126826879Y-105490730D01*
X126840996Y-105517142D01*
X126887632Y-105573969D01*
X126901873Y-105585657D01*
X127422810Y-106106594D01*
X127334730Y-106319239D01*
X127287200Y-106558186D01*
X127287200Y-106801814D01*
X127334730Y-107040761D01*
X127427962Y-107265844D01*
X127563315Y-107468414D01*
X127735586Y-107640685D01*
X127822759Y-107698932D01*
X127822643Y-107699073D01*
X122304074Y-113217643D01*
X122289832Y-113229331D01*
X122248490Y-113279707D01*
X122243195Y-113286159D01*
X122208542Y-113350992D01*
X122187201Y-113421341D01*
X122179995Y-113494500D01*
X122181801Y-113512835D01*
X122181801Y-114264439D01*
X122082743Y-114305470D01*
X121919450Y-114414580D01*
X121780580Y-114553450D01*
X121671470Y-114716743D01*
X121596314Y-114898186D01*
X121558000Y-115090804D01*
X121558000Y-115287196D01*
X121596314Y-115479814D01*
X121671470Y-115661257D01*
X121780580Y-115824550D01*
X121919450Y-115963420D01*
X122082743Y-116072530D01*
X122264186Y-116147686D01*
X122456804Y-116186000D01*
X122653196Y-116186000D01*
X122845814Y-116147686D01*
X123027257Y-116072530D01*
X123190550Y-115963420D01*
X123329420Y-115824550D01*
X123438530Y-115661257D01*
X123513686Y-115479814D01*
X123552000Y-115287196D01*
X123552000Y-115090804D01*
X124352000Y-115090804D01*
X124352000Y-115287196D01*
X124390314Y-115479814D01*
X124465470Y-115661257D01*
X124574580Y-115824550D01*
X124713450Y-115963420D01*
X124876743Y-116072530D01*
X125058186Y-116147686D01*
X125250804Y-116186000D01*
X125447196Y-116186000D01*
X125639814Y-116147686D01*
X125821257Y-116072530D01*
X125984550Y-115963420D01*
X126123420Y-115824550D01*
X126232530Y-115661257D01*
X126307686Y-115479814D01*
X126346000Y-115287196D01*
X126346000Y-115090804D01*
X126307686Y-114898186D01*
X126266655Y-114799128D01*
X127662584Y-113403200D01*
X127671701Y-113403200D01*
X127563315Y-113511586D01*
X127427962Y-113714156D01*
X127334730Y-113939239D01*
X127287200Y-114178186D01*
X127287200Y-114421814D01*
X127334730Y-114660761D01*
X127427962Y-114885844D01*
X127563315Y-115088414D01*
X127735586Y-115260685D01*
X127938156Y-115396038D01*
X128163239Y-115489270D01*
X128402186Y-115536800D01*
X128645814Y-115536800D01*
X128884761Y-115489270D01*
X129109844Y-115396038D01*
X129312414Y-115260685D01*
X129484685Y-115088414D01*
X129620038Y-114885844D01*
X129713270Y-114660761D01*
X129760800Y-114421814D01*
X129760800Y-114178186D01*
X129713270Y-113939239D01*
X129620038Y-113714156D01*
X129484685Y-113511586D01*
X129376299Y-113403200D01*
X129775675Y-113403200D01*
X129794000Y-113405005D01*
X129812325Y-113403200D01*
X129812326Y-113403200D01*
X129825763Y-113401876D01*
X129825763Y-115239800D01*
X129831497Y-115298022D01*
X129848480Y-115354007D01*
X129876059Y-115405603D01*
X129913173Y-115450827D01*
X129958397Y-115487941D01*
X130009993Y-115515520D01*
X130065978Y-115532503D01*
X130124200Y-115538237D01*
X132003800Y-115538237D01*
X132062022Y-115532503D01*
X132118007Y-115515520D01*
X132169603Y-115487941D01*
X132214827Y-115450827D01*
X132251941Y-115405603D01*
X132279520Y-115354007D01*
X132296503Y-115298022D01*
X132302237Y-115239800D01*
X132302237Y-114178186D01*
X152687200Y-114178186D01*
X152687200Y-114421814D01*
X152734730Y-114660761D01*
X152827962Y-114885844D01*
X152963315Y-115088414D01*
X153135586Y-115260685D01*
X153338156Y-115396038D01*
X153563239Y-115489270D01*
X153802186Y-115536800D01*
X154045814Y-115536800D01*
X154284761Y-115489270D01*
X154509844Y-115396038D01*
X154712414Y-115260685D01*
X154884685Y-115088414D01*
X155020038Y-114885844D01*
X155113270Y-114660761D01*
X155160800Y-114421814D01*
X155160800Y-114178186D01*
X155113270Y-113939239D01*
X155020038Y-113714156D01*
X154884685Y-113511586D01*
X154733299Y-113360200D01*
X155225763Y-113360200D01*
X155225763Y-115239800D01*
X155231497Y-115298022D01*
X155248480Y-115354007D01*
X155276059Y-115405603D01*
X155313173Y-115450827D01*
X155358397Y-115487941D01*
X155409993Y-115515520D01*
X155465978Y-115532503D01*
X155524200Y-115538237D01*
X157403800Y-115538237D01*
X157462022Y-115532503D01*
X157518007Y-115515520D01*
X157569603Y-115487941D01*
X157614827Y-115450827D01*
X157651941Y-115405603D01*
X157679520Y-115354007D01*
X157696503Y-115298022D01*
X157702237Y-115239800D01*
X157702237Y-113360200D01*
X157696503Y-113301978D01*
X157679520Y-113245993D01*
X157651941Y-113194397D01*
X157614827Y-113149173D01*
X157569603Y-113112059D01*
X157518007Y-113084480D01*
X157462022Y-113067497D01*
X157403800Y-113061763D01*
X155524200Y-113061763D01*
X155465978Y-113067497D01*
X155409993Y-113084480D01*
X155358397Y-113112059D01*
X155313173Y-113149173D01*
X155276059Y-113194397D01*
X155248480Y-113245993D01*
X155231497Y-113301978D01*
X155225763Y-113360200D01*
X154733299Y-113360200D01*
X154712414Y-113339315D01*
X154509844Y-113203962D01*
X154284761Y-113110730D01*
X154045814Y-113063200D01*
X153802186Y-113063200D01*
X153563239Y-113110730D01*
X153338156Y-113203962D01*
X153135586Y-113339315D01*
X152963315Y-113511586D01*
X152827962Y-113714156D01*
X152734730Y-113939239D01*
X152687200Y-114178186D01*
X132302237Y-114178186D01*
X132302237Y-113360200D01*
X132296503Y-113301978D01*
X132279520Y-113245993D01*
X132251941Y-113194397D01*
X132214827Y-113149173D01*
X132169603Y-113112059D01*
X132118007Y-113084480D01*
X132062022Y-113067497D01*
X132003800Y-113061763D01*
X130290020Y-113061763D01*
X130307783Y-113044000D01*
X159114563Y-113044000D01*
X159114563Y-114794000D01*
X159137110Y-115022926D01*
X159203886Y-115243055D01*
X159312323Y-115445927D01*
X159458255Y-115623745D01*
X159636073Y-115769677D01*
X159838945Y-115878114D01*
X160059074Y-115944890D01*
X160288000Y-115967437D01*
X162038000Y-115967437D01*
X162266926Y-115944890D01*
X162487055Y-115878114D01*
X162689927Y-115769677D01*
X162867745Y-115623745D01*
X163013677Y-115445927D01*
X163122114Y-115243055D01*
X163188890Y-115022926D01*
X163211437Y-114794000D01*
X163211437Y-114082946D01*
X164775662Y-112518722D01*
X164778000Y-113633250D01*
X164936750Y-113792000D01*
X167036000Y-113792000D01*
X167036000Y-111692750D01*
X167290000Y-111692750D01*
X167290000Y-113792000D01*
X169389250Y-113792000D01*
X169548000Y-113633250D01*
X169551072Y-112169000D01*
X169538812Y-112044518D01*
X169502502Y-111924820D01*
X169443537Y-111814506D01*
X169364185Y-111717815D01*
X169267494Y-111638463D01*
X169157180Y-111579498D01*
X169037482Y-111543188D01*
X168913000Y-111530928D01*
X167448750Y-111534000D01*
X167290000Y-111692750D01*
X167036000Y-111692750D01*
X166877250Y-111534000D01*
X165762722Y-111531662D01*
X168398927Y-108895457D01*
X168413169Y-108883769D01*
X168459805Y-108826942D01*
X168494459Y-108762108D01*
X168515799Y-108691760D01*
X168521200Y-108636926D01*
X168523005Y-108618600D01*
X168521200Y-108600275D01*
X168521200Y-105232651D01*
X168685195Y-105182904D01*
X168927887Y-105053183D01*
X169140608Y-104878608D01*
X169315183Y-104665887D01*
X169444904Y-104423195D01*
X169524786Y-104159860D01*
X169551759Y-103886000D01*
X169524786Y-103612140D01*
X169444904Y-103348805D01*
X169315183Y-103106113D01*
X169140608Y-102893392D01*
X168927887Y-102718817D01*
X168685195Y-102589096D01*
X168421860Y-102509214D01*
X168216625Y-102489000D01*
X168079375Y-102489000D01*
X167874140Y-102509214D01*
X167610805Y-102589096D01*
X167368113Y-102718817D01*
X167155392Y-102893392D01*
X166980817Y-103106113D01*
X166851096Y-103348805D01*
X166771214Y-103612140D01*
X166744241Y-103886000D01*
X166771214Y-104159860D01*
X166851096Y-104423195D01*
X166980817Y-104665887D01*
X167155392Y-104878608D01*
X167368113Y-105053183D01*
X167610805Y-105182904D01*
X167774800Y-105232652D01*
X167774801Y-108464015D01*
X166211437Y-110027379D01*
X166211437Y-108344000D01*
X166188890Y-108115074D01*
X166122114Y-107894945D01*
X166013677Y-107692073D01*
X165867745Y-107514255D01*
X165689927Y-107368323D01*
X165487055Y-107259886D01*
X165266926Y-107193110D01*
X165038000Y-107170563D01*
X163288000Y-107170563D01*
X163059074Y-107193110D01*
X162838945Y-107259886D01*
X162636073Y-107368323D01*
X162458255Y-107514255D01*
X162312323Y-107692073D01*
X162203886Y-107894945D01*
X162137110Y-108115074D01*
X162114563Y-108344000D01*
X162114563Y-110094000D01*
X162137110Y-110322926D01*
X162203886Y-110543055D01*
X162312323Y-110745927D01*
X162458255Y-110923745D01*
X162636073Y-111069677D01*
X162838945Y-111178114D01*
X163059074Y-111244890D01*
X163288000Y-111267437D01*
X164971380Y-111267437D01*
X163209947Y-113028870D01*
X163188890Y-112815074D01*
X163122114Y-112594945D01*
X163013677Y-112392073D01*
X162867745Y-112214255D01*
X162689927Y-112068323D01*
X162487055Y-111959886D01*
X162266926Y-111893110D01*
X162038000Y-111870563D01*
X160288000Y-111870563D01*
X160059074Y-111893110D01*
X159838945Y-111959886D01*
X159636073Y-112068323D01*
X159458255Y-112214255D01*
X159312323Y-112392073D01*
X159203886Y-112594945D01*
X159137110Y-112815074D01*
X159114563Y-113044000D01*
X130307783Y-113044000D01*
X130490594Y-112861190D01*
X130703239Y-112949270D01*
X130942186Y-112996800D01*
X131185814Y-112996800D01*
X131424761Y-112949270D01*
X131649844Y-112856038D01*
X131852414Y-112720685D01*
X132024685Y-112548414D01*
X132160038Y-112345844D01*
X132253270Y-112120761D01*
X132300800Y-111881814D01*
X132300800Y-111638186D01*
X152687200Y-111638186D01*
X152687200Y-111881814D01*
X152734730Y-112120761D01*
X152827962Y-112345844D01*
X152963315Y-112548414D01*
X153135586Y-112720685D01*
X153338156Y-112856038D01*
X153563239Y-112949270D01*
X153802186Y-112996800D01*
X154045814Y-112996800D01*
X154284761Y-112949270D01*
X154509844Y-112856038D01*
X154712414Y-112720685D01*
X154884685Y-112548414D01*
X155020038Y-112345844D01*
X155113270Y-112120761D01*
X155160800Y-111881814D01*
X155160800Y-111638186D01*
X155227200Y-111638186D01*
X155227200Y-111881814D01*
X155274730Y-112120761D01*
X155367962Y-112345844D01*
X155503315Y-112548414D01*
X155675586Y-112720685D01*
X155878156Y-112856038D01*
X156103239Y-112949270D01*
X156342186Y-112996800D01*
X156585814Y-112996800D01*
X156824761Y-112949270D01*
X157049844Y-112856038D01*
X157252414Y-112720685D01*
X157424685Y-112548414D01*
X157560038Y-112345844D01*
X157653270Y-112120761D01*
X157700800Y-111881814D01*
X157700800Y-111638186D01*
X157653270Y-111399239D01*
X157560038Y-111174156D01*
X157424685Y-110971586D01*
X157252414Y-110799315D01*
X157049844Y-110663962D01*
X156824761Y-110570730D01*
X156585814Y-110523200D01*
X156342186Y-110523200D01*
X156103239Y-110570730D01*
X155878156Y-110663962D01*
X155675586Y-110799315D01*
X155503315Y-110971586D01*
X155367962Y-111174156D01*
X155274730Y-111399239D01*
X155227200Y-111638186D01*
X155160800Y-111638186D01*
X155113270Y-111399239D01*
X155020038Y-111174156D01*
X154884685Y-110971586D01*
X154712414Y-110799315D01*
X154509844Y-110663962D01*
X154284761Y-110570730D01*
X154045814Y-110523200D01*
X153802186Y-110523200D01*
X153563239Y-110570730D01*
X153338156Y-110663962D01*
X153135586Y-110799315D01*
X152963315Y-110971586D01*
X152827962Y-111174156D01*
X152734730Y-111399239D01*
X152687200Y-111638186D01*
X132300800Y-111638186D01*
X132253270Y-111399239D01*
X132160038Y-111174156D01*
X132024685Y-110971586D01*
X131852414Y-110799315D01*
X131649844Y-110663962D01*
X131424761Y-110570730D01*
X131185814Y-110523200D01*
X130942186Y-110523200D01*
X130703239Y-110570730D01*
X130478156Y-110663962D01*
X130275586Y-110799315D01*
X130103315Y-110971586D01*
X129967962Y-111174156D01*
X129874730Y-111399239D01*
X129827200Y-111638186D01*
X129827200Y-111881814D01*
X129874730Y-112120761D01*
X129962810Y-112333406D01*
X129639417Y-112656800D01*
X129376299Y-112656800D01*
X129484685Y-112548414D01*
X129620038Y-112345844D01*
X129713270Y-112120761D01*
X129760800Y-111881814D01*
X129760800Y-111638186D01*
X129713270Y-111399239D01*
X129620038Y-111174156D01*
X129484685Y-110971586D01*
X129312414Y-110799315D01*
X129109844Y-110663962D01*
X128884761Y-110570730D01*
X128645814Y-110523200D01*
X128402186Y-110523200D01*
X128163239Y-110570730D01*
X127938156Y-110663962D01*
X127735586Y-110799315D01*
X127563315Y-110971586D01*
X127427962Y-111174156D01*
X127334730Y-111399239D01*
X127287200Y-111638186D01*
X127287200Y-111881814D01*
X127334730Y-112120761D01*
X127427962Y-112345844D01*
X127563315Y-112548414D01*
X127671701Y-112656800D01*
X127526325Y-112656800D01*
X127507999Y-112654995D01*
X127489674Y-112656800D01*
X127434840Y-112662201D01*
X127364492Y-112683541D01*
X127299658Y-112718195D01*
X127242831Y-112764831D01*
X127231143Y-112779073D01*
X125738872Y-114271345D01*
X125639814Y-114230314D01*
X125447196Y-114192000D01*
X125250804Y-114192000D01*
X125058186Y-114230314D01*
X124876743Y-114305470D01*
X124713450Y-114414580D01*
X124574580Y-114553450D01*
X124465470Y-114716743D01*
X124390314Y-114898186D01*
X124352000Y-115090804D01*
X123552000Y-115090804D01*
X123513686Y-114898186D01*
X123438530Y-114716743D01*
X123329420Y-114553450D01*
X123190550Y-114414580D01*
X123027257Y-114305470D01*
X122928200Y-114264439D01*
X122928200Y-113649083D01*
X127287200Y-109290084D01*
X127287200Y-109341814D01*
X127334730Y-109580761D01*
X127427962Y-109805844D01*
X127563315Y-110008414D01*
X127735586Y-110180685D01*
X127938156Y-110316038D01*
X128163239Y-110409270D01*
X128402186Y-110456800D01*
X128645814Y-110456800D01*
X128884761Y-110409270D01*
X129109844Y-110316038D01*
X129312414Y-110180685D01*
X129484685Y-110008414D01*
X129620038Y-109805844D01*
X129713270Y-109580761D01*
X129760800Y-109341814D01*
X129760800Y-109098186D01*
X129827200Y-109098186D01*
X129827200Y-109341814D01*
X129874730Y-109580761D01*
X129967962Y-109805844D01*
X130103315Y-110008414D01*
X130275586Y-110180685D01*
X130478156Y-110316038D01*
X130703239Y-110409270D01*
X130942186Y-110456800D01*
X131185814Y-110456800D01*
X131424761Y-110409270D01*
X131649844Y-110316038D01*
X131852414Y-110180685D01*
X132024685Y-110008414D01*
X132160038Y-109805844D01*
X132253270Y-109580761D01*
X132300800Y-109341814D01*
X132300800Y-109098186D01*
X132253270Y-108859239D01*
X132160038Y-108634156D01*
X132024685Y-108431586D01*
X131852414Y-108259315D01*
X131649844Y-108123962D01*
X131424761Y-108030730D01*
X131185814Y-107983200D01*
X130942186Y-107983200D01*
X130703239Y-108030730D01*
X130478156Y-108123962D01*
X130275586Y-108259315D01*
X130103315Y-108431586D01*
X129967962Y-108634156D01*
X129874730Y-108859239D01*
X129827200Y-109098186D01*
X129760800Y-109098186D01*
X129713270Y-108859239D01*
X129620038Y-108634156D01*
X129484685Y-108431586D01*
X129376299Y-108323200D01*
X129775675Y-108323200D01*
X129794000Y-108325005D01*
X129812325Y-108323200D01*
X129812326Y-108323200D01*
X129867160Y-108317799D01*
X129937508Y-108296459D01*
X130002342Y-108261805D01*
X130059169Y-108215169D01*
X130070861Y-108200922D01*
X130490594Y-107781190D01*
X130703239Y-107869270D01*
X130942186Y-107916800D01*
X131185814Y-107916800D01*
X131424761Y-107869270D01*
X131649844Y-107776038D01*
X131852414Y-107640685D01*
X132024685Y-107468414D01*
X132160038Y-107265844D01*
X132253270Y-107040761D01*
X132300800Y-106801814D01*
X132300800Y-106744977D01*
X152342916Y-106744977D01*
X152385973Y-107052184D01*
X152488135Y-107345086D01*
X152573277Y-107504377D01*
X152831524Y-107592871D01*
X153744395Y-106680000D01*
X152831524Y-105767129D01*
X152573277Y-105855623D01*
X152438403Y-106134976D01*
X152360619Y-106435275D01*
X152342916Y-106744977D01*
X132300800Y-106744977D01*
X132300800Y-106558186D01*
X132253270Y-106319239D01*
X132160038Y-106094156D01*
X132024685Y-105891586D01*
X131852414Y-105719315D01*
X131649844Y-105583962D01*
X131424761Y-105490730D01*
X131185814Y-105443200D01*
X130942186Y-105443200D01*
X130703239Y-105490730D01*
X130478156Y-105583962D01*
X130275586Y-105719315D01*
X130103315Y-105891586D01*
X129967962Y-106094156D01*
X129874730Y-106319239D01*
X129827200Y-106558186D01*
X129827200Y-106801814D01*
X129874730Y-107040761D01*
X129962810Y-107253406D01*
X129639417Y-107576800D01*
X129376299Y-107576800D01*
X129484685Y-107468414D01*
X129620038Y-107265844D01*
X129713270Y-107040761D01*
X129760800Y-106801814D01*
X129760800Y-106558186D01*
X129713270Y-106319239D01*
X129620038Y-106094156D01*
X129484685Y-105891586D01*
X129312414Y-105719315D01*
X129109844Y-105583962D01*
X128884761Y-105490730D01*
X128645814Y-105443200D01*
X128402186Y-105443200D01*
X128163239Y-105490730D01*
X127950594Y-105578810D01*
X127526000Y-105154217D01*
X127526000Y-104872568D01*
X127563315Y-104928414D01*
X127735586Y-105100685D01*
X127938156Y-105236038D01*
X128163239Y-105329270D01*
X128402186Y-105376800D01*
X128645814Y-105376800D01*
X128884761Y-105329270D01*
X129109844Y-105236038D01*
X129312414Y-105100685D01*
X129484685Y-104928414D01*
X129620038Y-104725844D01*
X129713270Y-104500761D01*
X129760800Y-104261814D01*
X129760800Y-104018186D01*
X129713270Y-103779239D01*
X129620038Y-103554156D01*
X129484685Y-103351586D01*
X129312414Y-103179315D01*
X129109844Y-103043962D01*
X128884761Y-102950730D01*
X128645814Y-102903200D01*
X128402186Y-102903200D01*
X128163239Y-102950730D01*
X127938156Y-103043962D01*
X127735586Y-103179315D01*
X127563315Y-103351586D01*
X127526000Y-103407432D01*
X127526000Y-102749425D01*
X127527805Y-102731100D01*
X127520599Y-102657940D01*
X127499259Y-102587592D01*
X127483546Y-102558195D01*
X127464605Y-102522758D01*
X127417969Y-102465931D01*
X127403728Y-102454244D01*
X125648061Y-100698578D01*
X125609537Y-100626506D01*
X125530185Y-100529815D01*
X125433494Y-100450463D01*
X125323180Y-100391498D01*
X125203482Y-100355188D01*
X125079000Y-100342928D01*
X125003835Y-100343251D01*
X124436584Y-99776000D01*
X125167882Y-99776000D01*
X125329049Y-99760126D01*
X125535835Y-99697399D01*
X125726409Y-99595535D01*
X125893449Y-99458449D01*
X126030535Y-99291409D01*
X126132399Y-99100835D01*
X126190038Y-98910821D01*
X127845254Y-100566037D01*
X127735586Y-100639315D01*
X127563315Y-100811586D01*
X127427962Y-101014156D01*
X127334730Y-101239239D01*
X127287200Y-101478186D01*
X127287200Y-101721814D01*
X127334730Y-101960761D01*
X127427962Y-102185844D01*
X127563315Y-102388414D01*
X127735586Y-102560685D01*
X127938156Y-102696038D01*
X128163239Y-102789270D01*
X128402186Y-102836800D01*
X128645814Y-102836800D01*
X128884761Y-102789270D01*
X129109844Y-102696038D01*
X129312414Y-102560685D01*
X129420801Y-102452298D01*
X129420801Y-102851665D01*
X129418995Y-102870000D01*
X129426201Y-102943159D01*
X129442312Y-102996268D01*
X129447542Y-103013508D01*
X129482196Y-103078342D01*
X129528832Y-103135169D01*
X129543073Y-103146857D01*
X129962810Y-103566594D01*
X129874730Y-103779239D01*
X129827200Y-104018186D01*
X129827200Y-104261814D01*
X129874730Y-104500761D01*
X129967962Y-104725844D01*
X130103315Y-104928414D01*
X130275586Y-105100685D01*
X130478156Y-105236038D01*
X130703239Y-105329270D01*
X130942186Y-105376800D01*
X131185814Y-105376800D01*
X131424761Y-105329270D01*
X131649844Y-105236038D01*
X131852414Y-105100685D01*
X132024685Y-104928414D01*
X132160038Y-104725844D01*
X132253270Y-104500761D01*
X132300800Y-104261814D01*
X132300800Y-104018186D01*
X152687200Y-104018186D01*
X152687200Y-104261814D01*
X152734730Y-104500761D01*
X152827962Y-104725844D01*
X152963315Y-104928414D01*
X153135586Y-105100685D01*
X153318940Y-105223198D01*
X153258914Y-105244135D01*
X153099623Y-105329277D01*
X153011129Y-105587524D01*
X153924000Y-106500395D01*
X154836871Y-105587524D01*
X154748377Y-105329277D01*
X154528894Y-105223309D01*
X154712414Y-105100685D01*
X154884685Y-104928414D01*
X155020038Y-104725844D01*
X155113270Y-104500761D01*
X155160800Y-104261814D01*
X155160800Y-104018186D01*
X155227200Y-104018186D01*
X155227200Y-104261814D01*
X155274730Y-104500761D01*
X155367962Y-104725844D01*
X155503315Y-104928414D01*
X155675586Y-105100685D01*
X155878156Y-105236038D01*
X156103239Y-105329270D01*
X156342186Y-105376800D01*
X156585814Y-105376800D01*
X156824761Y-105329270D01*
X157049844Y-105236038D01*
X157252414Y-105100685D01*
X157424685Y-104928414D01*
X157560038Y-104725844D01*
X157653270Y-104500761D01*
X157700800Y-104261814D01*
X157700800Y-104018186D01*
X157653270Y-103779239D01*
X157560038Y-103554156D01*
X157424685Y-103351586D01*
X157252414Y-103179315D01*
X157049844Y-103043962D01*
X156824761Y-102950730D01*
X156585814Y-102903200D01*
X156342186Y-102903200D01*
X156103239Y-102950730D01*
X155878156Y-103043962D01*
X155675586Y-103179315D01*
X155503315Y-103351586D01*
X155367962Y-103554156D01*
X155274730Y-103779239D01*
X155227200Y-104018186D01*
X155160800Y-104018186D01*
X155113270Y-103779239D01*
X155020038Y-103554156D01*
X154884685Y-103351586D01*
X154712414Y-103179315D01*
X154509844Y-103043962D01*
X154284761Y-102950730D01*
X154045814Y-102903200D01*
X153802186Y-102903200D01*
X153563239Y-102950730D01*
X153338156Y-103043962D01*
X153135586Y-103179315D01*
X152963315Y-103351586D01*
X152827962Y-103554156D01*
X152734730Y-103779239D01*
X152687200Y-104018186D01*
X132300800Y-104018186D01*
X132253270Y-103779239D01*
X132160038Y-103554156D01*
X132024685Y-103351586D01*
X131852414Y-103179315D01*
X131649844Y-103043962D01*
X131424761Y-102950730D01*
X131185814Y-102903200D01*
X130942186Y-102903200D01*
X130703239Y-102950730D01*
X130490594Y-103038810D01*
X130167200Y-102715417D01*
X130167200Y-102452299D01*
X130275586Y-102560685D01*
X130478156Y-102696038D01*
X130703239Y-102789270D01*
X130942186Y-102836800D01*
X131185814Y-102836800D01*
X131424761Y-102789270D01*
X131649844Y-102696038D01*
X131852414Y-102560685D01*
X132024685Y-102388414D01*
X132160038Y-102185844D01*
X132253270Y-101960761D01*
X132300800Y-101721814D01*
X132300800Y-101478186D01*
X152687200Y-101478186D01*
X152687200Y-101721814D01*
X152734730Y-101960761D01*
X152827962Y-102185844D01*
X152963315Y-102388414D01*
X153135586Y-102560685D01*
X153338156Y-102696038D01*
X153563239Y-102789270D01*
X153802186Y-102836800D01*
X154045814Y-102836800D01*
X154284761Y-102789270D01*
X154509844Y-102696038D01*
X154712414Y-102560685D01*
X154884685Y-102388414D01*
X155020038Y-102185844D01*
X155113270Y-101960761D01*
X155160800Y-101721814D01*
X155160800Y-101478186D01*
X155227200Y-101478186D01*
X155227200Y-101721814D01*
X155274730Y-101960761D01*
X155367962Y-102185844D01*
X155503315Y-102388414D01*
X155675586Y-102560685D01*
X155878156Y-102696038D01*
X156103239Y-102789270D01*
X156342186Y-102836800D01*
X156585814Y-102836800D01*
X156824761Y-102789270D01*
X157049844Y-102696038D01*
X157252414Y-102560685D01*
X157424685Y-102388414D01*
X157560038Y-102185844D01*
X157653270Y-101960761D01*
X157700800Y-101721814D01*
X157700800Y-101478186D01*
X157653270Y-101239239D01*
X157560038Y-101014156D01*
X157424685Y-100811586D01*
X157252414Y-100639315D01*
X157049844Y-100503962D01*
X156824761Y-100410730D01*
X156585814Y-100363200D01*
X156342186Y-100363200D01*
X156103239Y-100410730D01*
X155878156Y-100503962D01*
X155675586Y-100639315D01*
X155503315Y-100811586D01*
X155367962Y-101014156D01*
X155274730Y-101239239D01*
X155227200Y-101478186D01*
X155160800Y-101478186D01*
X155113270Y-101239239D01*
X155020038Y-101014156D01*
X154884685Y-100811586D01*
X154712414Y-100639315D01*
X154509844Y-100503962D01*
X154284761Y-100410730D01*
X154045814Y-100363200D01*
X153802186Y-100363200D01*
X153563239Y-100410730D01*
X153338156Y-100503962D01*
X153135586Y-100639315D01*
X152963315Y-100811586D01*
X152827962Y-101014156D01*
X152734730Y-101239239D01*
X152687200Y-101478186D01*
X132300800Y-101478186D01*
X132253270Y-101239239D01*
X132160038Y-101014156D01*
X132024685Y-100811586D01*
X131852414Y-100639315D01*
X131649844Y-100503962D01*
X131424761Y-100410730D01*
X131185814Y-100363200D01*
X130942186Y-100363200D01*
X130703239Y-100410730D01*
X130478156Y-100503962D01*
X130275586Y-100639315D01*
X130103315Y-100811586D01*
X130037568Y-100909984D01*
X129307861Y-100180278D01*
X129296169Y-100166031D01*
X129239342Y-100119395D01*
X129197864Y-100097225D01*
X129312414Y-100020685D01*
X129484685Y-99848414D01*
X129620038Y-99645844D01*
X129713270Y-99420761D01*
X129760800Y-99181814D01*
X129760800Y-98938186D01*
X129827200Y-98938186D01*
X129827200Y-99181814D01*
X129874730Y-99420761D01*
X129967962Y-99645844D01*
X130103315Y-99848414D01*
X130275586Y-100020685D01*
X130478156Y-100156038D01*
X130703239Y-100249270D01*
X130942186Y-100296800D01*
X131185814Y-100296800D01*
X131424761Y-100249270D01*
X131649844Y-100156038D01*
X131852414Y-100020685D01*
X132024685Y-99848414D01*
X132160038Y-99645844D01*
X132253270Y-99420761D01*
X132300800Y-99181814D01*
X132300800Y-98938186D01*
X152687200Y-98938186D01*
X152687200Y-99181814D01*
X152734730Y-99420761D01*
X152827962Y-99645844D01*
X152963315Y-99848414D01*
X153135586Y-100020685D01*
X153338156Y-100156038D01*
X153563239Y-100249270D01*
X153802186Y-100296800D01*
X154045814Y-100296800D01*
X154284761Y-100249270D01*
X154509844Y-100156038D01*
X154712414Y-100020685D01*
X154884685Y-99848414D01*
X155020038Y-99645844D01*
X155113270Y-99420761D01*
X155160800Y-99181814D01*
X155160800Y-98938186D01*
X155113270Y-98699239D01*
X155020038Y-98474156D01*
X154884685Y-98271586D01*
X154712414Y-98099315D01*
X154509844Y-97963962D01*
X154284761Y-97870730D01*
X154045814Y-97823200D01*
X153802186Y-97823200D01*
X153563239Y-97870730D01*
X153338156Y-97963962D01*
X153135586Y-98099315D01*
X152963315Y-98271586D01*
X152827962Y-98474156D01*
X152734730Y-98699239D01*
X152687200Y-98938186D01*
X132300800Y-98938186D01*
X132253270Y-98699239D01*
X132160038Y-98474156D01*
X132024685Y-98271586D01*
X131852414Y-98099315D01*
X131649844Y-97963962D01*
X131424761Y-97870730D01*
X131185814Y-97823200D01*
X130942186Y-97823200D01*
X130703239Y-97870730D01*
X130478156Y-97963962D01*
X130275586Y-98099315D01*
X130103315Y-98271586D01*
X129967962Y-98474156D01*
X129874730Y-98699239D01*
X129827200Y-98938186D01*
X129760800Y-98938186D01*
X129713270Y-98699239D01*
X129620038Y-98474156D01*
X129484685Y-98271586D01*
X129312414Y-98099315D01*
X129109844Y-97963962D01*
X128884761Y-97870730D01*
X128645814Y-97823200D01*
X128402186Y-97823200D01*
X128163239Y-97870730D01*
X127938156Y-97963962D01*
X127735586Y-98099315D01*
X127563315Y-98271586D01*
X127427962Y-98474156D01*
X127334730Y-98699239D01*
X127287200Y-98938186D01*
X127287200Y-98952417D01*
X126516100Y-98181317D01*
X126516100Y-96398186D01*
X127287200Y-96398186D01*
X127287200Y-96641814D01*
X127334730Y-96880761D01*
X127427962Y-97105844D01*
X127563315Y-97308414D01*
X127735586Y-97480685D01*
X127938156Y-97616038D01*
X128163239Y-97709270D01*
X128402186Y-97756800D01*
X128645814Y-97756800D01*
X128884761Y-97709270D01*
X129109844Y-97616038D01*
X129312414Y-97480685D01*
X129484685Y-97308414D01*
X129620038Y-97105844D01*
X129713270Y-96880761D01*
X129760800Y-96641814D01*
X129760800Y-96398186D01*
X129827200Y-96398186D01*
X129827200Y-96641814D01*
X129874730Y-96880761D01*
X129967962Y-97105844D01*
X130103315Y-97308414D01*
X130275586Y-97480685D01*
X130478156Y-97616038D01*
X130703239Y-97709270D01*
X130942186Y-97756800D01*
X131185814Y-97756800D01*
X131424761Y-97709270D01*
X131649844Y-97616038D01*
X131852414Y-97480685D01*
X132024685Y-97308414D01*
X132160038Y-97105844D01*
X132253270Y-96880761D01*
X132300800Y-96641814D01*
X132300800Y-96398186D01*
X152687200Y-96398186D01*
X152687200Y-96641814D01*
X152734730Y-96880761D01*
X152827962Y-97105844D01*
X152963315Y-97308414D01*
X153135586Y-97480685D01*
X153338156Y-97616038D01*
X153563239Y-97709270D01*
X153802186Y-97756800D01*
X154045814Y-97756800D01*
X154284761Y-97709270D01*
X154509844Y-97616038D01*
X154712414Y-97480685D01*
X154884685Y-97308414D01*
X155020038Y-97105844D01*
X155113270Y-96880761D01*
X155160800Y-96641814D01*
X155160800Y-96398186D01*
X155227200Y-96398186D01*
X155227200Y-96641814D01*
X155274730Y-96880761D01*
X155367962Y-97105844D01*
X155503315Y-97308414D01*
X155675586Y-97480685D01*
X155878156Y-97616038D01*
X156103239Y-97709270D01*
X156342186Y-97756800D01*
X156585814Y-97756800D01*
X156824761Y-97709270D01*
X157049844Y-97616038D01*
X157252414Y-97480685D01*
X157424685Y-97308414D01*
X157560038Y-97105844D01*
X157653270Y-96880761D01*
X157700800Y-96641814D01*
X157700800Y-96398186D01*
X157653270Y-96159239D01*
X157560038Y-95934156D01*
X157424685Y-95731586D01*
X157252414Y-95559315D01*
X157049844Y-95423962D01*
X156824761Y-95330730D01*
X156585814Y-95283200D01*
X156342186Y-95283200D01*
X156103239Y-95330730D01*
X155878156Y-95423962D01*
X155675586Y-95559315D01*
X155503315Y-95731586D01*
X155367962Y-95934156D01*
X155274730Y-96159239D01*
X155227200Y-96398186D01*
X155160800Y-96398186D01*
X155113270Y-96159239D01*
X155020038Y-95934156D01*
X154884685Y-95731586D01*
X154712414Y-95559315D01*
X154509844Y-95423962D01*
X154284761Y-95330730D01*
X154045814Y-95283200D01*
X153802186Y-95283200D01*
X153563239Y-95330730D01*
X153338156Y-95423962D01*
X153135586Y-95559315D01*
X152963315Y-95731586D01*
X152827962Y-95934156D01*
X152734730Y-96159239D01*
X152687200Y-96398186D01*
X132300800Y-96398186D01*
X132253270Y-96159239D01*
X132160038Y-95934156D01*
X132024685Y-95731586D01*
X131852414Y-95559315D01*
X131649844Y-95423962D01*
X131424761Y-95330730D01*
X131185814Y-95283200D01*
X130942186Y-95283200D01*
X130703239Y-95330730D01*
X130478156Y-95423962D01*
X130275586Y-95559315D01*
X130103315Y-95731586D01*
X129967962Y-95934156D01*
X129874730Y-96159239D01*
X129827200Y-96398186D01*
X129760800Y-96398186D01*
X129713270Y-96159239D01*
X129620038Y-95934156D01*
X129484685Y-95731586D01*
X129312414Y-95559315D01*
X129109844Y-95423962D01*
X128884761Y-95330730D01*
X128645814Y-95283200D01*
X128402186Y-95283200D01*
X128163239Y-95330730D01*
X127938156Y-95423962D01*
X127735586Y-95559315D01*
X127563315Y-95731586D01*
X127427962Y-95934156D01*
X127334730Y-96159239D01*
X127287200Y-96398186D01*
X126516100Y-96398186D01*
X126516100Y-96157325D01*
X126517905Y-96139000D01*
X126510699Y-96065840D01*
X126489359Y-95995492D01*
X126454705Y-95930658D01*
X126408069Y-95873831D01*
X126351242Y-95827195D01*
X126286408Y-95792541D01*
X126216060Y-95771201D01*
X126161226Y-95765800D01*
X126161225Y-95765800D01*
X126146719Y-95764371D01*
X126132399Y-95717165D01*
X126030535Y-95526591D01*
X125893449Y-95359551D01*
X125726409Y-95222465D01*
X125535835Y-95120601D01*
X125329049Y-95057874D01*
X125167882Y-95042000D01*
X124260118Y-95042000D01*
X124098951Y-95057874D01*
X123892165Y-95120601D01*
X123701591Y-95222465D01*
X123658300Y-95257993D01*
X123658300Y-94480007D01*
X123701591Y-94515535D01*
X123892165Y-94617399D01*
X124098951Y-94680126D01*
X124260118Y-94696000D01*
X125167882Y-94696000D01*
X125329049Y-94680126D01*
X125535835Y-94617399D01*
X125726409Y-94515535D01*
X125893449Y-94378449D01*
X126030535Y-94211409D01*
X126132399Y-94020835D01*
X126181737Y-93858186D01*
X127287200Y-93858186D01*
X127287200Y-94101814D01*
X127334730Y-94340761D01*
X127427962Y-94565844D01*
X127563315Y-94768414D01*
X127735586Y-94940685D01*
X127938156Y-95076038D01*
X128163239Y-95169270D01*
X128402186Y-95216800D01*
X128645814Y-95216800D01*
X128884761Y-95169270D01*
X129109844Y-95076038D01*
X129312414Y-94940685D01*
X129484685Y-94768414D01*
X129620038Y-94565844D01*
X129713270Y-94340761D01*
X129760800Y-94101814D01*
X129760800Y-93858186D01*
X129827200Y-93858186D01*
X129827200Y-94101814D01*
X129874730Y-94340761D01*
X129967962Y-94565844D01*
X130103315Y-94768414D01*
X130275586Y-94940685D01*
X130478156Y-95076038D01*
X130703239Y-95169270D01*
X130942186Y-95216800D01*
X131185814Y-95216800D01*
X131424761Y-95169270D01*
X131649844Y-95076038D01*
X131852414Y-94940685D01*
X132024685Y-94768414D01*
X132160038Y-94565844D01*
X132253270Y-94340761D01*
X132300800Y-94101814D01*
X132300800Y-93858186D01*
X152687200Y-93858186D01*
X152687200Y-94101814D01*
X152734730Y-94340761D01*
X152827962Y-94565844D01*
X152963315Y-94768414D01*
X153135586Y-94940685D01*
X153338156Y-95076038D01*
X153563239Y-95169270D01*
X153802186Y-95216800D01*
X154045814Y-95216800D01*
X154284761Y-95169270D01*
X154509844Y-95076038D01*
X154712414Y-94940685D01*
X154884685Y-94768414D01*
X155020038Y-94565844D01*
X155113270Y-94340761D01*
X155160800Y-94101814D01*
X155160800Y-93858186D01*
X155227200Y-93858186D01*
X155227200Y-94101814D01*
X155274730Y-94340761D01*
X155367962Y-94565844D01*
X155503315Y-94768414D01*
X155675586Y-94940685D01*
X155878156Y-95076038D01*
X156103239Y-95169270D01*
X156342186Y-95216800D01*
X156585814Y-95216800D01*
X156824761Y-95169270D01*
X157049844Y-95076038D01*
X157252414Y-94940685D01*
X157424685Y-94768414D01*
X157560038Y-94565844D01*
X157653270Y-94340761D01*
X157700800Y-94101814D01*
X157700800Y-93858186D01*
X157653270Y-93619239D01*
X157560038Y-93394156D01*
X157424685Y-93191586D01*
X157252414Y-93019315D01*
X157069060Y-92896802D01*
X157129086Y-92875865D01*
X157288377Y-92790723D01*
X157376871Y-92532476D01*
X156464000Y-91619605D01*
X155551129Y-92532476D01*
X155639623Y-92790723D01*
X155859106Y-92896691D01*
X155675586Y-93019315D01*
X155503315Y-93191586D01*
X155367962Y-93394156D01*
X155274730Y-93619239D01*
X155227200Y-93858186D01*
X155160800Y-93858186D01*
X155113270Y-93619239D01*
X155020038Y-93394156D01*
X154884685Y-93191586D01*
X154712414Y-93019315D01*
X154509844Y-92883962D01*
X154284761Y-92790730D01*
X154045814Y-92743200D01*
X153802186Y-92743200D01*
X153563239Y-92790730D01*
X153338156Y-92883962D01*
X153135586Y-93019315D01*
X152963315Y-93191586D01*
X152827962Y-93394156D01*
X152734730Y-93619239D01*
X152687200Y-93858186D01*
X132300800Y-93858186D01*
X132253270Y-93619239D01*
X132160038Y-93394156D01*
X132024685Y-93191586D01*
X131852414Y-93019315D01*
X131649844Y-92883962D01*
X131424761Y-92790730D01*
X131185814Y-92743200D01*
X130942186Y-92743200D01*
X130703239Y-92790730D01*
X130478156Y-92883962D01*
X130275586Y-93019315D01*
X130103315Y-93191586D01*
X129967962Y-93394156D01*
X129874730Y-93619239D01*
X129827200Y-93858186D01*
X129760800Y-93858186D01*
X129713270Y-93619239D01*
X129620038Y-93394156D01*
X129484685Y-93191586D01*
X129312414Y-93019315D01*
X129129060Y-92896802D01*
X129189086Y-92875865D01*
X129348377Y-92790723D01*
X129436871Y-92532476D01*
X128524000Y-91619605D01*
X127611129Y-92532476D01*
X127699623Y-92790723D01*
X127919106Y-92896691D01*
X127735586Y-93019315D01*
X127563315Y-93191586D01*
X127427962Y-93394156D01*
X127334730Y-93619239D01*
X127287200Y-93858186D01*
X126181737Y-93858186D01*
X126195126Y-93814049D01*
X126216307Y-93599000D01*
X126195126Y-93383951D01*
X126132399Y-93177165D01*
X126030535Y-92986591D01*
X125893449Y-92819551D01*
X125726409Y-92682465D01*
X125535835Y-92580601D01*
X125406275Y-92541300D01*
X125445675Y-92541300D01*
X125464000Y-92543105D01*
X125482325Y-92541300D01*
X125482326Y-92541300D01*
X125537160Y-92535899D01*
X125607508Y-92514559D01*
X125672342Y-92479905D01*
X125729169Y-92433269D01*
X125740861Y-92419022D01*
X126960377Y-91199506D01*
X126942916Y-91504977D01*
X126985973Y-91812184D01*
X127088135Y-92105086D01*
X127173277Y-92264377D01*
X127431524Y-92352871D01*
X128344395Y-91440000D01*
X128703605Y-91440000D01*
X129616476Y-92352871D01*
X129874723Y-92264377D01*
X129980691Y-92044894D01*
X130103315Y-92228414D01*
X130275586Y-92400685D01*
X130478156Y-92536038D01*
X130703239Y-92629270D01*
X130942186Y-92676800D01*
X131185814Y-92676800D01*
X131424761Y-92629270D01*
X131649844Y-92536038D01*
X131852414Y-92400685D01*
X132024685Y-92228414D01*
X132160038Y-92025844D01*
X132253270Y-91800761D01*
X132300800Y-91561814D01*
X132300800Y-91318186D01*
X152687200Y-91318186D01*
X152687200Y-91561814D01*
X152734730Y-91800761D01*
X152827962Y-92025844D01*
X152963315Y-92228414D01*
X153135586Y-92400685D01*
X153338156Y-92536038D01*
X153563239Y-92629270D01*
X153802186Y-92676800D01*
X154045814Y-92676800D01*
X154284761Y-92629270D01*
X154509844Y-92536038D01*
X154712414Y-92400685D01*
X154884685Y-92228414D01*
X155007198Y-92045060D01*
X155028135Y-92105086D01*
X155113277Y-92264377D01*
X155371524Y-92352871D01*
X156284395Y-91440000D01*
X156643605Y-91440000D01*
X157556476Y-92352871D01*
X157814723Y-92264377D01*
X157949597Y-91985024D01*
X158027381Y-91684725D01*
X158045084Y-91375023D01*
X158002027Y-91067816D01*
X157899865Y-90774914D01*
X157814723Y-90615623D01*
X157556476Y-90527129D01*
X156643605Y-91440000D01*
X156284395Y-91440000D01*
X155371524Y-90527129D01*
X155113277Y-90615623D01*
X155007309Y-90835106D01*
X154884685Y-90651586D01*
X154712414Y-90479315D01*
X154515175Y-90347524D01*
X155551129Y-90347524D01*
X156464000Y-91260395D01*
X157376871Y-90347524D01*
X157288377Y-90089277D01*
X157009024Y-89954403D01*
X156708725Y-89876619D01*
X156399023Y-89858916D01*
X156091816Y-89901973D01*
X155798914Y-90004135D01*
X155639623Y-90089277D01*
X155551129Y-90347524D01*
X154515175Y-90347524D01*
X154509844Y-90343962D01*
X154284761Y-90250730D01*
X154045814Y-90203200D01*
X153802186Y-90203200D01*
X153563239Y-90250730D01*
X153338156Y-90343962D01*
X153135586Y-90479315D01*
X152963315Y-90651586D01*
X152827962Y-90854156D01*
X152734730Y-91079239D01*
X152687200Y-91318186D01*
X132300800Y-91318186D01*
X132253270Y-91079239D01*
X132160038Y-90854156D01*
X132024685Y-90651586D01*
X131852414Y-90479315D01*
X131649844Y-90343962D01*
X131424761Y-90250730D01*
X131185814Y-90203200D01*
X130942186Y-90203200D01*
X130703239Y-90250730D01*
X130478156Y-90343962D01*
X130275586Y-90479315D01*
X130103315Y-90651586D01*
X129980802Y-90834940D01*
X129959865Y-90774914D01*
X129874723Y-90615623D01*
X129616476Y-90527129D01*
X128703605Y-91440000D01*
X128344395Y-91440000D01*
X128330253Y-91425858D01*
X128509858Y-91246253D01*
X128524000Y-91260395D01*
X129436871Y-90347524D01*
X129348377Y-90089277D01*
X129069024Y-89954403D01*
X128768725Y-89876619D01*
X128459023Y-89858916D01*
X128275205Y-89884679D01*
X129972934Y-88186951D01*
X129987169Y-88175269D01*
X130033805Y-88118442D01*
X130068459Y-88053608D01*
X130089799Y-87983260D01*
X130095200Y-87928426D01*
X130095200Y-87928425D01*
X130097005Y-87910101D01*
X130095200Y-87891775D01*
X130095200Y-80280800D01*
X130241624Y-80220149D01*
X130421297Y-80100096D01*
X130574096Y-79947297D01*
X130694149Y-79767624D01*
X130776843Y-79567983D01*
X130819000Y-79356045D01*
X130819000Y-79139955D01*
X131395000Y-79139955D01*
X131395000Y-79356045D01*
X131437157Y-79567983D01*
X131519851Y-79767624D01*
X131639904Y-79947297D01*
X131792703Y-80100096D01*
X131972376Y-80220149D01*
X132172017Y-80302843D01*
X132383955Y-80345000D01*
X132600045Y-80345000D01*
X132811983Y-80302843D01*
X133011624Y-80220149D01*
X133191297Y-80100096D01*
X133344096Y-79947297D01*
X133464149Y-79767624D01*
X133546843Y-79567983D01*
X133589000Y-79356045D01*
X133589000Y-79139955D01*
X133546843Y-78928017D01*
X133464149Y-78728376D01*
X133344096Y-78548703D01*
X133243393Y-78448000D01*
X151682563Y-78448000D01*
X151682563Y-80048000D01*
X151688297Y-80106222D01*
X151705280Y-80162207D01*
X151732859Y-80213803D01*
X151769973Y-80259027D01*
X151815197Y-80296141D01*
X151866793Y-80323720D01*
X151922778Y-80340703D01*
X151981000Y-80346437D01*
X153581000Y-80346437D01*
X153639222Y-80340703D01*
X153695207Y-80323720D01*
X153746803Y-80296141D01*
X153792027Y-80259027D01*
X153829141Y-80213803D01*
X153856720Y-80162207D01*
X153873703Y-80106222D01*
X153879437Y-80048000D01*
X153879437Y-78448000D01*
X153873703Y-78389778D01*
X153856720Y-78333793D01*
X153829141Y-78282197D01*
X153792027Y-78236973D01*
X153746803Y-78199859D01*
X153695207Y-78172280D01*
X153639222Y-78155297D01*
X153581000Y-78149563D01*
X151981000Y-78149563D01*
X151922778Y-78155297D01*
X151866793Y-78172280D01*
X151815197Y-78199859D01*
X151769973Y-78236973D01*
X151732859Y-78282197D01*
X151705280Y-78333793D01*
X151688297Y-78389778D01*
X151682563Y-78448000D01*
X133243393Y-78448000D01*
X133191297Y-78395904D01*
X133011624Y-78275851D01*
X132811983Y-78193157D01*
X132600045Y-78151000D01*
X132383955Y-78151000D01*
X132172017Y-78193157D01*
X131972376Y-78275851D01*
X131792703Y-78395904D01*
X131639904Y-78548703D01*
X131519851Y-78728376D01*
X131437157Y-78928017D01*
X131395000Y-79139955D01*
X130819000Y-79139955D01*
X130776843Y-78928017D01*
X130694149Y-78728376D01*
X130574096Y-78548703D01*
X130421297Y-78395904D01*
X130241624Y-78275851D01*
X130041983Y-78193157D01*
X129881540Y-78161243D01*
X130640592Y-77402192D01*
X130787017Y-77462843D01*
X130998955Y-77505000D01*
X131215045Y-77505000D01*
X131426983Y-77462843D01*
X131626624Y-77380149D01*
X131806297Y-77260096D01*
X131959096Y-77107297D01*
X132079149Y-76927624D01*
X132161843Y-76727983D01*
X132204000Y-76516045D01*
X132204000Y-76299955D01*
X132161843Y-76088017D01*
X132079149Y-75888376D01*
X131959096Y-75708703D01*
X131806297Y-75555904D01*
X131626624Y-75435851D01*
X131426983Y-75353157D01*
X131215045Y-75311000D01*
X130998955Y-75311000D01*
X130787017Y-75353157D01*
X130587376Y-75435851D01*
X130407703Y-75555904D01*
X130254904Y-75708703D01*
X130134851Y-75888376D01*
X130052157Y-76088017D01*
X130010000Y-76299955D01*
X130010000Y-76516045D01*
X130052157Y-76727983D01*
X130112808Y-76874408D01*
X128015530Y-78971687D01*
X128006843Y-78928017D01*
X127924149Y-78728376D01*
X127804096Y-78548703D01*
X127651297Y-78395904D01*
X127471624Y-78275851D01*
X127271983Y-78193157D01*
X127060045Y-78151000D01*
X126843955Y-78151000D01*
X126632017Y-78193157D01*
X126432376Y-78275851D01*
X126252703Y-78395904D01*
X126099904Y-78548703D01*
X125979851Y-78728376D01*
X125897157Y-78928017D01*
X125855000Y-79139955D01*
X125855000Y-79356045D01*
X125897157Y-79567983D01*
X125957808Y-79714407D01*
X118271974Y-87400243D01*
X118257732Y-87411931D01*
X118218250Y-87460041D01*
X118211095Y-87468759D01*
X118176442Y-87533592D01*
X118155101Y-87603941D01*
X118151594Y-87639547D01*
X118106409Y-87602465D01*
X117962983Y-87525802D01*
X117973869Y-87516869D01*
X117985561Y-87502622D01*
X124432929Y-81055255D01*
X124447169Y-81043569D01*
X124493805Y-80986742D01*
X124528459Y-80921908D01*
X124549799Y-80851560D01*
X124555200Y-80796726D01*
X124555200Y-80796725D01*
X124557005Y-80778400D01*
X124555200Y-80760075D01*
X124555200Y-80280800D01*
X124701624Y-80220149D01*
X124881297Y-80100096D01*
X125034096Y-79947297D01*
X125154149Y-79767624D01*
X125236843Y-79567983D01*
X125279000Y-79356045D01*
X125279000Y-79139955D01*
X125236843Y-78928017D01*
X125154149Y-78728376D01*
X125034096Y-78548703D01*
X124881297Y-78395904D01*
X124701624Y-78275851D01*
X124501983Y-78193157D01*
X124290045Y-78151000D01*
X124073955Y-78151000D01*
X123862017Y-78193157D01*
X123662376Y-78275851D01*
X123482703Y-78395904D01*
X123329904Y-78548703D01*
X123209851Y-78728376D01*
X123127157Y-78928017D01*
X123085000Y-79139955D01*
X123085000Y-79356045D01*
X123127157Y-79567983D01*
X123209851Y-79767624D01*
X123329904Y-79947297D01*
X123482703Y-80100096D01*
X123662376Y-80220149D01*
X123808800Y-80280800D01*
X123808800Y-80623816D01*
X118896100Y-85536517D01*
X118896100Y-83320583D01*
X121662933Y-80553752D01*
X121677169Y-80542069D01*
X121723805Y-80485242D01*
X121758459Y-80420408D01*
X121779799Y-80350060D01*
X121780156Y-80346437D01*
X122212000Y-80346437D01*
X122270222Y-80340703D01*
X122326207Y-80323720D01*
X122377803Y-80296141D01*
X122423027Y-80259027D01*
X122460141Y-80213803D01*
X122487720Y-80162207D01*
X122504703Y-80106222D01*
X122510437Y-80048000D01*
X122510437Y-78448000D01*
X122504703Y-78389778D01*
X122487720Y-78333793D01*
X122460141Y-78282197D01*
X122423027Y-78236973D01*
X122377803Y-78199859D01*
X122326207Y-78172280D01*
X122270222Y-78155297D01*
X122212000Y-78149563D01*
X120612000Y-78149563D01*
X120553778Y-78155297D01*
X120497793Y-78172280D01*
X120446197Y-78199859D01*
X120400973Y-78236973D01*
X120363859Y-78282197D01*
X120336280Y-78333793D01*
X120319297Y-78389778D01*
X120313563Y-78448000D01*
X120313563Y-80048000D01*
X120319297Y-80106222D01*
X120336280Y-80162207D01*
X120363859Y-80213803D01*
X120400973Y-80259027D01*
X120446197Y-80296141D01*
X120497793Y-80323720D01*
X120553778Y-80340703D01*
X120612000Y-80346437D01*
X120814678Y-80346437D01*
X118585222Y-82575895D01*
X118569720Y-82524793D01*
X118542141Y-82473197D01*
X118505027Y-82427973D01*
X118459803Y-82390859D01*
X118408207Y-82363280D01*
X118352222Y-82346297D01*
X118294000Y-82340563D01*
X115894000Y-82340563D01*
X115835778Y-82346297D01*
X115779793Y-82363280D01*
X115728197Y-82390859D01*
X115682973Y-82427973D01*
X115645859Y-82473197D01*
X115618280Y-82524793D01*
X115601297Y-82580778D01*
X115595563Y-82639000D01*
X115595563Y-84239000D01*
X115601297Y-84297222D01*
X115618280Y-84353207D01*
X115645859Y-84404803D01*
X115682973Y-84450027D01*
X115728197Y-84487141D01*
X115779793Y-84514720D01*
X115835778Y-84531703D01*
X115894000Y-84537437D01*
X118149701Y-84537437D01*
X118149700Y-85097993D01*
X118106409Y-85062465D01*
X117915835Y-84960601D01*
X117709049Y-84897874D01*
X117547882Y-84882000D01*
X116640118Y-84882000D01*
X116478951Y-84897874D01*
X116272165Y-84960601D01*
X116081591Y-85062465D01*
X115914551Y-85199551D01*
X115777465Y-85366591D01*
X115675601Y-85557165D01*
X115612874Y-85763951D01*
X115591693Y-85979000D01*
X115612874Y-86194049D01*
X115675601Y-86400835D01*
X115777465Y-86591409D01*
X115914551Y-86758449D01*
X116081591Y-86895535D01*
X116225428Y-86972418D01*
X116208231Y-86986531D01*
X116196543Y-87000773D01*
X115414173Y-87783144D01*
X115399932Y-87794831D01*
X115378778Y-87820608D01*
X115353295Y-87851659D01*
X115318642Y-87916492D01*
X115297301Y-87986841D01*
X115290095Y-88060000D01*
X115155000Y-88060000D01*
X115155000Y-77105972D01*
X115191142Y-76737371D01*
X115293261Y-76399135D01*
X115345995Y-76299955D01*
X121700000Y-76299955D01*
X121700000Y-76516045D01*
X121742157Y-76727983D01*
X121824851Y-76927624D01*
X121944904Y-77107297D01*
X122097703Y-77260096D01*
X122277376Y-77380149D01*
X122477017Y-77462843D01*
X122688955Y-77505000D01*
X122905045Y-77505000D01*
X123116983Y-77462843D01*
X123316624Y-77380149D01*
X123496297Y-77260096D01*
X123649096Y-77107297D01*
X123769149Y-76927624D01*
X123851843Y-76727983D01*
X123894000Y-76516045D01*
X123894000Y-76299955D01*
X124470000Y-76299955D01*
X124470000Y-76516045D01*
X124512157Y-76727983D01*
X124594851Y-76927624D01*
X124714904Y-77107297D01*
X124867703Y-77260096D01*
X125047376Y-77380149D01*
X125247017Y-77462843D01*
X125458955Y-77505000D01*
X125675045Y-77505000D01*
X125886983Y-77462843D01*
X126037004Y-77400702D01*
X127523903Y-77400702D01*
X127595486Y-77644671D01*
X127850996Y-77765571D01*
X128125184Y-77834300D01*
X128407512Y-77848217D01*
X128687130Y-77806787D01*
X128953292Y-77711603D01*
X129078514Y-77644671D01*
X129150097Y-77400702D01*
X128337000Y-76587605D01*
X127523903Y-77400702D01*
X126037004Y-77400702D01*
X126086624Y-77380149D01*
X126266297Y-77260096D01*
X126419096Y-77107297D01*
X126539149Y-76927624D01*
X126621843Y-76727983D01*
X126664000Y-76516045D01*
X126664000Y-76478512D01*
X126896783Y-76478512D01*
X126938213Y-76758130D01*
X127033397Y-77024292D01*
X127100329Y-77149514D01*
X127344298Y-77221097D01*
X128157395Y-76408000D01*
X128516605Y-76408000D01*
X129329702Y-77221097D01*
X129573671Y-77149514D01*
X129694571Y-76894004D01*
X129763300Y-76619816D01*
X129777217Y-76337488D01*
X129735787Y-76057870D01*
X129640603Y-75791708D01*
X129573671Y-75666486D01*
X129329702Y-75594903D01*
X128516605Y-76408000D01*
X128157395Y-76408000D01*
X127344298Y-75594903D01*
X127100329Y-75666486D01*
X126979429Y-75921996D01*
X126910700Y-76196184D01*
X126896783Y-76478512D01*
X126664000Y-76478512D01*
X126664000Y-76299955D01*
X126621843Y-76088017D01*
X126539149Y-75888376D01*
X126419096Y-75708703D01*
X126266297Y-75555904D01*
X126086624Y-75435851D01*
X125886983Y-75353157D01*
X125675045Y-75311000D01*
X125458955Y-75311000D01*
X125247017Y-75353157D01*
X125047376Y-75435851D01*
X124867703Y-75555904D01*
X124714904Y-75708703D01*
X124594851Y-75888376D01*
X124512157Y-76088017D01*
X124470000Y-76299955D01*
X123894000Y-76299955D01*
X123851843Y-76088017D01*
X123769149Y-75888376D01*
X123649096Y-75708703D01*
X123496297Y-75555904D01*
X123316624Y-75435851D01*
X123116983Y-75353157D01*
X122905045Y-75311000D01*
X122688955Y-75311000D01*
X122477017Y-75353157D01*
X122277376Y-75435851D01*
X122097703Y-75555904D01*
X121944904Y-75708703D01*
X121824851Y-75888376D01*
X121742157Y-76088017D01*
X121700000Y-76299955D01*
X115345995Y-76299955D01*
X115459132Y-76087177D01*
X115682440Y-75813375D01*
X115954672Y-75588164D01*
X116265467Y-75420118D01*
X116602983Y-75315639D01*
X116970615Y-75277000D01*
X127564481Y-75277000D01*
X127523903Y-75415298D01*
X127523903Y-75415298D01*
G37*
X127523903Y-75415298D02*
X128337000Y-76228395D01*
X129150097Y-75415298D01*
X129109519Y-75277000D01*
X158933481Y-75277000D01*
X158892903Y-75415298D01*
X159706000Y-76228395D01*
X160519097Y-75415298D01*
X160478519Y-75277000D01*
X168258028Y-75277000D01*
X168626629Y-75313142D01*
X168964865Y-75415261D01*
X169276823Y-75581132D01*
X169550625Y-75804440D01*
X169775836Y-76076672D01*
X169943882Y-76387467D01*
X170048361Y-76724983D01*
X170087000Y-77092615D01*
X170087000Y-83421316D01*
X169853761Y-83188078D01*
X169842069Y-83173831D01*
X169785242Y-83127195D01*
X169720408Y-83092541D01*
X169650060Y-83071201D01*
X169595226Y-83065800D01*
X169595225Y-83065800D01*
X169580719Y-83064371D01*
X169566399Y-83017165D01*
X169464535Y-82826591D01*
X169327449Y-82659551D01*
X169160409Y-82522465D01*
X168969835Y-82420601D01*
X168763049Y-82357874D01*
X168601882Y-82342000D01*
X167694118Y-82342000D01*
X167532951Y-82357874D01*
X167326165Y-82420601D01*
X167135591Y-82522465D01*
X166968551Y-82659551D01*
X166831465Y-82826591D01*
X166729601Y-83017165D01*
X166666874Y-83223951D01*
X166645693Y-83439000D01*
X166666874Y-83654049D01*
X166729601Y-83860835D01*
X166831465Y-84051409D01*
X166968551Y-84218449D01*
X167111544Y-84335800D01*
X166706584Y-84335800D01*
X162085192Y-79714408D01*
X162145843Y-79567983D01*
X162188000Y-79356045D01*
X162188000Y-79139955D01*
X162764000Y-79139955D01*
X162764000Y-79356045D01*
X162806157Y-79567983D01*
X162888851Y-79767624D01*
X163008904Y-79947297D01*
X163161703Y-80100096D01*
X163341376Y-80220149D01*
X163541017Y-80302843D01*
X163752955Y-80345000D01*
X163969045Y-80345000D01*
X164180983Y-80302843D01*
X164380624Y-80220149D01*
X164560297Y-80100096D01*
X164713096Y-79947297D01*
X164833149Y-79767624D01*
X164915843Y-79567983D01*
X164958000Y-79356045D01*
X164958000Y-79139955D01*
X164915843Y-78928017D01*
X164833149Y-78728376D01*
X164713096Y-78548703D01*
X164560297Y-78395904D01*
X164380624Y-78275851D01*
X164180983Y-78193157D01*
X163969045Y-78151000D01*
X163752955Y-78151000D01*
X163541017Y-78193157D01*
X163341376Y-78275851D01*
X163161703Y-78395904D01*
X163008904Y-78548703D01*
X162888851Y-78728376D01*
X162806157Y-78928017D01*
X162764000Y-79139955D01*
X162188000Y-79139955D01*
X162145843Y-78928017D01*
X162063149Y-78728376D01*
X161943096Y-78548703D01*
X161790297Y-78395904D01*
X161610624Y-78275851D01*
X161410983Y-78193157D01*
X161199045Y-78151000D01*
X160982955Y-78151000D01*
X160771017Y-78193157D01*
X160571376Y-78275851D01*
X160391703Y-78395904D01*
X160238904Y-78548703D01*
X160118851Y-78728376D01*
X160036157Y-78928017D01*
X159994000Y-79139955D01*
X159994000Y-79356045D01*
X160030444Y-79539261D01*
X159832000Y-79340817D01*
X159832000Y-78875525D01*
X159833805Y-78857199D01*
X159826599Y-78784040D01*
X159809713Y-78728376D01*
X159805259Y-78713692D01*
X159770605Y-78648858D01*
X159723969Y-78592031D01*
X159709727Y-78580343D01*
X158530086Y-77400702D01*
X158892903Y-77400702D01*
X158964486Y-77644671D01*
X159219996Y-77765571D01*
X159494184Y-77834300D01*
X159776512Y-77848217D01*
X160056130Y-77806787D01*
X160322292Y-77711603D01*
X160447514Y-77644671D01*
X160519097Y-77400702D01*
X159706000Y-76587605D01*
X158892903Y-77400702D01*
X158530086Y-77400702D01*
X158468061Y-77338678D01*
X158456369Y-77324431D01*
X158399542Y-77277795D01*
X158334708Y-77243141D01*
X158264360Y-77221801D01*
X158209526Y-77216400D01*
X158209525Y-77216400D01*
X158191200Y-77214595D01*
X158172875Y-77216400D01*
X157678993Y-77216400D01*
X157788096Y-77107297D01*
X157908149Y-76927624D01*
X157990843Y-76727983D01*
X158033000Y-76516045D01*
X158033000Y-76478512D01*
X158265783Y-76478512D01*
X158307213Y-76758130D01*
X158402397Y-77024292D01*
X158469329Y-77149514D01*
X158713298Y-77221097D01*
X159526395Y-76408000D01*
X159885605Y-76408000D01*
X160698702Y-77221097D01*
X160942671Y-77149514D01*
X161063571Y-76894004D01*
X161132300Y-76619816D01*
X161146217Y-76337488D01*
X161140656Y-76299955D01*
X161379000Y-76299955D01*
X161379000Y-76516045D01*
X161421157Y-76727983D01*
X161503851Y-76927624D01*
X161623904Y-77107297D01*
X161776703Y-77260096D01*
X161956376Y-77380149D01*
X162156017Y-77462843D01*
X162367955Y-77505000D01*
X162584045Y-77505000D01*
X162795983Y-77462843D01*
X162995624Y-77380149D01*
X163175297Y-77260096D01*
X163328096Y-77107297D01*
X163448149Y-76927624D01*
X163530843Y-76727983D01*
X163573000Y-76516045D01*
X163573000Y-76299955D01*
X163530843Y-76088017D01*
X163448149Y-75888376D01*
X163328096Y-75708703D01*
X163175297Y-75555904D01*
X162995624Y-75435851D01*
X162795983Y-75353157D01*
X162584045Y-75311000D01*
X162367955Y-75311000D01*
X162156017Y-75353157D01*
X161956376Y-75435851D01*
X161776703Y-75555904D01*
X161623904Y-75708703D01*
X161503851Y-75888376D01*
X161421157Y-76088017D01*
X161379000Y-76299955D01*
X161140656Y-76299955D01*
X161104787Y-76057870D01*
X161009603Y-75791708D01*
X160942671Y-75666486D01*
X160698702Y-75594903D01*
X159885605Y-76408000D01*
X159526395Y-76408000D01*
X158713298Y-75594903D01*
X158469329Y-75666486D01*
X158348429Y-75921996D01*
X158279700Y-76196184D01*
X158265783Y-76478512D01*
X158033000Y-76478512D01*
X158033000Y-76299955D01*
X157990843Y-76088017D01*
X157908149Y-75888376D01*
X157788096Y-75708703D01*
X157635297Y-75555904D01*
X157455624Y-75435851D01*
X157255983Y-75353157D01*
X157044045Y-75311000D01*
X156827955Y-75311000D01*
X156616017Y-75353157D01*
X156416376Y-75435851D01*
X156236703Y-75555904D01*
X156083904Y-75708703D01*
X155963851Y-75888376D01*
X155881157Y-76088017D01*
X155839000Y-76299955D01*
X155839000Y-76516045D01*
X155881157Y-76727983D01*
X155963851Y-76927624D01*
X156083904Y-77107297D01*
X156193007Y-77216400D01*
X155502184Y-77216400D01*
X155160192Y-76874408D01*
X155220843Y-76727983D01*
X155263000Y-76516045D01*
X155263000Y-76299955D01*
X155220843Y-76088017D01*
X155138149Y-75888376D01*
X155018096Y-75708703D01*
X154865297Y-75555904D01*
X154685624Y-75435851D01*
X154485983Y-75353157D01*
X154274045Y-75311000D01*
X154057955Y-75311000D01*
X153846017Y-75353157D01*
X153646376Y-75435851D01*
X153466703Y-75555904D01*
X153313904Y-75708703D01*
X153193851Y-75888376D01*
X153111157Y-76088017D01*
X153069000Y-76299955D01*
X153069000Y-76516045D01*
X153111157Y-76727983D01*
X153193851Y-76927624D01*
X153313904Y-77107297D01*
X153466703Y-77260096D01*
X153646376Y-77380149D01*
X153846017Y-77462843D01*
X154057955Y-77505000D01*
X154274045Y-77505000D01*
X154485983Y-77462843D01*
X154632408Y-77402192D01*
X155070743Y-77840527D01*
X155082431Y-77854769D01*
X155139258Y-77901405D01*
X155204092Y-77936059D01*
X155274440Y-77957399D01*
X155347600Y-77964605D01*
X155365925Y-77962800D01*
X158036617Y-77962800D01*
X158224817Y-78151000D01*
X158212955Y-78151000D01*
X158001017Y-78193157D01*
X157801376Y-78275851D01*
X157621703Y-78395904D01*
X157468904Y-78548703D01*
X157348851Y-78728376D01*
X157266157Y-78928017D01*
X157224000Y-79139955D01*
X157224000Y-79356045D01*
X157266157Y-79567983D01*
X157348851Y-79767624D01*
X157468904Y-79947297D01*
X157621703Y-80100096D01*
X157801376Y-80220149D01*
X158001017Y-80302843D01*
X158212955Y-80345000D01*
X158429045Y-80345000D01*
X158640983Y-80302843D01*
X158840624Y-80220149D01*
X158999146Y-80114229D01*
X161225479Y-82340563D01*
X159328000Y-82340563D01*
X159269778Y-82346297D01*
X159213793Y-82363280D01*
X159200936Y-82370152D01*
X156545192Y-79714408D01*
X156605843Y-79567983D01*
X156648000Y-79356045D01*
X156648000Y-79139955D01*
X156605843Y-78928017D01*
X156523149Y-78728376D01*
X156403096Y-78548703D01*
X156250297Y-78395904D01*
X156070624Y-78275851D01*
X155870983Y-78193157D01*
X155659045Y-78151000D01*
X155442955Y-78151000D01*
X155231017Y-78193157D01*
X155031376Y-78275851D01*
X154851703Y-78395904D01*
X154698904Y-78548703D01*
X154578851Y-78728376D01*
X154496157Y-78928017D01*
X154454000Y-79139955D01*
X154454000Y-79356045D01*
X154496157Y-79567983D01*
X154578851Y-79767624D01*
X154698904Y-79947297D01*
X154851703Y-80100096D01*
X155031376Y-80220149D01*
X155231017Y-80302843D01*
X155442955Y-80345000D01*
X155659045Y-80345000D01*
X155870983Y-80302843D01*
X156017408Y-80242192D01*
X158725901Y-82950685D01*
X158725900Y-91040674D01*
X158724095Y-91059000D01*
X158731301Y-91132160D01*
X158752641Y-91202508D01*
X158787295Y-91267342D01*
X158816509Y-91302940D01*
X158833931Y-91324169D01*
X158890758Y-91370805D01*
X158955592Y-91405459D01*
X159025940Y-91426799D01*
X159095281Y-91433629D01*
X159109601Y-91480835D01*
X159211465Y-91671409D01*
X159348551Y-91838449D01*
X159515591Y-91975535D01*
X159706165Y-92077399D01*
X159912951Y-92140126D01*
X160074118Y-92156000D01*
X160981882Y-92156000D01*
X161143049Y-92140126D01*
X161349835Y-92077399D01*
X161540409Y-91975535D01*
X161583700Y-91940007D01*
X161583700Y-92717993D01*
X161540409Y-92682465D01*
X161349835Y-92580601D01*
X161143049Y-92517874D01*
X160981882Y-92502000D01*
X160074118Y-92502000D01*
X159912951Y-92517874D01*
X159706165Y-92580601D01*
X159515591Y-92682465D01*
X159348551Y-92819551D01*
X159211465Y-92986591D01*
X159109601Y-93177165D01*
X159095281Y-93224371D01*
X159080774Y-93225800D01*
X159025940Y-93231201D01*
X158955592Y-93252541D01*
X158890758Y-93287195D01*
X158833931Y-93333831D01*
X158787295Y-93390658D01*
X158752641Y-93455492D01*
X158731301Y-93525840D01*
X158724095Y-93599000D01*
X158725900Y-93617325D01*
X158725901Y-96270315D01*
X157037406Y-97958810D01*
X156824761Y-97870730D01*
X156585814Y-97823200D01*
X156342186Y-97823200D01*
X156103239Y-97870730D01*
X155878156Y-97963962D01*
X155675586Y-98099315D01*
X155503315Y-98271586D01*
X155367962Y-98474156D01*
X155274730Y-98699239D01*
X155227200Y-98938186D01*
X155227200Y-99181814D01*
X155274730Y-99420761D01*
X155367962Y-99645844D01*
X155503315Y-99848414D01*
X155675586Y-100020685D01*
X155878156Y-100156038D01*
X156103239Y-100249270D01*
X156342186Y-100296800D01*
X156585814Y-100296800D01*
X156824761Y-100249270D01*
X157049844Y-100156038D01*
X157252414Y-100020685D01*
X157424685Y-99848414D01*
X157560038Y-99645844D01*
X157653270Y-99420761D01*
X157700800Y-99181814D01*
X157700800Y-99028039D01*
X158736096Y-99028039D01*
X158753633Y-99110818D01*
X158864285Y-99370646D01*
X159023500Y-99603895D01*
X159225161Y-99801601D01*
X159461517Y-99956166D01*
X159723486Y-100061650D01*
X160001000Y-100114000D01*
X160401000Y-100114000D01*
X160401000Y-98806000D01*
X160655000Y-98806000D01*
X160655000Y-100114000D01*
X161055000Y-100114000D01*
X161332514Y-100061650D01*
X161594483Y-99956166D01*
X161830839Y-99801601D01*
X162032500Y-99603895D01*
X162191715Y-99370646D01*
X162302367Y-99110818D01*
X162319904Y-99028039D01*
X162197915Y-98806000D01*
X160655000Y-98806000D01*
X160401000Y-98806000D01*
X158858085Y-98806000D01*
X158736096Y-99028039D01*
X157700800Y-99028039D01*
X157700800Y-98938186D01*
X157653270Y-98699239D01*
X157565190Y-98486594D01*
X157721823Y-98329961D01*
X158736096Y-98329961D01*
X158858085Y-98552000D01*
X160401000Y-98552000D01*
X160401000Y-98532000D01*
X160655000Y-98532000D01*
X160655000Y-98552000D01*
X162197915Y-98552000D01*
X162319904Y-98329961D01*
X162302367Y-98247182D01*
X162191715Y-97987354D01*
X162032500Y-97754105D01*
X161830839Y-97556399D01*
X161594483Y-97401834D01*
X161332514Y-97296350D01*
X161055000Y-97244000D01*
X160001000Y-97244000D01*
X159723486Y-97296350D01*
X159461517Y-97401834D01*
X159225161Y-97556399D01*
X159023500Y-97754105D01*
X158864285Y-97987354D01*
X158753633Y-98247182D01*
X158736096Y-98329961D01*
X157721823Y-98329961D01*
X159251542Y-96800242D01*
X159348551Y-96918449D01*
X159515591Y-97055535D01*
X159706165Y-97157399D01*
X159912951Y-97220126D01*
X160074118Y-97236000D01*
X160981882Y-97236000D01*
X161143049Y-97220126D01*
X161349835Y-97157399D01*
X161540409Y-97055535D01*
X161707449Y-96918449D01*
X161844535Y-96751409D01*
X161946399Y-96560835D01*
X161960719Y-96513629D01*
X161975225Y-96512200D01*
X161975226Y-96512200D01*
X162030060Y-96506799D01*
X162100408Y-96485459D01*
X162165242Y-96450805D01*
X162222069Y-96404169D01*
X162268705Y-96347342D01*
X162303359Y-96282508D01*
X162324699Y-96212160D01*
X162331905Y-96139000D01*
X162330100Y-96120674D01*
X162330100Y-82894483D01*
X166345901Y-86910285D01*
X166345900Y-93580674D01*
X166344095Y-93599000D01*
X166351301Y-93672160D01*
X166372641Y-93742508D01*
X166407295Y-93807342D01*
X166449021Y-93858186D01*
X166453931Y-93864169D01*
X166510758Y-93910805D01*
X166575592Y-93945459D01*
X166645940Y-93966799D01*
X166715281Y-93973629D01*
X166729601Y-94020835D01*
X166831465Y-94211409D01*
X166968551Y-94378449D01*
X167135591Y-94515535D01*
X167326165Y-94617399D01*
X167532951Y-94680126D01*
X167694118Y-94696000D01*
X168601882Y-94696000D01*
X168763049Y-94680126D01*
X168969835Y-94617399D01*
X169160409Y-94515535D01*
X169203700Y-94480007D01*
X169203700Y-95257993D01*
X169160409Y-95222465D01*
X168969835Y-95120601D01*
X168763049Y-95057874D01*
X168601882Y-95042000D01*
X167694118Y-95042000D01*
X167532951Y-95057874D01*
X167326165Y-95120601D01*
X167135591Y-95222465D01*
X166968551Y-95359551D01*
X166831465Y-95526591D01*
X166729601Y-95717165D01*
X166666874Y-95923951D01*
X166645693Y-96139000D01*
X166666874Y-96354049D01*
X166729601Y-96560835D01*
X166831465Y-96751409D01*
X166968551Y-96918449D01*
X167135591Y-97055535D01*
X167326165Y-97157399D01*
X167532951Y-97220126D01*
X167694118Y-97236000D01*
X168601882Y-97236000D01*
X168763049Y-97220126D01*
X168969835Y-97157399D01*
X169160409Y-97055535D01*
X169203700Y-97020007D01*
X169203700Y-97797993D01*
X169160409Y-97762465D01*
X168969835Y-97660601D01*
X168763049Y-97597874D01*
X168601882Y-97582000D01*
X167694118Y-97582000D01*
X167532951Y-97597874D01*
X167326165Y-97660601D01*
X167135591Y-97762465D01*
X166968551Y-97899551D01*
X166831465Y-98066591D01*
X166729601Y-98257165D01*
X166666874Y-98463951D01*
X166645693Y-98679000D01*
X166666874Y-98894049D01*
X166729601Y-99100835D01*
X166831465Y-99291409D01*
X166968551Y-99458449D01*
X167135591Y-99595535D01*
X167326165Y-99697399D01*
X167532951Y-99760126D01*
X167694118Y-99776000D01*
X168385916Y-99776000D01*
X164649117Y-103512800D01*
X161926437Y-103512800D01*
X161926437Y-102786000D01*
X161920703Y-102727778D01*
X161903720Y-102671793D01*
X161876141Y-102620197D01*
X161839027Y-102574973D01*
X161793803Y-102537859D01*
X161742207Y-102510280D01*
X161686222Y-102493297D01*
X161628000Y-102487563D01*
X159428000Y-102487563D01*
X159369778Y-102493297D01*
X159313793Y-102510280D01*
X159262197Y-102537859D01*
X159216973Y-102574973D01*
X159179859Y-102620197D01*
X159152280Y-102671793D01*
X159135297Y-102727778D01*
X159129563Y-102786000D01*
X159129563Y-104986000D01*
X159135297Y-105044222D01*
X159152280Y-105100207D01*
X159179859Y-105151803D01*
X159216973Y-105197027D01*
X159262197Y-105234141D01*
X159313793Y-105261720D01*
X159369778Y-105278703D01*
X159428000Y-105284437D01*
X159930678Y-105284437D01*
X157638317Y-107576800D01*
X157316299Y-107576800D01*
X157424685Y-107468414D01*
X157560038Y-107265844D01*
X157653270Y-107040761D01*
X157700800Y-106801814D01*
X157700800Y-106558186D01*
X157653270Y-106319239D01*
X157560038Y-106094156D01*
X157424685Y-105891586D01*
X157252414Y-105719315D01*
X157049844Y-105583962D01*
X156824761Y-105490730D01*
X156585814Y-105443200D01*
X156342186Y-105443200D01*
X156103239Y-105490730D01*
X155878156Y-105583962D01*
X155675586Y-105719315D01*
X155503315Y-105891586D01*
X155380802Y-106074940D01*
X155359865Y-106014914D01*
X155274723Y-105855623D01*
X155016476Y-105767129D01*
X154103605Y-106680000D01*
X154117748Y-106694143D01*
X153938143Y-106873748D01*
X153924000Y-106859605D01*
X153011129Y-107772476D01*
X153099623Y-108030723D01*
X153319106Y-108136691D01*
X153135586Y-108259315D01*
X152963315Y-108431586D01*
X152827962Y-108634156D01*
X152734730Y-108859239D01*
X152687200Y-109098186D01*
X152687200Y-109341814D01*
X152734730Y-109580761D01*
X152827962Y-109805844D01*
X152963315Y-110008414D01*
X153135586Y-110180685D01*
X153338156Y-110316038D01*
X153563239Y-110409270D01*
X153802186Y-110456800D01*
X154045814Y-110456800D01*
X154284761Y-110409270D01*
X154509844Y-110316038D01*
X154712414Y-110180685D01*
X154884685Y-110008414D01*
X155020038Y-109805844D01*
X155113270Y-109580761D01*
X155160800Y-109341814D01*
X155160800Y-109098186D01*
X155113270Y-108859239D01*
X155025190Y-108646594D01*
X155348584Y-108323200D01*
X155611701Y-108323200D01*
X155503315Y-108431586D01*
X155367962Y-108634156D01*
X155274730Y-108859239D01*
X155227200Y-109098186D01*
X155227200Y-109341814D01*
X155274730Y-109580761D01*
X155367962Y-109805844D01*
X155503315Y-110008414D01*
X155675586Y-110180685D01*
X155878156Y-110316038D01*
X156103239Y-110409270D01*
X156342186Y-110456800D01*
X156585814Y-110456800D01*
X156824761Y-110409270D01*
X157049844Y-110316038D01*
X157252414Y-110180685D01*
X157424685Y-110008414D01*
X157560038Y-109805844D01*
X157653270Y-109580761D01*
X157700800Y-109341814D01*
X157700800Y-109098186D01*
X157653270Y-108859239D01*
X157560038Y-108634156D01*
X157424685Y-108431586D01*
X157316299Y-108323200D01*
X157774575Y-108323200D01*
X157792900Y-108325005D01*
X157811225Y-108323200D01*
X157811226Y-108323200D01*
X157866060Y-108317799D01*
X157936408Y-108296459D01*
X158001242Y-108261805D01*
X158058069Y-108215169D01*
X158069761Y-108200922D01*
X160778933Y-105491752D01*
X160793169Y-105480069D01*
X160839805Y-105423242D01*
X160874459Y-105358408D01*
X160895799Y-105288060D01*
X160896156Y-105284437D01*
X161628000Y-105284437D01*
X161686222Y-105278703D01*
X161742207Y-105261720D01*
X161793803Y-105234141D01*
X161839027Y-105197027D01*
X161876141Y-105151803D01*
X161903720Y-105100207D01*
X161920703Y-105044222D01*
X161926437Y-104986000D01*
X161926437Y-104259200D01*
X164785375Y-104259200D01*
X164803700Y-104261005D01*
X164822025Y-104259200D01*
X164822026Y-104259200D01*
X164876860Y-104253799D01*
X164947208Y-104232459D01*
X165012042Y-104197805D01*
X165068869Y-104151169D01*
X165080561Y-104136922D01*
X170087001Y-99130483D01*
X170087001Y-114410018D01*
X170050858Y-114778629D01*
X169948739Y-115116864D01*
X169782867Y-115428825D01*
X169559560Y-115702625D01*
X169546714Y-115713253D01*
X169551072Y-115669000D01*
X169548000Y-114204750D01*
X169389250Y-114046000D01*
X167290000Y-114046000D01*
X167290000Y-114066000D01*
X167036000Y-114066000D01*
X167036000Y-114046000D01*
X164936750Y-114046000D01*
X164778000Y-114204750D01*
X164774928Y-115669000D01*
X164787188Y-115793482D01*
X164823498Y-115913180D01*
X164882463Y-116023494D01*
X164961815Y-116120185D01*
X165058506Y-116199537D01*
X165132335Y-116239000D01*
X119070298Y-116239000D01*
X119214906Y-116210236D01*
X119460044Y-116108696D01*
X119680663Y-115961284D01*
X119868284Y-115773663D01*
X120015696Y-115553044D01*
X120117236Y-115307906D01*
X120169000Y-115047668D01*
X120169000Y-114782332D01*
X120117236Y-114522094D01*
X120015696Y-114276956D01*
X119868284Y-114056337D01*
X119680663Y-113868716D01*
X119460044Y-113721304D01*
X119214906Y-113619764D01*
X118954668Y-113568000D01*
X118689332Y-113568000D01*
X118429094Y-113619764D01*
X118183956Y-113721304D01*
X117963337Y-113868716D01*
X117795603Y-114036450D01*
X117831855Y-113894474D01*
X117847804Y-113597457D01*
X117805501Y-113303037D01*
X117706572Y-113022526D01*
X117629868Y-112879025D01*
X117378240Y-112798365D01*
X116511605Y-113665000D01*
X117378240Y-114531635D01*
X117544947Y-114478197D01*
X117526764Y-114522094D01*
X117475000Y-114782332D01*
X117475000Y-115047668D01*
X117526764Y-115307906D01*
X117628304Y-115553044D01*
X117775716Y-115773663D01*
X117963337Y-115961284D01*
X118183956Y-116108696D01*
X118429094Y-116210236D01*
X118573702Y-116239000D01*
X116983972Y-116239000D01*
X116615371Y-116202858D01*
X116277136Y-116100739D01*
X115965175Y-115934867D01*
X115691375Y-115711560D01*
X115466164Y-115439328D01*
X115298118Y-115128533D01*
X115193639Y-114791017D01*
X115185255Y-114711240D01*
X115465365Y-114711240D01*
X115546025Y-114962868D01*
X115814329Y-115091267D01*
X116102526Y-115164855D01*
X116399543Y-115180804D01*
X116693963Y-115138501D01*
X116974474Y-115039572D01*
X117117975Y-114962868D01*
X117198635Y-114711240D01*
X116332000Y-113844605D01*
X115465365Y-114711240D01*
X115185255Y-114711240D01*
X115162215Y-114492032D01*
X115285760Y-114531635D01*
X116152395Y-113665000D01*
X115285760Y-112798365D01*
X115155000Y-112840280D01*
X115155000Y-112618760D01*
X115465365Y-112618760D01*
X116332000Y-113485395D01*
X117198635Y-112618760D01*
X117117975Y-112367132D01*
X116849671Y-112238733D01*
X116561474Y-112165145D01*
X116264457Y-112149196D01*
X115970037Y-112191499D01*
X115689526Y-112290428D01*
X115546025Y-112367132D01*
X115465365Y-112618760D01*
X115155000Y-112618760D01*
X115155000Y-109049568D01*
X115160000Y-109049568D01*
X115160000Y-109280432D01*
X115205039Y-109506860D01*
X115293387Y-109720150D01*
X115421648Y-109912107D01*
X115584893Y-110075352D01*
X115776850Y-110203613D01*
X115990140Y-110291961D01*
X116216568Y-110337000D01*
X116447432Y-110337000D01*
X116673860Y-110291961D01*
X116887150Y-110203613D01*
X117079107Y-110075352D01*
X117242352Y-109912107D01*
X117370613Y-109720150D01*
X117458961Y-109506860D01*
X117504000Y-109280432D01*
X117504000Y-109049568D01*
X117458961Y-108823140D01*
X117370613Y-108609850D01*
X117242352Y-108417893D01*
X117079107Y-108254648D01*
X116887150Y-108126387D01*
X116673860Y-108038039D01*
X116447432Y-107993000D01*
X116216568Y-107993000D01*
X115990140Y-108038039D01*
X115776850Y-108126387D01*
X115584893Y-108254648D01*
X115421648Y-108417893D01*
X115293387Y-108609850D01*
X115205039Y-108823140D01*
X115160000Y-109049568D01*
X115155000Y-109049568D01*
X115155000Y-107772332D01*
X117475000Y-107772332D01*
X117475000Y-108037668D01*
X117526764Y-108297906D01*
X117628304Y-108543044D01*
X117775716Y-108763663D01*
X117963337Y-108951284D01*
X118183956Y-109098696D01*
X118429094Y-109200236D01*
X118689332Y-109252000D01*
X118954668Y-109252000D01*
X119214906Y-109200236D01*
X119460044Y-109098696D01*
X119680663Y-108951284D01*
X119868284Y-108763663D01*
X120015696Y-108543044D01*
X120117236Y-108297906D01*
X120169000Y-108037668D01*
X120169000Y-107772332D01*
X120117236Y-107512094D01*
X120015696Y-107266956D01*
X119868284Y-107046337D01*
X119680663Y-106858716D01*
X119460044Y-106711304D01*
X119214906Y-106609764D01*
X118954668Y-106558000D01*
X118689332Y-106558000D01*
X118429094Y-106609764D01*
X118183956Y-106711304D01*
X117963337Y-106858716D01*
X117775716Y-107046337D01*
X117628304Y-107266956D01*
X117526764Y-107512094D01*
X117475000Y-107772332D01*
X115155000Y-107772332D01*
X115155000Y-102981000D01*
X116344928Y-102981000D01*
X116357188Y-103105482D01*
X116393498Y-103225180D01*
X116452463Y-103335494D01*
X116531815Y-103432185D01*
X116628506Y-103511537D01*
X116738820Y-103570502D01*
X116858518Y-103606812D01*
X116983000Y-103619072D01*
X117050984Y-103618780D01*
X116975554Y-103694210D01*
X116833613Y-103906640D01*
X116735843Y-104142679D01*
X116686000Y-104393257D01*
X116686000Y-104648743D01*
X116735843Y-104899321D01*
X116833613Y-105135360D01*
X116975554Y-105347790D01*
X117156210Y-105528446D01*
X117368640Y-105670387D01*
X117604679Y-105768157D01*
X117855257Y-105818000D01*
X118110743Y-105818000D01*
X118361321Y-105768157D01*
X118597360Y-105670387D01*
X118809790Y-105528446D01*
X118933776Y-105404460D01*
X121349243Y-107819927D01*
X121360931Y-107834169D01*
X121412927Y-107876840D01*
X121417758Y-107880805D01*
X121482592Y-107915459D01*
X121552940Y-107936799D01*
X121626100Y-107944005D01*
X121626871Y-107943929D01*
X121629435Y-107952381D01*
X121722014Y-108125584D01*
X121846603Y-108277397D01*
X121998416Y-108401986D01*
X122171619Y-108494565D01*
X122359554Y-108551574D01*
X122506022Y-108566000D01*
X122603978Y-108566000D01*
X122750446Y-108551574D01*
X122938381Y-108494565D01*
X123111584Y-108401986D01*
X123263397Y-108277397D01*
X123387986Y-108125584D01*
X123480565Y-107952381D01*
X123537574Y-107764446D01*
X123556824Y-107569000D01*
X123537574Y-107373554D01*
X123480565Y-107185619D01*
X123387986Y-107012416D01*
X123263397Y-106860603D01*
X123111584Y-106736014D01*
X122938381Y-106643435D01*
X122750446Y-106586426D01*
X122603978Y-106572000D01*
X122506022Y-106572000D01*
X122359554Y-106586426D01*
X122171619Y-106643435D01*
X121998416Y-106736014D01*
X121846603Y-106860603D01*
X121722014Y-107012416D01*
X121678573Y-107093689D01*
X119272306Y-104687423D01*
X119280000Y-104648743D01*
X119280000Y-104393257D01*
X119230157Y-104142679D01*
X119132387Y-103906640D01*
X118990446Y-103694210D01*
X118915016Y-103618780D01*
X118983000Y-103619072D01*
X119107482Y-103606812D01*
X119227180Y-103570502D01*
X119337494Y-103511537D01*
X119434185Y-103432185D01*
X119513537Y-103335494D01*
X119572502Y-103225180D01*
X119608812Y-103105482D01*
X119621072Y-102981000D01*
X122440928Y-102981000D01*
X122453188Y-103105482D01*
X122489498Y-103225180D01*
X122548463Y-103335494D01*
X122627815Y-103432185D01*
X122724506Y-103511537D01*
X122834820Y-103570502D01*
X122954518Y-103606812D01*
X123079000Y-103619072D01*
X123146984Y-103618780D01*
X123071554Y-103694210D01*
X122929613Y-103906640D01*
X122831843Y-104142679D01*
X122782000Y-104393257D01*
X122782000Y-104648743D01*
X122831843Y-104899321D01*
X122929613Y-105135360D01*
X123071554Y-105347790D01*
X123252210Y-105528446D01*
X123464640Y-105670387D01*
X123700679Y-105768157D01*
X123951257Y-105818000D01*
X124206743Y-105818000D01*
X124457321Y-105768157D01*
X124693360Y-105670387D01*
X124697702Y-105667486D01*
X124975800Y-105945584D01*
X124975800Y-106640347D01*
X124965619Y-106643435D01*
X124792416Y-106736014D01*
X124640603Y-106860603D01*
X124516014Y-107012416D01*
X124423435Y-107185619D01*
X124366426Y-107373554D01*
X124347176Y-107569000D01*
X124366426Y-107764446D01*
X124423435Y-107952381D01*
X124516014Y-108125584D01*
X124640603Y-108277397D01*
X124792416Y-108401986D01*
X124965619Y-108494565D01*
X125153554Y-108551574D01*
X125300022Y-108566000D01*
X125397978Y-108566000D01*
X125544446Y-108551574D01*
X125732381Y-108494565D01*
X125905584Y-108401986D01*
X126057397Y-108277397D01*
X126181986Y-108125584D01*
X126274565Y-107952381D01*
X126331574Y-107764446D01*
X126350824Y-107569000D01*
X126331574Y-107373554D01*
X126274565Y-107185619D01*
X126181986Y-107012416D01*
X126057397Y-106860603D01*
X125905584Y-106736014D01*
X125732381Y-106643435D01*
X125722200Y-106640347D01*
X125722200Y-105809325D01*
X125724005Y-105790999D01*
X125716799Y-105717840D01*
X125695459Y-105647492D01*
X125660805Y-105582658D01*
X125614169Y-105525831D01*
X125599928Y-105514144D01*
X125225486Y-105139702D01*
X125228387Y-105135360D01*
X125326157Y-104899321D01*
X125376000Y-104648743D01*
X125376000Y-104393257D01*
X125326157Y-104142679D01*
X125228387Y-103906640D01*
X125086446Y-103694210D01*
X125011016Y-103618780D01*
X125079000Y-103619072D01*
X125203482Y-103606812D01*
X125323180Y-103570502D01*
X125433494Y-103511537D01*
X125530185Y-103432185D01*
X125609537Y-103335494D01*
X125668502Y-103225180D01*
X125704812Y-103105482D01*
X125717072Y-102981000D01*
X125714000Y-102266750D01*
X125555250Y-102108000D01*
X124206000Y-102108000D01*
X124206000Y-102128000D01*
X123952000Y-102128000D01*
X123952000Y-102108000D01*
X122602750Y-102108000D01*
X122444000Y-102266750D01*
X122440928Y-102981000D01*
X119621072Y-102981000D01*
X119618000Y-102266750D01*
X119459250Y-102108000D01*
X118110000Y-102108000D01*
X118110000Y-102128000D01*
X117856000Y-102128000D01*
X117856000Y-102108000D01*
X116506750Y-102108000D01*
X116348000Y-102266750D01*
X116344928Y-102981000D01*
X115155000Y-102981000D01*
X115155000Y-100981000D01*
X116344928Y-100981000D01*
X116348000Y-101695250D01*
X116506750Y-101854000D01*
X117856000Y-101854000D01*
X117856000Y-100504750D01*
X118110000Y-100504750D01*
X118110000Y-101854000D01*
X119459250Y-101854000D01*
X119618000Y-101695250D01*
X119621072Y-100981000D01*
X119608812Y-100856518D01*
X119572502Y-100736820D01*
X119513537Y-100626506D01*
X119434185Y-100529815D01*
X119337494Y-100450463D01*
X119227180Y-100391498D01*
X119107482Y-100355188D01*
X118983000Y-100342928D01*
X118268750Y-100346000D01*
X118110000Y-100504750D01*
X117856000Y-100504750D01*
X117697250Y-100346000D01*
X116983000Y-100342928D01*
X116858518Y-100355188D01*
X116738820Y-100391498D01*
X116628506Y-100450463D01*
X116531815Y-100529815D01*
X116452463Y-100626506D01*
X116393498Y-100736820D01*
X116357188Y-100856518D01*
X116344928Y-100981000D01*
X115155000Y-100981000D01*
X115155000Y-99028039D01*
X115302096Y-99028039D01*
X115319633Y-99110818D01*
X115430285Y-99370646D01*
X115589500Y-99603895D01*
X115791161Y-99801601D01*
X116027517Y-99956166D01*
X116289486Y-100061650D01*
X116567000Y-100114000D01*
X116967000Y-100114000D01*
X116967000Y-98806000D01*
X117221000Y-98806000D01*
X117221000Y-100114000D01*
X117621000Y-100114000D01*
X117898514Y-100061650D01*
X118160483Y-99956166D01*
X118396839Y-99801601D01*
X118598500Y-99603895D01*
X118757715Y-99370646D01*
X118868367Y-99110818D01*
X118885904Y-99028039D01*
X118763915Y-98806000D01*
X117221000Y-98806000D01*
X116967000Y-98806000D01*
X115424085Y-98806000D01*
X115302096Y-99028039D01*
X115155000Y-99028039D01*
X115155000Y-98329961D01*
X115302096Y-98329961D01*
X115424085Y-98552000D01*
X116967000Y-98552000D01*
X116967000Y-98532000D01*
X117221000Y-98532000D01*
X117221000Y-98552000D01*
X118763915Y-98552000D01*
X118885904Y-98329961D01*
X118868367Y-98247182D01*
X118757715Y-97987354D01*
X118598500Y-97754105D01*
X118396839Y-97556399D01*
X118160483Y-97401834D01*
X117898514Y-97296350D01*
X117621000Y-97244000D01*
X116567000Y-97244000D01*
X116289486Y-97296350D01*
X116027517Y-97401834D01*
X115791161Y-97556399D01*
X115589500Y-97754105D01*
X115430285Y-97987354D01*
X115319633Y-98247182D01*
X115302096Y-98329961D01*
X115155000Y-98329961D01*
X115155000Y-88060000D01*
X115290095Y-88060000D01*
X115291901Y-88078335D01*
X115291900Y-91040674D01*
X115290095Y-91059000D01*
X115297301Y-91132160D01*
X115318641Y-91202508D01*
X115353295Y-91267342D01*
X115382509Y-91302940D01*
X115399931Y-91324169D01*
X115456758Y-91370805D01*
X115521592Y-91405459D01*
X115591940Y-91426799D01*
X115661281Y-91433629D01*
X115675601Y-91480835D01*
X115777465Y-91671409D01*
X115914551Y-91838449D01*
X116081591Y-91975535D01*
X116272165Y-92077399D01*
X116478951Y-92140126D01*
X116640118Y-92156000D01*
X117547882Y-92156000D01*
X117709049Y-92140126D01*
X117915835Y-92077399D01*
X118106409Y-91975535D01*
X118149700Y-91940007D01*
X118149700Y-92717993D01*
X118106409Y-92682465D01*
X117915835Y-92580601D01*
X117709049Y-92517874D01*
X117547882Y-92502000D01*
X116640118Y-92502000D01*
X116478951Y-92517874D01*
X116272165Y-92580601D01*
X116081591Y-92682465D01*
X115914551Y-92819551D01*
X115777465Y-92986591D01*
X115675601Y-93177165D01*
X115612874Y-93383951D01*
X115591693Y-93599000D01*
X115612874Y-93814049D01*
X115675601Y-94020835D01*
X115777465Y-94211409D01*
X115914551Y-94378449D01*
X116081591Y-94515535D01*
X116272165Y-94617399D01*
X116478951Y-94680126D01*
X116640118Y-94696000D01*
X117547882Y-94696000D01*
X117709049Y-94680126D01*
X117915835Y-94617399D01*
X118106409Y-94515535D01*
X118149700Y-94480007D01*
X118149700Y-95257993D01*
X118106409Y-95222465D01*
X117915835Y-95120601D01*
X117709049Y-95057874D01*
X117547882Y-95042000D01*
X116640118Y-95042000D01*
X116478951Y-95057874D01*
X116272165Y-95120601D01*
X116081591Y-95222465D01*
X115914551Y-95359551D01*
X115777465Y-95526591D01*
X115675601Y-95717165D01*
X115612874Y-95923951D01*
X115591693Y-96139000D01*
X115612874Y-96354049D01*
X115675601Y-96560835D01*
X115777465Y-96751409D01*
X115914551Y-96918449D01*
X116081591Y-97055535D01*
X116272165Y-97157399D01*
X116478951Y-97220126D01*
X116640118Y-97236000D01*
X117547882Y-97236000D01*
X117709049Y-97220126D01*
X117915835Y-97157399D01*
X118106409Y-97055535D01*
X118273449Y-96918449D01*
X118410535Y-96751409D01*
X118512399Y-96560835D01*
X118526719Y-96513629D01*
X118541225Y-96512200D01*
X118541226Y-96512200D01*
X118596060Y-96506799D01*
X118666408Y-96485459D01*
X118731242Y-96450805D01*
X118788069Y-96404169D01*
X118834705Y-96347342D01*
X118869359Y-96282508D01*
X118890699Y-96212160D01*
X118897905Y-96139000D01*
X118896100Y-96120674D01*
X118896100Y-87831683D01*
X120748783Y-85979000D01*
X123211693Y-85979000D01*
X123232874Y-86194049D01*
X123295601Y-86400835D01*
X123397465Y-86591409D01*
X123534551Y-86758449D01*
X123701591Y-86895535D01*
X123892165Y-86997399D01*
X124098951Y-87060126D01*
X124260118Y-87076000D01*
X125167882Y-87076000D01*
X125329049Y-87060126D01*
X125535835Y-86997399D01*
X125726409Y-86895535D01*
X125893449Y-86758449D01*
X126030535Y-86591409D01*
X126132399Y-86400835D01*
X126195126Y-86194049D01*
X126216307Y-85979000D01*
X126195126Y-85763951D01*
X126132399Y-85557165D01*
X126030535Y-85366591D01*
X125893449Y-85199551D01*
X125726409Y-85062465D01*
X125535835Y-84960601D01*
X125329049Y-84897874D01*
X125167882Y-84882000D01*
X124260118Y-84882000D01*
X124098951Y-84897874D01*
X123892165Y-84960601D01*
X123701591Y-85062465D01*
X123534551Y-85199551D01*
X123397465Y-85366591D01*
X123295601Y-85557165D01*
X123232874Y-85763951D01*
X123211693Y-85979000D01*
X120748783Y-85979000D01*
X123218605Y-83509179D01*
X123232874Y-83654049D01*
X123295601Y-83860835D01*
X123397465Y-84051409D01*
X123534551Y-84218449D01*
X123701591Y-84355535D01*
X123892165Y-84457399D01*
X124098951Y-84520126D01*
X124260118Y-84536000D01*
X125167882Y-84536000D01*
X125329049Y-84520126D01*
X125535835Y-84457399D01*
X125726409Y-84355535D01*
X125893449Y-84218449D01*
X126030535Y-84051409D01*
X126132399Y-83860835D01*
X126195126Y-83654049D01*
X126216307Y-83439000D01*
X126195126Y-83223951D01*
X126132399Y-83017165D01*
X126030535Y-82826591D01*
X125893449Y-82659551D01*
X125726409Y-82522465D01*
X125535835Y-82420601D01*
X125329049Y-82357874D01*
X125167882Y-82342000D01*
X124385784Y-82342000D01*
X126485593Y-80242192D01*
X126632017Y-80302843D01*
X126843955Y-80345000D01*
X127060045Y-80345000D01*
X127271983Y-80302843D01*
X127471624Y-80220149D01*
X127651297Y-80100096D01*
X127804096Y-79947297D01*
X127855801Y-79869915D01*
X127855800Y-86278316D01*
X126099152Y-88034965D01*
X126030535Y-87906591D01*
X125893449Y-87739551D01*
X125726409Y-87602465D01*
X125535835Y-87500601D01*
X125329049Y-87437874D01*
X125167882Y-87422000D01*
X124260118Y-87422000D01*
X124098951Y-87437874D01*
X123892165Y-87500601D01*
X123701591Y-87602465D01*
X123534551Y-87739551D01*
X123397465Y-87906591D01*
X123295601Y-88097165D01*
X123232874Y-88303951D01*
X123211693Y-88519000D01*
X123232874Y-88734049D01*
X123295601Y-88940835D01*
X123397465Y-89131409D01*
X123534551Y-89298449D01*
X123701591Y-89435535D01*
X123892165Y-89537399D01*
X124098951Y-89600126D01*
X124260118Y-89616000D01*
X125167882Y-89616000D01*
X125329049Y-89600126D01*
X125535835Y-89537399D01*
X125726409Y-89435535D01*
X125893449Y-89298449D01*
X126030535Y-89131409D01*
X126132399Y-88940835D01*
X126146719Y-88893629D01*
X126161225Y-88892200D01*
X126161226Y-88892200D01*
X126216060Y-88886799D01*
X126286408Y-88865459D01*
X126351242Y-88830805D01*
X126408069Y-88784169D01*
X126419761Y-88769922D01*
X128479928Y-86709756D01*
X128494169Y-86698069D01*
X128540805Y-86641242D01*
X128575459Y-86576408D01*
X128596799Y-86506060D01*
X128602200Y-86451226D01*
X128602200Y-86451225D01*
X128604005Y-86432900D01*
X128602200Y-86414575D01*
X128602200Y-79440583D01*
X128635243Y-79407540D01*
X128667157Y-79567983D01*
X128749851Y-79767624D01*
X128869904Y-79947297D01*
X129022703Y-80100096D01*
X129202376Y-80220149D01*
X129348801Y-80280800D01*
X129348800Y-87755515D01*
X126200976Y-90903341D01*
X126195126Y-90843951D01*
X126132399Y-90637165D01*
X126030535Y-90446591D01*
X125893449Y-90279551D01*
X125726409Y-90142465D01*
X125535835Y-90040601D01*
X125329049Y-89977874D01*
X125167882Y-89962000D01*
X124260118Y-89962000D01*
X124098951Y-89977874D01*
X123892165Y-90040601D01*
X123701591Y-90142465D01*
X123534551Y-90279551D01*
X123397465Y-90446591D01*
X123295601Y-90637165D01*
X123281281Y-90684371D01*
X123266774Y-90685800D01*
X123211940Y-90691201D01*
X123141592Y-90712541D01*
X123076758Y-90747195D01*
X123019931Y-90793831D01*
X123008243Y-90808073D01*
X122717078Y-91099239D01*
X122702831Y-91110931D01*
X122656195Y-91167759D01*
X122621541Y-91232593D01*
X122600201Y-91302940D01*
X122600201Y-91302941D01*
X122592995Y-91376100D01*
X122594800Y-91394425D01*
X122594801Y-98816865D01*
X122592995Y-98835200D01*
X122600201Y-98908359D01*
X122621542Y-98978708D01*
X122647910Y-99028039D01*
X122656196Y-99043542D01*
X122702832Y-99100369D01*
X122717074Y-99112057D01*
X123951998Y-100346982D01*
X123951998Y-100504748D01*
X123793250Y-100346000D01*
X123079000Y-100342928D01*
X122954518Y-100355188D01*
X122834820Y-100391498D01*
X122724506Y-100450463D01*
X122627815Y-100529815D01*
X122548463Y-100626506D01*
X122489498Y-100736820D01*
X122453188Y-100856518D01*
X122440928Y-100981000D01*
X122444000Y-101695250D01*
X122602750Y-101854000D01*
X123952000Y-101854000D01*
X123952000Y-101834000D01*
X124206000Y-101834000D01*
X124206000Y-101854000D01*
X125555250Y-101854000D01*
X125651583Y-101757667D01*
X126779600Y-102885684D01*
X126779601Y-105290465D01*
X126777795Y-105308800D01*
X126785001Y-105381959D01*
X126806342Y-105452308D01*
X126826879Y-105490730D01*
X126840996Y-105517142D01*
X126887632Y-105573969D01*
X126901873Y-105585657D01*
X127422810Y-106106594D01*
X127334730Y-106319239D01*
X127287200Y-106558186D01*
X127287200Y-106801814D01*
X127334730Y-107040761D01*
X127427962Y-107265844D01*
X127563315Y-107468414D01*
X127735586Y-107640685D01*
X127822759Y-107698932D01*
X127822643Y-107699073D01*
X122304074Y-113217643D01*
X122289832Y-113229331D01*
X122248490Y-113279707D01*
X122243195Y-113286159D01*
X122208542Y-113350992D01*
X122187201Y-113421341D01*
X122179995Y-113494500D01*
X122181801Y-113512835D01*
X122181801Y-114264439D01*
X122082743Y-114305470D01*
X121919450Y-114414580D01*
X121780580Y-114553450D01*
X121671470Y-114716743D01*
X121596314Y-114898186D01*
X121558000Y-115090804D01*
X121558000Y-115287196D01*
X121596314Y-115479814D01*
X121671470Y-115661257D01*
X121780580Y-115824550D01*
X121919450Y-115963420D01*
X122082743Y-116072530D01*
X122264186Y-116147686D01*
X122456804Y-116186000D01*
X122653196Y-116186000D01*
X122845814Y-116147686D01*
X123027257Y-116072530D01*
X123190550Y-115963420D01*
X123329420Y-115824550D01*
X123438530Y-115661257D01*
X123513686Y-115479814D01*
X123552000Y-115287196D01*
X123552000Y-115090804D01*
X124352000Y-115090804D01*
X124352000Y-115287196D01*
X124390314Y-115479814D01*
X124465470Y-115661257D01*
X124574580Y-115824550D01*
X124713450Y-115963420D01*
X124876743Y-116072530D01*
X125058186Y-116147686D01*
X125250804Y-116186000D01*
X125447196Y-116186000D01*
X125639814Y-116147686D01*
X125821257Y-116072530D01*
X125984550Y-115963420D01*
X126123420Y-115824550D01*
X126232530Y-115661257D01*
X126307686Y-115479814D01*
X126346000Y-115287196D01*
X126346000Y-115090804D01*
X126307686Y-114898186D01*
X126266655Y-114799128D01*
X127662584Y-113403200D01*
X127671701Y-113403200D01*
X127563315Y-113511586D01*
X127427962Y-113714156D01*
X127334730Y-113939239D01*
X127287200Y-114178186D01*
X127287200Y-114421814D01*
X127334730Y-114660761D01*
X127427962Y-114885844D01*
X127563315Y-115088414D01*
X127735586Y-115260685D01*
X127938156Y-115396038D01*
X128163239Y-115489270D01*
X128402186Y-115536800D01*
X128645814Y-115536800D01*
X128884761Y-115489270D01*
X129109844Y-115396038D01*
X129312414Y-115260685D01*
X129484685Y-115088414D01*
X129620038Y-114885844D01*
X129713270Y-114660761D01*
X129760800Y-114421814D01*
X129760800Y-114178186D01*
X129713270Y-113939239D01*
X129620038Y-113714156D01*
X129484685Y-113511586D01*
X129376299Y-113403200D01*
X129775675Y-113403200D01*
X129794000Y-113405005D01*
X129812325Y-113403200D01*
X129812326Y-113403200D01*
X129825763Y-113401876D01*
X129825763Y-115239800D01*
X129831497Y-115298022D01*
X129848480Y-115354007D01*
X129876059Y-115405603D01*
X129913173Y-115450827D01*
X129958397Y-115487941D01*
X130009993Y-115515520D01*
X130065978Y-115532503D01*
X130124200Y-115538237D01*
X132003800Y-115538237D01*
X132062022Y-115532503D01*
X132118007Y-115515520D01*
X132169603Y-115487941D01*
X132214827Y-115450827D01*
X132251941Y-115405603D01*
X132279520Y-115354007D01*
X132296503Y-115298022D01*
X132302237Y-115239800D01*
X132302237Y-114178186D01*
X152687200Y-114178186D01*
X152687200Y-114421814D01*
X152734730Y-114660761D01*
X152827962Y-114885844D01*
X152963315Y-115088414D01*
X153135586Y-115260685D01*
X153338156Y-115396038D01*
X153563239Y-115489270D01*
X153802186Y-115536800D01*
X154045814Y-115536800D01*
X154284761Y-115489270D01*
X154509844Y-115396038D01*
X154712414Y-115260685D01*
X154884685Y-115088414D01*
X155020038Y-114885844D01*
X155113270Y-114660761D01*
X155160800Y-114421814D01*
X155160800Y-114178186D01*
X155113270Y-113939239D01*
X155020038Y-113714156D01*
X154884685Y-113511586D01*
X154733299Y-113360200D01*
X155225763Y-113360200D01*
X155225763Y-115239800D01*
X155231497Y-115298022D01*
X155248480Y-115354007D01*
X155276059Y-115405603D01*
X155313173Y-115450827D01*
X155358397Y-115487941D01*
X155409993Y-115515520D01*
X155465978Y-115532503D01*
X155524200Y-115538237D01*
X157403800Y-115538237D01*
X157462022Y-115532503D01*
X157518007Y-115515520D01*
X157569603Y-115487941D01*
X157614827Y-115450827D01*
X157651941Y-115405603D01*
X157679520Y-115354007D01*
X157696503Y-115298022D01*
X157702237Y-115239800D01*
X157702237Y-113360200D01*
X157696503Y-113301978D01*
X157679520Y-113245993D01*
X157651941Y-113194397D01*
X157614827Y-113149173D01*
X157569603Y-113112059D01*
X157518007Y-113084480D01*
X157462022Y-113067497D01*
X157403800Y-113061763D01*
X155524200Y-113061763D01*
X155465978Y-113067497D01*
X155409993Y-113084480D01*
X155358397Y-113112059D01*
X155313173Y-113149173D01*
X155276059Y-113194397D01*
X155248480Y-113245993D01*
X155231497Y-113301978D01*
X155225763Y-113360200D01*
X154733299Y-113360200D01*
X154712414Y-113339315D01*
X154509844Y-113203962D01*
X154284761Y-113110730D01*
X154045814Y-113063200D01*
X153802186Y-113063200D01*
X153563239Y-113110730D01*
X153338156Y-113203962D01*
X153135586Y-113339315D01*
X152963315Y-113511586D01*
X152827962Y-113714156D01*
X152734730Y-113939239D01*
X152687200Y-114178186D01*
X132302237Y-114178186D01*
X132302237Y-113360200D01*
X132296503Y-113301978D01*
X132279520Y-113245993D01*
X132251941Y-113194397D01*
X132214827Y-113149173D01*
X132169603Y-113112059D01*
X132118007Y-113084480D01*
X132062022Y-113067497D01*
X132003800Y-113061763D01*
X130290020Y-113061763D01*
X130307783Y-113044000D01*
X159114563Y-113044000D01*
X159114563Y-114794000D01*
X159137110Y-115022926D01*
X159203886Y-115243055D01*
X159312323Y-115445927D01*
X159458255Y-115623745D01*
X159636073Y-115769677D01*
X159838945Y-115878114D01*
X160059074Y-115944890D01*
X160288000Y-115967437D01*
X162038000Y-115967437D01*
X162266926Y-115944890D01*
X162487055Y-115878114D01*
X162689927Y-115769677D01*
X162867745Y-115623745D01*
X163013677Y-115445927D01*
X163122114Y-115243055D01*
X163188890Y-115022926D01*
X163211437Y-114794000D01*
X163211437Y-114082946D01*
X164775662Y-112518722D01*
X164778000Y-113633250D01*
X164936750Y-113792000D01*
X167036000Y-113792000D01*
X167036000Y-111692750D01*
X167290000Y-111692750D01*
X167290000Y-113792000D01*
X169389250Y-113792000D01*
X169548000Y-113633250D01*
X169551072Y-112169000D01*
X169538812Y-112044518D01*
X169502502Y-111924820D01*
X169443537Y-111814506D01*
X169364185Y-111717815D01*
X169267494Y-111638463D01*
X169157180Y-111579498D01*
X169037482Y-111543188D01*
X168913000Y-111530928D01*
X167448750Y-111534000D01*
X167290000Y-111692750D01*
X167036000Y-111692750D01*
X166877250Y-111534000D01*
X165762722Y-111531662D01*
X168398927Y-108895457D01*
X168413169Y-108883769D01*
X168459805Y-108826942D01*
X168494459Y-108762108D01*
X168515799Y-108691760D01*
X168521200Y-108636926D01*
X168523005Y-108618600D01*
X168521200Y-108600275D01*
X168521200Y-105232651D01*
X168685195Y-105182904D01*
X168927887Y-105053183D01*
X169140608Y-104878608D01*
X169315183Y-104665887D01*
X169444904Y-104423195D01*
X169524786Y-104159860D01*
X169551759Y-103886000D01*
X169524786Y-103612140D01*
X169444904Y-103348805D01*
X169315183Y-103106113D01*
X169140608Y-102893392D01*
X168927887Y-102718817D01*
X168685195Y-102589096D01*
X168421860Y-102509214D01*
X168216625Y-102489000D01*
X168079375Y-102489000D01*
X167874140Y-102509214D01*
X167610805Y-102589096D01*
X167368113Y-102718817D01*
X167155392Y-102893392D01*
X166980817Y-103106113D01*
X166851096Y-103348805D01*
X166771214Y-103612140D01*
X166744241Y-103886000D01*
X166771214Y-104159860D01*
X166851096Y-104423195D01*
X166980817Y-104665887D01*
X167155392Y-104878608D01*
X167368113Y-105053183D01*
X167610805Y-105182904D01*
X167774800Y-105232652D01*
X167774801Y-108464015D01*
X166211437Y-110027379D01*
X166211437Y-108344000D01*
X166188890Y-108115074D01*
X166122114Y-107894945D01*
X166013677Y-107692073D01*
X165867745Y-107514255D01*
X165689927Y-107368323D01*
X165487055Y-107259886D01*
X165266926Y-107193110D01*
X165038000Y-107170563D01*
X163288000Y-107170563D01*
X163059074Y-107193110D01*
X162838945Y-107259886D01*
X162636073Y-107368323D01*
X162458255Y-107514255D01*
X162312323Y-107692073D01*
X162203886Y-107894945D01*
X162137110Y-108115074D01*
X162114563Y-108344000D01*
X162114563Y-110094000D01*
X162137110Y-110322926D01*
X162203886Y-110543055D01*
X162312323Y-110745927D01*
X162458255Y-110923745D01*
X162636073Y-111069677D01*
X162838945Y-111178114D01*
X163059074Y-111244890D01*
X163288000Y-111267437D01*
X164971380Y-111267437D01*
X163209947Y-113028870D01*
X163188890Y-112815074D01*
X163122114Y-112594945D01*
X163013677Y-112392073D01*
X162867745Y-112214255D01*
X162689927Y-112068323D01*
X162487055Y-111959886D01*
X162266926Y-111893110D01*
X162038000Y-111870563D01*
X160288000Y-111870563D01*
X160059074Y-111893110D01*
X159838945Y-111959886D01*
X159636073Y-112068323D01*
X159458255Y-112214255D01*
X159312323Y-112392073D01*
X159203886Y-112594945D01*
X159137110Y-112815074D01*
X159114563Y-113044000D01*
X130307783Y-113044000D01*
X130490594Y-112861190D01*
X130703239Y-112949270D01*
X130942186Y-112996800D01*
X131185814Y-112996800D01*
X131424761Y-112949270D01*
X131649844Y-112856038D01*
X131852414Y-112720685D01*
X132024685Y-112548414D01*
X132160038Y-112345844D01*
X132253270Y-112120761D01*
X132300800Y-111881814D01*
X132300800Y-111638186D01*
X152687200Y-111638186D01*
X152687200Y-111881814D01*
X152734730Y-112120761D01*
X152827962Y-112345844D01*
X152963315Y-112548414D01*
X153135586Y-112720685D01*
X153338156Y-112856038D01*
X153563239Y-112949270D01*
X153802186Y-112996800D01*
X154045814Y-112996800D01*
X154284761Y-112949270D01*
X154509844Y-112856038D01*
X154712414Y-112720685D01*
X154884685Y-112548414D01*
X155020038Y-112345844D01*
X155113270Y-112120761D01*
X155160800Y-111881814D01*
X155160800Y-111638186D01*
X155227200Y-111638186D01*
X155227200Y-111881814D01*
X155274730Y-112120761D01*
X155367962Y-112345844D01*
X155503315Y-112548414D01*
X155675586Y-112720685D01*
X155878156Y-112856038D01*
X156103239Y-112949270D01*
X156342186Y-112996800D01*
X156585814Y-112996800D01*
X156824761Y-112949270D01*
X157049844Y-112856038D01*
X157252414Y-112720685D01*
X157424685Y-112548414D01*
X157560038Y-112345844D01*
X157653270Y-112120761D01*
X157700800Y-111881814D01*
X157700800Y-111638186D01*
X157653270Y-111399239D01*
X157560038Y-111174156D01*
X157424685Y-110971586D01*
X157252414Y-110799315D01*
X157049844Y-110663962D01*
X156824761Y-110570730D01*
X156585814Y-110523200D01*
X156342186Y-110523200D01*
X156103239Y-110570730D01*
X155878156Y-110663962D01*
X155675586Y-110799315D01*
X155503315Y-110971586D01*
X155367962Y-111174156D01*
X155274730Y-111399239D01*
X155227200Y-111638186D01*
X155160800Y-111638186D01*
X155113270Y-111399239D01*
X155020038Y-111174156D01*
X154884685Y-110971586D01*
X154712414Y-110799315D01*
X154509844Y-110663962D01*
X154284761Y-110570730D01*
X154045814Y-110523200D01*
X153802186Y-110523200D01*
X153563239Y-110570730D01*
X153338156Y-110663962D01*
X153135586Y-110799315D01*
X152963315Y-110971586D01*
X152827962Y-111174156D01*
X152734730Y-111399239D01*
X152687200Y-111638186D01*
X132300800Y-111638186D01*
X132253270Y-111399239D01*
X132160038Y-111174156D01*
X132024685Y-110971586D01*
X131852414Y-110799315D01*
X131649844Y-110663962D01*
X131424761Y-110570730D01*
X131185814Y-110523200D01*
X130942186Y-110523200D01*
X130703239Y-110570730D01*
X130478156Y-110663962D01*
X130275586Y-110799315D01*
X130103315Y-110971586D01*
X129967962Y-111174156D01*
X129874730Y-111399239D01*
X129827200Y-111638186D01*
X129827200Y-111881814D01*
X129874730Y-112120761D01*
X129962810Y-112333406D01*
X129639417Y-112656800D01*
X129376299Y-112656800D01*
X129484685Y-112548414D01*
X129620038Y-112345844D01*
X129713270Y-112120761D01*
X129760800Y-111881814D01*
X129760800Y-111638186D01*
X129713270Y-111399239D01*
X129620038Y-111174156D01*
X129484685Y-110971586D01*
X129312414Y-110799315D01*
X129109844Y-110663962D01*
X128884761Y-110570730D01*
X128645814Y-110523200D01*
X128402186Y-110523200D01*
X128163239Y-110570730D01*
X127938156Y-110663962D01*
X127735586Y-110799315D01*
X127563315Y-110971586D01*
X127427962Y-111174156D01*
X127334730Y-111399239D01*
X127287200Y-111638186D01*
X127287200Y-111881814D01*
X127334730Y-112120761D01*
X127427962Y-112345844D01*
X127563315Y-112548414D01*
X127671701Y-112656800D01*
X127526325Y-112656800D01*
X127507999Y-112654995D01*
X127489674Y-112656800D01*
X127434840Y-112662201D01*
X127364492Y-112683541D01*
X127299658Y-112718195D01*
X127242831Y-112764831D01*
X127231143Y-112779073D01*
X125738872Y-114271345D01*
X125639814Y-114230314D01*
X125447196Y-114192000D01*
X125250804Y-114192000D01*
X125058186Y-114230314D01*
X124876743Y-114305470D01*
X124713450Y-114414580D01*
X124574580Y-114553450D01*
X124465470Y-114716743D01*
X124390314Y-114898186D01*
X124352000Y-115090804D01*
X123552000Y-115090804D01*
X123513686Y-114898186D01*
X123438530Y-114716743D01*
X123329420Y-114553450D01*
X123190550Y-114414580D01*
X123027257Y-114305470D01*
X122928200Y-114264439D01*
X122928200Y-113649083D01*
X127287200Y-109290084D01*
X127287200Y-109341814D01*
X127334730Y-109580761D01*
X127427962Y-109805844D01*
X127563315Y-110008414D01*
X127735586Y-110180685D01*
X127938156Y-110316038D01*
X128163239Y-110409270D01*
X128402186Y-110456800D01*
X128645814Y-110456800D01*
X128884761Y-110409270D01*
X129109844Y-110316038D01*
X129312414Y-110180685D01*
X129484685Y-110008414D01*
X129620038Y-109805844D01*
X129713270Y-109580761D01*
X129760800Y-109341814D01*
X129760800Y-109098186D01*
X129827200Y-109098186D01*
X129827200Y-109341814D01*
X129874730Y-109580761D01*
X129967962Y-109805844D01*
X130103315Y-110008414D01*
X130275586Y-110180685D01*
X130478156Y-110316038D01*
X130703239Y-110409270D01*
X130942186Y-110456800D01*
X131185814Y-110456800D01*
X131424761Y-110409270D01*
X131649844Y-110316038D01*
X131852414Y-110180685D01*
X132024685Y-110008414D01*
X132160038Y-109805844D01*
X132253270Y-109580761D01*
X132300800Y-109341814D01*
X132300800Y-109098186D01*
X132253270Y-108859239D01*
X132160038Y-108634156D01*
X132024685Y-108431586D01*
X131852414Y-108259315D01*
X131649844Y-108123962D01*
X131424761Y-108030730D01*
X131185814Y-107983200D01*
X130942186Y-107983200D01*
X130703239Y-108030730D01*
X130478156Y-108123962D01*
X130275586Y-108259315D01*
X130103315Y-108431586D01*
X129967962Y-108634156D01*
X129874730Y-108859239D01*
X129827200Y-109098186D01*
X129760800Y-109098186D01*
X129713270Y-108859239D01*
X129620038Y-108634156D01*
X129484685Y-108431586D01*
X129376299Y-108323200D01*
X129775675Y-108323200D01*
X129794000Y-108325005D01*
X129812325Y-108323200D01*
X129812326Y-108323200D01*
X129867160Y-108317799D01*
X129937508Y-108296459D01*
X130002342Y-108261805D01*
X130059169Y-108215169D01*
X130070861Y-108200922D01*
X130490594Y-107781190D01*
X130703239Y-107869270D01*
X130942186Y-107916800D01*
X131185814Y-107916800D01*
X131424761Y-107869270D01*
X131649844Y-107776038D01*
X131852414Y-107640685D01*
X132024685Y-107468414D01*
X132160038Y-107265844D01*
X132253270Y-107040761D01*
X132300800Y-106801814D01*
X132300800Y-106744977D01*
X152342916Y-106744977D01*
X152385973Y-107052184D01*
X152488135Y-107345086D01*
X152573277Y-107504377D01*
X152831524Y-107592871D01*
X153744395Y-106680000D01*
X152831524Y-105767129D01*
X152573277Y-105855623D01*
X152438403Y-106134976D01*
X152360619Y-106435275D01*
X152342916Y-106744977D01*
X132300800Y-106744977D01*
X132300800Y-106558186D01*
X132253270Y-106319239D01*
X132160038Y-106094156D01*
X132024685Y-105891586D01*
X131852414Y-105719315D01*
X131649844Y-105583962D01*
X131424761Y-105490730D01*
X131185814Y-105443200D01*
X130942186Y-105443200D01*
X130703239Y-105490730D01*
X130478156Y-105583962D01*
X130275586Y-105719315D01*
X130103315Y-105891586D01*
X129967962Y-106094156D01*
X129874730Y-106319239D01*
X129827200Y-106558186D01*
X129827200Y-106801814D01*
X129874730Y-107040761D01*
X129962810Y-107253406D01*
X129639417Y-107576800D01*
X129376299Y-107576800D01*
X129484685Y-107468414D01*
X129620038Y-107265844D01*
X129713270Y-107040761D01*
X129760800Y-106801814D01*
X129760800Y-106558186D01*
X129713270Y-106319239D01*
X129620038Y-106094156D01*
X129484685Y-105891586D01*
X129312414Y-105719315D01*
X129109844Y-105583962D01*
X128884761Y-105490730D01*
X128645814Y-105443200D01*
X128402186Y-105443200D01*
X128163239Y-105490730D01*
X127950594Y-105578810D01*
X127526000Y-105154217D01*
X127526000Y-104872568D01*
X127563315Y-104928414D01*
X127735586Y-105100685D01*
X127938156Y-105236038D01*
X128163239Y-105329270D01*
X128402186Y-105376800D01*
X128645814Y-105376800D01*
X128884761Y-105329270D01*
X129109844Y-105236038D01*
X129312414Y-105100685D01*
X129484685Y-104928414D01*
X129620038Y-104725844D01*
X129713270Y-104500761D01*
X129760800Y-104261814D01*
X129760800Y-104018186D01*
X129713270Y-103779239D01*
X129620038Y-103554156D01*
X129484685Y-103351586D01*
X129312414Y-103179315D01*
X129109844Y-103043962D01*
X128884761Y-102950730D01*
X128645814Y-102903200D01*
X128402186Y-102903200D01*
X128163239Y-102950730D01*
X127938156Y-103043962D01*
X127735586Y-103179315D01*
X127563315Y-103351586D01*
X127526000Y-103407432D01*
X127526000Y-102749425D01*
X127527805Y-102731100D01*
X127520599Y-102657940D01*
X127499259Y-102587592D01*
X127483546Y-102558195D01*
X127464605Y-102522758D01*
X127417969Y-102465931D01*
X127403728Y-102454244D01*
X125648061Y-100698578D01*
X125609537Y-100626506D01*
X125530185Y-100529815D01*
X125433494Y-100450463D01*
X125323180Y-100391498D01*
X125203482Y-100355188D01*
X125079000Y-100342928D01*
X125003835Y-100343251D01*
X124436584Y-99776000D01*
X125167882Y-99776000D01*
X125329049Y-99760126D01*
X125535835Y-99697399D01*
X125726409Y-99595535D01*
X125893449Y-99458449D01*
X126030535Y-99291409D01*
X126132399Y-99100835D01*
X126190038Y-98910821D01*
X127845254Y-100566037D01*
X127735586Y-100639315D01*
X127563315Y-100811586D01*
X127427962Y-101014156D01*
X127334730Y-101239239D01*
X127287200Y-101478186D01*
X127287200Y-101721814D01*
X127334730Y-101960761D01*
X127427962Y-102185844D01*
X127563315Y-102388414D01*
X127735586Y-102560685D01*
X127938156Y-102696038D01*
X128163239Y-102789270D01*
X128402186Y-102836800D01*
X128645814Y-102836800D01*
X128884761Y-102789270D01*
X129109844Y-102696038D01*
X129312414Y-102560685D01*
X129420801Y-102452298D01*
X129420801Y-102851665D01*
X129418995Y-102870000D01*
X129426201Y-102943159D01*
X129442312Y-102996268D01*
X129447542Y-103013508D01*
X129482196Y-103078342D01*
X129528832Y-103135169D01*
X129543073Y-103146857D01*
X129962810Y-103566594D01*
X129874730Y-103779239D01*
X129827200Y-104018186D01*
X129827200Y-104261814D01*
X129874730Y-104500761D01*
X129967962Y-104725844D01*
X130103315Y-104928414D01*
X130275586Y-105100685D01*
X130478156Y-105236038D01*
X130703239Y-105329270D01*
X130942186Y-105376800D01*
X131185814Y-105376800D01*
X131424761Y-105329270D01*
X131649844Y-105236038D01*
X131852414Y-105100685D01*
X132024685Y-104928414D01*
X132160038Y-104725844D01*
X132253270Y-104500761D01*
X132300800Y-104261814D01*
X132300800Y-104018186D01*
X152687200Y-104018186D01*
X152687200Y-104261814D01*
X152734730Y-104500761D01*
X152827962Y-104725844D01*
X152963315Y-104928414D01*
X153135586Y-105100685D01*
X153318940Y-105223198D01*
X153258914Y-105244135D01*
X153099623Y-105329277D01*
X153011129Y-105587524D01*
X153924000Y-106500395D01*
X154836871Y-105587524D01*
X154748377Y-105329277D01*
X154528894Y-105223309D01*
X154712414Y-105100685D01*
X154884685Y-104928414D01*
X155020038Y-104725844D01*
X155113270Y-104500761D01*
X155160800Y-104261814D01*
X155160800Y-104018186D01*
X155227200Y-104018186D01*
X155227200Y-104261814D01*
X155274730Y-104500761D01*
X155367962Y-104725844D01*
X155503315Y-104928414D01*
X155675586Y-105100685D01*
X155878156Y-105236038D01*
X156103239Y-105329270D01*
X156342186Y-105376800D01*
X156585814Y-105376800D01*
X156824761Y-105329270D01*
X157049844Y-105236038D01*
X157252414Y-105100685D01*
X157424685Y-104928414D01*
X157560038Y-104725844D01*
X157653270Y-104500761D01*
X157700800Y-104261814D01*
X157700800Y-104018186D01*
X157653270Y-103779239D01*
X157560038Y-103554156D01*
X157424685Y-103351586D01*
X157252414Y-103179315D01*
X157049844Y-103043962D01*
X156824761Y-102950730D01*
X156585814Y-102903200D01*
X156342186Y-102903200D01*
X156103239Y-102950730D01*
X155878156Y-103043962D01*
X155675586Y-103179315D01*
X155503315Y-103351586D01*
X155367962Y-103554156D01*
X155274730Y-103779239D01*
X155227200Y-104018186D01*
X155160800Y-104018186D01*
X155113270Y-103779239D01*
X155020038Y-103554156D01*
X154884685Y-103351586D01*
X154712414Y-103179315D01*
X154509844Y-103043962D01*
X154284761Y-102950730D01*
X154045814Y-102903200D01*
X153802186Y-102903200D01*
X153563239Y-102950730D01*
X153338156Y-103043962D01*
X153135586Y-103179315D01*
X152963315Y-103351586D01*
X152827962Y-103554156D01*
X152734730Y-103779239D01*
X152687200Y-104018186D01*
X132300800Y-104018186D01*
X132253270Y-103779239D01*
X132160038Y-103554156D01*
X132024685Y-103351586D01*
X131852414Y-103179315D01*
X131649844Y-103043962D01*
X131424761Y-102950730D01*
X131185814Y-102903200D01*
X130942186Y-102903200D01*
X130703239Y-102950730D01*
X130490594Y-103038810D01*
X130167200Y-102715417D01*
X130167200Y-102452299D01*
X130275586Y-102560685D01*
X130478156Y-102696038D01*
X130703239Y-102789270D01*
X130942186Y-102836800D01*
X131185814Y-102836800D01*
X131424761Y-102789270D01*
X131649844Y-102696038D01*
X131852414Y-102560685D01*
X132024685Y-102388414D01*
X132160038Y-102185844D01*
X132253270Y-101960761D01*
X132300800Y-101721814D01*
X132300800Y-101478186D01*
X152687200Y-101478186D01*
X152687200Y-101721814D01*
X152734730Y-101960761D01*
X152827962Y-102185844D01*
X152963315Y-102388414D01*
X153135586Y-102560685D01*
X153338156Y-102696038D01*
X153563239Y-102789270D01*
X153802186Y-102836800D01*
X154045814Y-102836800D01*
X154284761Y-102789270D01*
X154509844Y-102696038D01*
X154712414Y-102560685D01*
X154884685Y-102388414D01*
X155020038Y-102185844D01*
X155113270Y-101960761D01*
X155160800Y-101721814D01*
X155160800Y-101478186D01*
X155227200Y-101478186D01*
X155227200Y-101721814D01*
X155274730Y-101960761D01*
X155367962Y-102185844D01*
X155503315Y-102388414D01*
X155675586Y-102560685D01*
X155878156Y-102696038D01*
X156103239Y-102789270D01*
X156342186Y-102836800D01*
X156585814Y-102836800D01*
X156824761Y-102789270D01*
X157049844Y-102696038D01*
X157252414Y-102560685D01*
X157424685Y-102388414D01*
X157560038Y-102185844D01*
X157653270Y-101960761D01*
X157700800Y-101721814D01*
X157700800Y-101478186D01*
X157653270Y-101239239D01*
X157560038Y-101014156D01*
X157424685Y-100811586D01*
X157252414Y-100639315D01*
X157049844Y-100503962D01*
X156824761Y-100410730D01*
X156585814Y-100363200D01*
X156342186Y-100363200D01*
X156103239Y-100410730D01*
X155878156Y-100503962D01*
X155675586Y-100639315D01*
X155503315Y-100811586D01*
X155367962Y-101014156D01*
X155274730Y-101239239D01*
X155227200Y-101478186D01*
X155160800Y-101478186D01*
X155113270Y-101239239D01*
X155020038Y-101014156D01*
X154884685Y-100811586D01*
X154712414Y-100639315D01*
X154509844Y-100503962D01*
X154284761Y-100410730D01*
X154045814Y-100363200D01*
X153802186Y-100363200D01*
X153563239Y-100410730D01*
X153338156Y-100503962D01*
X153135586Y-100639315D01*
X152963315Y-100811586D01*
X152827962Y-101014156D01*
X152734730Y-101239239D01*
X152687200Y-101478186D01*
X132300800Y-101478186D01*
X132253270Y-101239239D01*
X132160038Y-101014156D01*
X132024685Y-100811586D01*
X131852414Y-100639315D01*
X131649844Y-100503962D01*
X131424761Y-100410730D01*
X131185814Y-100363200D01*
X130942186Y-100363200D01*
X130703239Y-100410730D01*
X130478156Y-100503962D01*
X130275586Y-100639315D01*
X130103315Y-100811586D01*
X130037568Y-100909984D01*
X129307861Y-100180278D01*
X129296169Y-100166031D01*
X129239342Y-100119395D01*
X129197864Y-100097225D01*
X129312414Y-100020685D01*
X129484685Y-99848414D01*
X129620038Y-99645844D01*
X129713270Y-99420761D01*
X129760800Y-99181814D01*
X129760800Y-98938186D01*
X129827200Y-98938186D01*
X129827200Y-99181814D01*
X129874730Y-99420761D01*
X129967962Y-99645844D01*
X130103315Y-99848414D01*
X130275586Y-100020685D01*
X130478156Y-100156038D01*
X130703239Y-100249270D01*
X130942186Y-100296800D01*
X131185814Y-100296800D01*
X131424761Y-100249270D01*
X131649844Y-100156038D01*
X131852414Y-100020685D01*
X132024685Y-99848414D01*
X132160038Y-99645844D01*
X132253270Y-99420761D01*
X132300800Y-99181814D01*
X132300800Y-98938186D01*
X152687200Y-98938186D01*
X152687200Y-99181814D01*
X152734730Y-99420761D01*
X152827962Y-99645844D01*
X152963315Y-99848414D01*
X153135586Y-100020685D01*
X153338156Y-100156038D01*
X153563239Y-100249270D01*
X153802186Y-100296800D01*
X154045814Y-100296800D01*
X154284761Y-100249270D01*
X154509844Y-100156038D01*
X154712414Y-100020685D01*
X154884685Y-99848414D01*
X155020038Y-99645844D01*
X155113270Y-99420761D01*
X155160800Y-99181814D01*
X155160800Y-98938186D01*
X155113270Y-98699239D01*
X155020038Y-98474156D01*
X154884685Y-98271586D01*
X154712414Y-98099315D01*
X154509844Y-97963962D01*
X154284761Y-97870730D01*
X154045814Y-97823200D01*
X153802186Y-97823200D01*
X153563239Y-97870730D01*
X153338156Y-97963962D01*
X153135586Y-98099315D01*
X152963315Y-98271586D01*
X152827962Y-98474156D01*
X152734730Y-98699239D01*
X152687200Y-98938186D01*
X132300800Y-98938186D01*
X132253270Y-98699239D01*
X132160038Y-98474156D01*
X132024685Y-98271586D01*
X131852414Y-98099315D01*
X131649844Y-97963962D01*
X131424761Y-97870730D01*
X131185814Y-97823200D01*
X130942186Y-97823200D01*
X130703239Y-97870730D01*
X130478156Y-97963962D01*
X130275586Y-98099315D01*
X130103315Y-98271586D01*
X129967962Y-98474156D01*
X129874730Y-98699239D01*
X129827200Y-98938186D01*
X129760800Y-98938186D01*
X129713270Y-98699239D01*
X129620038Y-98474156D01*
X129484685Y-98271586D01*
X129312414Y-98099315D01*
X129109844Y-97963962D01*
X128884761Y-97870730D01*
X128645814Y-97823200D01*
X128402186Y-97823200D01*
X128163239Y-97870730D01*
X127938156Y-97963962D01*
X127735586Y-98099315D01*
X127563315Y-98271586D01*
X127427962Y-98474156D01*
X127334730Y-98699239D01*
X127287200Y-98938186D01*
X127287200Y-98952417D01*
X126516100Y-98181317D01*
X126516100Y-96398186D01*
X127287200Y-96398186D01*
X127287200Y-96641814D01*
X127334730Y-96880761D01*
X127427962Y-97105844D01*
X127563315Y-97308414D01*
X127735586Y-97480685D01*
X127938156Y-97616038D01*
X128163239Y-97709270D01*
X128402186Y-97756800D01*
X128645814Y-97756800D01*
X128884761Y-97709270D01*
X129109844Y-97616038D01*
X129312414Y-97480685D01*
X129484685Y-97308414D01*
X129620038Y-97105844D01*
X129713270Y-96880761D01*
X129760800Y-96641814D01*
X129760800Y-96398186D01*
X129827200Y-96398186D01*
X129827200Y-96641814D01*
X129874730Y-96880761D01*
X129967962Y-97105844D01*
X130103315Y-97308414D01*
X130275586Y-97480685D01*
X130478156Y-97616038D01*
X130703239Y-97709270D01*
X130942186Y-97756800D01*
X131185814Y-97756800D01*
X131424761Y-97709270D01*
X131649844Y-97616038D01*
X131852414Y-97480685D01*
X132024685Y-97308414D01*
X132160038Y-97105844D01*
X132253270Y-96880761D01*
X132300800Y-96641814D01*
X132300800Y-96398186D01*
X152687200Y-96398186D01*
X152687200Y-96641814D01*
X152734730Y-96880761D01*
X152827962Y-97105844D01*
X152963315Y-97308414D01*
X153135586Y-97480685D01*
X153338156Y-97616038D01*
X153563239Y-97709270D01*
X153802186Y-97756800D01*
X154045814Y-97756800D01*
X154284761Y-97709270D01*
X154509844Y-97616038D01*
X154712414Y-97480685D01*
X154884685Y-97308414D01*
X155020038Y-97105844D01*
X155113270Y-96880761D01*
X155160800Y-96641814D01*
X155160800Y-96398186D01*
X155227200Y-96398186D01*
X155227200Y-96641814D01*
X155274730Y-96880761D01*
X155367962Y-97105844D01*
X155503315Y-97308414D01*
X155675586Y-97480685D01*
X155878156Y-97616038D01*
X156103239Y-97709270D01*
X156342186Y-97756800D01*
X156585814Y-97756800D01*
X156824761Y-97709270D01*
X157049844Y-97616038D01*
X157252414Y-97480685D01*
X157424685Y-97308414D01*
X157560038Y-97105844D01*
X157653270Y-96880761D01*
X157700800Y-96641814D01*
X157700800Y-96398186D01*
X157653270Y-96159239D01*
X157560038Y-95934156D01*
X157424685Y-95731586D01*
X157252414Y-95559315D01*
X157049844Y-95423962D01*
X156824761Y-95330730D01*
X156585814Y-95283200D01*
X156342186Y-95283200D01*
X156103239Y-95330730D01*
X155878156Y-95423962D01*
X155675586Y-95559315D01*
X155503315Y-95731586D01*
X155367962Y-95934156D01*
X155274730Y-96159239D01*
X155227200Y-96398186D01*
X155160800Y-96398186D01*
X155113270Y-96159239D01*
X155020038Y-95934156D01*
X154884685Y-95731586D01*
X154712414Y-95559315D01*
X154509844Y-95423962D01*
X154284761Y-95330730D01*
X154045814Y-95283200D01*
X153802186Y-95283200D01*
X153563239Y-95330730D01*
X153338156Y-95423962D01*
X153135586Y-95559315D01*
X152963315Y-95731586D01*
X152827962Y-95934156D01*
X152734730Y-96159239D01*
X152687200Y-96398186D01*
X132300800Y-96398186D01*
X132253270Y-96159239D01*
X132160038Y-95934156D01*
X132024685Y-95731586D01*
X131852414Y-95559315D01*
X131649844Y-95423962D01*
X131424761Y-95330730D01*
X131185814Y-95283200D01*
X130942186Y-95283200D01*
X130703239Y-95330730D01*
X130478156Y-95423962D01*
X130275586Y-95559315D01*
X130103315Y-95731586D01*
X129967962Y-95934156D01*
X129874730Y-96159239D01*
X129827200Y-96398186D01*
X129760800Y-96398186D01*
X129713270Y-96159239D01*
X129620038Y-95934156D01*
X129484685Y-95731586D01*
X129312414Y-95559315D01*
X129109844Y-95423962D01*
X128884761Y-95330730D01*
X128645814Y-95283200D01*
X128402186Y-95283200D01*
X128163239Y-95330730D01*
X127938156Y-95423962D01*
X127735586Y-95559315D01*
X127563315Y-95731586D01*
X127427962Y-95934156D01*
X127334730Y-96159239D01*
X127287200Y-96398186D01*
X126516100Y-96398186D01*
X126516100Y-96157325D01*
X126517905Y-96139000D01*
X126510699Y-96065840D01*
X126489359Y-95995492D01*
X126454705Y-95930658D01*
X126408069Y-95873831D01*
X126351242Y-95827195D01*
X126286408Y-95792541D01*
X126216060Y-95771201D01*
X126161226Y-95765800D01*
X126161225Y-95765800D01*
X126146719Y-95764371D01*
X126132399Y-95717165D01*
X126030535Y-95526591D01*
X125893449Y-95359551D01*
X125726409Y-95222465D01*
X125535835Y-95120601D01*
X125329049Y-95057874D01*
X125167882Y-95042000D01*
X124260118Y-95042000D01*
X124098951Y-95057874D01*
X123892165Y-95120601D01*
X123701591Y-95222465D01*
X123658300Y-95257993D01*
X123658300Y-94480007D01*
X123701591Y-94515535D01*
X123892165Y-94617399D01*
X124098951Y-94680126D01*
X124260118Y-94696000D01*
X125167882Y-94696000D01*
X125329049Y-94680126D01*
X125535835Y-94617399D01*
X125726409Y-94515535D01*
X125893449Y-94378449D01*
X126030535Y-94211409D01*
X126132399Y-94020835D01*
X126181737Y-93858186D01*
X127287200Y-93858186D01*
X127287200Y-94101814D01*
X127334730Y-94340761D01*
X127427962Y-94565844D01*
X127563315Y-94768414D01*
X127735586Y-94940685D01*
X127938156Y-95076038D01*
X128163239Y-95169270D01*
X128402186Y-95216800D01*
X128645814Y-95216800D01*
X128884761Y-95169270D01*
X129109844Y-95076038D01*
X129312414Y-94940685D01*
X129484685Y-94768414D01*
X129620038Y-94565844D01*
X129713270Y-94340761D01*
X129760800Y-94101814D01*
X129760800Y-93858186D01*
X129827200Y-93858186D01*
X129827200Y-94101814D01*
X129874730Y-94340761D01*
X129967962Y-94565844D01*
X130103315Y-94768414D01*
X130275586Y-94940685D01*
X130478156Y-95076038D01*
X130703239Y-95169270D01*
X130942186Y-95216800D01*
X131185814Y-95216800D01*
X131424761Y-95169270D01*
X131649844Y-95076038D01*
X131852414Y-94940685D01*
X132024685Y-94768414D01*
X132160038Y-94565844D01*
X132253270Y-94340761D01*
X132300800Y-94101814D01*
X132300800Y-93858186D01*
X152687200Y-93858186D01*
X152687200Y-94101814D01*
X152734730Y-94340761D01*
X152827962Y-94565844D01*
X152963315Y-94768414D01*
X153135586Y-94940685D01*
X153338156Y-95076038D01*
X153563239Y-95169270D01*
X153802186Y-95216800D01*
X154045814Y-95216800D01*
X154284761Y-95169270D01*
X154509844Y-95076038D01*
X154712414Y-94940685D01*
X154884685Y-94768414D01*
X155020038Y-94565844D01*
X155113270Y-94340761D01*
X155160800Y-94101814D01*
X155160800Y-93858186D01*
X155227200Y-93858186D01*
X155227200Y-94101814D01*
X155274730Y-94340761D01*
X155367962Y-94565844D01*
X155503315Y-94768414D01*
X155675586Y-94940685D01*
X155878156Y-95076038D01*
X156103239Y-95169270D01*
X156342186Y-95216800D01*
X156585814Y-95216800D01*
X156824761Y-95169270D01*
X157049844Y-95076038D01*
X157252414Y-94940685D01*
X157424685Y-94768414D01*
X157560038Y-94565844D01*
X157653270Y-94340761D01*
X157700800Y-94101814D01*
X157700800Y-93858186D01*
X157653270Y-93619239D01*
X157560038Y-93394156D01*
X157424685Y-93191586D01*
X157252414Y-93019315D01*
X157069060Y-92896802D01*
X157129086Y-92875865D01*
X157288377Y-92790723D01*
X157376871Y-92532476D01*
X156464000Y-91619605D01*
X155551129Y-92532476D01*
X155639623Y-92790723D01*
X155859106Y-92896691D01*
X155675586Y-93019315D01*
X155503315Y-93191586D01*
X155367962Y-93394156D01*
X155274730Y-93619239D01*
X155227200Y-93858186D01*
X155160800Y-93858186D01*
X155113270Y-93619239D01*
X155020038Y-93394156D01*
X154884685Y-93191586D01*
X154712414Y-93019315D01*
X154509844Y-92883962D01*
X154284761Y-92790730D01*
X154045814Y-92743200D01*
X153802186Y-92743200D01*
X153563239Y-92790730D01*
X153338156Y-92883962D01*
X153135586Y-93019315D01*
X152963315Y-93191586D01*
X152827962Y-93394156D01*
X152734730Y-93619239D01*
X152687200Y-93858186D01*
X132300800Y-93858186D01*
X132253270Y-93619239D01*
X132160038Y-93394156D01*
X132024685Y-93191586D01*
X131852414Y-93019315D01*
X131649844Y-92883962D01*
X131424761Y-92790730D01*
X131185814Y-92743200D01*
X130942186Y-92743200D01*
X130703239Y-92790730D01*
X130478156Y-92883962D01*
X130275586Y-93019315D01*
X130103315Y-93191586D01*
X129967962Y-93394156D01*
X129874730Y-93619239D01*
X129827200Y-93858186D01*
X129760800Y-93858186D01*
X129713270Y-93619239D01*
X129620038Y-93394156D01*
X129484685Y-93191586D01*
X129312414Y-93019315D01*
X129129060Y-92896802D01*
X129189086Y-92875865D01*
X129348377Y-92790723D01*
X129436871Y-92532476D01*
X128524000Y-91619605D01*
X127611129Y-92532476D01*
X127699623Y-92790723D01*
X127919106Y-92896691D01*
X127735586Y-93019315D01*
X127563315Y-93191586D01*
X127427962Y-93394156D01*
X127334730Y-93619239D01*
X127287200Y-93858186D01*
X126181737Y-93858186D01*
X126195126Y-93814049D01*
X126216307Y-93599000D01*
X126195126Y-93383951D01*
X126132399Y-93177165D01*
X126030535Y-92986591D01*
X125893449Y-92819551D01*
X125726409Y-92682465D01*
X125535835Y-92580601D01*
X125406275Y-92541300D01*
X125445675Y-92541300D01*
X125464000Y-92543105D01*
X125482325Y-92541300D01*
X125482326Y-92541300D01*
X125537160Y-92535899D01*
X125607508Y-92514559D01*
X125672342Y-92479905D01*
X125729169Y-92433269D01*
X125740861Y-92419022D01*
X126960377Y-91199506D01*
X126942916Y-91504977D01*
X126985973Y-91812184D01*
X127088135Y-92105086D01*
X127173277Y-92264377D01*
X127431524Y-92352871D01*
X128344395Y-91440000D01*
X128703605Y-91440000D01*
X129616476Y-92352871D01*
X129874723Y-92264377D01*
X129980691Y-92044894D01*
X130103315Y-92228414D01*
X130275586Y-92400685D01*
X130478156Y-92536038D01*
X130703239Y-92629270D01*
X130942186Y-92676800D01*
X131185814Y-92676800D01*
X131424761Y-92629270D01*
X131649844Y-92536038D01*
X131852414Y-92400685D01*
X132024685Y-92228414D01*
X132160038Y-92025844D01*
X132253270Y-91800761D01*
X132300800Y-91561814D01*
X132300800Y-91318186D01*
X152687200Y-91318186D01*
X152687200Y-91561814D01*
X152734730Y-91800761D01*
X152827962Y-92025844D01*
X152963315Y-92228414D01*
X153135586Y-92400685D01*
X153338156Y-92536038D01*
X153563239Y-92629270D01*
X153802186Y-92676800D01*
X154045814Y-92676800D01*
X154284761Y-92629270D01*
X154509844Y-92536038D01*
X154712414Y-92400685D01*
X154884685Y-92228414D01*
X155007198Y-92045060D01*
X155028135Y-92105086D01*
X155113277Y-92264377D01*
X155371524Y-92352871D01*
X156284395Y-91440000D01*
X156643605Y-91440000D01*
X157556476Y-92352871D01*
X157814723Y-92264377D01*
X157949597Y-91985024D01*
X158027381Y-91684725D01*
X158045084Y-91375023D01*
X158002027Y-91067816D01*
X157899865Y-90774914D01*
X157814723Y-90615623D01*
X157556476Y-90527129D01*
X156643605Y-91440000D01*
X156284395Y-91440000D01*
X155371524Y-90527129D01*
X155113277Y-90615623D01*
X155007309Y-90835106D01*
X154884685Y-90651586D01*
X154712414Y-90479315D01*
X154515175Y-90347524D01*
X155551129Y-90347524D01*
X156464000Y-91260395D01*
X157376871Y-90347524D01*
X157288377Y-90089277D01*
X157009024Y-89954403D01*
X156708725Y-89876619D01*
X156399023Y-89858916D01*
X156091816Y-89901973D01*
X155798914Y-90004135D01*
X155639623Y-90089277D01*
X155551129Y-90347524D01*
X154515175Y-90347524D01*
X154509844Y-90343962D01*
X154284761Y-90250730D01*
X154045814Y-90203200D01*
X153802186Y-90203200D01*
X153563239Y-90250730D01*
X153338156Y-90343962D01*
X153135586Y-90479315D01*
X152963315Y-90651586D01*
X152827962Y-90854156D01*
X152734730Y-91079239D01*
X152687200Y-91318186D01*
X132300800Y-91318186D01*
X132253270Y-91079239D01*
X132160038Y-90854156D01*
X132024685Y-90651586D01*
X131852414Y-90479315D01*
X131649844Y-90343962D01*
X131424761Y-90250730D01*
X131185814Y-90203200D01*
X130942186Y-90203200D01*
X130703239Y-90250730D01*
X130478156Y-90343962D01*
X130275586Y-90479315D01*
X130103315Y-90651586D01*
X129980802Y-90834940D01*
X129959865Y-90774914D01*
X129874723Y-90615623D01*
X129616476Y-90527129D01*
X128703605Y-91440000D01*
X128344395Y-91440000D01*
X128330253Y-91425858D01*
X128509858Y-91246253D01*
X128524000Y-91260395D01*
X129436871Y-90347524D01*
X129348377Y-90089277D01*
X129069024Y-89954403D01*
X128768725Y-89876619D01*
X128459023Y-89858916D01*
X128275205Y-89884679D01*
X129972934Y-88186951D01*
X129987169Y-88175269D01*
X130033805Y-88118442D01*
X130068459Y-88053608D01*
X130089799Y-87983260D01*
X130095200Y-87928426D01*
X130095200Y-87928425D01*
X130097005Y-87910101D01*
X130095200Y-87891775D01*
X130095200Y-80280800D01*
X130241624Y-80220149D01*
X130421297Y-80100096D01*
X130574096Y-79947297D01*
X130694149Y-79767624D01*
X130776843Y-79567983D01*
X130819000Y-79356045D01*
X130819000Y-79139955D01*
X131395000Y-79139955D01*
X131395000Y-79356045D01*
X131437157Y-79567983D01*
X131519851Y-79767624D01*
X131639904Y-79947297D01*
X131792703Y-80100096D01*
X131972376Y-80220149D01*
X132172017Y-80302843D01*
X132383955Y-80345000D01*
X132600045Y-80345000D01*
X132811983Y-80302843D01*
X133011624Y-80220149D01*
X133191297Y-80100096D01*
X133344096Y-79947297D01*
X133464149Y-79767624D01*
X133546843Y-79567983D01*
X133589000Y-79356045D01*
X133589000Y-79139955D01*
X133546843Y-78928017D01*
X133464149Y-78728376D01*
X133344096Y-78548703D01*
X133243393Y-78448000D01*
X151682563Y-78448000D01*
X151682563Y-80048000D01*
X151688297Y-80106222D01*
X151705280Y-80162207D01*
X151732859Y-80213803D01*
X151769973Y-80259027D01*
X151815197Y-80296141D01*
X151866793Y-80323720D01*
X151922778Y-80340703D01*
X151981000Y-80346437D01*
X153581000Y-80346437D01*
X153639222Y-80340703D01*
X153695207Y-80323720D01*
X153746803Y-80296141D01*
X153792027Y-80259027D01*
X153829141Y-80213803D01*
X153856720Y-80162207D01*
X153873703Y-80106222D01*
X153879437Y-80048000D01*
X153879437Y-78448000D01*
X153873703Y-78389778D01*
X153856720Y-78333793D01*
X153829141Y-78282197D01*
X153792027Y-78236973D01*
X153746803Y-78199859D01*
X153695207Y-78172280D01*
X153639222Y-78155297D01*
X153581000Y-78149563D01*
X151981000Y-78149563D01*
X151922778Y-78155297D01*
X151866793Y-78172280D01*
X151815197Y-78199859D01*
X151769973Y-78236973D01*
X151732859Y-78282197D01*
X151705280Y-78333793D01*
X151688297Y-78389778D01*
X151682563Y-78448000D01*
X133243393Y-78448000D01*
X133191297Y-78395904D01*
X133011624Y-78275851D01*
X132811983Y-78193157D01*
X132600045Y-78151000D01*
X132383955Y-78151000D01*
X132172017Y-78193157D01*
X131972376Y-78275851D01*
X131792703Y-78395904D01*
X131639904Y-78548703D01*
X131519851Y-78728376D01*
X131437157Y-78928017D01*
X131395000Y-79139955D01*
X130819000Y-79139955D01*
X130776843Y-78928017D01*
X130694149Y-78728376D01*
X130574096Y-78548703D01*
X130421297Y-78395904D01*
X130241624Y-78275851D01*
X130041983Y-78193157D01*
X129881540Y-78161243D01*
X130640592Y-77402192D01*
X130787017Y-77462843D01*
X130998955Y-77505000D01*
X131215045Y-77505000D01*
X131426983Y-77462843D01*
X131626624Y-77380149D01*
X131806297Y-77260096D01*
X131959096Y-77107297D01*
X132079149Y-76927624D01*
X132161843Y-76727983D01*
X132204000Y-76516045D01*
X132204000Y-76299955D01*
X132161843Y-76088017D01*
X132079149Y-75888376D01*
X131959096Y-75708703D01*
X131806297Y-75555904D01*
X131626624Y-75435851D01*
X131426983Y-75353157D01*
X131215045Y-75311000D01*
X130998955Y-75311000D01*
X130787017Y-75353157D01*
X130587376Y-75435851D01*
X130407703Y-75555904D01*
X130254904Y-75708703D01*
X130134851Y-75888376D01*
X130052157Y-76088017D01*
X130010000Y-76299955D01*
X130010000Y-76516045D01*
X130052157Y-76727983D01*
X130112808Y-76874408D01*
X128015530Y-78971687D01*
X128006843Y-78928017D01*
X127924149Y-78728376D01*
X127804096Y-78548703D01*
X127651297Y-78395904D01*
X127471624Y-78275851D01*
X127271983Y-78193157D01*
X127060045Y-78151000D01*
X126843955Y-78151000D01*
X126632017Y-78193157D01*
X126432376Y-78275851D01*
X126252703Y-78395904D01*
X126099904Y-78548703D01*
X125979851Y-78728376D01*
X125897157Y-78928017D01*
X125855000Y-79139955D01*
X125855000Y-79356045D01*
X125897157Y-79567983D01*
X125957808Y-79714407D01*
X118271974Y-87400243D01*
X118257732Y-87411931D01*
X118218250Y-87460041D01*
X118211095Y-87468759D01*
X118176442Y-87533592D01*
X118155101Y-87603941D01*
X118151594Y-87639547D01*
X118106409Y-87602465D01*
X117962983Y-87525802D01*
X117973869Y-87516869D01*
X117985561Y-87502622D01*
X124432929Y-81055255D01*
X124447169Y-81043569D01*
X124493805Y-80986742D01*
X124528459Y-80921908D01*
X124549799Y-80851560D01*
X124555200Y-80796726D01*
X124555200Y-80796725D01*
X124557005Y-80778400D01*
X124555200Y-80760075D01*
X124555200Y-80280800D01*
X124701624Y-80220149D01*
X124881297Y-80100096D01*
X125034096Y-79947297D01*
X125154149Y-79767624D01*
X125236843Y-79567983D01*
X125279000Y-79356045D01*
X125279000Y-79139955D01*
X125236843Y-78928017D01*
X125154149Y-78728376D01*
X125034096Y-78548703D01*
X124881297Y-78395904D01*
X124701624Y-78275851D01*
X124501983Y-78193157D01*
X124290045Y-78151000D01*
X124073955Y-78151000D01*
X123862017Y-78193157D01*
X123662376Y-78275851D01*
X123482703Y-78395904D01*
X123329904Y-78548703D01*
X123209851Y-78728376D01*
X123127157Y-78928017D01*
X123085000Y-79139955D01*
X123085000Y-79356045D01*
X123127157Y-79567983D01*
X123209851Y-79767624D01*
X123329904Y-79947297D01*
X123482703Y-80100096D01*
X123662376Y-80220149D01*
X123808800Y-80280800D01*
X123808800Y-80623816D01*
X118896100Y-85536517D01*
X118896100Y-83320583D01*
X121662933Y-80553752D01*
X121677169Y-80542069D01*
X121723805Y-80485242D01*
X121758459Y-80420408D01*
X121779799Y-80350060D01*
X121780156Y-80346437D01*
X122212000Y-80346437D01*
X122270222Y-80340703D01*
X122326207Y-80323720D01*
X122377803Y-80296141D01*
X122423027Y-80259027D01*
X122460141Y-80213803D01*
X122487720Y-80162207D01*
X122504703Y-80106222D01*
X122510437Y-80048000D01*
X122510437Y-78448000D01*
X122504703Y-78389778D01*
X122487720Y-78333793D01*
X122460141Y-78282197D01*
X122423027Y-78236973D01*
X122377803Y-78199859D01*
X122326207Y-78172280D01*
X122270222Y-78155297D01*
X122212000Y-78149563D01*
X120612000Y-78149563D01*
X120553778Y-78155297D01*
X120497793Y-78172280D01*
X120446197Y-78199859D01*
X120400973Y-78236973D01*
X120363859Y-78282197D01*
X120336280Y-78333793D01*
X120319297Y-78389778D01*
X120313563Y-78448000D01*
X120313563Y-80048000D01*
X120319297Y-80106222D01*
X120336280Y-80162207D01*
X120363859Y-80213803D01*
X120400973Y-80259027D01*
X120446197Y-80296141D01*
X120497793Y-80323720D01*
X120553778Y-80340703D01*
X120612000Y-80346437D01*
X120814678Y-80346437D01*
X118585222Y-82575895D01*
X118569720Y-82524793D01*
X118542141Y-82473197D01*
X118505027Y-82427973D01*
X118459803Y-82390859D01*
X118408207Y-82363280D01*
X118352222Y-82346297D01*
X118294000Y-82340563D01*
X115894000Y-82340563D01*
X115835778Y-82346297D01*
X115779793Y-82363280D01*
X115728197Y-82390859D01*
X115682973Y-82427973D01*
X115645859Y-82473197D01*
X115618280Y-82524793D01*
X115601297Y-82580778D01*
X115595563Y-82639000D01*
X115595563Y-84239000D01*
X115601297Y-84297222D01*
X115618280Y-84353207D01*
X115645859Y-84404803D01*
X115682973Y-84450027D01*
X115728197Y-84487141D01*
X115779793Y-84514720D01*
X115835778Y-84531703D01*
X115894000Y-84537437D01*
X118149701Y-84537437D01*
X118149700Y-85097993D01*
X118106409Y-85062465D01*
X117915835Y-84960601D01*
X117709049Y-84897874D01*
X117547882Y-84882000D01*
X116640118Y-84882000D01*
X116478951Y-84897874D01*
X116272165Y-84960601D01*
X116081591Y-85062465D01*
X115914551Y-85199551D01*
X115777465Y-85366591D01*
X115675601Y-85557165D01*
X115612874Y-85763951D01*
X115591693Y-85979000D01*
X115612874Y-86194049D01*
X115675601Y-86400835D01*
X115777465Y-86591409D01*
X115914551Y-86758449D01*
X116081591Y-86895535D01*
X116225428Y-86972418D01*
X116208231Y-86986531D01*
X116196543Y-87000773D01*
X115414173Y-87783144D01*
X115399932Y-87794831D01*
X115378778Y-87820608D01*
X115353295Y-87851659D01*
X115318642Y-87916492D01*
X115297301Y-87986841D01*
X115290095Y-88060000D01*
X115155000Y-88060000D01*
X115155000Y-77105972D01*
X115191142Y-76737371D01*
X115293261Y-76399135D01*
X115345995Y-76299955D01*
X121700000Y-76299955D01*
X121700000Y-76516045D01*
X121742157Y-76727983D01*
X121824851Y-76927624D01*
X121944904Y-77107297D01*
X122097703Y-77260096D01*
X122277376Y-77380149D01*
X122477017Y-77462843D01*
X122688955Y-77505000D01*
X122905045Y-77505000D01*
X123116983Y-77462843D01*
X123316624Y-77380149D01*
X123496297Y-77260096D01*
X123649096Y-77107297D01*
X123769149Y-76927624D01*
X123851843Y-76727983D01*
X123894000Y-76516045D01*
X123894000Y-76299955D01*
X124470000Y-76299955D01*
X124470000Y-76516045D01*
X124512157Y-76727983D01*
X124594851Y-76927624D01*
X124714904Y-77107297D01*
X124867703Y-77260096D01*
X125047376Y-77380149D01*
X125247017Y-77462843D01*
X125458955Y-77505000D01*
X125675045Y-77505000D01*
X125886983Y-77462843D01*
X126037004Y-77400702D01*
X127523903Y-77400702D01*
X127595486Y-77644671D01*
X127850996Y-77765571D01*
X128125184Y-77834300D01*
X128407512Y-77848217D01*
X128687130Y-77806787D01*
X128953292Y-77711603D01*
X129078514Y-77644671D01*
X129150097Y-77400702D01*
X128337000Y-76587605D01*
X127523903Y-77400702D01*
X126037004Y-77400702D01*
X126086624Y-77380149D01*
X126266297Y-77260096D01*
X126419096Y-77107297D01*
X126539149Y-76927624D01*
X126621843Y-76727983D01*
X126664000Y-76516045D01*
X126664000Y-76478512D01*
X126896783Y-76478512D01*
X126938213Y-76758130D01*
X127033397Y-77024292D01*
X127100329Y-77149514D01*
X127344298Y-77221097D01*
X128157395Y-76408000D01*
X128516605Y-76408000D01*
X129329702Y-77221097D01*
X129573671Y-77149514D01*
X129694571Y-76894004D01*
X129763300Y-76619816D01*
X129777217Y-76337488D01*
X129735787Y-76057870D01*
X129640603Y-75791708D01*
X129573671Y-75666486D01*
X129329702Y-75594903D01*
X128516605Y-76408000D01*
X128157395Y-76408000D01*
X127344298Y-75594903D01*
X127100329Y-75666486D01*
X126979429Y-75921996D01*
X126910700Y-76196184D01*
X126896783Y-76478512D01*
X126664000Y-76478512D01*
X126664000Y-76299955D01*
X126621843Y-76088017D01*
X126539149Y-75888376D01*
X126419096Y-75708703D01*
X126266297Y-75555904D01*
X126086624Y-75435851D01*
X125886983Y-75353157D01*
X125675045Y-75311000D01*
X125458955Y-75311000D01*
X125247017Y-75353157D01*
X125047376Y-75435851D01*
X124867703Y-75555904D01*
X124714904Y-75708703D01*
X124594851Y-75888376D01*
X124512157Y-76088017D01*
X124470000Y-76299955D01*
X123894000Y-76299955D01*
X123851843Y-76088017D01*
X123769149Y-75888376D01*
X123649096Y-75708703D01*
X123496297Y-75555904D01*
X123316624Y-75435851D01*
X123116983Y-75353157D01*
X122905045Y-75311000D01*
X122688955Y-75311000D01*
X122477017Y-75353157D01*
X122277376Y-75435851D01*
X122097703Y-75555904D01*
X121944904Y-75708703D01*
X121824851Y-75888376D01*
X121742157Y-76088017D01*
X121700000Y-76299955D01*
X115345995Y-76299955D01*
X115459132Y-76087177D01*
X115682440Y-75813375D01*
X115954672Y-75588164D01*
X116265467Y-75420118D01*
X116602983Y-75315639D01*
X116970615Y-75277000D01*
X127564481Y-75277000D01*
X127523903Y-75415298D01*
M02*
