G04 #@! TF.GenerationSoftware,KiCad,Pcbnew,(5.1.0-0)*
G04 #@! TF.CreationDate,2019-03-28T18:25:31-07:00*
G04 #@! TF.ProjectId,unijoysticle,756e696a-6f79-4737-9469-636c652e6b69,v0.0.1*
G04 #@! TF.SameCoordinates,Original*
G04 #@! TF.FileFunction,Copper,L1,Top*
G04 #@! TF.FilePolarity,Positive*
%FSLAX46Y46*%
G04 Gerber Fmt 4.6, Leading zero omitted, Abs format (unit mm)*
G04 Created by KiCad (PCBNEW (5.1.0-0)) date 2019-03-28 18:25:31*
%MOMM*%
%LPD*%
G04 APERTURE LIST*
%ADD10O,2.200000X2.200000*%
%ADD11R,2.200000X2.200000*%
%ADD12O,1.400000X1.400000*%
%ADD13C,1.400000*%
%ADD14C,2.000000*%
%ADD15R,2.000000X2.000000*%
%ADD16C,2.100000*%
%ADD17C,1.750000*%
%ADD18C,1.879600*%
%ADD19R,1.879600X1.879600*%
%ADD20R,1.600000X1.600000*%
%ADD21C,1.600000*%
%ADD22O,2.400000X1.600000*%
%ADD23R,2.400000X1.600000*%
%ADD24C,0.100000*%
%ADD25C,3.500000*%
%ADD26C,3.000000*%
%ADD27R,3.500000X3.500000*%
%ADD28C,0.152400*%
%ADD29C,0.254000*%
G04 APERTURE END LIST*
D10*
X168148000Y-103505000D03*
D11*
X160528000Y-103505000D03*
D12*
X125349000Y-107569000D03*
D13*
X125349000Y-115189000D03*
D12*
X122555000Y-107569000D03*
D13*
X122555000Y-115189000D03*
D14*
X117983000Y-104521000D03*
D15*
X117983000Y-101981000D03*
D16*
X118822000Y-107905000D03*
D17*
X116332000Y-109165000D03*
X116332000Y-113665000D03*
D16*
X118822000Y-114915000D03*
D18*
X128524000Y-114300000D03*
X128524000Y-111760000D03*
X128524000Y-109220000D03*
X128524000Y-106680000D03*
X128524000Y-104140000D03*
X128524000Y-101600000D03*
X128524000Y-99060000D03*
X128524000Y-96520000D03*
X128524000Y-93980000D03*
X128524000Y-91440000D03*
D19*
X131064000Y-114300000D03*
D18*
X131064000Y-111760000D03*
X131064000Y-109220000D03*
X131064000Y-106680000D03*
X131064000Y-104140000D03*
X131064000Y-101600000D03*
X131064000Y-99060000D03*
X131064000Y-96520000D03*
X131064000Y-93980000D03*
X131064000Y-91440000D03*
X153924000Y-91440000D03*
X153924000Y-93980000D03*
X153924000Y-96520000D03*
X153924000Y-99060000D03*
X153924000Y-101600000D03*
X153924000Y-104140000D03*
X153924000Y-106680000D03*
X153924000Y-109220000D03*
X153924000Y-111760000D03*
X153924000Y-114300000D03*
X156464000Y-91440000D03*
X156464000Y-93980000D03*
X156464000Y-96520000D03*
X156464000Y-99060000D03*
X156464000Y-101600000D03*
X156464000Y-104140000D03*
X156464000Y-106680000D03*
X156464000Y-109220000D03*
X156464000Y-111760000D03*
D19*
X156464000Y-114300000D03*
D20*
X121412000Y-79248000D03*
D21*
X124182000Y-79248000D03*
X126952000Y-79248000D03*
X129722000Y-79248000D03*
X132492000Y-79248000D03*
X122797000Y-76408000D03*
X125567000Y-76408000D03*
X128337000Y-76408000D03*
X131107000Y-76408000D03*
D22*
X168148000Y-83439000D03*
X160528000Y-98679000D03*
X168148000Y-85979000D03*
X160528000Y-96139000D03*
X168148000Y-88519000D03*
X160528000Y-93599000D03*
X168148000Y-91059000D03*
X160528000Y-91059000D03*
X168148000Y-93599000D03*
X160528000Y-88519000D03*
X168148000Y-96139000D03*
X160528000Y-85979000D03*
X168148000Y-98679000D03*
D23*
X160528000Y-83439000D03*
X117094000Y-83439000D03*
D22*
X124714000Y-98679000D03*
X117094000Y-85979000D03*
X124714000Y-96139000D03*
X117094000Y-88519000D03*
X124714000Y-93599000D03*
X117094000Y-91059000D03*
X124714000Y-91059000D03*
X117094000Y-93599000D03*
X124714000Y-88519000D03*
X117094000Y-96139000D03*
X124714000Y-85979000D03*
X117094000Y-98679000D03*
X124714000Y-83439000D03*
D14*
X124079000Y-104521000D03*
D15*
X124079000Y-101981000D03*
D20*
X152781000Y-79248000D03*
D21*
X155551000Y-79248000D03*
X158321000Y-79248000D03*
X161091000Y-79248000D03*
X163861000Y-79248000D03*
X154166000Y-76408000D03*
X156936000Y-76408000D03*
X159706000Y-76408000D03*
X162476000Y-76408000D03*
D24*
G36*
X164488765Y-107346213D02*
G01*
X164573704Y-107358813D01*
X164656999Y-107379677D01*
X164737848Y-107408605D01*
X164815472Y-107445319D01*
X164889124Y-107489464D01*
X164958094Y-107540616D01*
X165021718Y-107598282D01*
X165079384Y-107661906D01*
X165130536Y-107730876D01*
X165174681Y-107804528D01*
X165211395Y-107882152D01*
X165240323Y-107963001D01*
X165261187Y-108046296D01*
X165273787Y-108131235D01*
X165278000Y-108217000D01*
X165278000Y-109967000D01*
X165273787Y-110052765D01*
X165261187Y-110137704D01*
X165240323Y-110220999D01*
X165211395Y-110301848D01*
X165174681Y-110379472D01*
X165130536Y-110453124D01*
X165079384Y-110522094D01*
X165021718Y-110585718D01*
X164958094Y-110643384D01*
X164889124Y-110694536D01*
X164815472Y-110738681D01*
X164737848Y-110775395D01*
X164656999Y-110804323D01*
X164573704Y-110825187D01*
X164488765Y-110837787D01*
X164403000Y-110842000D01*
X162653000Y-110842000D01*
X162567235Y-110837787D01*
X162482296Y-110825187D01*
X162399001Y-110804323D01*
X162318152Y-110775395D01*
X162240528Y-110738681D01*
X162166876Y-110694536D01*
X162097906Y-110643384D01*
X162034282Y-110585718D01*
X161976616Y-110522094D01*
X161925464Y-110453124D01*
X161881319Y-110379472D01*
X161844605Y-110301848D01*
X161815677Y-110220999D01*
X161794813Y-110137704D01*
X161782213Y-110052765D01*
X161778000Y-109967000D01*
X161778000Y-108217000D01*
X161782213Y-108131235D01*
X161794813Y-108046296D01*
X161815677Y-107963001D01*
X161844605Y-107882152D01*
X161881319Y-107804528D01*
X161925464Y-107730876D01*
X161976616Y-107661906D01*
X162034282Y-107598282D01*
X162097906Y-107540616D01*
X162166876Y-107489464D01*
X162240528Y-107445319D01*
X162318152Y-107408605D01*
X162399001Y-107379677D01*
X162482296Y-107358813D01*
X162567235Y-107346213D01*
X162653000Y-107342000D01*
X164403000Y-107342000D01*
X164488765Y-107346213D01*
X164488765Y-107346213D01*
G37*
D25*
X163528000Y-109092000D03*
D24*
G36*
X167351513Y-112045611D02*
G01*
X167424318Y-112056411D01*
X167495714Y-112074295D01*
X167565013Y-112099090D01*
X167631548Y-112130559D01*
X167694678Y-112168398D01*
X167753795Y-112212242D01*
X167808330Y-112261670D01*
X167857758Y-112316205D01*
X167901602Y-112375322D01*
X167939441Y-112438452D01*
X167970910Y-112504987D01*
X167995705Y-112574286D01*
X168013589Y-112645682D01*
X168024389Y-112718487D01*
X168028000Y-112792000D01*
X168028000Y-114792000D01*
X168024389Y-114865513D01*
X168013589Y-114938318D01*
X167995705Y-115009714D01*
X167970910Y-115079013D01*
X167939441Y-115145548D01*
X167901602Y-115208678D01*
X167857758Y-115267795D01*
X167808330Y-115322330D01*
X167753795Y-115371758D01*
X167694678Y-115415602D01*
X167631548Y-115453441D01*
X167565013Y-115484910D01*
X167495714Y-115509705D01*
X167424318Y-115527589D01*
X167351513Y-115538389D01*
X167278000Y-115542000D01*
X165778000Y-115542000D01*
X165704487Y-115538389D01*
X165631682Y-115527589D01*
X165560286Y-115509705D01*
X165490987Y-115484910D01*
X165424452Y-115453441D01*
X165361322Y-115415602D01*
X165302205Y-115371758D01*
X165247670Y-115322330D01*
X165198242Y-115267795D01*
X165154398Y-115208678D01*
X165116559Y-115145548D01*
X165085090Y-115079013D01*
X165060295Y-115009714D01*
X165042411Y-114938318D01*
X165031611Y-114865513D01*
X165028000Y-114792000D01*
X165028000Y-112792000D01*
X165031611Y-112718487D01*
X165042411Y-112645682D01*
X165060295Y-112574286D01*
X165085090Y-112504987D01*
X165116559Y-112438452D01*
X165154398Y-112375322D01*
X165198242Y-112316205D01*
X165247670Y-112261670D01*
X165302205Y-112212242D01*
X165361322Y-112168398D01*
X165424452Y-112130559D01*
X165490987Y-112099090D01*
X165560286Y-112074295D01*
X165631682Y-112056411D01*
X165704487Y-112045611D01*
X165778000Y-112042000D01*
X167278000Y-112042000D01*
X167351513Y-112045611D01*
X167351513Y-112045611D01*
G37*
D26*
X166528000Y-113792000D03*
D27*
X160528000Y-113792000D03*
D28*
X131064000Y-99060000D02*
X129794000Y-97790000D01*
X129794000Y-97790000D02*
X128098300Y-97790000D01*
X128098300Y-97790000D02*
X127224900Y-96916600D01*
X127224900Y-96916600D02*
X127224900Y-96792000D01*
X127224900Y-96792000D02*
X125301900Y-94869000D01*
X125301900Y-94869000D02*
X124069100Y-94869000D01*
X124069100Y-94869000D02*
X118522900Y-89322800D01*
X118522900Y-89322800D02*
X118522900Y-88519000D01*
X117094000Y-88519000D02*
X118522900Y-88519000D01*
X117094000Y-83439000D02*
X118522900Y-83439000D01*
X118522900Y-83439000D02*
X118522900Y-84210700D01*
X118522900Y-84210700D02*
X124101200Y-89789000D01*
X124101200Y-89789000D02*
X125304900Y-89789000D01*
X125304900Y-89789000D02*
X126143000Y-90627100D01*
X126143000Y-90627100D02*
X126143000Y-90743100D01*
X126143000Y-90743100D02*
X128211100Y-92811200D01*
X128211100Y-92811200D02*
X129031000Y-92811200D01*
X129031000Y-92811200D02*
X129794000Y-93574200D01*
X129794000Y-93574200D02*
X129794000Y-95250000D01*
X129794000Y-95250000D02*
X131064000Y-96520000D01*
X168148000Y-96139000D02*
X166719100Y-96139000D01*
X166719100Y-96139000D02*
X162528100Y-100330000D01*
X162528100Y-100330000D02*
X155194000Y-100330000D01*
X155194000Y-100330000D02*
X153924000Y-101600000D01*
X160528000Y-88519000D02*
X159099100Y-88519000D01*
X159099100Y-88519000D02*
X159099100Y-93884900D01*
X159099100Y-93884900D02*
X156464000Y-96520000D01*
X160528000Y-83439000D02*
X161956900Y-83439000D01*
X161956900Y-83439000D02*
X161956900Y-86408400D01*
X161956900Y-86408400D02*
X161116300Y-87249000D01*
X161116300Y-87249000D02*
X159882500Y-87249000D01*
X159882500Y-87249000D02*
X157835200Y-89296300D01*
X157835200Y-89296300D02*
X157835200Y-92608800D01*
X157835200Y-92608800D02*
X156464000Y-93980000D01*
X124714000Y-96139000D02*
X126939100Y-98364100D01*
X126939100Y-98364100D02*
X126939100Y-99131300D01*
X126939100Y-99131300D02*
X128239000Y-100431200D01*
X128239000Y-100431200D02*
X129015100Y-100431200D01*
X129015100Y-100431200D02*
X129794000Y-101210100D01*
X129794000Y-101210100D02*
X129794000Y-102870000D01*
X129794000Y-102870000D02*
X131064000Y-104140000D01*
X117094000Y-93599000D02*
X118522900Y-93599000D01*
X118522900Y-93599000D02*
X118522900Y-94354700D01*
X118522900Y-94354700D02*
X124904800Y-100736600D01*
X124904800Y-100736600D02*
X125168300Y-100736600D01*
X125168300Y-100736600D02*
X127301700Y-102870000D01*
X127301700Y-102870000D02*
X128934800Y-102870000D01*
X128934800Y-102870000D02*
X129794200Y-103729400D01*
X129794200Y-103729400D02*
X129794200Y-104545800D01*
X129794200Y-104545800D02*
X130562300Y-105313900D01*
X130562300Y-105313900D02*
X131573500Y-105313900D01*
X131573500Y-105313900D02*
X132273600Y-104613800D01*
X132273600Y-104613800D02*
X132273600Y-102809600D01*
X132273600Y-102809600D02*
X131064000Y-101600000D01*
X168148000Y-88519000D02*
X166719100Y-88519000D01*
X166719100Y-88519000D02*
X166719100Y-87268700D01*
X166719100Y-87268700D02*
X160246800Y-80796400D01*
X160246800Y-80796400D02*
X158409300Y-80796400D01*
X158409300Y-80796400D02*
X156752200Y-79139300D01*
X156752200Y-79139300D02*
X156752200Y-78984400D01*
X156752200Y-78984400D02*
X155986800Y-78219000D01*
X155986800Y-78219000D02*
X133521000Y-78219000D01*
X133521000Y-78219000D02*
X132492000Y-79248000D01*
X124714000Y-93599000D02*
X123285100Y-93599000D01*
X123285100Y-93599000D02*
X123285100Y-92795200D01*
X123285100Y-92795200D02*
X117738900Y-87249000D01*
X117738900Y-87249000D02*
X116508400Y-87249000D01*
X116508400Y-87249000D02*
X115665000Y-86405600D01*
X115665000Y-86405600D02*
X115665000Y-82450400D01*
X115665000Y-82450400D02*
X121707400Y-76408000D01*
X121707400Y-76408000D02*
X122797000Y-76408000D01*
X152781000Y-79248000D02*
X152781000Y-80276900D01*
X160528000Y-85979000D02*
X159099100Y-85979000D01*
X159099100Y-85979000D02*
X153397000Y-80276900D01*
X153397000Y-80276900D02*
X152781000Y-80276900D01*
X168148000Y-98679000D02*
X169576900Y-98679000D01*
X169576900Y-98679000D02*
X169888300Y-98367600D01*
X169888300Y-98367600D02*
X169888300Y-85852900D01*
X169888300Y-85852900D02*
X168544400Y-84509000D01*
X168544400Y-84509000D02*
X166352000Y-84509000D01*
X166352000Y-84509000D02*
X161091000Y-79248000D01*
X168148000Y-93599000D02*
X169576900Y-93599000D01*
X169576900Y-93599000D02*
X169576900Y-88039900D01*
X169576900Y-88039900D02*
X168786000Y-87249000D01*
X168786000Y-87249000D02*
X167526200Y-87249000D01*
X167526200Y-87249000D02*
X159458800Y-79181600D01*
X159458800Y-79181600D02*
X159458800Y-78910900D01*
X159458800Y-78910900D02*
X158766900Y-78219000D01*
X158766900Y-78219000D02*
X156706000Y-78219000D01*
X156706000Y-78219000D02*
X154895000Y-76408000D01*
X154895000Y-76408000D02*
X154166000Y-76408000D01*
X124714000Y-83439000D02*
X128143000Y-83439000D01*
X128143000Y-83439000D02*
X153924000Y-109220000D01*
X160528000Y-103505000D02*
X160528000Y-104833900D01*
X160528000Y-104833900D02*
X157411900Y-107950000D01*
X157411900Y-107950000D02*
X155194000Y-107950000D01*
X155194000Y-107950000D02*
X153924000Y-109220000D01*
X128524000Y-111760000D02*
X125984000Y-111760000D01*
X125984000Y-111760000D02*
X122555000Y-115189000D01*
X131064000Y-111760000D02*
X129794000Y-113030000D01*
X129794000Y-113030000D02*
X127508000Y-113030000D01*
X127508000Y-113030000D02*
X125349000Y-115189000D01*
D29*
G36*
X127523903Y-75415298D02*
G01*
X128337000Y-76228395D01*
X129150097Y-75415298D01*
X129109519Y-75277000D01*
X158933481Y-75277000D01*
X158892903Y-75415298D01*
X159706000Y-76228395D01*
X160519097Y-75415298D01*
X160478519Y-75277000D01*
X168258028Y-75277000D01*
X168626629Y-75313142D01*
X168964865Y-75415261D01*
X169276823Y-75581132D01*
X169550625Y-75804440D01*
X169775836Y-76076672D01*
X169943882Y-76387467D01*
X170048361Y-76724983D01*
X170087000Y-77092615D01*
X170087000Y-85523816D01*
X169002906Y-84439722D01*
X169160409Y-84355535D01*
X169327449Y-84218449D01*
X169464535Y-84051409D01*
X169566399Y-83860835D01*
X169629126Y-83654049D01*
X169650307Y-83439000D01*
X169629126Y-83223951D01*
X169566399Y-83017165D01*
X169464535Y-82826591D01*
X169327449Y-82659551D01*
X169160409Y-82522465D01*
X168969835Y-82420601D01*
X168763049Y-82357874D01*
X168601882Y-82342000D01*
X167694118Y-82342000D01*
X167532951Y-82357874D01*
X167326165Y-82420601D01*
X167135591Y-82522465D01*
X166968551Y-82659551D01*
X166831465Y-82826591D01*
X166729601Y-83017165D01*
X166666874Y-83223951D01*
X166645693Y-83439000D01*
X166666874Y-83654049D01*
X166729601Y-83860835D01*
X166831465Y-84051409D01*
X166900723Y-84135800D01*
X166506585Y-84135800D01*
X162085192Y-79714408D01*
X162145843Y-79567983D01*
X162188000Y-79356045D01*
X162188000Y-79139955D01*
X162764000Y-79139955D01*
X162764000Y-79356045D01*
X162806157Y-79567983D01*
X162888851Y-79767624D01*
X163008904Y-79947297D01*
X163161703Y-80100096D01*
X163341376Y-80220149D01*
X163541017Y-80302843D01*
X163752955Y-80345000D01*
X163969045Y-80345000D01*
X164180983Y-80302843D01*
X164380624Y-80220149D01*
X164560297Y-80100096D01*
X164713096Y-79947297D01*
X164833149Y-79767624D01*
X164915843Y-79567983D01*
X164958000Y-79356045D01*
X164958000Y-79139955D01*
X164915843Y-78928017D01*
X164833149Y-78728376D01*
X164713096Y-78548703D01*
X164560297Y-78395904D01*
X164380624Y-78275851D01*
X164180983Y-78193157D01*
X163969045Y-78151000D01*
X163752955Y-78151000D01*
X163541017Y-78193157D01*
X163341376Y-78275851D01*
X163161703Y-78395904D01*
X163008904Y-78548703D01*
X162888851Y-78728376D01*
X162806157Y-78928017D01*
X162764000Y-79139955D01*
X162188000Y-79139955D01*
X162145843Y-78928017D01*
X162063149Y-78728376D01*
X161943096Y-78548703D01*
X161790297Y-78395904D01*
X161610624Y-78275851D01*
X161410983Y-78193157D01*
X161199045Y-78151000D01*
X160982955Y-78151000D01*
X160771017Y-78193157D01*
X160571376Y-78275851D01*
X160391703Y-78395904D01*
X160238904Y-78548703D01*
X160118851Y-78728376D01*
X160036157Y-78928017D01*
X159994000Y-79139955D01*
X159994000Y-79189017D01*
X159832000Y-79027017D01*
X159832000Y-78929225D01*
X159833805Y-78910899D01*
X159826599Y-78837740D01*
X159812979Y-78792842D01*
X159805259Y-78767392D01*
X159770605Y-78702558D01*
X159723969Y-78645731D01*
X159709733Y-78634048D01*
X159043761Y-77968078D01*
X159032069Y-77953831D01*
X158975242Y-77907195D01*
X158910408Y-77872541D01*
X158840060Y-77851201D01*
X158785226Y-77845800D01*
X158785225Y-77845800D01*
X158766900Y-77843995D01*
X158748575Y-77845800D01*
X156860584Y-77845800D01*
X156351754Y-77336970D01*
X156416376Y-77380149D01*
X156616017Y-77462843D01*
X156827955Y-77505000D01*
X157044045Y-77505000D01*
X157255983Y-77462843D01*
X157406004Y-77400702D01*
X158892903Y-77400702D01*
X158964486Y-77644671D01*
X159219996Y-77765571D01*
X159494184Y-77834300D01*
X159776512Y-77848217D01*
X160056130Y-77806787D01*
X160322292Y-77711603D01*
X160447514Y-77644671D01*
X160519097Y-77400702D01*
X159706000Y-76587605D01*
X158892903Y-77400702D01*
X157406004Y-77400702D01*
X157455624Y-77380149D01*
X157635297Y-77260096D01*
X157788096Y-77107297D01*
X157908149Y-76927624D01*
X157990843Y-76727983D01*
X158033000Y-76516045D01*
X158033000Y-76478512D01*
X158265783Y-76478512D01*
X158307213Y-76758130D01*
X158402397Y-77024292D01*
X158469329Y-77149514D01*
X158713298Y-77221097D01*
X159526395Y-76408000D01*
X159885605Y-76408000D01*
X160698702Y-77221097D01*
X160942671Y-77149514D01*
X161063571Y-76894004D01*
X161132300Y-76619816D01*
X161146217Y-76337488D01*
X161140656Y-76299955D01*
X161379000Y-76299955D01*
X161379000Y-76516045D01*
X161421157Y-76727983D01*
X161503851Y-76927624D01*
X161623904Y-77107297D01*
X161776703Y-77260096D01*
X161956376Y-77380149D01*
X162156017Y-77462843D01*
X162367955Y-77505000D01*
X162584045Y-77505000D01*
X162795983Y-77462843D01*
X162995624Y-77380149D01*
X163175297Y-77260096D01*
X163328096Y-77107297D01*
X163448149Y-76927624D01*
X163530843Y-76727983D01*
X163573000Y-76516045D01*
X163573000Y-76299955D01*
X163530843Y-76088017D01*
X163448149Y-75888376D01*
X163328096Y-75708703D01*
X163175297Y-75555904D01*
X162995624Y-75435851D01*
X162795983Y-75353157D01*
X162584045Y-75311000D01*
X162367955Y-75311000D01*
X162156017Y-75353157D01*
X161956376Y-75435851D01*
X161776703Y-75555904D01*
X161623904Y-75708703D01*
X161503851Y-75888376D01*
X161421157Y-76088017D01*
X161379000Y-76299955D01*
X161140656Y-76299955D01*
X161104787Y-76057870D01*
X161009603Y-75791708D01*
X160942671Y-75666486D01*
X160698702Y-75594903D01*
X159885605Y-76408000D01*
X159526395Y-76408000D01*
X158713298Y-75594903D01*
X158469329Y-75666486D01*
X158348429Y-75921996D01*
X158279700Y-76196184D01*
X158265783Y-76478512D01*
X158033000Y-76478512D01*
X158033000Y-76299955D01*
X157990843Y-76088017D01*
X157908149Y-75888376D01*
X157788096Y-75708703D01*
X157635297Y-75555904D01*
X157455624Y-75435851D01*
X157255983Y-75353157D01*
X157044045Y-75311000D01*
X156827955Y-75311000D01*
X156616017Y-75353157D01*
X156416376Y-75435851D01*
X156236703Y-75555904D01*
X156083904Y-75708703D01*
X155963851Y-75888376D01*
X155881157Y-76088017D01*
X155839000Y-76299955D01*
X155839000Y-76516045D01*
X155881157Y-76727983D01*
X155963851Y-76927624D01*
X156007030Y-76992247D01*
X155250153Y-76235370D01*
X155220843Y-76088017D01*
X155138149Y-75888376D01*
X155018096Y-75708703D01*
X154865297Y-75555904D01*
X154685624Y-75435851D01*
X154485983Y-75353157D01*
X154274045Y-75311000D01*
X154057955Y-75311000D01*
X153846017Y-75353157D01*
X153646376Y-75435851D01*
X153466703Y-75555904D01*
X153313904Y-75708703D01*
X153193851Y-75888376D01*
X153111157Y-76088017D01*
X153069000Y-76299955D01*
X153069000Y-76516045D01*
X153111157Y-76727983D01*
X153193851Y-76927624D01*
X153313904Y-77107297D01*
X153466703Y-77260096D01*
X153646376Y-77380149D01*
X153846017Y-77462843D01*
X154057955Y-77505000D01*
X154274045Y-77505000D01*
X154485983Y-77462843D01*
X154685624Y-77380149D01*
X154865297Y-77260096D01*
X155018096Y-77107297D01*
X155037489Y-77078273D01*
X155805016Y-77845800D01*
X133539325Y-77845800D01*
X133521000Y-77843995D01*
X133502674Y-77845800D01*
X133447840Y-77851201D01*
X133377492Y-77872541D01*
X133312658Y-77907195D01*
X133255831Y-77953831D01*
X133244143Y-77968073D01*
X132958408Y-78253808D01*
X132811983Y-78193157D01*
X132600045Y-78151000D01*
X132383955Y-78151000D01*
X132172017Y-78193157D01*
X131972376Y-78275851D01*
X131792703Y-78395904D01*
X131639904Y-78548703D01*
X131519851Y-78728376D01*
X131437157Y-78928017D01*
X131395000Y-79139955D01*
X131395000Y-79356045D01*
X131437157Y-79567983D01*
X131519851Y-79767624D01*
X131639904Y-79947297D01*
X131792703Y-80100096D01*
X131972376Y-80220149D01*
X132172017Y-80302843D01*
X132383955Y-80345000D01*
X132600045Y-80345000D01*
X132811983Y-80302843D01*
X133011624Y-80220149D01*
X133191297Y-80100096D01*
X133344096Y-79947297D01*
X133464149Y-79767624D01*
X133546843Y-79567983D01*
X133589000Y-79356045D01*
X133589000Y-79139955D01*
X133546843Y-78928017D01*
X133486192Y-78781592D01*
X133675584Y-78592200D01*
X151682563Y-78592200D01*
X151682563Y-80048000D01*
X151688297Y-80106222D01*
X151705280Y-80162207D01*
X151732859Y-80213803D01*
X151769973Y-80259027D01*
X151815197Y-80296141D01*
X151866793Y-80323720D01*
X151922778Y-80340703D01*
X151981000Y-80346437D01*
X152412844Y-80346437D01*
X152413201Y-80350060D01*
X152434541Y-80420408D01*
X152469195Y-80485242D01*
X152515831Y-80542069D01*
X152572658Y-80588705D01*
X152637492Y-80623359D01*
X152707840Y-80644699D01*
X152762674Y-80650100D01*
X152762675Y-80650100D01*
X152781000Y-80651905D01*
X152799326Y-80650100D01*
X153242417Y-80650100D01*
X158822243Y-86229927D01*
X158833931Y-86244169D01*
X158890758Y-86290805D01*
X158955592Y-86325459D01*
X159025940Y-86346799D01*
X159095281Y-86353629D01*
X159109601Y-86400835D01*
X159211465Y-86591409D01*
X159348551Y-86758449D01*
X159515591Y-86895535D01*
X159642357Y-86963293D01*
X159617331Y-86983831D01*
X159605650Y-86998065D01*
X157584278Y-89019439D01*
X157570031Y-89031131D01*
X157523395Y-89087959D01*
X157488741Y-89152793D01*
X157480703Y-89179292D01*
X157467401Y-89223141D01*
X157460195Y-89296300D01*
X157462000Y-89314625D01*
X157462000Y-90262392D01*
X157376870Y-90347522D01*
X157288377Y-90089277D01*
X157009024Y-89954403D01*
X156708725Y-89876619D01*
X156399023Y-89858916D01*
X156091816Y-89901973D01*
X155798914Y-90004135D01*
X155639623Y-90089277D01*
X155551129Y-90347524D01*
X156464000Y-91260395D01*
X156478143Y-91246253D01*
X156657748Y-91425858D01*
X156643605Y-91440000D01*
X156657748Y-91454143D01*
X156478143Y-91633748D01*
X156464000Y-91619605D01*
X155551129Y-92532476D01*
X155639623Y-92790723D01*
X155859106Y-92896691D01*
X155675586Y-93019315D01*
X155503315Y-93191586D01*
X155367962Y-93394156D01*
X155274730Y-93619239D01*
X155227200Y-93858186D01*
X155227200Y-94101814D01*
X155274730Y-94340761D01*
X155367962Y-94565844D01*
X155503315Y-94768414D01*
X155675586Y-94940685D01*
X155878156Y-95076038D01*
X156103239Y-95169270D01*
X156342186Y-95216800D01*
X156585814Y-95216800D01*
X156824761Y-95169270D01*
X157049844Y-95076038D01*
X157252414Y-94940685D01*
X157424685Y-94768414D01*
X157560038Y-94565844D01*
X157653270Y-94340761D01*
X157700800Y-94101814D01*
X157700800Y-93858186D01*
X157653270Y-93619239D01*
X157565190Y-93406594D01*
X158086127Y-92885657D01*
X158100369Y-92873969D01*
X158147005Y-92817142D01*
X158181659Y-92752308D01*
X158202999Y-92681960D01*
X158208400Y-92627126D01*
X158210205Y-92608800D01*
X158208400Y-92590475D01*
X158208400Y-89450883D01*
X158725900Y-88933384D01*
X158725901Y-93730315D01*
X157037406Y-95418810D01*
X156824761Y-95330730D01*
X156585814Y-95283200D01*
X156342186Y-95283200D01*
X156103239Y-95330730D01*
X155878156Y-95423962D01*
X155675586Y-95559315D01*
X155503315Y-95731586D01*
X155367962Y-95934156D01*
X155274730Y-96159239D01*
X155227200Y-96398186D01*
X155227200Y-96641814D01*
X155274730Y-96880761D01*
X155367962Y-97105844D01*
X155503315Y-97308414D01*
X155675586Y-97480685D01*
X155878156Y-97616038D01*
X156103239Y-97709270D01*
X156342186Y-97756800D01*
X156585814Y-97756800D01*
X156824761Y-97709270D01*
X157049844Y-97616038D01*
X157252414Y-97480685D01*
X157424685Y-97308414D01*
X157560038Y-97105844D01*
X157653270Y-96880761D01*
X157700800Y-96641814D01*
X157700800Y-96398186D01*
X157653270Y-96159239D01*
X157644887Y-96139000D01*
X159025693Y-96139000D01*
X159046874Y-96354049D01*
X159109601Y-96560835D01*
X159211465Y-96751409D01*
X159348551Y-96918449D01*
X159515591Y-97055535D01*
X159706165Y-97157399D01*
X159912951Y-97220126D01*
X160074118Y-97236000D01*
X160981882Y-97236000D01*
X161143049Y-97220126D01*
X161349835Y-97157399D01*
X161540409Y-97055535D01*
X161707449Y-96918449D01*
X161844535Y-96751409D01*
X161946399Y-96560835D01*
X162009126Y-96354049D01*
X162030307Y-96139000D01*
X162009126Y-95923951D01*
X161946399Y-95717165D01*
X161844535Y-95526591D01*
X161707449Y-95359551D01*
X161540409Y-95222465D01*
X161349835Y-95120601D01*
X161143049Y-95057874D01*
X160981882Y-95042000D01*
X160074118Y-95042000D01*
X159912951Y-95057874D01*
X159706165Y-95120601D01*
X159515591Y-95222465D01*
X159348551Y-95359551D01*
X159211465Y-95526591D01*
X159109601Y-95717165D01*
X159046874Y-95923951D01*
X159025693Y-96139000D01*
X157644887Y-96139000D01*
X157565190Y-95946594D01*
X159251542Y-94260242D01*
X159348551Y-94378449D01*
X159515591Y-94515535D01*
X159706165Y-94617399D01*
X159912951Y-94680126D01*
X160074118Y-94696000D01*
X160981882Y-94696000D01*
X161143049Y-94680126D01*
X161349835Y-94617399D01*
X161540409Y-94515535D01*
X161707449Y-94378449D01*
X161844535Y-94211409D01*
X161946399Y-94020835D01*
X162009126Y-93814049D01*
X162030307Y-93599000D01*
X162009126Y-93383951D01*
X161946399Y-93177165D01*
X161844535Y-92986591D01*
X161707449Y-92819551D01*
X161540409Y-92682465D01*
X161349835Y-92580601D01*
X161143049Y-92517874D01*
X160981882Y-92502000D01*
X160074118Y-92502000D01*
X159912951Y-92517874D01*
X159706165Y-92580601D01*
X159515591Y-92682465D01*
X159472300Y-92717993D01*
X159472300Y-91940007D01*
X159515591Y-91975535D01*
X159706165Y-92077399D01*
X159912951Y-92140126D01*
X160074118Y-92156000D01*
X160981882Y-92156000D01*
X161143049Y-92140126D01*
X161349835Y-92077399D01*
X161540409Y-91975535D01*
X161707449Y-91838449D01*
X161844535Y-91671409D01*
X161946399Y-91480835D01*
X162009126Y-91274049D01*
X162030307Y-91059000D01*
X162009126Y-90843951D01*
X161946399Y-90637165D01*
X161844535Y-90446591D01*
X161707449Y-90279551D01*
X161540409Y-90142465D01*
X161349835Y-90040601D01*
X161143049Y-89977874D01*
X160981882Y-89962000D01*
X160074118Y-89962000D01*
X159912951Y-89977874D01*
X159706165Y-90040601D01*
X159515591Y-90142465D01*
X159472300Y-90177993D01*
X159472300Y-89400007D01*
X159515591Y-89435535D01*
X159706165Y-89537399D01*
X159912951Y-89600126D01*
X160074118Y-89616000D01*
X160981882Y-89616000D01*
X161143049Y-89600126D01*
X161349835Y-89537399D01*
X161540409Y-89435535D01*
X161707449Y-89298449D01*
X161844535Y-89131409D01*
X161946399Y-88940835D01*
X162009126Y-88734049D01*
X162030307Y-88519000D01*
X162009126Y-88303951D01*
X161946399Y-88097165D01*
X161844535Y-87906591D01*
X161707449Y-87739551D01*
X161540409Y-87602465D01*
X161379004Y-87516192D01*
X161381469Y-87514169D01*
X161393161Y-87499922D01*
X162207827Y-86685257D01*
X162222069Y-86673569D01*
X162268705Y-86616742D01*
X162303359Y-86551908D01*
X162324699Y-86481560D01*
X162330100Y-86426726D01*
X162331905Y-86408400D01*
X162330100Y-86390075D01*
X162330100Y-83457326D01*
X162331905Y-83439000D01*
X162328659Y-83406043D01*
X166345901Y-87423286D01*
X166345900Y-88500674D01*
X166344095Y-88519000D01*
X166351301Y-88592160D01*
X166372641Y-88662508D01*
X166407295Y-88727342D01*
X166453931Y-88784169D01*
X166510758Y-88830805D01*
X166575592Y-88865459D01*
X166645940Y-88886799D01*
X166715281Y-88893629D01*
X166729601Y-88940835D01*
X166831465Y-89131409D01*
X166968551Y-89298449D01*
X167135591Y-89435535D01*
X167326165Y-89537399D01*
X167532951Y-89600126D01*
X167694118Y-89616000D01*
X168601882Y-89616000D01*
X168763049Y-89600126D01*
X168969835Y-89537399D01*
X169160409Y-89435535D01*
X169203701Y-89400006D01*
X169203701Y-90177993D01*
X169160409Y-90142465D01*
X168969835Y-90040601D01*
X168763049Y-89977874D01*
X168601882Y-89962000D01*
X167694118Y-89962000D01*
X167532951Y-89977874D01*
X167326165Y-90040601D01*
X167135591Y-90142465D01*
X166968551Y-90279551D01*
X166831465Y-90446591D01*
X166729601Y-90637165D01*
X166666874Y-90843951D01*
X166645693Y-91059000D01*
X166666874Y-91274049D01*
X166729601Y-91480835D01*
X166831465Y-91671409D01*
X166968551Y-91838449D01*
X167135591Y-91975535D01*
X167326165Y-92077399D01*
X167532951Y-92140126D01*
X167694118Y-92156000D01*
X168601882Y-92156000D01*
X168763049Y-92140126D01*
X168969835Y-92077399D01*
X169160409Y-91975535D01*
X169203700Y-91940007D01*
X169203700Y-92717993D01*
X169160409Y-92682465D01*
X168969835Y-92580601D01*
X168763049Y-92517874D01*
X168601882Y-92502000D01*
X167694118Y-92502000D01*
X167532951Y-92517874D01*
X167326165Y-92580601D01*
X167135591Y-92682465D01*
X166968551Y-92819551D01*
X166831465Y-92986591D01*
X166729601Y-93177165D01*
X166666874Y-93383951D01*
X166645693Y-93599000D01*
X166666874Y-93814049D01*
X166729601Y-94020835D01*
X166831465Y-94211409D01*
X166968551Y-94378449D01*
X167135591Y-94515535D01*
X167326165Y-94617399D01*
X167532951Y-94680126D01*
X167694118Y-94696000D01*
X168601882Y-94696000D01*
X168763049Y-94680126D01*
X168969835Y-94617399D01*
X169160409Y-94515535D01*
X169327449Y-94378449D01*
X169464535Y-94211409D01*
X169515100Y-94116808D01*
X169515100Y-95621192D01*
X169464535Y-95526591D01*
X169327449Y-95359551D01*
X169160409Y-95222465D01*
X168969835Y-95120601D01*
X168763049Y-95057874D01*
X168601882Y-95042000D01*
X167694118Y-95042000D01*
X167532951Y-95057874D01*
X167326165Y-95120601D01*
X167135591Y-95222465D01*
X166968551Y-95359551D01*
X166831465Y-95526591D01*
X166729601Y-95717165D01*
X166715281Y-95764371D01*
X166700774Y-95765800D01*
X166645940Y-95771201D01*
X166575592Y-95792541D01*
X166510758Y-95827195D01*
X166453931Y-95873831D01*
X166442243Y-95888073D01*
X162373517Y-99956800D01*
X161592908Y-99956800D01*
X161594483Y-99956166D01*
X161830839Y-99801601D01*
X162032500Y-99603895D01*
X162191715Y-99370646D01*
X162302367Y-99110818D01*
X162319904Y-99028039D01*
X162197915Y-98806000D01*
X160655000Y-98806000D01*
X160655000Y-98826000D01*
X160401000Y-98826000D01*
X160401000Y-98806000D01*
X158858085Y-98806000D01*
X158736096Y-99028039D01*
X158753633Y-99110818D01*
X158864285Y-99370646D01*
X159023500Y-99603895D01*
X159225161Y-99801601D01*
X159461517Y-99956166D01*
X159463092Y-99956800D01*
X157316299Y-99956800D01*
X157424685Y-99848414D01*
X157560038Y-99645844D01*
X157653270Y-99420761D01*
X157700800Y-99181814D01*
X157700800Y-98938186D01*
X157653270Y-98699239D01*
X157560038Y-98474156D01*
X157463690Y-98329961D01*
X158736096Y-98329961D01*
X158858085Y-98552000D01*
X160401000Y-98552000D01*
X160401000Y-98532000D01*
X160655000Y-98532000D01*
X160655000Y-98552000D01*
X162197915Y-98552000D01*
X162319904Y-98329961D01*
X162302367Y-98247182D01*
X162191715Y-97987354D01*
X162032500Y-97754105D01*
X161830839Y-97556399D01*
X161594483Y-97401834D01*
X161332514Y-97296350D01*
X161055000Y-97244000D01*
X160001000Y-97244000D01*
X159723486Y-97296350D01*
X159461517Y-97401834D01*
X159225161Y-97556399D01*
X159023500Y-97754105D01*
X158864285Y-97987354D01*
X158753633Y-98247182D01*
X158736096Y-98329961D01*
X157463690Y-98329961D01*
X157424685Y-98271586D01*
X157252414Y-98099315D01*
X157049844Y-97963962D01*
X156824761Y-97870730D01*
X156585814Y-97823200D01*
X156342186Y-97823200D01*
X156103239Y-97870730D01*
X155878156Y-97963962D01*
X155675586Y-98099315D01*
X155503315Y-98271586D01*
X155367962Y-98474156D01*
X155274730Y-98699239D01*
X155227200Y-98938186D01*
X155227200Y-99181814D01*
X155274730Y-99420761D01*
X155367962Y-99645844D01*
X155503315Y-99848414D01*
X155611701Y-99956800D01*
X155212325Y-99956800D01*
X155193999Y-99954995D01*
X155175674Y-99956800D01*
X155120840Y-99962201D01*
X155050492Y-99983541D01*
X154985658Y-100018195D01*
X154928831Y-100064831D01*
X154917143Y-100079073D01*
X154497406Y-100498810D01*
X154284761Y-100410730D01*
X154045814Y-100363200D01*
X153802186Y-100363200D01*
X153563239Y-100410730D01*
X153338156Y-100503962D01*
X153135586Y-100639315D01*
X152963315Y-100811586D01*
X152827962Y-101014156D01*
X152734730Y-101239239D01*
X152687200Y-101478186D01*
X152687200Y-101721814D01*
X152734730Y-101960761D01*
X152827962Y-102185844D01*
X152963315Y-102388414D01*
X153135586Y-102560685D01*
X153338156Y-102696038D01*
X153563239Y-102789270D01*
X153802186Y-102836800D01*
X154045814Y-102836800D01*
X154284761Y-102789270D01*
X154509844Y-102696038D01*
X154712414Y-102560685D01*
X154884685Y-102388414D01*
X155020038Y-102185844D01*
X155113270Y-101960761D01*
X155160800Y-101721814D01*
X155160800Y-101478186D01*
X155113270Y-101239239D01*
X155025190Y-101026594D01*
X155348584Y-100703200D01*
X155611701Y-100703200D01*
X155503315Y-100811586D01*
X155367962Y-101014156D01*
X155274730Y-101239239D01*
X155227200Y-101478186D01*
X155227200Y-101721814D01*
X155274730Y-101960761D01*
X155367962Y-102185844D01*
X155503315Y-102388414D01*
X155675586Y-102560685D01*
X155878156Y-102696038D01*
X156103239Y-102789270D01*
X156342186Y-102836800D01*
X156585814Y-102836800D01*
X156824761Y-102789270D01*
X157049844Y-102696038D01*
X157252414Y-102560685D01*
X157424685Y-102388414D01*
X157560038Y-102185844D01*
X157653270Y-101960761D01*
X157700800Y-101721814D01*
X157700800Y-101478186D01*
X157653270Y-101239239D01*
X157560038Y-101014156D01*
X157424685Y-100811586D01*
X157316299Y-100703200D01*
X162509775Y-100703200D01*
X162528100Y-100705005D01*
X162546425Y-100703200D01*
X162546426Y-100703200D01*
X162601260Y-100697799D01*
X162671608Y-100676459D01*
X162736442Y-100641805D01*
X162793269Y-100595169D01*
X162804961Y-100580922D01*
X166762848Y-96623036D01*
X166831465Y-96751409D01*
X166968551Y-96918449D01*
X167135591Y-97055535D01*
X167326165Y-97157399D01*
X167532951Y-97220126D01*
X167694118Y-97236000D01*
X168601882Y-97236000D01*
X168763049Y-97220126D01*
X168969835Y-97157399D01*
X169160409Y-97055535D01*
X169327449Y-96918449D01*
X169464535Y-96751409D01*
X169515100Y-96656808D01*
X169515100Y-98161191D01*
X169464535Y-98066591D01*
X169327449Y-97899551D01*
X169160409Y-97762465D01*
X168969835Y-97660601D01*
X168763049Y-97597874D01*
X168601882Y-97582000D01*
X167694118Y-97582000D01*
X167532951Y-97597874D01*
X167326165Y-97660601D01*
X167135591Y-97762465D01*
X166968551Y-97899551D01*
X166831465Y-98066591D01*
X166729601Y-98257165D01*
X166666874Y-98463951D01*
X166645693Y-98679000D01*
X166666874Y-98894049D01*
X166729601Y-99100835D01*
X166831465Y-99291409D01*
X166968551Y-99458449D01*
X167135591Y-99595535D01*
X167326165Y-99697399D01*
X167532951Y-99760126D01*
X167694118Y-99776000D01*
X168601882Y-99776000D01*
X168763049Y-99760126D01*
X168969835Y-99697399D01*
X169160409Y-99595535D01*
X169327449Y-99458449D01*
X169464535Y-99291409D01*
X169566399Y-99100835D01*
X169580719Y-99053629D01*
X169595225Y-99052200D01*
X169595226Y-99052200D01*
X169650060Y-99046799D01*
X169720408Y-99025459D01*
X169785242Y-98990805D01*
X169842069Y-98944169D01*
X169853761Y-98929922D01*
X170087001Y-98696683D01*
X170087001Y-114410018D01*
X170050858Y-114778629D01*
X169948739Y-115116864D01*
X169782867Y-115428825D01*
X169559560Y-115702625D01*
X169287328Y-115927836D01*
X168976533Y-116095882D01*
X168639017Y-116200361D01*
X168271385Y-116239000D01*
X119070298Y-116239000D01*
X119214906Y-116210236D01*
X119460044Y-116108696D01*
X119680663Y-115961284D01*
X119868284Y-115773663D01*
X120015696Y-115553044D01*
X120117236Y-115307906D01*
X120160419Y-115090804D01*
X121558000Y-115090804D01*
X121558000Y-115287196D01*
X121596314Y-115479814D01*
X121671470Y-115661257D01*
X121780580Y-115824550D01*
X121919450Y-115963420D01*
X122082743Y-116072530D01*
X122264186Y-116147686D01*
X122456804Y-116186000D01*
X122653196Y-116186000D01*
X122845814Y-116147686D01*
X123027257Y-116072530D01*
X123190550Y-115963420D01*
X123329420Y-115824550D01*
X123438530Y-115661257D01*
X123513686Y-115479814D01*
X123552000Y-115287196D01*
X123552000Y-115090804D01*
X123513686Y-114898186D01*
X123472655Y-114799128D01*
X126138585Y-112133200D01*
X127339882Y-112133200D01*
X127427962Y-112345844D01*
X127563315Y-112548414D01*
X127671701Y-112656800D01*
X127526325Y-112656800D01*
X127507999Y-112654995D01*
X127489674Y-112656800D01*
X127434840Y-112662201D01*
X127364492Y-112683541D01*
X127299658Y-112718195D01*
X127242831Y-112764831D01*
X127231143Y-112779073D01*
X125738872Y-114271345D01*
X125639814Y-114230314D01*
X125447196Y-114192000D01*
X125250804Y-114192000D01*
X125058186Y-114230314D01*
X124876743Y-114305470D01*
X124713450Y-114414580D01*
X124574580Y-114553450D01*
X124465470Y-114716743D01*
X124390314Y-114898186D01*
X124352000Y-115090804D01*
X124352000Y-115287196D01*
X124390314Y-115479814D01*
X124465470Y-115661257D01*
X124574580Y-115824550D01*
X124713450Y-115963420D01*
X124876743Y-116072530D01*
X125058186Y-116147686D01*
X125250804Y-116186000D01*
X125447196Y-116186000D01*
X125639814Y-116147686D01*
X125821257Y-116072530D01*
X125984550Y-115963420D01*
X126123420Y-115824550D01*
X126232530Y-115661257D01*
X126307686Y-115479814D01*
X126346000Y-115287196D01*
X126346000Y-115090804D01*
X126307686Y-114898186D01*
X126266655Y-114799128D01*
X127662584Y-113403200D01*
X127671701Y-113403200D01*
X127563315Y-113511586D01*
X127427962Y-113714156D01*
X127334730Y-113939239D01*
X127287200Y-114178186D01*
X127287200Y-114421814D01*
X127334730Y-114660761D01*
X127427962Y-114885844D01*
X127563315Y-115088414D01*
X127735586Y-115260685D01*
X127938156Y-115396038D01*
X128163239Y-115489270D01*
X128402186Y-115536800D01*
X128645814Y-115536800D01*
X128884761Y-115489270D01*
X129109844Y-115396038D01*
X129312414Y-115260685D01*
X129484685Y-115088414D01*
X129620038Y-114885844D01*
X129713270Y-114660761D01*
X129760800Y-114421814D01*
X129760800Y-114178186D01*
X129713270Y-113939239D01*
X129620038Y-113714156D01*
X129484685Y-113511586D01*
X129376299Y-113403200D01*
X129775675Y-113403200D01*
X129794000Y-113405005D01*
X129812325Y-113403200D01*
X129812326Y-113403200D01*
X129825763Y-113401876D01*
X129825763Y-115239800D01*
X129831497Y-115298022D01*
X129848480Y-115354007D01*
X129876059Y-115405603D01*
X129913173Y-115450827D01*
X129958397Y-115487941D01*
X130009993Y-115515520D01*
X130065978Y-115532503D01*
X130124200Y-115538237D01*
X132003800Y-115538237D01*
X132062022Y-115532503D01*
X132118007Y-115515520D01*
X132169603Y-115487941D01*
X132214827Y-115450827D01*
X132251941Y-115405603D01*
X132279520Y-115354007D01*
X132296503Y-115298022D01*
X132302237Y-115239800D01*
X132302237Y-114178186D01*
X152687200Y-114178186D01*
X152687200Y-114421814D01*
X152734730Y-114660761D01*
X152827962Y-114885844D01*
X152963315Y-115088414D01*
X153135586Y-115260685D01*
X153338156Y-115396038D01*
X153563239Y-115489270D01*
X153802186Y-115536800D01*
X154045814Y-115536800D01*
X154284761Y-115489270D01*
X154509844Y-115396038D01*
X154712414Y-115260685D01*
X154884685Y-115088414D01*
X155020038Y-114885844D01*
X155113270Y-114660761D01*
X155160800Y-114421814D01*
X155160800Y-114178186D01*
X155113270Y-113939239D01*
X155020038Y-113714156D01*
X154884685Y-113511586D01*
X154733299Y-113360200D01*
X155225763Y-113360200D01*
X155225763Y-115239800D01*
X155231497Y-115298022D01*
X155248480Y-115354007D01*
X155276059Y-115405603D01*
X155313173Y-115450827D01*
X155358397Y-115487941D01*
X155409993Y-115515520D01*
X155465978Y-115532503D01*
X155524200Y-115538237D01*
X157403800Y-115538237D01*
X157462022Y-115532503D01*
X157518007Y-115515520D01*
X157569603Y-115487941D01*
X157614827Y-115450827D01*
X157651941Y-115405603D01*
X157679520Y-115354007D01*
X157696503Y-115298022D01*
X157702237Y-115239800D01*
X157702237Y-113360200D01*
X157696503Y-113301978D01*
X157679520Y-113245993D01*
X157651941Y-113194397D01*
X157614827Y-113149173D01*
X157569603Y-113112059D01*
X157518007Y-113084480D01*
X157462022Y-113067497D01*
X157403800Y-113061763D01*
X155524200Y-113061763D01*
X155465978Y-113067497D01*
X155409993Y-113084480D01*
X155358397Y-113112059D01*
X155313173Y-113149173D01*
X155276059Y-113194397D01*
X155248480Y-113245993D01*
X155231497Y-113301978D01*
X155225763Y-113360200D01*
X154733299Y-113360200D01*
X154712414Y-113339315D01*
X154509844Y-113203962D01*
X154284761Y-113110730D01*
X154045814Y-113063200D01*
X153802186Y-113063200D01*
X153563239Y-113110730D01*
X153338156Y-113203962D01*
X153135586Y-113339315D01*
X152963315Y-113511586D01*
X152827962Y-113714156D01*
X152734730Y-113939239D01*
X152687200Y-114178186D01*
X132302237Y-114178186D01*
X132302237Y-113360200D01*
X132296503Y-113301978D01*
X132279520Y-113245993D01*
X132251941Y-113194397D01*
X132214827Y-113149173D01*
X132169603Y-113112059D01*
X132118007Y-113084480D01*
X132062022Y-113067497D01*
X132003800Y-113061763D01*
X130290020Y-113061763D01*
X130490594Y-112861190D01*
X130703239Y-112949270D01*
X130942186Y-112996800D01*
X131185814Y-112996800D01*
X131424761Y-112949270D01*
X131649844Y-112856038D01*
X131852414Y-112720685D01*
X132024685Y-112548414D01*
X132160038Y-112345844D01*
X132253270Y-112120761D01*
X132300800Y-111881814D01*
X132300800Y-111638186D01*
X152687200Y-111638186D01*
X152687200Y-111881814D01*
X152734730Y-112120761D01*
X152827962Y-112345844D01*
X152963315Y-112548414D01*
X153135586Y-112720685D01*
X153338156Y-112856038D01*
X153563239Y-112949270D01*
X153802186Y-112996800D01*
X154045814Y-112996800D01*
X154284761Y-112949270D01*
X154509844Y-112856038D01*
X154712414Y-112720685D01*
X154884685Y-112548414D01*
X155020038Y-112345844D01*
X155113270Y-112120761D01*
X155160800Y-111881814D01*
X155160800Y-111638186D01*
X155227200Y-111638186D01*
X155227200Y-111881814D01*
X155274730Y-112120761D01*
X155367962Y-112345844D01*
X155503315Y-112548414D01*
X155675586Y-112720685D01*
X155878156Y-112856038D01*
X156103239Y-112949270D01*
X156342186Y-112996800D01*
X156585814Y-112996800D01*
X156824761Y-112949270D01*
X157049844Y-112856038D01*
X157252414Y-112720685D01*
X157424685Y-112548414D01*
X157560038Y-112345844D01*
X157653270Y-112120761D01*
X157668936Y-112042000D01*
X158479563Y-112042000D01*
X158479563Y-115542000D01*
X158485297Y-115600222D01*
X158502280Y-115656207D01*
X158529859Y-115707803D01*
X158566973Y-115753027D01*
X158612197Y-115790141D01*
X158663793Y-115817720D01*
X158719778Y-115834703D01*
X158778000Y-115840437D01*
X162278000Y-115840437D01*
X162336222Y-115834703D01*
X162392207Y-115817720D01*
X162443803Y-115790141D01*
X162489027Y-115753027D01*
X162526141Y-115707803D01*
X162553720Y-115656207D01*
X162570703Y-115600222D01*
X162576437Y-115542000D01*
X164389928Y-115542000D01*
X164402188Y-115666482D01*
X164438498Y-115786180D01*
X164497463Y-115896494D01*
X164576815Y-115993185D01*
X164673506Y-116072537D01*
X164783820Y-116131502D01*
X164903518Y-116167812D01*
X165028000Y-116180072D01*
X166242250Y-116177000D01*
X166401000Y-116018250D01*
X166401000Y-113919000D01*
X166655000Y-113919000D01*
X166655000Y-116018250D01*
X166813750Y-116177000D01*
X168028000Y-116180072D01*
X168152482Y-116167812D01*
X168272180Y-116131502D01*
X168382494Y-116072537D01*
X168479185Y-115993185D01*
X168558537Y-115896494D01*
X168617502Y-115786180D01*
X168653812Y-115666482D01*
X168666072Y-115542000D01*
X168663000Y-114077750D01*
X168504250Y-113919000D01*
X166655000Y-113919000D01*
X166401000Y-113919000D01*
X164551750Y-113919000D01*
X164393000Y-114077750D01*
X164389928Y-115542000D01*
X162576437Y-115542000D01*
X162576437Y-112042000D01*
X164389928Y-112042000D01*
X164393000Y-113506250D01*
X164551750Y-113665000D01*
X166401000Y-113665000D01*
X166401000Y-111565750D01*
X166655000Y-111565750D01*
X166655000Y-113665000D01*
X168504250Y-113665000D01*
X168663000Y-113506250D01*
X168666072Y-112042000D01*
X168653812Y-111917518D01*
X168617502Y-111797820D01*
X168558537Y-111687506D01*
X168479185Y-111590815D01*
X168382494Y-111511463D01*
X168272180Y-111452498D01*
X168152482Y-111416188D01*
X168028000Y-111403928D01*
X166813750Y-111407000D01*
X166655000Y-111565750D01*
X166401000Y-111565750D01*
X166242250Y-111407000D01*
X165028000Y-111403928D01*
X164903518Y-111416188D01*
X164783820Y-111452498D01*
X164673506Y-111511463D01*
X164576815Y-111590815D01*
X164497463Y-111687506D01*
X164438498Y-111797820D01*
X164402188Y-111917518D01*
X164389928Y-112042000D01*
X162576437Y-112042000D01*
X162570703Y-111983778D01*
X162553720Y-111927793D01*
X162526141Y-111876197D01*
X162489027Y-111830973D01*
X162443803Y-111793859D01*
X162392207Y-111766280D01*
X162336222Y-111749297D01*
X162278000Y-111743563D01*
X158778000Y-111743563D01*
X158719778Y-111749297D01*
X158663793Y-111766280D01*
X158612197Y-111793859D01*
X158566973Y-111830973D01*
X158529859Y-111876197D01*
X158502280Y-111927793D01*
X158485297Y-111983778D01*
X158479563Y-112042000D01*
X157668936Y-112042000D01*
X157700800Y-111881814D01*
X157700800Y-111638186D01*
X157653270Y-111399239D01*
X157560038Y-111174156D01*
X157424685Y-110971586D01*
X157252414Y-110799315D01*
X157049844Y-110663962D01*
X156824761Y-110570730D01*
X156585814Y-110523200D01*
X156342186Y-110523200D01*
X156103239Y-110570730D01*
X155878156Y-110663962D01*
X155675586Y-110799315D01*
X155503315Y-110971586D01*
X155367962Y-111174156D01*
X155274730Y-111399239D01*
X155227200Y-111638186D01*
X155160800Y-111638186D01*
X155113270Y-111399239D01*
X155020038Y-111174156D01*
X154884685Y-110971586D01*
X154712414Y-110799315D01*
X154509844Y-110663962D01*
X154284761Y-110570730D01*
X154045814Y-110523200D01*
X153802186Y-110523200D01*
X153563239Y-110570730D01*
X153338156Y-110663962D01*
X153135586Y-110799315D01*
X152963315Y-110971586D01*
X152827962Y-111174156D01*
X152734730Y-111399239D01*
X152687200Y-111638186D01*
X132300800Y-111638186D01*
X132253270Y-111399239D01*
X132160038Y-111174156D01*
X132024685Y-110971586D01*
X131852414Y-110799315D01*
X131649844Y-110663962D01*
X131424761Y-110570730D01*
X131185814Y-110523200D01*
X130942186Y-110523200D01*
X130703239Y-110570730D01*
X130478156Y-110663962D01*
X130275586Y-110799315D01*
X130103315Y-110971586D01*
X129967962Y-111174156D01*
X129874730Y-111399239D01*
X129827200Y-111638186D01*
X129827200Y-111881814D01*
X129874730Y-112120761D01*
X129962810Y-112333406D01*
X129639417Y-112656800D01*
X129376299Y-112656800D01*
X129484685Y-112548414D01*
X129620038Y-112345844D01*
X129713270Y-112120761D01*
X129760800Y-111881814D01*
X129760800Y-111638186D01*
X129713270Y-111399239D01*
X129620038Y-111174156D01*
X129484685Y-110971586D01*
X129312414Y-110799315D01*
X129109844Y-110663962D01*
X128884761Y-110570730D01*
X128645814Y-110523200D01*
X128402186Y-110523200D01*
X128163239Y-110570730D01*
X127938156Y-110663962D01*
X127735586Y-110799315D01*
X127563315Y-110971586D01*
X127427962Y-111174156D01*
X127339882Y-111386800D01*
X126002325Y-111386800D01*
X125983999Y-111384995D01*
X125965674Y-111386800D01*
X125910840Y-111392201D01*
X125840492Y-111413541D01*
X125775658Y-111448195D01*
X125718831Y-111494831D01*
X125707148Y-111509067D01*
X122944872Y-114271345D01*
X122845814Y-114230314D01*
X122653196Y-114192000D01*
X122456804Y-114192000D01*
X122264186Y-114230314D01*
X122082743Y-114305470D01*
X121919450Y-114414580D01*
X121780580Y-114553450D01*
X121671470Y-114716743D01*
X121596314Y-114898186D01*
X121558000Y-115090804D01*
X120160419Y-115090804D01*
X120169000Y-115047668D01*
X120169000Y-114782332D01*
X120117236Y-114522094D01*
X120015696Y-114276956D01*
X119868284Y-114056337D01*
X119680663Y-113868716D01*
X119460044Y-113721304D01*
X119214906Y-113619764D01*
X118954668Y-113568000D01*
X118689332Y-113568000D01*
X118429094Y-113619764D01*
X118183956Y-113721304D01*
X117963337Y-113868716D01*
X117795603Y-114036450D01*
X117831855Y-113894474D01*
X117847804Y-113597457D01*
X117805501Y-113303037D01*
X117706572Y-113022526D01*
X117629868Y-112879025D01*
X117378240Y-112798365D01*
X116511605Y-113665000D01*
X117378240Y-114531635D01*
X117544947Y-114478197D01*
X117526764Y-114522094D01*
X117475000Y-114782332D01*
X117475000Y-115047668D01*
X117526764Y-115307906D01*
X117628304Y-115553044D01*
X117775716Y-115773663D01*
X117963337Y-115961284D01*
X118183956Y-116108696D01*
X118429094Y-116210236D01*
X118573702Y-116239000D01*
X116983972Y-116239000D01*
X116615371Y-116202858D01*
X116277136Y-116100739D01*
X115965175Y-115934867D01*
X115691375Y-115711560D01*
X115466164Y-115439328D01*
X115298118Y-115128533D01*
X115193639Y-114791017D01*
X115185255Y-114711240D01*
X115465365Y-114711240D01*
X115546025Y-114962868D01*
X115814329Y-115091267D01*
X116102526Y-115164855D01*
X116399543Y-115180804D01*
X116693963Y-115138501D01*
X116974474Y-115039572D01*
X117117975Y-114962868D01*
X117198635Y-114711240D01*
X116332000Y-113844605D01*
X115465365Y-114711240D01*
X115185255Y-114711240D01*
X115162215Y-114492032D01*
X115285760Y-114531635D01*
X116152395Y-113665000D01*
X115285760Y-112798365D01*
X115155000Y-112840280D01*
X115155000Y-112618760D01*
X115465365Y-112618760D01*
X116332000Y-113485395D01*
X117198635Y-112618760D01*
X117117975Y-112367132D01*
X116849671Y-112238733D01*
X116561474Y-112165145D01*
X116264457Y-112149196D01*
X115970037Y-112191499D01*
X115689526Y-112290428D01*
X115546025Y-112367132D01*
X115465365Y-112618760D01*
X115155000Y-112618760D01*
X115155000Y-109049568D01*
X115160000Y-109049568D01*
X115160000Y-109280432D01*
X115205039Y-109506860D01*
X115293387Y-109720150D01*
X115421648Y-109912107D01*
X115584893Y-110075352D01*
X115776850Y-110203613D01*
X115990140Y-110291961D01*
X116216568Y-110337000D01*
X116447432Y-110337000D01*
X116673860Y-110291961D01*
X116887150Y-110203613D01*
X117079107Y-110075352D01*
X117242352Y-109912107D01*
X117370613Y-109720150D01*
X117458961Y-109506860D01*
X117504000Y-109280432D01*
X117504000Y-109049568D01*
X117458961Y-108823140D01*
X117370613Y-108609850D01*
X117242352Y-108417893D01*
X117079107Y-108254648D01*
X116887150Y-108126387D01*
X116673860Y-108038039D01*
X116447432Y-107993000D01*
X116216568Y-107993000D01*
X115990140Y-108038039D01*
X115776850Y-108126387D01*
X115584893Y-108254648D01*
X115421648Y-108417893D01*
X115293387Y-108609850D01*
X115205039Y-108823140D01*
X115160000Y-109049568D01*
X115155000Y-109049568D01*
X115155000Y-107772332D01*
X117475000Y-107772332D01*
X117475000Y-108037668D01*
X117526764Y-108297906D01*
X117628304Y-108543044D01*
X117775716Y-108763663D01*
X117963337Y-108951284D01*
X118183956Y-109098696D01*
X118429094Y-109200236D01*
X118689332Y-109252000D01*
X118954668Y-109252000D01*
X119214906Y-109200236D01*
X119460044Y-109098696D01*
X119460807Y-109098186D01*
X127287200Y-109098186D01*
X127287200Y-109341814D01*
X127334730Y-109580761D01*
X127427962Y-109805844D01*
X127563315Y-110008414D01*
X127735586Y-110180685D01*
X127938156Y-110316038D01*
X128163239Y-110409270D01*
X128402186Y-110456800D01*
X128645814Y-110456800D01*
X128884761Y-110409270D01*
X129109844Y-110316038D01*
X129312414Y-110180685D01*
X129484685Y-110008414D01*
X129620038Y-109805844D01*
X129713270Y-109580761D01*
X129760800Y-109341814D01*
X129760800Y-109098186D01*
X129827200Y-109098186D01*
X129827200Y-109341814D01*
X129874730Y-109580761D01*
X129967962Y-109805844D01*
X130103315Y-110008414D01*
X130275586Y-110180685D01*
X130478156Y-110316038D01*
X130703239Y-110409270D01*
X130942186Y-110456800D01*
X131185814Y-110456800D01*
X131424761Y-110409270D01*
X131649844Y-110316038D01*
X131852414Y-110180685D01*
X132024685Y-110008414D01*
X132160038Y-109805844D01*
X132253270Y-109580761D01*
X132300800Y-109341814D01*
X132300800Y-109098186D01*
X132253270Y-108859239D01*
X132160038Y-108634156D01*
X132024685Y-108431586D01*
X131852414Y-108259315D01*
X131649844Y-108123962D01*
X131424761Y-108030730D01*
X131185814Y-107983200D01*
X130942186Y-107983200D01*
X130703239Y-108030730D01*
X130478156Y-108123962D01*
X130275586Y-108259315D01*
X130103315Y-108431586D01*
X129967962Y-108634156D01*
X129874730Y-108859239D01*
X129827200Y-109098186D01*
X129760800Y-109098186D01*
X129713270Y-108859239D01*
X129620038Y-108634156D01*
X129484685Y-108431586D01*
X129312414Y-108259315D01*
X129109844Y-108123962D01*
X128884761Y-108030730D01*
X128645814Y-107983200D01*
X128402186Y-107983200D01*
X128163239Y-108030730D01*
X127938156Y-108123962D01*
X127735586Y-108259315D01*
X127563315Y-108431586D01*
X127427962Y-108634156D01*
X127334730Y-108859239D01*
X127287200Y-109098186D01*
X119460807Y-109098186D01*
X119680663Y-108951284D01*
X119868284Y-108763663D01*
X120015696Y-108543044D01*
X120117236Y-108297906D01*
X120169000Y-108037668D01*
X120169000Y-107772332D01*
X120128556Y-107569000D01*
X121553176Y-107569000D01*
X121572426Y-107764446D01*
X121629435Y-107952381D01*
X121722014Y-108125584D01*
X121846603Y-108277397D01*
X121998416Y-108401986D01*
X122171619Y-108494565D01*
X122359554Y-108551574D01*
X122506022Y-108566000D01*
X122603978Y-108566000D01*
X122750446Y-108551574D01*
X122938381Y-108494565D01*
X123111584Y-108401986D01*
X123263397Y-108277397D01*
X123387986Y-108125584D01*
X123480565Y-107952381D01*
X123537574Y-107764446D01*
X123556824Y-107569000D01*
X124347176Y-107569000D01*
X124366426Y-107764446D01*
X124423435Y-107952381D01*
X124516014Y-108125584D01*
X124640603Y-108277397D01*
X124792416Y-108401986D01*
X124965619Y-108494565D01*
X125153554Y-108551574D01*
X125300022Y-108566000D01*
X125397978Y-108566000D01*
X125544446Y-108551574D01*
X125732381Y-108494565D01*
X125905584Y-108401986D01*
X126057397Y-108277397D01*
X126181986Y-108125584D01*
X126274565Y-107952381D01*
X126331574Y-107764446D01*
X126350824Y-107569000D01*
X126331574Y-107373554D01*
X126274565Y-107185619D01*
X126181986Y-107012416D01*
X126057397Y-106860603D01*
X125905584Y-106736014D01*
X125732381Y-106643435D01*
X125544446Y-106586426D01*
X125397978Y-106572000D01*
X125300022Y-106572000D01*
X125153554Y-106586426D01*
X124965619Y-106643435D01*
X124792416Y-106736014D01*
X124640603Y-106860603D01*
X124516014Y-107012416D01*
X124423435Y-107185619D01*
X124366426Y-107373554D01*
X124347176Y-107569000D01*
X123556824Y-107569000D01*
X123537574Y-107373554D01*
X123480565Y-107185619D01*
X123387986Y-107012416D01*
X123263397Y-106860603D01*
X123111584Y-106736014D01*
X122938381Y-106643435D01*
X122750446Y-106586426D01*
X122603978Y-106572000D01*
X122506022Y-106572000D01*
X122359554Y-106586426D01*
X122171619Y-106643435D01*
X121998416Y-106736014D01*
X121846603Y-106860603D01*
X121722014Y-107012416D01*
X121629435Y-107185619D01*
X121572426Y-107373554D01*
X121553176Y-107569000D01*
X120128556Y-107569000D01*
X120117236Y-107512094D01*
X120015696Y-107266956D01*
X119868284Y-107046337D01*
X119680663Y-106858716D01*
X119460044Y-106711304D01*
X119214906Y-106609764D01*
X118955604Y-106558186D01*
X127287200Y-106558186D01*
X127287200Y-106801814D01*
X127334730Y-107040761D01*
X127427962Y-107265844D01*
X127563315Y-107468414D01*
X127735586Y-107640685D01*
X127938156Y-107776038D01*
X128163239Y-107869270D01*
X128402186Y-107916800D01*
X128645814Y-107916800D01*
X128884761Y-107869270D01*
X129109844Y-107776038D01*
X129312414Y-107640685D01*
X129484685Y-107468414D01*
X129620038Y-107265844D01*
X129713270Y-107040761D01*
X129760800Y-106801814D01*
X129760800Y-106558186D01*
X129713270Y-106319239D01*
X129620038Y-106094156D01*
X129484685Y-105891586D01*
X129312414Y-105719315D01*
X129109844Y-105583962D01*
X128884761Y-105490730D01*
X128645814Y-105443200D01*
X128402186Y-105443200D01*
X128163239Y-105490730D01*
X127938156Y-105583962D01*
X127735586Y-105719315D01*
X127563315Y-105891586D01*
X127427962Y-106094156D01*
X127334730Y-106319239D01*
X127287200Y-106558186D01*
X118955604Y-106558186D01*
X118954668Y-106558000D01*
X118689332Y-106558000D01*
X118429094Y-106609764D01*
X118183956Y-106711304D01*
X117963337Y-106858716D01*
X117775716Y-107046337D01*
X117628304Y-107266956D01*
X117526764Y-107512094D01*
X117475000Y-107772332D01*
X115155000Y-107772332D01*
X115155000Y-102981000D01*
X116344928Y-102981000D01*
X116357188Y-103105482D01*
X116393498Y-103225180D01*
X116452463Y-103335494D01*
X116531815Y-103432185D01*
X116628506Y-103511537D01*
X116738820Y-103570502D01*
X116858518Y-103606812D01*
X116983000Y-103619072D01*
X117050984Y-103618780D01*
X116975554Y-103694210D01*
X116833613Y-103906640D01*
X116735843Y-104142679D01*
X116686000Y-104393257D01*
X116686000Y-104648743D01*
X116735843Y-104899321D01*
X116833613Y-105135360D01*
X116975554Y-105347790D01*
X117156210Y-105528446D01*
X117368640Y-105670387D01*
X117604679Y-105768157D01*
X117855257Y-105818000D01*
X118110743Y-105818000D01*
X118361321Y-105768157D01*
X118597360Y-105670387D01*
X118809790Y-105528446D01*
X118990446Y-105347790D01*
X119132387Y-105135360D01*
X119230157Y-104899321D01*
X119280000Y-104648743D01*
X119280000Y-104393257D01*
X119230157Y-104142679D01*
X119132387Y-103906640D01*
X118990446Y-103694210D01*
X118915016Y-103618780D01*
X118983000Y-103619072D01*
X119107482Y-103606812D01*
X119227180Y-103570502D01*
X119337494Y-103511537D01*
X119434185Y-103432185D01*
X119513537Y-103335494D01*
X119572502Y-103225180D01*
X119608812Y-103105482D01*
X119621072Y-102981000D01*
X122440928Y-102981000D01*
X122453188Y-103105482D01*
X122489498Y-103225180D01*
X122548463Y-103335494D01*
X122627815Y-103432185D01*
X122724506Y-103511537D01*
X122834820Y-103570502D01*
X122954518Y-103606812D01*
X123079000Y-103619072D01*
X123146984Y-103618780D01*
X123071554Y-103694210D01*
X122929613Y-103906640D01*
X122831843Y-104142679D01*
X122782000Y-104393257D01*
X122782000Y-104648743D01*
X122831843Y-104899321D01*
X122929613Y-105135360D01*
X123071554Y-105347790D01*
X123252210Y-105528446D01*
X123464640Y-105670387D01*
X123700679Y-105768157D01*
X123951257Y-105818000D01*
X124206743Y-105818000D01*
X124457321Y-105768157D01*
X124693360Y-105670387D01*
X124905790Y-105528446D01*
X125086446Y-105347790D01*
X125228387Y-105135360D01*
X125326157Y-104899321D01*
X125376000Y-104648743D01*
X125376000Y-104393257D01*
X125326157Y-104142679D01*
X125228387Y-103906640D01*
X125086446Y-103694210D01*
X125011016Y-103618780D01*
X125079000Y-103619072D01*
X125203482Y-103606812D01*
X125323180Y-103570502D01*
X125433494Y-103511537D01*
X125530185Y-103432185D01*
X125609537Y-103335494D01*
X125668502Y-103225180D01*
X125704812Y-103105482D01*
X125717072Y-102981000D01*
X125714000Y-102266750D01*
X125555250Y-102108000D01*
X124206000Y-102108000D01*
X124206000Y-102128000D01*
X123952000Y-102128000D01*
X123952000Y-102108000D01*
X122602750Y-102108000D01*
X122444000Y-102266750D01*
X122440928Y-102981000D01*
X119621072Y-102981000D01*
X119618000Y-102266750D01*
X119459250Y-102108000D01*
X118110000Y-102108000D01*
X118110000Y-102128000D01*
X117856000Y-102128000D01*
X117856000Y-102108000D01*
X116506750Y-102108000D01*
X116348000Y-102266750D01*
X116344928Y-102981000D01*
X115155000Y-102981000D01*
X115155000Y-100981000D01*
X116344928Y-100981000D01*
X116348000Y-101695250D01*
X116506750Y-101854000D01*
X117856000Y-101854000D01*
X117856000Y-100504750D01*
X118110000Y-100504750D01*
X118110000Y-101854000D01*
X119459250Y-101854000D01*
X119618000Y-101695250D01*
X119621072Y-100981000D01*
X119608812Y-100856518D01*
X119572502Y-100736820D01*
X119513537Y-100626506D01*
X119434185Y-100529815D01*
X119337494Y-100450463D01*
X119227180Y-100391498D01*
X119107482Y-100355188D01*
X118983000Y-100342928D01*
X118268750Y-100346000D01*
X118110000Y-100504750D01*
X117856000Y-100504750D01*
X117697250Y-100346000D01*
X116983000Y-100342928D01*
X116858518Y-100355188D01*
X116738820Y-100391498D01*
X116628506Y-100450463D01*
X116531815Y-100529815D01*
X116452463Y-100626506D01*
X116393498Y-100736820D01*
X116357188Y-100856518D01*
X116344928Y-100981000D01*
X115155000Y-100981000D01*
X115155000Y-99028039D01*
X115302096Y-99028039D01*
X115319633Y-99110818D01*
X115430285Y-99370646D01*
X115589500Y-99603895D01*
X115791161Y-99801601D01*
X116027517Y-99956166D01*
X116289486Y-100061650D01*
X116567000Y-100114000D01*
X116967000Y-100114000D01*
X116967000Y-98806000D01*
X117221000Y-98806000D01*
X117221000Y-100114000D01*
X117621000Y-100114000D01*
X117898514Y-100061650D01*
X118160483Y-99956166D01*
X118396839Y-99801601D01*
X118598500Y-99603895D01*
X118757715Y-99370646D01*
X118868367Y-99110818D01*
X118885904Y-99028039D01*
X118763915Y-98806000D01*
X117221000Y-98806000D01*
X116967000Y-98806000D01*
X115424085Y-98806000D01*
X115302096Y-99028039D01*
X115155000Y-99028039D01*
X115155000Y-98329961D01*
X115302096Y-98329961D01*
X115424085Y-98552000D01*
X116967000Y-98552000D01*
X116967000Y-98532000D01*
X117221000Y-98532000D01*
X117221000Y-98552000D01*
X118763915Y-98552000D01*
X118885904Y-98329961D01*
X118868367Y-98247182D01*
X118757715Y-97987354D01*
X118598500Y-97754105D01*
X118396839Y-97556399D01*
X118160483Y-97401834D01*
X117898514Y-97296350D01*
X117621000Y-97244000D01*
X116567000Y-97244000D01*
X116289486Y-97296350D01*
X116027517Y-97401834D01*
X115791161Y-97556399D01*
X115589500Y-97754105D01*
X115430285Y-97987354D01*
X115319633Y-98247182D01*
X115302096Y-98329961D01*
X115155000Y-98329961D01*
X115155000Y-96139000D01*
X115591693Y-96139000D01*
X115612874Y-96354049D01*
X115675601Y-96560835D01*
X115777465Y-96751409D01*
X115914551Y-96918449D01*
X116081591Y-97055535D01*
X116272165Y-97157399D01*
X116478951Y-97220126D01*
X116640118Y-97236000D01*
X117547882Y-97236000D01*
X117709049Y-97220126D01*
X117915835Y-97157399D01*
X118106409Y-97055535D01*
X118273449Y-96918449D01*
X118410535Y-96751409D01*
X118512399Y-96560835D01*
X118575126Y-96354049D01*
X118596307Y-96139000D01*
X118575126Y-95923951D01*
X118512399Y-95717165D01*
X118410535Y-95526591D01*
X118273449Y-95359551D01*
X118106409Y-95222465D01*
X117915835Y-95120601D01*
X117709049Y-95057874D01*
X117547882Y-95042000D01*
X116640118Y-95042000D01*
X116478951Y-95057874D01*
X116272165Y-95120601D01*
X116081591Y-95222465D01*
X115914551Y-95359551D01*
X115777465Y-95526591D01*
X115675601Y-95717165D01*
X115612874Y-95923951D01*
X115591693Y-96139000D01*
X115155000Y-96139000D01*
X115155000Y-91059000D01*
X115591693Y-91059000D01*
X115612874Y-91274049D01*
X115675601Y-91480835D01*
X115777465Y-91671409D01*
X115914551Y-91838449D01*
X116081591Y-91975535D01*
X116272165Y-92077399D01*
X116478951Y-92140126D01*
X116640118Y-92156000D01*
X117547882Y-92156000D01*
X117709049Y-92140126D01*
X117915835Y-92077399D01*
X118106409Y-91975535D01*
X118273449Y-91838449D01*
X118410535Y-91671409D01*
X118512399Y-91480835D01*
X118575126Y-91274049D01*
X118596307Y-91059000D01*
X118575126Y-90843951D01*
X118512399Y-90637165D01*
X118410535Y-90446591D01*
X118273449Y-90279551D01*
X118106409Y-90142465D01*
X117915835Y-90040601D01*
X117709049Y-89977874D01*
X117547882Y-89962000D01*
X116640118Y-89962000D01*
X116478951Y-89977874D01*
X116272165Y-90040601D01*
X116081591Y-90142465D01*
X115914551Y-90279551D01*
X115777465Y-90446591D01*
X115675601Y-90637165D01*
X115612874Y-90843951D01*
X115591693Y-91059000D01*
X115155000Y-91059000D01*
X115155000Y-82450400D01*
X115289995Y-82450400D01*
X115291801Y-82468735D01*
X115291800Y-86387275D01*
X115289995Y-86405600D01*
X115291800Y-86423925D01*
X115297201Y-86478759D01*
X115318541Y-86549107D01*
X115353195Y-86613941D01*
X115399831Y-86670769D01*
X115414078Y-86682461D01*
X116231543Y-87499927D01*
X116243231Y-87514169D01*
X116244631Y-87515318D01*
X116081591Y-87602465D01*
X115914551Y-87739551D01*
X115777465Y-87906591D01*
X115675601Y-88097165D01*
X115612874Y-88303951D01*
X115591693Y-88519000D01*
X115612874Y-88734049D01*
X115675601Y-88940835D01*
X115777465Y-89131409D01*
X115914551Y-89298449D01*
X116081591Y-89435535D01*
X116272165Y-89537399D01*
X116478951Y-89600126D01*
X116640118Y-89616000D01*
X117547882Y-89616000D01*
X117709049Y-89600126D01*
X117915835Y-89537399D01*
X118106409Y-89435535D01*
X118155066Y-89395603D01*
X118155101Y-89395959D01*
X118176441Y-89466307D01*
X118211095Y-89531141D01*
X118257731Y-89587969D01*
X118271978Y-89599661D01*
X123792243Y-95119927D01*
X123803931Y-95134169D01*
X123828720Y-95154513D01*
X123701591Y-95222465D01*
X123534551Y-95359551D01*
X123397465Y-95526591D01*
X123295601Y-95717165D01*
X123232874Y-95923951D01*
X123211693Y-96139000D01*
X123232874Y-96354049D01*
X123295601Y-96560835D01*
X123397465Y-96751409D01*
X123534551Y-96918449D01*
X123701591Y-97055535D01*
X123892165Y-97157399D01*
X124098951Y-97220126D01*
X124260118Y-97236000D01*
X125167882Y-97236000D01*
X125272875Y-97225659D01*
X126565900Y-98518684D01*
X126565901Y-99112965D01*
X126564095Y-99131300D01*
X126571301Y-99204459D01*
X126592642Y-99274808D01*
X126625804Y-99336850D01*
X126627296Y-99339642D01*
X126673932Y-99396469D01*
X126688173Y-99408157D01*
X127845733Y-100565717D01*
X127735586Y-100639315D01*
X127563315Y-100811586D01*
X127427962Y-101014156D01*
X127334730Y-101239239D01*
X127287200Y-101478186D01*
X127287200Y-101721814D01*
X127334730Y-101960761D01*
X127427962Y-102185844D01*
X127563315Y-102388414D01*
X127671701Y-102496800D01*
X127456284Y-102496800D01*
X125636577Y-100677094D01*
X125609537Y-100626506D01*
X125530185Y-100529815D01*
X125433494Y-100450463D01*
X125323180Y-100391498D01*
X125203482Y-100355188D01*
X125079000Y-100342928D01*
X125039085Y-100343100D01*
X124471985Y-99776000D01*
X125167882Y-99776000D01*
X125329049Y-99760126D01*
X125535835Y-99697399D01*
X125726409Y-99595535D01*
X125893449Y-99458449D01*
X126030535Y-99291409D01*
X126132399Y-99100835D01*
X126195126Y-98894049D01*
X126216307Y-98679000D01*
X126195126Y-98463951D01*
X126132399Y-98257165D01*
X126030535Y-98066591D01*
X125893449Y-97899551D01*
X125726409Y-97762465D01*
X125535835Y-97660601D01*
X125329049Y-97597874D01*
X125167882Y-97582000D01*
X124260118Y-97582000D01*
X124098951Y-97597874D01*
X123892165Y-97660601D01*
X123701591Y-97762465D01*
X123534551Y-97899551D01*
X123397465Y-98066591D01*
X123295601Y-98257165D01*
X123232874Y-98463951D01*
X123226334Y-98530350D01*
X118896100Y-94200117D01*
X118896100Y-93617325D01*
X118897905Y-93599000D01*
X118890699Y-93525840D01*
X118869359Y-93455492D01*
X118834705Y-93390658D01*
X118788069Y-93333831D01*
X118731242Y-93287195D01*
X118666408Y-93252541D01*
X118596060Y-93231201D01*
X118541226Y-93225800D01*
X118541225Y-93225800D01*
X118526719Y-93224371D01*
X118512399Y-93177165D01*
X118410535Y-92986591D01*
X118273449Y-92819551D01*
X118106409Y-92682465D01*
X117915835Y-92580601D01*
X117709049Y-92517874D01*
X117547882Y-92502000D01*
X116640118Y-92502000D01*
X116478951Y-92517874D01*
X116272165Y-92580601D01*
X116081591Y-92682465D01*
X115914551Y-92819551D01*
X115777465Y-92986591D01*
X115675601Y-93177165D01*
X115612874Y-93383951D01*
X115591693Y-93599000D01*
X115612874Y-93814049D01*
X115675601Y-94020835D01*
X115777465Y-94211409D01*
X115914551Y-94378449D01*
X116081591Y-94515535D01*
X116272165Y-94617399D01*
X116478951Y-94680126D01*
X116640118Y-94696000D01*
X117547882Y-94696000D01*
X117709049Y-94680126D01*
X117915835Y-94617399D01*
X118106409Y-94515535D01*
X118166691Y-94466063D01*
X118176442Y-94498208D01*
X118211095Y-94563041D01*
X118216390Y-94569493D01*
X118257732Y-94619869D01*
X118271974Y-94631557D01*
X123986415Y-100346000D01*
X123951998Y-100346000D01*
X123951998Y-100504748D01*
X123793250Y-100346000D01*
X123079000Y-100342928D01*
X122954518Y-100355188D01*
X122834820Y-100391498D01*
X122724506Y-100450463D01*
X122627815Y-100529815D01*
X122548463Y-100626506D01*
X122489498Y-100736820D01*
X122453188Y-100856518D01*
X122440928Y-100981000D01*
X122444000Y-101695250D01*
X122602750Y-101854000D01*
X123952000Y-101854000D01*
X123952000Y-101834000D01*
X124206000Y-101834000D01*
X124206000Y-101854000D01*
X125555250Y-101854000D01*
X125656583Y-101752667D01*
X127024843Y-103120927D01*
X127036531Y-103135169D01*
X127093358Y-103181805D01*
X127158192Y-103216459D01*
X127228540Y-103237799D01*
X127301699Y-103245005D01*
X127320025Y-103243200D01*
X127671701Y-103243200D01*
X127563315Y-103351586D01*
X127427962Y-103554156D01*
X127334730Y-103779239D01*
X127287200Y-104018186D01*
X127287200Y-104261814D01*
X127334730Y-104500761D01*
X127427962Y-104725844D01*
X127563315Y-104928414D01*
X127735586Y-105100685D01*
X127938156Y-105236038D01*
X128163239Y-105329270D01*
X128402186Y-105376800D01*
X128645814Y-105376800D01*
X128884761Y-105329270D01*
X129109844Y-105236038D01*
X129312414Y-105100685D01*
X129484685Y-104928414D01*
X129550513Y-104829896D01*
X130285448Y-105564833D01*
X130297131Y-105579069D01*
X130353958Y-105625705D01*
X130388251Y-105644035D01*
X130275586Y-105719315D01*
X130103315Y-105891586D01*
X129967962Y-106094156D01*
X129874730Y-106319239D01*
X129827200Y-106558186D01*
X129827200Y-106801814D01*
X129874730Y-107040761D01*
X129967962Y-107265844D01*
X130103315Y-107468414D01*
X130275586Y-107640685D01*
X130478156Y-107776038D01*
X130703239Y-107869270D01*
X130942186Y-107916800D01*
X131185814Y-107916800D01*
X131424761Y-107869270D01*
X131649844Y-107776038D01*
X131852414Y-107640685D01*
X132024685Y-107468414D01*
X132160038Y-107265844D01*
X132253270Y-107040761D01*
X132300800Y-106801814D01*
X132300800Y-106558186D01*
X132253270Y-106319239D01*
X132160038Y-106094156D01*
X132024685Y-105891586D01*
X131852414Y-105719315D01*
X131743216Y-105646351D01*
X131781842Y-105625705D01*
X131838669Y-105579069D01*
X131850361Y-105564822D01*
X132524528Y-104890656D01*
X132538769Y-104878969D01*
X132585405Y-104822142D01*
X132620059Y-104757308D01*
X132641399Y-104686960D01*
X132646800Y-104632126D01*
X132646800Y-104632125D01*
X132648605Y-104613800D01*
X132646800Y-104595475D01*
X132646800Y-102827925D01*
X132648605Y-102809600D01*
X132641399Y-102736440D01*
X132620059Y-102666092D01*
X132585405Y-102601258D01*
X132578751Y-102593150D01*
X132538769Y-102544431D01*
X132524527Y-102532743D01*
X132165190Y-102173406D01*
X132253270Y-101960761D01*
X132300800Y-101721814D01*
X132300800Y-101478186D01*
X132253270Y-101239239D01*
X132160038Y-101014156D01*
X132024685Y-100811586D01*
X131852414Y-100639315D01*
X131649844Y-100503962D01*
X131424761Y-100410730D01*
X131185814Y-100363200D01*
X130942186Y-100363200D01*
X130703239Y-100410730D01*
X130478156Y-100503962D01*
X130275586Y-100639315D01*
X130103315Y-100811586D01*
X130031199Y-100919515D01*
X129291961Y-100180278D01*
X129280269Y-100166031D01*
X129223442Y-100119395D01*
X129190798Y-100101946D01*
X129312414Y-100020685D01*
X129484685Y-99848414D01*
X129620038Y-99645844D01*
X129713270Y-99420761D01*
X129760800Y-99181814D01*
X129760800Y-98938186D01*
X129713270Y-98699239D01*
X129620038Y-98474156D01*
X129484685Y-98271586D01*
X129376299Y-98163200D01*
X129639417Y-98163200D01*
X129962810Y-98486594D01*
X129874730Y-98699239D01*
X129827200Y-98938186D01*
X129827200Y-99181814D01*
X129874730Y-99420761D01*
X129967962Y-99645844D01*
X130103315Y-99848414D01*
X130275586Y-100020685D01*
X130478156Y-100156038D01*
X130703239Y-100249270D01*
X130942186Y-100296800D01*
X131185814Y-100296800D01*
X131424761Y-100249270D01*
X131649844Y-100156038D01*
X131852414Y-100020685D01*
X132024685Y-99848414D01*
X132160038Y-99645844D01*
X132253270Y-99420761D01*
X132300800Y-99181814D01*
X132300800Y-98938186D01*
X132253270Y-98699239D01*
X132160038Y-98474156D01*
X132024685Y-98271586D01*
X131852414Y-98099315D01*
X131649844Y-97963962D01*
X131424761Y-97870730D01*
X131185814Y-97823200D01*
X130942186Y-97823200D01*
X130703239Y-97870730D01*
X130490594Y-97958810D01*
X130070861Y-97539078D01*
X130059169Y-97524831D01*
X130002342Y-97478195D01*
X129937508Y-97443541D01*
X129867160Y-97422201D01*
X129812326Y-97416800D01*
X129812325Y-97416800D01*
X129794000Y-97414995D01*
X129775675Y-97416800D01*
X129376299Y-97416800D01*
X129484685Y-97308414D01*
X129620038Y-97105844D01*
X129713270Y-96880761D01*
X129760800Y-96641814D01*
X129760800Y-96398186D01*
X129713270Y-96159239D01*
X129620038Y-95934156D01*
X129484685Y-95731586D01*
X129312414Y-95559315D01*
X129109844Y-95423962D01*
X128884761Y-95330730D01*
X128645814Y-95283200D01*
X128402186Y-95283200D01*
X128163239Y-95330730D01*
X127938156Y-95423962D01*
X127735586Y-95559315D01*
X127563315Y-95731586D01*
X127427962Y-95934156D01*
X127334730Y-96159239D01*
X127299091Y-96338407D01*
X125578761Y-94618078D01*
X125567069Y-94603831D01*
X125564762Y-94601937D01*
X125726409Y-94515535D01*
X125893449Y-94378449D01*
X126030535Y-94211409D01*
X126132399Y-94020835D01*
X126195126Y-93814049D01*
X126216307Y-93599000D01*
X126195126Y-93383951D01*
X126132399Y-93177165D01*
X126030535Y-92986591D01*
X125893449Y-92819551D01*
X125726409Y-92682465D01*
X125535835Y-92580601D01*
X125329049Y-92517874D01*
X125167882Y-92502000D01*
X124260118Y-92502000D01*
X124098951Y-92517874D01*
X123892165Y-92580601D01*
X123701591Y-92682465D01*
X123652934Y-92722397D01*
X123652899Y-92722040D01*
X123640894Y-92682465D01*
X123631559Y-92651692D01*
X123596905Y-92586858D01*
X123550269Y-92530031D01*
X123536027Y-92518343D01*
X118015761Y-86998078D01*
X118004069Y-86983831D01*
X117979280Y-86963487D01*
X118106409Y-86895535D01*
X118273449Y-86758449D01*
X118410535Y-86591409D01*
X118512399Y-86400835D01*
X118575126Y-86194049D01*
X118596307Y-85979000D01*
X118575126Y-85763951D01*
X118512399Y-85557165D01*
X118410535Y-85366591D01*
X118273449Y-85199551D01*
X118106409Y-85062465D01*
X117915835Y-84960601D01*
X117709049Y-84897874D01*
X117547882Y-84882000D01*
X116640118Y-84882000D01*
X116478951Y-84897874D01*
X116272165Y-84960601D01*
X116081591Y-85062465D01*
X116038200Y-85098075D01*
X116038200Y-84537437D01*
X118294000Y-84537437D01*
X118319357Y-84534940D01*
X123824348Y-90039933D01*
X123836031Y-90054169D01*
X123848159Y-90064122D01*
X123701591Y-90142465D01*
X123534551Y-90279551D01*
X123397465Y-90446591D01*
X123295601Y-90637165D01*
X123232874Y-90843951D01*
X123211693Y-91059000D01*
X123232874Y-91274049D01*
X123295601Y-91480835D01*
X123397465Y-91671409D01*
X123534551Y-91838449D01*
X123701591Y-91975535D01*
X123892165Y-92077399D01*
X124098951Y-92140126D01*
X124260118Y-92156000D01*
X125167882Y-92156000D01*
X125329049Y-92140126D01*
X125535835Y-92077399D01*
X125726409Y-91975535D01*
X125893449Y-91838449D01*
X126030535Y-91671409D01*
X126132399Y-91480835D01*
X126183731Y-91311614D01*
X127829008Y-92956892D01*
X127735586Y-93019315D01*
X127563315Y-93191586D01*
X127427962Y-93394156D01*
X127334730Y-93619239D01*
X127287200Y-93858186D01*
X127287200Y-94101814D01*
X127334730Y-94340761D01*
X127427962Y-94565844D01*
X127563315Y-94768414D01*
X127735586Y-94940685D01*
X127938156Y-95076038D01*
X128163239Y-95169270D01*
X128402186Y-95216800D01*
X128645814Y-95216800D01*
X128884761Y-95169270D01*
X129109844Y-95076038D01*
X129312414Y-94940685D01*
X129420801Y-94832298D01*
X129420801Y-95231665D01*
X129418995Y-95250000D01*
X129426201Y-95323159D01*
X129428498Y-95330730D01*
X129447542Y-95393508D01*
X129482196Y-95458342D01*
X129528832Y-95515169D01*
X129543073Y-95526857D01*
X129962810Y-95946594D01*
X129874730Y-96159239D01*
X129827200Y-96398186D01*
X129827200Y-96641814D01*
X129874730Y-96880761D01*
X129967962Y-97105844D01*
X130103315Y-97308414D01*
X130275586Y-97480685D01*
X130478156Y-97616038D01*
X130703239Y-97709270D01*
X130942186Y-97756800D01*
X131185814Y-97756800D01*
X131424761Y-97709270D01*
X131649844Y-97616038D01*
X131852414Y-97480685D01*
X132024685Y-97308414D01*
X132160038Y-97105844D01*
X132253270Y-96880761D01*
X132300800Y-96641814D01*
X132300800Y-96398186D01*
X132253270Y-96159239D01*
X132160038Y-95934156D01*
X132024685Y-95731586D01*
X131852414Y-95559315D01*
X131649844Y-95423962D01*
X131424761Y-95330730D01*
X131185814Y-95283200D01*
X130942186Y-95283200D01*
X130703239Y-95330730D01*
X130490594Y-95418810D01*
X130167200Y-95095417D01*
X130167200Y-94832299D01*
X130275586Y-94940685D01*
X130478156Y-95076038D01*
X130703239Y-95169270D01*
X130942186Y-95216800D01*
X131185814Y-95216800D01*
X131424761Y-95169270D01*
X131649844Y-95076038D01*
X131852414Y-94940685D01*
X132024685Y-94768414D01*
X132160038Y-94565844D01*
X132253270Y-94340761D01*
X132300800Y-94101814D01*
X132300800Y-93858186D01*
X132253270Y-93619239D01*
X132160038Y-93394156D01*
X132024685Y-93191586D01*
X131852414Y-93019315D01*
X131649844Y-92883962D01*
X131424761Y-92790730D01*
X131185814Y-92743200D01*
X130942186Y-92743200D01*
X130703239Y-92790730D01*
X130478156Y-92883962D01*
X130275586Y-93019315D01*
X130103315Y-93191586D01*
X130037568Y-93289984D01*
X129396850Y-92649267D01*
X129436871Y-92532476D01*
X128524000Y-91619605D01*
X128035644Y-92107961D01*
X127856039Y-91928356D01*
X128344395Y-91440000D01*
X128703605Y-91440000D01*
X129616476Y-92352871D01*
X129874723Y-92264377D01*
X129980691Y-92044894D01*
X130103315Y-92228414D01*
X130275586Y-92400685D01*
X130478156Y-92536038D01*
X130703239Y-92629270D01*
X130942186Y-92676800D01*
X131185814Y-92676800D01*
X131424761Y-92629270D01*
X131649844Y-92536038D01*
X131852414Y-92400685D01*
X132024685Y-92228414D01*
X132160038Y-92025844D01*
X132253270Y-91800761D01*
X132300800Y-91561814D01*
X132300800Y-91318186D01*
X132253270Y-91079239D01*
X132160038Y-90854156D01*
X132024685Y-90651586D01*
X131852414Y-90479315D01*
X131649844Y-90343962D01*
X131424761Y-90250730D01*
X131185814Y-90203200D01*
X130942186Y-90203200D01*
X130703239Y-90250730D01*
X130478156Y-90343962D01*
X130275586Y-90479315D01*
X130103315Y-90651586D01*
X129980802Y-90834940D01*
X129959865Y-90774914D01*
X129874723Y-90615623D01*
X129616476Y-90527129D01*
X128703605Y-91440000D01*
X128344395Y-91440000D01*
X127431524Y-90527129D01*
X127173277Y-90615623D01*
X127038403Y-90894976D01*
X126994017Y-91066334D01*
X126513987Y-90586304D01*
X126510799Y-90553940D01*
X126489459Y-90483593D01*
X126489459Y-90483592D01*
X126454805Y-90418758D01*
X126408169Y-90361931D01*
X126393934Y-90350249D01*
X126391209Y-90347524D01*
X127611129Y-90347524D01*
X128524000Y-91260395D01*
X129436871Y-90347524D01*
X129348377Y-90089277D01*
X129069024Y-89954403D01*
X128768725Y-89876619D01*
X128459023Y-89858916D01*
X128151816Y-89901973D01*
X127858914Y-90004135D01*
X127699623Y-90089277D01*
X127611129Y-90347524D01*
X126391209Y-90347524D01*
X125581761Y-89538078D01*
X125570069Y-89523831D01*
X125566578Y-89520966D01*
X125726409Y-89435535D01*
X125893449Y-89298449D01*
X126030535Y-89131409D01*
X126132399Y-88940835D01*
X126195126Y-88734049D01*
X126216307Y-88519000D01*
X126195126Y-88303951D01*
X126132399Y-88097165D01*
X126030535Y-87906591D01*
X125893449Y-87739551D01*
X125726409Y-87602465D01*
X125535835Y-87500601D01*
X125329049Y-87437874D01*
X125167882Y-87422000D01*
X124260118Y-87422000D01*
X124098951Y-87437874D01*
X123892165Y-87500601D01*
X123701591Y-87602465D01*
X123534551Y-87739551D01*
X123397465Y-87906591D01*
X123295601Y-88097165D01*
X123232874Y-88303951D01*
X123224900Y-88384915D01*
X120818984Y-85979000D01*
X123211693Y-85979000D01*
X123232874Y-86194049D01*
X123295601Y-86400835D01*
X123397465Y-86591409D01*
X123534551Y-86758449D01*
X123701591Y-86895535D01*
X123892165Y-86997399D01*
X124098951Y-87060126D01*
X124260118Y-87076000D01*
X125167882Y-87076000D01*
X125329049Y-87060126D01*
X125535835Y-86997399D01*
X125726409Y-86895535D01*
X125893449Y-86758449D01*
X126030535Y-86591409D01*
X126132399Y-86400835D01*
X126195126Y-86194049D01*
X126216307Y-85979000D01*
X126195126Y-85763951D01*
X126132399Y-85557165D01*
X126030535Y-85366591D01*
X125893449Y-85199551D01*
X125726409Y-85062465D01*
X125535835Y-84960601D01*
X125329049Y-84897874D01*
X125167882Y-84882000D01*
X124260118Y-84882000D01*
X124098951Y-84897874D01*
X123892165Y-84960601D01*
X123701591Y-85062465D01*
X123534551Y-85199551D01*
X123397465Y-85366591D01*
X123295601Y-85557165D01*
X123232874Y-85763951D01*
X123211693Y-85979000D01*
X120818984Y-85979000D01*
X118896100Y-84056117D01*
X118896100Y-83457326D01*
X118897905Y-83439000D01*
X123211693Y-83439000D01*
X123232874Y-83654049D01*
X123295601Y-83860835D01*
X123397465Y-84051409D01*
X123534551Y-84218449D01*
X123701591Y-84355535D01*
X123892165Y-84457399D01*
X124098951Y-84520126D01*
X124260118Y-84536000D01*
X125167882Y-84536000D01*
X125329049Y-84520126D01*
X125535835Y-84457399D01*
X125726409Y-84355535D01*
X125893449Y-84218449D01*
X126030535Y-84051409D01*
X126132399Y-83860835D01*
X126147152Y-83812200D01*
X127988417Y-83812200D01*
X152822810Y-108646594D01*
X152734730Y-108859239D01*
X152687200Y-109098186D01*
X152687200Y-109341814D01*
X152734730Y-109580761D01*
X152827962Y-109805844D01*
X152963315Y-110008414D01*
X153135586Y-110180685D01*
X153338156Y-110316038D01*
X153563239Y-110409270D01*
X153802186Y-110456800D01*
X154045814Y-110456800D01*
X154284761Y-110409270D01*
X154509844Y-110316038D01*
X154712414Y-110180685D01*
X154884685Y-110008414D01*
X155020038Y-109805844D01*
X155113270Y-109580761D01*
X155160800Y-109341814D01*
X155160800Y-109098186D01*
X155113270Y-108859239D01*
X155025190Y-108646594D01*
X155348584Y-108323200D01*
X155611701Y-108323200D01*
X155503315Y-108431586D01*
X155367962Y-108634156D01*
X155274730Y-108859239D01*
X155227200Y-109098186D01*
X155227200Y-109341814D01*
X155274730Y-109580761D01*
X155367962Y-109805844D01*
X155503315Y-110008414D01*
X155675586Y-110180685D01*
X155878156Y-110316038D01*
X156103239Y-110409270D01*
X156342186Y-110456800D01*
X156585814Y-110456800D01*
X156824761Y-110409270D01*
X157049844Y-110316038D01*
X157252414Y-110180685D01*
X157424685Y-110008414D01*
X157560038Y-109805844D01*
X157653270Y-109580761D01*
X157700800Y-109341814D01*
X157700800Y-109098186D01*
X157653270Y-108859239D01*
X157560038Y-108634156D01*
X157424685Y-108431586D01*
X157316299Y-108323200D01*
X157393575Y-108323200D01*
X157411900Y-108325005D01*
X157430225Y-108323200D01*
X157430226Y-108323200D01*
X157485060Y-108317799D01*
X157555408Y-108296459D01*
X157620242Y-108261805D01*
X157674837Y-108217000D01*
X161479563Y-108217000D01*
X161479563Y-109967000D01*
X161502110Y-110195926D01*
X161568886Y-110416055D01*
X161677323Y-110618927D01*
X161823255Y-110796745D01*
X162001073Y-110942677D01*
X162203945Y-111051114D01*
X162424074Y-111117890D01*
X162653000Y-111140437D01*
X164403000Y-111140437D01*
X164631926Y-111117890D01*
X164852055Y-111051114D01*
X165054927Y-110942677D01*
X165232745Y-110796745D01*
X165378677Y-110618927D01*
X165487114Y-110416055D01*
X165553890Y-110195926D01*
X165576437Y-109967000D01*
X165576437Y-108217000D01*
X165553890Y-107988074D01*
X165487114Y-107767945D01*
X165378677Y-107565073D01*
X165232745Y-107387255D01*
X165054927Y-107241323D01*
X164852055Y-107132886D01*
X164631926Y-107066110D01*
X164403000Y-107043563D01*
X162653000Y-107043563D01*
X162424074Y-107066110D01*
X162203945Y-107132886D01*
X162001073Y-107241323D01*
X161823255Y-107387255D01*
X161677323Y-107565073D01*
X161568886Y-107767945D01*
X161502110Y-107988074D01*
X161479563Y-108217000D01*
X157674837Y-108217000D01*
X157677069Y-108215169D01*
X157688761Y-108200922D01*
X160778927Y-105110757D01*
X160793169Y-105099069D01*
X160839805Y-105042242D01*
X160874459Y-104977408D01*
X160895799Y-104907060D01*
X160896156Y-104903437D01*
X161628000Y-104903437D01*
X161686222Y-104897703D01*
X161742207Y-104880720D01*
X161793803Y-104853141D01*
X161839027Y-104816027D01*
X161876141Y-104770803D01*
X161903720Y-104719207D01*
X161920703Y-104663222D01*
X161926437Y-104605000D01*
X161926437Y-103505000D01*
X166744241Y-103505000D01*
X166771214Y-103778860D01*
X166851096Y-104042195D01*
X166980817Y-104284887D01*
X167155392Y-104497608D01*
X167368113Y-104672183D01*
X167610805Y-104801904D01*
X167874140Y-104881786D01*
X168079375Y-104902000D01*
X168216625Y-104902000D01*
X168421860Y-104881786D01*
X168685195Y-104801904D01*
X168927887Y-104672183D01*
X169140608Y-104497608D01*
X169315183Y-104284887D01*
X169444904Y-104042195D01*
X169524786Y-103778860D01*
X169551759Y-103505000D01*
X169524786Y-103231140D01*
X169444904Y-102967805D01*
X169315183Y-102725113D01*
X169140608Y-102512392D01*
X168927887Y-102337817D01*
X168685195Y-102208096D01*
X168421860Y-102128214D01*
X168216625Y-102108000D01*
X168079375Y-102108000D01*
X167874140Y-102128214D01*
X167610805Y-102208096D01*
X167368113Y-102337817D01*
X167155392Y-102512392D01*
X166980817Y-102725113D01*
X166851096Y-102967805D01*
X166771214Y-103231140D01*
X166744241Y-103505000D01*
X161926437Y-103505000D01*
X161926437Y-102405000D01*
X161920703Y-102346778D01*
X161903720Y-102290793D01*
X161876141Y-102239197D01*
X161839027Y-102193973D01*
X161793803Y-102156859D01*
X161742207Y-102129280D01*
X161686222Y-102112297D01*
X161628000Y-102106563D01*
X159428000Y-102106563D01*
X159369778Y-102112297D01*
X159313793Y-102129280D01*
X159262197Y-102156859D01*
X159216973Y-102193973D01*
X159179859Y-102239197D01*
X159152280Y-102290793D01*
X159135297Y-102346778D01*
X159129563Y-102405000D01*
X159129563Y-104605000D01*
X159135297Y-104663222D01*
X159152280Y-104719207D01*
X159179859Y-104770803D01*
X159216973Y-104816027D01*
X159262197Y-104853141D01*
X159313793Y-104880720D01*
X159369778Y-104897703D01*
X159428000Y-104903437D01*
X159930679Y-104903437D01*
X157543456Y-107290661D01*
X157560038Y-107265844D01*
X157653270Y-107040761D01*
X157700800Y-106801814D01*
X157700800Y-106558186D01*
X157653270Y-106319239D01*
X157560038Y-106094156D01*
X157424685Y-105891586D01*
X157252414Y-105719315D01*
X157049844Y-105583962D01*
X156824761Y-105490730D01*
X156585814Y-105443200D01*
X156342186Y-105443200D01*
X156103239Y-105490730D01*
X155878156Y-105583962D01*
X155675586Y-105719315D01*
X155503315Y-105891586D01*
X155380802Y-106074940D01*
X155359865Y-106014914D01*
X155274723Y-105855623D01*
X155016476Y-105767129D01*
X154103605Y-106680000D01*
X154117748Y-106694143D01*
X153938143Y-106873748D01*
X153924000Y-106859605D01*
X153909858Y-106873748D01*
X153730253Y-106694143D01*
X153744395Y-106680000D01*
X152831524Y-105767129D01*
X152573277Y-105855623D01*
X152438403Y-106134976D01*
X152360619Y-106435275D01*
X152342916Y-106744977D01*
X152385973Y-107052184D01*
X152440608Y-107208824D01*
X149249970Y-104018186D01*
X152687200Y-104018186D01*
X152687200Y-104261814D01*
X152734730Y-104500761D01*
X152827962Y-104725844D01*
X152963315Y-104928414D01*
X153135586Y-105100685D01*
X153318940Y-105223198D01*
X153258914Y-105244135D01*
X153099623Y-105329277D01*
X153011129Y-105587524D01*
X153924000Y-106500395D01*
X154836871Y-105587524D01*
X154748377Y-105329277D01*
X154528894Y-105223309D01*
X154712414Y-105100685D01*
X154884685Y-104928414D01*
X155020038Y-104725844D01*
X155113270Y-104500761D01*
X155160800Y-104261814D01*
X155160800Y-104018186D01*
X155227200Y-104018186D01*
X155227200Y-104261814D01*
X155274730Y-104500761D01*
X155367962Y-104725844D01*
X155503315Y-104928414D01*
X155675586Y-105100685D01*
X155878156Y-105236038D01*
X156103239Y-105329270D01*
X156342186Y-105376800D01*
X156585814Y-105376800D01*
X156824761Y-105329270D01*
X157049844Y-105236038D01*
X157252414Y-105100685D01*
X157424685Y-104928414D01*
X157560038Y-104725844D01*
X157653270Y-104500761D01*
X157700800Y-104261814D01*
X157700800Y-104018186D01*
X157653270Y-103779239D01*
X157560038Y-103554156D01*
X157424685Y-103351586D01*
X157252414Y-103179315D01*
X157049844Y-103043962D01*
X156824761Y-102950730D01*
X156585814Y-102903200D01*
X156342186Y-102903200D01*
X156103239Y-102950730D01*
X155878156Y-103043962D01*
X155675586Y-103179315D01*
X155503315Y-103351586D01*
X155367962Y-103554156D01*
X155274730Y-103779239D01*
X155227200Y-104018186D01*
X155160800Y-104018186D01*
X155113270Y-103779239D01*
X155020038Y-103554156D01*
X154884685Y-103351586D01*
X154712414Y-103179315D01*
X154509844Y-103043962D01*
X154284761Y-102950730D01*
X154045814Y-102903200D01*
X153802186Y-102903200D01*
X153563239Y-102950730D01*
X153338156Y-103043962D01*
X153135586Y-103179315D01*
X152963315Y-103351586D01*
X152827962Y-103554156D01*
X152734730Y-103779239D01*
X152687200Y-104018186D01*
X149249970Y-104018186D01*
X144169970Y-98938186D01*
X152687200Y-98938186D01*
X152687200Y-99181814D01*
X152734730Y-99420761D01*
X152827962Y-99645844D01*
X152963315Y-99848414D01*
X153135586Y-100020685D01*
X153338156Y-100156038D01*
X153563239Y-100249270D01*
X153802186Y-100296800D01*
X154045814Y-100296800D01*
X154284761Y-100249270D01*
X154509844Y-100156038D01*
X154712414Y-100020685D01*
X154884685Y-99848414D01*
X155020038Y-99645844D01*
X155113270Y-99420761D01*
X155160800Y-99181814D01*
X155160800Y-98938186D01*
X155113270Y-98699239D01*
X155020038Y-98474156D01*
X154884685Y-98271586D01*
X154712414Y-98099315D01*
X154509844Y-97963962D01*
X154284761Y-97870730D01*
X154045814Y-97823200D01*
X153802186Y-97823200D01*
X153563239Y-97870730D01*
X153338156Y-97963962D01*
X153135586Y-98099315D01*
X152963315Y-98271586D01*
X152827962Y-98474156D01*
X152734730Y-98699239D01*
X152687200Y-98938186D01*
X144169970Y-98938186D01*
X141629970Y-96398186D01*
X152687200Y-96398186D01*
X152687200Y-96641814D01*
X152734730Y-96880761D01*
X152827962Y-97105844D01*
X152963315Y-97308414D01*
X153135586Y-97480685D01*
X153338156Y-97616038D01*
X153563239Y-97709270D01*
X153802186Y-97756800D01*
X154045814Y-97756800D01*
X154284761Y-97709270D01*
X154509844Y-97616038D01*
X154712414Y-97480685D01*
X154884685Y-97308414D01*
X155020038Y-97105844D01*
X155113270Y-96880761D01*
X155160800Y-96641814D01*
X155160800Y-96398186D01*
X155113270Y-96159239D01*
X155020038Y-95934156D01*
X154884685Y-95731586D01*
X154712414Y-95559315D01*
X154509844Y-95423962D01*
X154284761Y-95330730D01*
X154045814Y-95283200D01*
X153802186Y-95283200D01*
X153563239Y-95330730D01*
X153338156Y-95423962D01*
X153135586Y-95559315D01*
X152963315Y-95731586D01*
X152827962Y-95934156D01*
X152734730Y-96159239D01*
X152687200Y-96398186D01*
X141629970Y-96398186D01*
X139089970Y-93858186D01*
X152687200Y-93858186D01*
X152687200Y-94101814D01*
X152734730Y-94340761D01*
X152827962Y-94565844D01*
X152963315Y-94768414D01*
X153135586Y-94940685D01*
X153338156Y-95076038D01*
X153563239Y-95169270D01*
X153802186Y-95216800D01*
X154045814Y-95216800D01*
X154284761Y-95169270D01*
X154509844Y-95076038D01*
X154712414Y-94940685D01*
X154884685Y-94768414D01*
X155020038Y-94565844D01*
X155113270Y-94340761D01*
X155160800Y-94101814D01*
X155160800Y-93858186D01*
X155113270Y-93619239D01*
X155020038Y-93394156D01*
X154884685Y-93191586D01*
X154712414Y-93019315D01*
X154509844Y-92883962D01*
X154284761Y-92790730D01*
X154045814Y-92743200D01*
X153802186Y-92743200D01*
X153563239Y-92790730D01*
X153338156Y-92883962D01*
X153135586Y-93019315D01*
X152963315Y-93191586D01*
X152827962Y-93394156D01*
X152734730Y-93619239D01*
X152687200Y-93858186D01*
X139089970Y-93858186D01*
X136549970Y-91318186D01*
X152687200Y-91318186D01*
X152687200Y-91561814D01*
X152734730Y-91800761D01*
X152827962Y-92025844D01*
X152963315Y-92228414D01*
X153135586Y-92400685D01*
X153338156Y-92536038D01*
X153563239Y-92629270D01*
X153802186Y-92676800D01*
X154045814Y-92676800D01*
X154284761Y-92629270D01*
X154509844Y-92536038D01*
X154712414Y-92400685D01*
X154884685Y-92228414D01*
X155007198Y-92045060D01*
X155028135Y-92105086D01*
X155113277Y-92264377D01*
X155371524Y-92352871D01*
X156284395Y-91440000D01*
X155371524Y-90527129D01*
X155113277Y-90615623D01*
X155007309Y-90835106D01*
X154884685Y-90651586D01*
X154712414Y-90479315D01*
X154509844Y-90343962D01*
X154284761Y-90250730D01*
X154045814Y-90203200D01*
X153802186Y-90203200D01*
X153563239Y-90250730D01*
X153338156Y-90343962D01*
X153135586Y-90479315D01*
X152963315Y-90651586D01*
X152827962Y-90854156D01*
X152734730Y-91079239D01*
X152687200Y-91318186D01*
X136549970Y-91318186D01*
X128419861Y-83188078D01*
X128408169Y-83173831D01*
X128351342Y-83127195D01*
X128286508Y-83092541D01*
X128216160Y-83071201D01*
X128161326Y-83065800D01*
X128161325Y-83065800D01*
X128143000Y-83063995D01*
X128124675Y-83065800D01*
X126147152Y-83065800D01*
X126132399Y-83017165D01*
X126030535Y-82826591D01*
X125893449Y-82659551D01*
X125726409Y-82522465D01*
X125535835Y-82420601D01*
X125329049Y-82357874D01*
X125167882Y-82342000D01*
X124260118Y-82342000D01*
X124098951Y-82357874D01*
X123892165Y-82420601D01*
X123701591Y-82522465D01*
X123534551Y-82659551D01*
X123397465Y-82826591D01*
X123295601Y-83017165D01*
X123232874Y-83223951D01*
X123211693Y-83439000D01*
X118897905Y-83439000D01*
X118890699Y-83365840D01*
X118869359Y-83295492D01*
X118834705Y-83230658D01*
X118788069Y-83173831D01*
X118731242Y-83127195D01*
X118666408Y-83092541D01*
X118596060Y-83071201D01*
X118592437Y-83070844D01*
X118592437Y-82639000D01*
X118586703Y-82580778D01*
X118569720Y-82524793D01*
X118542141Y-82473197D01*
X118505027Y-82427973D01*
X118459803Y-82390859D01*
X118408207Y-82363280D01*
X118352222Y-82346297D01*
X118294000Y-82340563D01*
X116302620Y-82340563D01*
X120377003Y-78266180D01*
X120363859Y-78282197D01*
X120336280Y-78333793D01*
X120319297Y-78389778D01*
X120313563Y-78448000D01*
X120313563Y-80048000D01*
X120319297Y-80106222D01*
X120336280Y-80162207D01*
X120363859Y-80213803D01*
X120400973Y-80259027D01*
X120446197Y-80296141D01*
X120497793Y-80323720D01*
X120553778Y-80340703D01*
X120612000Y-80346437D01*
X122212000Y-80346437D01*
X122270222Y-80340703D01*
X122326207Y-80323720D01*
X122377803Y-80296141D01*
X122423027Y-80259027D01*
X122460141Y-80213803D01*
X122487720Y-80162207D01*
X122504703Y-80106222D01*
X122510437Y-80048000D01*
X122510437Y-79139955D01*
X123085000Y-79139955D01*
X123085000Y-79356045D01*
X123127157Y-79567983D01*
X123209851Y-79767624D01*
X123329904Y-79947297D01*
X123482703Y-80100096D01*
X123662376Y-80220149D01*
X123862017Y-80302843D01*
X124073955Y-80345000D01*
X124290045Y-80345000D01*
X124501983Y-80302843D01*
X124701624Y-80220149D01*
X124881297Y-80100096D01*
X125034096Y-79947297D01*
X125154149Y-79767624D01*
X125236843Y-79567983D01*
X125279000Y-79356045D01*
X125279000Y-79139955D01*
X125855000Y-79139955D01*
X125855000Y-79356045D01*
X125897157Y-79567983D01*
X125979851Y-79767624D01*
X126099904Y-79947297D01*
X126252703Y-80100096D01*
X126432376Y-80220149D01*
X126632017Y-80302843D01*
X126843955Y-80345000D01*
X127060045Y-80345000D01*
X127271983Y-80302843D01*
X127471624Y-80220149D01*
X127651297Y-80100096D01*
X127804096Y-79947297D01*
X127924149Y-79767624D01*
X128006843Y-79567983D01*
X128049000Y-79356045D01*
X128049000Y-79139955D01*
X128625000Y-79139955D01*
X128625000Y-79356045D01*
X128667157Y-79567983D01*
X128749851Y-79767624D01*
X128869904Y-79947297D01*
X129022703Y-80100096D01*
X129202376Y-80220149D01*
X129402017Y-80302843D01*
X129613955Y-80345000D01*
X129830045Y-80345000D01*
X130041983Y-80302843D01*
X130241624Y-80220149D01*
X130421297Y-80100096D01*
X130574096Y-79947297D01*
X130694149Y-79767624D01*
X130776843Y-79567983D01*
X130819000Y-79356045D01*
X130819000Y-79139955D01*
X130776843Y-78928017D01*
X130694149Y-78728376D01*
X130574096Y-78548703D01*
X130421297Y-78395904D01*
X130241624Y-78275851D01*
X130041983Y-78193157D01*
X129830045Y-78151000D01*
X129613955Y-78151000D01*
X129402017Y-78193157D01*
X129202376Y-78275851D01*
X129022703Y-78395904D01*
X128869904Y-78548703D01*
X128749851Y-78728376D01*
X128667157Y-78928017D01*
X128625000Y-79139955D01*
X128049000Y-79139955D01*
X128006843Y-78928017D01*
X127924149Y-78728376D01*
X127804096Y-78548703D01*
X127651297Y-78395904D01*
X127471624Y-78275851D01*
X127271983Y-78193157D01*
X127060045Y-78151000D01*
X126843955Y-78151000D01*
X126632017Y-78193157D01*
X126432376Y-78275851D01*
X126252703Y-78395904D01*
X126099904Y-78548703D01*
X125979851Y-78728376D01*
X125897157Y-78928017D01*
X125855000Y-79139955D01*
X125279000Y-79139955D01*
X125236843Y-78928017D01*
X125154149Y-78728376D01*
X125034096Y-78548703D01*
X124881297Y-78395904D01*
X124701624Y-78275851D01*
X124501983Y-78193157D01*
X124290045Y-78151000D01*
X124073955Y-78151000D01*
X123862017Y-78193157D01*
X123662376Y-78275851D01*
X123482703Y-78395904D01*
X123329904Y-78548703D01*
X123209851Y-78728376D01*
X123127157Y-78928017D01*
X123085000Y-79139955D01*
X122510437Y-79139955D01*
X122510437Y-78448000D01*
X122504703Y-78389778D01*
X122487720Y-78333793D01*
X122460141Y-78282197D01*
X122423027Y-78236973D01*
X122377803Y-78199859D01*
X122326207Y-78172280D01*
X122270222Y-78155297D01*
X122212000Y-78149563D01*
X120612000Y-78149563D01*
X120553778Y-78155297D01*
X120497793Y-78172280D01*
X120446197Y-78199859D01*
X120430180Y-78213003D01*
X121792840Y-76850344D01*
X121824851Y-76927624D01*
X121944904Y-77107297D01*
X122097703Y-77260096D01*
X122277376Y-77380149D01*
X122477017Y-77462843D01*
X122688955Y-77505000D01*
X122905045Y-77505000D01*
X123116983Y-77462843D01*
X123316624Y-77380149D01*
X123496297Y-77260096D01*
X123649096Y-77107297D01*
X123769149Y-76927624D01*
X123851843Y-76727983D01*
X123894000Y-76516045D01*
X123894000Y-76299955D01*
X124470000Y-76299955D01*
X124470000Y-76516045D01*
X124512157Y-76727983D01*
X124594851Y-76927624D01*
X124714904Y-77107297D01*
X124867703Y-77260096D01*
X125047376Y-77380149D01*
X125247017Y-77462843D01*
X125458955Y-77505000D01*
X125675045Y-77505000D01*
X125886983Y-77462843D01*
X126037004Y-77400702D01*
X127523903Y-77400702D01*
X127595486Y-77644671D01*
X127850996Y-77765571D01*
X128125184Y-77834300D01*
X128407512Y-77848217D01*
X128687130Y-77806787D01*
X128953292Y-77711603D01*
X129078514Y-77644671D01*
X129150097Y-77400702D01*
X128337000Y-76587605D01*
X127523903Y-77400702D01*
X126037004Y-77400702D01*
X126086624Y-77380149D01*
X126266297Y-77260096D01*
X126419096Y-77107297D01*
X126539149Y-76927624D01*
X126621843Y-76727983D01*
X126664000Y-76516045D01*
X126664000Y-76478512D01*
X126896783Y-76478512D01*
X126938213Y-76758130D01*
X127033397Y-77024292D01*
X127100329Y-77149514D01*
X127344298Y-77221097D01*
X128157395Y-76408000D01*
X128516605Y-76408000D01*
X129329702Y-77221097D01*
X129573671Y-77149514D01*
X129694571Y-76894004D01*
X129763300Y-76619816D01*
X129777217Y-76337488D01*
X129771656Y-76299955D01*
X130010000Y-76299955D01*
X130010000Y-76516045D01*
X130052157Y-76727983D01*
X130134851Y-76927624D01*
X130254904Y-77107297D01*
X130407703Y-77260096D01*
X130587376Y-77380149D01*
X130787017Y-77462843D01*
X130998955Y-77505000D01*
X131215045Y-77505000D01*
X131426983Y-77462843D01*
X131626624Y-77380149D01*
X131806297Y-77260096D01*
X131959096Y-77107297D01*
X132079149Y-76927624D01*
X132161843Y-76727983D01*
X132204000Y-76516045D01*
X132204000Y-76299955D01*
X132161843Y-76088017D01*
X132079149Y-75888376D01*
X131959096Y-75708703D01*
X131806297Y-75555904D01*
X131626624Y-75435851D01*
X131426983Y-75353157D01*
X131215045Y-75311000D01*
X130998955Y-75311000D01*
X130787017Y-75353157D01*
X130587376Y-75435851D01*
X130407703Y-75555904D01*
X130254904Y-75708703D01*
X130134851Y-75888376D01*
X130052157Y-76088017D01*
X130010000Y-76299955D01*
X129771656Y-76299955D01*
X129735787Y-76057870D01*
X129640603Y-75791708D01*
X129573671Y-75666486D01*
X129329702Y-75594903D01*
X128516605Y-76408000D01*
X128157395Y-76408000D01*
X127344298Y-75594903D01*
X127100329Y-75666486D01*
X126979429Y-75921996D01*
X126910700Y-76196184D01*
X126896783Y-76478512D01*
X126664000Y-76478512D01*
X126664000Y-76299955D01*
X126621843Y-76088017D01*
X126539149Y-75888376D01*
X126419096Y-75708703D01*
X126266297Y-75555904D01*
X126086624Y-75435851D01*
X125886983Y-75353157D01*
X125675045Y-75311000D01*
X125458955Y-75311000D01*
X125247017Y-75353157D01*
X125047376Y-75435851D01*
X124867703Y-75555904D01*
X124714904Y-75708703D01*
X124594851Y-75888376D01*
X124512157Y-76088017D01*
X124470000Y-76299955D01*
X123894000Y-76299955D01*
X123851843Y-76088017D01*
X123769149Y-75888376D01*
X123649096Y-75708703D01*
X123496297Y-75555904D01*
X123316624Y-75435851D01*
X123116983Y-75353157D01*
X122905045Y-75311000D01*
X122688955Y-75311000D01*
X122477017Y-75353157D01*
X122277376Y-75435851D01*
X122097703Y-75555904D01*
X121944904Y-75708703D01*
X121824851Y-75888376D01*
X121764200Y-76034800D01*
X121725725Y-76034800D01*
X121707399Y-76032995D01*
X121689074Y-76034800D01*
X121634240Y-76040201D01*
X121563892Y-76061541D01*
X121499058Y-76096195D01*
X121442231Y-76142831D01*
X121430543Y-76157073D01*
X115414074Y-82173543D01*
X115399832Y-82185231D01*
X115358490Y-82235607D01*
X115353195Y-82242059D01*
X115318542Y-82306892D01*
X115297201Y-82377241D01*
X115289995Y-82450400D01*
X115155000Y-82450400D01*
X115155000Y-77105972D01*
X115191142Y-76737371D01*
X115293261Y-76399135D01*
X115459132Y-76087177D01*
X115682440Y-75813375D01*
X115954672Y-75588164D01*
X116265467Y-75420118D01*
X116602983Y-75315639D01*
X116970615Y-75277000D01*
X127564481Y-75277000D01*
X127523903Y-75415298D01*
X127523903Y-75415298D01*
G37*
X127523903Y-75415298D02*
X128337000Y-76228395D01*
X129150097Y-75415298D01*
X129109519Y-75277000D01*
X158933481Y-75277000D01*
X158892903Y-75415298D01*
X159706000Y-76228395D01*
X160519097Y-75415298D01*
X160478519Y-75277000D01*
X168258028Y-75277000D01*
X168626629Y-75313142D01*
X168964865Y-75415261D01*
X169276823Y-75581132D01*
X169550625Y-75804440D01*
X169775836Y-76076672D01*
X169943882Y-76387467D01*
X170048361Y-76724983D01*
X170087000Y-77092615D01*
X170087000Y-85523816D01*
X169002906Y-84439722D01*
X169160409Y-84355535D01*
X169327449Y-84218449D01*
X169464535Y-84051409D01*
X169566399Y-83860835D01*
X169629126Y-83654049D01*
X169650307Y-83439000D01*
X169629126Y-83223951D01*
X169566399Y-83017165D01*
X169464535Y-82826591D01*
X169327449Y-82659551D01*
X169160409Y-82522465D01*
X168969835Y-82420601D01*
X168763049Y-82357874D01*
X168601882Y-82342000D01*
X167694118Y-82342000D01*
X167532951Y-82357874D01*
X167326165Y-82420601D01*
X167135591Y-82522465D01*
X166968551Y-82659551D01*
X166831465Y-82826591D01*
X166729601Y-83017165D01*
X166666874Y-83223951D01*
X166645693Y-83439000D01*
X166666874Y-83654049D01*
X166729601Y-83860835D01*
X166831465Y-84051409D01*
X166900723Y-84135800D01*
X166506585Y-84135800D01*
X162085192Y-79714408D01*
X162145843Y-79567983D01*
X162188000Y-79356045D01*
X162188000Y-79139955D01*
X162764000Y-79139955D01*
X162764000Y-79356045D01*
X162806157Y-79567983D01*
X162888851Y-79767624D01*
X163008904Y-79947297D01*
X163161703Y-80100096D01*
X163341376Y-80220149D01*
X163541017Y-80302843D01*
X163752955Y-80345000D01*
X163969045Y-80345000D01*
X164180983Y-80302843D01*
X164380624Y-80220149D01*
X164560297Y-80100096D01*
X164713096Y-79947297D01*
X164833149Y-79767624D01*
X164915843Y-79567983D01*
X164958000Y-79356045D01*
X164958000Y-79139955D01*
X164915843Y-78928017D01*
X164833149Y-78728376D01*
X164713096Y-78548703D01*
X164560297Y-78395904D01*
X164380624Y-78275851D01*
X164180983Y-78193157D01*
X163969045Y-78151000D01*
X163752955Y-78151000D01*
X163541017Y-78193157D01*
X163341376Y-78275851D01*
X163161703Y-78395904D01*
X163008904Y-78548703D01*
X162888851Y-78728376D01*
X162806157Y-78928017D01*
X162764000Y-79139955D01*
X162188000Y-79139955D01*
X162145843Y-78928017D01*
X162063149Y-78728376D01*
X161943096Y-78548703D01*
X161790297Y-78395904D01*
X161610624Y-78275851D01*
X161410983Y-78193157D01*
X161199045Y-78151000D01*
X160982955Y-78151000D01*
X160771017Y-78193157D01*
X160571376Y-78275851D01*
X160391703Y-78395904D01*
X160238904Y-78548703D01*
X160118851Y-78728376D01*
X160036157Y-78928017D01*
X159994000Y-79139955D01*
X159994000Y-79189017D01*
X159832000Y-79027017D01*
X159832000Y-78929225D01*
X159833805Y-78910899D01*
X159826599Y-78837740D01*
X159812979Y-78792842D01*
X159805259Y-78767392D01*
X159770605Y-78702558D01*
X159723969Y-78645731D01*
X159709733Y-78634048D01*
X159043761Y-77968078D01*
X159032069Y-77953831D01*
X158975242Y-77907195D01*
X158910408Y-77872541D01*
X158840060Y-77851201D01*
X158785226Y-77845800D01*
X158785225Y-77845800D01*
X158766900Y-77843995D01*
X158748575Y-77845800D01*
X156860584Y-77845800D01*
X156351754Y-77336970D01*
X156416376Y-77380149D01*
X156616017Y-77462843D01*
X156827955Y-77505000D01*
X157044045Y-77505000D01*
X157255983Y-77462843D01*
X157406004Y-77400702D01*
X158892903Y-77400702D01*
X158964486Y-77644671D01*
X159219996Y-77765571D01*
X159494184Y-77834300D01*
X159776512Y-77848217D01*
X160056130Y-77806787D01*
X160322292Y-77711603D01*
X160447514Y-77644671D01*
X160519097Y-77400702D01*
X159706000Y-76587605D01*
X158892903Y-77400702D01*
X157406004Y-77400702D01*
X157455624Y-77380149D01*
X157635297Y-77260096D01*
X157788096Y-77107297D01*
X157908149Y-76927624D01*
X157990843Y-76727983D01*
X158033000Y-76516045D01*
X158033000Y-76478512D01*
X158265783Y-76478512D01*
X158307213Y-76758130D01*
X158402397Y-77024292D01*
X158469329Y-77149514D01*
X158713298Y-77221097D01*
X159526395Y-76408000D01*
X159885605Y-76408000D01*
X160698702Y-77221097D01*
X160942671Y-77149514D01*
X161063571Y-76894004D01*
X161132300Y-76619816D01*
X161146217Y-76337488D01*
X161140656Y-76299955D01*
X161379000Y-76299955D01*
X161379000Y-76516045D01*
X161421157Y-76727983D01*
X161503851Y-76927624D01*
X161623904Y-77107297D01*
X161776703Y-77260096D01*
X161956376Y-77380149D01*
X162156017Y-77462843D01*
X162367955Y-77505000D01*
X162584045Y-77505000D01*
X162795983Y-77462843D01*
X162995624Y-77380149D01*
X163175297Y-77260096D01*
X163328096Y-77107297D01*
X163448149Y-76927624D01*
X163530843Y-76727983D01*
X163573000Y-76516045D01*
X163573000Y-76299955D01*
X163530843Y-76088017D01*
X163448149Y-75888376D01*
X163328096Y-75708703D01*
X163175297Y-75555904D01*
X162995624Y-75435851D01*
X162795983Y-75353157D01*
X162584045Y-75311000D01*
X162367955Y-75311000D01*
X162156017Y-75353157D01*
X161956376Y-75435851D01*
X161776703Y-75555904D01*
X161623904Y-75708703D01*
X161503851Y-75888376D01*
X161421157Y-76088017D01*
X161379000Y-76299955D01*
X161140656Y-76299955D01*
X161104787Y-76057870D01*
X161009603Y-75791708D01*
X160942671Y-75666486D01*
X160698702Y-75594903D01*
X159885605Y-76408000D01*
X159526395Y-76408000D01*
X158713298Y-75594903D01*
X158469329Y-75666486D01*
X158348429Y-75921996D01*
X158279700Y-76196184D01*
X158265783Y-76478512D01*
X158033000Y-76478512D01*
X158033000Y-76299955D01*
X157990843Y-76088017D01*
X157908149Y-75888376D01*
X157788096Y-75708703D01*
X157635297Y-75555904D01*
X157455624Y-75435851D01*
X157255983Y-75353157D01*
X157044045Y-75311000D01*
X156827955Y-75311000D01*
X156616017Y-75353157D01*
X156416376Y-75435851D01*
X156236703Y-75555904D01*
X156083904Y-75708703D01*
X155963851Y-75888376D01*
X155881157Y-76088017D01*
X155839000Y-76299955D01*
X155839000Y-76516045D01*
X155881157Y-76727983D01*
X155963851Y-76927624D01*
X156007030Y-76992247D01*
X155250153Y-76235370D01*
X155220843Y-76088017D01*
X155138149Y-75888376D01*
X155018096Y-75708703D01*
X154865297Y-75555904D01*
X154685624Y-75435851D01*
X154485983Y-75353157D01*
X154274045Y-75311000D01*
X154057955Y-75311000D01*
X153846017Y-75353157D01*
X153646376Y-75435851D01*
X153466703Y-75555904D01*
X153313904Y-75708703D01*
X153193851Y-75888376D01*
X153111157Y-76088017D01*
X153069000Y-76299955D01*
X153069000Y-76516045D01*
X153111157Y-76727983D01*
X153193851Y-76927624D01*
X153313904Y-77107297D01*
X153466703Y-77260096D01*
X153646376Y-77380149D01*
X153846017Y-77462843D01*
X154057955Y-77505000D01*
X154274045Y-77505000D01*
X154485983Y-77462843D01*
X154685624Y-77380149D01*
X154865297Y-77260096D01*
X155018096Y-77107297D01*
X155037489Y-77078273D01*
X155805016Y-77845800D01*
X133539325Y-77845800D01*
X133521000Y-77843995D01*
X133502674Y-77845800D01*
X133447840Y-77851201D01*
X133377492Y-77872541D01*
X133312658Y-77907195D01*
X133255831Y-77953831D01*
X133244143Y-77968073D01*
X132958408Y-78253808D01*
X132811983Y-78193157D01*
X132600045Y-78151000D01*
X132383955Y-78151000D01*
X132172017Y-78193157D01*
X131972376Y-78275851D01*
X131792703Y-78395904D01*
X131639904Y-78548703D01*
X131519851Y-78728376D01*
X131437157Y-78928017D01*
X131395000Y-79139955D01*
X131395000Y-79356045D01*
X131437157Y-79567983D01*
X131519851Y-79767624D01*
X131639904Y-79947297D01*
X131792703Y-80100096D01*
X131972376Y-80220149D01*
X132172017Y-80302843D01*
X132383955Y-80345000D01*
X132600045Y-80345000D01*
X132811983Y-80302843D01*
X133011624Y-80220149D01*
X133191297Y-80100096D01*
X133344096Y-79947297D01*
X133464149Y-79767624D01*
X133546843Y-79567983D01*
X133589000Y-79356045D01*
X133589000Y-79139955D01*
X133546843Y-78928017D01*
X133486192Y-78781592D01*
X133675584Y-78592200D01*
X151682563Y-78592200D01*
X151682563Y-80048000D01*
X151688297Y-80106222D01*
X151705280Y-80162207D01*
X151732859Y-80213803D01*
X151769973Y-80259027D01*
X151815197Y-80296141D01*
X151866793Y-80323720D01*
X151922778Y-80340703D01*
X151981000Y-80346437D01*
X152412844Y-80346437D01*
X152413201Y-80350060D01*
X152434541Y-80420408D01*
X152469195Y-80485242D01*
X152515831Y-80542069D01*
X152572658Y-80588705D01*
X152637492Y-80623359D01*
X152707840Y-80644699D01*
X152762674Y-80650100D01*
X152762675Y-80650100D01*
X152781000Y-80651905D01*
X152799326Y-80650100D01*
X153242417Y-80650100D01*
X158822243Y-86229927D01*
X158833931Y-86244169D01*
X158890758Y-86290805D01*
X158955592Y-86325459D01*
X159025940Y-86346799D01*
X159095281Y-86353629D01*
X159109601Y-86400835D01*
X159211465Y-86591409D01*
X159348551Y-86758449D01*
X159515591Y-86895535D01*
X159642357Y-86963293D01*
X159617331Y-86983831D01*
X159605650Y-86998065D01*
X157584278Y-89019439D01*
X157570031Y-89031131D01*
X157523395Y-89087959D01*
X157488741Y-89152793D01*
X157480703Y-89179292D01*
X157467401Y-89223141D01*
X157460195Y-89296300D01*
X157462000Y-89314625D01*
X157462000Y-90262392D01*
X157376870Y-90347522D01*
X157288377Y-90089277D01*
X157009024Y-89954403D01*
X156708725Y-89876619D01*
X156399023Y-89858916D01*
X156091816Y-89901973D01*
X155798914Y-90004135D01*
X155639623Y-90089277D01*
X155551129Y-90347524D01*
X156464000Y-91260395D01*
X156478143Y-91246253D01*
X156657748Y-91425858D01*
X156643605Y-91440000D01*
X156657748Y-91454143D01*
X156478143Y-91633748D01*
X156464000Y-91619605D01*
X155551129Y-92532476D01*
X155639623Y-92790723D01*
X155859106Y-92896691D01*
X155675586Y-93019315D01*
X155503315Y-93191586D01*
X155367962Y-93394156D01*
X155274730Y-93619239D01*
X155227200Y-93858186D01*
X155227200Y-94101814D01*
X155274730Y-94340761D01*
X155367962Y-94565844D01*
X155503315Y-94768414D01*
X155675586Y-94940685D01*
X155878156Y-95076038D01*
X156103239Y-95169270D01*
X156342186Y-95216800D01*
X156585814Y-95216800D01*
X156824761Y-95169270D01*
X157049844Y-95076038D01*
X157252414Y-94940685D01*
X157424685Y-94768414D01*
X157560038Y-94565844D01*
X157653270Y-94340761D01*
X157700800Y-94101814D01*
X157700800Y-93858186D01*
X157653270Y-93619239D01*
X157565190Y-93406594D01*
X158086127Y-92885657D01*
X158100369Y-92873969D01*
X158147005Y-92817142D01*
X158181659Y-92752308D01*
X158202999Y-92681960D01*
X158208400Y-92627126D01*
X158210205Y-92608800D01*
X158208400Y-92590475D01*
X158208400Y-89450883D01*
X158725900Y-88933384D01*
X158725901Y-93730315D01*
X157037406Y-95418810D01*
X156824761Y-95330730D01*
X156585814Y-95283200D01*
X156342186Y-95283200D01*
X156103239Y-95330730D01*
X155878156Y-95423962D01*
X155675586Y-95559315D01*
X155503315Y-95731586D01*
X155367962Y-95934156D01*
X155274730Y-96159239D01*
X155227200Y-96398186D01*
X155227200Y-96641814D01*
X155274730Y-96880761D01*
X155367962Y-97105844D01*
X155503315Y-97308414D01*
X155675586Y-97480685D01*
X155878156Y-97616038D01*
X156103239Y-97709270D01*
X156342186Y-97756800D01*
X156585814Y-97756800D01*
X156824761Y-97709270D01*
X157049844Y-97616038D01*
X157252414Y-97480685D01*
X157424685Y-97308414D01*
X157560038Y-97105844D01*
X157653270Y-96880761D01*
X157700800Y-96641814D01*
X157700800Y-96398186D01*
X157653270Y-96159239D01*
X157644887Y-96139000D01*
X159025693Y-96139000D01*
X159046874Y-96354049D01*
X159109601Y-96560835D01*
X159211465Y-96751409D01*
X159348551Y-96918449D01*
X159515591Y-97055535D01*
X159706165Y-97157399D01*
X159912951Y-97220126D01*
X160074118Y-97236000D01*
X160981882Y-97236000D01*
X161143049Y-97220126D01*
X161349835Y-97157399D01*
X161540409Y-97055535D01*
X161707449Y-96918449D01*
X161844535Y-96751409D01*
X161946399Y-96560835D01*
X162009126Y-96354049D01*
X162030307Y-96139000D01*
X162009126Y-95923951D01*
X161946399Y-95717165D01*
X161844535Y-95526591D01*
X161707449Y-95359551D01*
X161540409Y-95222465D01*
X161349835Y-95120601D01*
X161143049Y-95057874D01*
X160981882Y-95042000D01*
X160074118Y-95042000D01*
X159912951Y-95057874D01*
X159706165Y-95120601D01*
X159515591Y-95222465D01*
X159348551Y-95359551D01*
X159211465Y-95526591D01*
X159109601Y-95717165D01*
X159046874Y-95923951D01*
X159025693Y-96139000D01*
X157644887Y-96139000D01*
X157565190Y-95946594D01*
X159251542Y-94260242D01*
X159348551Y-94378449D01*
X159515591Y-94515535D01*
X159706165Y-94617399D01*
X159912951Y-94680126D01*
X160074118Y-94696000D01*
X160981882Y-94696000D01*
X161143049Y-94680126D01*
X161349835Y-94617399D01*
X161540409Y-94515535D01*
X161707449Y-94378449D01*
X161844535Y-94211409D01*
X161946399Y-94020835D01*
X162009126Y-93814049D01*
X162030307Y-93599000D01*
X162009126Y-93383951D01*
X161946399Y-93177165D01*
X161844535Y-92986591D01*
X161707449Y-92819551D01*
X161540409Y-92682465D01*
X161349835Y-92580601D01*
X161143049Y-92517874D01*
X160981882Y-92502000D01*
X160074118Y-92502000D01*
X159912951Y-92517874D01*
X159706165Y-92580601D01*
X159515591Y-92682465D01*
X159472300Y-92717993D01*
X159472300Y-91940007D01*
X159515591Y-91975535D01*
X159706165Y-92077399D01*
X159912951Y-92140126D01*
X160074118Y-92156000D01*
X160981882Y-92156000D01*
X161143049Y-92140126D01*
X161349835Y-92077399D01*
X161540409Y-91975535D01*
X161707449Y-91838449D01*
X161844535Y-91671409D01*
X161946399Y-91480835D01*
X162009126Y-91274049D01*
X162030307Y-91059000D01*
X162009126Y-90843951D01*
X161946399Y-90637165D01*
X161844535Y-90446591D01*
X161707449Y-90279551D01*
X161540409Y-90142465D01*
X161349835Y-90040601D01*
X161143049Y-89977874D01*
X160981882Y-89962000D01*
X160074118Y-89962000D01*
X159912951Y-89977874D01*
X159706165Y-90040601D01*
X159515591Y-90142465D01*
X159472300Y-90177993D01*
X159472300Y-89400007D01*
X159515591Y-89435535D01*
X159706165Y-89537399D01*
X159912951Y-89600126D01*
X160074118Y-89616000D01*
X160981882Y-89616000D01*
X161143049Y-89600126D01*
X161349835Y-89537399D01*
X161540409Y-89435535D01*
X161707449Y-89298449D01*
X161844535Y-89131409D01*
X161946399Y-88940835D01*
X162009126Y-88734049D01*
X162030307Y-88519000D01*
X162009126Y-88303951D01*
X161946399Y-88097165D01*
X161844535Y-87906591D01*
X161707449Y-87739551D01*
X161540409Y-87602465D01*
X161379004Y-87516192D01*
X161381469Y-87514169D01*
X161393161Y-87499922D01*
X162207827Y-86685257D01*
X162222069Y-86673569D01*
X162268705Y-86616742D01*
X162303359Y-86551908D01*
X162324699Y-86481560D01*
X162330100Y-86426726D01*
X162331905Y-86408400D01*
X162330100Y-86390075D01*
X162330100Y-83457326D01*
X162331905Y-83439000D01*
X162328659Y-83406043D01*
X166345901Y-87423286D01*
X166345900Y-88500674D01*
X166344095Y-88519000D01*
X166351301Y-88592160D01*
X166372641Y-88662508D01*
X166407295Y-88727342D01*
X166453931Y-88784169D01*
X166510758Y-88830805D01*
X166575592Y-88865459D01*
X166645940Y-88886799D01*
X166715281Y-88893629D01*
X166729601Y-88940835D01*
X166831465Y-89131409D01*
X166968551Y-89298449D01*
X167135591Y-89435535D01*
X167326165Y-89537399D01*
X167532951Y-89600126D01*
X167694118Y-89616000D01*
X168601882Y-89616000D01*
X168763049Y-89600126D01*
X168969835Y-89537399D01*
X169160409Y-89435535D01*
X169203701Y-89400006D01*
X169203701Y-90177993D01*
X169160409Y-90142465D01*
X168969835Y-90040601D01*
X168763049Y-89977874D01*
X168601882Y-89962000D01*
X167694118Y-89962000D01*
X167532951Y-89977874D01*
X167326165Y-90040601D01*
X167135591Y-90142465D01*
X166968551Y-90279551D01*
X166831465Y-90446591D01*
X166729601Y-90637165D01*
X166666874Y-90843951D01*
X166645693Y-91059000D01*
X166666874Y-91274049D01*
X166729601Y-91480835D01*
X166831465Y-91671409D01*
X166968551Y-91838449D01*
X167135591Y-91975535D01*
X167326165Y-92077399D01*
X167532951Y-92140126D01*
X167694118Y-92156000D01*
X168601882Y-92156000D01*
X168763049Y-92140126D01*
X168969835Y-92077399D01*
X169160409Y-91975535D01*
X169203700Y-91940007D01*
X169203700Y-92717993D01*
X169160409Y-92682465D01*
X168969835Y-92580601D01*
X168763049Y-92517874D01*
X168601882Y-92502000D01*
X167694118Y-92502000D01*
X167532951Y-92517874D01*
X167326165Y-92580601D01*
X167135591Y-92682465D01*
X166968551Y-92819551D01*
X166831465Y-92986591D01*
X166729601Y-93177165D01*
X166666874Y-93383951D01*
X166645693Y-93599000D01*
X166666874Y-93814049D01*
X166729601Y-94020835D01*
X166831465Y-94211409D01*
X166968551Y-94378449D01*
X167135591Y-94515535D01*
X167326165Y-94617399D01*
X167532951Y-94680126D01*
X167694118Y-94696000D01*
X168601882Y-94696000D01*
X168763049Y-94680126D01*
X168969835Y-94617399D01*
X169160409Y-94515535D01*
X169327449Y-94378449D01*
X169464535Y-94211409D01*
X169515100Y-94116808D01*
X169515100Y-95621192D01*
X169464535Y-95526591D01*
X169327449Y-95359551D01*
X169160409Y-95222465D01*
X168969835Y-95120601D01*
X168763049Y-95057874D01*
X168601882Y-95042000D01*
X167694118Y-95042000D01*
X167532951Y-95057874D01*
X167326165Y-95120601D01*
X167135591Y-95222465D01*
X166968551Y-95359551D01*
X166831465Y-95526591D01*
X166729601Y-95717165D01*
X166715281Y-95764371D01*
X166700774Y-95765800D01*
X166645940Y-95771201D01*
X166575592Y-95792541D01*
X166510758Y-95827195D01*
X166453931Y-95873831D01*
X166442243Y-95888073D01*
X162373517Y-99956800D01*
X161592908Y-99956800D01*
X161594483Y-99956166D01*
X161830839Y-99801601D01*
X162032500Y-99603895D01*
X162191715Y-99370646D01*
X162302367Y-99110818D01*
X162319904Y-99028039D01*
X162197915Y-98806000D01*
X160655000Y-98806000D01*
X160655000Y-98826000D01*
X160401000Y-98826000D01*
X160401000Y-98806000D01*
X158858085Y-98806000D01*
X158736096Y-99028039D01*
X158753633Y-99110818D01*
X158864285Y-99370646D01*
X159023500Y-99603895D01*
X159225161Y-99801601D01*
X159461517Y-99956166D01*
X159463092Y-99956800D01*
X157316299Y-99956800D01*
X157424685Y-99848414D01*
X157560038Y-99645844D01*
X157653270Y-99420761D01*
X157700800Y-99181814D01*
X157700800Y-98938186D01*
X157653270Y-98699239D01*
X157560038Y-98474156D01*
X157463690Y-98329961D01*
X158736096Y-98329961D01*
X158858085Y-98552000D01*
X160401000Y-98552000D01*
X160401000Y-98532000D01*
X160655000Y-98532000D01*
X160655000Y-98552000D01*
X162197915Y-98552000D01*
X162319904Y-98329961D01*
X162302367Y-98247182D01*
X162191715Y-97987354D01*
X162032500Y-97754105D01*
X161830839Y-97556399D01*
X161594483Y-97401834D01*
X161332514Y-97296350D01*
X161055000Y-97244000D01*
X160001000Y-97244000D01*
X159723486Y-97296350D01*
X159461517Y-97401834D01*
X159225161Y-97556399D01*
X159023500Y-97754105D01*
X158864285Y-97987354D01*
X158753633Y-98247182D01*
X158736096Y-98329961D01*
X157463690Y-98329961D01*
X157424685Y-98271586D01*
X157252414Y-98099315D01*
X157049844Y-97963962D01*
X156824761Y-97870730D01*
X156585814Y-97823200D01*
X156342186Y-97823200D01*
X156103239Y-97870730D01*
X155878156Y-97963962D01*
X155675586Y-98099315D01*
X155503315Y-98271586D01*
X155367962Y-98474156D01*
X155274730Y-98699239D01*
X155227200Y-98938186D01*
X155227200Y-99181814D01*
X155274730Y-99420761D01*
X155367962Y-99645844D01*
X155503315Y-99848414D01*
X155611701Y-99956800D01*
X155212325Y-99956800D01*
X155193999Y-99954995D01*
X155175674Y-99956800D01*
X155120840Y-99962201D01*
X155050492Y-99983541D01*
X154985658Y-100018195D01*
X154928831Y-100064831D01*
X154917143Y-100079073D01*
X154497406Y-100498810D01*
X154284761Y-100410730D01*
X154045814Y-100363200D01*
X153802186Y-100363200D01*
X153563239Y-100410730D01*
X153338156Y-100503962D01*
X153135586Y-100639315D01*
X152963315Y-100811586D01*
X152827962Y-101014156D01*
X152734730Y-101239239D01*
X152687200Y-101478186D01*
X152687200Y-101721814D01*
X152734730Y-101960761D01*
X152827962Y-102185844D01*
X152963315Y-102388414D01*
X153135586Y-102560685D01*
X153338156Y-102696038D01*
X153563239Y-102789270D01*
X153802186Y-102836800D01*
X154045814Y-102836800D01*
X154284761Y-102789270D01*
X154509844Y-102696038D01*
X154712414Y-102560685D01*
X154884685Y-102388414D01*
X155020038Y-102185844D01*
X155113270Y-101960761D01*
X155160800Y-101721814D01*
X155160800Y-101478186D01*
X155113270Y-101239239D01*
X155025190Y-101026594D01*
X155348584Y-100703200D01*
X155611701Y-100703200D01*
X155503315Y-100811586D01*
X155367962Y-101014156D01*
X155274730Y-101239239D01*
X155227200Y-101478186D01*
X155227200Y-101721814D01*
X155274730Y-101960761D01*
X155367962Y-102185844D01*
X155503315Y-102388414D01*
X155675586Y-102560685D01*
X155878156Y-102696038D01*
X156103239Y-102789270D01*
X156342186Y-102836800D01*
X156585814Y-102836800D01*
X156824761Y-102789270D01*
X157049844Y-102696038D01*
X157252414Y-102560685D01*
X157424685Y-102388414D01*
X157560038Y-102185844D01*
X157653270Y-101960761D01*
X157700800Y-101721814D01*
X157700800Y-101478186D01*
X157653270Y-101239239D01*
X157560038Y-101014156D01*
X157424685Y-100811586D01*
X157316299Y-100703200D01*
X162509775Y-100703200D01*
X162528100Y-100705005D01*
X162546425Y-100703200D01*
X162546426Y-100703200D01*
X162601260Y-100697799D01*
X162671608Y-100676459D01*
X162736442Y-100641805D01*
X162793269Y-100595169D01*
X162804961Y-100580922D01*
X166762848Y-96623036D01*
X166831465Y-96751409D01*
X166968551Y-96918449D01*
X167135591Y-97055535D01*
X167326165Y-97157399D01*
X167532951Y-97220126D01*
X167694118Y-97236000D01*
X168601882Y-97236000D01*
X168763049Y-97220126D01*
X168969835Y-97157399D01*
X169160409Y-97055535D01*
X169327449Y-96918449D01*
X169464535Y-96751409D01*
X169515100Y-96656808D01*
X169515100Y-98161191D01*
X169464535Y-98066591D01*
X169327449Y-97899551D01*
X169160409Y-97762465D01*
X168969835Y-97660601D01*
X168763049Y-97597874D01*
X168601882Y-97582000D01*
X167694118Y-97582000D01*
X167532951Y-97597874D01*
X167326165Y-97660601D01*
X167135591Y-97762465D01*
X166968551Y-97899551D01*
X166831465Y-98066591D01*
X166729601Y-98257165D01*
X166666874Y-98463951D01*
X166645693Y-98679000D01*
X166666874Y-98894049D01*
X166729601Y-99100835D01*
X166831465Y-99291409D01*
X166968551Y-99458449D01*
X167135591Y-99595535D01*
X167326165Y-99697399D01*
X167532951Y-99760126D01*
X167694118Y-99776000D01*
X168601882Y-99776000D01*
X168763049Y-99760126D01*
X168969835Y-99697399D01*
X169160409Y-99595535D01*
X169327449Y-99458449D01*
X169464535Y-99291409D01*
X169566399Y-99100835D01*
X169580719Y-99053629D01*
X169595225Y-99052200D01*
X169595226Y-99052200D01*
X169650060Y-99046799D01*
X169720408Y-99025459D01*
X169785242Y-98990805D01*
X169842069Y-98944169D01*
X169853761Y-98929922D01*
X170087001Y-98696683D01*
X170087001Y-114410018D01*
X170050858Y-114778629D01*
X169948739Y-115116864D01*
X169782867Y-115428825D01*
X169559560Y-115702625D01*
X169287328Y-115927836D01*
X168976533Y-116095882D01*
X168639017Y-116200361D01*
X168271385Y-116239000D01*
X119070298Y-116239000D01*
X119214906Y-116210236D01*
X119460044Y-116108696D01*
X119680663Y-115961284D01*
X119868284Y-115773663D01*
X120015696Y-115553044D01*
X120117236Y-115307906D01*
X120160419Y-115090804D01*
X121558000Y-115090804D01*
X121558000Y-115287196D01*
X121596314Y-115479814D01*
X121671470Y-115661257D01*
X121780580Y-115824550D01*
X121919450Y-115963420D01*
X122082743Y-116072530D01*
X122264186Y-116147686D01*
X122456804Y-116186000D01*
X122653196Y-116186000D01*
X122845814Y-116147686D01*
X123027257Y-116072530D01*
X123190550Y-115963420D01*
X123329420Y-115824550D01*
X123438530Y-115661257D01*
X123513686Y-115479814D01*
X123552000Y-115287196D01*
X123552000Y-115090804D01*
X123513686Y-114898186D01*
X123472655Y-114799128D01*
X126138585Y-112133200D01*
X127339882Y-112133200D01*
X127427962Y-112345844D01*
X127563315Y-112548414D01*
X127671701Y-112656800D01*
X127526325Y-112656800D01*
X127507999Y-112654995D01*
X127489674Y-112656800D01*
X127434840Y-112662201D01*
X127364492Y-112683541D01*
X127299658Y-112718195D01*
X127242831Y-112764831D01*
X127231143Y-112779073D01*
X125738872Y-114271345D01*
X125639814Y-114230314D01*
X125447196Y-114192000D01*
X125250804Y-114192000D01*
X125058186Y-114230314D01*
X124876743Y-114305470D01*
X124713450Y-114414580D01*
X124574580Y-114553450D01*
X124465470Y-114716743D01*
X124390314Y-114898186D01*
X124352000Y-115090804D01*
X124352000Y-115287196D01*
X124390314Y-115479814D01*
X124465470Y-115661257D01*
X124574580Y-115824550D01*
X124713450Y-115963420D01*
X124876743Y-116072530D01*
X125058186Y-116147686D01*
X125250804Y-116186000D01*
X125447196Y-116186000D01*
X125639814Y-116147686D01*
X125821257Y-116072530D01*
X125984550Y-115963420D01*
X126123420Y-115824550D01*
X126232530Y-115661257D01*
X126307686Y-115479814D01*
X126346000Y-115287196D01*
X126346000Y-115090804D01*
X126307686Y-114898186D01*
X126266655Y-114799128D01*
X127662584Y-113403200D01*
X127671701Y-113403200D01*
X127563315Y-113511586D01*
X127427962Y-113714156D01*
X127334730Y-113939239D01*
X127287200Y-114178186D01*
X127287200Y-114421814D01*
X127334730Y-114660761D01*
X127427962Y-114885844D01*
X127563315Y-115088414D01*
X127735586Y-115260685D01*
X127938156Y-115396038D01*
X128163239Y-115489270D01*
X128402186Y-115536800D01*
X128645814Y-115536800D01*
X128884761Y-115489270D01*
X129109844Y-115396038D01*
X129312414Y-115260685D01*
X129484685Y-115088414D01*
X129620038Y-114885844D01*
X129713270Y-114660761D01*
X129760800Y-114421814D01*
X129760800Y-114178186D01*
X129713270Y-113939239D01*
X129620038Y-113714156D01*
X129484685Y-113511586D01*
X129376299Y-113403200D01*
X129775675Y-113403200D01*
X129794000Y-113405005D01*
X129812325Y-113403200D01*
X129812326Y-113403200D01*
X129825763Y-113401876D01*
X129825763Y-115239800D01*
X129831497Y-115298022D01*
X129848480Y-115354007D01*
X129876059Y-115405603D01*
X129913173Y-115450827D01*
X129958397Y-115487941D01*
X130009993Y-115515520D01*
X130065978Y-115532503D01*
X130124200Y-115538237D01*
X132003800Y-115538237D01*
X132062022Y-115532503D01*
X132118007Y-115515520D01*
X132169603Y-115487941D01*
X132214827Y-115450827D01*
X132251941Y-115405603D01*
X132279520Y-115354007D01*
X132296503Y-115298022D01*
X132302237Y-115239800D01*
X132302237Y-114178186D01*
X152687200Y-114178186D01*
X152687200Y-114421814D01*
X152734730Y-114660761D01*
X152827962Y-114885844D01*
X152963315Y-115088414D01*
X153135586Y-115260685D01*
X153338156Y-115396038D01*
X153563239Y-115489270D01*
X153802186Y-115536800D01*
X154045814Y-115536800D01*
X154284761Y-115489270D01*
X154509844Y-115396038D01*
X154712414Y-115260685D01*
X154884685Y-115088414D01*
X155020038Y-114885844D01*
X155113270Y-114660761D01*
X155160800Y-114421814D01*
X155160800Y-114178186D01*
X155113270Y-113939239D01*
X155020038Y-113714156D01*
X154884685Y-113511586D01*
X154733299Y-113360200D01*
X155225763Y-113360200D01*
X155225763Y-115239800D01*
X155231497Y-115298022D01*
X155248480Y-115354007D01*
X155276059Y-115405603D01*
X155313173Y-115450827D01*
X155358397Y-115487941D01*
X155409993Y-115515520D01*
X155465978Y-115532503D01*
X155524200Y-115538237D01*
X157403800Y-115538237D01*
X157462022Y-115532503D01*
X157518007Y-115515520D01*
X157569603Y-115487941D01*
X157614827Y-115450827D01*
X157651941Y-115405603D01*
X157679520Y-115354007D01*
X157696503Y-115298022D01*
X157702237Y-115239800D01*
X157702237Y-113360200D01*
X157696503Y-113301978D01*
X157679520Y-113245993D01*
X157651941Y-113194397D01*
X157614827Y-113149173D01*
X157569603Y-113112059D01*
X157518007Y-113084480D01*
X157462022Y-113067497D01*
X157403800Y-113061763D01*
X155524200Y-113061763D01*
X155465978Y-113067497D01*
X155409993Y-113084480D01*
X155358397Y-113112059D01*
X155313173Y-113149173D01*
X155276059Y-113194397D01*
X155248480Y-113245993D01*
X155231497Y-113301978D01*
X155225763Y-113360200D01*
X154733299Y-113360200D01*
X154712414Y-113339315D01*
X154509844Y-113203962D01*
X154284761Y-113110730D01*
X154045814Y-113063200D01*
X153802186Y-113063200D01*
X153563239Y-113110730D01*
X153338156Y-113203962D01*
X153135586Y-113339315D01*
X152963315Y-113511586D01*
X152827962Y-113714156D01*
X152734730Y-113939239D01*
X152687200Y-114178186D01*
X132302237Y-114178186D01*
X132302237Y-113360200D01*
X132296503Y-113301978D01*
X132279520Y-113245993D01*
X132251941Y-113194397D01*
X132214827Y-113149173D01*
X132169603Y-113112059D01*
X132118007Y-113084480D01*
X132062022Y-113067497D01*
X132003800Y-113061763D01*
X130290020Y-113061763D01*
X130490594Y-112861190D01*
X130703239Y-112949270D01*
X130942186Y-112996800D01*
X131185814Y-112996800D01*
X131424761Y-112949270D01*
X131649844Y-112856038D01*
X131852414Y-112720685D01*
X132024685Y-112548414D01*
X132160038Y-112345844D01*
X132253270Y-112120761D01*
X132300800Y-111881814D01*
X132300800Y-111638186D01*
X152687200Y-111638186D01*
X152687200Y-111881814D01*
X152734730Y-112120761D01*
X152827962Y-112345844D01*
X152963315Y-112548414D01*
X153135586Y-112720685D01*
X153338156Y-112856038D01*
X153563239Y-112949270D01*
X153802186Y-112996800D01*
X154045814Y-112996800D01*
X154284761Y-112949270D01*
X154509844Y-112856038D01*
X154712414Y-112720685D01*
X154884685Y-112548414D01*
X155020038Y-112345844D01*
X155113270Y-112120761D01*
X155160800Y-111881814D01*
X155160800Y-111638186D01*
X155227200Y-111638186D01*
X155227200Y-111881814D01*
X155274730Y-112120761D01*
X155367962Y-112345844D01*
X155503315Y-112548414D01*
X155675586Y-112720685D01*
X155878156Y-112856038D01*
X156103239Y-112949270D01*
X156342186Y-112996800D01*
X156585814Y-112996800D01*
X156824761Y-112949270D01*
X157049844Y-112856038D01*
X157252414Y-112720685D01*
X157424685Y-112548414D01*
X157560038Y-112345844D01*
X157653270Y-112120761D01*
X157668936Y-112042000D01*
X158479563Y-112042000D01*
X158479563Y-115542000D01*
X158485297Y-115600222D01*
X158502280Y-115656207D01*
X158529859Y-115707803D01*
X158566973Y-115753027D01*
X158612197Y-115790141D01*
X158663793Y-115817720D01*
X158719778Y-115834703D01*
X158778000Y-115840437D01*
X162278000Y-115840437D01*
X162336222Y-115834703D01*
X162392207Y-115817720D01*
X162443803Y-115790141D01*
X162489027Y-115753027D01*
X162526141Y-115707803D01*
X162553720Y-115656207D01*
X162570703Y-115600222D01*
X162576437Y-115542000D01*
X164389928Y-115542000D01*
X164402188Y-115666482D01*
X164438498Y-115786180D01*
X164497463Y-115896494D01*
X164576815Y-115993185D01*
X164673506Y-116072537D01*
X164783820Y-116131502D01*
X164903518Y-116167812D01*
X165028000Y-116180072D01*
X166242250Y-116177000D01*
X166401000Y-116018250D01*
X166401000Y-113919000D01*
X166655000Y-113919000D01*
X166655000Y-116018250D01*
X166813750Y-116177000D01*
X168028000Y-116180072D01*
X168152482Y-116167812D01*
X168272180Y-116131502D01*
X168382494Y-116072537D01*
X168479185Y-115993185D01*
X168558537Y-115896494D01*
X168617502Y-115786180D01*
X168653812Y-115666482D01*
X168666072Y-115542000D01*
X168663000Y-114077750D01*
X168504250Y-113919000D01*
X166655000Y-113919000D01*
X166401000Y-113919000D01*
X164551750Y-113919000D01*
X164393000Y-114077750D01*
X164389928Y-115542000D01*
X162576437Y-115542000D01*
X162576437Y-112042000D01*
X164389928Y-112042000D01*
X164393000Y-113506250D01*
X164551750Y-113665000D01*
X166401000Y-113665000D01*
X166401000Y-111565750D01*
X166655000Y-111565750D01*
X166655000Y-113665000D01*
X168504250Y-113665000D01*
X168663000Y-113506250D01*
X168666072Y-112042000D01*
X168653812Y-111917518D01*
X168617502Y-111797820D01*
X168558537Y-111687506D01*
X168479185Y-111590815D01*
X168382494Y-111511463D01*
X168272180Y-111452498D01*
X168152482Y-111416188D01*
X168028000Y-111403928D01*
X166813750Y-111407000D01*
X166655000Y-111565750D01*
X166401000Y-111565750D01*
X166242250Y-111407000D01*
X165028000Y-111403928D01*
X164903518Y-111416188D01*
X164783820Y-111452498D01*
X164673506Y-111511463D01*
X164576815Y-111590815D01*
X164497463Y-111687506D01*
X164438498Y-111797820D01*
X164402188Y-111917518D01*
X164389928Y-112042000D01*
X162576437Y-112042000D01*
X162570703Y-111983778D01*
X162553720Y-111927793D01*
X162526141Y-111876197D01*
X162489027Y-111830973D01*
X162443803Y-111793859D01*
X162392207Y-111766280D01*
X162336222Y-111749297D01*
X162278000Y-111743563D01*
X158778000Y-111743563D01*
X158719778Y-111749297D01*
X158663793Y-111766280D01*
X158612197Y-111793859D01*
X158566973Y-111830973D01*
X158529859Y-111876197D01*
X158502280Y-111927793D01*
X158485297Y-111983778D01*
X158479563Y-112042000D01*
X157668936Y-112042000D01*
X157700800Y-111881814D01*
X157700800Y-111638186D01*
X157653270Y-111399239D01*
X157560038Y-111174156D01*
X157424685Y-110971586D01*
X157252414Y-110799315D01*
X157049844Y-110663962D01*
X156824761Y-110570730D01*
X156585814Y-110523200D01*
X156342186Y-110523200D01*
X156103239Y-110570730D01*
X155878156Y-110663962D01*
X155675586Y-110799315D01*
X155503315Y-110971586D01*
X155367962Y-111174156D01*
X155274730Y-111399239D01*
X155227200Y-111638186D01*
X155160800Y-111638186D01*
X155113270Y-111399239D01*
X155020038Y-111174156D01*
X154884685Y-110971586D01*
X154712414Y-110799315D01*
X154509844Y-110663962D01*
X154284761Y-110570730D01*
X154045814Y-110523200D01*
X153802186Y-110523200D01*
X153563239Y-110570730D01*
X153338156Y-110663962D01*
X153135586Y-110799315D01*
X152963315Y-110971586D01*
X152827962Y-111174156D01*
X152734730Y-111399239D01*
X152687200Y-111638186D01*
X132300800Y-111638186D01*
X132253270Y-111399239D01*
X132160038Y-111174156D01*
X132024685Y-110971586D01*
X131852414Y-110799315D01*
X131649844Y-110663962D01*
X131424761Y-110570730D01*
X131185814Y-110523200D01*
X130942186Y-110523200D01*
X130703239Y-110570730D01*
X130478156Y-110663962D01*
X130275586Y-110799315D01*
X130103315Y-110971586D01*
X129967962Y-111174156D01*
X129874730Y-111399239D01*
X129827200Y-111638186D01*
X129827200Y-111881814D01*
X129874730Y-112120761D01*
X129962810Y-112333406D01*
X129639417Y-112656800D01*
X129376299Y-112656800D01*
X129484685Y-112548414D01*
X129620038Y-112345844D01*
X129713270Y-112120761D01*
X129760800Y-111881814D01*
X129760800Y-111638186D01*
X129713270Y-111399239D01*
X129620038Y-111174156D01*
X129484685Y-110971586D01*
X129312414Y-110799315D01*
X129109844Y-110663962D01*
X128884761Y-110570730D01*
X128645814Y-110523200D01*
X128402186Y-110523200D01*
X128163239Y-110570730D01*
X127938156Y-110663962D01*
X127735586Y-110799315D01*
X127563315Y-110971586D01*
X127427962Y-111174156D01*
X127339882Y-111386800D01*
X126002325Y-111386800D01*
X125983999Y-111384995D01*
X125965674Y-111386800D01*
X125910840Y-111392201D01*
X125840492Y-111413541D01*
X125775658Y-111448195D01*
X125718831Y-111494831D01*
X125707148Y-111509067D01*
X122944872Y-114271345D01*
X122845814Y-114230314D01*
X122653196Y-114192000D01*
X122456804Y-114192000D01*
X122264186Y-114230314D01*
X122082743Y-114305470D01*
X121919450Y-114414580D01*
X121780580Y-114553450D01*
X121671470Y-114716743D01*
X121596314Y-114898186D01*
X121558000Y-115090804D01*
X120160419Y-115090804D01*
X120169000Y-115047668D01*
X120169000Y-114782332D01*
X120117236Y-114522094D01*
X120015696Y-114276956D01*
X119868284Y-114056337D01*
X119680663Y-113868716D01*
X119460044Y-113721304D01*
X119214906Y-113619764D01*
X118954668Y-113568000D01*
X118689332Y-113568000D01*
X118429094Y-113619764D01*
X118183956Y-113721304D01*
X117963337Y-113868716D01*
X117795603Y-114036450D01*
X117831855Y-113894474D01*
X117847804Y-113597457D01*
X117805501Y-113303037D01*
X117706572Y-113022526D01*
X117629868Y-112879025D01*
X117378240Y-112798365D01*
X116511605Y-113665000D01*
X117378240Y-114531635D01*
X117544947Y-114478197D01*
X117526764Y-114522094D01*
X117475000Y-114782332D01*
X117475000Y-115047668D01*
X117526764Y-115307906D01*
X117628304Y-115553044D01*
X117775716Y-115773663D01*
X117963337Y-115961284D01*
X118183956Y-116108696D01*
X118429094Y-116210236D01*
X118573702Y-116239000D01*
X116983972Y-116239000D01*
X116615371Y-116202858D01*
X116277136Y-116100739D01*
X115965175Y-115934867D01*
X115691375Y-115711560D01*
X115466164Y-115439328D01*
X115298118Y-115128533D01*
X115193639Y-114791017D01*
X115185255Y-114711240D01*
X115465365Y-114711240D01*
X115546025Y-114962868D01*
X115814329Y-115091267D01*
X116102526Y-115164855D01*
X116399543Y-115180804D01*
X116693963Y-115138501D01*
X116974474Y-115039572D01*
X117117975Y-114962868D01*
X117198635Y-114711240D01*
X116332000Y-113844605D01*
X115465365Y-114711240D01*
X115185255Y-114711240D01*
X115162215Y-114492032D01*
X115285760Y-114531635D01*
X116152395Y-113665000D01*
X115285760Y-112798365D01*
X115155000Y-112840280D01*
X115155000Y-112618760D01*
X115465365Y-112618760D01*
X116332000Y-113485395D01*
X117198635Y-112618760D01*
X117117975Y-112367132D01*
X116849671Y-112238733D01*
X116561474Y-112165145D01*
X116264457Y-112149196D01*
X115970037Y-112191499D01*
X115689526Y-112290428D01*
X115546025Y-112367132D01*
X115465365Y-112618760D01*
X115155000Y-112618760D01*
X115155000Y-109049568D01*
X115160000Y-109049568D01*
X115160000Y-109280432D01*
X115205039Y-109506860D01*
X115293387Y-109720150D01*
X115421648Y-109912107D01*
X115584893Y-110075352D01*
X115776850Y-110203613D01*
X115990140Y-110291961D01*
X116216568Y-110337000D01*
X116447432Y-110337000D01*
X116673860Y-110291961D01*
X116887150Y-110203613D01*
X117079107Y-110075352D01*
X117242352Y-109912107D01*
X117370613Y-109720150D01*
X117458961Y-109506860D01*
X117504000Y-109280432D01*
X117504000Y-109049568D01*
X117458961Y-108823140D01*
X117370613Y-108609850D01*
X117242352Y-108417893D01*
X117079107Y-108254648D01*
X116887150Y-108126387D01*
X116673860Y-108038039D01*
X116447432Y-107993000D01*
X116216568Y-107993000D01*
X115990140Y-108038039D01*
X115776850Y-108126387D01*
X115584893Y-108254648D01*
X115421648Y-108417893D01*
X115293387Y-108609850D01*
X115205039Y-108823140D01*
X115160000Y-109049568D01*
X115155000Y-109049568D01*
X115155000Y-107772332D01*
X117475000Y-107772332D01*
X117475000Y-108037668D01*
X117526764Y-108297906D01*
X117628304Y-108543044D01*
X117775716Y-108763663D01*
X117963337Y-108951284D01*
X118183956Y-109098696D01*
X118429094Y-109200236D01*
X118689332Y-109252000D01*
X118954668Y-109252000D01*
X119214906Y-109200236D01*
X119460044Y-109098696D01*
X119460807Y-109098186D01*
X127287200Y-109098186D01*
X127287200Y-109341814D01*
X127334730Y-109580761D01*
X127427962Y-109805844D01*
X127563315Y-110008414D01*
X127735586Y-110180685D01*
X127938156Y-110316038D01*
X128163239Y-110409270D01*
X128402186Y-110456800D01*
X128645814Y-110456800D01*
X128884761Y-110409270D01*
X129109844Y-110316038D01*
X129312414Y-110180685D01*
X129484685Y-110008414D01*
X129620038Y-109805844D01*
X129713270Y-109580761D01*
X129760800Y-109341814D01*
X129760800Y-109098186D01*
X129827200Y-109098186D01*
X129827200Y-109341814D01*
X129874730Y-109580761D01*
X129967962Y-109805844D01*
X130103315Y-110008414D01*
X130275586Y-110180685D01*
X130478156Y-110316038D01*
X130703239Y-110409270D01*
X130942186Y-110456800D01*
X131185814Y-110456800D01*
X131424761Y-110409270D01*
X131649844Y-110316038D01*
X131852414Y-110180685D01*
X132024685Y-110008414D01*
X132160038Y-109805844D01*
X132253270Y-109580761D01*
X132300800Y-109341814D01*
X132300800Y-109098186D01*
X132253270Y-108859239D01*
X132160038Y-108634156D01*
X132024685Y-108431586D01*
X131852414Y-108259315D01*
X131649844Y-108123962D01*
X131424761Y-108030730D01*
X131185814Y-107983200D01*
X130942186Y-107983200D01*
X130703239Y-108030730D01*
X130478156Y-108123962D01*
X130275586Y-108259315D01*
X130103315Y-108431586D01*
X129967962Y-108634156D01*
X129874730Y-108859239D01*
X129827200Y-109098186D01*
X129760800Y-109098186D01*
X129713270Y-108859239D01*
X129620038Y-108634156D01*
X129484685Y-108431586D01*
X129312414Y-108259315D01*
X129109844Y-108123962D01*
X128884761Y-108030730D01*
X128645814Y-107983200D01*
X128402186Y-107983200D01*
X128163239Y-108030730D01*
X127938156Y-108123962D01*
X127735586Y-108259315D01*
X127563315Y-108431586D01*
X127427962Y-108634156D01*
X127334730Y-108859239D01*
X127287200Y-109098186D01*
X119460807Y-109098186D01*
X119680663Y-108951284D01*
X119868284Y-108763663D01*
X120015696Y-108543044D01*
X120117236Y-108297906D01*
X120169000Y-108037668D01*
X120169000Y-107772332D01*
X120128556Y-107569000D01*
X121553176Y-107569000D01*
X121572426Y-107764446D01*
X121629435Y-107952381D01*
X121722014Y-108125584D01*
X121846603Y-108277397D01*
X121998416Y-108401986D01*
X122171619Y-108494565D01*
X122359554Y-108551574D01*
X122506022Y-108566000D01*
X122603978Y-108566000D01*
X122750446Y-108551574D01*
X122938381Y-108494565D01*
X123111584Y-108401986D01*
X123263397Y-108277397D01*
X123387986Y-108125584D01*
X123480565Y-107952381D01*
X123537574Y-107764446D01*
X123556824Y-107569000D01*
X124347176Y-107569000D01*
X124366426Y-107764446D01*
X124423435Y-107952381D01*
X124516014Y-108125584D01*
X124640603Y-108277397D01*
X124792416Y-108401986D01*
X124965619Y-108494565D01*
X125153554Y-108551574D01*
X125300022Y-108566000D01*
X125397978Y-108566000D01*
X125544446Y-108551574D01*
X125732381Y-108494565D01*
X125905584Y-108401986D01*
X126057397Y-108277397D01*
X126181986Y-108125584D01*
X126274565Y-107952381D01*
X126331574Y-107764446D01*
X126350824Y-107569000D01*
X126331574Y-107373554D01*
X126274565Y-107185619D01*
X126181986Y-107012416D01*
X126057397Y-106860603D01*
X125905584Y-106736014D01*
X125732381Y-106643435D01*
X125544446Y-106586426D01*
X125397978Y-106572000D01*
X125300022Y-106572000D01*
X125153554Y-106586426D01*
X124965619Y-106643435D01*
X124792416Y-106736014D01*
X124640603Y-106860603D01*
X124516014Y-107012416D01*
X124423435Y-107185619D01*
X124366426Y-107373554D01*
X124347176Y-107569000D01*
X123556824Y-107569000D01*
X123537574Y-107373554D01*
X123480565Y-107185619D01*
X123387986Y-107012416D01*
X123263397Y-106860603D01*
X123111584Y-106736014D01*
X122938381Y-106643435D01*
X122750446Y-106586426D01*
X122603978Y-106572000D01*
X122506022Y-106572000D01*
X122359554Y-106586426D01*
X122171619Y-106643435D01*
X121998416Y-106736014D01*
X121846603Y-106860603D01*
X121722014Y-107012416D01*
X121629435Y-107185619D01*
X121572426Y-107373554D01*
X121553176Y-107569000D01*
X120128556Y-107569000D01*
X120117236Y-107512094D01*
X120015696Y-107266956D01*
X119868284Y-107046337D01*
X119680663Y-106858716D01*
X119460044Y-106711304D01*
X119214906Y-106609764D01*
X118955604Y-106558186D01*
X127287200Y-106558186D01*
X127287200Y-106801814D01*
X127334730Y-107040761D01*
X127427962Y-107265844D01*
X127563315Y-107468414D01*
X127735586Y-107640685D01*
X127938156Y-107776038D01*
X128163239Y-107869270D01*
X128402186Y-107916800D01*
X128645814Y-107916800D01*
X128884761Y-107869270D01*
X129109844Y-107776038D01*
X129312414Y-107640685D01*
X129484685Y-107468414D01*
X129620038Y-107265844D01*
X129713270Y-107040761D01*
X129760800Y-106801814D01*
X129760800Y-106558186D01*
X129713270Y-106319239D01*
X129620038Y-106094156D01*
X129484685Y-105891586D01*
X129312414Y-105719315D01*
X129109844Y-105583962D01*
X128884761Y-105490730D01*
X128645814Y-105443200D01*
X128402186Y-105443200D01*
X128163239Y-105490730D01*
X127938156Y-105583962D01*
X127735586Y-105719315D01*
X127563315Y-105891586D01*
X127427962Y-106094156D01*
X127334730Y-106319239D01*
X127287200Y-106558186D01*
X118955604Y-106558186D01*
X118954668Y-106558000D01*
X118689332Y-106558000D01*
X118429094Y-106609764D01*
X118183956Y-106711304D01*
X117963337Y-106858716D01*
X117775716Y-107046337D01*
X117628304Y-107266956D01*
X117526764Y-107512094D01*
X117475000Y-107772332D01*
X115155000Y-107772332D01*
X115155000Y-102981000D01*
X116344928Y-102981000D01*
X116357188Y-103105482D01*
X116393498Y-103225180D01*
X116452463Y-103335494D01*
X116531815Y-103432185D01*
X116628506Y-103511537D01*
X116738820Y-103570502D01*
X116858518Y-103606812D01*
X116983000Y-103619072D01*
X117050984Y-103618780D01*
X116975554Y-103694210D01*
X116833613Y-103906640D01*
X116735843Y-104142679D01*
X116686000Y-104393257D01*
X116686000Y-104648743D01*
X116735843Y-104899321D01*
X116833613Y-105135360D01*
X116975554Y-105347790D01*
X117156210Y-105528446D01*
X117368640Y-105670387D01*
X117604679Y-105768157D01*
X117855257Y-105818000D01*
X118110743Y-105818000D01*
X118361321Y-105768157D01*
X118597360Y-105670387D01*
X118809790Y-105528446D01*
X118990446Y-105347790D01*
X119132387Y-105135360D01*
X119230157Y-104899321D01*
X119280000Y-104648743D01*
X119280000Y-104393257D01*
X119230157Y-104142679D01*
X119132387Y-103906640D01*
X118990446Y-103694210D01*
X118915016Y-103618780D01*
X118983000Y-103619072D01*
X119107482Y-103606812D01*
X119227180Y-103570502D01*
X119337494Y-103511537D01*
X119434185Y-103432185D01*
X119513537Y-103335494D01*
X119572502Y-103225180D01*
X119608812Y-103105482D01*
X119621072Y-102981000D01*
X122440928Y-102981000D01*
X122453188Y-103105482D01*
X122489498Y-103225180D01*
X122548463Y-103335494D01*
X122627815Y-103432185D01*
X122724506Y-103511537D01*
X122834820Y-103570502D01*
X122954518Y-103606812D01*
X123079000Y-103619072D01*
X123146984Y-103618780D01*
X123071554Y-103694210D01*
X122929613Y-103906640D01*
X122831843Y-104142679D01*
X122782000Y-104393257D01*
X122782000Y-104648743D01*
X122831843Y-104899321D01*
X122929613Y-105135360D01*
X123071554Y-105347790D01*
X123252210Y-105528446D01*
X123464640Y-105670387D01*
X123700679Y-105768157D01*
X123951257Y-105818000D01*
X124206743Y-105818000D01*
X124457321Y-105768157D01*
X124693360Y-105670387D01*
X124905790Y-105528446D01*
X125086446Y-105347790D01*
X125228387Y-105135360D01*
X125326157Y-104899321D01*
X125376000Y-104648743D01*
X125376000Y-104393257D01*
X125326157Y-104142679D01*
X125228387Y-103906640D01*
X125086446Y-103694210D01*
X125011016Y-103618780D01*
X125079000Y-103619072D01*
X125203482Y-103606812D01*
X125323180Y-103570502D01*
X125433494Y-103511537D01*
X125530185Y-103432185D01*
X125609537Y-103335494D01*
X125668502Y-103225180D01*
X125704812Y-103105482D01*
X125717072Y-102981000D01*
X125714000Y-102266750D01*
X125555250Y-102108000D01*
X124206000Y-102108000D01*
X124206000Y-102128000D01*
X123952000Y-102128000D01*
X123952000Y-102108000D01*
X122602750Y-102108000D01*
X122444000Y-102266750D01*
X122440928Y-102981000D01*
X119621072Y-102981000D01*
X119618000Y-102266750D01*
X119459250Y-102108000D01*
X118110000Y-102108000D01*
X118110000Y-102128000D01*
X117856000Y-102128000D01*
X117856000Y-102108000D01*
X116506750Y-102108000D01*
X116348000Y-102266750D01*
X116344928Y-102981000D01*
X115155000Y-102981000D01*
X115155000Y-100981000D01*
X116344928Y-100981000D01*
X116348000Y-101695250D01*
X116506750Y-101854000D01*
X117856000Y-101854000D01*
X117856000Y-100504750D01*
X118110000Y-100504750D01*
X118110000Y-101854000D01*
X119459250Y-101854000D01*
X119618000Y-101695250D01*
X119621072Y-100981000D01*
X119608812Y-100856518D01*
X119572502Y-100736820D01*
X119513537Y-100626506D01*
X119434185Y-100529815D01*
X119337494Y-100450463D01*
X119227180Y-100391498D01*
X119107482Y-100355188D01*
X118983000Y-100342928D01*
X118268750Y-100346000D01*
X118110000Y-100504750D01*
X117856000Y-100504750D01*
X117697250Y-100346000D01*
X116983000Y-100342928D01*
X116858518Y-100355188D01*
X116738820Y-100391498D01*
X116628506Y-100450463D01*
X116531815Y-100529815D01*
X116452463Y-100626506D01*
X116393498Y-100736820D01*
X116357188Y-100856518D01*
X116344928Y-100981000D01*
X115155000Y-100981000D01*
X115155000Y-99028039D01*
X115302096Y-99028039D01*
X115319633Y-99110818D01*
X115430285Y-99370646D01*
X115589500Y-99603895D01*
X115791161Y-99801601D01*
X116027517Y-99956166D01*
X116289486Y-100061650D01*
X116567000Y-100114000D01*
X116967000Y-100114000D01*
X116967000Y-98806000D01*
X117221000Y-98806000D01*
X117221000Y-100114000D01*
X117621000Y-100114000D01*
X117898514Y-100061650D01*
X118160483Y-99956166D01*
X118396839Y-99801601D01*
X118598500Y-99603895D01*
X118757715Y-99370646D01*
X118868367Y-99110818D01*
X118885904Y-99028039D01*
X118763915Y-98806000D01*
X117221000Y-98806000D01*
X116967000Y-98806000D01*
X115424085Y-98806000D01*
X115302096Y-99028039D01*
X115155000Y-99028039D01*
X115155000Y-98329961D01*
X115302096Y-98329961D01*
X115424085Y-98552000D01*
X116967000Y-98552000D01*
X116967000Y-98532000D01*
X117221000Y-98532000D01*
X117221000Y-98552000D01*
X118763915Y-98552000D01*
X118885904Y-98329961D01*
X118868367Y-98247182D01*
X118757715Y-97987354D01*
X118598500Y-97754105D01*
X118396839Y-97556399D01*
X118160483Y-97401834D01*
X117898514Y-97296350D01*
X117621000Y-97244000D01*
X116567000Y-97244000D01*
X116289486Y-97296350D01*
X116027517Y-97401834D01*
X115791161Y-97556399D01*
X115589500Y-97754105D01*
X115430285Y-97987354D01*
X115319633Y-98247182D01*
X115302096Y-98329961D01*
X115155000Y-98329961D01*
X115155000Y-96139000D01*
X115591693Y-96139000D01*
X115612874Y-96354049D01*
X115675601Y-96560835D01*
X115777465Y-96751409D01*
X115914551Y-96918449D01*
X116081591Y-97055535D01*
X116272165Y-97157399D01*
X116478951Y-97220126D01*
X116640118Y-97236000D01*
X117547882Y-97236000D01*
X117709049Y-97220126D01*
X117915835Y-97157399D01*
X118106409Y-97055535D01*
X118273449Y-96918449D01*
X118410535Y-96751409D01*
X118512399Y-96560835D01*
X118575126Y-96354049D01*
X118596307Y-96139000D01*
X118575126Y-95923951D01*
X118512399Y-95717165D01*
X118410535Y-95526591D01*
X118273449Y-95359551D01*
X118106409Y-95222465D01*
X117915835Y-95120601D01*
X117709049Y-95057874D01*
X117547882Y-95042000D01*
X116640118Y-95042000D01*
X116478951Y-95057874D01*
X116272165Y-95120601D01*
X116081591Y-95222465D01*
X115914551Y-95359551D01*
X115777465Y-95526591D01*
X115675601Y-95717165D01*
X115612874Y-95923951D01*
X115591693Y-96139000D01*
X115155000Y-96139000D01*
X115155000Y-91059000D01*
X115591693Y-91059000D01*
X115612874Y-91274049D01*
X115675601Y-91480835D01*
X115777465Y-91671409D01*
X115914551Y-91838449D01*
X116081591Y-91975535D01*
X116272165Y-92077399D01*
X116478951Y-92140126D01*
X116640118Y-92156000D01*
X117547882Y-92156000D01*
X117709049Y-92140126D01*
X117915835Y-92077399D01*
X118106409Y-91975535D01*
X118273449Y-91838449D01*
X118410535Y-91671409D01*
X118512399Y-91480835D01*
X118575126Y-91274049D01*
X118596307Y-91059000D01*
X118575126Y-90843951D01*
X118512399Y-90637165D01*
X118410535Y-90446591D01*
X118273449Y-90279551D01*
X118106409Y-90142465D01*
X117915835Y-90040601D01*
X117709049Y-89977874D01*
X117547882Y-89962000D01*
X116640118Y-89962000D01*
X116478951Y-89977874D01*
X116272165Y-90040601D01*
X116081591Y-90142465D01*
X115914551Y-90279551D01*
X115777465Y-90446591D01*
X115675601Y-90637165D01*
X115612874Y-90843951D01*
X115591693Y-91059000D01*
X115155000Y-91059000D01*
X115155000Y-82450400D01*
X115289995Y-82450400D01*
X115291801Y-82468735D01*
X115291800Y-86387275D01*
X115289995Y-86405600D01*
X115291800Y-86423925D01*
X115297201Y-86478759D01*
X115318541Y-86549107D01*
X115353195Y-86613941D01*
X115399831Y-86670769D01*
X115414078Y-86682461D01*
X116231543Y-87499927D01*
X116243231Y-87514169D01*
X116244631Y-87515318D01*
X116081591Y-87602465D01*
X115914551Y-87739551D01*
X115777465Y-87906591D01*
X115675601Y-88097165D01*
X115612874Y-88303951D01*
X115591693Y-88519000D01*
X115612874Y-88734049D01*
X115675601Y-88940835D01*
X115777465Y-89131409D01*
X115914551Y-89298449D01*
X116081591Y-89435535D01*
X116272165Y-89537399D01*
X116478951Y-89600126D01*
X116640118Y-89616000D01*
X117547882Y-89616000D01*
X117709049Y-89600126D01*
X117915835Y-89537399D01*
X118106409Y-89435535D01*
X118155066Y-89395603D01*
X118155101Y-89395959D01*
X118176441Y-89466307D01*
X118211095Y-89531141D01*
X118257731Y-89587969D01*
X118271978Y-89599661D01*
X123792243Y-95119927D01*
X123803931Y-95134169D01*
X123828720Y-95154513D01*
X123701591Y-95222465D01*
X123534551Y-95359551D01*
X123397465Y-95526591D01*
X123295601Y-95717165D01*
X123232874Y-95923951D01*
X123211693Y-96139000D01*
X123232874Y-96354049D01*
X123295601Y-96560835D01*
X123397465Y-96751409D01*
X123534551Y-96918449D01*
X123701591Y-97055535D01*
X123892165Y-97157399D01*
X124098951Y-97220126D01*
X124260118Y-97236000D01*
X125167882Y-97236000D01*
X125272875Y-97225659D01*
X126565900Y-98518684D01*
X126565901Y-99112965D01*
X126564095Y-99131300D01*
X126571301Y-99204459D01*
X126592642Y-99274808D01*
X126625804Y-99336850D01*
X126627296Y-99339642D01*
X126673932Y-99396469D01*
X126688173Y-99408157D01*
X127845733Y-100565717D01*
X127735586Y-100639315D01*
X127563315Y-100811586D01*
X127427962Y-101014156D01*
X127334730Y-101239239D01*
X127287200Y-101478186D01*
X127287200Y-101721814D01*
X127334730Y-101960761D01*
X127427962Y-102185844D01*
X127563315Y-102388414D01*
X127671701Y-102496800D01*
X127456284Y-102496800D01*
X125636577Y-100677094D01*
X125609537Y-100626506D01*
X125530185Y-100529815D01*
X125433494Y-100450463D01*
X125323180Y-100391498D01*
X125203482Y-100355188D01*
X125079000Y-100342928D01*
X125039085Y-100343100D01*
X124471985Y-99776000D01*
X125167882Y-99776000D01*
X125329049Y-99760126D01*
X125535835Y-99697399D01*
X125726409Y-99595535D01*
X125893449Y-99458449D01*
X126030535Y-99291409D01*
X126132399Y-99100835D01*
X126195126Y-98894049D01*
X126216307Y-98679000D01*
X126195126Y-98463951D01*
X126132399Y-98257165D01*
X126030535Y-98066591D01*
X125893449Y-97899551D01*
X125726409Y-97762465D01*
X125535835Y-97660601D01*
X125329049Y-97597874D01*
X125167882Y-97582000D01*
X124260118Y-97582000D01*
X124098951Y-97597874D01*
X123892165Y-97660601D01*
X123701591Y-97762465D01*
X123534551Y-97899551D01*
X123397465Y-98066591D01*
X123295601Y-98257165D01*
X123232874Y-98463951D01*
X123226334Y-98530350D01*
X118896100Y-94200117D01*
X118896100Y-93617325D01*
X118897905Y-93599000D01*
X118890699Y-93525840D01*
X118869359Y-93455492D01*
X118834705Y-93390658D01*
X118788069Y-93333831D01*
X118731242Y-93287195D01*
X118666408Y-93252541D01*
X118596060Y-93231201D01*
X118541226Y-93225800D01*
X118541225Y-93225800D01*
X118526719Y-93224371D01*
X118512399Y-93177165D01*
X118410535Y-92986591D01*
X118273449Y-92819551D01*
X118106409Y-92682465D01*
X117915835Y-92580601D01*
X117709049Y-92517874D01*
X117547882Y-92502000D01*
X116640118Y-92502000D01*
X116478951Y-92517874D01*
X116272165Y-92580601D01*
X116081591Y-92682465D01*
X115914551Y-92819551D01*
X115777465Y-92986591D01*
X115675601Y-93177165D01*
X115612874Y-93383951D01*
X115591693Y-93599000D01*
X115612874Y-93814049D01*
X115675601Y-94020835D01*
X115777465Y-94211409D01*
X115914551Y-94378449D01*
X116081591Y-94515535D01*
X116272165Y-94617399D01*
X116478951Y-94680126D01*
X116640118Y-94696000D01*
X117547882Y-94696000D01*
X117709049Y-94680126D01*
X117915835Y-94617399D01*
X118106409Y-94515535D01*
X118166691Y-94466063D01*
X118176442Y-94498208D01*
X118211095Y-94563041D01*
X118216390Y-94569493D01*
X118257732Y-94619869D01*
X118271974Y-94631557D01*
X123986415Y-100346000D01*
X123951998Y-100346000D01*
X123951998Y-100504748D01*
X123793250Y-100346000D01*
X123079000Y-100342928D01*
X122954518Y-100355188D01*
X122834820Y-100391498D01*
X122724506Y-100450463D01*
X122627815Y-100529815D01*
X122548463Y-100626506D01*
X122489498Y-100736820D01*
X122453188Y-100856518D01*
X122440928Y-100981000D01*
X122444000Y-101695250D01*
X122602750Y-101854000D01*
X123952000Y-101854000D01*
X123952000Y-101834000D01*
X124206000Y-101834000D01*
X124206000Y-101854000D01*
X125555250Y-101854000D01*
X125656583Y-101752667D01*
X127024843Y-103120927D01*
X127036531Y-103135169D01*
X127093358Y-103181805D01*
X127158192Y-103216459D01*
X127228540Y-103237799D01*
X127301699Y-103245005D01*
X127320025Y-103243200D01*
X127671701Y-103243200D01*
X127563315Y-103351586D01*
X127427962Y-103554156D01*
X127334730Y-103779239D01*
X127287200Y-104018186D01*
X127287200Y-104261814D01*
X127334730Y-104500761D01*
X127427962Y-104725844D01*
X127563315Y-104928414D01*
X127735586Y-105100685D01*
X127938156Y-105236038D01*
X128163239Y-105329270D01*
X128402186Y-105376800D01*
X128645814Y-105376800D01*
X128884761Y-105329270D01*
X129109844Y-105236038D01*
X129312414Y-105100685D01*
X129484685Y-104928414D01*
X129550513Y-104829896D01*
X130285448Y-105564833D01*
X130297131Y-105579069D01*
X130353958Y-105625705D01*
X130388251Y-105644035D01*
X130275586Y-105719315D01*
X130103315Y-105891586D01*
X129967962Y-106094156D01*
X129874730Y-106319239D01*
X129827200Y-106558186D01*
X129827200Y-106801814D01*
X129874730Y-107040761D01*
X129967962Y-107265844D01*
X130103315Y-107468414D01*
X130275586Y-107640685D01*
X130478156Y-107776038D01*
X130703239Y-107869270D01*
X130942186Y-107916800D01*
X131185814Y-107916800D01*
X131424761Y-107869270D01*
X131649844Y-107776038D01*
X131852414Y-107640685D01*
X132024685Y-107468414D01*
X132160038Y-107265844D01*
X132253270Y-107040761D01*
X132300800Y-106801814D01*
X132300800Y-106558186D01*
X132253270Y-106319239D01*
X132160038Y-106094156D01*
X132024685Y-105891586D01*
X131852414Y-105719315D01*
X131743216Y-105646351D01*
X131781842Y-105625705D01*
X131838669Y-105579069D01*
X131850361Y-105564822D01*
X132524528Y-104890656D01*
X132538769Y-104878969D01*
X132585405Y-104822142D01*
X132620059Y-104757308D01*
X132641399Y-104686960D01*
X132646800Y-104632126D01*
X132646800Y-104632125D01*
X132648605Y-104613800D01*
X132646800Y-104595475D01*
X132646800Y-102827925D01*
X132648605Y-102809600D01*
X132641399Y-102736440D01*
X132620059Y-102666092D01*
X132585405Y-102601258D01*
X132578751Y-102593150D01*
X132538769Y-102544431D01*
X132524527Y-102532743D01*
X132165190Y-102173406D01*
X132253270Y-101960761D01*
X132300800Y-101721814D01*
X132300800Y-101478186D01*
X132253270Y-101239239D01*
X132160038Y-101014156D01*
X132024685Y-100811586D01*
X131852414Y-100639315D01*
X131649844Y-100503962D01*
X131424761Y-100410730D01*
X131185814Y-100363200D01*
X130942186Y-100363200D01*
X130703239Y-100410730D01*
X130478156Y-100503962D01*
X130275586Y-100639315D01*
X130103315Y-100811586D01*
X130031199Y-100919515D01*
X129291961Y-100180278D01*
X129280269Y-100166031D01*
X129223442Y-100119395D01*
X129190798Y-100101946D01*
X129312414Y-100020685D01*
X129484685Y-99848414D01*
X129620038Y-99645844D01*
X129713270Y-99420761D01*
X129760800Y-99181814D01*
X129760800Y-98938186D01*
X129713270Y-98699239D01*
X129620038Y-98474156D01*
X129484685Y-98271586D01*
X129376299Y-98163200D01*
X129639417Y-98163200D01*
X129962810Y-98486594D01*
X129874730Y-98699239D01*
X129827200Y-98938186D01*
X129827200Y-99181814D01*
X129874730Y-99420761D01*
X129967962Y-99645844D01*
X130103315Y-99848414D01*
X130275586Y-100020685D01*
X130478156Y-100156038D01*
X130703239Y-100249270D01*
X130942186Y-100296800D01*
X131185814Y-100296800D01*
X131424761Y-100249270D01*
X131649844Y-100156038D01*
X131852414Y-100020685D01*
X132024685Y-99848414D01*
X132160038Y-99645844D01*
X132253270Y-99420761D01*
X132300800Y-99181814D01*
X132300800Y-98938186D01*
X132253270Y-98699239D01*
X132160038Y-98474156D01*
X132024685Y-98271586D01*
X131852414Y-98099315D01*
X131649844Y-97963962D01*
X131424761Y-97870730D01*
X131185814Y-97823200D01*
X130942186Y-97823200D01*
X130703239Y-97870730D01*
X130490594Y-97958810D01*
X130070861Y-97539078D01*
X130059169Y-97524831D01*
X130002342Y-97478195D01*
X129937508Y-97443541D01*
X129867160Y-97422201D01*
X129812326Y-97416800D01*
X129812325Y-97416800D01*
X129794000Y-97414995D01*
X129775675Y-97416800D01*
X129376299Y-97416800D01*
X129484685Y-97308414D01*
X129620038Y-97105844D01*
X129713270Y-96880761D01*
X129760800Y-96641814D01*
X129760800Y-96398186D01*
X129713270Y-96159239D01*
X129620038Y-95934156D01*
X129484685Y-95731586D01*
X129312414Y-95559315D01*
X129109844Y-95423962D01*
X128884761Y-95330730D01*
X128645814Y-95283200D01*
X128402186Y-95283200D01*
X128163239Y-95330730D01*
X127938156Y-95423962D01*
X127735586Y-95559315D01*
X127563315Y-95731586D01*
X127427962Y-95934156D01*
X127334730Y-96159239D01*
X127299091Y-96338407D01*
X125578761Y-94618078D01*
X125567069Y-94603831D01*
X125564762Y-94601937D01*
X125726409Y-94515535D01*
X125893449Y-94378449D01*
X126030535Y-94211409D01*
X126132399Y-94020835D01*
X126195126Y-93814049D01*
X126216307Y-93599000D01*
X126195126Y-93383951D01*
X126132399Y-93177165D01*
X126030535Y-92986591D01*
X125893449Y-92819551D01*
X125726409Y-92682465D01*
X125535835Y-92580601D01*
X125329049Y-92517874D01*
X125167882Y-92502000D01*
X124260118Y-92502000D01*
X124098951Y-92517874D01*
X123892165Y-92580601D01*
X123701591Y-92682465D01*
X123652934Y-92722397D01*
X123652899Y-92722040D01*
X123640894Y-92682465D01*
X123631559Y-92651692D01*
X123596905Y-92586858D01*
X123550269Y-92530031D01*
X123536027Y-92518343D01*
X118015761Y-86998078D01*
X118004069Y-86983831D01*
X117979280Y-86963487D01*
X118106409Y-86895535D01*
X118273449Y-86758449D01*
X118410535Y-86591409D01*
X118512399Y-86400835D01*
X118575126Y-86194049D01*
X118596307Y-85979000D01*
X118575126Y-85763951D01*
X118512399Y-85557165D01*
X118410535Y-85366591D01*
X118273449Y-85199551D01*
X118106409Y-85062465D01*
X117915835Y-84960601D01*
X117709049Y-84897874D01*
X117547882Y-84882000D01*
X116640118Y-84882000D01*
X116478951Y-84897874D01*
X116272165Y-84960601D01*
X116081591Y-85062465D01*
X116038200Y-85098075D01*
X116038200Y-84537437D01*
X118294000Y-84537437D01*
X118319357Y-84534940D01*
X123824348Y-90039933D01*
X123836031Y-90054169D01*
X123848159Y-90064122D01*
X123701591Y-90142465D01*
X123534551Y-90279551D01*
X123397465Y-90446591D01*
X123295601Y-90637165D01*
X123232874Y-90843951D01*
X123211693Y-91059000D01*
X123232874Y-91274049D01*
X123295601Y-91480835D01*
X123397465Y-91671409D01*
X123534551Y-91838449D01*
X123701591Y-91975535D01*
X123892165Y-92077399D01*
X124098951Y-92140126D01*
X124260118Y-92156000D01*
X125167882Y-92156000D01*
X125329049Y-92140126D01*
X125535835Y-92077399D01*
X125726409Y-91975535D01*
X125893449Y-91838449D01*
X126030535Y-91671409D01*
X126132399Y-91480835D01*
X126183731Y-91311614D01*
X127829008Y-92956892D01*
X127735586Y-93019315D01*
X127563315Y-93191586D01*
X127427962Y-93394156D01*
X127334730Y-93619239D01*
X127287200Y-93858186D01*
X127287200Y-94101814D01*
X127334730Y-94340761D01*
X127427962Y-94565844D01*
X127563315Y-94768414D01*
X127735586Y-94940685D01*
X127938156Y-95076038D01*
X128163239Y-95169270D01*
X128402186Y-95216800D01*
X128645814Y-95216800D01*
X128884761Y-95169270D01*
X129109844Y-95076038D01*
X129312414Y-94940685D01*
X129420801Y-94832298D01*
X129420801Y-95231665D01*
X129418995Y-95250000D01*
X129426201Y-95323159D01*
X129428498Y-95330730D01*
X129447542Y-95393508D01*
X129482196Y-95458342D01*
X129528832Y-95515169D01*
X129543073Y-95526857D01*
X129962810Y-95946594D01*
X129874730Y-96159239D01*
X129827200Y-96398186D01*
X129827200Y-96641814D01*
X129874730Y-96880761D01*
X129967962Y-97105844D01*
X130103315Y-97308414D01*
X130275586Y-97480685D01*
X130478156Y-97616038D01*
X130703239Y-97709270D01*
X130942186Y-97756800D01*
X131185814Y-97756800D01*
X131424761Y-97709270D01*
X131649844Y-97616038D01*
X131852414Y-97480685D01*
X132024685Y-97308414D01*
X132160038Y-97105844D01*
X132253270Y-96880761D01*
X132300800Y-96641814D01*
X132300800Y-96398186D01*
X132253270Y-96159239D01*
X132160038Y-95934156D01*
X132024685Y-95731586D01*
X131852414Y-95559315D01*
X131649844Y-95423962D01*
X131424761Y-95330730D01*
X131185814Y-95283200D01*
X130942186Y-95283200D01*
X130703239Y-95330730D01*
X130490594Y-95418810D01*
X130167200Y-95095417D01*
X130167200Y-94832299D01*
X130275586Y-94940685D01*
X130478156Y-95076038D01*
X130703239Y-95169270D01*
X130942186Y-95216800D01*
X131185814Y-95216800D01*
X131424761Y-95169270D01*
X131649844Y-95076038D01*
X131852414Y-94940685D01*
X132024685Y-94768414D01*
X132160038Y-94565844D01*
X132253270Y-94340761D01*
X132300800Y-94101814D01*
X132300800Y-93858186D01*
X132253270Y-93619239D01*
X132160038Y-93394156D01*
X132024685Y-93191586D01*
X131852414Y-93019315D01*
X131649844Y-92883962D01*
X131424761Y-92790730D01*
X131185814Y-92743200D01*
X130942186Y-92743200D01*
X130703239Y-92790730D01*
X130478156Y-92883962D01*
X130275586Y-93019315D01*
X130103315Y-93191586D01*
X130037568Y-93289984D01*
X129396850Y-92649267D01*
X129436871Y-92532476D01*
X128524000Y-91619605D01*
X128035644Y-92107961D01*
X127856039Y-91928356D01*
X128344395Y-91440000D01*
X128703605Y-91440000D01*
X129616476Y-92352871D01*
X129874723Y-92264377D01*
X129980691Y-92044894D01*
X130103315Y-92228414D01*
X130275586Y-92400685D01*
X130478156Y-92536038D01*
X130703239Y-92629270D01*
X130942186Y-92676800D01*
X131185814Y-92676800D01*
X131424761Y-92629270D01*
X131649844Y-92536038D01*
X131852414Y-92400685D01*
X132024685Y-92228414D01*
X132160038Y-92025844D01*
X132253270Y-91800761D01*
X132300800Y-91561814D01*
X132300800Y-91318186D01*
X132253270Y-91079239D01*
X132160038Y-90854156D01*
X132024685Y-90651586D01*
X131852414Y-90479315D01*
X131649844Y-90343962D01*
X131424761Y-90250730D01*
X131185814Y-90203200D01*
X130942186Y-90203200D01*
X130703239Y-90250730D01*
X130478156Y-90343962D01*
X130275586Y-90479315D01*
X130103315Y-90651586D01*
X129980802Y-90834940D01*
X129959865Y-90774914D01*
X129874723Y-90615623D01*
X129616476Y-90527129D01*
X128703605Y-91440000D01*
X128344395Y-91440000D01*
X127431524Y-90527129D01*
X127173277Y-90615623D01*
X127038403Y-90894976D01*
X126994017Y-91066334D01*
X126513987Y-90586304D01*
X126510799Y-90553940D01*
X126489459Y-90483593D01*
X126489459Y-90483592D01*
X126454805Y-90418758D01*
X126408169Y-90361931D01*
X126393934Y-90350249D01*
X126391209Y-90347524D01*
X127611129Y-90347524D01*
X128524000Y-91260395D01*
X129436871Y-90347524D01*
X129348377Y-90089277D01*
X129069024Y-89954403D01*
X128768725Y-89876619D01*
X128459023Y-89858916D01*
X128151816Y-89901973D01*
X127858914Y-90004135D01*
X127699623Y-90089277D01*
X127611129Y-90347524D01*
X126391209Y-90347524D01*
X125581761Y-89538078D01*
X125570069Y-89523831D01*
X125566578Y-89520966D01*
X125726409Y-89435535D01*
X125893449Y-89298449D01*
X126030535Y-89131409D01*
X126132399Y-88940835D01*
X126195126Y-88734049D01*
X126216307Y-88519000D01*
X126195126Y-88303951D01*
X126132399Y-88097165D01*
X126030535Y-87906591D01*
X125893449Y-87739551D01*
X125726409Y-87602465D01*
X125535835Y-87500601D01*
X125329049Y-87437874D01*
X125167882Y-87422000D01*
X124260118Y-87422000D01*
X124098951Y-87437874D01*
X123892165Y-87500601D01*
X123701591Y-87602465D01*
X123534551Y-87739551D01*
X123397465Y-87906591D01*
X123295601Y-88097165D01*
X123232874Y-88303951D01*
X123224900Y-88384915D01*
X120818984Y-85979000D01*
X123211693Y-85979000D01*
X123232874Y-86194049D01*
X123295601Y-86400835D01*
X123397465Y-86591409D01*
X123534551Y-86758449D01*
X123701591Y-86895535D01*
X123892165Y-86997399D01*
X124098951Y-87060126D01*
X124260118Y-87076000D01*
X125167882Y-87076000D01*
X125329049Y-87060126D01*
X125535835Y-86997399D01*
X125726409Y-86895535D01*
X125893449Y-86758449D01*
X126030535Y-86591409D01*
X126132399Y-86400835D01*
X126195126Y-86194049D01*
X126216307Y-85979000D01*
X126195126Y-85763951D01*
X126132399Y-85557165D01*
X126030535Y-85366591D01*
X125893449Y-85199551D01*
X125726409Y-85062465D01*
X125535835Y-84960601D01*
X125329049Y-84897874D01*
X125167882Y-84882000D01*
X124260118Y-84882000D01*
X124098951Y-84897874D01*
X123892165Y-84960601D01*
X123701591Y-85062465D01*
X123534551Y-85199551D01*
X123397465Y-85366591D01*
X123295601Y-85557165D01*
X123232874Y-85763951D01*
X123211693Y-85979000D01*
X120818984Y-85979000D01*
X118896100Y-84056117D01*
X118896100Y-83457326D01*
X118897905Y-83439000D01*
X123211693Y-83439000D01*
X123232874Y-83654049D01*
X123295601Y-83860835D01*
X123397465Y-84051409D01*
X123534551Y-84218449D01*
X123701591Y-84355535D01*
X123892165Y-84457399D01*
X124098951Y-84520126D01*
X124260118Y-84536000D01*
X125167882Y-84536000D01*
X125329049Y-84520126D01*
X125535835Y-84457399D01*
X125726409Y-84355535D01*
X125893449Y-84218449D01*
X126030535Y-84051409D01*
X126132399Y-83860835D01*
X126147152Y-83812200D01*
X127988417Y-83812200D01*
X152822810Y-108646594D01*
X152734730Y-108859239D01*
X152687200Y-109098186D01*
X152687200Y-109341814D01*
X152734730Y-109580761D01*
X152827962Y-109805844D01*
X152963315Y-110008414D01*
X153135586Y-110180685D01*
X153338156Y-110316038D01*
X153563239Y-110409270D01*
X153802186Y-110456800D01*
X154045814Y-110456800D01*
X154284761Y-110409270D01*
X154509844Y-110316038D01*
X154712414Y-110180685D01*
X154884685Y-110008414D01*
X155020038Y-109805844D01*
X155113270Y-109580761D01*
X155160800Y-109341814D01*
X155160800Y-109098186D01*
X155113270Y-108859239D01*
X155025190Y-108646594D01*
X155348584Y-108323200D01*
X155611701Y-108323200D01*
X155503315Y-108431586D01*
X155367962Y-108634156D01*
X155274730Y-108859239D01*
X155227200Y-109098186D01*
X155227200Y-109341814D01*
X155274730Y-109580761D01*
X155367962Y-109805844D01*
X155503315Y-110008414D01*
X155675586Y-110180685D01*
X155878156Y-110316038D01*
X156103239Y-110409270D01*
X156342186Y-110456800D01*
X156585814Y-110456800D01*
X156824761Y-110409270D01*
X157049844Y-110316038D01*
X157252414Y-110180685D01*
X157424685Y-110008414D01*
X157560038Y-109805844D01*
X157653270Y-109580761D01*
X157700800Y-109341814D01*
X157700800Y-109098186D01*
X157653270Y-108859239D01*
X157560038Y-108634156D01*
X157424685Y-108431586D01*
X157316299Y-108323200D01*
X157393575Y-108323200D01*
X157411900Y-108325005D01*
X157430225Y-108323200D01*
X157430226Y-108323200D01*
X157485060Y-108317799D01*
X157555408Y-108296459D01*
X157620242Y-108261805D01*
X157674837Y-108217000D01*
X161479563Y-108217000D01*
X161479563Y-109967000D01*
X161502110Y-110195926D01*
X161568886Y-110416055D01*
X161677323Y-110618927D01*
X161823255Y-110796745D01*
X162001073Y-110942677D01*
X162203945Y-111051114D01*
X162424074Y-111117890D01*
X162653000Y-111140437D01*
X164403000Y-111140437D01*
X164631926Y-111117890D01*
X164852055Y-111051114D01*
X165054927Y-110942677D01*
X165232745Y-110796745D01*
X165378677Y-110618927D01*
X165487114Y-110416055D01*
X165553890Y-110195926D01*
X165576437Y-109967000D01*
X165576437Y-108217000D01*
X165553890Y-107988074D01*
X165487114Y-107767945D01*
X165378677Y-107565073D01*
X165232745Y-107387255D01*
X165054927Y-107241323D01*
X164852055Y-107132886D01*
X164631926Y-107066110D01*
X164403000Y-107043563D01*
X162653000Y-107043563D01*
X162424074Y-107066110D01*
X162203945Y-107132886D01*
X162001073Y-107241323D01*
X161823255Y-107387255D01*
X161677323Y-107565073D01*
X161568886Y-107767945D01*
X161502110Y-107988074D01*
X161479563Y-108217000D01*
X157674837Y-108217000D01*
X157677069Y-108215169D01*
X157688761Y-108200922D01*
X160778927Y-105110757D01*
X160793169Y-105099069D01*
X160839805Y-105042242D01*
X160874459Y-104977408D01*
X160895799Y-104907060D01*
X160896156Y-104903437D01*
X161628000Y-104903437D01*
X161686222Y-104897703D01*
X161742207Y-104880720D01*
X161793803Y-104853141D01*
X161839027Y-104816027D01*
X161876141Y-104770803D01*
X161903720Y-104719207D01*
X161920703Y-104663222D01*
X161926437Y-104605000D01*
X161926437Y-103505000D01*
X166744241Y-103505000D01*
X166771214Y-103778860D01*
X166851096Y-104042195D01*
X166980817Y-104284887D01*
X167155392Y-104497608D01*
X167368113Y-104672183D01*
X167610805Y-104801904D01*
X167874140Y-104881786D01*
X168079375Y-104902000D01*
X168216625Y-104902000D01*
X168421860Y-104881786D01*
X168685195Y-104801904D01*
X168927887Y-104672183D01*
X169140608Y-104497608D01*
X169315183Y-104284887D01*
X169444904Y-104042195D01*
X169524786Y-103778860D01*
X169551759Y-103505000D01*
X169524786Y-103231140D01*
X169444904Y-102967805D01*
X169315183Y-102725113D01*
X169140608Y-102512392D01*
X168927887Y-102337817D01*
X168685195Y-102208096D01*
X168421860Y-102128214D01*
X168216625Y-102108000D01*
X168079375Y-102108000D01*
X167874140Y-102128214D01*
X167610805Y-102208096D01*
X167368113Y-102337817D01*
X167155392Y-102512392D01*
X166980817Y-102725113D01*
X166851096Y-102967805D01*
X166771214Y-103231140D01*
X166744241Y-103505000D01*
X161926437Y-103505000D01*
X161926437Y-102405000D01*
X161920703Y-102346778D01*
X161903720Y-102290793D01*
X161876141Y-102239197D01*
X161839027Y-102193973D01*
X161793803Y-102156859D01*
X161742207Y-102129280D01*
X161686222Y-102112297D01*
X161628000Y-102106563D01*
X159428000Y-102106563D01*
X159369778Y-102112297D01*
X159313793Y-102129280D01*
X159262197Y-102156859D01*
X159216973Y-102193973D01*
X159179859Y-102239197D01*
X159152280Y-102290793D01*
X159135297Y-102346778D01*
X159129563Y-102405000D01*
X159129563Y-104605000D01*
X159135297Y-104663222D01*
X159152280Y-104719207D01*
X159179859Y-104770803D01*
X159216973Y-104816027D01*
X159262197Y-104853141D01*
X159313793Y-104880720D01*
X159369778Y-104897703D01*
X159428000Y-104903437D01*
X159930679Y-104903437D01*
X157543456Y-107290661D01*
X157560038Y-107265844D01*
X157653270Y-107040761D01*
X157700800Y-106801814D01*
X157700800Y-106558186D01*
X157653270Y-106319239D01*
X157560038Y-106094156D01*
X157424685Y-105891586D01*
X157252414Y-105719315D01*
X157049844Y-105583962D01*
X156824761Y-105490730D01*
X156585814Y-105443200D01*
X156342186Y-105443200D01*
X156103239Y-105490730D01*
X155878156Y-105583962D01*
X155675586Y-105719315D01*
X155503315Y-105891586D01*
X155380802Y-106074940D01*
X155359865Y-106014914D01*
X155274723Y-105855623D01*
X155016476Y-105767129D01*
X154103605Y-106680000D01*
X154117748Y-106694143D01*
X153938143Y-106873748D01*
X153924000Y-106859605D01*
X153909858Y-106873748D01*
X153730253Y-106694143D01*
X153744395Y-106680000D01*
X152831524Y-105767129D01*
X152573277Y-105855623D01*
X152438403Y-106134976D01*
X152360619Y-106435275D01*
X152342916Y-106744977D01*
X152385973Y-107052184D01*
X152440608Y-107208824D01*
X149249970Y-104018186D01*
X152687200Y-104018186D01*
X152687200Y-104261814D01*
X152734730Y-104500761D01*
X152827962Y-104725844D01*
X152963315Y-104928414D01*
X153135586Y-105100685D01*
X153318940Y-105223198D01*
X153258914Y-105244135D01*
X153099623Y-105329277D01*
X153011129Y-105587524D01*
X153924000Y-106500395D01*
X154836871Y-105587524D01*
X154748377Y-105329277D01*
X154528894Y-105223309D01*
X154712414Y-105100685D01*
X154884685Y-104928414D01*
X155020038Y-104725844D01*
X155113270Y-104500761D01*
X155160800Y-104261814D01*
X155160800Y-104018186D01*
X155227200Y-104018186D01*
X155227200Y-104261814D01*
X155274730Y-104500761D01*
X155367962Y-104725844D01*
X155503315Y-104928414D01*
X155675586Y-105100685D01*
X155878156Y-105236038D01*
X156103239Y-105329270D01*
X156342186Y-105376800D01*
X156585814Y-105376800D01*
X156824761Y-105329270D01*
X157049844Y-105236038D01*
X157252414Y-105100685D01*
X157424685Y-104928414D01*
X157560038Y-104725844D01*
X157653270Y-104500761D01*
X157700800Y-104261814D01*
X157700800Y-104018186D01*
X157653270Y-103779239D01*
X157560038Y-103554156D01*
X157424685Y-103351586D01*
X157252414Y-103179315D01*
X157049844Y-103043962D01*
X156824761Y-102950730D01*
X156585814Y-102903200D01*
X156342186Y-102903200D01*
X156103239Y-102950730D01*
X155878156Y-103043962D01*
X155675586Y-103179315D01*
X155503315Y-103351586D01*
X155367962Y-103554156D01*
X155274730Y-103779239D01*
X155227200Y-104018186D01*
X155160800Y-104018186D01*
X155113270Y-103779239D01*
X155020038Y-103554156D01*
X154884685Y-103351586D01*
X154712414Y-103179315D01*
X154509844Y-103043962D01*
X154284761Y-102950730D01*
X154045814Y-102903200D01*
X153802186Y-102903200D01*
X153563239Y-102950730D01*
X153338156Y-103043962D01*
X153135586Y-103179315D01*
X152963315Y-103351586D01*
X152827962Y-103554156D01*
X152734730Y-103779239D01*
X152687200Y-104018186D01*
X149249970Y-104018186D01*
X144169970Y-98938186D01*
X152687200Y-98938186D01*
X152687200Y-99181814D01*
X152734730Y-99420761D01*
X152827962Y-99645844D01*
X152963315Y-99848414D01*
X153135586Y-100020685D01*
X153338156Y-100156038D01*
X153563239Y-100249270D01*
X153802186Y-100296800D01*
X154045814Y-100296800D01*
X154284761Y-100249270D01*
X154509844Y-100156038D01*
X154712414Y-100020685D01*
X154884685Y-99848414D01*
X155020038Y-99645844D01*
X155113270Y-99420761D01*
X155160800Y-99181814D01*
X155160800Y-98938186D01*
X155113270Y-98699239D01*
X155020038Y-98474156D01*
X154884685Y-98271586D01*
X154712414Y-98099315D01*
X154509844Y-97963962D01*
X154284761Y-97870730D01*
X154045814Y-97823200D01*
X153802186Y-97823200D01*
X153563239Y-97870730D01*
X153338156Y-97963962D01*
X153135586Y-98099315D01*
X152963315Y-98271586D01*
X152827962Y-98474156D01*
X152734730Y-98699239D01*
X152687200Y-98938186D01*
X144169970Y-98938186D01*
X141629970Y-96398186D01*
X152687200Y-96398186D01*
X152687200Y-96641814D01*
X152734730Y-96880761D01*
X152827962Y-97105844D01*
X152963315Y-97308414D01*
X153135586Y-97480685D01*
X153338156Y-97616038D01*
X153563239Y-97709270D01*
X153802186Y-97756800D01*
X154045814Y-97756800D01*
X154284761Y-97709270D01*
X154509844Y-97616038D01*
X154712414Y-97480685D01*
X154884685Y-97308414D01*
X155020038Y-97105844D01*
X155113270Y-96880761D01*
X155160800Y-96641814D01*
X155160800Y-96398186D01*
X155113270Y-96159239D01*
X155020038Y-95934156D01*
X154884685Y-95731586D01*
X154712414Y-95559315D01*
X154509844Y-95423962D01*
X154284761Y-95330730D01*
X154045814Y-95283200D01*
X153802186Y-95283200D01*
X153563239Y-95330730D01*
X153338156Y-95423962D01*
X153135586Y-95559315D01*
X152963315Y-95731586D01*
X152827962Y-95934156D01*
X152734730Y-96159239D01*
X152687200Y-96398186D01*
X141629970Y-96398186D01*
X139089970Y-93858186D01*
X152687200Y-93858186D01*
X152687200Y-94101814D01*
X152734730Y-94340761D01*
X152827962Y-94565844D01*
X152963315Y-94768414D01*
X153135586Y-94940685D01*
X153338156Y-95076038D01*
X153563239Y-95169270D01*
X153802186Y-95216800D01*
X154045814Y-95216800D01*
X154284761Y-95169270D01*
X154509844Y-95076038D01*
X154712414Y-94940685D01*
X154884685Y-94768414D01*
X155020038Y-94565844D01*
X155113270Y-94340761D01*
X155160800Y-94101814D01*
X155160800Y-93858186D01*
X155113270Y-93619239D01*
X155020038Y-93394156D01*
X154884685Y-93191586D01*
X154712414Y-93019315D01*
X154509844Y-92883962D01*
X154284761Y-92790730D01*
X154045814Y-92743200D01*
X153802186Y-92743200D01*
X153563239Y-92790730D01*
X153338156Y-92883962D01*
X153135586Y-93019315D01*
X152963315Y-93191586D01*
X152827962Y-93394156D01*
X152734730Y-93619239D01*
X152687200Y-93858186D01*
X139089970Y-93858186D01*
X136549970Y-91318186D01*
X152687200Y-91318186D01*
X152687200Y-91561814D01*
X152734730Y-91800761D01*
X152827962Y-92025844D01*
X152963315Y-92228414D01*
X153135586Y-92400685D01*
X153338156Y-92536038D01*
X153563239Y-92629270D01*
X153802186Y-92676800D01*
X154045814Y-92676800D01*
X154284761Y-92629270D01*
X154509844Y-92536038D01*
X154712414Y-92400685D01*
X154884685Y-92228414D01*
X155007198Y-92045060D01*
X155028135Y-92105086D01*
X155113277Y-92264377D01*
X155371524Y-92352871D01*
X156284395Y-91440000D01*
X155371524Y-90527129D01*
X155113277Y-90615623D01*
X155007309Y-90835106D01*
X154884685Y-90651586D01*
X154712414Y-90479315D01*
X154509844Y-90343962D01*
X154284761Y-90250730D01*
X154045814Y-90203200D01*
X153802186Y-90203200D01*
X153563239Y-90250730D01*
X153338156Y-90343962D01*
X153135586Y-90479315D01*
X152963315Y-90651586D01*
X152827962Y-90854156D01*
X152734730Y-91079239D01*
X152687200Y-91318186D01*
X136549970Y-91318186D01*
X128419861Y-83188078D01*
X128408169Y-83173831D01*
X128351342Y-83127195D01*
X128286508Y-83092541D01*
X128216160Y-83071201D01*
X128161326Y-83065800D01*
X128161325Y-83065800D01*
X128143000Y-83063995D01*
X128124675Y-83065800D01*
X126147152Y-83065800D01*
X126132399Y-83017165D01*
X126030535Y-82826591D01*
X125893449Y-82659551D01*
X125726409Y-82522465D01*
X125535835Y-82420601D01*
X125329049Y-82357874D01*
X125167882Y-82342000D01*
X124260118Y-82342000D01*
X124098951Y-82357874D01*
X123892165Y-82420601D01*
X123701591Y-82522465D01*
X123534551Y-82659551D01*
X123397465Y-82826591D01*
X123295601Y-83017165D01*
X123232874Y-83223951D01*
X123211693Y-83439000D01*
X118897905Y-83439000D01*
X118890699Y-83365840D01*
X118869359Y-83295492D01*
X118834705Y-83230658D01*
X118788069Y-83173831D01*
X118731242Y-83127195D01*
X118666408Y-83092541D01*
X118596060Y-83071201D01*
X118592437Y-83070844D01*
X118592437Y-82639000D01*
X118586703Y-82580778D01*
X118569720Y-82524793D01*
X118542141Y-82473197D01*
X118505027Y-82427973D01*
X118459803Y-82390859D01*
X118408207Y-82363280D01*
X118352222Y-82346297D01*
X118294000Y-82340563D01*
X116302620Y-82340563D01*
X120377003Y-78266180D01*
X120363859Y-78282197D01*
X120336280Y-78333793D01*
X120319297Y-78389778D01*
X120313563Y-78448000D01*
X120313563Y-80048000D01*
X120319297Y-80106222D01*
X120336280Y-80162207D01*
X120363859Y-80213803D01*
X120400973Y-80259027D01*
X120446197Y-80296141D01*
X120497793Y-80323720D01*
X120553778Y-80340703D01*
X120612000Y-80346437D01*
X122212000Y-80346437D01*
X122270222Y-80340703D01*
X122326207Y-80323720D01*
X122377803Y-80296141D01*
X122423027Y-80259027D01*
X122460141Y-80213803D01*
X122487720Y-80162207D01*
X122504703Y-80106222D01*
X122510437Y-80048000D01*
X122510437Y-79139955D01*
X123085000Y-79139955D01*
X123085000Y-79356045D01*
X123127157Y-79567983D01*
X123209851Y-79767624D01*
X123329904Y-79947297D01*
X123482703Y-80100096D01*
X123662376Y-80220149D01*
X123862017Y-80302843D01*
X124073955Y-80345000D01*
X124290045Y-80345000D01*
X124501983Y-80302843D01*
X124701624Y-80220149D01*
X124881297Y-80100096D01*
X125034096Y-79947297D01*
X125154149Y-79767624D01*
X125236843Y-79567983D01*
X125279000Y-79356045D01*
X125279000Y-79139955D01*
X125855000Y-79139955D01*
X125855000Y-79356045D01*
X125897157Y-79567983D01*
X125979851Y-79767624D01*
X126099904Y-79947297D01*
X126252703Y-80100096D01*
X126432376Y-80220149D01*
X126632017Y-80302843D01*
X126843955Y-80345000D01*
X127060045Y-80345000D01*
X127271983Y-80302843D01*
X127471624Y-80220149D01*
X127651297Y-80100096D01*
X127804096Y-79947297D01*
X127924149Y-79767624D01*
X128006843Y-79567983D01*
X128049000Y-79356045D01*
X128049000Y-79139955D01*
X128625000Y-79139955D01*
X128625000Y-79356045D01*
X128667157Y-79567983D01*
X128749851Y-79767624D01*
X128869904Y-79947297D01*
X129022703Y-80100096D01*
X129202376Y-80220149D01*
X129402017Y-80302843D01*
X129613955Y-80345000D01*
X129830045Y-80345000D01*
X130041983Y-80302843D01*
X130241624Y-80220149D01*
X130421297Y-80100096D01*
X130574096Y-79947297D01*
X130694149Y-79767624D01*
X130776843Y-79567983D01*
X130819000Y-79356045D01*
X130819000Y-79139955D01*
X130776843Y-78928017D01*
X130694149Y-78728376D01*
X130574096Y-78548703D01*
X130421297Y-78395904D01*
X130241624Y-78275851D01*
X130041983Y-78193157D01*
X129830045Y-78151000D01*
X129613955Y-78151000D01*
X129402017Y-78193157D01*
X129202376Y-78275851D01*
X129022703Y-78395904D01*
X128869904Y-78548703D01*
X128749851Y-78728376D01*
X128667157Y-78928017D01*
X128625000Y-79139955D01*
X128049000Y-79139955D01*
X128006843Y-78928017D01*
X127924149Y-78728376D01*
X127804096Y-78548703D01*
X127651297Y-78395904D01*
X127471624Y-78275851D01*
X127271983Y-78193157D01*
X127060045Y-78151000D01*
X126843955Y-78151000D01*
X126632017Y-78193157D01*
X126432376Y-78275851D01*
X126252703Y-78395904D01*
X126099904Y-78548703D01*
X125979851Y-78728376D01*
X125897157Y-78928017D01*
X125855000Y-79139955D01*
X125279000Y-79139955D01*
X125236843Y-78928017D01*
X125154149Y-78728376D01*
X125034096Y-78548703D01*
X124881297Y-78395904D01*
X124701624Y-78275851D01*
X124501983Y-78193157D01*
X124290045Y-78151000D01*
X124073955Y-78151000D01*
X123862017Y-78193157D01*
X123662376Y-78275851D01*
X123482703Y-78395904D01*
X123329904Y-78548703D01*
X123209851Y-78728376D01*
X123127157Y-78928017D01*
X123085000Y-79139955D01*
X122510437Y-79139955D01*
X122510437Y-78448000D01*
X122504703Y-78389778D01*
X122487720Y-78333793D01*
X122460141Y-78282197D01*
X122423027Y-78236973D01*
X122377803Y-78199859D01*
X122326207Y-78172280D01*
X122270222Y-78155297D01*
X122212000Y-78149563D01*
X120612000Y-78149563D01*
X120553778Y-78155297D01*
X120497793Y-78172280D01*
X120446197Y-78199859D01*
X120430180Y-78213003D01*
X121792840Y-76850344D01*
X121824851Y-76927624D01*
X121944904Y-77107297D01*
X122097703Y-77260096D01*
X122277376Y-77380149D01*
X122477017Y-77462843D01*
X122688955Y-77505000D01*
X122905045Y-77505000D01*
X123116983Y-77462843D01*
X123316624Y-77380149D01*
X123496297Y-77260096D01*
X123649096Y-77107297D01*
X123769149Y-76927624D01*
X123851843Y-76727983D01*
X123894000Y-76516045D01*
X123894000Y-76299955D01*
X124470000Y-76299955D01*
X124470000Y-76516045D01*
X124512157Y-76727983D01*
X124594851Y-76927624D01*
X124714904Y-77107297D01*
X124867703Y-77260096D01*
X125047376Y-77380149D01*
X125247017Y-77462843D01*
X125458955Y-77505000D01*
X125675045Y-77505000D01*
X125886983Y-77462843D01*
X126037004Y-77400702D01*
X127523903Y-77400702D01*
X127595486Y-77644671D01*
X127850996Y-77765571D01*
X128125184Y-77834300D01*
X128407512Y-77848217D01*
X128687130Y-77806787D01*
X128953292Y-77711603D01*
X129078514Y-77644671D01*
X129150097Y-77400702D01*
X128337000Y-76587605D01*
X127523903Y-77400702D01*
X126037004Y-77400702D01*
X126086624Y-77380149D01*
X126266297Y-77260096D01*
X126419096Y-77107297D01*
X126539149Y-76927624D01*
X126621843Y-76727983D01*
X126664000Y-76516045D01*
X126664000Y-76478512D01*
X126896783Y-76478512D01*
X126938213Y-76758130D01*
X127033397Y-77024292D01*
X127100329Y-77149514D01*
X127344298Y-77221097D01*
X128157395Y-76408000D01*
X128516605Y-76408000D01*
X129329702Y-77221097D01*
X129573671Y-77149514D01*
X129694571Y-76894004D01*
X129763300Y-76619816D01*
X129777217Y-76337488D01*
X129771656Y-76299955D01*
X130010000Y-76299955D01*
X130010000Y-76516045D01*
X130052157Y-76727983D01*
X130134851Y-76927624D01*
X130254904Y-77107297D01*
X130407703Y-77260096D01*
X130587376Y-77380149D01*
X130787017Y-77462843D01*
X130998955Y-77505000D01*
X131215045Y-77505000D01*
X131426983Y-77462843D01*
X131626624Y-77380149D01*
X131806297Y-77260096D01*
X131959096Y-77107297D01*
X132079149Y-76927624D01*
X132161843Y-76727983D01*
X132204000Y-76516045D01*
X132204000Y-76299955D01*
X132161843Y-76088017D01*
X132079149Y-75888376D01*
X131959096Y-75708703D01*
X131806297Y-75555904D01*
X131626624Y-75435851D01*
X131426983Y-75353157D01*
X131215045Y-75311000D01*
X130998955Y-75311000D01*
X130787017Y-75353157D01*
X130587376Y-75435851D01*
X130407703Y-75555904D01*
X130254904Y-75708703D01*
X130134851Y-75888376D01*
X130052157Y-76088017D01*
X130010000Y-76299955D01*
X129771656Y-76299955D01*
X129735787Y-76057870D01*
X129640603Y-75791708D01*
X129573671Y-75666486D01*
X129329702Y-75594903D01*
X128516605Y-76408000D01*
X128157395Y-76408000D01*
X127344298Y-75594903D01*
X127100329Y-75666486D01*
X126979429Y-75921996D01*
X126910700Y-76196184D01*
X126896783Y-76478512D01*
X126664000Y-76478512D01*
X126664000Y-76299955D01*
X126621843Y-76088017D01*
X126539149Y-75888376D01*
X126419096Y-75708703D01*
X126266297Y-75555904D01*
X126086624Y-75435851D01*
X125886983Y-75353157D01*
X125675045Y-75311000D01*
X125458955Y-75311000D01*
X125247017Y-75353157D01*
X125047376Y-75435851D01*
X124867703Y-75555904D01*
X124714904Y-75708703D01*
X124594851Y-75888376D01*
X124512157Y-76088017D01*
X124470000Y-76299955D01*
X123894000Y-76299955D01*
X123851843Y-76088017D01*
X123769149Y-75888376D01*
X123649096Y-75708703D01*
X123496297Y-75555904D01*
X123316624Y-75435851D01*
X123116983Y-75353157D01*
X122905045Y-75311000D01*
X122688955Y-75311000D01*
X122477017Y-75353157D01*
X122277376Y-75435851D01*
X122097703Y-75555904D01*
X121944904Y-75708703D01*
X121824851Y-75888376D01*
X121764200Y-76034800D01*
X121725725Y-76034800D01*
X121707399Y-76032995D01*
X121689074Y-76034800D01*
X121634240Y-76040201D01*
X121563892Y-76061541D01*
X121499058Y-76096195D01*
X121442231Y-76142831D01*
X121430543Y-76157073D01*
X115414074Y-82173543D01*
X115399832Y-82185231D01*
X115358490Y-82235607D01*
X115353195Y-82242059D01*
X115318542Y-82306892D01*
X115297201Y-82377241D01*
X115289995Y-82450400D01*
X115155000Y-82450400D01*
X115155000Y-77105972D01*
X115191142Y-76737371D01*
X115293261Y-76399135D01*
X115459132Y-76087177D01*
X115682440Y-75813375D01*
X115954672Y-75588164D01*
X116265467Y-75420118D01*
X116602983Y-75315639D01*
X116970615Y-75277000D01*
X127564481Y-75277000D01*
X127523903Y-75415298D01*
M02*
