M48
INCH,TZ
T1C0.0276
T2C0.0315
T3C0.0390
T4C0.0394
T5C0.0400
T6C0.0433
T7C0.0512
%
G90
G05
T1
X48350Y-42550
X48350Y-44550
X49400Y-42550
X49400Y-44550
T2
X46100Y-32700
X46100Y-33700
X46100Y-34700
X46100Y-35700
X46100Y-36700
X46100Y-37700
X46100Y-38700
X49100Y-32700
X49100Y-33700
X49100Y-34700
X49100Y-35700
X49100Y-36700
X49100Y-37700
X49100Y-38700
X63200Y-32700
X63200Y-33700
X63200Y-34700
X63200Y-35700
X63200Y-36700
X63200Y-37700
X63200Y-38700
X66200Y-32700
X66200Y-33700
X66200Y-34700
X66200Y-35700
X66200Y-36700
X66200Y-37700
X66200Y-38700
T3
X46000Y-42728
X46000Y-44500
T4
X48800Y-40050
X48800Y-41050
X47550Y-31200
X48095Y-30082
X48641Y-31200
X49186Y-30082
X49731Y-31200
X50276Y-30082
X50822Y-31200
X51367Y-30082
X51912Y-31200
X46500Y-40050
X60150Y-31200
X60695Y-30082
X61241Y-31200
X61786Y-30082
X62331Y-31200
X62876Y-30082
X63422Y-31200
X63967Y-30082
X64512Y-31200
X46500Y-41050
T5
X50600Y-35800
X50600Y-36800
X50600Y-37800
X50600Y-38800
X50600Y-39800
X50600Y-40800
X50600Y-41800
X50600Y-42800
X50600Y-43800
X50600Y-44800
X51600Y-35800
X51600Y-36800
X51600Y-37800
X51600Y-38800
X51600Y-39800
X51600Y-40800
X51600Y-41800
X51600Y-42800
X51600Y-43800
X51600Y-44800
X60600Y-35800
X60600Y-36800
X60600Y-37800
X60600Y-38800
X60600Y-39800
X60600Y-40800
X60600Y-41800
X60600Y-42800
X60600Y-43800
X60600Y-44800
X61600Y-35800
X61600Y-36800
X61600Y-37800
X61600Y-38800
X61600Y-39800
X61600Y-40800
X61600Y-41800
X61600Y-42800
X61600Y-43800
X61600Y-44800
T6
X56200Y-36700
X56200Y-40700
T7
X46980Y-42232
X46980Y-44992
T4
G00X63200Y-43994
M15
G01X63200Y-43206
M16
G05
G00X64775Y-41750
M15
G01X63987Y-41750
M16
G05
G00X65562Y-43994
M15
G01X65562Y-43206
M16
G05
T0
M30
