G04 #@! TF.GenerationSoftware,KiCad,Pcbnew,(5.1.0-0)*
G04 #@! TF.CreationDate,2019-03-31T22:53:22-07:00*
G04 #@! TF.ProjectId,unijoysticle,756e696a-6f79-4737-9469-636c652e6b69,v0.0.1*
G04 #@! TF.SameCoordinates,Original*
G04 #@! TF.FileFunction,Legend,Top*
G04 #@! TF.FilePolarity,Positive*
%FSLAX46Y46*%
G04 Gerber Fmt 4.6, Leading zero omitted, Abs format (unit mm)*
G04 Created by KiCad (PCBNEW (5.1.0-0)) date 2019-03-31 22:53:22*
%MOMM*%
%LPD*%
G04 APERTURE LIST*
%ADD10C,0.150000*%
%ADD11C,0.300000*%
%ADD12C,0.010000*%
%ADD13C,0.120000*%
%ADD14C,0.127000*%
%ADD15C,0.100000*%
G04 APERTURE END LIST*
D10*
X139001952Y-39427380D02*
X138525761Y-39427380D01*
X138478142Y-39903571D01*
X138525761Y-39855952D01*
X138621000Y-39808333D01*
X138859095Y-39808333D01*
X138954333Y-39855952D01*
X139001952Y-39903571D01*
X139049571Y-39998809D01*
X139049571Y-40236904D01*
X139001952Y-40332142D01*
X138954333Y-40379761D01*
X138859095Y-40427380D01*
X138621000Y-40427380D01*
X138525761Y-40379761D01*
X138478142Y-40332142D01*
X139954333Y-39427380D02*
X139478142Y-39427380D01*
X139430523Y-39903571D01*
X139478142Y-39855952D01*
X139573380Y-39808333D01*
X139811476Y-39808333D01*
X139906714Y-39855952D01*
X139954333Y-39903571D01*
X140001952Y-39998809D01*
X140001952Y-40236904D01*
X139954333Y-40332142D01*
X139906714Y-40379761D01*
X139811476Y-40427380D01*
X139573380Y-40427380D01*
X139478142Y-40379761D01*
X139430523Y-40332142D01*
X140430523Y-40332142D02*
X140478142Y-40379761D01*
X140430523Y-40427380D01*
X140382904Y-40379761D01*
X140430523Y-40332142D01*
X140430523Y-40427380D01*
X141335285Y-39427380D02*
X141144809Y-39427380D01*
X141049571Y-39475000D01*
X141001952Y-39522619D01*
X140906714Y-39665476D01*
X140859095Y-39855952D01*
X140859095Y-40236904D01*
X140906714Y-40332142D01*
X140954333Y-40379761D01*
X141049571Y-40427380D01*
X141240047Y-40427380D01*
X141335285Y-40379761D01*
X141382904Y-40332142D01*
X141430523Y-40236904D01*
X141430523Y-39998809D01*
X141382904Y-39903571D01*
X141335285Y-39855952D01*
X141240047Y-39808333D01*
X141049571Y-39808333D01*
X140954333Y-39855952D01*
X140906714Y-39903571D01*
X140859095Y-39998809D01*
X141811476Y-39522619D02*
X141859095Y-39475000D01*
X141954333Y-39427380D01*
X142192428Y-39427380D01*
X142287666Y-39475000D01*
X142335285Y-39522619D01*
X142382904Y-39617857D01*
X142382904Y-39713095D01*
X142335285Y-39855952D01*
X141763857Y-40427380D01*
X142382904Y-40427380D01*
X143240047Y-39427380D02*
X143049571Y-39427380D01*
X142954333Y-39475000D01*
X142906714Y-39522619D01*
X142811476Y-39665476D01*
X142763857Y-39855952D01*
X142763857Y-40236904D01*
X142811476Y-40332142D01*
X142859095Y-40379761D01*
X142954333Y-40427380D01*
X143144809Y-40427380D01*
X143240047Y-40379761D01*
X143287666Y-40332142D01*
X143335285Y-40236904D01*
X143335285Y-39998809D01*
X143287666Y-39903571D01*
X143240047Y-39855952D01*
X143144809Y-39808333D01*
X142954333Y-39808333D01*
X142859095Y-39855952D01*
X142811476Y-39903571D01*
X142763857Y-39998809D01*
X144525761Y-40427380D02*
X144525761Y-39760714D01*
X144525761Y-39855952D02*
X144573380Y-39808333D01*
X144668619Y-39760714D01*
X144811476Y-39760714D01*
X144906714Y-39808333D01*
X144954333Y-39903571D01*
X144954333Y-40427380D01*
X144954333Y-39903571D02*
X145001952Y-39808333D01*
X145097190Y-39760714D01*
X145240047Y-39760714D01*
X145335285Y-39808333D01*
X145382904Y-39903571D01*
X145382904Y-40427380D01*
X145859095Y-40427380D02*
X145859095Y-39760714D01*
X145859095Y-39855952D02*
X145906714Y-39808333D01*
X146001952Y-39760714D01*
X146144809Y-39760714D01*
X146240047Y-39808333D01*
X146287666Y-39903571D01*
X146287666Y-40427380D01*
X146287666Y-39903571D02*
X146335285Y-39808333D01*
X146430523Y-39760714D01*
X146573380Y-39760714D01*
X146668619Y-39808333D01*
X146716238Y-39903571D01*
X146716238Y-40427380D01*
X170434000Y-41275000D02*
X114808000Y-41275000D01*
X170434000Y-79375000D02*
X170434000Y-40688579D01*
X114808000Y-79375000D02*
X114808000Y-40688579D01*
X114808000Y-41275000D02*
X115934504Y-40688579D01*
X114808000Y-41275000D02*
X115934504Y-41861421D01*
X170434000Y-41275000D02*
X169307496Y-40688579D01*
X170434000Y-41275000D02*
X169307496Y-41861421D01*
X101911285Y-92091333D02*
X101244619Y-92091333D01*
X102292238Y-91853238D02*
X101577952Y-91615142D01*
X101577952Y-92234190D01*
X101244619Y-93138952D02*
X101244619Y-92567523D01*
X101244619Y-92853238D02*
X102244619Y-92853238D01*
X102101761Y-92758000D01*
X102006523Y-92662761D01*
X101958904Y-92567523D01*
X101339857Y-93567523D02*
X101292238Y-93615142D01*
X101244619Y-93567523D01*
X101292238Y-93519904D01*
X101339857Y-93567523D01*
X101244619Y-93567523D01*
X102244619Y-94472285D02*
X102244619Y-94281809D01*
X102197000Y-94186571D01*
X102149380Y-94138952D01*
X102006523Y-94043714D01*
X101816047Y-93996095D01*
X101435095Y-93996095D01*
X101339857Y-94043714D01*
X101292238Y-94091333D01*
X101244619Y-94186571D01*
X101244619Y-94377047D01*
X101292238Y-94472285D01*
X101339857Y-94519904D01*
X101435095Y-94567523D01*
X101673190Y-94567523D01*
X101768428Y-94519904D01*
X101816047Y-94472285D01*
X101863666Y-94377047D01*
X101863666Y-94186571D01*
X101816047Y-94091333D01*
X101768428Y-94043714D01*
X101673190Y-93996095D01*
X102244619Y-95472285D02*
X102244619Y-94996095D01*
X101768428Y-94948476D01*
X101816047Y-94996095D01*
X101863666Y-95091333D01*
X101863666Y-95329428D01*
X101816047Y-95424666D01*
X101768428Y-95472285D01*
X101673190Y-95519904D01*
X101435095Y-95519904D01*
X101339857Y-95472285D01*
X101292238Y-95424666D01*
X101244619Y-95329428D01*
X101244619Y-95091333D01*
X101292238Y-94996095D01*
X101339857Y-94948476D01*
X102244619Y-96377047D02*
X102244619Y-96186571D01*
X102197000Y-96091333D01*
X102149380Y-96043714D01*
X102006523Y-95948476D01*
X101816047Y-95900857D01*
X101435095Y-95900857D01*
X101339857Y-95948476D01*
X101292238Y-95996095D01*
X101244619Y-96091333D01*
X101244619Y-96281809D01*
X101292238Y-96377047D01*
X101339857Y-96424666D01*
X101435095Y-96472285D01*
X101673190Y-96472285D01*
X101768428Y-96424666D01*
X101816047Y-96377047D01*
X101863666Y-96281809D01*
X101863666Y-96091333D01*
X101816047Y-95996095D01*
X101768428Y-95948476D01*
X101673190Y-95900857D01*
X101244619Y-97662761D02*
X101911285Y-97662761D01*
X101816047Y-97662761D02*
X101863666Y-97710380D01*
X101911285Y-97805619D01*
X101911285Y-97948476D01*
X101863666Y-98043714D01*
X101768428Y-98091333D01*
X101244619Y-98091333D01*
X101768428Y-98091333D02*
X101863666Y-98138952D01*
X101911285Y-98234190D01*
X101911285Y-98377047D01*
X101863666Y-98472285D01*
X101768428Y-98519904D01*
X101244619Y-98519904D01*
X101244619Y-98996095D02*
X101911285Y-98996095D01*
X101816047Y-98996095D02*
X101863666Y-99043714D01*
X101911285Y-99138952D01*
X101911285Y-99281809D01*
X101863666Y-99377047D01*
X101768428Y-99424666D01*
X101244619Y-99424666D01*
X101768428Y-99424666D02*
X101863666Y-99472285D01*
X101911285Y-99567523D01*
X101911285Y-99710380D01*
X101863666Y-99805619D01*
X101768428Y-99853238D01*
X101244619Y-99853238D01*
X102997000Y-74930000D02*
X102997000Y-116586000D01*
X118745000Y-74930000D02*
X102410579Y-74930000D01*
X118745000Y-116586000D02*
X102410579Y-116586000D01*
X102997000Y-116586000D02*
X102410579Y-115459496D01*
X102997000Y-116586000D02*
X103583421Y-115459496D01*
X102997000Y-74930000D02*
X102410579Y-76056504D01*
X102997000Y-74930000D02*
X103583421Y-76056504D01*
D11*
X133406714Y-111155285D02*
X134435285Y-111155285D01*
X133921000Y-112955285D02*
X133921000Y-111155285D01*
X135035285Y-112955285D02*
X135035285Y-111155285D01*
X135035285Y-112012428D02*
X136063857Y-112012428D01*
X136063857Y-112955285D02*
X136063857Y-111155285D01*
X136921000Y-112955285D02*
X136921000Y-111155285D01*
X137692428Y-112869571D02*
X137949571Y-112955285D01*
X138378142Y-112955285D01*
X138549571Y-112869571D01*
X138635285Y-112783857D01*
X138721000Y-112612428D01*
X138721000Y-112441000D01*
X138635285Y-112269571D01*
X138549571Y-112183857D01*
X138378142Y-112098142D01*
X138035285Y-112012428D01*
X137863857Y-111926714D01*
X137778142Y-111841000D01*
X137692428Y-111669571D01*
X137692428Y-111498142D01*
X137778142Y-111326714D01*
X137863857Y-111241000D01*
X138035285Y-111155285D01*
X138463857Y-111155285D01*
X138721000Y-111241000D01*
X141463857Y-112012428D02*
X140863857Y-112012428D01*
X140863857Y-112955285D02*
X140863857Y-111155285D01*
X141721000Y-111155285D01*
X142321000Y-112441000D02*
X143178142Y-112441000D01*
X142149571Y-112955285D02*
X142749571Y-111155285D01*
X143349571Y-112955285D01*
X144978142Y-112783857D02*
X144892428Y-112869571D01*
X144635285Y-112955285D01*
X144463857Y-112955285D01*
X144206714Y-112869571D01*
X144035285Y-112698142D01*
X143949571Y-112526714D01*
X143863857Y-112183857D01*
X143863857Y-111926714D01*
X143949571Y-111583857D01*
X144035285Y-111412428D01*
X144206714Y-111241000D01*
X144463857Y-111155285D01*
X144635285Y-111155285D01*
X144892428Y-111241000D01*
X144978142Y-111326714D01*
X145749571Y-112012428D02*
X146349571Y-112012428D01*
X146606714Y-112955285D02*
X145749571Y-112955285D01*
X145749571Y-111155285D01*
X146606714Y-111155285D01*
X148749571Y-111155285D02*
X148749571Y-112612428D01*
X148835285Y-112783857D01*
X148921000Y-112869571D01*
X149092428Y-112955285D01*
X149435285Y-112955285D01*
X149606714Y-112869571D01*
X149692428Y-112783857D01*
X149778142Y-112612428D01*
X149778142Y-111155285D01*
X150635285Y-112955285D02*
X150635285Y-111155285D01*
X151321000Y-111155285D01*
X151492428Y-111241000D01*
X151578142Y-111326714D01*
X151663857Y-111498142D01*
X151663857Y-111755285D01*
X151578142Y-111926714D01*
X151492428Y-112012428D01*
X151321000Y-112098142D01*
X150635285Y-112098142D01*
D12*
G36*
X142724910Y-84110348D02*
G01*
X142803454Y-84110778D01*
X142860298Y-84111942D01*
X142899105Y-84114207D01*
X142923538Y-84117940D01*
X142937262Y-84123506D01*
X142943940Y-84131273D01*
X142947236Y-84141605D01*
X142947556Y-84142943D01*
X142952562Y-84167079D01*
X142961829Y-84214701D01*
X142974392Y-84280741D01*
X142989287Y-84360128D01*
X143005551Y-84447796D01*
X143006119Y-84450875D01*
X143022410Y-84536789D01*
X143037652Y-84612696D01*
X143050861Y-84674045D01*
X143061054Y-84716282D01*
X143067248Y-84734855D01*
X143067543Y-84735184D01*
X143085788Y-84744253D01*
X143123405Y-84759367D01*
X143172271Y-84777262D01*
X143172543Y-84777358D01*
X143234093Y-84800493D01*
X143306657Y-84829965D01*
X143375057Y-84859597D01*
X143378294Y-84861062D01*
X143489702Y-84911626D01*
X143736399Y-84743160D01*
X143812077Y-84691803D01*
X143880631Y-84645889D01*
X143938088Y-84608030D01*
X143980476Y-84580837D01*
X144003825Y-84566921D01*
X144006042Y-84565889D01*
X144023010Y-84570484D01*
X144054701Y-84592655D01*
X144102352Y-84633447D01*
X144167198Y-84693905D01*
X144233397Y-84758227D01*
X144297214Y-84821612D01*
X144354329Y-84879451D01*
X144401305Y-84928175D01*
X144434703Y-84964210D01*
X144451085Y-84983984D01*
X144451694Y-84985002D01*
X144453505Y-84998572D01*
X144446683Y-85020733D01*
X144429540Y-85054478D01*
X144400393Y-85102800D01*
X144357555Y-85168692D01*
X144300448Y-85253517D01*
X144249766Y-85328177D01*
X144204461Y-85395140D01*
X144167150Y-85450516D01*
X144140452Y-85490420D01*
X144126985Y-85510962D01*
X144126137Y-85512356D01*
X144127781Y-85532038D01*
X144140245Y-85570293D01*
X144161048Y-85619889D01*
X144168462Y-85635728D01*
X144200814Y-85706290D01*
X144235328Y-85786353D01*
X144263365Y-85855629D01*
X144283568Y-85907045D01*
X144299615Y-85946119D01*
X144308888Y-85966541D01*
X144310041Y-85968114D01*
X144327096Y-85970721D01*
X144367298Y-85977863D01*
X144425302Y-85988523D01*
X144495763Y-86001685D01*
X144573335Y-86016333D01*
X144652672Y-86031449D01*
X144728431Y-86046018D01*
X144795264Y-86059022D01*
X144847828Y-86069445D01*
X144880776Y-86076270D01*
X144888857Y-86078199D01*
X144897205Y-86082962D01*
X144903506Y-86093718D01*
X144908045Y-86114098D01*
X144911104Y-86147734D01*
X144912967Y-86198255D01*
X144913918Y-86269292D01*
X144914240Y-86364476D01*
X144914257Y-86403492D01*
X144914257Y-86720799D01*
X144838057Y-86735839D01*
X144795663Y-86743995D01*
X144732400Y-86755899D01*
X144655962Y-86770116D01*
X144574043Y-86785210D01*
X144551400Y-86789355D01*
X144475806Y-86804053D01*
X144409953Y-86818505D01*
X144359366Y-86831375D01*
X144329574Y-86841322D01*
X144324612Y-86844287D01*
X144312426Y-86865283D01*
X144294953Y-86905967D01*
X144275577Y-86958322D01*
X144271734Y-86969600D01*
X144246339Y-87039523D01*
X144214817Y-87118418D01*
X144183969Y-87189266D01*
X144183817Y-87189595D01*
X144132447Y-87300733D01*
X144301399Y-87549253D01*
X144470352Y-87797772D01*
X144253429Y-88015058D01*
X144187819Y-88079726D01*
X144127979Y-88136733D01*
X144077267Y-88183033D01*
X144039046Y-88215584D01*
X144016675Y-88231343D01*
X144013466Y-88232343D01*
X143994626Y-88224469D01*
X143956180Y-88202578D01*
X143902330Y-88169267D01*
X143837276Y-88127131D01*
X143766940Y-88079943D01*
X143695555Y-88031810D01*
X143631908Y-87989928D01*
X143580041Y-87956871D01*
X143543995Y-87935218D01*
X143527867Y-87927543D01*
X143508189Y-87934037D01*
X143470875Y-87951150D01*
X143423621Y-87975326D01*
X143418612Y-87978013D01*
X143354977Y-88009927D01*
X143311341Y-88025579D01*
X143284202Y-88025745D01*
X143270057Y-88011204D01*
X143269975Y-88011000D01*
X143262905Y-87993779D01*
X143246042Y-87952899D01*
X143220695Y-87891525D01*
X143188171Y-87812819D01*
X143149778Y-87719947D01*
X143106822Y-87616072D01*
X143065222Y-87515502D01*
X143019504Y-87404516D01*
X142977526Y-87301703D01*
X142940548Y-87210215D01*
X142909827Y-87133201D01*
X142886622Y-87073815D01*
X142872190Y-87035209D01*
X142867743Y-87020800D01*
X142878896Y-87004272D01*
X142908069Y-86977930D01*
X142946971Y-86948887D01*
X143057757Y-86857039D01*
X143144351Y-86751759D01*
X143205716Y-86635266D01*
X143240815Y-86509776D01*
X143248608Y-86377507D01*
X143242943Y-86316457D01*
X143212078Y-86189795D01*
X143158920Y-86077941D01*
X143086767Y-85982001D01*
X142998917Y-85903076D01*
X142898665Y-85842270D01*
X142789310Y-85800687D01*
X142674147Y-85779428D01*
X142556475Y-85779599D01*
X142439590Y-85802301D01*
X142326789Y-85848638D01*
X142221369Y-85919713D01*
X142177368Y-85959911D01*
X142092979Y-86063129D01*
X142034222Y-86175925D01*
X142000704Y-86295010D01*
X141992035Y-86417095D01*
X142007823Y-86538893D01*
X142047678Y-86657116D01*
X142111207Y-86768475D01*
X142198021Y-86869684D01*
X142295029Y-86948887D01*
X142335437Y-86979162D01*
X142363982Y-87005219D01*
X142374257Y-87020825D01*
X142368877Y-87037843D01*
X142353575Y-87078500D01*
X142329612Y-87139642D01*
X142298244Y-87218119D01*
X142260732Y-87310780D01*
X142218333Y-87414472D01*
X142176663Y-87515526D01*
X142130690Y-87626607D01*
X142088107Y-87729541D01*
X142050221Y-87821165D01*
X142018340Y-87898316D01*
X141993771Y-87957831D01*
X141977820Y-87996544D01*
X141971910Y-88011000D01*
X141957948Y-88025685D01*
X141930940Y-88025642D01*
X141887413Y-88010099D01*
X141823890Y-87978284D01*
X141823388Y-87978013D01*
X141775560Y-87953323D01*
X141736897Y-87935338D01*
X141715095Y-87927614D01*
X141714133Y-87927543D01*
X141697721Y-87935378D01*
X141661487Y-87957165D01*
X141609474Y-87990328D01*
X141545725Y-88032291D01*
X141475060Y-88079943D01*
X141403116Y-88128191D01*
X141338274Y-88170151D01*
X141284735Y-88203227D01*
X141246697Y-88224821D01*
X141228533Y-88232343D01*
X141211808Y-88222457D01*
X141178180Y-88194826D01*
X141131010Y-88152495D01*
X141073658Y-88098505D01*
X141009484Y-88035899D01*
X140988497Y-88014983D01*
X140771499Y-87797623D01*
X140936668Y-87555220D01*
X140986864Y-87480781D01*
X141030919Y-87413972D01*
X141066362Y-87358665D01*
X141090719Y-87318729D01*
X141101522Y-87298036D01*
X141101838Y-87296563D01*
X141096143Y-87277058D01*
X141080826Y-87237822D01*
X141058537Y-87185430D01*
X141042893Y-87150355D01*
X141013641Y-87083201D01*
X140986094Y-87015358D01*
X140964737Y-86958034D01*
X140958935Y-86940572D01*
X140942452Y-86893938D01*
X140926340Y-86857905D01*
X140917490Y-86844287D01*
X140897960Y-86835952D01*
X140855334Y-86824137D01*
X140795145Y-86810181D01*
X140722922Y-86795422D01*
X140690600Y-86789355D01*
X140608522Y-86774273D01*
X140529795Y-86759669D01*
X140462109Y-86746980D01*
X140413160Y-86737642D01*
X140403943Y-86735839D01*
X140327743Y-86720799D01*
X140327743Y-86403492D01*
X140327914Y-86299154D01*
X140328616Y-86220213D01*
X140330134Y-86163038D01*
X140332749Y-86123999D01*
X140336746Y-86099465D01*
X140342409Y-86085805D01*
X140350020Y-86079389D01*
X140353143Y-86078199D01*
X140371978Y-86073980D01*
X140413588Y-86065562D01*
X140472630Y-86053961D01*
X140543757Y-86040195D01*
X140621625Y-86025280D01*
X140700887Y-86010232D01*
X140776198Y-85996069D01*
X140842213Y-85983806D01*
X140893587Y-85974461D01*
X140924975Y-85969050D01*
X140931959Y-85968114D01*
X140938285Y-85955596D01*
X140952290Y-85922246D01*
X140971355Y-85874377D01*
X140978634Y-85855629D01*
X141007996Y-85783195D01*
X141042571Y-85703170D01*
X141073537Y-85635728D01*
X141096323Y-85584159D01*
X141111482Y-85541785D01*
X141116542Y-85515834D01*
X141115736Y-85512356D01*
X141105041Y-85495936D01*
X141080620Y-85459417D01*
X141045095Y-85406687D01*
X141001087Y-85341635D01*
X140951217Y-85268151D01*
X140941356Y-85253645D01*
X140883492Y-85167704D01*
X140840956Y-85102261D01*
X140812054Y-85054304D01*
X140795090Y-85020820D01*
X140788367Y-84998795D01*
X140790190Y-84985217D01*
X140790236Y-84985131D01*
X140804586Y-84967297D01*
X140836323Y-84932817D01*
X140882010Y-84885268D01*
X140938204Y-84828222D01*
X141001468Y-84765255D01*
X141008602Y-84758227D01*
X141088330Y-84681020D01*
X141149857Y-84624330D01*
X141194421Y-84587110D01*
X141223257Y-84568315D01*
X141235958Y-84565889D01*
X141254494Y-84576471D01*
X141292961Y-84600916D01*
X141347386Y-84636612D01*
X141413798Y-84680947D01*
X141488225Y-84731311D01*
X141505601Y-84743160D01*
X141752297Y-84911626D01*
X141863706Y-84861062D01*
X141931457Y-84831595D01*
X142004183Y-84801959D01*
X142066703Y-84778330D01*
X142069457Y-84777358D01*
X142118360Y-84759457D01*
X142156057Y-84744320D01*
X142174425Y-84735210D01*
X142174456Y-84735184D01*
X142180285Y-84718717D01*
X142190192Y-84678219D01*
X142203195Y-84618242D01*
X142218309Y-84543340D01*
X142234552Y-84458064D01*
X142235881Y-84450875D01*
X142252175Y-84363014D01*
X142267133Y-84283260D01*
X142279791Y-84216681D01*
X142289186Y-84168347D01*
X142294354Y-84143325D01*
X142294444Y-84142943D01*
X142297589Y-84132299D01*
X142303704Y-84124262D01*
X142316453Y-84118467D01*
X142339500Y-84114547D01*
X142376509Y-84112135D01*
X142431144Y-84110865D01*
X142507067Y-84110371D01*
X142607944Y-84110286D01*
X142621000Y-84110286D01*
X142724910Y-84110348D01*
X142724910Y-84110348D01*
G37*
X142724910Y-84110348D02*
X142803454Y-84110778D01*
X142860298Y-84111942D01*
X142899105Y-84114207D01*
X142923538Y-84117940D01*
X142937262Y-84123506D01*
X142943940Y-84131273D01*
X142947236Y-84141605D01*
X142947556Y-84142943D01*
X142952562Y-84167079D01*
X142961829Y-84214701D01*
X142974392Y-84280741D01*
X142989287Y-84360128D01*
X143005551Y-84447796D01*
X143006119Y-84450875D01*
X143022410Y-84536789D01*
X143037652Y-84612696D01*
X143050861Y-84674045D01*
X143061054Y-84716282D01*
X143067248Y-84734855D01*
X143067543Y-84735184D01*
X143085788Y-84744253D01*
X143123405Y-84759367D01*
X143172271Y-84777262D01*
X143172543Y-84777358D01*
X143234093Y-84800493D01*
X143306657Y-84829965D01*
X143375057Y-84859597D01*
X143378294Y-84861062D01*
X143489702Y-84911626D01*
X143736399Y-84743160D01*
X143812077Y-84691803D01*
X143880631Y-84645889D01*
X143938088Y-84608030D01*
X143980476Y-84580837D01*
X144003825Y-84566921D01*
X144006042Y-84565889D01*
X144023010Y-84570484D01*
X144054701Y-84592655D01*
X144102352Y-84633447D01*
X144167198Y-84693905D01*
X144233397Y-84758227D01*
X144297214Y-84821612D01*
X144354329Y-84879451D01*
X144401305Y-84928175D01*
X144434703Y-84964210D01*
X144451085Y-84983984D01*
X144451694Y-84985002D01*
X144453505Y-84998572D01*
X144446683Y-85020733D01*
X144429540Y-85054478D01*
X144400393Y-85102800D01*
X144357555Y-85168692D01*
X144300448Y-85253517D01*
X144249766Y-85328177D01*
X144204461Y-85395140D01*
X144167150Y-85450516D01*
X144140452Y-85490420D01*
X144126985Y-85510962D01*
X144126137Y-85512356D01*
X144127781Y-85532038D01*
X144140245Y-85570293D01*
X144161048Y-85619889D01*
X144168462Y-85635728D01*
X144200814Y-85706290D01*
X144235328Y-85786353D01*
X144263365Y-85855629D01*
X144283568Y-85907045D01*
X144299615Y-85946119D01*
X144308888Y-85966541D01*
X144310041Y-85968114D01*
X144327096Y-85970721D01*
X144367298Y-85977863D01*
X144425302Y-85988523D01*
X144495763Y-86001685D01*
X144573335Y-86016333D01*
X144652672Y-86031449D01*
X144728431Y-86046018D01*
X144795264Y-86059022D01*
X144847828Y-86069445D01*
X144880776Y-86076270D01*
X144888857Y-86078199D01*
X144897205Y-86082962D01*
X144903506Y-86093718D01*
X144908045Y-86114098D01*
X144911104Y-86147734D01*
X144912967Y-86198255D01*
X144913918Y-86269292D01*
X144914240Y-86364476D01*
X144914257Y-86403492D01*
X144914257Y-86720799D01*
X144838057Y-86735839D01*
X144795663Y-86743995D01*
X144732400Y-86755899D01*
X144655962Y-86770116D01*
X144574043Y-86785210D01*
X144551400Y-86789355D01*
X144475806Y-86804053D01*
X144409953Y-86818505D01*
X144359366Y-86831375D01*
X144329574Y-86841322D01*
X144324612Y-86844287D01*
X144312426Y-86865283D01*
X144294953Y-86905967D01*
X144275577Y-86958322D01*
X144271734Y-86969600D01*
X144246339Y-87039523D01*
X144214817Y-87118418D01*
X144183969Y-87189266D01*
X144183817Y-87189595D01*
X144132447Y-87300733D01*
X144301399Y-87549253D01*
X144470352Y-87797772D01*
X144253429Y-88015058D01*
X144187819Y-88079726D01*
X144127979Y-88136733D01*
X144077267Y-88183033D01*
X144039046Y-88215584D01*
X144016675Y-88231343D01*
X144013466Y-88232343D01*
X143994626Y-88224469D01*
X143956180Y-88202578D01*
X143902330Y-88169267D01*
X143837276Y-88127131D01*
X143766940Y-88079943D01*
X143695555Y-88031810D01*
X143631908Y-87989928D01*
X143580041Y-87956871D01*
X143543995Y-87935218D01*
X143527867Y-87927543D01*
X143508189Y-87934037D01*
X143470875Y-87951150D01*
X143423621Y-87975326D01*
X143418612Y-87978013D01*
X143354977Y-88009927D01*
X143311341Y-88025579D01*
X143284202Y-88025745D01*
X143270057Y-88011204D01*
X143269975Y-88011000D01*
X143262905Y-87993779D01*
X143246042Y-87952899D01*
X143220695Y-87891525D01*
X143188171Y-87812819D01*
X143149778Y-87719947D01*
X143106822Y-87616072D01*
X143065222Y-87515502D01*
X143019504Y-87404516D01*
X142977526Y-87301703D01*
X142940548Y-87210215D01*
X142909827Y-87133201D01*
X142886622Y-87073815D01*
X142872190Y-87035209D01*
X142867743Y-87020800D01*
X142878896Y-87004272D01*
X142908069Y-86977930D01*
X142946971Y-86948887D01*
X143057757Y-86857039D01*
X143144351Y-86751759D01*
X143205716Y-86635266D01*
X143240815Y-86509776D01*
X143248608Y-86377507D01*
X143242943Y-86316457D01*
X143212078Y-86189795D01*
X143158920Y-86077941D01*
X143086767Y-85982001D01*
X142998917Y-85903076D01*
X142898665Y-85842270D01*
X142789310Y-85800687D01*
X142674147Y-85779428D01*
X142556475Y-85779599D01*
X142439590Y-85802301D01*
X142326789Y-85848638D01*
X142221369Y-85919713D01*
X142177368Y-85959911D01*
X142092979Y-86063129D01*
X142034222Y-86175925D01*
X142000704Y-86295010D01*
X141992035Y-86417095D01*
X142007823Y-86538893D01*
X142047678Y-86657116D01*
X142111207Y-86768475D01*
X142198021Y-86869684D01*
X142295029Y-86948887D01*
X142335437Y-86979162D01*
X142363982Y-87005219D01*
X142374257Y-87020825D01*
X142368877Y-87037843D01*
X142353575Y-87078500D01*
X142329612Y-87139642D01*
X142298244Y-87218119D01*
X142260732Y-87310780D01*
X142218333Y-87414472D01*
X142176663Y-87515526D01*
X142130690Y-87626607D01*
X142088107Y-87729541D01*
X142050221Y-87821165D01*
X142018340Y-87898316D01*
X141993771Y-87957831D01*
X141977820Y-87996544D01*
X141971910Y-88011000D01*
X141957948Y-88025685D01*
X141930940Y-88025642D01*
X141887413Y-88010099D01*
X141823890Y-87978284D01*
X141823388Y-87978013D01*
X141775560Y-87953323D01*
X141736897Y-87935338D01*
X141715095Y-87927614D01*
X141714133Y-87927543D01*
X141697721Y-87935378D01*
X141661487Y-87957165D01*
X141609474Y-87990328D01*
X141545725Y-88032291D01*
X141475060Y-88079943D01*
X141403116Y-88128191D01*
X141338274Y-88170151D01*
X141284735Y-88203227D01*
X141246697Y-88224821D01*
X141228533Y-88232343D01*
X141211808Y-88222457D01*
X141178180Y-88194826D01*
X141131010Y-88152495D01*
X141073658Y-88098505D01*
X141009484Y-88035899D01*
X140988497Y-88014983D01*
X140771499Y-87797623D01*
X140936668Y-87555220D01*
X140986864Y-87480781D01*
X141030919Y-87413972D01*
X141066362Y-87358665D01*
X141090719Y-87318729D01*
X141101522Y-87298036D01*
X141101838Y-87296563D01*
X141096143Y-87277058D01*
X141080826Y-87237822D01*
X141058537Y-87185430D01*
X141042893Y-87150355D01*
X141013641Y-87083201D01*
X140986094Y-87015358D01*
X140964737Y-86958034D01*
X140958935Y-86940572D01*
X140942452Y-86893938D01*
X140926340Y-86857905D01*
X140917490Y-86844287D01*
X140897960Y-86835952D01*
X140855334Y-86824137D01*
X140795145Y-86810181D01*
X140722922Y-86795422D01*
X140690600Y-86789355D01*
X140608522Y-86774273D01*
X140529795Y-86759669D01*
X140462109Y-86746980D01*
X140413160Y-86737642D01*
X140403943Y-86735839D01*
X140327743Y-86720799D01*
X140327743Y-86403492D01*
X140327914Y-86299154D01*
X140328616Y-86220213D01*
X140330134Y-86163038D01*
X140332749Y-86123999D01*
X140336746Y-86099465D01*
X140342409Y-86085805D01*
X140350020Y-86079389D01*
X140353143Y-86078199D01*
X140371978Y-86073980D01*
X140413588Y-86065562D01*
X140472630Y-86053961D01*
X140543757Y-86040195D01*
X140621625Y-86025280D01*
X140700887Y-86010232D01*
X140776198Y-85996069D01*
X140842213Y-85983806D01*
X140893587Y-85974461D01*
X140924975Y-85969050D01*
X140931959Y-85968114D01*
X140938285Y-85955596D01*
X140952290Y-85922246D01*
X140971355Y-85874377D01*
X140978634Y-85855629D01*
X141007996Y-85783195D01*
X141042571Y-85703170D01*
X141073537Y-85635728D01*
X141096323Y-85584159D01*
X141111482Y-85541785D01*
X141116542Y-85515834D01*
X141115736Y-85512356D01*
X141105041Y-85495936D01*
X141080620Y-85459417D01*
X141045095Y-85406687D01*
X141001087Y-85341635D01*
X140951217Y-85268151D01*
X140941356Y-85253645D01*
X140883492Y-85167704D01*
X140840956Y-85102261D01*
X140812054Y-85054304D01*
X140795090Y-85020820D01*
X140788367Y-84998795D01*
X140790190Y-84985217D01*
X140790236Y-84985131D01*
X140804586Y-84967297D01*
X140836323Y-84932817D01*
X140882010Y-84885268D01*
X140938204Y-84828222D01*
X141001468Y-84765255D01*
X141008602Y-84758227D01*
X141088330Y-84681020D01*
X141149857Y-84624330D01*
X141194421Y-84587110D01*
X141223257Y-84568315D01*
X141235958Y-84565889D01*
X141254494Y-84576471D01*
X141292961Y-84600916D01*
X141347386Y-84636612D01*
X141413798Y-84680947D01*
X141488225Y-84731311D01*
X141505601Y-84743160D01*
X141752297Y-84911626D01*
X141863706Y-84861062D01*
X141931457Y-84831595D01*
X142004183Y-84801959D01*
X142066703Y-84778330D01*
X142069457Y-84777358D01*
X142118360Y-84759457D01*
X142156057Y-84744320D01*
X142174425Y-84735210D01*
X142174456Y-84735184D01*
X142180285Y-84718717D01*
X142190192Y-84678219D01*
X142203195Y-84618242D01*
X142218309Y-84543340D01*
X142234552Y-84458064D01*
X142235881Y-84450875D01*
X142252175Y-84363014D01*
X142267133Y-84283260D01*
X142279791Y-84216681D01*
X142289186Y-84168347D01*
X142294354Y-84143325D01*
X142294444Y-84142943D01*
X142297589Y-84132299D01*
X142303704Y-84124262D01*
X142316453Y-84118467D01*
X142339500Y-84114547D01*
X142376509Y-84112135D01*
X142431144Y-84110865D01*
X142507067Y-84110371D01*
X142607944Y-84110286D01*
X142621000Y-84110286D01*
X142724910Y-84110348D01*
G36*
X145774595Y-88834966D02*
G01*
X145832021Y-88872497D01*
X145859719Y-88906096D01*
X145881662Y-88967064D01*
X145883405Y-89015308D01*
X145879457Y-89079816D01*
X145730686Y-89144934D01*
X145658349Y-89178202D01*
X145611084Y-89204964D01*
X145586507Y-89228144D01*
X145582237Y-89250667D01*
X145595889Y-89275455D01*
X145610943Y-89291886D01*
X145654746Y-89318235D01*
X145702389Y-89320081D01*
X145746145Y-89299546D01*
X145778289Y-89258752D01*
X145784038Y-89244347D01*
X145811576Y-89199356D01*
X145843258Y-89180182D01*
X145886714Y-89163779D01*
X145886714Y-89225966D01*
X145882872Y-89268283D01*
X145867823Y-89303969D01*
X145836280Y-89344943D01*
X145831592Y-89350267D01*
X145796506Y-89386720D01*
X145766347Y-89406283D01*
X145728615Y-89415283D01*
X145697335Y-89418230D01*
X145641385Y-89418965D01*
X145601555Y-89409660D01*
X145576708Y-89395846D01*
X145537656Y-89365467D01*
X145510625Y-89332613D01*
X145493517Y-89291294D01*
X145484238Y-89235521D01*
X145480693Y-89159305D01*
X145480410Y-89120622D01*
X145481372Y-89074247D01*
X145569007Y-89074247D01*
X145570023Y-89099126D01*
X145572556Y-89103200D01*
X145589274Y-89097665D01*
X145625249Y-89083017D01*
X145673331Y-89062190D01*
X145683386Y-89057714D01*
X145744152Y-89026814D01*
X145777632Y-88999657D01*
X145784990Y-88974220D01*
X145767391Y-88948481D01*
X145752856Y-88937109D01*
X145700410Y-88914364D01*
X145651322Y-88918122D01*
X145610227Y-88945884D01*
X145581758Y-88995152D01*
X145572631Y-89034257D01*
X145569007Y-89074247D01*
X145481372Y-89074247D01*
X145482285Y-89030249D01*
X145489196Y-88963384D01*
X145502884Y-88914695D01*
X145525096Y-88878849D01*
X145557574Y-88850513D01*
X145571733Y-88841355D01*
X145636053Y-88817507D01*
X145706473Y-88816006D01*
X145774595Y-88834966D01*
X145774595Y-88834966D01*
G37*
X145774595Y-88834966D02*
X145832021Y-88872497D01*
X145859719Y-88906096D01*
X145881662Y-88967064D01*
X145883405Y-89015308D01*
X145879457Y-89079816D01*
X145730686Y-89144934D01*
X145658349Y-89178202D01*
X145611084Y-89204964D01*
X145586507Y-89228144D01*
X145582237Y-89250667D01*
X145595889Y-89275455D01*
X145610943Y-89291886D01*
X145654746Y-89318235D01*
X145702389Y-89320081D01*
X145746145Y-89299546D01*
X145778289Y-89258752D01*
X145784038Y-89244347D01*
X145811576Y-89199356D01*
X145843258Y-89180182D01*
X145886714Y-89163779D01*
X145886714Y-89225966D01*
X145882872Y-89268283D01*
X145867823Y-89303969D01*
X145836280Y-89344943D01*
X145831592Y-89350267D01*
X145796506Y-89386720D01*
X145766347Y-89406283D01*
X145728615Y-89415283D01*
X145697335Y-89418230D01*
X145641385Y-89418965D01*
X145601555Y-89409660D01*
X145576708Y-89395846D01*
X145537656Y-89365467D01*
X145510625Y-89332613D01*
X145493517Y-89291294D01*
X145484238Y-89235521D01*
X145480693Y-89159305D01*
X145480410Y-89120622D01*
X145481372Y-89074247D01*
X145569007Y-89074247D01*
X145570023Y-89099126D01*
X145572556Y-89103200D01*
X145589274Y-89097665D01*
X145625249Y-89083017D01*
X145673331Y-89062190D01*
X145683386Y-89057714D01*
X145744152Y-89026814D01*
X145777632Y-88999657D01*
X145784990Y-88974220D01*
X145767391Y-88948481D01*
X145752856Y-88937109D01*
X145700410Y-88914364D01*
X145651322Y-88918122D01*
X145610227Y-88945884D01*
X145581758Y-88995152D01*
X145572631Y-89034257D01*
X145569007Y-89074247D01*
X145481372Y-89074247D01*
X145482285Y-89030249D01*
X145489196Y-88963384D01*
X145502884Y-88914695D01*
X145525096Y-88878849D01*
X145557574Y-88850513D01*
X145571733Y-88841355D01*
X145636053Y-88817507D01*
X145706473Y-88816006D01*
X145774595Y-88834966D01*
G36*
X145273600Y-88826752D02*
G01*
X145290948Y-88834334D01*
X145332356Y-88867128D01*
X145367765Y-88914547D01*
X145389664Y-88965151D01*
X145393229Y-88990098D01*
X145381279Y-89024927D01*
X145355067Y-89043357D01*
X145326964Y-89054516D01*
X145314095Y-89056572D01*
X145307829Y-89041649D01*
X145295456Y-89009175D01*
X145290028Y-88994502D01*
X145259590Y-88943744D01*
X145215520Y-88918427D01*
X145159010Y-88919206D01*
X145154825Y-88920203D01*
X145124655Y-88934507D01*
X145102476Y-88962393D01*
X145087327Y-89007287D01*
X145078250Y-89072615D01*
X145074286Y-89161804D01*
X145073914Y-89209261D01*
X145073730Y-89284071D01*
X145072522Y-89335069D01*
X145069309Y-89367471D01*
X145063109Y-89386495D01*
X145052940Y-89397356D01*
X145037819Y-89405272D01*
X145036946Y-89405670D01*
X145007828Y-89417981D01*
X144993403Y-89422514D01*
X144991186Y-89408809D01*
X144989289Y-89370925D01*
X144987847Y-89313715D01*
X144986998Y-89242027D01*
X144986829Y-89189565D01*
X144987692Y-89088047D01*
X144991070Y-89011032D01*
X144998142Y-88954023D01*
X145010088Y-88912526D01*
X145028090Y-88882043D01*
X145053327Y-88858080D01*
X145078247Y-88841355D01*
X145138171Y-88819097D01*
X145207911Y-88814076D01*
X145273600Y-88826752D01*
X145273600Y-88826752D01*
G37*
X145273600Y-88826752D02*
X145290948Y-88834334D01*
X145332356Y-88867128D01*
X145367765Y-88914547D01*
X145389664Y-88965151D01*
X145393229Y-88990098D01*
X145381279Y-89024927D01*
X145355067Y-89043357D01*
X145326964Y-89054516D01*
X145314095Y-89056572D01*
X145307829Y-89041649D01*
X145295456Y-89009175D01*
X145290028Y-88994502D01*
X145259590Y-88943744D01*
X145215520Y-88918427D01*
X145159010Y-88919206D01*
X145154825Y-88920203D01*
X145124655Y-88934507D01*
X145102476Y-88962393D01*
X145087327Y-89007287D01*
X145078250Y-89072615D01*
X145074286Y-89161804D01*
X145073914Y-89209261D01*
X145073730Y-89284071D01*
X145072522Y-89335069D01*
X145069309Y-89367471D01*
X145063109Y-89386495D01*
X145052940Y-89397356D01*
X145037819Y-89405272D01*
X145036946Y-89405670D01*
X145007828Y-89417981D01*
X144993403Y-89422514D01*
X144991186Y-89408809D01*
X144989289Y-89370925D01*
X144987847Y-89313715D01*
X144986998Y-89242027D01*
X144986829Y-89189565D01*
X144987692Y-89088047D01*
X144991070Y-89011032D01*
X144998142Y-88954023D01*
X145010088Y-88912526D01*
X145028090Y-88882043D01*
X145053327Y-88858080D01*
X145078247Y-88841355D01*
X145138171Y-88819097D01*
X145207911Y-88814076D01*
X145273600Y-88826752D01*
G36*
X144765876Y-88824335D02*
G01*
X144807667Y-88843344D01*
X144840469Y-88866378D01*
X144864503Y-88892133D01*
X144881097Y-88925358D01*
X144891577Y-88970800D01*
X144897271Y-89033207D01*
X144899507Y-89117327D01*
X144899743Y-89172721D01*
X144899743Y-89388826D01*
X144862774Y-89405670D01*
X144833656Y-89417981D01*
X144819231Y-89422514D01*
X144816472Y-89409025D01*
X144814282Y-89372653D01*
X144812942Y-89319542D01*
X144812657Y-89277372D01*
X144811434Y-89216447D01*
X144808136Y-89168115D01*
X144803321Y-89138518D01*
X144799496Y-89132229D01*
X144773783Y-89138652D01*
X144733418Y-89155125D01*
X144686679Y-89177458D01*
X144641845Y-89201457D01*
X144607193Y-89222930D01*
X144591002Y-89237685D01*
X144590938Y-89237845D01*
X144592330Y-89265152D01*
X144604818Y-89291219D01*
X144626743Y-89312392D01*
X144658743Y-89319474D01*
X144686092Y-89318649D01*
X144724826Y-89318042D01*
X144745158Y-89327116D01*
X144757369Y-89351092D01*
X144758909Y-89355613D01*
X144764203Y-89389806D01*
X144750047Y-89410568D01*
X144713148Y-89420462D01*
X144673289Y-89422292D01*
X144601562Y-89408727D01*
X144564432Y-89389355D01*
X144518576Y-89343845D01*
X144494256Y-89287983D01*
X144492073Y-89228957D01*
X144512629Y-89173953D01*
X144543549Y-89139486D01*
X144574420Y-89120189D01*
X144622942Y-89095759D01*
X144679485Y-89070985D01*
X144688910Y-89067199D01*
X144751019Y-89039791D01*
X144786822Y-89015634D01*
X144798337Y-88991619D01*
X144787580Y-88964635D01*
X144769114Y-88943543D01*
X144725469Y-88917572D01*
X144677446Y-88915624D01*
X144633406Y-88935637D01*
X144601709Y-88975551D01*
X144597549Y-88985848D01*
X144573327Y-89023724D01*
X144537965Y-89051842D01*
X144493343Y-89074917D01*
X144493343Y-89009485D01*
X144495969Y-88969506D01*
X144507230Y-88937997D01*
X144532199Y-88904378D01*
X144556169Y-88878484D01*
X144593441Y-88841817D01*
X144622401Y-88822121D01*
X144653505Y-88814220D01*
X144688713Y-88812914D01*
X144765876Y-88824335D01*
X144765876Y-88824335D01*
G37*
X144765876Y-88824335D02*
X144807667Y-88843344D01*
X144840469Y-88866378D01*
X144864503Y-88892133D01*
X144881097Y-88925358D01*
X144891577Y-88970800D01*
X144897271Y-89033207D01*
X144899507Y-89117327D01*
X144899743Y-89172721D01*
X144899743Y-89388826D01*
X144862774Y-89405670D01*
X144833656Y-89417981D01*
X144819231Y-89422514D01*
X144816472Y-89409025D01*
X144814282Y-89372653D01*
X144812942Y-89319542D01*
X144812657Y-89277372D01*
X144811434Y-89216447D01*
X144808136Y-89168115D01*
X144803321Y-89138518D01*
X144799496Y-89132229D01*
X144773783Y-89138652D01*
X144733418Y-89155125D01*
X144686679Y-89177458D01*
X144641845Y-89201457D01*
X144607193Y-89222930D01*
X144591002Y-89237685D01*
X144590938Y-89237845D01*
X144592330Y-89265152D01*
X144604818Y-89291219D01*
X144626743Y-89312392D01*
X144658743Y-89319474D01*
X144686092Y-89318649D01*
X144724826Y-89318042D01*
X144745158Y-89327116D01*
X144757369Y-89351092D01*
X144758909Y-89355613D01*
X144764203Y-89389806D01*
X144750047Y-89410568D01*
X144713148Y-89420462D01*
X144673289Y-89422292D01*
X144601562Y-89408727D01*
X144564432Y-89389355D01*
X144518576Y-89343845D01*
X144494256Y-89287983D01*
X144492073Y-89228957D01*
X144512629Y-89173953D01*
X144543549Y-89139486D01*
X144574420Y-89120189D01*
X144622942Y-89095759D01*
X144679485Y-89070985D01*
X144688910Y-89067199D01*
X144751019Y-89039791D01*
X144786822Y-89015634D01*
X144798337Y-88991619D01*
X144787580Y-88964635D01*
X144769114Y-88943543D01*
X144725469Y-88917572D01*
X144677446Y-88915624D01*
X144633406Y-88935637D01*
X144601709Y-88975551D01*
X144597549Y-88985848D01*
X144573327Y-89023724D01*
X144537965Y-89051842D01*
X144493343Y-89074917D01*
X144493343Y-89009485D01*
X144495969Y-88969506D01*
X144507230Y-88937997D01*
X144532199Y-88904378D01*
X144556169Y-88878484D01*
X144593441Y-88841817D01*
X144622401Y-88822121D01*
X144653505Y-88814220D01*
X144688713Y-88812914D01*
X144765876Y-88824335D01*
G36*
X144400833Y-88826663D02*
G01*
X144403048Y-88864850D01*
X144404784Y-88922886D01*
X144405899Y-88996180D01*
X144406257Y-89073055D01*
X144406257Y-89333196D01*
X144360326Y-89379127D01*
X144328675Y-89407429D01*
X144300890Y-89418893D01*
X144262915Y-89418168D01*
X144247840Y-89416321D01*
X144200726Y-89410948D01*
X144161756Y-89407869D01*
X144152257Y-89407585D01*
X144120233Y-89409445D01*
X144074432Y-89414114D01*
X144056674Y-89416321D01*
X144013057Y-89419735D01*
X143983745Y-89412320D01*
X143954680Y-89389427D01*
X143944188Y-89379127D01*
X143898257Y-89333196D01*
X143898257Y-88846602D01*
X143935226Y-88829758D01*
X143967059Y-88817282D01*
X143985683Y-88812914D01*
X143990458Y-88826718D01*
X143994921Y-88865286D01*
X143998775Y-88924356D01*
X144001722Y-88999663D01*
X144003143Y-89063286D01*
X144007114Y-89313657D01*
X144041759Y-89318556D01*
X144073268Y-89315131D01*
X144088708Y-89304041D01*
X144093023Y-89283308D01*
X144096708Y-89239145D01*
X144099469Y-89177146D01*
X144101012Y-89102909D01*
X144101235Y-89064706D01*
X144101457Y-88844783D01*
X144147166Y-88828849D01*
X144179518Y-88818015D01*
X144197115Y-88812962D01*
X144197623Y-88812914D01*
X144199388Y-88826648D01*
X144201329Y-88864730D01*
X144203282Y-88922482D01*
X144205084Y-88995227D01*
X144206343Y-89063286D01*
X144210314Y-89313657D01*
X144297400Y-89313657D01*
X144301396Y-89085240D01*
X144305392Y-88856822D01*
X144347847Y-88834868D01*
X144379192Y-88819793D01*
X144397744Y-88812951D01*
X144398279Y-88812914D01*
X144400833Y-88826663D01*
X144400833Y-88826663D01*
G37*
X144400833Y-88826663D02*
X144403048Y-88864850D01*
X144404784Y-88922886D01*
X144405899Y-88996180D01*
X144406257Y-89073055D01*
X144406257Y-89333196D01*
X144360326Y-89379127D01*
X144328675Y-89407429D01*
X144300890Y-89418893D01*
X144262915Y-89418168D01*
X144247840Y-89416321D01*
X144200726Y-89410948D01*
X144161756Y-89407869D01*
X144152257Y-89407585D01*
X144120233Y-89409445D01*
X144074432Y-89414114D01*
X144056674Y-89416321D01*
X144013057Y-89419735D01*
X143983745Y-89412320D01*
X143954680Y-89389427D01*
X143944188Y-89379127D01*
X143898257Y-89333196D01*
X143898257Y-88846602D01*
X143935226Y-88829758D01*
X143967059Y-88817282D01*
X143985683Y-88812914D01*
X143990458Y-88826718D01*
X143994921Y-88865286D01*
X143998775Y-88924356D01*
X144001722Y-88999663D01*
X144003143Y-89063286D01*
X144007114Y-89313657D01*
X144041759Y-89318556D01*
X144073268Y-89315131D01*
X144088708Y-89304041D01*
X144093023Y-89283308D01*
X144096708Y-89239145D01*
X144099469Y-89177146D01*
X144101012Y-89102909D01*
X144101235Y-89064706D01*
X144101457Y-88844783D01*
X144147166Y-88828849D01*
X144179518Y-88818015D01*
X144197115Y-88812962D01*
X144197623Y-88812914D01*
X144199388Y-88826648D01*
X144201329Y-88864730D01*
X144203282Y-88922482D01*
X144205084Y-88995227D01*
X144206343Y-89063286D01*
X144210314Y-89313657D01*
X144297400Y-89313657D01*
X144301396Y-89085240D01*
X144305392Y-88856822D01*
X144347847Y-88834868D01*
X144379192Y-88819793D01*
X144397744Y-88812951D01*
X144398279Y-88812914D01*
X144400833Y-88826663D01*
G36*
X143811117Y-88933358D02*
G01*
X143810933Y-89041837D01*
X143810219Y-89125287D01*
X143808675Y-89187704D01*
X143806001Y-89233085D01*
X143801894Y-89265429D01*
X143796055Y-89288733D01*
X143788182Y-89306995D01*
X143782221Y-89317418D01*
X143732855Y-89373945D01*
X143670264Y-89409377D01*
X143601013Y-89422090D01*
X143531668Y-89410463D01*
X143490375Y-89389568D01*
X143447025Y-89353422D01*
X143417481Y-89309276D01*
X143399655Y-89251462D01*
X143391463Y-89174313D01*
X143390302Y-89117714D01*
X143390458Y-89113647D01*
X143491857Y-89113647D01*
X143492476Y-89178550D01*
X143495314Y-89221514D01*
X143501840Y-89249622D01*
X143513523Y-89269953D01*
X143527483Y-89285288D01*
X143574365Y-89314890D01*
X143624701Y-89317419D01*
X143672276Y-89292705D01*
X143675979Y-89289356D01*
X143691783Y-89271935D01*
X143701693Y-89251209D01*
X143707058Y-89220362D01*
X143709228Y-89172577D01*
X143709571Y-89119748D01*
X143708827Y-89053381D01*
X143705748Y-89009106D01*
X143699061Y-88980009D01*
X143687496Y-88959173D01*
X143678013Y-88948107D01*
X143633960Y-88920198D01*
X143583224Y-88916843D01*
X143534796Y-88938159D01*
X143525450Y-88946073D01*
X143509540Y-88963647D01*
X143499610Y-88984587D01*
X143494278Y-89015782D01*
X143492163Y-89064122D01*
X143491857Y-89113647D01*
X143390458Y-89113647D01*
X143393810Y-89026568D01*
X143405726Y-88958086D01*
X143428135Y-88906600D01*
X143463124Y-88866443D01*
X143490375Y-88845861D01*
X143539907Y-88823625D01*
X143597316Y-88813304D01*
X143650682Y-88816067D01*
X143680543Y-88827212D01*
X143692261Y-88830383D01*
X143700037Y-88818557D01*
X143705465Y-88786866D01*
X143709571Y-88738593D01*
X143714067Y-88684829D01*
X143720313Y-88652482D01*
X143731676Y-88633985D01*
X143751528Y-88621770D01*
X143764000Y-88616362D01*
X143811171Y-88596601D01*
X143811117Y-88933358D01*
X143811117Y-88933358D01*
G37*
X143811117Y-88933358D02*
X143810933Y-89041837D01*
X143810219Y-89125287D01*
X143808675Y-89187704D01*
X143806001Y-89233085D01*
X143801894Y-89265429D01*
X143796055Y-89288733D01*
X143788182Y-89306995D01*
X143782221Y-89317418D01*
X143732855Y-89373945D01*
X143670264Y-89409377D01*
X143601013Y-89422090D01*
X143531668Y-89410463D01*
X143490375Y-89389568D01*
X143447025Y-89353422D01*
X143417481Y-89309276D01*
X143399655Y-89251462D01*
X143391463Y-89174313D01*
X143390302Y-89117714D01*
X143390458Y-89113647D01*
X143491857Y-89113647D01*
X143492476Y-89178550D01*
X143495314Y-89221514D01*
X143501840Y-89249622D01*
X143513523Y-89269953D01*
X143527483Y-89285288D01*
X143574365Y-89314890D01*
X143624701Y-89317419D01*
X143672276Y-89292705D01*
X143675979Y-89289356D01*
X143691783Y-89271935D01*
X143701693Y-89251209D01*
X143707058Y-89220362D01*
X143709228Y-89172577D01*
X143709571Y-89119748D01*
X143708827Y-89053381D01*
X143705748Y-89009106D01*
X143699061Y-88980009D01*
X143687496Y-88959173D01*
X143678013Y-88948107D01*
X143633960Y-88920198D01*
X143583224Y-88916843D01*
X143534796Y-88938159D01*
X143525450Y-88946073D01*
X143509540Y-88963647D01*
X143499610Y-88984587D01*
X143494278Y-89015782D01*
X143492163Y-89064122D01*
X143491857Y-89113647D01*
X143390458Y-89113647D01*
X143393810Y-89026568D01*
X143405726Y-88958086D01*
X143428135Y-88906600D01*
X143463124Y-88866443D01*
X143490375Y-88845861D01*
X143539907Y-88823625D01*
X143597316Y-88813304D01*
X143650682Y-88816067D01*
X143680543Y-88827212D01*
X143692261Y-88830383D01*
X143700037Y-88818557D01*
X143705465Y-88786866D01*
X143709571Y-88738593D01*
X143714067Y-88684829D01*
X143720313Y-88652482D01*
X143731676Y-88633985D01*
X143751528Y-88621770D01*
X143764000Y-88616362D01*
X143811171Y-88596601D01*
X143811117Y-88933358D01*
G36*
X143150926Y-88817755D02*
G01*
X143216858Y-88842084D01*
X143270273Y-88885117D01*
X143291164Y-88915409D01*
X143313939Y-88970994D01*
X143313466Y-89011186D01*
X143289562Y-89038217D01*
X143280717Y-89042813D01*
X143242530Y-89057144D01*
X143223028Y-89053472D01*
X143216422Y-89029407D01*
X143216086Y-89016114D01*
X143203992Y-88967210D01*
X143172471Y-88932999D01*
X143128659Y-88916476D01*
X143079695Y-88920634D01*
X143039894Y-88942227D01*
X143026450Y-88954544D01*
X143016921Y-88969487D01*
X143010485Y-88992075D01*
X143006317Y-89027328D01*
X143003597Y-89080266D01*
X143001502Y-89155907D01*
X143000960Y-89179857D01*
X142998981Y-89261790D01*
X142996731Y-89319455D01*
X142993357Y-89357608D01*
X142988006Y-89381004D01*
X142979824Y-89394398D01*
X142967959Y-89402545D01*
X142960362Y-89406144D01*
X142928102Y-89418452D01*
X142909111Y-89422514D01*
X142902836Y-89408948D01*
X142899006Y-89367934D01*
X142897600Y-89298999D01*
X142898598Y-89201669D01*
X142898908Y-89186657D01*
X142901101Y-89097859D01*
X142903693Y-89033019D01*
X142907382Y-88987067D01*
X142912864Y-88954935D01*
X142920835Y-88931553D01*
X142931993Y-88911852D01*
X142937830Y-88903410D01*
X142971296Y-88866057D01*
X143008727Y-88837003D01*
X143013309Y-88834467D01*
X143080426Y-88814443D01*
X143150926Y-88817755D01*
X143150926Y-88817755D01*
G37*
X143150926Y-88817755D02*
X143216858Y-88842084D01*
X143270273Y-88885117D01*
X143291164Y-88915409D01*
X143313939Y-88970994D01*
X143313466Y-89011186D01*
X143289562Y-89038217D01*
X143280717Y-89042813D01*
X143242530Y-89057144D01*
X143223028Y-89053472D01*
X143216422Y-89029407D01*
X143216086Y-89016114D01*
X143203992Y-88967210D01*
X143172471Y-88932999D01*
X143128659Y-88916476D01*
X143079695Y-88920634D01*
X143039894Y-88942227D01*
X143026450Y-88954544D01*
X143016921Y-88969487D01*
X143010485Y-88992075D01*
X143006317Y-89027328D01*
X143003597Y-89080266D01*
X143001502Y-89155907D01*
X143000960Y-89179857D01*
X142998981Y-89261790D01*
X142996731Y-89319455D01*
X142993357Y-89357608D01*
X142988006Y-89381004D01*
X142979824Y-89394398D01*
X142967959Y-89402545D01*
X142960362Y-89406144D01*
X142928102Y-89418452D01*
X142909111Y-89422514D01*
X142902836Y-89408948D01*
X142899006Y-89367934D01*
X142897600Y-89298999D01*
X142898598Y-89201669D01*
X142898908Y-89186657D01*
X142901101Y-89097859D01*
X142903693Y-89033019D01*
X142907382Y-88987067D01*
X142912864Y-88954935D01*
X142920835Y-88931553D01*
X142931993Y-88911852D01*
X142937830Y-88903410D01*
X142971296Y-88866057D01*
X143008727Y-88837003D01*
X143013309Y-88834467D01*
X143080426Y-88814443D01*
X143150926Y-88817755D01*
G36*
X142660744Y-88818968D02*
G01*
X142717616Y-88840087D01*
X142718267Y-88840493D01*
X142753440Y-88866380D01*
X142779407Y-88896633D01*
X142797670Y-88936058D01*
X142809732Y-88989462D01*
X142817096Y-89061651D01*
X142821264Y-89157432D01*
X142821629Y-89171078D01*
X142826876Y-89376842D01*
X142782716Y-89399678D01*
X142750763Y-89415110D01*
X142731470Y-89422423D01*
X142730578Y-89422514D01*
X142727239Y-89409022D01*
X142724587Y-89372626D01*
X142722956Y-89319452D01*
X142722600Y-89276393D01*
X142722592Y-89206641D01*
X142719403Y-89162837D01*
X142708288Y-89141944D01*
X142684501Y-89140925D01*
X142643296Y-89156741D01*
X142581086Y-89185815D01*
X142535341Y-89209963D01*
X142511813Y-89230913D01*
X142504896Y-89253747D01*
X142504886Y-89254877D01*
X142516299Y-89294212D01*
X142550092Y-89315462D01*
X142601809Y-89318539D01*
X142639061Y-89318006D01*
X142658703Y-89328735D01*
X142670952Y-89354505D01*
X142678002Y-89387337D01*
X142667842Y-89405966D01*
X142664017Y-89408632D01*
X142628001Y-89419340D01*
X142577566Y-89420856D01*
X142525626Y-89413759D01*
X142488822Y-89400788D01*
X142437938Y-89357585D01*
X142409014Y-89297446D01*
X142403286Y-89250462D01*
X142407657Y-89208082D01*
X142423475Y-89173488D01*
X142454797Y-89142763D01*
X142505678Y-89111990D01*
X142580176Y-89077252D01*
X142584714Y-89075288D01*
X142651821Y-89044287D01*
X142693232Y-89018862D01*
X142710981Y-88996014D01*
X142707107Y-88972745D01*
X142683643Y-88946056D01*
X142676627Y-88939914D01*
X142629630Y-88916100D01*
X142580933Y-88917103D01*
X142538522Y-88940451D01*
X142510384Y-88983675D01*
X142507769Y-88992160D01*
X142482308Y-89033308D01*
X142450001Y-89053128D01*
X142403286Y-89072770D01*
X142403286Y-89021950D01*
X142417496Y-88948082D01*
X142459675Y-88880327D01*
X142481624Y-88857661D01*
X142531517Y-88828569D01*
X142594967Y-88815400D01*
X142660744Y-88818968D01*
X142660744Y-88818968D01*
G37*
X142660744Y-88818968D02*
X142717616Y-88840087D01*
X142718267Y-88840493D01*
X142753440Y-88866380D01*
X142779407Y-88896633D01*
X142797670Y-88936058D01*
X142809732Y-88989462D01*
X142817096Y-89061651D01*
X142821264Y-89157432D01*
X142821629Y-89171078D01*
X142826876Y-89376842D01*
X142782716Y-89399678D01*
X142750763Y-89415110D01*
X142731470Y-89422423D01*
X142730578Y-89422514D01*
X142727239Y-89409022D01*
X142724587Y-89372626D01*
X142722956Y-89319452D01*
X142722600Y-89276393D01*
X142722592Y-89206641D01*
X142719403Y-89162837D01*
X142708288Y-89141944D01*
X142684501Y-89140925D01*
X142643296Y-89156741D01*
X142581086Y-89185815D01*
X142535341Y-89209963D01*
X142511813Y-89230913D01*
X142504896Y-89253747D01*
X142504886Y-89254877D01*
X142516299Y-89294212D01*
X142550092Y-89315462D01*
X142601809Y-89318539D01*
X142639061Y-89318006D01*
X142658703Y-89328735D01*
X142670952Y-89354505D01*
X142678002Y-89387337D01*
X142667842Y-89405966D01*
X142664017Y-89408632D01*
X142628001Y-89419340D01*
X142577566Y-89420856D01*
X142525626Y-89413759D01*
X142488822Y-89400788D01*
X142437938Y-89357585D01*
X142409014Y-89297446D01*
X142403286Y-89250462D01*
X142407657Y-89208082D01*
X142423475Y-89173488D01*
X142454797Y-89142763D01*
X142505678Y-89111990D01*
X142580176Y-89077252D01*
X142584714Y-89075288D01*
X142651821Y-89044287D01*
X142693232Y-89018862D01*
X142710981Y-88996014D01*
X142707107Y-88972745D01*
X142683643Y-88946056D01*
X142676627Y-88939914D01*
X142629630Y-88916100D01*
X142580933Y-88917103D01*
X142538522Y-88940451D01*
X142510384Y-88983675D01*
X142507769Y-88992160D01*
X142482308Y-89033308D01*
X142450001Y-89053128D01*
X142403286Y-89072770D01*
X142403286Y-89021950D01*
X142417496Y-88948082D01*
X142459675Y-88880327D01*
X142481624Y-88857661D01*
X142531517Y-88828569D01*
X142594967Y-88815400D01*
X142660744Y-88818968D01*
G36*
X141996886Y-88719289D02*
G01*
X142001139Y-88778613D01*
X142006025Y-88813572D01*
X142012795Y-88828820D01*
X142022702Y-88829015D01*
X142025914Y-88827195D01*
X142068644Y-88814015D01*
X142124227Y-88814785D01*
X142180737Y-88828333D01*
X142216082Y-88845861D01*
X142252321Y-88873861D01*
X142278813Y-88905549D01*
X142296999Y-88945813D01*
X142308322Y-88999543D01*
X142314222Y-89071626D01*
X142316143Y-89166951D01*
X142316177Y-89185237D01*
X142316200Y-89390646D01*
X142270491Y-89406580D01*
X142238027Y-89417420D01*
X142220215Y-89422468D01*
X142219691Y-89422514D01*
X142217937Y-89408828D01*
X142216444Y-89371076D01*
X142215326Y-89314224D01*
X142214697Y-89243234D01*
X142214600Y-89200073D01*
X142214398Y-89114973D01*
X142213358Y-89053981D01*
X142210831Y-89012177D01*
X142206164Y-88984642D01*
X142198707Y-88966456D01*
X142187811Y-88952698D01*
X142181007Y-88946073D01*
X142134272Y-88919375D01*
X142083272Y-88917375D01*
X142037001Y-88939955D01*
X142028444Y-88948107D01*
X142015893Y-88963436D01*
X142007188Y-88981618D01*
X142001631Y-89007909D01*
X141998526Y-89047562D01*
X141997176Y-89105832D01*
X141996886Y-89186173D01*
X141996886Y-89390646D01*
X141951177Y-89406580D01*
X141918713Y-89417420D01*
X141900901Y-89422468D01*
X141900377Y-89422514D01*
X141899037Y-89408623D01*
X141897828Y-89369439D01*
X141896801Y-89308700D01*
X141896002Y-89230141D01*
X141895481Y-89137498D01*
X141895286Y-89034509D01*
X141895286Y-88637342D01*
X141942457Y-88617444D01*
X141989629Y-88597547D01*
X141996886Y-88719289D01*
X141996886Y-88719289D01*
G37*
X141996886Y-88719289D02*
X142001139Y-88778613D01*
X142006025Y-88813572D01*
X142012795Y-88828820D01*
X142022702Y-88829015D01*
X142025914Y-88827195D01*
X142068644Y-88814015D01*
X142124227Y-88814785D01*
X142180737Y-88828333D01*
X142216082Y-88845861D01*
X142252321Y-88873861D01*
X142278813Y-88905549D01*
X142296999Y-88945813D01*
X142308322Y-88999543D01*
X142314222Y-89071626D01*
X142316143Y-89166951D01*
X142316177Y-89185237D01*
X142316200Y-89390646D01*
X142270491Y-89406580D01*
X142238027Y-89417420D01*
X142220215Y-89422468D01*
X142219691Y-89422514D01*
X142217937Y-89408828D01*
X142216444Y-89371076D01*
X142215326Y-89314224D01*
X142214697Y-89243234D01*
X142214600Y-89200073D01*
X142214398Y-89114973D01*
X142213358Y-89053981D01*
X142210831Y-89012177D01*
X142206164Y-88984642D01*
X142198707Y-88966456D01*
X142187811Y-88952698D01*
X142181007Y-88946073D01*
X142134272Y-88919375D01*
X142083272Y-88917375D01*
X142037001Y-88939955D01*
X142028444Y-88948107D01*
X142015893Y-88963436D01*
X142007188Y-88981618D01*
X142001631Y-89007909D01*
X141998526Y-89047562D01*
X141997176Y-89105832D01*
X141996886Y-89186173D01*
X141996886Y-89390646D01*
X141951177Y-89406580D01*
X141918713Y-89417420D01*
X141900901Y-89422468D01*
X141900377Y-89422514D01*
X141899037Y-89408623D01*
X141897828Y-89369439D01*
X141896801Y-89308700D01*
X141896002Y-89230141D01*
X141895481Y-89137498D01*
X141895286Y-89034509D01*
X141895286Y-88637342D01*
X141942457Y-88617444D01*
X141989629Y-88597547D01*
X141996886Y-88719289D01*
G36*
X140789303Y-88799239D02*
G01*
X140846527Y-88837735D01*
X140890749Y-88893335D01*
X140917167Y-88964086D01*
X140922510Y-89016162D01*
X140921903Y-89037893D01*
X140916822Y-89054531D01*
X140902855Y-89069437D01*
X140875589Y-89085973D01*
X140830612Y-89107498D01*
X140763511Y-89137374D01*
X140763171Y-89137524D01*
X140701407Y-89165813D01*
X140650759Y-89190933D01*
X140616404Y-89210179D01*
X140603518Y-89220848D01*
X140603514Y-89220934D01*
X140614872Y-89244166D01*
X140641431Y-89269774D01*
X140671923Y-89288221D01*
X140687370Y-89291886D01*
X140729515Y-89279212D01*
X140765808Y-89247471D01*
X140783517Y-89212572D01*
X140800552Y-89186845D01*
X140833922Y-89157546D01*
X140873149Y-89132235D01*
X140907756Y-89118471D01*
X140914993Y-89117714D01*
X140923139Y-89130160D01*
X140923630Y-89161972D01*
X140917643Y-89204866D01*
X140906357Y-89250558D01*
X140890950Y-89290761D01*
X140890171Y-89292322D01*
X140843804Y-89357062D01*
X140783711Y-89401097D01*
X140715465Y-89422711D01*
X140644638Y-89420185D01*
X140576804Y-89391804D01*
X140573788Y-89389808D01*
X140520427Y-89341448D01*
X140485340Y-89278352D01*
X140465922Y-89195387D01*
X140463316Y-89172078D01*
X140458701Y-89062055D01*
X140464233Y-89010748D01*
X140603514Y-89010748D01*
X140605324Y-89042753D01*
X140615222Y-89052093D01*
X140639898Y-89045105D01*
X140678795Y-89028587D01*
X140722275Y-89007881D01*
X140723356Y-89007333D01*
X140760209Y-88987949D01*
X140775000Y-88975013D01*
X140771353Y-88961451D01*
X140755995Y-88943632D01*
X140716923Y-88917845D01*
X140674846Y-88915950D01*
X140637103Y-88934717D01*
X140611034Y-88970915D01*
X140603514Y-89010748D01*
X140464233Y-89010748D01*
X140468194Y-88974027D01*
X140492550Y-88904212D01*
X140526456Y-88855302D01*
X140587653Y-88805878D01*
X140655063Y-88781359D01*
X140723880Y-88779797D01*
X140789303Y-88799239D01*
X140789303Y-88799239D01*
G37*
X140789303Y-88799239D02*
X140846527Y-88837735D01*
X140890749Y-88893335D01*
X140917167Y-88964086D01*
X140922510Y-89016162D01*
X140921903Y-89037893D01*
X140916822Y-89054531D01*
X140902855Y-89069437D01*
X140875589Y-89085973D01*
X140830612Y-89107498D01*
X140763511Y-89137374D01*
X140763171Y-89137524D01*
X140701407Y-89165813D01*
X140650759Y-89190933D01*
X140616404Y-89210179D01*
X140603518Y-89220848D01*
X140603514Y-89220934D01*
X140614872Y-89244166D01*
X140641431Y-89269774D01*
X140671923Y-89288221D01*
X140687370Y-89291886D01*
X140729515Y-89279212D01*
X140765808Y-89247471D01*
X140783517Y-89212572D01*
X140800552Y-89186845D01*
X140833922Y-89157546D01*
X140873149Y-89132235D01*
X140907756Y-89118471D01*
X140914993Y-89117714D01*
X140923139Y-89130160D01*
X140923630Y-89161972D01*
X140917643Y-89204866D01*
X140906357Y-89250558D01*
X140890950Y-89290761D01*
X140890171Y-89292322D01*
X140843804Y-89357062D01*
X140783711Y-89401097D01*
X140715465Y-89422711D01*
X140644638Y-89420185D01*
X140576804Y-89391804D01*
X140573788Y-89389808D01*
X140520427Y-89341448D01*
X140485340Y-89278352D01*
X140465922Y-89195387D01*
X140463316Y-89172078D01*
X140458701Y-89062055D01*
X140464233Y-89010748D01*
X140603514Y-89010748D01*
X140605324Y-89042753D01*
X140615222Y-89052093D01*
X140639898Y-89045105D01*
X140678795Y-89028587D01*
X140722275Y-89007881D01*
X140723356Y-89007333D01*
X140760209Y-88987949D01*
X140775000Y-88975013D01*
X140771353Y-88961451D01*
X140755995Y-88943632D01*
X140716923Y-88917845D01*
X140674846Y-88915950D01*
X140637103Y-88934717D01*
X140611034Y-88970915D01*
X140603514Y-89010748D01*
X140464233Y-89010748D01*
X140468194Y-88974027D01*
X140492550Y-88904212D01*
X140526456Y-88855302D01*
X140587653Y-88805878D01*
X140655063Y-88781359D01*
X140723880Y-88779797D01*
X140789303Y-88799239D01*
G36*
X139662115Y-88789962D02*
G01*
X139730145Y-88825733D01*
X139780351Y-88883301D01*
X139798185Y-88920312D01*
X139812063Y-88975882D01*
X139819167Y-89046096D01*
X139819840Y-89122727D01*
X139814427Y-89197552D01*
X139803270Y-89262342D01*
X139786714Y-89308873D01*
X139781626Y-89316887D01*
X139721355Y-89376707D01*
X139649769Y-89412535D01*
X139572092Y-89423020D01*
X139493548Y-89406810D01*
X139471689Y-89397092D01*
X139429122Y-89367143D01*
X139391763Y-89327433D01*
X139388232Y-89322397D01*
X139373881Y-89298124D01*
X139364394Y-89272178D01*
X139358790Y-89238022D01*
X139356086Y-89189119D01*
X139355299Y-89118935D01*
X139355286Y-89103200D01*
X139355322Y-89098192D01*
X139500429Y-89098192D01*
X139501273Y-89164430D01*
X139504596Y-89208386D01*
X139511583Y-89236779D01*
X139523416Y-89256325D01*
X139529457Y-89262857D01*
X139564186Y-89287680D01*
X139597903Y-89286548D01*
X139631995Y-89265016D01*
X139652329Y-89242029D01*
X139664371Y-89208478D01*
X139671134Y-89155569D01*
X139671598Y-89149399D01*
X139672752Y-89053513D01*
X139660688Y-88982299D01*
X139635570Y-88936194D01*
X139597560Y-88915635D01*
X139583992Y-88914514D01*
X139548364Y-88920152D01*
X139523994Y-88939686D01*
X139509093Y-88977042D01*
X139501875Y-89036150D01*
X139500429Y-89098192D01*
X139355322Y-89098192D01*
X139355826Y-89028413D01*
X139358096Y-88976159D01*
X139363068Y-88939949D01*
X139371713Y-88913299D01*
X139385005Y-88889722D01*
X139387943Y-88885338D01*
X139437313Y-88826249D01*
X139491109Y-88791947D01*
X139556602Y-88778331D01*
X139578842Y-88777665D01*
X139662115Y-88789962D01*
X139662115Y-88789962D01*
G37*
X139662115Y-88789962D02*
X139730145Y-88825733D01*
X139780351Y-88883301D01*
X139798185Y-88920312D01*
X139812063Y-88975882D01*
X139819167Y-89046096D01*
X139819840Y-89122727D01*
X139814427Y-89197552D01*
X139803270Y-89262342D01*
X139786714Y-89308873D01*
X139781626Y-89316887D01*
X139721355Y-89376707D01*
X139649769Y-89412535D01*
X139572092Y-89423020D01*
X139493548Y-89406810D01*
X139471689Y-89397092D01*
X139429122Y-89367143D01*
X139391763Y-89327433D01*
X139388232Y-89322397D01*
X139373881Y-89298124D01*
X139364394Y-89272178D01*
X139358790Y-89238022D01*
X139356086Y-89189119D01*
X139355299Y-89118935D01*
X139355286Y-89103200D01*
X139355322Y-89098192D01*
X139500429Y-89098192D01*
X139501273Y-89164430D01*
X139504596Y-89208386D01*
X139511583Y-89236779D01*
X139523416Y-89256325D01*
X139529457Y-89262857D01*
X139564186Y-89287680D01*
X139597903Y-89286548D01*
X139631995Y-89265016D01*
X139652329Y-89242029D01*
X139664371Y-89208478D01*
X139671134Y-89155569D01*
X139671598Y-89149399D01*
X139672752Y-89053513D01*
X139660688Y-88982299D01*
X139635570Y-88936194D01*
X139597560Y-88915635D01*
X139583992Y-88914514D01*
X139548364Y-88920152D01*
X139523994Y-88939686D01*
X139509093Y-88977042D01*
X139501875Y-89036150D01*
X139500429Y-89098192D01*
X139355322Y-89098192D01*
X139355826Y-89028413D01*
X139358096Y-88976159D01*
X139363068Y-88939949D01*
X139371713Y-88913299D01*
X139385005Y-88889722D01*
X139387943Y-88885338D01*
X139437313Y-88826249D01*
X139491109Y-88791947D01*
X139556602Y-88778331D01*
X139578842Y-88777665D01*
X139662115Y-88789962D01*
G36*
X141337093Y-88795780D02*
G01*
X141383672Y-88822723D01*
X141416057Y-88849466D01*
X141439742Y-88877484D01*
X141456059Y-88911748D01*
X141466339Y-88957227D01*
X141471914Y-89018892D01*
X141474116Y-89101711D01*
X141474371Y-89161246D01*
X141474371Y-89380391D01*
X141412686Y-89408044D01*
X141351000Y-89435697D01*
X141343743Y-89195670D01*
X141340744Y-89106028D01*
X141337598Y-89040962D01*
X141333701Y-88996026D01*
X141328447Y-88966770D01*
X141321231Y-88948748D01*
X141311450Y-88937511D01*
X141308312Y-88935079D01*
X141260761Y-88916083D01*
X141212697Y-88923600D01*
X141184086Y-88943543D01*
X141172447Y-88957675D01*
X141164391Y-88976220D01*
X141159271Y-89004334D01*
X141156441Y-89047173D01*
X141155256Y-89109895D01*
X141155057Y-89175261D01*
X141155018Y-89257268D01*
X141153614Y-89315316D01*
X141148914Y-89354465D01*
X141138987Y-89379780D01*
X141121903Y-89396323D01*
X141095732Y-89409156D01*
X141060775Y-89422491D01*
X141022596Y-89437007D01*
X141027141Y-89179389D01*
X141028971Y-89086519D01*
X141031112Y-89017889D01*
X141034181Y-88968711D01*
X141038794Y-88934198D01*
X141045568Y-88909562D01*
X141055119Y-88890016D01*
X141066634Y-88872770D01*
X141122190Y-88817680D01*
X141189980Y-88785822D01*
X141263713Y-88778191D01*
X141337093Y-88795780D01*
X141337093Y-88795780D01*
G37*
X141337093Y-88795780D02*
X141383672Y-88822723D01*
X141416057Y-88849466D01*
X141439742Y-88877484D01*
X141456059Y-88911748D01*
X141466339Y-88957227D01*
X141471914Y-89018892D01*
X141474116Y-89101711D01*
X141474371Y-89161246D01*
X141474371Y-89380391D01*
X141412686Y-89408044D01*
X141351000Y-89435697D01*
X141343743Y-89195670D01*
X141340744Y-89106028D01*
X141337598Y-89040962D01*
X141333701Y-88996026D01*
X141328447Y-88966770D01*
X141321231Y-88948748D01*
X141311450Y-88937511D01*
X141308312Y-88935079D01*
X141260761Y-88916083D01*
X141212697Y-88923600D01*
X141184086Y-88943543D01*
X141172447Y-88957675D01*
X141164391Y-88976220D01*
X141159271Y-89004334D01*
X141156441Y-89047173D01*
X141155256Y-89109895D01*
X141155057Y-89175261D01*
X141155018Y-89257268D01*
X141153614Y-89315316D01*
X141148914Y-89354465D01*
X141138987Y-89379780D01*
X141121903Y-89396323D01*
X141095732Y-89409156D01*
X141060775Y-89422491D01*
X141022596Y-89437007D01*
X141027141Y-89179389D01*
X141028971Y-89086519D01*
X141031112Y-89017889D01*
X141034181Y-88968711D01*
X141038794Y-88934198D01*
X141045568Y-88909562D01*
X141055119Y-88890016D01*
X141066634Y-88872770D01*
X141122190Y-88817680D01*
X141189980Y-88785822D01*
X141263713Y-88778191D01*
X141337093Y-88795780D01*
G36*
X140220744Y-88787918D02*
G01*
X140276201Y-88815568D01*
X140325148Y-88866480D01*
X140338629Y-88885338D01*
X140353314Y-88910015D01*
X140362842Y-88936816D01*
X140368293Y-88972587D01*
X140370747Y-89024169D01*
X140371286Y-89092267D01*
X140368852Y-89185588D01*
X140360394Y-89255657D01*
X140344174Y-89307931D01*
X140318454Y-89347869D01*
X140281497Y-89380929D01*
X140278782Y-89382886D01*
X140242360Y-89402908D01*
X140198502Y-89412815D01*
X140142724Y-89415257D01*
X140052048Y-89415257D01*
X140052010Y-89503283D01*
X140051166Y-89552308D01*
X140046024Y-89581065D01*
X140032587Y-89598311D01*
X140006858Y-89612808D01*
X140000679Y-89615769D01*
X139971764Y-89629648D01*
X139949376Y-89638414D01*
X139932729Y-89639171D01*
X139921036Y-89629023D01*
X139913510Y-89605073D01*
X139909366Y-89564426D01*
X139907815Y-89504186D01*
X139908071Y-89421455D01*
X139909349Y-89313339D01*
X139909748Y-89281000D01*
X139911185Y-89169524D01*
X139912472Y-89096603D01*
X140051971Y-89096603D01*
X140052755Y-89158499D01*
X140056240Y-89198997D01*
X140064124Y-89225708D01*
X140078105Y-89246244D01*
X140087597Y-89256260D01*
X140126404Y-89285567D01*
X140160763Y-89287952D01*
X140196216Y-89263750D01*
X140197114Y-89262857D01*
X140211539Y-89244153D01*
X140220313Y-89218732D01*
X140224739Y-89179584D01*
X140226118Y-89119697D01*
X140226143Y-89106430D01*
X140222812Y-89023901D01*
X140211969Y-88966691D01*
X140192340Y-88931766D01*
X140162650Y-88916094D01*
X140145491Y-88914514D01*
X140104766Y-88921926D01*
X140076832Y-88946330D01*
X140060017Y-88990980D01*
X140052650Y-89059130D01*
X140051971Y-89096603D01*
X139912472Y-89096603D01*
X139912708Y-89083245D01*
X139914677Y-89018333D01*
X139917450Y-88970958D01*
X139921388Y-88937290D01*
X139926849Y-88913498D01*
X139934192Y-88895753D01*
X139943777Y-88880224D01*
X139947887Y-88874381D01*
X140002405Y-88819185D01*
X140071336Y-88787890D01*
X140151072Y-88779165D01*
X140220744Y-88787918D01*
X140220744Y-88787918D01*
G37*
X140220744Y-88787918D02*
X140276201Y-88815568D01*
X140325148Y-88866480D01*
X140338629Y-88885338D01*
X140353314Y-88910015D01*
X140362842Y-88936816D01*
X140368293Y-88972587D01*
X140370747Y-89024169D01*
X140371286Y-89092267D01*
X140368852Y-89185588D01*
X140360394Y-89255657D01*
X140344174Y-89307931D01*
X140318454Y-89347869D01*
X140281497Y-89380929D01*
X140278782Y-89382886D01*
X140242360Y-89402908D01*
X140198502Y-89412815D01*
X140142724Y-89415257D01*
X140052048Y-89415257D01*
X140052010Y-89503283D01*
X140051166Y-89552308D01*
X140046024Y-89581065D01*
X140032587Y-89598311D01*
X140006858Y-89612808D01*
X140000679Y-89615769D01*
X139971764Y-89629648D01*
X139949376Y-89638414D01*
X139932729Y-89639171D01*
X139921036Y-89629023D01*
X139913510Y-89605073D01*
X139909366Y-89564426D01*
X139907815Y-89504186D01*
X139908071Y-89421455D01*
X139909349Y-89313339D01*
X139909748Y-89281000D01*
X139911185Y-89169524D01*
X139912472Y-89096603D01*
X140051971Y-89096603D01*
X140052755Y-89158499D01*
X140056240Y-89198997D01*
X140064124Y-89225708D01*
X140078105Y-89246244D01*
X140087597Y-89256260D01*
X140126404Y-89285567D01*
X140160763Y-89287952D01*
X140196216Y-89263750D01*
X140197114Y-89262857D01*
X140211539Y-89244153D01*
X140220313Y-89218732D01*
X140224739Y-89179584D01*
X140226118Y-89119697D01*
X140226143Y-89106430D01*
X140222812Y-89023901D01*
X140211969Y-88966691D01*
X140192340Y-88931766D01*
X140162650Y-88916094D01*
X140145491Y-88914514D01*
X140104766Y-88921926D01*
X140076832Y-88946330D01*
X140060017Y-88990980D01*
X140052650Y-89059130D01*
X140051971Y-89096603D01*
X139912472Y-89096603D01*
X139912708Y-89083245D01*
X139914677Y-89018333D01*
X139917450Y-88970958D01*
X139921388Y-88937290D01*
X139926849Y-88913498D01*
X139934192Y-88895753D01*
X139943777Y-88880224D01*
X139947887Y-88874381D01*
X140002405Y-88819185D01*
X140071336Y-88787890D01*
X140151072Y-88779165D01*
X140220744Y-88787918D01*
D13*
X159501000Y-118138000D02*
X159501000Y-115538000D01*
X174201000Y-118138000D02*
X159501000Y-118138000D01*
X159501000Y-108938000D02*
X161401000Y-108938000D01*
X159501000Y-111638000D02*
X159501000Y-108938000D01*
X174201000Y-108938000D02*
X174201000Y-118138000D01*
X165401000Y-108938000D02*
X174201000Y-108938000D01*
X160351000Y-118338000D02*
X159301000Y-118338000D01*
X159301000Y-117288000D02*
X159301000Y-118338000D01*
D14*
X129794000Y-83312000D02*
X129794000Y-90805000D01*
X155194000Y-83312000D02*
X129794000Y-83312000D01*
X155194000Y-90805000D02*
X155194000Y-83312000D01*
X129794000Y-90805000D02*
X155194000Y-90805000D01*
X129794000Y-83312000D02*
X129794000Y-90805000D01*
X155194000Y-83312000D02*
X129794000Y-83312000D01*
X155194000Y-90805000D02*
X155194000Y-83312000D01*
X129794000Y-90805000D02*
X155194000Y-90805000D01*
D13*
X162398000Y-102035000D02*
X162398000Y-104975000D01*
X162638000Y-102035000D02*
X162638000Y-104975000D01*
X162518000Y-102035000D02*
X162518000Y-104975000D01*
X167058000Y-104975000D02*
X167058000Y-104845000D01*
X161618000Y-104975000D02*
X167058000Y-104975000D01*
X161618000Y-104845000D02*
X161618000Y-104975000D01*
X167058000Y-102035000D02*
X167058000Y-102165000D01*
X161618000Y-102035000D02*
X167058000Y-102035000D01*
X161618000Y-102165000D02*
X161618000Y-102035000D01*
X125349000Y-108509000D02*
X125349000Y-109459000D01*
X125349000Y-114249000D02*
X125349000Y-113299000D01*
X124429000Y-109459000D02*
X124429000Y-113299000D01*
X126269000Y-109459000D02*
X124429000Y-109459000D01*
X126269000Y-113299000D02*
X126269000Y-109459000D01*
X124429000Y-113299000D02*
X126269000Y-113299000D01*
X122555000Y-108509000D02*
X122555000Y-109459000D01*
X122555000Y-114249000D02*
X122555000Y-113299000D01*
X121635000Y-109459000D02*
X121635000Y-113299000D01*
X123475000Y-109459000D02*
X121635000Y-109459000D01*
X123475000Y-113299000D02*
X123475000Y-109459000D01*
X121635000Y-113299000D02*
X123475000Y-113299000D01*
D15*
X119333000Y-104851000D02*
X119083000Y-104851000D01*
X116633000Y-104851000D02*
X116883000Y-104851000D01*
X116133000Y-102251000D02*
G75*
G02X116983000Y-101401000I1850000J-1000000D01*
G01*
X118983000Y-101401000D02*
G75*
G02X119833000Y-102251000I-1000000J-1850000D01*
G01*
X116626853Y-104858285D02*
G75*
G02X116133000Y-104251000I1356147J1607285D01*
G01*
X119824615Y-104246467D02*
G75*
G02X119333000Y-104851000I-1841615J995467D01*
G01*
D13*
X117302000Y-114755000D02*
X117532000Y-114755000D01*
X113632000Y-115275000D02*
X113632000Y-107555000D01*
X113632000Y-107555000D02*
X117532000Y-107555000D01*
X120642000Y-115275000D02*
X120642000Y-114755000D01*
X113632000Y-115275000D02*
X117532000Y-115275000D01*
X117302000Y-108075000D02*
X117532000Y-108075000D01*
X120132000Y-114755000D02*
X120642000Y-114755000D01*
X120132000Y-115275000D02*
X120642000Y-115275000D01*
X117302000Y-108615000D02*
X117302000Y-108075000D01*
X120132000Y-108075000D02*
X120642000Y-108075000D01*
X120642000Y-108075000D02*
X120642000Y-107555000D01*
X120132000Y-107555000D02*
X120642000Y-107555000D01*
X117302000Y-114755000D02*
X117302000Y-114215000D01*
X117302000Y-113115000D02*
X117302000Y-109715000D01*
X135562000Y-67068000D02*
X135562000Y-71168000D01*
X135562000Y-71168000D02*
X133552000Y-71168000D01*
X133552000Y-71168000D02*
X133552000Y-80308000D01*
X133552000Y-80308000D02*
X120352000Y-80308000D01*
X120352000Y-80308000D02*
X120352000Y-71168000D01*
X120352000Y-71168000D02*
X118342000Y-71168000D01*
X118342000Y-71168000D02*
X118342000Y-67068000D01*
X121662000Y-81002338D02*
X121162000Y-81002338D01*
X121162000Y-81002338D02*
X121412000Y-80569325D01*
X121412000Y-80569325D02*
X121662000Y-81002338D01*
X166588000Y-82109000D02*
X165338000Y-82109000D01*
X166588000Y-100009000D02*
X166588000Y-82109000D01*
X162088000Y-100009000D02*
X166588000Y-100009000D01*
X162088000Y-82109000D02*
X162088000Y-100009000D01*
X163338000Y-82109000D02*
X162088000Y-82109000D01*
X165338000Y-82109000D02*
G75*
G02X163338000Y-82109000I-1000000J0D01*
G01*
X121904000Y-82109000D02*
G75*
G02X119904000Y-82109000I-1000000J0D01*
G01*
X119904000Y-82109000D02*
X118654000Y-82109000D01*
X118654000Y-82109000D02*
X118654000Y-100009000D01*
X118654000Y-100009000D02*
X123154000Y-100009000D01*
X123154000Y-100009000D02*
X123154000Y-82109000D01*
X123154000Y-82109000D02*
X121904000Y-82109000D01*
D15*
X125429000Y-104851000D02*
X125179000Y-104851000D01*
X122729000Y-104851000D02*
X122979000Y-104851000D01*
X122229000Y-102251000D02*
G75*
G02X123079000Y-101401000I1850000J-1000000D01*
G01*
X125079000Y-101401000D02*
G75*
G02X125929000Y-102251000I-1000000J-1850000D01*
G01*
X122722853Y-104858285D02*
G75*
G02X122229000Y-104251000I1356147J1607285D01*
G01*
X125920615Y-104246467D02*
G75*
G02X125429000Y-104851000I-1841615J995467D01*
G01*
D13*
X166931000Y-67068000D02*
X166931000Y-71168000D01*
X166931000Y-71168000D02*
X164921000Y-71168000D01*
X164921000Y-71168000D02*
X164921000Y-80308000D01*
X164921000Y-80308000D02*
X151721000Y-80308000D01*
X151721000Y-80308000D02*
X151721000Y-71168000D01*
X151721000Y-71168000D02*
X149711000Y-71168000D01*
X149711000Y-71168000D02*
X149711000Y-67068000D01*
X153031000Y-81002338D02*
X152531000Y-81002338D01*
X152531000Y-81002338D02*
X152781000Y-80569325D01*
X152781000Y-80569325D02*
X153031000Y-81002338D01*
D10*
X168517666Y-107240380D02*
X168517666Y-107954666D01*
X168470047Y-108097523D01*
X168374809Y-108192761D01*
X168231952Y-108240380D01*
X168136714Y-108240380D01*
X168898619Y-107240380D02*
X169517666Y-107240380D01*
X169184333Y-107621333D01*
X169327190Y-107621333D01*
X169422428Y-107668952D01*
X169470047Y-107716571D01*
X169517666Y-107811809D01*
X169517666Y-108049904D01*
X169470047Y-108145142D01*
X169422428Y-108192761D01*
X169327190Y-108240380D01*
X169041476Y-108240380D01*
X168946238Y-108192761D01*
X168898619Y-108145142D01*
D14*
X142755257Y-106382457D02*
X142842342Y-106411485D01*
X142871371Y-106440514D01*
X142900400Y-106498571D01*
X142900400Y-106585657D01*
X142871371Y-106643714D01*
X142842342Y-106672742D01*
X142784285Y-106701771D01*
X142552057Y-106701771D01*
X142552057Y-106092171D01*
X142755257Y-106092171D01*
X142813314Y-106121200D01*
X142842342Y-106150228D01*
X142871371Y-106208285D01*
X142871371Y-106266342D01*
X142842342Y-106324400D01*
X142813314Y-106353428D01*
X142755257Y-106382457D01*
X142552057Y-106382457D01*
X143480971Y-106701771D02*
X143132628Y-106701771D01*
X143306800Y-106701771D02*
X143306800Y-106092171D01*
X143248742Y-106179257D01*
X143190685Y-106237314D01*
X143132628Y-106266342D01*
X139083142Y-105366457D02*
X139286342Y-105366457D01*
X139373428Y-105685771D02*
X139083142Y-105685771D01*
X139083142Y-105076171D01*
X139373428Y-105076171D01*
X139605657Y-105656742D02*
X139692742Y-105685771D01*
X139837885Y-105685771D01*
X139895942Y-105656742D01*
X139924971Y-105627714D01*
X139954000Y-105569657D01*
X139954000Y-105511600D01*
X139924971Y-105453542D01*
X139895942Y-105424514D01*
X139837885Y-105395485D01*
X139721771Y-105366457D01*
X139663714Y-105337428D01*
X139634685Y-105308400D01*
X139605657Y-105250342D01*
X139605657Y-105192285D01*
X139634685Y-105134228D01*
X139663714Y-105105200D01*
X139721771Y-105076171D01*
X139866914Y-105076171D01*
X139954000Y-105105200D01*
X140215257Y-105685771D02*
X140215257Y-105076171D01*
X140447485Y-105076171D01*
X140505542Y-105105200D01*
X140534571Y-105134228D01*
X140563600Y-105192285D01*
X140563600Y-105279371D01*
X140534571Y-105337428D01*
X140505542Y-105366457D01*
X140447485Y-105395485D01*
X140215257Y-105395485D01*
X140766800Y-105076171D02*
X141144171Y-105076171D01*
X140940971Y-105308400D01*
X141028057Y-105308400D01*
X141086114Y-105337428D01*
X141115142Y-105366457D01*
X141144171Y-105424514D01*
X141144171Y-105569657D01*
X141115142Y-105627714D01*
X141086114Y-105656742D01*
X141028057Y-105685771D01*
X140853885Y-105685771D01*
X140795828Y-105656742D01*
X140766800Y-105627714D01*
X141376400Y-105134228D02*
X141405428Y-105105200D01*
X141463485Y-105076171D01*
X141608628Y-105076171D01*
X141666685Y-105105200D01*
X141695714Y-105134228D01*
X141724742Y-105192285D01*
X141724742Y-105250342D01*
X141695714Y-105337428D01*
X141347371Y-105685771D01*
X141724742Y-105685771D01*
X142450457Y-105685771D02*
X142450457Y-105076171D01*
X142653657Y-105511600D01*
X142856857Y-105076171D01*
X142856857Y-105685771D01*
X143147142Y-105685771D02*
X143147142Y-105076171D01*
X143437428Y-105685771D02*
X143437428Y-105076171D01*
X143785771Y-105685771D01*
X143785771Y-105076171D01*
X144076057Y-105685771D02*
X144076057Y-105076171D01*
X144830800Y-105685771D02*
X144830800Y-105076171D01*
X145179142Y-105685771D02*
X144917885Y-105337428D01*
X145179142Y-105076171D02*
X144830800Y-105424514D01*
X145440400Y-105685771D02*
X145440400Y-105076171D01*
X145643600Y-105076171D02*
X145991942Y-105076171D01*
X145817771Y-105685771D02*
X145817771Y-105076171D01*
D10*
X163599904Y-101487380D02*
X163599904Y-100487380D01*
X163838000Y-100487380D01*
X163980857Y-100535000D01*
X164076095Y-100630238D01*
X164123714Y-100725476D01*
X164171333Y-100915952D01*
X164171333Y-101058809D01*
X164123714Y-101249285D01*
X164076095Y-101344523D01*
X163980857Y-101439761D01*
X163838000Y-101487380D01*
X163599904Y-101487380D01*
X164504666Y-100487380D02*
X165123714Y-100487380D01*
X164790380Y-100868333D01*
X164933238Y-100868333D01*
X165028476Y-100915952D01*
X165076095Y-100963571D01*
X165123714Y-101058809D01*
X165123714Y-101296904D01*
X165076095Y-101392142D01*
X165028476Y-101439761D01*
X164933238Y-101487380D01*
X164647523Y-101487380D01*
X164552285Y-101439761D01*
X164504666Y-101392142D01*
X160266095Y-101857380D02*
X160266095Y-100857380D01*
X160837523Y-101857380D02*
X160408952Y-101285952D01*
X160837523Y-100857380D02*
X160266095Y-101428809D01*
X123881380Y-111545666D02*
X123405190Y-111879000D01*
X123881380Y-112117095D02*
X122881380Y-112117095D01*
X122881380Y-111736142D01*
X122929000Y-111640904D01*
X122976619Y-111593285D01*
X123071857Y-111545666D01*
X123214714Y-111545666D01*
X123309952Y-111593285D01*
X123357571Y-111640904D01*
X123405190Y-111736142D01*
X123405190Y-112117095D01*
X122976619Y-111164714D02*
X122929000Y-111117095D01*
X122881380Y-111021857D01*
X122881380Y-110783761D01*
X122929000Y-110688523D01*
X122976619Y-110640904D01*
X123071857Y-110593285D01*
X123167095Y-110593285D01*
X123309952Y-110640904D01*
X123881380Y-111212333D01*
X123881380Y-110593285D01*
X121087380Y-111545666D02*
X120611190Y-111879000D01*
X121087380Y-112117095D02*
X120087380Y-112117095D01*
X120087380Y-111736142D01*
X120135000Y-111640904D01*
X120182619Y-111593285D01*
X120277857Y-111545666D01*
X120420714Y-111545666D01*
X120515952Y-111593285D01*
X120563571Y-111640904D01*
X120611190Y-111736142D01*
X120611190Y-112117095D01*
X121087380Y-110593285D02*
X121087380Y-111164714D01*
X121087380Y-110879000D02*
X120087380Y-110879000D01*
X120230238Y-110974238D01*
X120325476Y-111069476D01*
X120373095Y-111164714D01*
X117244904Y-106497380D02*
X117244904Y-105497380D01*
X117483000Y-105497380D01*
X117625857Y-105545000D01*
X117721095Y-105640238D01*
X117768714Y-105735476D01*
X117816333Y-105925952D01*
X117816333Y-106068809D01*
X117768714Y-106259285D01*
X117721095Y-106354523D01*
X117625857Y-106449761D01*
X117483000Y-106497380D01*
X117244904Y-106497380D01*
X118768714Y-106497380D02*
X118197285Y-106497380D01*
X118483000Y-106497380D02*
X118483000Y-105497380D01*
X118387761Y-105640238D01*
X118292523Y-105735476D01*
X118197285Y-105783095D01*
D15*
X117661571Y-100556190D02*
X117423476Y-100556190D01*
X117423476Y-100056190D01*
X117828238Y-100294285D02*
X117994904Y-100294285D01*
X118066333Y-100556190D02*
X117828238Y-100556190D01*
X117828238Y-100056190D01*
X118066333Y-100056190D01*
X118280619Y-100556190D02*
X118280619Y-100056190D01*
X118399666Y-100056190D01*
X118471095Y-100080000D01*
X118518714Y-100127619D01*
X118542523Y-100175238D01*
X118566333Y-100270476D01*
X118566333Y-100341904D01*
X118542523Y-100437142D01*
X118518714Y-100484761D01*
X118471095Y-100532380D01*
X118399666Y-100556190D01*
X118280619Y-100556190D01*
D10*
X118416761Y-112748333D02*
X118464380Y-112605476D01*
X118464380Y-112367380D01*
X118416761Y-112272142D01*
X118369142Y-112224523D01*
X118273904Y-112176904D01*
X118178666Y-112176904D01*
X118083428Y-112224523D01*
X118035809Y-112272142D01*
X117988190Y-112367380D01*
X117940571Y-112557857D01*
X117892952Y-112653095D01*
X117845333Y-112700714D01*
X117750095Y-112748333D01*
X117654857Y-112748333D01*
X117559619Y-112700714D01*
X117512000Y-112653095D01*
X117464380Y-112557857D01*
X117464380Y-112319761D01*
X117512000Y-112176904D01*
X117464380Y-111843571D02*
X118464380Y-111605476D01*
X117750095Y-111415000D01*
X118464380Y-111224523D01*
X117464380Y-110986428D01*
X118464380Y-110081666D02*
X118464380Y-110653095D01*
X118464380Y-110367380D02*
X117464380Y-110367380D01*
X117607238Y-110462619D01*
X117702476Y-110557857D01*
X117750095Y-110653095D01*
X126618666Y-80500380D02*
X126618666Y-81214666D01*
X126571047Y-81357523D01*
X126475809Y-81452761D01*
X126332952Y-81500380D01*
X126237714Y-81500380D01*
X127618666Y-81500380D02*
X127047238Y-81500380D01*
X127332952Y-81500380D02*
X127332952Y-80500380D01*
X127237714Y-80643238D01*
X127142476Y-80738476D01*
X127047238Y-80786095D01*
X163361809Y-81561380D02*
X163361809Y-80561380D01*
X164409428Y-81466142D02*
X164361809Y-81513761D01*
X164218952Y-81561380D01*
X164123714Y-81561380D01*
X163980857Y-81513761D01*
X163885619Y-81418523D01*
X163838000Y-81323285D01*
X163790380Y-81132809D01*
X163790380Y-80989952D01*
X163838000Y-80799476D01*
X163885619Y-80704238D01*
X163980857Y-80609000D01*
X164123714Y-80561380D01*
X164218952Y-80561380D01*
X164361809Y-80609000D01*
X164409428Y-80656619D01*
X164790380Y-80656619D02*
X164838000Y-80609000D01*
X164933238Y-80561380D01*
X165171333Y-80561380D01*
X165266571Y-80609000D01*
X165314190Y-80656619D01*
X165361809Y-80751857D01*
X165361809Y-80847095D01*
X165314190Y-80989952D01*
X164742761Y-81561380D01*
X165361809Y-81561380D01*
X119927809Y-81561380D02*
X119927809Y-80561380D01*
X120975428Y-81466142D02*
X120927809Y-81513761D01*
X120784952Y-81561380D01*
X120689714Y-81561380D01*
X120546857Y-81513761D01*
X120451619Y-81418523D01*
X120404000Y-81323285D01*
X120356380Y-81132809D01*
X120356380Y-80989952D01*
X120404000Y-80799476D01*
X120451619Y-80704238D01*
X120546857Y-80609000D01*
X120689714Y-80561380D01*
X120784952Y-80561380D01*
X120927809Y-80609000D01*
X120975428Y-80656619D01*
X121927809Y-81561380D02*
X121356380Y-81561380D01*
X121642095Y-81561380D02*
X121642095Y-80561380D01*
X121546857Y-80704238D01*
X121451619Y-80799476D01*
X121356380Y-80847095D01*
X123340904Y-106497380D02*
X123340904Y-105497380D01*
X123579000Y-105497380D01*
X123721857Y-105545000D01*
X123817095Y-105640238D01*
X123864714Y-105735476D01*
X123912333Y-105925952D01*
X123912333Y-106068809D01*
X123864714Y-106259285D01*
X123817095Y-106354523D01*
X123721857Y-106449761D01*
X123579000Y-106497380D01*
X123340904Y-106497380D01*
X124293285Y-105592619D02*
X124340904Y-105545000D01*
X124436142Y-105497380D01*
X124674238Y-105497380D01*
X124769476Y-105545000D01*
X124817095Y-105592619D01*
X124864714Y-105687857D01*
X124864714Y-105783095D01*
X124817095Y-105925952D01*
X124245666Y-106497380D01*
X124864714Y-106497380D01*
D15*
X123757571Y-100556190D02*
X123519476Y-100556190D01*
X123519476Y-100056190D01*
X123924238Y-100294285D02*
X124090904Y-100294285D01*
X124162333Y-100556190D02*
X123924238Y-100556190D01*
X123924238Y-100056190D01*
X124162333Y-100056190D01*
X124376619Y-100556190D02*
X124376619Y-100056190D01*
X124495666Y-100056190D01*
X124567095Y-100080000D01*
X124614714Y-100127619D01*
X124638523Y-100175238D01*
X124662333Y-100270476D01*
X124662333Y-100341904D01*
X124638523Y-100437142D01*
X124614714Y-100484761D01*
X124567095Y-100532380D01*
X124495666Y-100556190D01*
X124376619Y-100556190D01*
D10*
X157987666Y-80500380D02*
X157987666Y-81214666D01*
X157940047Y-81357523D01*
X157844809Y-81452761D01*
X157701952Y-81500380D01*
X157606714Y-81500380D01*
X158416238Y-80595619D02*
X158463857Y-80548000D01*
X158559095Y-80500380D01*
X158797190Y-80500380D01*
X158892428Y-80548000D01*
X158940047Y-80595619D01*
X158987666Y-80690857D01*
X158987666Y-80786095D01*
X158940047Y-80928952D01*
X158368619Y-81500380D01*
X158987666Y-81500380D01*
M02*
