G04 #@! TF.GenerationSoftware,KiCad,Pcbnew,(5.1.0-0)*
G04 #@! TF.CreationDate,2019-03-15T08:32:39-07:00*
G04 #@! TF.ProjectId,unijoysticle,756e696a-6f79-4737-9469-636c652e6b69,rev?*
G04 #@! TF.SameCoordinates,Original*
G04 #@! TF.FileFunction,Legend,Top*
G04 #@! TF.FilePolarity,Positive*
%FSLAX46Y46*%
G04 Gerber Fmt 4.6, Leading zero omitted, Abs format (unit mm)*
G04 Created by KiCad (PCBNEW (5.1.0-0)) date 2019-03-15 08:32:39*
%MOMM*%
%LPD*%
G04 APERTURE LIST*
%ADD10C,0.300000*%
%ADD11C,0.100000*%
%ADD12C,0.120000*%
%ADD13C,0.127000*%
%ADD14C,0.150000*%
G04 APERTURE END LIST*
D10*
X134942428Y-109287571D02*
X135799571Y-109287571D01*
X135371000Y-110787571D02*
X135371000Y-109287571D01*
X136299571Y-110787571D02*
X136299571Y-109287571D01*
X136299571Y-110001857D02*
X137156714Y-110001857D01*
X137156714Y-110787571D02*
X137156714Y-109287571D01*
X137871000Y-110787571D02*
X137871000Y-109287571D01*
X138513857Y-110716142D02*
X138728142Y-110787571D01*
X139085285Y-110787571D01*
X139228142Y-110716142D01*
X139299571Y-110644714D01*
X139371000Y-110501857D01*
X139371000Y-110359000D01*
X139299571Y-110216142D01*
X139228142Y-110144714D01*
X139085285Y-110073285D01*
X138799571Y-110001857D01*
X138656714Y-109930428D01*
X138585285Y-109859000D01*
X138513857Y-109716142D01*
X138513857Y-109573285D01*
X138585285Y-109430428D01*
X138656714Y-109359000D01*
X138799571Y-109287571D01*
X139156714Y-109287571D01*
X139371000Y-109359000D01*
X141656714Y-110001857D02*
X141156714Y-110001857D01*
X141156714Y-110787571D02*
X141156714Y-109287571D01*
X141871000Y-109287571D01*
X142371000Y-110359000D02*
X143085285Y-110359000D01*
X142228142Y-110787571D02*
X142728142Y-109287571D01*
X143228142Y-110787571D01*
X144585285Y-110644714D02*
X144513857Y-110716142D01*
X144299571Y-110787571D01*
X144156714Y-110787571D01*
X143942428Y-110716142D01*
X143799571Y-110573285D01*
X143728142Y-110430428D01*
X143656714Y-110144714D01*
X143656714Y-109930428D01*
X143728142Y-109644714D01*
X143799571Y-109501857D01*
X143942428Y-109359000D01*
X144156714Y-109287571D01*
X144299571Y-109287571D01*
X144513857Y-109359000D01*
X144585285Y-109430428D01*
X145228142Y-110001857D02*
X145728142Y-110001857D01*
X145942428Y-110787571D02*
X145228142Y-110787571D01*
X145228142Y-109287571D01*
X145942428Y-109287571D01*
X147728142Y-109287571D02*
X147728142Y-110501857D01*
X147799571Y-110644714D01*
X147871000Y-110716142D01*
X148013857Y-110787571D01*
X148299571Y-110787571D01*
X148442428Y-110716142D01*
X148513857Y-110644714D01*
X148585285Y-110501857D01*
X148585285Y-109287571D01*
X149299571Y-110787571D02*
X149299571Y-109287571D01*
X149871000Y-109287571D01*
X150013857Y-109359000D01*
X150085285Y-109430428D01*
X150156714Y-109573285D01*
X150156714Y-109787571D01*
X150085285Y-109930428D01*
X150013857Y-110001857D01*
X149871000Y-110073285D01*
X149299571Y-110073285D01*
D11*
X116760000Y-101397000D02*
X117010000Y-101397000D01*
X119460000Y-101397000D02*
X119210000Y-101397000D01*
X119960000Y-103997000D02*
G75*
G02X119110000Y-104847000I-1850000J1000000D01*
G01*
X117110000Y-104847000D02*
G75*
G02X116260000Y-103997000I1000000J1850000D01*
G01*
X119466147Y-101389715D02*
G75*
G02X119960000Y-101997000I-1356147J-1607285D01*
G01*
X116268385Y-102001533D02*
G75*
G02X116760000Y-101397000I1841615J-995467D01*
G01*
D12*
X117810000Y-114120000D02*
X118040000Y-114120000D01*
X114140000Y-114640000D02*
X114140000Y-106920000D01*
X114140000Y-106920000D02*
X118040000Y-106920000D01*
X121150000Y-114640000D02*
X121150000Y-114120000D01*
X114140000Y-114640000D02*
X118040000Y-114640000D01*
X117810000Y-107440000D02*
X118040000Y-107440000D01*
X120640000Y-114120000D02*
X121150000Y-114120000D01*
X120640000Y-114640000D02*
X121150000Y-114640000D01*
X117810000Y-107980000D02*
X117810000Y-107440000D01*
X120640000Y-107440000D02*
X121150000Y-107440000D01*
X121150000Y-107440000D02*
X121150000Y-106920000D01*
X120640000Y-106920000D02*
X121150000Y-106920000D01*
X117810000Y-114120000D02*
X117810000Y-113580000D01*
X117810000Y-112480000D02*
X117810000Y-109080000D01*
D13*
X129794000Y-90297000D02*
X155194000Y-90297000D01*
X155194000Y-90297000D02*
X155194000Y-82804000D01*
X155194000Y-82804000D02*
X129794000Y-82804000D01*
X129794000Y-82804000D02*
X129794000Y-90297000D01*
X129794000Y-90297000D02*
X155194000Y-90297000D01*
X155194000Y-90297000D02*
X155194000Y-82804000D01*
X155194000Y-82804000D02*
X129794000Y-82804000D01*
X129794000Y-82804000D02*
X129794000Y-90297000D01*
D12*
X134927000Y-67068000D02*
X134927000Y-71168000D01*
X134927000Y-71168000D02*
X132917000Y-71168000D01*
X132917000Y-71168000D02*
X132917000Y-80308000D01*
X132917000Y-80308000D02*
X119717000Y-80308000D01*
X119717000Y-80308000D02*
X119717000Y-71168000D01*
X119717000Y-71168000D02*
X117707000Y-71168000D01*
X117707000Y-71168000D02*
X117707000Y-67068000D01*
X121027000Y-81002338D02*
X120527000Y-81002338D01*
X120527000Y-81002338D02*
X120777000Y-80569325D01*
X120777000Y-80569325D02*
X121027000Y-81002338D01*
X141278000Y-101018000D02*
X144218000Y-101018000D01*
X144218000Y-101018000D02*
X144218000Y-95578000D01*
X144218000Y-95578000D02*
X141278000Y-95578000D01*
X141278000Y-95578000D02*
X141278000Y-101018000D01*
X142748000Y-102038000D02*
X142748000Y-101018000D01*
X142748000Y-94558000D02*
X142748000Y-95578000D01*
X141278000Y-100118000D02*
X144218000Y-100118000D01*
X141278000Y-99998000D02*
X144218000Y-99998000D01*
X141278000Y-100238000D02*
X144218000Y-100238000D01*
X126396000Y-112537000D02*
X126396000Y-108697000D01*
X124556000Y-112537000D02*
X124556000Y-108697000D01*
X121889000Y-112537000D02*
X121889000Y-108697000D01*
X123729000Y-112537000D02*
X123729000Y-108697000D01*
X166588000Y-81728000D02*
X165338000Y-81728000D01*
X166588000Y-99628000D02*
X166588000Y-81728000D01*
X162088000Y-99628000D02*
X166588000Y-99628000D01*
X162088000Y-81728000D02*
X162088000Y-99628000D01*
X163338000Y-81728000D02*
X162088000Y-81728000D01*
X165338000Y-81728000D02*
G75*
G02X163338000Y-81728000I-1000000J0D01*
G01*
X121904000Y-81728000D02*
G75*
G02X119904000Y-81728000I-1000000J0D01*
G01*
X119904000Y-81728000D02*
X118654000Y-81728000D01*
X118654000Y-81728000D02*
X118654000Y-99628000D01*
X118654000Y-99628000D02*
X123154000Y-99628000D01*
X123154000Y-99628000D02*
X123154000Y-81728000D01*
X123154000Y-81728000D02*
X121904000Y-81728000D01*
D11*
X122602000Y-101397000D02*
X122852000Y-101397000D01*
X125302000Y-101397000D02*
X125052000Y-101397000D01*
X125802000Y-103997000D02*
G75*
G02X124952000Y-104847000I-1850000J1000000D01*
G01*
X122952000Y-104847000D02*
G75*
G02X122102000Y-103997000I1000000J1850000D01*
G01*
X125308147Y-101389715D02*
G75*
G02X125802000Y-101997000I-1356147J-1607285D01*
G01*
X122110385Y-102001533D02*
G75*
G02X122602000Y-101397000I1841615J-995467D01*
G01*
D12*
X166931000Y-67068000D02*
X166931000Y-71168000D01*
X166931000Y-71168000D02*
X164921000Y-71168000D01*
X164921000Y-71168000D02*
X164921000Y-80308000D01*
X164921000Y-80308000D02*
X151721000Y-80308000D01*
X151721000Y-80308000D02*
X151721000Y-71168000D01*
X151721000Y-71168000D02*
X149711000Y-71168000D01*
X149711000Y-71168000D02*
X149711000Y-67068000D01*
X153031000Y-81002338D02*
X152531000Y-81002338D01*
X152531000Y-81002338D02*
X152781000Y-80569325D01*
X152781000Y-80569325D02*
X153031000Y-81002338D01*
X159628000Y-115344000D02*
X159628000Y-112744000D01*
X174328000Y-115344000D02*
X159628000Y-115344000D01*
X159628000Y-106144000D02*
X161528000Y-106144000D01*
X159628000Y-108844000D02*
X159628000Y-106144000D01*
X174328000Y-106144000D02*
X174328000Y-115344000D01*
X165528000Y-106144000D02*
X174328000Y-106144000D01*
X160478000Y-115544000D02*
X159428000Y-115544000D01*
X159428000Y-114494000D02*
X159428000Y-115544000D01*
D14*
X117371904Y-100655380D02*
X117371904Y-99655380D01*
X117610000Y-99655380D01*
X117752857Y-99703000D01*
X117848095Y-99798238D01*
X117895714Y-99893476D01*
X117943333Y-100083952D01*
X117943333Y-100226809D01*
X117895714Y-100417285D01*
X117848095Y-100512523D01*
X117752857Y-100607761D01*
X117610000Y-100655380D01*
X117371904Y-100655380D01*
X118895714Y-100655380D02*
X118324285Y-100655380D01*
X118610000Y-100655380D02*
X118610000Y-99655380D01*
X118514761Y-99798238D01*
X118419523Y-99893476D01*
X118324285Y-99941095D01*
D11*
X116871904Y-106144190D02*
X116871904Y-105644190D01*
X117062380Y-105644190D01*
X117110000Y-105668000D01*
X117133809Y-105691809D01*
X117157619Y-105739428D01*
X117157619Y-105810857D01*
X117133809Y-105858476D01*
X117110000Y-105882285D01*
X117062380Y-105906095D01*
X116871904Y-105906095D01*
X117467142Y-105644190D02*
X117562380Y-105644190D01*
X117610000Y-105668000D01*
X117657619Y-105715619D01*
X117681428Y-105810857D01*
X117681428Y-105977523D01*
X117657619Y-106072761D01*
X117610000Y-106120380D01*
X117562380Y-106144190D01*
X117467142Y-106144190D01*
X117419523Y-106120380D01*
X117371904Y-106072761D01*
X117348095Y-105977523D01*
X117348095Y-105810857D01*
X117371904Y-105715619D01*
X117419523Y-105668000D01*
X117467142Y-105644190D01*
X118181428Y-106144190D02*
X118014761Y-105906095D01*
X117895714Y-106144190D02*
X117895714Y-105644190D01*
X118086190Y-105644190D01*
X118133809Y-105668000D01*
X118157619Y-105691809D01*
X118181428Y-105739428D01*
X118181428Y-105810857D01*
X118157619Y-105858476D01*
X118133809Y-105882285D01*
X118086190Y-105906095D01*
X117895714Y-105906095D01*
X118324285Y-105644190D02*
X118610000Y-105644190D01*
X118467142Y-106144190D02*
X118467142Y-105644190D01*
X119133809Y-106001333D02*
X119371904Y-106001333D01*
X119086190Y-106144190D02*
X119252857Y-105644190D01*
X119419523Y-106144190D01*
D14*
X118924761Y-112113333D02*
X118972380Y-111970476D01*
X118972380Y-111732380D01*
X118924761Y-111637142D01*
X118877142Y-111589523D01*
X118781904Y-111541904D01*
X118686666Y-111541904D01*
X118591428Y-111589523D01*
X118543809Y-111637142D01*
X118496190Y-111732380D01*
X118448571Y-111922857D01*
X118400952Y-112018095D01*
X118353333Y-112065714D01*
X118258095Y-112113333D01*
X118162857Y-112113333D01*
X118067619Y-112065714D01*
X118020000Y-112018095D01*
X117972380Y-111922857D01*
X117972380Y-111684761D01*
X118020000Y-111541904D01*
X117972380Y-111208571D02*
X118972380Y-110970476D01*
X118258095Y-110780000D01*
X118972380Y-110589523D01*
X117972380Y-110351428D01*
X118972380Y-109446666D02*
X118972380Y-110018095D01*
X118972380Y-109732380D02*
X117972380Y-109732380D01*
X118115238Y-109827619D01*
X118210476Y-109922857D01*
X118258095Y-110018095D01*
D13*
X139337142Y-112986457D02*
X139540342Y-112986457D01*
X139627428Y-113305771D02*
X139337142Y-113305771D01*
X139337142Y-112696171D01*
X139627428Y-112696171D01*
X139859657Y-113276742D02*
X139946742Y-113305771D01*
X140091885Y-113305771D01*
X140149942Y-113276742D01*
X140178971Y-113247714D01*
X140208000Y-113189657D01*
X140208000Y-113131600D01*
X140178971Y-113073542D01*
X140149942Y-113044514D01*
X140091885Y-113015485D01*
X139975771Y-112986457D01*
X139917714Y-112957428D01*
X139888685Y-112928400D01*
X139859657Y-112870342D01*
X139859657Y-112812285D01*
X139888685Y-112754228D01*
X139917714Y-112725200D01*
X139975771Y-112696171D01*
X140120914Y-112696171D01*
X140208000Y-112725200D01*
X140469257Y-113305771D02*
X140469257Y-112696171D01*
X140701485Y-112696171D01*
X140759542Y-112725200D01*
X140788571Y-112754228D01*
X140817600Y-112812285D01*
X140817600Y-112899371D01*
X140788571Y-112957428D01*
X140759542Y-112986457D01*
X140701485Y-113015485D01*
X140469257Y-113015485D01*
X141020800Y-112696171D02*
X141398171Y-112696171D01*
X141194971Y-112928400D01*
X141282057Y-112928400D01*
X141340114Y-112957428D01*
X141369142Y-112986457D01*
X141398171Y-113044514D01*
X141398171Y-113189657D01*
X141369142Y-113247714D01*
X141340114Y-113276742D01*
X141282057Y-113305771D01*
X141107885Y-113305771D01*
X141049828Y-113276742D01*
X141020800Y-113247714D01*
X141630400Y-112754228D02*
X141659428Y-112725200D01*
X141717485Y-112696171D01*
X141862628Y-112696171D01*
X141920685Y-112725200D01*
X141949714Y-112754228D01*
X141978742Y-112812285D01*
X141978742Y-112870342D01*
X141949714Y-112957428D01*
X141601371Y-113305771D01*
X141978742Y-113305771D01*
X142704457Y-113305771D02*
X142704457Y-112696171D01*
X142907657Y-113131600D01*
X143110857Y-112696171D01*
X143110857Y-113305771D01*
X143401142Y-113305771D02*
X143401142Y-112696171D01*
X143691428Y-113305771D02*
X143691428Y-112696171D01*
X144039771Y-113305771D01*
X144039771Y-112696171D01*
X144330057Y-113305771D02*
X144330057Y-112696171D01*
X145084800Y-113305771D02*
X145084800Y-112696171D01*
X145433142Y-113305771D02*
X145171885Y-112957428D01*
X145433142Y-112696171D02*
X145084800Y-113044514D01*
X145694400Y-113305771D02*
X145694400Y-112696171D01*
X145897600Y-112696171D02*
X146245942Y-112696171D01*
X146071771Y-113305771D02*
X146071771Y-112696171D01*
D14*
X125983666Y-80500380D02*
X125983666Y-81214666D01*
X125936047Y-81357523D01*
X125840809Y-81452761D01*
X125697952Y-81500380D01*
X125602714Y-81500380D01*
X126983666Y-81500380D02*
X126412238Y-81500380D01*
X126697952Y-81500380D02*
X126697952Y-80500380D01*
X126602714Y-80643238D01*
X126507476Y-80738476D01*
X126412238Y-80786095D01*
X140730380Y-99036095D02*
X139730380Y-99036095D01*
X139730380Y-98798000D01*
X139778000Y-98655142D01*
X139873238Y-98559904D01*
X139968476Y-98512285D01*
X140158952Y-98464666D01*
X140301809Y-98464666D01*
X140492285Y-98512285D01*
X140587523Y-98559904D01*
X140682761Y-98655142D01*
X140730380Y-98798000D01*
X140730380Y-99036095D01*
X139730380Y-98131333D02*
X139730380Y-97512285D01*
X140111333Y-97845619D01*
X140111333Y-97702761D01*
X140158952Y-97607523D01*
X140206571Y-97559904D01*
X140301809Y-97512285D01*
X140539904Y-97512285D01*
X140635142Y-97559904D01*
X140682761Y-97607523D01*
X140730380Y-97702761D01*
X140730380Y-97988476D01*
X140682761Y-98083714D01*
X140635142Y-98131333D01*
X141100380Y-103639904D02*
X140100380Y-103639904D01*
X141100380Y-103068476D02*
X140528952Y-103497047D01*
X140100380Y-103068476D02*
X140671809Y-103639904D01*
X125309333Y-112339380D02*
X124976000Y-111863190D01*
X124737904Y-112339380D02*
X124737904Y-111339380D01*
X125118857Y-111339380D01*
X125214095Y-111387000D01*
X125261714Y-111434619D01*
X125309333Y-111529857D01*
X125309333Y-111672714D01*
X125261714Y-111767952D01*
X125214095Y-111815571D01*
X125118857Y-111863190D01*
X124737904Y-111863190D01*
X125690285Y-111434619D02*
X125737904Y-111387000D01*
X125833142Y-111339380D01*
X126071238Y-111339380D01*
X126166476Y-111387000D01*
X126214095Y-111434619D01*
X126261714Y-111529857D01*
X126261714Y-111625095D01*
X126214095Y-111767952D01*
X125642666Y-112339380D01*
X126261714Y-112339380D01*
X122642333Y-112339380D02*
X122309000Y-111863190D01*
X122070904Y-112339380D02*
X122070904Y-111339380D01*
X122451857Y-111339380D01*
X122547095Y-111387000D01*
X122594714Y-111434619D01*
X122642333Y-111529857D01*
X122642333Y-111672714D01*
X122594714Y-111767952D01*
X122547095Y-111815571D01*
X122451857Y-111863190D01*
X122070904Y-111863190D01*
X123594714Y-112339380D02*
X123023285Y-112339380D01*
X123309000Y-112339380D02*
X123309000Y-111339380D01*
X123213761Y-111482238D01*
X123118523Y-111577476D01*
X123023285Y-111625095D01*
X163361809Y-81180380D02*
X163361809Y-80180380D01*
X164409428Y-81085142D02*
X164361809Y-81132761D01*
X164218952Y-81180380D01*
X164123714Y-81180380D01*
X163980857Y-81132761D01*
X163885619Y-81037523D01*
X163838000Y-80942285D01*
X163790380Y-80751809D01*
X163790380Y-80608952D01*
X163838000Y-80418476D01*
X163885619Y-80323238D01*
X163980857Y-80228000D01*
X164123714Y-80180380D01*
X164218952Y-80180380D01*
X164361809Y-80228000D01*
X164409428Y-80275619D01*
X164790380Y-80275619D02*
X164838000Y-80228000D01*
X164933238Y-80180380D01*
X165171333Y-80180380D01*
X165266571Y-80228000D01*
X165314190Y-80275619D01*
X165361809Y-80370857D01*
X165361809Y-80466095D01*
X165314190Y-80608952D01*
X164742761Y-81180380D01*
X165361809Y-81180380D01*
X119927809Y-81180380D02*
X119927809Y-80180380D01*
X120975428Y-81085142D02*
X120927809Y-81132761D01*
X120784952Y-81180380D01*
X120689714Y-81180380D01*
X120546857Y-81132761D01*
X120451619Y-81037523D01*
X120404000Y-80942285D01*
X120356380Y-80751809D01*
X120356380Y-80608952D01*
X120404000Y-80418476D01*
X120451619Y-80323238D01*
X120546857Y-80228000D01*
X120689714Y-80180380D01*
X120784952Y-80180380D01*
X120927809Y-80228000D01*
X120975428Y-80275619D01*
X121927809Y-81180380D02*
X121356380Y-81180380D01*
X121642095Y-81180380D02*
X121642095Y-80180380D01*
X121546857Y-80323238D01*
X121451619Y-80418476D01*
X121356380Y-80466095D01*
X123213904Y-100655380D02*
X123213904Y-99655380D01*
X123452000Y-99655380D01*
X123594857Y-99703000D01*
X123690095Y-99798238D01*
X123737714Y-99893476D01*
X123785333Y-100083952D01*
X123785333Y-100226809D01*
X123737714Y-100417285D01*
X123690095Y-100512523D01*
X123594857Y-100607761D01*
X123452000Y-100655380D01*
X123213904Y-100655380D01*
X124166285Y-99750619D02*
X124213904Y-99703000D01*
X124309142Y-99655380D01*
X124547238Y-99655380D01*
X124642476Y-99703000D01*
X124690095Y-99750619D01*
X124737714Y-99845857D01*
X124737714Y-99941095D01*
X124690095Y-100083952D01*
X124118666Y-100655380D01*
X124737714Y-100655380D01*
D11*
X122678190Y-106144190D02*
X122678190Y-105644190D01*
X122868666Y-105644190D01*
X122916285Y-105668000D01*
X122940095Y-105691809D01*
X122963904Y-105739428D01*
X122963904Y-105810857D01*
X122940095Y-105858476D01*
X122916285Y-105882285D01*
X122868666Y-105906095D01*
X122678190Y-105906095D01*
X123273428Y-105644190D02*
X123368666Y-105644190D01*
X123416285Y-105668000D01*
X123463904Y-105715619D01*
X123487714Y-105810857D01*
X123487714Y-105977523D01*
X123463904Y-106072761D01*
X123416285Y-106120380D01*
X123368666Y-106144190D01*
X123273428Y-106144190D01*
X123225809Y-106120380D01*
X123178190Y-106072761D01*
X123154380Y-105977523D01*
X123154380Y-105810857D01*
X123178190Y-105715619D01*
X123225809Y-105668000D01*
X123273428Y-105644190D01*
X123987714Y-106144190D02*
X123821047Y-105906095D01*
X123702000Y-106144190D02*
X123702000Y-105644190D01*
X123892476Y-105644190D01*
X123940095Y-105668000D01*
X123963904Y-105691809D01*
X123987714Y-105739428D01*
X123987714Y-105810857D01*
X123963904Y-105858476D01*
X123940095Y-105882285D01*
X123892476Y-105906095D01*
X123702000Y-105906095D01*
X124130571Y-105644190D02*
X124416285Y-105644190D01*
X124273428Y-106144190D02*
X124273428Y-105644190D01*
X125130571Y-105882285D02*
X125202000Y-105906095D01*
X125225809Y-105929904D01*
X125249619Y-105977523D01*
X125249619Y-106048952D01*
X125225809Y-106096571D01*
X125202000Y-106120380D01*
X125154380Y-106144190D01*
X124963904Y-106144190D01*
X124963904Y-105644190D01*
X125130571Y-105644190D01*
X125178190Y-105668000D01*
X125202000Y-105691809D01*
X125225809Y-105739428D01*
X125225809Y-105787047D01*
X125202000Y-105834666D01*
X125178190Y-105858476D01*
X125130571Y-105882285D01*
X124963904Y-105882285D01*
D14*
X157987666Y-80500380D02*
X157987666Y-81214666D01*
X157940047Y-81357523D01*
X157844809Y-81452761D01*
X157701952Y-81500380D01*
X157606714Y-81500380D01*
X158416238Y-80595619D02*
X158463857Y-80548000D01*
X158559095Y-80500380D01*
X158797190Y-80500380D01*
X158892428Y-80548000D01*
X158940047Y-80595619D01*
X158987666Y-80690857D01*
X158987666Y-80786095D01*
X158940047Y-80928952D01*
X158368619Y-81500380D01*
X158987666Y-81500380D01*
X168644666Y-104446380D02*
X168644666Y-105160666D01*
X168597047Y-105303523D01*
X168501809Y-105398761D01*
X168358952Y-105446380D01*
X168263714Y-105446380D01*
X169025619Y-104446380D02*
X169644666Y-104446380D01*
X169311333Y-104827333D01*
X169454190Y-104827333D01*
X169549428Y-104874952D01*
X169597047Y-104922571D01*
X169644666Y-105017809D01*
X169644666Y-105255904D01*
X169597047Y-105351142D01*
X169549428Y-105398761D01*
X169454190Y-105446380D01*
X169168476Y-105446380D01*
X169073238Y-105398761D01*
X169025619Y-105351142D01*
M02*
