M48
INCH,TZ
T1C0.0276
T2C0.0315
T3C0.0390
T4C0.0394
T5C0.0400
T6C0.0433
T7C0.0512
%
G90
G05
T1
X49350Y-42350
X49350Y-45350
X48250Y-42350
X48250Y-45350
T2
X46100Y-32850
X46100Y-33850
X46100Y-34850
X46100Y-35850
X46100Y-36850
X46100Y-37850
X46100Y-38850
X49100Y-32850
X49100Y-33850
X49100Y-34850
X49100Y-35850
X49100Y-36850
X49100Y-37850
X49100Y-38850
X63200Y-32850
X63200Y-33850
X63200Y-34850
X63200Y-35850
X63200Y-36850
X63200Y-37850
X63200Y-38850
X66200Y-32850
X66200Y-33850
X66200Y-34850
X66200Y-35850
X66200Y-36850
X66200Y-37850
X66200Y-38850
T3
X45800Y-42978
X45800Y-44750
T4
X46450Y-40150
X46450Y-41150
X47800Y-31200
X48345Y-30082
X48891Y-31200
X49436Y-30082
X49981Y-31200
X50526Y-30082
X51072Y-31200
X51617Y-30082
X52162Y-31200
X60150Y-31200
X60695Y-30082
X61241Y-31200
X61786Y-30082
X62331Y-31200
X62876Y-30082
X63422Y-31200
X63967Y-30082
X64512Y-31200
X48850Y-40150
X48850Y-41150
T5
X50600Y-36000
X50600Y-37000
X50600Y-38000
X50600Y-39000
X50600Y-40000
X50600Y-41000
X50600Y-42000
X50600Y-43000
X50600Y-44000
X50600Y-45000
X51600Y-36000
X51600Y-37000
X51600Y-38000
X51600Y-39000
X51600Y-40000
X51600Y-41000
X51600Y-42000
X51600Y-43000
X51600Y-44000
X51600Y-45000
X60600Y-36000
X60600Y-37000
X60600Y-38000
X60600Y-39000
X60600Y-40000
X60600Y-41000
X60600Y-42000
X60600Y-43000
X60600Y-44000
X60600Y-45000
X61600Y-36000
X61600Y-37000
X61600Y-38000
X61600Y-39000
X61600Y-40000
X61600Y-41000
X61600Y-42000
X61600Y-43000
X61600Y-44000
X61600Y-45000
T6
X63200Y-40900
X66200Y-40900
T7
X46780Y-42482
X46780Y-45242
T4
G00X63450Y-45244
M15
G01X63450Y-44456
M16
G05
G00X65025Y-43000
M15
G01X64237Y-43000
M16
G05
G00X65812Y-45244
M15
G01X65812Y-44456
M16
G05
T0
M30
