G04 #@! TF.GenerationSoftware,KiCad,Pcbnew,(5.1.0-0)*
G04 #@! TF.CreationDate,2019-03-28T18:25:31-07:00*
G04 #@! TF.ProjectId,unijoysticle,756e696a-6f79-4737-9469-636c652e6b69,v0.0.1*
G04 #@! TF.SameCoordinates,Original*
G04 #@! TF.FileFunction,Legend,Top*
G04 #@! TF.FilePolarity,Positive*
%FSLAX46Y46*%
G04 Gerber Fmt 4.6, Leading zero omitted, Abs format (unit mm)*
G04 Created by KiCad (PCBNEW (5.1.0-0)) date 2019-03-28 18:25:31*
%MOMM*%
%LPD*%
G04 APERTURE LIST*
%ADD10C,0.150000*%
%ADD11C,0.300000*%
%ADD12C,0.120000*%
%ADD13C,0.100000*%
%ADD14C,0.127000*%
G04 APERTURE END LIST*
D10*
X139001952Y-39427380D02*
X138525761Y-39427380D01*
X138478142Y-39903571D01*
X138525761Y-39855952D01*
X138621000Y-39808333D01*
X138859095Y-39808333D01*
X138954333Y-39855952D01*
X139001952Y-39903571D01*
X139049571Y-39998809D01*
X139049571Y-40236904D01*
X139001952Y-40332142D01*
X138954333Y-40379761D01*
X138859095Y-40427380D01*
X138621000Y-40427380D01*
X138525761Y-40379761D01*
X138478142Y-40332142D01*
X139954333Y-39427380D02*
X139478142Y-39427380D01*
X139430523Y-39903571D01*
X139478142Y-39855952D01*
X139573380Y-39808333D01*
X139811476Y-39808333D01*
X139906714Y-39855952D01*
X139954333Y-39903571D01*
X140001952Y-39998809D01*
X140001952Y-40236904D01*
X139954333Y-40332142D01*
X139906714Y-40379761D01*
X139811476Y-40427380D01*
X139573380Y-40427380D01*
X139478142Y-40379761D01*
X139430523Y-40332142D01*
X140430523Y-40332142D02*
X140478142Y-40379761D01*
X140430523Y-40427380D01*
X140382904Y-40379761D01*
X140430523Y-40332142D01*
X140430523Y-40427380D01*
X141335285Y-39427380D02*
X141144809Y-39427380D01*
X141049571Y-39475000D01*
X141001952Y-39522619D01*
X140906714Y-39665476D01*
X140859095Y-39855952D01*
X140859095Y-40236904D01*
X140906714Y-40332142D01*
X140954333Y-40379761D01*
X141049571Y-40427380D01*
X141240047Y-40427380D01*
X141335285Y-40379761D01*
X141382904Y-40332142D01*
X141430523Y-40236904D01*
X141430523Y-39998809D01*
X141382904Y-39903571D01*
X141335285Y-39855952D01*
X141240047Y-39808333D01*
X141049571Y-39808333D01*
X140954333Y-39855952D01*
X140906714Y-39903571D01*
X140859095Y-39998809D01*
X141811476Y-39522619D02*
X141859095Y-39475000D01*
X141954333Y-39427380D01*
X142192428Y-39427380D01*
X142287666Y-39475000D01*
X142335285Y-39522619D01*
X142382904Y-39617857D01*
X142382904Y-39713095D01*
X142335285Y-39855952D01*
X141763857Y-40427380D01*
X142382904Y-40427380D01*
X143240047Y-39427380D02*
X143049571Y-39427380D01*
X142954333Y-39475000D01*
X142906714Y-39522619D01*
X142811476Y-39665476D01*
X142763857Y-39855952D01*
X142763857Y-40236904D01*
X142811476Y-40332142D01*
X142859095Y-40379761D01*
X142954333Y-40427380D01*
X143144809Y-40427380D01*
X143240047Y-40379761D01*
X143287666Y-40332142D01*
X143335285Y-40236904D01*
X143335285Y-39998809D01*
X143287666Y-39903571D01*
X143240047Y-39855952D01*
X143144809Y-39808333D01*
X142954333Y-39808333D01*
X142859095Y-39855952D01*
X142811476Y-39903571D01*
X142763857Y-39998809D01*
X144525761Y-40427380D02*
X144525761Y-39760714D01*
X144525761Y-39855952D02*
X144573380Y-39808333D01*
X144668619Y-39760714D01*
X144811476Y-39760714D01*
X144906714Y-39808333D01*
X144954333Y-39903571D01*
X144954333Y-40427380D01*
X144954333Y-39903571D02*
X145001952Y-39808333D01*
X145097190Y-39760714D01*
X145240047Y-39760714D01*
X145335285Y-39808333D01*
X145382904Y-39903571D01*
X145382904Y-40427380D01*
X145859095Y-40427380D02*
X145859095Y-39760714D01*
X145859095Y-39855952D02*
X145906714Y-39808333D01*
X146001952Y-39760714D01*
X146144809Y-39760714D01*
X146240047Y-39808333D01*
X146287666Y-39903571D01*
X146287666Y-40427380D01*
X146287666Y-39903571D02*
X146335285Y-39808333D01*
X146430523Y-39760714D01*
X146573380Y-39760714D01*
X146668619Y-39808333D01*
X146716238Y-39903571D01*
X146716238Y-40427380D01*
X170434000Y-41275000D02*
X114808000Y-41275000D01*
X170434000Y-79375000D02*
X170434000Y-40688579D01*
X114808000Y-79375000D02*
X114808000Y-40688579D01*
X114808000Y-41275000D02*
X115934504Y-40688579D01*
X114808000Y-41275000D02*
X115934504Y-41861421D01*
X170434000Y-41275000D02*
X169307496Y-40688579D01*
X170434000Y-41275000D02*
X169307496Y-41861421D01*
X138430523Y-44634380D02*
X139049571Y-44634380D01*
X138716238Y-45015333D01*
X138859095Y-45015333D01*
X138954333Y-45062952D01*
X139001952Y-45110571D01*
X139049571Y-45205809D01*
X139049571Y-45443904D01*
X139001952Y-45539142D01*
X138954333Y-45586761D01*
X138859095Y-45634380D01*
X138573380Y-45634380D01*
X138478142Y-45586761D01*
X138430523Y-45539142D01*
X139954333Y-44634380D02*
X139478142Y-44634380D01*
X139430523Y-45110571D01*
X139478142Y-45062952D01*
X139573380Y-45015333D01*
X139811476Y-45015333D01*
X139906714Y-45062952D01*
X139954333Y-45110571D01*
X140001952Y-45205809D01*
X140001952Y-45443904D01*
X139954333Y-45539142D01*
X139906714Y-45586761D01*
X139811476Y-45634380D01*
X139573380Y-45634380D01*
X139478142Y-45586761D01*
X139430523Y-45539142D01*
X140430523Y-45539142D02*
X140478142Y-45586761D01*
X140430523Y-45634380D01*
X140382904Y-45586761D01*
X140430523Y-45539142D01*
X140430523Y-45634380D01*
X141049571Y-45062952D02*
X140954333Y-45015333D01*
X140906714Y-44967714D01*
X140859095Y-44872476D01*
X140859095Y-44824857D01*
X140906714Y-44729619D01*
X140954333Y-44682000D01*
X141049571Y-44634380D01*
X141240047Y-44634380D01*
X141335285Y-44682000D01*
X141382904Y-44729619D01*
X141430523Y-44824857D01*
X141430523Y-44872476D01*
X141382904Y-44967714D01*
X141335285Y-45015333D01*
X141240047Y-45062952D01*
X141049571Y-45062952D01*
X140954333Y-45110571D01*
X140906714Y-45158190D01*
X140859095Y-45253428D01*
X140859095Y-45443904D01*
X140906714Y-45539142D01*
X140954333Y-45586761D01*
X141049571Y-45634380D01*
X141240047Y-45634380D01*
X141335285Y-45586761D01*
X141382904Y-45539142D01*
X141430523Y-45443904D01*
X141430523Y-45253428D01*
X141382904Y-45158190D01*
X141335285Y-45110571D01*
X141240047Y-45062952D01*
X142382904Y-45634380D02*
X141811476Y-45634380D01*
X142097190Y-45634380D02*
X142097190Y-44634380D01*
X142001952Y-44777238D01*
X141906714Y-44872476D01*
X141811476Y-44920095D01*
X143240047Y-44967714D02*
X143240047Y-45634380D01*
X143001952Y-44586761D02*
X142763857Y-45301047D01*
X143382904Y-45301047D01*
X144525761Y-45634380D02*
X144525761Y-44967714D01*
X144525761Y-45062952D02*
X144573380Y-45015333D01*
X144668619Y-44967714D01*
X144811476Y-44967714D01*
X144906714Y-45015333D01*
X144954333Y-45110571D01*
X144954333Y-45634380D01*
X144954333Y-45110571D02*
X145001952Y-45015333D01*
X145097190Y-44967714D01*
X145240047Y-44967714D01*
X145335285Y-45015333D01*
X145382904Y-45110571D01*
X145382904Y-45634380D01*
X145859095Y-45634380D02*
X145859095Y-44967714D01*
X145859095Y-45062952D02*
X145906714Y-45015333D01*
X146001952Y-44967714D01*
X146144809Y-44967714D01*
X146240047Y-45015333D01*
X146287666Y-45110571D01*
X146287666Y-45634380D01*
X146287666Y-45110571D02*
X146335285Y-45015333D01*
X146430523Y-44967714D01*
X146573380Y-44967714D01*
X146668619Y-45015333D01*
X146716238Y-45110571D01*
X146716238Y-45634380D01*
X160528000Y-46482000D02*
X124714000Y-46482000D01*
X160528000Y-83439000D02*
X160528000Y-45895579D01*
X124714000Y-83439000D02*
X124714000Y-45895579D01*
X124714000Y-46482000D02*
X125840504Y-45895579D01*
X124714000Y-46482000D02*
X125840504Y-47068421D01*
X160528000Y-46482000D02*
X159401496Y-45895579D01*
X160528000Y-46482000D02*
X159401496Y-47068421D01*
X101911285Y-92091333D02*
X101244619Y-92091333D01*
X102292238Y-91853238D02*
X101577952Y-91615142D01*
X101577952Y-92234190D01*
X101244619Y-93138952D02*
X101244619Y-92567523D01*
X101244619Y-92853238D02*
X102244619Y-92853238D01*
X102101761Y-92758000D01*
X102006523Y-92662761D01*
X101958904Y-92567523D01*
X101339857Y-93567523D02*
X101292238Y-93615142D01*
X101244619Y-93567523D01*
X101292238Y-93519904D01*
X101339857Y-93567523D01*
X101244619Y-93567523D01*
X102244619Y-94472285D02*
X102244619Y-94281809D01*
X102197000Y-94186571D01*
X102149380Y-94138952D01*
X102006523Y-94043714D01*
X101816047Y-93996095D01*
X101435095Y-93996095D01*
X101339857Y-94043714D01*
X101292238Y-94091333D01*
X101244619Y-94186571D01*
X101244619Y-94377047D01*
X101292238Y-94472285D01*
X101339857Y-94519904D01*
X101435095Y-94567523D01*
X101673190Y-94567523D01*
X101768428Y-94519904D01*
X101816047Y-94472285D01*
X101863666Y-94377047D01*
X101863666Y-94186571D01*
X101816047Y-94091333D01*
X101768428Y-94043714D01*
X101673190Y-93996095D01*
X102244619Y-95472285D02*
X102244619Y-94996095D01*
X101768428Y-94948476D01*
X101816047Y-94996095D01*
X101863666Y-95091333D01*
X101863666Y-95329428D01*
X101816047Y-95424666D01*
X101768428Y-95472285D01*
X101673190Y-95519904D01*
X101435095Y-95519904D01*
X101339857Y-95472285D01*
X101292238Y-95424666D01*
X101244619Y-95329428D01*
X101244619Y-95091333D01*
X101292238Y-94996095D01*
X101339857Y-94948476D01*
X102244619Y-96377047D02*
X102244619Y-96186571D01*
X102197000Y-96091333D01*
X102149380Y-96043714D01*
X102006523Y-95948476D01*
X101816047Y-95900857D01*
X101435095Y-95900857D01*
X101339857Y-95948476D01*
X101292238Y-95996095D01*
X101244619Y-96091333D01*
X101244619Y-96281809D01*
X101292238Y-96377047D01*
X101339857Y-96424666D01*
X101435095Y-96472285D01*
X101673190Y-96472285D01*
X101768428Y-96424666D01*
X101816047Y-96377047D01*
X101863666Y-96281809D01*
X101863666Y-96091333D01*
X101816047Y-95996095D01*
X101768428Y-95948476D01*
X101673190Y-95900857D01*
X101244619Y-97662761D02*
X101911285Y-97662761D01*
X101816047Y-97662761D02*
X101863666Y-97710380D01*
X101911285Y-97805619D01*
X101911285Y-97948476D01*
X101863666Y-98043714D01*
X101768428Y-98091333D01*
X101244619Y-98091333D01*
X101768428Y-98091333D02*
X101863666Y-98138952D01*
X101911285Y-98234190D01*
X101911285Y-98377047D01*
X101863666Y-98472285D01*
X101768428Y-98519904D01*
X101244619Y-98519904D01*
X101244619Y-98996095D02*
X101911285Y-98996095D01*
X101816047Y-98996095D02*
X101863666Y-99043714D01*
X101911285Y-99138952D01*
X101911285Y-99281809D01*
X101863666Y-99377047D01*
X101768428Y-99424666D01*
X101244619Y-99424666D01*
X101768428Y-99424666D02*
X101863666Y-99472285D01*
X101911285Y-99567523D01*
X101911285Y-99710380D01*
X101863666Y-99805619D01*
X101768428Y-99853238D01*
X101244619Y-99853238D01*
X102997000Y-74930000D02*
X102997000Y-116586000D01*
X118745000Y-74930000D02*
X102410579Y-74930000D01*
X118745000Y-116586000D02*
X102410579Y-116586000D01*
X102997000Y-116586000D02*
X102410579Y-115459496D01*
X102997000Y-116586000D02*
X103583421Y-115459496D01*
X102997000Y-74930000D02*
X102410579Y-76056504D01*
X102997000Y-74930000D02*
X103583421Y-76056504D01*
X138493642Y-51714619D02*
X138541261Y-51667000D01*
X138636500Y-51619380D01*
X138874595Y-51619380D01*
X138969833Y-51667000D01*
X139017452Y-51714619D01*
X139065071Y-51809857D01*
X139065071Y-51905095D01*
X139017452Y-52047952D01*
X138446023Y-52619380D01*
X139065071Y-52619380D01*
X139684119Y-51619380D02*
X139779357Y-51619380D01*
X139874595Y-51667000D01*
X139922214Y-51714619D01*
X139969833Y-51809857D01*
X140017452Y-52000333D01*
X140017452Y-52238428D01*
X139969833Y-52428904D01*
X139922214Y-52524142D01*
X139874595Y-52571761D01*
X139779357Y-52619380D01*
X139684119Y-52619380D01*
X139588880Y-52571761D01*
X139541261Y-52524142D01*
X139493642Y-52428904D01*
X139446023Y-52238428D01*
X139446023Y-52000333D01*
X139493642Y-51809857D01*
X139541261Y-51714619D01*
X139588880Y-51667000D01*
X139684119Y-51619380D01*
X140446023Y-52524142D02*
X140493642Y-52571761D01*
X140446023Y-52619380D01*
X140398404Y-52571761D01*
X140446023Y-52524142D01*
X140446023Y-52619380D01*
X140874595Y-51714619D02*
X140922214Y-51667000D01*
X141017452Y-51619380D01*
X141255547Y-51619380D01*
X141350785Y-51667000D01*
X141398404Y-51714619D01*
X141446023Y-51809857D01*
X141446023Y-51905095D01*
X141398404Y-52047952D01*
X140826976Y-52619380D01*
X141446023Y-52619380D01*
X142017452Y-52047952D02*
X141922214Y-52000333D01*
X141874595Y-51952714D01*
X141826976Y-51857476D01*
X141826976Y-51809857D01*
X141874595Y-51714619D01*
X141922214Y-51667000D01*
X142017452Y-51619380D01*
X142207928Y-51619380D01*
X142303166Y-51667000D01*
X142350785Y-51714619D01*
X142398404Y-51809857D01*
X142398404Y-51857476D01*
X142350785Y-51952714D01*
X142303166Y-52000333D01*
X142207928Y-52047952D01*
X142017452Y-52047952D01*
X141922214Y-52095571D01*
X141874595Y-52143190D01*
X141826976Y-52238428D01*
X141826976Y-52428904D01*
X141874595Y-52524142D01*
X141922214Y-52571761D01*
X142017452Y-52619380D01*
X142207928Y-52619380D01*
X142303166Y-52571761D01*
X142350785Y-52524142D01*
X142398404Y-52428904D01*
X142398404Y-52238428D01*
X142350785Y-52143190D01*
X142303166Y-52095571D01*
X142207928Y-52047952D01*
X142874595Y-52619380D02*
X143065071Y-52619380D01*
X143160309Y-52571761D01*
X143207928Y-52524142D01*
X143303166Y-52381285D01*
X143350785Y-52190809D01*
X143350785Y-51809857D01*
X143303166Y-51714619D01*
X143255547Y-51667000D01*
X143160309Y-51619380D01*
X142969833Y-51619380D01*
X142874595Y-51667000D01*
X142826976Y-51714619D01*
X142779357Y-51809857D01*
X142779357Y-52047952D01*
X142826976Y-52143190D01*
X142874595Y-52190809D01*
X142969833Y-52238428D01*
X143160309Y-52238428D01*
X143255547Y-52190809D01*
X143303166Y-52143190D01*
X143350785Y-52047952D01*
X144541261Y-52619380D02*
X144541261Y-51952714D01*
X144541261Y-52047952D02*
X144588880Y-52000333D01*
X144684119Y-51952714D01*
X144826976Y-51952714D01*
X144922214Y-52000333D01*
X144969833Y-52095571D01*
X144969833Y-52619380D01*
X144969833Y-52095571D02*
X145017452Y-52000333D01*
X145112690Y-51952714D01*
X145255547Y-51952714D01*
X145350785Y-52000333D01*
X145398404Y-52095571D01*
X145398404Y-52619380D01*
X145874595Y-52619380D02*
X145874595Y-51952714D01*
X145874595Y-52047952D02*
X145922214Y-52000333D01*
X146017452Y-51952714D01*
X146160309Y-51952714D01*
X146255547Y-52000333D01*
X146303166Y-52095571D01*
X146303166Y-52619380D01*
X146303166Y-52095571D02*
X146350785Y-52000333D01*
X146446023Y-51952714D01*
X146588880Y-51952714D01*
X146684119Y-52000333D01*
X146731738Y-52095571D01*
X146731738Y-52619380D01*
X132492000Y-53467000D02*
X152781000Y-53467000D01*
X132492000Y-79248000D02*
X132492000Y-52880579D01*
X152781000Y-79248000D02*
X152781000Y-52880579D01*
X152781000Y-53467000D02*
X151654496Y-54053421D01*
X152781000Y-53467000D02*
X151654496Y-52880579D01*
X132492000Y-53467000D02*
X133618504Y-54053421D01*
X132492000Y-53467000D02*
X133618504Y-52880579D01*
D11*
X134942428Y-109287571D02*
X135799571Y-109287571D01*
X135371000Y-110787571D02*
X135371000Y-109287571D01*
X136299571Y-110787571D02*
X136299571Y-109287571D01*
X136299571Y-110001857D02*
X137156714Y-110001857D01*
X137156714Y-110787571D02*
X137156714Y-109287571D01*
X137871000Y-110787571D02*
X137871000Y-109287571D01*
X138513857Y-110716142D02*
X138728142Y-110787571D01*
X139085285Y-110787571D01*
X139228142Y-110716142D01*
X139299571Y-110644714D01*
X139371000Y-110501857D01*
X139371000Y-110359000D01*
X139299571Y-110216142D01*
X139228142Y-110144714D01*
X139085285Y-110073285D01*
X138799571Y-110001857D01*
X138656714Y-109930428D01*
X138585285Y-109859000D01*
X138513857Y-109716142D01*
X138513857Y-109573285D01*
X138585285Y-109430428D01*
X138656714Y-109359000D01*
X138799571Y-109287571D01*
X139156714Y-109287571D01*
X139371000Y-109359000D01*
X141656714Y-110001857D02*
X141156714Y-110001857D01*
X141156714Y-110787571D02*
X141156714Y-109287571D01*
X141871000Y-109287571D01*
X142371000Y-110359000D02*
X143085285Y-110359000D01*
X142228142Y-110787571D02*
X142728142Y-109287571D01*
X143228142Y-110787571D01*
X144585285Y-110644714D02*
X144513857Y-110716142D01*
X144299571Y-110787571D01*
X144156714Y-110787571D01*
X143942428Y-110716142D01*
X143799571Y-110573285D01*
X143728142Y-110430428D01*
X143656714Y-110144714D01*
X143656714Y-109930428D01*
X143728142Y-109644714D01*
X143799571Y-109501857D01*
X143942428Y-109359000D01*
X144156714Y-109287571D01*
X144299571Y-109287571D01*
X144513857Y-109359000D01*
X144585285Y-109430428D01*
X145228142Y-110001857D02*
X145728142Y-110001857D01*
X145942428Y-110787571D02*
X145228142Y-110787571D01*
X145228142Y-109287571D01*
X145942428Y-109287571D01*
X147728142Y-109287571D02*
X147728142Y-110501857D01*
X147799571Y-110644714D01*
X147871000Y-110716142D01*
X148013857Y-110787571D01*
X148299571Y-110787571D01*
X148442428Y-110716142D01*
X148513857Y-110644714D01*
X148585285Y-110501857D01*
X148585285Y-109287571D01*
X149299571Y-110787571D02*
X149299571Y-109287571D01*
X149871000Y-109287571D01*
X150013857Y-109359000D01*
X150085285Y-109430428D01*
X150156714Y-109573285D01*
X150156714Y-109787571D01*
X150085285Y-109930428D01*
X150013857Y-110001857D01*
X149871000Y-110073285D01*
X149299571Y-110073285D01*
D12*
X162398000Y-102035000D02*
X162398000Y-104975000D01*
X162638000Y-102035000D02*
X162638000Y-104975000D01*
X162518000Y-102035000D02*
X162518000Y-104975000D01*
X167058000Y-104975000D02*
X167058000Y-104845000D01*
X161618000Y-104975000D02*
X167058000Y-104975000D01*
X161618000Y-104845000D02*
X161618000Y-104975000D01*
X167058000Y-102035000D02*
X167058000Y-102165000D01*
X161618000Y-102035000D02*
X167058000Y-102035000D01*
X161618000Y-102165000D02*
X161618000Y-102035000D01*
X125349000Y-108509000D02*
X125349000Y-109459000D01*
X125349000Y-114249000D02*
X125349000Y-113299000D01*
X124429000Y-109459000D02*
X124429000Y-113299000D01*
X126269000Y-109459000D02*
X124429000Y-109459000D01*
X126269000Y-113299000D02*
X126269000Y-109459000D01*
X124429000Y-113299000D02*
X126269000Y-113299000D01*
X122555000Y-108509000D02*
X122555000Y-109459000D01*
X122555000Y-114249000D02*
X122555000Y-113299000D01*
X121635000Y-109459000D02*
X121635000Y-113299000D01*
X123475000Y-109459000D02*
X121635000Y-109459000D01*
X123475000Y-113299000D02*
X123475000Y-109459000D01*
X121635000Y-113299000D02*
X123475000Y-113299000D01*
D13*
X119333000Y-104851000D02*
X119083000Y-104851000D01*
X116633000Y-104851000D02*
X116883000Y-104851000D01*
X116133000Y-102251000D02*
G75*
G02X116983000Y-101401000I1850000J-1000000D01*
G01*
X118983000Y-101401000D02*
G75*
G02X119833000Y-102251000I-1000000J-1850000D01*
G01*
X116626853Y-104858285D02*
G75*
G02X116133000Y-104251000I1356147J1607285D01*
G01*
X119824615Y-104246467D02*
G75*
G02X119333000Y-104851000I-1841615J995467D01*
G01*
D12*
X117302000Y-114755000D02*
X117532000Y-114755000D01*
X113632000Y-115275000D02*
X113632000Y-107555000D01*
X113632000Y-107555000D02*
X117532000Y-107555000D01*
X120642000Y-115275000D02*
X120642000Y-114755000D01*
X113632000Y-115275000D02*
X117532000Y-115275000D01*
X117302000Y-108075000D02*
X117532000Y-108075000D01*
X120132000Y-114755000D02*
X120642000Y-114755000D01*
X120132000Y-115275000D02*
X120642000Y-115275000D01*
X117302000Y-108615000D02*
X117302000Y-108075000D01*
X120132000Y-108075000D02*
X120642000Y-108075000D01*
X120642000Y-108075000D02*
X120642000Y-107555000D01*
X120132000Y-107555000D02*
X120642000Y-107555000D01*
X117302000Y-114755000D02*
X117302000Y-114215000D01*
X117302000Y-113115000D02*
X117302000Y-109715000D01*
D14*
X129794000Y-90805000D02*
X155194000Y-90805000D01*
X155194000Y-90805000D02*
X155194000Y-83312000D01*
X155194000Y-83312000D02*
X129794000Y-83312000D01*
X129794000Y-83312000D02*
X129794000Y-90805000D01*
X129794000Y-90805000D02*
X155194000Y-90805000D01*
X155194000Y-90805000D02*
X155194000Y-83312000D01*
X155194000Y-83312000D02*
X129794000Y-83312000D01*
X129794000Y-83312000D02*
X129794000Y-90805000D01*
D12*
X135562000Y-67068000D02*
X135562000Y-71168000D01*
X135562000Y-71168000D02*
X133552000Y-71168000D01*
X133552000Y-71168000D02*
X133552000Y-80308000D01*
X133552000Y-80308000D02*
X120352000Y-80308000D01*
X120352000Y-80308000D02*
X120352000Y-71168000D01*
X120352000Y-71168000D02*
X118342000Y-71168000D01*
X118342000Y-71168000D02*
X118342000Y-67068000D01*
X121662000Y-81002338D02*
X121162000Y-81002338D01*
X121162000Y-81002338D02*
X121412000Y-80569325D01*
X121412000Y-80569325D02*
X121662000Y-81002338D01*
X166588000Y-82109000D02*
X165338000Y-82109000D01*
X166588000Y-100009000D02*
X166588000Y-82109000D01*
X162088000Y-100009000D02*
X166588000Y-100009000D01*
X162088000Y-82109000D02*
X162088000Y-100009000D01*
X163338000Y-82109000D02*
X162088000Y-82109000D01*
X165338000Y-82109000D02*
G75*
G02X163338000Y-82109000I-1000000J0D01*
G01*
X121904000Y-82109000D02*
G75*
G02X119904000Y-82109000I-1000000J0D01*
G01*
X119904000Y-82109000D02*
X118654000Y-82109000D01*
X118654000Y-82109000D02*
X118654000Y-100009000D01*
X118654000Y-100009000D02*
X123154000Y-100009000D01*
X123154000Y-100009000D02*
X123154000Y-82109000D01*
X123154000Y-82109000D02*
X121904000Y-82109000D01*
D13*
X125429000Y-104851000D02*
X125179000Y-104851000D01*
X122729000Y-104851000D02*
X122979000Y-104851000D01*
X122229000Y-102251000D02*
G75*
G02X123079000Y-101401000I1850000J-1000000D01*
G01*
X125079000Y-101401000D02*
G75*
G02X125929000Y-102251000I-1000000J-1850000D01*
G01*
X122722853Y-104858285D02*
G75*
G02X122229000Y-104251000I1356147J1607285D01*
G01*
X125920615Y-104246467D02*
G75*
G02X125429000Y-104851000I-1841615J995467D01*
G01*
D12*
X166931000Y-67068000D02*
X166931000Y-71168000D01*
X166931000Y-71168000D02*
X164921000Y-71168000D01*
X164921000Y-71168000D02*
X164921000Y-80308000D01*
X164921000Y-80308000D02*
X151721000Y-80308000D01*
X151721000Y-80308000D02*
X151721000Y-71168000D01*
X151721000Y-71168000D02*
X149711000Y-71168000D01*
X149711000Y-71168000D02*
X149711000Y-67068000D01*
X153031000Y-81002338D02*
X152531000Y-81002338D01*
X152531000Y-81002338D02*
X152781000Y-80569325D01*
X152781000Y-80569325D02*
X153031000Y-81002338D01*
X159628000Y-118392000D02*
X159628000Y-115792000D01*
X174328000Y-118392000D02*
X159628000Y-118392000D01*
X159628000Y-109192000D02*
X161528000Y-109192000D01*
X159628000Y-111892000D02*
X159628000Y-109192000D01*
X174328000Y-109192000D02*
X174328000Y-118392000D01*
X165528000Y-109192000D02*
X174328000Y-109192000D01*
X160478000Y-118592000D02*
X159428000Y-118592000D01*
X159428000Y-117542000D02*
X159428000Y-118592000D01*
D10*
X163599904Y-101487380D02*
X163599904Y-100487380D01*
X163838000Y-100487380D01*
X163980857Y-100535000D01*
X164076095Y-100630238D01*
X164123714Y-100725476D01*
X164171333Y-100915952D01*
X164171333Y-101058809D01*
X164123714Y-101249285D01*
X164076095Y-101344523D01*
X163980857Y-101439761D01*
X163838000Y-101487380D01*
X163599904Y-101487380D01*
X164504666Y-100487380D02*
X165123714Y-100487380D01*
X164790380Y-100868333D01*
X164933238Y-100868333D01*
X165028476Y-100915952D01*
X165076095Y-100963571D01*
X165123714Y-101058809D01*
X165123714Y-101296904D01*
X165076095Y-101392142D01*
X165028476Y-101439761D01*
X164933238Y-101487380D01*
X164647523Y-101487380D01*
X164552285Y-101439761D01*
X164504666Y-101392142D01*
X160266095Y-101857380D02*
X160266095Y-100857380D01*
X160837523Y-101857380D02*
X160408952Y-101285952D01*
X160837523Y-100857380D02*
X160266095Y-101428809D01*
X123881380Y-111545666D02*
X123405190Y-111879000D01*
X123881380Y-112117095D02*
X122881380Y-112117095D01*
X122881380Y-111736142D01*
X122929000Y-111640904D01*
X122976619Y-111593285D01*
X123071857Y-111545666D01*
X123214714Y-111545666D01*
X123309952Y-111593285D01*
X123357571Y-111640904D01*
X123405190Y-111736142D01*
X123405190Y-112117095D01*
X122976619Y-111164714D02*
X122929000Y-111117095D01*
X122881380Y-111021857D01*
X122881380Y-110783761D01*
X122929000Y-110688523D01*
X122976619Y-110640904D01*
X123071857Y-110593285D01*
X123167095Y-110593285D01*
X123309952Y-110640904D01*
X123881380Y-111212333D01*
X123881380Y-110593285D01*
X121087380Y-111545666D02*
X120611190Y-111879000D01*
X121087380Y-112117095D02*
X120087380Y-112117095D01*
X120087380Y-111736142D01*
X120135000Y-111640904D01*
X120182619Y-111593285D01*
X120277857Y-111545666D01*
X120420714Y-111545666D01*
X120515952Y-111593285D01*
X120563571Y-111640904D01*
X120611190Y-111736142D01*
X120611190Y-112117095D01*
X121087380Y-110593285D02*
X121087380Y-111164714D01*
X121087380Y-110879000D02*
X120087380Y-110879000D01*
X120230238Y-110974238D01*
X120325476Y-111069476D01*
X120373095Y-111164714D01*
X117244904Y-106497380D02*
X117244904Y-105497380D01*
X117483000Y-105497380D01*
X117625857Y-105545000D01*
X117721095Y-105640238D01*
X117768714Y-105735476D01*
X117816333Y-105925952D01*
X117816333Y-106068809D01*
X117768714Y-106259285D01*
X117721095Y-106354523D01*
X117625857Y-106449761D01*
X117483000Y-106497380D01*
X117244904Y-106497380D01*
X118768714Y-106497380D02*
X118197285Y-106497380D01*
X118483000Y-106497380D02*
X118483000Y-105497380D01*
X118387761Y-105640238D01*
X118292523Y-105735476D01*
X118197285Y-105783095D01*
D13*
X117661571Y-100556190D02*
X117423476Y-100556190D01*
X117423476Y-100056190D01*
X117828238Y-100294285D02*
X117994904Y-100294285D01*
X118066333Y-100556190D02*
X117828238Y-100556190D01*
X117828238Y-100056190D01*
X118066333Y-100056190D01*
X118280619Y-100556190D02*
X118280619Y-100056190D01*
X118399666Y-100056190D01*
X118471095Y-100080000D01*
X118518714Y-100127619D01*
X118542523Y-100175238D01*
X118566333Y-100270476D01*
X118566333Y-100341904D01*
X118542523Y-100437142D01*
X118518714Y-100484761D01*
X118471095Y-100532380D01*
X118399666Y-100556190D01*
X118280619Y-100556190D01*
D10*
X118416761Y-112748333D02*
X118464380Y-112605476D01*
X118464380Y-112367380D01*
X118416761Y-112272142D01*
X118369142Y-112224523D01*
X118273904Y-112176904D01*
X118178666Y-112176904D01*
X118083428Y-112224523D01*
X118035809Y-112272142D01*
X117988190Y-112367380D01*
X117940571Y-112557857D01*
X117892952Y-112653095D01*
X117845333Y-112700714D01*
X117750095Y-112748333D01*
X117654857Y-112748333D01*
X117559619Y-112700714D01*
X117512000Y-112653095D01*
X117464380Y-112557857D01*
X117464380Y-112319761D01*
X117512000Y-112176904D01*
X117464380Y-111843571D02*
X118464380Y-111605476D01*
X117750095Y-111415000D01*
X118464380Y-111224523D01*
X117464380Y-110986428D01*
X118464380Y-110081666D02*
X118464380Y-110653095D01*
X118464380Y-110367380D02*
X117464380Y-110367380D01*
X117607238Y-110462619D01*
X117702476Y-110557857D01*
X117750095Y-110653095D01*
D14*
X124721257Y-124289457D02*
X124808342Y-124318485D01*
X124837371Y-124347514D01*
X124866400Y-124405571D01*
X124866400Y-124492657D01*
X124837371Y-124550714D01*
X124808342Y-124579742D01*
X124750285Y-124608771D01*
X124518057Y-124608771D01*
X124518057Y-123999171D01*
X124721257Y-123999171D01*
X124779314Y-124028200D01*
X124808342Y-124057228D01*
X124837371Y-124115285D01*
X124837371Y-124173342D01*
X124808342Y-124231400D01*
X124779314Y-124260428D01*
X124721257Y-124289457D01*
X124518057Y-124289457D01*
X125446971Y-124608771D02*
X125098628Y-124608771D01*
X125272800Y-124608771D02*
X125272800Y-123999171D01*
X125214742Y-124086257D01*
X125156685Y-124144314D01*
X125098628Y-124173342D01*
X139337142Y-113494457D02*
X139540342Y-113494457D01*
X139627428Y-113813771D02*
X139337142Y-113813771D01*
X139337142Y-113204171D01*
X139627428Y-113204171D01*
X139859657Y-113784742D02*
X139946742Y-113813771D01*
X140091885Y-113813771D01*
X140149942Y-113784742D01*
X140178971Y-113755714D01*
X140208000Y-113697657D01*
X140208000Y-113639600D01*
X140178971Y-113581542D01*
X140149942Y-113552514D01*
X140091885Y-113523485D01*
X139975771Y-113494457D01*
X139917714Y-113465428D01*
X139888685Y-113436400D01*
X139859657Y-113378342D01*
X139859657Y-113320285D01*
X139888685Y-113262228D01*
X139917714Y-113233200D01*
X139975771Y-113204171D01*
X140120914Y-113204171D01*
X140208000Y-113233200D01*
X140469257Y-113813771D02*
X140469257Y-113204171D01*
X140701485Y-113204171D01*
X140759542Y-113233200D01*
X140788571Y-113262228D01*
X140817600Y-113320285D01*
X140817600Y-113407371D01*
X140788571Y-113465428D01*
X140759542Y-113494457D01*
X140701485Y-113523485D01*
X140469257Y-113523485D01*
X141020800Y-113204171D02*
X141398171Y-113204171D01*
X141194971Y-113436400D01*
X141282057Y-113436400D01*
X141340114Y-113465428D01*
X141369142Y-113494457D01*
X141398171Y-113552514D01*
X141398171Y-113697657D01*
X141369142Y-113755714D01*
X141340114Y-113784742D01*
X141282057Y-113813771D01*
X141107885Y-113813771D01*
X141049828Y-113784742D01*
X141020800Y-113755714D01*
X141630400Y-113262228D02*
X141659428Y-113233200D01*
X141717485Y-113204171D01*
X141862628Y-113204171D01*
X141920685Y-113233200D01*
X141949714Y-113262228D01*
X141978742Y-113320285D01*
X141978742Y-113378342D01*
X141949714Y-113465428D01*
X141601371Y-113813771D01*
X141978742Y-113813771D01*
X142704457Y-113813771D02*
X142704457Y-113204171D01*
X142907657Y-113639600D01*
X143110857Y-113204171D01*
X143110857Y-113813771D01*
X143401142Y-113813771D02*
X143401142Y-113204171D01*
X143691428Y-113813771D02*
X143691428Y-113204171D01*
X144039771Y-113813771D01*
X144039771Y-113204171D01*
X144330057Y-113813771D02*
X144330057Y-113204171D01*
X145084800Y-113813771D02*
X145084800Y-113204171D01*
X145433142Y-113813771D02*
X145171885Y-113465428D01*
X145433142Y-113204171D02*
X145084800Y-113552514D01*
X145694400Y-113813771D02*
X145694400Y-113204171D01*
X145897600Y-113204171D02*
X146245942Y-113204171D01*
X146071771Y-113813771D02*
X146071771Y-113204171D01*
D10*
X126618666Y-80500380D02*
X126618666Y-81214666D01*
X126571047Y-81357523D01*
X126475809Y-81452761D01*
X126332952Y-81500380D01*
X126237714Y-81500380D01*
X127618666Y-81500380D02*
X127047238Y-81500380D01*
X127332952Y-81500380D02*
X127332952Y-80500380D01*
X127237714Y-80643238D01*
X127142476Y-80738476D01*
X127047238Y-80786095D01*
X163361809Y-81561380D02*
X163361809Y-80561380D01*
X164409428Y-81466142D02*
X164361809Y-81513761D01*
X164218952Y-81561380D01*
X164123714Y-81561380D01*
X163980857Y-81513761D01*
X163885619Y-81418523D01*
X163838000Y-81323285D01*
X163790380Y-81132809D01*
X163790380Y-80989952D01*
X163838000Y-80799476D01*
X163885619Y-80704238D01*
X163980857Y-80609000D01*
X164123714Y-80561380D01*
X164218952Y-80561380D01*
X164361809Y-80609000D01*
X164409428Y-80656619D01*
X164790380Y-80656619D02*
X164838000Y-80609000D01*
X164933238Y-80561380D01*
X165171333Y-80561380D01*
X165266571Y-80609000D01*
X165314190Y-80656619D01*
X165361809Y-80751857D01*
X165361809Y-80847095D01*
X165314190Y-80989952D01*
X164742761Y-81561380D01*
X165361809Y-81561380D01*
X119927809Y-81561380D02*
X119927809Y-80561380D01*
X120975428Y-81466142D02*
X120927809Y-81513761D01*
X120784952Y-81561380D01*
X120689714Y-81561380D01*
X120546857Y-81513761D01*
X120451619Y-81418523D01*
X120404000Y-81323285D01*
X120356380Y-81132809D01*
X120356380Y-80989952D01*
X120404000Y-80799476D01*
X120451619Y-80704238D01*
X120546857Y-80609000D01*
X120689714Y-80561380D01*
X120784952Y-80561380D01*
X120927809Y-80609000D01*
X120975428Y-80656619D01*
X121927809Y-81561380D02*
X121356380Y-81561380D01*
X121642095Y-81561380D02*
X121642095Y-80561380D01*
X121546857Y-80704238D01*
X121451619Y-80799476D01*
X121356380Y-80847095D01*
X123340904Y-106497380D02*
X123340904Y-105497380D01*
X123579000Y-105497380D01*
X123721857Y-105545000D01*
X123817095Y-105640238D01*
X123864714Y-105735476D01*
X123912333Y-105925952D01*
X123912333Y-106068809D01*
X123864714Y-106259285D01*
X123817095Y-106354523D01*
X123721857Y-106449761D01*
X123579000Y-106497380D01*
X123340904Y-106497380D01*
X124293285Y-105592619D02*
X124340904Y-105545000D01*
X124436142Y-105497380D01*
X124674238Y-105497380D01*
X124769476Y-105545000D01*
X124817095Y-105592619D01*
X124864714Y-105687857D01*
X124864714Y-105783095D01*
X124817095Y-105925952D01*
X124245666Y-106497380D01*
X124864714Y-106497380D01*
D13*
X123757571Y-100556190D02*
X123519476Y-100556190D01*
X123519476Y-100056190D01*
X123924238Y-100294285D02*
X124090904Y-100294285D01*
X124162333Y-100556190D02*
X123924238Y-100556190D01*
X123924238Y-100056190D01*
X124162333Y-100056190D01*
X124376619Y-100556190D02*
X124376619Y-100056190D01*
X124495666Y-100056190D01*
X124567095Y-100080000D01*
X124614714Y-100127619D01*
X124638523Y-100175238D01*
X124662333Y-100270476D01*
X124662333Y-100341904D01*
X124638523Y-100437142D01*
X124614714Y-100484761D01*
X124567095Y-100532380D01*
X124495666Y-100556190D01*
X124376619Y-100556190D01*
D10*
X157987666Y-80500380D02*
X157987666Y-81214666D01*
X157940047Y-81357523D01*
X157844809Y-81452761D01*
X157701952Y-81500380D01*
X157606714Y-81500380D01*
X158416238Y-80595619D02*
X158463857Y-80548000D01*
X158559095Y-80500380D01*
X158797190Y-80500380D01*
X158892428Y-80548000D01*
X158940047Y-80595619D01*
X158987666Y-80690857D01*
X158987666Y-80786095D01*
X158940047Y-80928952D01*
X158368619Y-81500380D01*
X158987666Y-81500380D01*
X168644666Y-107494380D02*
X168644666Y-108208666D01*
X168597047Y-108351523D01*
X168501809Y-108446761D01*
X168358952Y-108494380D01*
X168263714Y-108494380D01*
X169025619Y-107494380D02*
X169644666Y-107494380D01*
X169311333Y-107875333D01*
X169454190Y-107875333D01*
X169549428Y-107922952D01*
X169597047Y-107970571D01*
X169644666Y-108065809D01*
X169644666Y-108303904D01*
X169597047Y-108399142D01*
X169549428Y-108446761D01*
X169454190Y-108494380D01*
X169168476Y-108494380D01*
X169073238Y-108446761D01*
X169025619Y-108399142D01*
M02*
