G04 #@! TF.GenerationSoftware,KiCad,Pcbnew,(5.1.0-0)*
G04 #@! TF.CreationDate,2019-03-15T08:32:39-07:00*
G04 #@! TF.ProjectId,unijoysticle,756e696a-6f79-4737-9469-636c652e6b69,rev?*
G04 #@! TF.SameCoordinates,Original*
G04 #@! TF.FileFunction,Soldermask,Bot*
G04 #@! TF.FilePolarity,Negative*
%FSLAX46Y46*%
G04 Gerber Fmt 4.6, Leading zero omitted, Abs format (unit mm)*
G04 Created by KiCad (PCBNEW (5.1.0-0)) date 2019-03-15 08:32:39*
%MOMM*%
%LPD*%
G04 APERTURE LIST*
%ADD10C,0.100000*%
G04 APERTURE END LIST*
D10*
G36*
X119580200Y-113207402D02*
G01*
X119651091Y-113221503D01*
X119734071Y-113255875D01*
X119851423Y-113304483D01*
X119851424Y-113304484D01*
X120031719Y-113424953D01*
X120185047Y-113578281D01*
X120223351Y-113635607D01*
X120305517Y-113758577D01*
X120331932Y-113822350D01*
X120355376Y-113878947D01*
X120388497Y-113958910D01*
X120430800Y-114171579D01*
X120430800Y-114388421D01*
X120388497Y-114601090D01*
X120305517Y-114801423D01*
X120245691Y-114890959D01*
X120185047Y-114981719D01*
X120031719Y-115135047D01*
X119940959Y-115195691D01*
X119851423Y-115255517D01*
X119734071Y-115304125D01*
X119651091Y-115338497D01*
X119580200Y-115352598D01*
X119438421Y-115380800D01*
X119221579Y-115380800D01*
X119079800Y-115352598D01*
X119008909Y-115338497D01*
X118925929Y-115304125D01*
X118808577Y-115255517D01*
X118719041Y-115195691D01*
X118628281Y-115135047D01*
X118474953Y-114981719D01*
X118414309Y-114890959D01*
X118354483Y-114801423D01*
X118271503Y-114601090D01*
X118229200Y-114388421D01*
X118229200Y-114171579D01*
X118271503Y-113958910D01*
X118304625Y-113878947D01*
X118328068Y-113822350D01*
X118354483Y-113758577D01*
X118436649Y-113635607D01*
X118474953Y-113578281D01*
X118628281Y-113424953D01*
X118808576Y-113304484D01*
X118808577Y-113304483D01*
X118925929Y-113255875D01*
X119008909Y-113221503D01*
X119079800Y-113207402D01*
X119221579Y-113179200D01*
X119438421Y-113179200D01*
X119580200Y-113207402D01*
X119580200Y-113207402D01*
G37*
G36*
X157505400Y-114833400D02*
G01*
X155422600Y-114833400D01*
X155422600Y-112750600D01*
X157505400Y-112750600D01*
X157505400Y-114833400D01*
X157505400Y-114833400D01*
G37*
G36*
X154227765Y-112790620D02*
G01*
X154417288Y-112869123D01*
X154587854Y-112983092D01*
X154732908Y-113128146D01*
X154801599Y-113230949D01*
X154846878Y-113298714D01*
X154925380Y-113488235D01*
X154965400Y-113689430D01*
X154965400Y-113894570D01*
X154953221Y-113955800D01*
X154925380Y-114095765D01*
X154846877Y-114285288D01*
X154732908Y-114455854D01*
X154587854Y-114600908D01*
X154417288Y-114714877D01*
X154417287Y-114714878D01*
X154417286Y-114714878D01*
X154227765Y-114793380D01*
X154026570Y-114833400D01*
X153821430Y-114833400D01*
X153620235Y-114793380D01*
X153430714Y-114714878D01*
X153430713Y-114714878D01*
X153430712Y-114714877D01*
X153260146Y-114600908D01*
X153115092Y-114455854D01*
X153001123Y-114285288D01*
X152922620Y-114095765D01*
X152894779Y-113955800D01*
X152882600Y-113894570D01*
X152882600Y-113689430D01*
X152922620Y-113488235D01*
X153001122Y-113298714D01*
X153046401Y-113230949D01*
X153115092Y-113128146D01*
X153260146Y-112983092D01*
X153430712Y-112869123D01*
X153620235Y-112790620D01*
X153821430Y-112750600D01*
X154026570Y-112750600D01*
X154227765Y-112790620D01*
X154227765Y-112790620D01*
G37*
G36*
X132105400Y-114833400D02*
G01*
X130022600Y-114833400D01*
X130022600Y-112750600D01*
X132105400Y-112750600D01*
X132105400Y-114833400D01*
X132105400Y-114833400D01*
G37*
G36*
X128827765Y-112790620D02*
G01*
X129017288Y-112869123D01*
X129187854Y-112983092D01*
X129332908Y-113128146D01*
X129401599Y-113230949D01*
X129446878Y-113298714D01*
X129525380Y-113488235D01*
X129565400Y-113689430D01*
X129565400Y-113894570D01*
X129553221Y-113955800D01*
X129525380Y-114095765D01*
X129446877Y-114285288D01*
X129332908Y-114455854D01*
X129187854Y-114600908D01*
X129017288Y-114714877D01*
X129017287Y-114714878D01*
X129017286Y-114714878D01*
X128827765Y-114793380D01*
X128626570Y-114833400D01*
X128421430Y-114833400D01*
X128220235Y-114793380D01*
X128030714Y-114714878D01*
X128030713Y-114714878D01*
X128030712Y-114714877D01*
X127860146Y-114600908D01*
X127715092Y-114455854D01*
X127601123Y-114285288D01*
X127522620Y-114095765D01*
X127494779Y-113955800D01*
X127482600Y-113894570D01*
X127482600Y-113689430D01*
X127522620Y-113488235D01*
X127601122Y-113298714D01*
X127646401Y-113230949D01*
X127715092Y-113128146D01*
X127860146Y-112983092D01*
X128030712Y-112869123D01*
X128220235Y-112790620D01*
X128421430Y-112750600D01*
X128626570Y-112750600D01*
X128827765Y-112790620D01*
X128827765Y-112790620D01*
G37*
G36*
X117050425Y-112127919D02*
G01*
X117110046Y-112139778D01*
X117278531Y-112209566D01*
X117430163Y-112310884D01*
X117559116Y-112439837D01*
X117660434Y-112591469D01*
X117726347Y-112750600D01*
X117730222Y-112759955D01*
X117765638Y-112938000D01*
X117765800Y-112938817D01*
X117765800Y-113121183D01*
X117730222Y-113300046D01*
X117660434Y-113468531D01*
X117559116Y-113620163D01*
X117430163Y-113749116D01*
X117278531Y-113850434D01*
X117110046Y-113920222D01*
X117050425Y-113932081D01*
X116931185Y-113955800D01*
X116748815Y-113955800D01*
X116629575Y-113932081D01*
X116569954Y-113920222D01*
X116401469Y-113850434D01*
X116249837Y-113749116D01*
X116120884Y-113620163D01*
X116019566Y-113468531D01*
X115949778Y-113300046D01*
X115914200Y-113121183D01*
X115914200Y-112938817D01*
X115914363Y-112938000D01*
X115949778Y-112759955D01*
X115953653Y-112750600D01*
X116019566Y-112591469D01*
X116120884Y-112439837D01*
X116249837Y-112310884D01*
X116401469Y-112209566D01*
X116569954Y-112139778D01*
X116629575Y-112127919D01*
X116748815Y-112104200D01*
X116931185Y-112104200D01*
X117050425Y-112127919D01*
X117050425Y-112127919D01*
G37*
G36*
X125694999Y-112435052D02*
G01*
X125831639Y-112491650D01*
X125954605Y-112573813D01*
X126059187Y-112678395D01*
X126141350Y-112801361D01*
X126197948Y-112938001D01*
X126226800Y-113083051D01*
X126226800Y-113230949D01*
X126197948Y-113375999D01*
X126141350Y-113512639D01*
X126059187Y-113635605D01*
X125954605Y-113740187D01*
X125831639Y-113822350D01*
X125694999Y-113878948D01*
X125549949Y-113907800D01*
X125402051Y-113907800D01*
X125257001Y-113878948D01*
X125120361Y-113822350D01*
X124997395Y-113740187D01*
X124892813Y-113635605D01*
X124810650Y-113512639D01*
X124754052Y-113375999D01*
X124725200Y-113230949D01*
X124725200Y-113083051D01*
X124754052Y-112938001D01*
X124810650Y-112801361D01*
X124892813Y-112678395D01*
X124997395Y-112573813D01*
X125120361Y-112491650D01*
X125257001Y-112435052D01*
X125402051Y-112406200D01*
X125549949Y-112406200D01*
X125694999Y-112435052D01*
X125694999Y-112435052D01*
G37*
G36*
X123027999Y-112435052D02*
G01*
X123164639Y-112491650D01*
X123287605Y-112573813D01*
X123392187Y-112678395D01*
X123474350Y-112801361D01*
X123530948Y-112938001D01*
X123559800Y-113083051D01*
X123559800Y-113230949D01*
X123530948Y-113375999D01*
X123474350Y-113512639D01*
X123392187Y-113635605D01*
X123287605Y-113740187D01*
X123164639Y-113822350D01*
X123027999Y-113878948D01*
X122882949Y-113907800D01*
X122735051Y-113907800D01*
X122590001Y-113878948D01*
X122453361Y-113822350D01*
X122330395Y-113740187D01*
X122225813Y-113635605D01*
X122143650Y-113512639D01*
X122087052Y-113375999D01*
X122058200Y-113230949D01*
X122058200Y-113083051D01*
X122087052Y-112938001D01*
X122143650Y-112801361D01*
X122225813Y-112678395D01*
X122330395Y-112573813D01*
X122453361Y-112491650D01*
X122590001Y-112435052D01*
X122735051Y-112406200D01*
X122882949Y-112406200D01*
X123027999Y-112435052D01*
X123027999Y-112435052D01*
G37*
G36*
X162328800Y-112544800D02*
G01*
X158727200Y-112544800D01*
X158727200Y-108943200D01*
X162328800Y-108943200D01*
X162328800Y-112544800D01*
X162328800Y-112544800D01*
G37*
G36*
X167504860Y-108957491D02*
G01*
X167638487Y-108998026D01*
X167761629Y-109063847D01*
X167869569Y-109152431D01*
X167958153Y-109260371D01*
X168023974Y-109383513D01*
X168064509Y-109517140D01*
X168078800Y-109662240D01*
X168078800Y-111825760D01*
X168064509Y-111970860D01*
X168023974Y-112104487D01*
X167958153Y-112227629D01*
X167869569Y-112335569D01*
X167761629Y-112424153D01*
X167638487Y-112489974D01*
X167504860Y-112530509D01*
X167359760Y-112544800D01*
X165696240Y-112544800D01*
X165551140Y-112530509D01*
X165417513Y-112489974D01*
X165294371Y-112424153D01*
X165186431Y-112335569D01*
X165097847Y-112227629D01*
X165032026Y-112104487D01*
X164991491Y-111970860D01*
X164977200Y-111825760D01*
X164977200Y-109662240D01*
X164991491Y-109517140D01*
X165032026Y-109383513D01*
X165097847Y-109260371D01*
X165186431Y-109152431D01*
X165294371Y-109063847D01*
X165417513Y-108998026D01*
X165551140Y-108957491D01*
X165696240Y-108943200D01*
X167359760Y-108943200D01*
X167504860Y-108957491D01*
X167504860Y-108957491D01*
G37*
G36*
X156767765Y-110250620D02*
G01*
X156957288Y-110329123D01*
X157127854Y-110443092D01*
X157272908Y-110588146D01*
X157386877Y-110758712D01*
X157465380Y-110948235D01*
X157505400Y-111149431D01*
X157505400Y-111354569D01*
X157465380Y-111555765D01*
X157386877Y-111745288D01*
X157272908Y-111915854D01*
X157127854Y-112060908D01*
X156957288Y-112174877D01*
X156957287Y-112174878D01*
X156957286Y-112174878D01*
X156767765Y-112253380D01*
X156566570Y-112293400D01*
X156361430Y-112293400D01*
X156160235Y-112253380D01*
X155970714Y-112174878D01*
X155970713Y-112174878D01*
X155970712Y-112174877D01*
X155800146Y-112060908D01*
X155655092Y-111915854D01*
X155541123Y-111745288D01*
X155462620Y-111555765D01*
X155422600Y-111354569D01*
X155422600Y-111149431D01*
X155462620Y-110948235D01*
X155541123Y-110758712D01*
X155655092Y-110588146D01*
X155800146Y-110443092D01*
X155970712Y-110329123D01*
X156160235Y-110250620D01*
X156361430Y-110210600D01*
X156566570Y-110210600D01*
X156767765Y-110250620D01*
X156767765Y-110250620D01*
G37*
G36*
X154227765Y-110250620D02*
G01*
X154417288Y-110329123D01*
X154587854Y-110443092D01*
X154732908Y-110588146D01*
X154846877Y-110758712D01*
X154925380Y-110948235D01*
X154965400Y-111149431D01*
X154965400Y-111354569D01*
X154925380Y-111555765D01*
X154846877Y-111745288D01*
X154732908Y-111915854D01*
X154587854Y-112060908D01*
X154417288Y-112174877D01*
X154417287Y-112174878D01*
X154417286Y-112174878D01*
X154227765Y-112253380D01*
X154026570Y-112293400D01*
X153821430Y-112293400D01*
X153620235Y-112253380D01*
X153430714Y-112174878D01*
X153430713Y-112174878D01*
X153430712Y-112174877D01*
X153260146Y-112060908D01*
X153115092Y-111915854D01*
X153001123Y-111745288D01*
X152922620Y-111555765D01*
X152882600Y-111354569D01*
X152882600Y-111149431D01*
X152922620Y-110948235D01*
X153001123Y-110758712D01*
X153115092Y-110588146D01*
X153260146Y-110443092D01*
X153430712Y-110329123D01*
X153620235Y-110250620D01*
X153821430Y-110210600D01*
X154026570Y-110210600D01*
X154227765Y-110250620D01*
X154227765Y-110250620D01*
G37*
G36*
X131367765Y-110250620D02*
G01*
X131557288Y-110329123D01*
X131727854Y-110443092D01*
X131872908Y-110588146D01*
X131986877Y-110758712D01*
X132065380Y-110948235D01*
X132105400Y-111149431D01*
X132105400Y-111354569D01*
X132065380Y-111555765D01*
X131986877Y-111745288D01*
X131872908Y-111915854D01*
X131727854Y-112060908D01*
X131557288Y-112174877D01*
X131557287Y-112174878D01*
X131557286Y-112174878D01*
X131367765Y-112253380D01*
X131166570Y-112293400D01*
X130961430Y-112293400D01*
X130760235Y-112253380D01*
X130570714Y-112174878D01*
X130570713Y-112174878D01*
X130570712Y-112174877D01*
X130400146Y-112060908D01*
X130255092Y-111915854D01*
X130141123Y-111745288D01*
X130062620Y-111555765D01*
X130022600Y-111354569D01*
X130022600Y-111149431D01*
X130062620Y-110948235D01*
X130141123Y-110758712D01*
X130255092Y-110588146D01*
X130400146Y-110443092D01*
X130570712Y-110329123D01*
X130760235Y-110250620D01*
X130961430Y-110210600D01*
X131166570Y-110210600D01*
X131367765Y-110250620D01*
X131367765Y-110250620D01*
G37*
G36*
X128827765Y-110250620D02*
G01*
X129017288Y-110329123D01*
X129187854Y-110443092D01*
X129332908Y-110588146D01*
X129446877Y-110758712D01*
X129525380Y-110948235D01*
X129565400Y-111149431D01*
X129565400Y-111354569D01*
X129525380Y-111555765D01*
X129446877Y-111745288D01*
X129332908Y-111915854D01*
X129187854Y-112060908D01*
X129017288Y-112174877D01*
X129017287Y-112174878D01*
X129017286Y-112174878D01*
X128827765Y-112253380D01*
X128626570Y-112293400D01*
X128421430Y-112293400D01*
X128220235Y-112253380D01*
X128030714Y-112174878D01*
X128030713Y-112174878D01*
X128030712Y-112174877D01*
X127860146Y-112060908D01*
X127715092Y-111915854D01*
X127601123Y-111745288D01*
X127522620Y-111555765D01*
X127482600Y-111354569D01*
X127482600Y-111149431D01*
X127522620Y-110948235D01*
X127601123Y-110758712D01*
X127715092Y-110588146D01*
X127860146Y-110443092D01*
X128030712Y-110329123D01*
X128220235Y-110250620D01*
X128421430Y-110210600D01*
X128626570Y-110210600D01*
X128827765Y-110250620D01*
X128827765Y-110250620D01*
G37*
G36*
X128827765Y-107710620D02*
G01*
X129015280Y-107788291D01*
X129017288Y-107789123D01*
X129187854Y-107903092D01*
X129332908Y-108048146D01*
X129384292Y-108125048D01*
X129446878Y-108218714D01*
X129507765Y-108365709D01*
X129525380Y-108408235D01*
X129565400Y-108609431D01*
X129565400Y-108814569D01*
X129525380Y-109015765D01*
X129446877Y-109205288D01*
X129332908Y-109375854D01*
X129187854Y-109520908D01*
X129017288Y-109634877D01*
X129017287Y-109634878D01*
X129017286Y-109634878D01*
X128827765Y-109713380D01*
X128626570Y-109753400D01*
X128421430Y-109753400D01*
X128220235Y-109713380D01*
X128030714Y-109634878D01*
X128030713Y-109634878D01*
X128030712Y-109634877D01*
X127860146Y-109520908D01*
X127715092Y-109375854D01*
X127601123Y-109205288D01*
X127522620Y-109015765D01*
X127482600Y-108814569D01*
X127482600Y-108609431D01*
X127522620Y-108408235D01*
X127540235Y-108365709D01*
X127601122Y-108218714D01*
X127663708Y-108125048D01*
X127715092Y-108048146D01*
X127860146Y-107903092D01*
X128030712Y-107789123D01*
X128032721Y-107788291D01*
X128220235Y-107710620D01*
X128421430Y-107670600D01*
X128626570Y-107670600D01*
X128827765Y-107710620D01*
X128827765Y-107710620D01*
G37*
G36*
X131367765Y-107710620D02*
G01*
X131555280Y-107788291D01*
X131557288Y-107789123D01*
X131727854Y-107903092D01*
X131872908Y-108048146D01*
X131924292Y-108125048D01*
X131986878Y-108218714D01*
X132047765Y-108365709D01*
X132065380Y-108408235D01*
X132105400Y-108609431D01*
X132105400Y-108814569D01*
X132065380Y-109015765D01*
X131986877Y-109205288D01*
X131872908Y-109375854D01*
X131727854Y-109520908D01*
X131557288Y-109634877D01*
X131557287Y-109634878D01*
X131557286Y-109634878D01*
X131367765Y-109713380D01*
X131166570Y-109753400D01*
X130961430Y-109753400D01*
X130760235Y-109713380D01*
X130570714Y-109634878D01*
X130570713Y-109634878D01*
X130570712Y-109634877D01*
X130400146Y-109520908D01*
X130255092Y-109375854D01*
X130141123Y-109205288D01*
X130062620Y-109015765D01*
X130022600Y-108814569D01*
X130022600Y-108609431D01*
X130062620Y-108408235D01*
X130080235Y-108365709D01*
X130141122Y-108218714D01*
X130203708Y-108125048D01*
X130255092Y-108048146D01*
X130400146Y-107903092D01*
X130570712Y-107789123D01*
X130572721Y-107788291D01*
X130760235Y-107710620D01*
X130961430Y-107670600D01*
X131166570Y-107670600D01*
X131367765Y-107710620D01*
X131367765Y-107710620D01*
G37*
G36*
X154227765Y-107710620D02*
G01*
X154415280Y-107788291D01*
X154417288Y-107789123D01*
X154587854Y-107903092D01*
X154732908Y-108048146D01*
X154784292Y-108125048D01*
X154846878Y-108218714D01*
X154907765Y-108365709D01*
X154925380Y-108408235D01*
X154965400Y-108609431D01*
X154965400Y-108814569D01*
X154925380Y-109015765D01*
X154846877Y-109205288D01*
X154732908Y-109375854D01*
X154587854Y-109520908D01*
X154417288Y-109634877D01*
X154417287Y-109634878D01*
X154417286Y-109634878D01*
X154227765Y-109713380D01*
X154026570Y-109753400D01*
X153821430Y-109753400D01*
X153620235Y-109713380D01*
X153430714Y-109634878D01*
X153430713Y-109634878D01*
X153430712Y-109634877D01*
X153260146Y-109520908D01*
X153115092Y-109375854D01*
X153001123Y-109205288D01*
X152922620Y-109015765D01*
X152882600Y-108814569D01*
X152882600Y-108609431D01*
X152922620Y-108408235D01*
X152940235Y-108365709D01*
X153001122Y-108218714D01*
X153063708Y-108125048D01*
X153115092Y-108048146D01*
X153260146Y-107903092D01*
X153430712Y-107789123D01*
X153432721Y-107788291D01*
X153620235Y-107710620D01*
X153821430Y-107670600D01*
X154026570Y-107670600D01*
X154227765Y-107710620D01*
X154227765Y-107710620D01*
G37*
G36*
X156767765Y-107710620D02*
G01*
X156955280Y-107788291D01*
X156957288Y-107789123D01*
X157127854Y-107903092D01*
X157272908Y-108048146D01*
X157324292Y-108125048D01*
X157386878Y-108218714D01*
X157447765Y-108365709D01*
X157465380Y-108408235D01*
X157505400Y-108609431D01*
X157505400Y-108814569D01*
X157465380Y-109015765D01*
X157386877Y-109205288D01*
X157272908Y-109375854D01*
X157127854Y-109520908D01*
X156957288Y-109634877D01*
X156957287Y-109634878D01*
X156957286Y-109634878D01*
X156767765Y-109713380D01*
X156566570Y-109753400D01*
X156361430Y-109753400D01*
X156160235Y-109713380D01*
X155970714Y-109634878D01*
X155970713Y-109634878D01*
X155970712Y-109634877D01*
X155800146Y-109520908D01*
X155655092Y-109375854D01*
X155541123Y-109205288D01*
X155462620Y-109015765D01*
X155422600Y-108814569D01*
X155422600Y-108609431D01*
X155462620Y-108408235D01*
X155480235Y-108365709D01*
X155541122Y-108218714D01*
X155603708Y-108125048D01*
X155655092Y-108048146D01*
X155800146Y-107903092D01*
X155970712Y-107789123D01*
X155972721Y-107788291D01*
X156160235Y-107710620D01*
X156361430Y-107670600D01*
X156566570Y-107670600D01*
X156767765Y-107710620D01*
X156767765Y-107710620D01*
G37*
G36*
X117050425Y-107627919D02*
G01*
X117110046Y-107639778D01*
X117278531Y-107709566D01*
X117430163Y-107810884D01*
X117559116Y-107939837D01*
X117660434Y-108091469D01*
X117724242Y-108245517D01*
X117730222Y-108259955D01*
X117765800Y-108438815D01*
X117765800Y-108621185D01*
X117742081Y-108740425D01*
X117730222Y-108800046D01*
X117660434Y-108968531D01*
X117559116Y-109120163D01*
X117430163Y-109249116D01*
X117278531Y-109350434D01*
X117110046Y-109420222D01*
X117050425Y-109432081D01*
X116931185Y-109455800D01*
X116748815Y-109455800D01*
X116629575Y-109432081D01*
X116569954Y-109420222D01*
X116401469Y-109350434D01*
X116249837Y-109249116D01*
X116120884Y-109120163D01*
X116019566Y-108968531D01*
X115949778Y-108800046D01*
X115937919Y-108740425D01*
X115914200Y-108621185D01*
X115914200Y-108438815D01*
X115949778Y-108259955D01*
X115955758Y-108245517D01*
X116019566Y-108091469D01*
X116120884Y-107939837D01*
X116249837Y-107810884D01*
X116401469Y-107709566D01*
X116569954Y-107639778D01*
X116629575Y-107627919D01*
X116748815Y-107604200D01*
X116931185Y-107604200D01*
X117050425Y-107627919D01*
X117050425Y-107627919D01*
G37*
G36*
X122901029Y-107331632D02*
G01*
X122956182Y-107337064D01*
X123097709Y-107379996D01*
X123097711Y-107379997D01*
X123228139Y-107449712D01*
X123342464Y-107543536D01*
X123436288Y-107657861D01*
X123460461Y-107703086D01*
X123506004Y-107788291D01*
X123548936Y-107929818D01*
X123563432Y-108077000D01*
X123548936Y-108224182D01*
X123538085Y-108259954D01*
X123506003Y-108365711D01*
X123436288Y-108496139D01*
X123342464Y-108610464D01*
X123228139Y-108704288D01*
X123097711Y-108774003D01*
X123097709Y-108774004D01*
X122956182Y-108816936D01*
X122845878Y-108827800D01*
X122772122Y-108827800D01*
X122661818Y-108816936D01*
X122520291Y-108774004D01*
X122520289Y-108774003D01*
X122389861Y-108704288D01*
X122275536Y-108610464D01*
X122181712Y-108496139D01*
X122111997Y-108365711D01*
X122079916Y-108259954D01*
X122069064Y-108224182D01*
X122054568Y-108077000D01*
X122069064Y-107929818D01*
X122111996Y-107788291D01*
X122157539Y-107703086D01*
X122181712Y-107657861D01*
X122275536Y-107543536D01*
X122389861Y-107449712D01*
X122520289Y-107379997D01*
X122520291Y-107379996D01*
X122661818Y-107337064D01*
X122716971Y-107331632D01*
X122772122Y-107326200D01*
X122845878Y-107326200D01*
X122901029Y-107331632D01*
X122901029Y-107331632D01*
G37*
G36*
X125568029Y-107331632D02*
G01*
X125623182Y-107337064D01*
X125764709Y-107379996D01*
X125764711Y-107379997D01*
X125895139Y-107449712D01*
X126009464Y-107543536D01*
X126103288Y-107657861D01*
X126127461Y-107703086D01*
X126173004Y-107788291D01*
X126215936Y-107929818D01*
X126230432Y-108077000D01*
X126215936Y-108224182D01*
X126205085Y-108259954D01*
X126173003Y-108365711D01*
X126103288Y-108496139D01*
X126009464Y-108610464D01*
X125895139Y-108704288D01*
X125764711Y-108774003D01*
X125764709Y-108774004D01*
X125623182Y-108816936D01*
X125512878Y-108827800D01*
X125439122Y-108827800D01*
X125328818Y-108816936D01*
X125187291Y-108774004D01*
X125187289Y-108774003D01*
X125056861Y-108704288D01*
X124942536Y-108610464D01*
X124848712Y-108496139D01*
X124778997Y-108365711D01*
X124746916Y-108259954D01*
X124736064Y-108224182D01*
X124721568Y-108077000D01*
X124736064Y-107929818D01*
X124778996Y-107788291D01*
X124824539Y-107703086D01*
X124848712Y-107657861D01*
X124942536Y-107543536D01*
X125056861Y-107449712D01*
X125187289Y-107379997D01*
X125187291Y-107379996D01*
X125328818Y-107337064D01*
X125383971Y-107331632D01*
X125439122Y-107326200D01*
X125512878Y-107326200D01*
X125568029Y-107331632D01*
X125568029Y-107331632D01*
G37*
G36*
X119580200Y-106197402D02*
G01*
X119651091Y-106211503D01*
X119734071Y-106245875D01*
X119851423Y-106294483D01*
X119851424Y-106294484D01*
X120031719Y-106414953D01*
X120185047Y-106568281D01*
X120185048Y-106568283D01*
X120305517Y-106748577D01*
X120388497Y-106948910D01*
X120430800Y-107161579D01*
X120430800Y-107378421D01*
X120417629Y-107444635D01*
X120388497Y-107591091D01*
X120383067Y-107604200D01*
X120305517Y-107791423D01*
X120245691Y-107880959D01*
X120185047Y-107971719D01*
X120031719Y-108125047D01*
X119940959Y-108185691D01*
X119851423Y-108245517D01*
X119734071Y-108294125D01*
X119651091Y-108328497D01*
X119580200Y-108342598D01*
X119438421Y-108370800D01*
X119221579Y-108370800D01*
X119079800Y-108342598D01*
X119008909Y-108328497D01*
X118925929Y-108294125D01*
X118808577Y-108245517D01*
X118719041Y-108185691D01*
X118628281Y-108125047D01*
X118474953Y-107971719D01*
X118414309Y-107880959D01*
X118354483Y-107791423D01*
X118276933Y-107604200D01*
X118271503Y-107591091D01*
X118242371Y-107444635D01*
X118229200Y-107378421D01*
X118229200Y-107161579D01*
X118271503Y-106948910D01*
X118354483Y-106748577D01*
X118474952Y-106568283D01*
X118474953Y-106568281D01*
X118628281Y-106414953D01*
X118808576Y-106294484D01*
X118808577Y-106294483D01*
X118925929Y-106245875D01*
X119008909Y-106211503D01*
X119079800Y-106197402D01*
X119221579Y-106169200D01*
X119438421Y-106169200D01*
X119580200Y-106197402D01*
X119580200Y-106197402D01*
G37*
G36*
X164654246Y-104259893D02*
G01*
X164811321Y-104307541D01*
X164956075Y-104384914D01*
X165082957Y-104489043D01*
X165187086Y-104615925D01*
X165264459Y-104760679D01*
X165312107Y-104917754D01*
X165328800Y-105087240D01*
X165328800Y-107000760D01*
X165312107Y-107170246D01*
X165264459Y-107327321D01*
X165187086Y-107472075D01*
X165082957Y-107598957D01*
X164956075Y-107703086D01*
X164811321Y-107780459D01*
X164654246Y-107828107D01*
X164484760Y-107844800D01*
X162571240Y-107844800D01*
X162401754Y-107828107D01*
X162244679Y-107780459D01*
X162099925Y-107703086D01*
X161973043Y-107598957D01*
X161868914Y-107472075D01*
X161791541Y-107327321D01*
X161743893Y-107170246D01*
X161727200Y-107000760D01*
X161727200Y-105087240D01*
X161743893Y-104917754D01*
X161791541Y-104760679D01*
X161868914Y-104615925D01*
X161973043Y-104489043D01*
X162099925Y-104384914D01*
X162244679Y-104307541D01*
X162401754Y-104259893D01*
X162571240Y-104243200D01*
X164484760Y-104243200D01*
X164654246Y-104259893D01*
X164654246Y-104259893D01*
G37*
G36*
X156767765Y-105170620D02*
G01*
X156957288Y-105249123D01*
X157127854Y-105363092D01*
X157272908Y-105508146D01*
X157386877Y-105678712D01*
X157465380Y-105868235D01*
X157505400Y-106069431D01*
X157505400Y-106274569D01*
X157465380Y-106475765D01*
X157386877Y-106665288D01*
X157272908Y-106835854D01*
X157127854Y-106980908D01*
X156957288Y-107094877D01*
X156957287Y-107094878D01*
X156957286Y-107094878D01*
X156767765Y-107173380D01*
X156566570Y-107213400D01*
X156361430Y-107213400D01*
X156160235Y-107173380D01*
X155970714Y-107094878D01*
X155970713Y-107094878D01*
X155970712Y-107094877D01*
X155800146Y-106980908D01*
X155655092Y-106835854D01*
X155541123Y-106665288D01*
X155462620Y-106475765D01*
X155422600Y-106274569D01*
X155422600Y-106069431D01*
X155462620Y-105868235D01*
X155541123Y-105678712D01*
X155655092Y-105508146D01*
X155800146Y-105363092D01*
X155970712Y-105249123D01*
X156160235Y-105170620D01*
X156361430Y-105130600D01*
X156566570Y-105130600D01*
X156767765Y-105170620D01*
X156767765Y-105170620D01*
G37*
G36*
X154227765Y-105170620D02*
G01*
X154417288Y-105249123D01*
X154587854Y-105363092D01*
X154732908Y-105508146D01*
X154846877Y-105678712D01*
X154925380Y-105868235D01*
X154965400Y-106069431D01*
X154965400Y-106274569D01*
X154925380Y-106475765D01*
X154846877Y-106665288D01*
X154732908Y-106835854D01*
X154587854Y-106980908D01*
X154417288Y-107094877D01*
X154417287Y-107094878D01*
X154417286Y-107094878D01*
X154227765Y-107173380D01*
X154026570Y-107213400D01*
X153821430Y-107213400D01*
X153620235Y-107173380D01*
X153430714Y-107094878D01*
X153430713Y-107094878D01*
X153430712Y-107094877D01*
X153260146Y-106980908D01*
X153115092Y-106835854D01*
X153001123Y-106665288D01*
X152922620Y-106475765D01*
X152882600Y-106274569D01*
X152882600Y-106069431D01*
X152922620Y-105868235D01*
X153001123Y-105678712D01*
X153115092Y-105508146D01*
X153260146Y-105363092D01*
X153430712Y-105249123D01*
X153620235Y-105170620D01*
X153821430Y-105130600D01*
X154026570Y-105130600D01*
X154227765Y-105170620D01*
X154227765Y-105170620D01*
G37*
G36*
X131367765Y-105170620D02*
G01*
X131557288Y-105249123D01*
X131727854Y-105363092D01*
X131872908Y-105508146D01*
X131986877Y-105678712D01*
X132065380Y-105868235D01*
X132105400Y-106069431D01*
X132105400Y-106274569D01*
X132065380Y-106475765D01*
X131986877Y-106665288D01*
X131872908Y-106835854D01*
X131727854Y-106980908D01*
X131557288Y-107094877D01*
X131557287Y-107094878D01*
X131557286Y-107094878D01*
X131367765Y-107173380D01*
X131166570Y-107213400D01*
X130961430Y-107213400D01*
X130760235Y-107173380D01*
X130570714Y-107094878D01*
X130570713Y-107094878D01*
X130570712Y-107094877D01*
X130400146Y-106980908D01*
X130255092Y-106835854D01*
X130141123Y-106665288D01*
X130062620Y-106475765D01*
X130022600Y-106274569D01*
X130022600Y-106069431D01*
X130062620Y-105868235D01*
X130141123Y-105678712D01*
X130255092Y-105508146D01*
X130400146Y-105363092D01*
X130570712Y-105249123D01*
X130760235Y-105170620D01*
X130961430Y-105130600D01*
X131166570Y-105130600D01*
X131367765Y-105170620D01*
X131367765Y-105170620D01*
G37*
G36*
X128827765Y-105170620D02*
G01*
X129017288Y-105249123D01*
X129187854Y-105363092D01*
X129332908Y-105508146D01*
X129446877Y-105678712D01*
X129525380Y-105868235D01*
X129565400Y-106069431D01*
X129565400Y-106274569D01*
X129525380Y-106475765D01*
X129446877Y-106665288D01*
X129332908Y-106835854D01*
X129187854Y-106980908D01*
X129017288Y-107094877D01*
X129017287Y-107094878D01*
X129017286Y-107094878D01*
X128827765Y-107173380D01*
X128626570Y-107213400D01*
X128421430Y-107213400D01*
X128220235Y-107173380D01*
X128030714Y-107094878D01*
X128030713Y-107094878D01*
X128030712Y-107094877D01*
X127860146Y-106980908D01*
X127715092Y-106835854D01*
X127601123Y-106665288D01*
X127522620Y-106475765D01*
X127482600Y-106274569D01*
X127482600Y-106069431D01*
X127522620Y-105868235D01*
X127601123Y-105678712D01*
X127715092Y-105508146D01*
X127860146Y-105363092D01*
X128030712Y-105249123D01*
X128220235Y-105170620D01*
X128421430Y-105130600D01*
X128626570Y-105130600D01*
X128827765Y-105170620D01*
X128827765Y-105170620D01*
G37*
G36*
X125002800Y-105317800D02*
G01*
X122901200Y-105317800D01*
X122901200Y-103216200D01*
X125002800Y-103216200D01*
X125002800Y-105317800D01*
X125002800Y-105317800D01*
G37*
G36*
X119160800Y-105317800D02*
G01*
X117059200Y-105317800D01*
X117059200Y-103216200D01*
X119160800Y-103216200D01*
X119160800Y-105317800D01*
X119160800Y-105317800D01*
G37*
G36*
X156767765Y-102630620D02*
G01*
X156957288Y-102709123D01*
X157127854Y-102823092D01*
X157272908Y-102968146D01*
X157386877Y-103138712D01*
X157465380Y-103328235D01*
X157505400Y-103529431D01*
X157505400Y-103734569D01*
X157465380Y-103935765D01*
X157386877Y-104125288D01*
X157272908Y-104295854D01*
X157127854Y-104440908D01*
X156957288Y-104554877D01*
X156957287Y-104554878D01*
X156957286Y-104554878D01*
X156767765Y-104633380D01*
X156566570Y-104673400D01*
X156361430Y-104673400D01*
X156160235Y-104633380D01*
X155970714Y-104554878D01*
X155970713Y-104554878D01*
X155970712Y-104554877D01*
X155800146Y-104440908D01*
X155655092Y-104295854D01*
X155541123Y-104125288D01*
X155462620Y-103935765D01*
X155422600Y-103734569D01*
X155422600Y-103529431D01*
X155462620Y-103328235D01*
X155541123Y-103138712D01*
X155655092Y-102968146D01*
X155800146Y-102823092D01*
X155970712Y-102709123D01*
X156160235Y-102630620D01*
X156361430Y-102590600D01*
X156566570Y-102590600D01*
X156767765Y-102630620D01*
X156767765Y-102630620D01*
G37*
G36*
X154227765Y-102630620D02*
G01*
X154417288Y-102709123D01*
X154587854Y-102823092D01*
X154732908Y-102968146D01*
X154846877Y-103138712D01*
X154925380Y-103328235D01*
X154965400Y-103529431D01*
X154965400Y-103734569D01*
X154925380Y-103935765D01*
X154846877Y-104125288D01*
X154732908Y-104295854D01*
X154587854Y-104440908D01*
X154417288Y-104554877D01*
X154417287Y-104554878D01*
X154417286Y-104554878D01*
X154227765Y-104633380D01*
X154026570Y-104673400D01*
X153821430Y-104673400D01*
X153620235Y-104633380D01*
X153430714Y-104554878D01*
X153430713Y-104554878D01*
X153430712Y-104554877D01*
X153260146Y-104440908D01*
X153115092Y-104295854D01*
X153001123Y-104125288D01*
X152922620Y-103935765D01*
X152882600Y-103734569D01*
X152882600Y-103529431D01*
X152922620Y-103328235D01*
X153001123Y-103138712D01*
X153115092Y-102968146D01*
X153260146Y-102823092D01*
X153430712Y-102709123D01*
X153620235Y-102630620D01*
X153821430Y-102590600D01*
X154026570Y-102590600D01*
X154227765Y-102630620D01*
X154227765Y-102630620D01*
G37*
G36*
X131367765Y-102630620D02*
G01*
X131557288Y-102709123D01*
X131727854Y-102823092D01*
X131872908Y-102968146D01*
X131986877Y-103138712D01*
X132065380Y-103328235D01*
X132105400Y-103529431D01*
X132105400Y-103734569D01*
X132065380Y-103935765D01*
X131986877Y-104125288D01*
X131872908Y-104295854D01*
X131727854Y-104440908D01*
X131557288Y-104554877D01*
X131557287Y-104554878D01*
X131557286Y-104554878D01*
X131367765Y-104633380D01*
X131166570Y-104673400D01*
X130961430Y-104673400D01*
X130760235Y-104633380D01*
X130570714Y-104554878D01*
X130570713Y-104554878D01*
X130570712Y-104554877D01*
X130400146Y-104440908D01*
X130255092Y-104295854D01*
X130141123Y-104125288D01*
X130062620Y-103935765D01*
X130022600Y-103734569D01*
X130022600Y-103529431D01*
X130062620Y-103328235D01*
X130141123Y-103138712D01*
X130255092Y-102968146D01*
X130400146Y-102823092D01*
X130570712Y-102709123D01*
X130760235Y-102630620D01*
X130961430Y-102590600D01*
X131166570Y-102590600D01*
X131367765Y-102630620D01*
X131367765Y-102630620D01*
G37*
G36*
X128827765Y-102630620D02*
G01*
X129017288Y-102709123D01*
X129187854Y-102823092D01*
X129332908Y-102968146D01*
X129446877Y-103138712D01*
X129525380Y-103328235D01*
X129565400Y-103529431D01*
X129565400Y-103734569D01*
X129525380Y-103935765D01*
X129446877Y-104125288D01*
X129332908Y-104295854D01*
X129187854Y-104440908D01*
X129017288Y-104554877D01*
X129017287Y-104554878D01*
X129017286Y-104554878D01*
X128827765Y-104633380D01*
X128626570Y-104673400D01*
X128421430Y-104673400D01*
X128220235Y-104633380D01*
X128030714Y-104554878D01*
X128030713Y-104554878D01*
X128030712Y-104554877D01*
X127860146Y-104440908D01*
X127715092Y-104295854D01*
X127601123Y-104125288D01*
X127522620Y-103935765D01*
X127482600Y-103734569D01*
X127482600Y-103529431D01*
X127522620Y-103328235D01*
X127601123Y-103138712D01*
X127715092Y-102968146D01*
X127860146Y-102823092D01*
X128030712Y-102709123D01*
X128220235Y-102630620D01*
X128421430Y-102590600D01*
X128626570Y-102590600D01*
X128827765Y-102630620D01*
X128827765Y-102630620D01*
G37*
G36*
X143898800Y-104528800D02*
G01*
X141597200Y-104528800D01*
X141597200Y-102227200D01*
X143898800Y-102227200D01*
X143898800Y-104528800D01*
X143898800Y-104528800D01*
G37*
G36*
X118416506Y-100716581D02*
G01*
X118528528Y-100762982D01*
X118607740Y-100795793D01*
X118779846Y-100910791D01*
X118926209Y-101057154D01*
X119041207Y-101229260D01*
X119041207Y-101229261D01*
X119120419Y-101420494D01*
X119160800Y-101623504D01*
X119160800Y-101830496D01*
X119120419Y-102033506D01*
X119095618Y-102093380D01*
X119041207Y-102224740D01*
X118926209Y-102396846D01*
X118779846Y-102543209D01*
X118607740Y-102658207D01*
X118528528Y-102691018D01*
X118416506Y-102737419D01*
X118213496Y-102777800D01*
X118006504Y-102777800D01*
X117803494Y-102737419D01*
X117691472Y-102691018D01*
X117612260Y-102658207D01*
X117440154Y-102543209D01*
X117293791Y-102396846D01*
X117178793Y-102224740D01*
X117124382Y-102093380D01*
X117099581Y-102033506D01*
X117059200Y-101830496D01*
X117059200Y-101623504D01*
X117099581Y-101420494D01*
X117178793Y-101229261D01*
X117178793Y-101229260D01*
X117293791Y-101057154D01*
X117440154Y-100910791D01*
X117612260Y-100795793D01*
X117691472Y-100762982D01*
X117803494Y-100716581D01*
X118006504Y-100676200D01*
X118213496Y-100676200D01*
X118416506Y-100716581D01*
X118416506Y-100716581D01*
G37*
G36*
X124258506Y-100716581D02*
G01*
X124370528Y-100762982D01*
X124449740Y-100795793D01*
X124621846Y-100910791D01*
X124768209Y-101057154D01*
X124883207Y-101229260D01*
X124883207Y-101229261D01*
X124962419Y-101420494D01*
X125002800Y-101623504D01*
X125002800Y-101830496D01*
X124962419Y-102033506D01*
X124937618Y-102093380D01*
X124883207Y-102224740D01*
X124768209Y-102396846D01*
X124621846Y-102543209D01*
X124449740Y-102658207D01*
X124370528Y-102691018D01*
X124258506Y-102737419D01*
X124055496Y-102777800D01*
X123848504Y-102777800D01*
X123645494Y-102737419D01*
X123533472Y-102691018D01*
X123454260Y-102658207D01*
X123282154Y-102543209D01*
X123135791Y-102396846D01*
X123020793Y-102224740D01*
X122966382Y-102093380D01*
X122941581Y-102033506D01*
X122901200Y-101830496D01*
X122901200Y-101623504D01*
X122941581Y-101420494D01*
X123020793Y-101229261D01*
X123020793Y-101229260D01*
X123135791Y-101057154D01*
X123282154Y-100910791D01*
X123454260Y-100795793D01*
X123533472Y-100762982D01*
X123645494Y-100716581D01*
X123848504Y-100676200D01*
X124055496Y-100676200D01*
X124258506Y-100716581D01*
X124258506Y-100716581D01*
G37*
G36*
X128827765Y-100090620D02*
G01*
X129017288Y-100169123D01*
X129187854Y-100283092D01*
X129332908Y-100428146D01*
X129332909Y-100428148D01*
X129446878Y-100598714D01*
X129525380Y-100788235D01*
X129565400Y-100989430D01*
X129565400Y-101194570D01*
X129525380Y-101395765D01*
X129446877Y-101585288D01*
X129332908Y-101755854D01*
X129187854Y-101900908D01*
X129017288Y-102014877D01*
X129017287Y-102014878D01*
X129017286Y-102014878D01*
X128827765Y-102093380D01*
X128626570Y-102133400D01*
X128421430Y-102133400D01*
X128220235Y-102093380D01*
X128030714Y-102014878D01*
X128030713Y-102014878D01*
X128030712Y-102014877D01*
X127860146Y-101900908D01*
X127715092Y-101755854D01*
X127601123Y-101585288D01*
X127522620Y-101395765D01*
X127482600Y-101194570D01*
X127482600Y-100989430D01*
X127522620Y-100788235D01*
X127601122Y-100598714D01*
X127715091Y-100428148D01*
X127715092Y-100428146D01*
X127860146Y-100283092D01*
X128030712Y-100169123D01*
X128220235Y-100090620D01*
X128421430Y-100050600D01*
X128626570Y-100050600D01*
X128827765Y-100090620D01*
X128827765Y-100090620D01*
G37*
G36*
X156767765Y-100090620D02*
G01*
X156957288Y-100169123D01*
X157127854Y-100283092D01*
X157272908Y-100428146D01*
X157272909Y-100428148D01*
X157386878Y-100598714D01*
X157465380Y-100788235D01*
X157505400Y-100989430D01*
X157505400Y-101194570D01*
X157465380Y-101395765D01*
X157386877Y-101585288D01*
X157272908Y-101755854D01*
X157127854Y-101900908D01*
X156957288Y-102014877D01*
X156957287Y-102014878D01*
X156957286Y-102014878D01*
X156767765Y-102093380D01*
X156566570Y-102133400D01*
X156361430Y-102133400D01*
X156160235Y-102093380D01*
X155970714Y-102014878D01*
X155970713Y-102014878D01*
X155970712Y-102014877D01*
X155800146Y-101900908D01*
X155655092Y-101755854D01*
X155541123Y-101585288D01*
X155462620Y-101395765D01*
X155422600Y-101194570D01*
X155422600Y-100989430D01*
X155462620Y-100788235D01*
X155541122Y-100598714D01*
X155655091Y-100428148D01*
X155655092Y-100428146D01*
X155800146Y-100283092D01*
X155970712Y-100169123D01*
X156160235Y-100090620D01*
X156361430Y-100050600D01*
X156566570Y-100050600D01*
X156767765Y-100090620D01*
X156767765Y-100090620D01*
G37*
G36*
X131367765Y-100090620D02*
G01*
X131557288Y-100169123D01*
X131727854Y-100283092D01*
X131872908Y-100428146D01*
X131872909Y-100428148D01*
X131986878Y-100598714D01*
X132065380Y-100788235D01*
X132105400Y-100989430D01*
X132105400Y-101194570D01*
X132065380Y-101395765D01*
X131986877Y-101585288D01*
X131872908Y-101755854D01*
X131727854Y-101900908D01*
X131557288Y-102014877D01*
X131557287Y-102014878D01*
X131557286Y-102014878D01*
X131367765Y-102093380D01*
X131166570Y-102133400D01*
X130961430Y-102133400D01*
X130760235Y-102093380D01*
X130570714Y-102014878D01*
X130570713Y-102014878D01*
X130570712Y-102014877D01*
X130400146Y-101900908D01*
X130255092Y-101755854D01*
X130141123Y-101585288D01*
X130062620Y-101395765D01*
X130022600Y-101194570D01*
X130022600Y-100989430D01*
X130062620Y-100788235D01*
X130141122Y-100598714D01*
X130255091Y-100428148D01*
X130255092Y-100428146D01*
X130400146Y-100283092D01*
X130570712Y-100169123D01*
X130760235Y-100090620D01*
X130961430Y-100050600D01*
X131166570Y-100050600D01*
X131367765Y-100090620D01*
X131367765Y-100090620D01*
G37*
G36*
X154227765Y-100090620D02*
G01*
X154417288Y-100169123D01*
X154587854Y-100283092D01*
X154732908Y-100428146D01*
X154732909Y-100428148D01*
X154846878Y-100598714D01*
X154925380Y-100788235D01*
X154965400Y-100989430D01*
X154965400Y-101194570D01*
X154925380Y-101395765D01*
X154846877Y-101585288D01*
X154732908Y-101755854D01*
X154587854Y-101900908D01*
X154417288Y-102014877D01*
X154417287Y-102014878D01*
X154417286Y-102014878D01*
X154227765Y-102093380D01*
X154026570Y-102133400D01*
X153821430Y-102133400D01*
X153620235Y-102093380D01*
X153430714Y-102014878D01*
X153430713Y-102014878D01*
X153430712Y-102014877D01*
X153260146Y-101900908D01*
X153115092Y-101755854D01*
X153001123Y-101585288D01*
X152922620Y-101395765D01*
X152882600Y-101194570D01*
X152882600Y-100989430D01*
X152922620Y-100788235D01*
X153001122Y-100598714D01*
X153115091Y-100428148D01*
X153115092Y-100428146D01*
X153260146Y-100283092D01*
X153430712Y-100169123D01*
X153620235Y-100090620D01*
X153821430Y-100050600D01*
X154026570Y-100050600D01*
X154227765Y-100090620D01*
X154227765Y-100090620D01*
G37*
G36*
X128827765Y-97550620D02*
G01*
X129017288Y-97629123D01*
X129187854Y-97743092D01*
X129332908Y-97888146D01*
X129332909Y-97888148D01*
X129446878Y-98058714D01*
X129525380Y-98248235D01*
X129565400Y-98449430D01*
X129565400Y-98654570D01*
X129525380Y-98855765D01*
X129461976Y-99008837D01*
X129446877Y-99045288D01*
X129332908Y-99215854D01*
X129187854Y-99360908D01*
X129017288Y-99474877D01*
X129017287Y-99474878D01*
X129017286Y-99474878D01*
X128827765Y-99553380D01*
X128626570Y-99593400D01*
X128421430Y-99593400D01*
X128220235Y-99553380D01*
X128030714Y-99474878D01*
X128030713Y-99474878D01*
X128030712Y-99474877D01*
X127860146Y-99360908D01*
X127715092Y-99215854D01*
X127601123Y-99045288D01*
X127586025Y-99008837D01*
X127522620Y-98855765D01*
X127482600Y-98654570D01*
X127482600Y-98449430D01*
X127522620Y-98248235D01*
X127601122Y-98058714D01*
X127715091Y-97888148D01*
X127715092Y-97888146D01*
X127860146Y-97743092D01*
X128030712Y-97629123D01*
X128220235Y-97550620D01*
X128421430Y-97510600D01*
X128626570Y-97510600D01*
X128827765Y-97550620D01*
X128827765Y-97550620D01*
G37*
G36*
X131367765Y-97550620D02*
G01*
X131557288Y-97629123D01*
X131727854Y-97743092D01*
X131872908Y-97888146D01*
X131872909Y-97888148D01*
X131986878Y-98058714D01*
X132065380Y-98248235D01*
X132105400Y-98449430D01*
X132105400Y-98654570D01*
X132065380Y-98855765D01*
X132001976Y-99008837D01*
X131986877Y-99045288D01*
X131872908Y-99215854D01*
X131727854Y-99360908D01*
X131557288Y-99474877D01*
X131557287Y-99474878D01*
X131557286Y-99474878D01*
X131367765Y-99553380D01*
X131166570Y-99593400D01*
X130961430Y-99593400D01*
X130760235Y-99553380D01*
X130570714Y-99474878D01*
X130570713Y-99474878D01*
X130570712Y-99474877D01*
X130400146Y-99360908D01*
X130255092Y-99215854D01*
X130141123Y-99045288D01*
X130126025Y-99008837D01*
X130062620Y-98855765D01*
X130022600Y-98654570D01*
X130022600Y-98449430D01*
X130062620Y-98248235D01*
X130141122Y-98058714D01*
X130255091Y-97888148D01*
X130255092Y-97888146D01*
X130400146Y-97743092D01*
X130570712Y-97629123D01*
X130760235Y-97550620D01*
X130961430Y-97510600D01*
X131166570Y-97510600D01*
X131367765Y-97550620D01*
X131367765Y-97550620D01*
G37*
G36*
X154227765Y-97550620D02*
G01*
X154417288Y-97629123D01*
X154587854Y-97743092D01*
X154732908Y-97888146D01*
X154732909Y-97888148D01*
X154846878Y-98058714D01*
X154925380Y-98248235D01*
X154965400Y-98449430D01*
X154965400Y-98654570D01*
X154925380Y-98855765D01*
X154861976Y-99008837D01*
X154846877Y-99045288D01*
X154732908Y-99215854D01*
X154587854Y-99360908D01*
X154417288Y-99474877D01*
X154417287Y-99474878D01*
X154417286Y-99474878D01*
X154227765Y-99553380D01*
X154026570Y-99593400D01*
X153821430Y-99593400D01*
X153620235Y-99553380D01*
X153430714Y-99474878D01*
X153430713Y-99474878D01*
X153430712Y-99474877D01*
X153260146Y-99360908D01*
X153115092Y-99215854D01*
X153001123Y-99045288D01*
X152986025Y-99008837D01*
X152922620Y-98855765D01*
X152882600Y-98654570D01*
X152882600Y-98449430D01*
X152922620Y-98248235D01*
X153001122Y-98058714D01*
X153115091Y-97888148D01*
X153115092Y-97888146D01*
X153260146Y-97743092D01*
X153430712Y-97629123D01*
X153620235Y-97550620D01*
X153821430Y-97510600D01*
X154026570Y-97510600D01*
X154227765Y-97550620D01*
X154227765Y-97550620D01*
G37*
G36*
X156767765Y-97550620D02*
G01*
X156957288Y-97629123D01*
X157127854Y-97743092D01*
X157272908Y-97888146D01*
X157272909Y-97888148D01*
X157386878Y-98058714D01*
X157465380Y-98248235D01*
X157505400Y-98449430D01*
X157505400Y-98654570D01*
X157465380Y-98855765D01*
X157401976Y-99008837D01*
X157386877Y-99045288D01*
X157272908Y-99215854D01*
X157127854Y-99360908D01*
X156957288Y-99474877D01*
X156957287Y-99474878D01*
X156957286Y-99474878D01*
X156767765Y-99553380D01*
X156566570Y-99593400D01*
X156361430Y-99593400D01*
X156160235Y-99553380D01*
X155970714Y-99474878D01*
X155970713Y-99474878D01*
X155970712Y-99474877D01*
X155800146Y-99360908D01*
X155655092Y-99215854D01*
X155541123Y-99045288D01*
X155526025Y-99008837D01*
X155462620Y-98855765D01*
X155422600Y-98654570D01*
X155422600Y-98449430D01*
X155462620Y-98248235D01*
X155541122Y-98058714D01*
X155655091Y-97888148D01*
X155655092Y-97888146D01*
X155800146Y-97743092D01*
X155970712Y-97629123D01*
X156160235Y-97550620D01*
X156361430Y-97510600D01*
X156566570Y-97510600D01*
X156767765Y-97550620D01*
X156767765Y-97550620D01*
G37*
G36*
X161094787Y-97459510D02*
G01*
X161255162Y-97508160D01*
X161402965Y-97587162D01*
X161532517Y-97693483D01*
X161638838Y-97823035D01*
X161717840Y-97970838D01*
X161766490Y-98131213D01*
X161782916Y-98298000D01*
X161766490Y-98464787D01*
X161717840Y-98625162D01*
X161638838Y-98772965D01*
X161532517Y-98902517D01*
X161402965Y-99008838D01*
X161255162Y-99087840D01*
X161094787Y-99136490D01*
X160969794Y-99148800D01*
X160086206Y-99148800D01*
X159961213Y-99136490D01*
X159800838Y-99087840D01*
X159653035Y-99008838D01*
X159523483Y-98902517D01*
X159417162Y-98772965D01*
X159338160Y-98625162D01*
X159289510Y-98464787D01*
X159273084Y-98298000D01*
X159289510Y-98131213D01*
X159338160Y-97970838D01*
X159417162Y-97823035D01*
X159523483Y-97693483D01*
X159653035Y-97587162D01*
X159800838Y-97508160D01*
X159961213Y-97459510D01*
X160086206Y-97447200D01*
X160969794Y-97447200D01*
X161094787Y-97459510D01*
X161094787Y-97459510D01*
G37*
G36*
X168714787Y-97459510D02*
G01*
X168875162Y-97508160D01*
X169022965Y-97587162D01*
X169152517Y-97693483D01*
X169258838Y-97823035D01*
X169337840Y-97970838D01*
X169386490Y-98131213D01*
X169402916Y-98298000D01*
X169386490Y-98464787D01*
X169337840Y-98625162D01*
X169258838Y-98772965D01*
X169152517Y-98902517D01*
X169022965Y-99008838D01*
X168875162Y-99087840D01*
X168714787Y-99136490D01*
X168589794Y-99148800D01*
X167706206Y-99148800D01*
X167581213Y-99136490D01*
X167420838Y-99087840D01*
X167273035Y-99008838D01*
X167143483Y-98902517D01*
X167037162Y-98772965D01*
X166958160Y-98625162D01*
X166909510Y-98464787D01*
X166893084Y-98298000D01*
X166909510Y-98131213D01*
X166958160Y-97970838D01*
X167037162Y-97823035D01*
X167143483Y-97693483D01*
X167273035Y-97587162D01*
X167420838Y-97508160D01*
X167581213Y-97459510D01*
X167706206Y-97447200D01*
X168589794Y-97447200D01*
X168714787Y-97459510D01*
X168714787Y-97459510D01*
G37*
G36*
X125280787Y-97459510D02*
G01*
X125441162Y-97508160D01*
X125588965Y-97587162D01*
X125718517Y-97693483D01*
X125824838Y-97823035D01*
X125903840Y-97970838D01*
X125952490Y-98131213D01*
X125968916Y-98298000D01*
X125952490Y-98464787D01*
X125903840Y-98625162D01*
X125824838Y-98772965D01*
X125718517Y-98902517D01*
X125588965Y-99008838D01*
X125441162Y-99087840D01*
X125280787Y-99136490D01*
X125155794Y-99148800D01*
X124272206Y-99148800D01*
X124147213Y-99136490D01*
X123986838Y-99087840D01*
X123839035Y-99008838D01*
X123709483Y-98902517D01*
X123603162Y-98772965D01*
X123524160Y-98625162D01*
X123475510Y-98464787D01*
X123459084Y-98298000D01*
X123475510Y-98131213D01*
X123524160Y-97970838D01*
X123603162Y-97823035D01*
X123709483Y-97693483D01*
X123839035Y-97587162D01*
X123986838Y-97508160D01*
X124147213Y-97459510D01*
X124272206Y-97447200D01*
X125155794Y-97447200D01*
X125280787Y-97459510D01*
X125280787Y-97459510D01*
G37*
G36*
X117660787Y-97459510D02*
G01*
X117821162Y-97508160D01*
X117968965Y-97587162D01*
X118098517Y-97693483D01*
X118204838Y-97823035D01*
X118283840Y-97970838D01*
X118332490Y-98131213D01*
X118348916Y-98298000D01*
X118332490Y-98464787D01*
X118283840Y-98625162D01*
X118204838Y-98772965D01*
X118098517Y-98902517D01*
X117968965Y-99008838D01*
X117821162Y-99087840D01*
X117660787Y-99136490D01*
X117535794Y-99148800D01*
X116652206Y-99148800D01*
X116527213Y-99136490D01*
X116366838Y-99087840D01*
X116219035Y-99008838D01*
X116089483Y-98902517D01*
X115983162Y-98772965D01*
X115904160Y-98625162D01*
X115855510Y-98464787D01*
X115839084Y-98298000D01*
X115855510Y-98131213D01*
X115904160Y-97970838D01*
X115983162Y-97823035D01*
X116089483Y-97693483D01*
X116219035Y-97587162D01*
X116366838Y-97508160D01*
X116527213Y-97459510D01*
X116652206Y-97447200D01*
X117535794Y-97447200D01*
X117660787Y-97459510D01*
X117660787Y-97459510D01*
G37*
G36*
X156767765Y-95010620D02*
G01*
X156957288Y-95089123D01*
X157127854Y-95203092D01*
X157272908Y-95348146D01*
X157272909Y-95348148D01*
X157386878Y-95518714D01*
X157465380Y-95708235D01*
X157505400Y-95909430D01*
X157505400Y-96114570D01*
X157465380Y-96315765D01*
X157401976Y-96468837D01*
X157386877Y-96505288D01*
X157272908Y-96675854D01*
X157127854Y-96820908D01*
X156957288Y-96934877D01*
X156957287Y-96934878D01*
X156957286Y-96934878D01*
X156767765Y-97013380D01*
X156566570Y-97053400D01*
X156361430Y-97053400D01*
X156160235Y-97013380D01*
X155970714Y-96934878D01*
X155970713Y-96934878D01*
X155970712Y-96934877D01*
X155800146Y-96820908D01*
X155655092Y-96675854D01*
X155541123Y-96505288D01*
X155526025Y-96468837D01*
X155462620Y-96315765D01*
X155422600Y-96114570D01*
X155422600Y-95909430D01*
X155462620Y-95708235D01*
X155541122Y-95518714D01*
X155655091Y-95348148D01*
X155655092Y-95348146D01*
X155800146Y-95203092D01*
X155970712Y-95089123D01*
X156160235Y-95010620D01*
X156361430Y-94970600D01*
X156566570Y-94970600D01*
X156767765Y-95010620D01*
X156767765Y-95010620D01*
G37*
G36*
X154227765Y-95010620D02*
G01*
X154417288Y-95089123D01*
X154587854Y-95203092D01*
X154732908Y-95348146D01*
X154732909Y-95348148D01*
X154846878Y-95518714D01*
X154925380Y-95708235D01*
X154965400Y-95909430D01*
X154965400Y-96114570D01*
X154925380Y-96315765D01*
X154861976Y-96468837D01*
X154846877Y-96505288D01*
X154732908Y-96675854D01*
X154587854Y-96820908D01*
X154417288Y-96934877D01*
X154417287Y-96934878D01*
X154417286Y-96934878D01*
X154227765Y-97013380D01*
X154026570Y-97053400D01*
X153821430Y-97053400D01*
X153620235Y-97013380D01*
X153430714Y-96934878D01*
X153430713Y-96934878D01*
X153430712Y-96934877D01*
X153260146Y-96820908D01*
X153115092Y-96675854D01*
X153001123Y-96505288D01*
X152986025Y-96468837D01*
X152922620Y-96315765D01*
X152882600Y-96114570D01*
X152882600Y-95909430D01*
X152922620Y-95708235D01*
X153001122Y-95518714D01*
X153115091Y-95348148D01*
X153115092Y-95348146D01*
X153260146Y-95203092D01*
X153430712Y-95089123D01*
X153620235Y-95010620D01*
X153821430Y-94970600D01*
X154026570Y-94970600D01*
X154227765Y-95010620D01*
X154227765Y-95010620D01*
G37*
G36*
X131367765Y-95010620D02*
G01*
X131557288Y-95089123D01*
X131727854Y-95203092D01*
X131872908Y-95348146D01*
X131872909Y-95348148D01*
X131986878Y-95518714D01*
X132065380Y-95708235D01*
X132105400Y-95909430D01*
X132105400Y-96114570D01*
X132065380Y-96315765D01*
X132001976Y-96468837D01*
X131986877Y-96505288D01*
X131872908Y-96675854D01*
X131727854Y-96820908D01*
X131557288Y-96934877D01*
X131557287Y-96934878D01*
X131557286Y-96934878D01*
X131367765Y-97013380D01*
X131166570Y-97053400D01*
X130961430Y-97053400D01*
X130760235Y-97013380D01*
X130570714Y-96934878D01*
X130570713Y-96934878D01*
X130570712Y-96934877D01*
X130400146Y-96820908D01*
X130255092Y-96675854D01*
X130141123Y-96505288D01*
X130126025Y-96468837D01*
X130062620Y-96315765D01*
X130022600Y-96114570D01*
X130022600Y-95909430D01*
X130062620Y-95708235D01*
X130141122Y-95518714D01*
X130255091Y-95348148D01*
X130255092Y-95348146D01*
X130400146Y-95203092D01*
X130570712Y-95089123D01*
X130760235Y-95010620D01*
X130961430Y-94970600D01*
X131166570Y-94970600D01*
X131367765Y-95010620D01*
X131367765Y-95010620D01*
G37*
G36*
X128827765Y-95010620D02*
G01*
X129017288Y-95089123D01*
X129187854Y-95203092D01*
X129332908Y-95348146D01*
X129332909Y-95348148D01*
X129446878Y-95518714D01*
X129525380Y-95708235D01*
X129565400Y-95909430D01*
X129565400Y-96114570D01*
X129525380Y-96315765D01*
X129461976Y-96468837D01*
X129446877Y-96505288D01*
X129332908Y-96675854D01*
X129187854Y-96820908D01*
X129017288Y-96934877D01*
X129017287Y-96934878D01*
X129017286Y-96934878D01*
X128827765Y-97013380D01*
X128626570Y-97053400D01*
X128421430Y-97053400D01*
X128220235Y-97013380D01*
X128030714Y-96934878D01*
X128030713Y-96934878D01*
X128030712Y-96934877D01*
X127860146Y-96820908D01*
X127715092Y-96675854D01*
X127601123Y-96505288D01*
X127586025Y-96468837D01*
X127522620Y-96315765D01*
X127482600Y-96114570D01*
X127482600Y-95909430D01*
X127522620Y-95708235D01*
X127601122Y-95518714D01*
X127715091Y-95348148D01*
X127715092Y-95348146D01*
X127860146Y-95203092D01*
X128030712Y-95089123D01*
X128220235Y-95010620D01*
X128421430Y-94970600D01*
X128626570Y-94970600D01*
X128827765Y-95010620D01*
X128827765Y-95010620D01*
G37*
G36*
X161094787Y-94919510D02*
G01*
X161255162Y-94968160D01*
X161402965Y-95047162D01*
X161532517Y-95153483D01*
X161638838Y-95283035D01*
X161717840Y-95430838D01*
X161766490Y-95591213D01*
X161782916Y-95758000D01*
X161766490Y-95924787D01*
X161717840Y-96085162D01*
X161638838Y-96232965D01*
X161532517Y-96362517D01*
X161402965Y-96468838D01*
X161255162Y-96547840D01*
X161094787Y-96596490D01*
X160969794Y-96608800D01*
X160086206Y-96608800D01*
X159961213Y-96596490D01*
X159800838Y-96547840D01*
X159653035Y-96468838D01*
X159523483Y-96362517D01*
X159417162Y-96232965D01*
X159338160Y-96085162D01*
X159289510Y-95924787D01*
X159273084Y-95758000D01*
X159289510Y-95591213D01*
X159338160Y-95430838D01*
X159417162Y-95283035D01*
X159523483Y-95153483D01*
X159653035Y-95047162D01*
X159800838Y-94968160D01*
X159961213Y-94919510D01*
X160086206Y-94907200D01*
X160969794Y-94907200D01*
X161094787Y-94919510D01*
X161094787Y-94919510D01*
G37*
G36*
X168714787Y-94919510D02*
G01*
X168875162Y-94968160D01*
X169022965Y-95047162D01*
X169152517Y-95153483D01*
X169258838Y-95283035D01*
X169337840Y-95430838D01*
X169386490Y-95591213D01*
X169402916Y-95758000D01*
X169386490Y-95924787D01*
X169337840Y-96085162D01*
X169258838Y-96232965D01*
X169152517Y-96362517D01*
X169022965Y-96468838D01*
X168875162Y-96547840D01*
X168714787Y-96596490D01*
X168589794Y-96608800D01*
X167706206Y-96608800D01*
X167581213Y-96596490D01*
X167420838Y-96547840D01*
X167273035Y-96468838D01*
X167143483Y-96362517D01*
X167037162Y-96232965D01*
X166958160Y-96085162D01*
X166909510Y-95924787D01*
X166893084Y-95758000D01*
X166909510Y-95591213D01*
X166958160Y-95430838D01*
X167037162Y-95283035D01*
X167143483Y-95153483D01*
X167273035Y-95047162D01*
X167420838Y-94968160D01*
X167581213Y-94919510D01*
X167706206Y-94907200D01*
X168589794Y-94907200D01*
X168714787Y-94919510D01*
X168714787Y-94919510D01*
G37*
G36*
X125280787Y-94919510D02*
G01*
X125441162Y-94968160D01*
X125588965Y-95047162D01*
X125718517Y-95153483D01*
X125824838Y-95283035D01*
X125903840Y-95430838D01*
X125952490Y-95591213D01*
X125968916Y-95758000D01*
X125952490Y-95924787D01*
X125903840Y-96085162D01*
X125824838Y-96232965D01*
X125718517Y-96362517D01*
X125588965Y-96468838D01*
X125441162Y-96547840D01*
X125280787Y-96596490D01*
X125155794Y-96608800D01*
X124272206Y-96608800D01*
X124147213Y-96596490D01*
X123986838Y-96547840D01*
X123839035Y-96468838D01*
X123709483Y-96362517D01*
X123603162Y-96232965D01*
X123524160Y-96085162D01*
X123475510Y-95924787D01*
X123459084Y-95758000D01*
X123475510Y-95591213D01*
X123524160Y-95430838D01*
X123603162Y-95283035D01*
X123709483Y-95153483D01*
X123839035Y-95047162D01*
X123986838Y-94968160D01*
X124147213Y-94919510D01*
X124272206Y-94907200D01*
X125155794Y-94907200D01*
X125280787Y-94919510D01*
X125280787Y-94919510D01*
G37*
G36*
X117660787Y-94919510D02*
G01*
X117821162Y-94968160D01*
X117968965Y-95047162D01*
X118098517Y-95153483D01*
X118204838Y-95283035D01*
X118283840Y-95430838D01*
X118332490Y-95591213D01*
X118348916Y-95758000D01*
X118332490Y-95924787D01*
X118283840Y-96085162D01*
X118204838Y-96232965D01*
X118098517Y-96362517D01*
X117968965Y-96468838D01*
X117821162Y-96547840D01*
X117660787Y-96596490D01*
X117535794Y-96608800D01*
X116652206Y-96608800D01*
X116527213Y-96596490D01*
X116366838Y-96547840D01*
X116219035Y-96468838D01*
X116089483Y-96362517D01*
X115983162Y-96232965D01*
X115904160Y-96085162D01*
X115855510Y-95924787D01*
X115839084Y-95758000D01*
X115855510Y-95591213D01*
X115904160Y-95430838D01*
X115983162Y-95283035D01*
X116089483Y-95153483D01*
X116219035Y-95047162D01*
X116366838Y-94968160D01*
X116527213Y-94919510D01*
X116652206Y-94907200D01*
X117535794Y-94907200D01*
X117660787Y-94919510D01*
X117660787Y-94919510D01*
G37*
G36*
X131367765Y-92470620D02*
G01*
X131557288Y-92549123D01*
X131727854Y-92663092D01*
X131872908Y-92808146D01*
X131872909Y-92808148D01*
X131986878Y-92978714D01*
X132065380Y-93168235D01*
X132105400Y-93369430D01*
X132105400Y-93574570D01*
X132065380Y-93775765D01*
X132001976Y-93928837D01*
X131986877Y-93965288D01*
X131872908Y-94135854D01*
X131727854Y-94280908D01*
X131557288Y-94394877D01*
X131557287Y-94394878D01*
X131557286Y-94394878D01*
X131367765Y-94473380D01*
X131166570Y-94513400D01*
X130961430Y-94513400D01*
X130760235Y-94473380D01*
X130570714Y-94394878D01*
X130570713Y-94394878D01*
X130570712Y-94394877D01*
X130400146Y-94280908D01*
X130255092Y-94135854D01*
X130141123Y-93965288D01*
X130126025Y-93928837D01*
X130062620Y-93775765D01*
X130022600Y-93574570D01*
X130022600Y-93369430D01*
X130062620Y-93168235D01*
X130141122Y-92978714D01*
X130255091Y-92808148D01*
X130255092Y-92808146D01*
X130400146Y-92663092D01*
X130570712Y-92549123D01*
X130760235Y-92470620D01*
X130961430Y-92430600D01*
X131166570Y-92430600D01*
X131367765Y-92470620D01*
X131367765Y-92470620D01*
G37*
G36*
X154227765Y-92470620D02*
G01*
X154417288Y-92549123D01*
X154587854Y-92663092D01*
X154732908Y-92808146D01*
X154732909Y-92808148D01*
X154846878Y-92978714D01*
X154925380Y-93168235D01*
X154965400Y-93369430D01*
X154965400Y-93574570D01*
X154925380Y-93775765D01*
X154861976Y-93928837D01*
X154846877Y-93965288D01*
X154732908Y-94135854D01*
X154587854Y-94280908D01*
X154417288Y-94394877D01*
X154417287Y-94394878D01*
X154417286Y-94394878D01*
X154227765Y-94473380D01*
X154026570Y-94513400D01*
X153821430Y-94513400D01*
X153620235Y-94473380D01*
X153430714Y-94394878D01*
X153430713Y-94394878D01*
X153430712Y-94394877D01*
X153260146Y-94280908D01*
X153115092Y-94135854D01*
X153001123Y-93965288D01*
X152986025Y-93928837D01*
X152922620Y-93775765D01*
X152882600Y-93574570D01*
X152882600Y-93369430D01*
X152922620Y-93168235D01*
X153001122Y-92978714D01*
X153115091Y-92808148D01*
X153115092Y-92808146D01*
X153260146Y-92663092D01*
X153430712Y-92549123D01*
X153620235Y-92470620D01*
X153821430Y-92430600D01*
X154026570Y-92430600D01*
X154227765Y-92470620D01*
X154227765Y-92470620D01*
G37*
G36*
X128827765Y-92470620D02*
G01*
X129017288Y-92549123D01*
X129187854Y-92663092D01*
X129332908Y-92808146D01*
X129332909Y-92808148D01*
X129446878Y-92978714D01*
X129525380Y-93168235D01*
X129565400Y-93369430D01*
X129565400Y-93574570D01*
X129525380Y-93775765D01*
X129461976Y-93928837D01*
X129446877Y-93965288D01*
X129332908Y-94135854D01*
X129187854Y-94280908D01*
X129017288Y-94394877D01*
X129017287Y-94394878D01*
X129017286Y-94394878D01*
X128827765Y-94473380D01*
X128626570Y-94513400D01*
X128421430Y-94513400D01*
X128220235Y-94473380D01*
X128030714Y-94394878D01*
X128030713Y-94394878D01*
X128030712Y-94394877D01*
X127860146Y-94280908D01*
X127715092Y-94135854D01*
X127601123Y-93965288D01*
X127586025Y-93928837D01*
X127522620Y-93775765D01*
X127482600Y-93574570D01*
X127482600Y-93369430D01*
X127522620Y-93168235D01*
X127601122Y-92978714D01*
X127715091Y-92808148D01*
X127715092Y-92808146D01*
X127860146Y-92663092D01*
X128030712Y-92549123D01*
X128220235Y-92470620D01*
X128421430Y-92430600D01*
X128626570Y-92430600D01*
X128827765Y-92470620D01*
X128827765Y-92470620D01*
G37*
G36*
X156767765Y-92470620D02*
G01*
X156957288Y-92549123D01*
X157127854Y-92663092D01*
X157272908Y-92808146D01*
X157272909Y-92808148D01*
X157386878Y-92978714D01*
X157465380Y-93168235D01*
X157505400Y-93369430D01*
X157505400Y-93574570D01*
X157465380Y-93775765D01*
X157401976Y-93928837D01*
X157386877Y-93965288D01*
X157272908Y-94135854D01*
X157127854Y-94280908D01*
X156957288Y-94394877D01*
X156957287Y-94394878D01*
X156957286Y-94394878D01*
X156767765Y-94473380D01*
X156566570Y-94513400D01*
X156361430Y-94513400D01*
X156160235Y-94473380D01*
X155970714Y-94394878D01*
X155970713Y-94394878D01*
X155970712Y-94394877D01*
X155800146Y-94280908D01*
X155655092Y-94135854D01*
X155541123Y-93965288D01*
X155526025Y-93928837D01*
X155462620Y-93775765D01*
X155422600Y-93574570D01*
X155422600Y-93369430D01*
X155462620Y-93168235D01*
X155541122Y-92978714D01*
X155655091Y-92808148D01*
X155655092Y-92808146D01*
X155800146Y-92663092D01*
X155970712Y-92549123D01*
X156160235Y-92470620D01*
X156361430Y-92430600D01*
X156566570Y-92430600D01*
X156767765Y-92470620D01*
X156767765Y-92470620D01*
G37*
G36*
X142860888Y-92072750D02*
G01*
X142973596Y-92083851D01*
X143190523Y-92149655D01*
X143190525Y-92149656D01*
X143390439Y-92256512D01*
X143390440Y-92256513D01*
X143390444Y-92256515D01*
X143565676Y-92400324D01*
X143709485Y-92575556D01*
X143709487Y-92575560D01*
X143709488Y-92575561D01*
X143816344Y-92775475D01*
X143816345Y-92775477D01*
X143882149Y-92992404D01*
X143904368Y-93218000D01*
X143882149Y-93443596D01*
X143816345Y-93660523D01*
X143816344Y-93660525D01*
X143729758Y-93822517D01*
X143709485Y-93860444D01*
X143565676Y-94035676D01*
X143390444Y-94179485D01*
X143390440Y-94179487D01*
X143390439Y-94179488D01*
X143200695Y-94280908D01*
X143190523Y-94286345D01*
X142973596Y-94352149D01*
X142860888Y-94363250D01*
X142804535Y-94368800D01*
X142691465Y-94368800D01*
X142635112Y-94363250D01*
X142522404Y-94352149D01*
X142305477Y-94286345D01*
X142295305Y-94280908D01*
X142105561Y-94179488D01*
X142105560Y-94179487D01*
X142105556Y-94179485D01*
X141930324Y-94035676D01*
X141786515Y-93860444D01*
X141766243Y-93822517D01*
X141679656Y-93660525D01*
X141679655Y-93660523D01*
X141613851Y-93443596D01*
X141591632Y-93218000D01*
X141613851Y-92992404D01*
X141679655Y-92775477D01*
X141679656Y-92775475D01*
X141786512Y-92575561D01*
X141786513Y-92575560D01*
X141786515Y-92575556D01*
X141930324Y-92400324D01*
X142105556Y-92256515D01*
X142105560Y-92256513D01*
X142105561Y-92256512D01*
X142305475Y-92149656D01*
X142305477Y-92149655D01*
X142522404Y-92083851D01*
X142635112Y-92072750D01*
X142691465Y-92067200D01*
X142804535Y-92067200D01*
X142860888Y-92072750D01*
X142860888Y-92072750D01*
G37*
G36*
X125280787Y-92379510D02*
G01*
X125441162Y-92428160D01*
X125588965Y-92507162D01*
X125718517Y-92613483D01*
X125824838Y-92743035D01*
X125903840Y-92890838D01*
X125952490Y-93051213D01*
X125968916Y-93218000D01*
X125952490Y-93384787D01*
X125903840Y-93545162D01*
X125824838Y-93692965D01*
X125718517Y-93822517D01*
X125588965Y-93928838D01*
X125441162Y-94007840D01*
X125280787Y-94056490D01*
X125155794Y-94068800D01*
X124272206Y-94068800D01*
X124147213Y-94056490D01*
X123986838Y-94007840D01*
X123839035Y-93928838D01*
X123709483Y-93822517D01*
X123603162Y-93692965D01*
X123524160Y-93545162D01*
X123475510Y-93384787D01*
X123459084Y-93218000D01*
X123475510Y-93051213D01*
X123524160Y-92890838D01*
X123603162Y-92743035D01*
X123709483Y-92613483D01*
X123839035Y-92507162D01*
X123986838Y-92428160D01*
X124147213Y-92379510D01*
X124272206Y-92367200D01*
X125155794Y-92367200D01*
X125280787Y-92379510D01*
X125280787Y-92379510D01*
G37*
G36*
X117660787Y-92379510D02*
G01*
X117821162Y-92428160D01*
X117968965Y-92507162D01*
X118098517Y-92613483D01*
X118204838Y-92743035D01*
X118283840Y-92890838D01*
X118332490Y-93051213D01*
X118348916Y-93218000D01*
X118332490Y-93384787D01*
X118283840Y-93545162D01*
X118204838Y-93692965D01*
X118098517Y-93822517D01*
X117968965Y-93928838D01*
X117821162Y-94007840D01*
X117660787Y-94056490D01*
X117535794Y-94068800D01*
X116652206Y-94068800D01*
X116527213Y-94056490D01*
X116366838Y-94007840D01*
X116219035Y-93928838D01*
X116089483Y-93822517D01*
X115983162Y-93692965D01*
X115904160Y-93545162D01*
X115855510Y-93384787D01*
X115839084Y-93218000D01*
X115855510Y-93051213D01*
X115904160Y-92890838D01*
X115983162Y-92743035D01*
X116089483Y-92613483D01*
X116219035Y-92507162D01*
X116366838Y-92428160D01*
X116527213Y-92379510D01*
X116652206Y-92367200D01*
X117535794Y-92367200D01*
X117660787Y-92379510D01*
X117660787Y-92379510D01*
G37*
G36*
X168714787Y-92379510D02*
G01*
X168875162Y-92428160D01*
X169022965Y-92507162D01*
X169152517Y-92613483D01*
X169258838Y-92743035D01*
X169337840Y-92890838D01*
X169386490Y-93051213D01*
X169402916Y-93218000D01*
X169386490Y-93384787D01*
X169337840Y-93545162D01*
X169258838Y-93692965D01*
X169152517Y-93822517D01*
X169022965Y-93928838D01*
X168875162Y-94007840D01*
X168714787Y-94056490D01*
X168589794Y-94068800D01*
X167706206Y-94068800D01*
X167581213Y-94056490D01*
X167420838Y-94007840D01*
X167273035Y-93928838D01*
X167143483Y-93822517D01*
X167037162Y-93692965D01*
X166958160Y-93545162D01*
X166909510Y-93384787D01*
X166893084Y-93218000D01*
X166909510Y-93051213D01*
X166958160Y-92890838D01*
X167037162Y-92743035D01*
X167143483Y-92613483D01*
X167273035Y-92507162D01*
X167420838Y-92428160D01*
X167581213Y-92379510D01*
X167706206Y-92367200D01*
X168589794Y-92367200D01*
X168714787Y-92379510D01*
X168714787Y-92379510D01*
G37*
G36*
X161094787Y-92379510D02*
G01*
X161255162Y-92428160D01*
X161402965Y-92507162D01*
X161532517Y-92613483D01*
X161638838Y-92743035D01*
X161717840Y-92890838D01*
X161766490Y-93051213D01*
X161782916Y-93218000D01*
X161766490Y-93384787D01*
X161717840Y-93545162D01*
X161638838Y-93692965D01*
X161532517Y-93822517D01*
X161402965Y-93928838D01*
X161255162Y-94007840D01*
X161094787Y-94056490D01*
X160969794Y-94068800D01*
X160086206Y-94068800D01*
X159961213Y-94056490D01*
X159800838Y-94007840D01*
X159653035Y-93928838D01*
X159523483Y-93822517D01*
X159417162Y-93692965D01*
X159338160Y-93545162D01*
X159289510Y-93384787D01*
X159273084Y-93218000D01*
X159289510Y-93051213D01*
X159338160Y-92890838D01*
X159417162Y-92743035D01*
X159523483Y-92613483D01*
X159653035Y-92507162D01*
X159800838Y-92428160D01*
X159961213Y-92379510D01*
X160086206Y-92367200D01*
X160969794Y-92367200D01*
X161094787Y-92379510D01*
X161094787Y-92379510D01*
G37*
G36*
X156767765Y-89930620D02*
G01*
X156957288Y-90009123D01*
X157127854Y-90123092D01*
X157272908Y-90268146D01*
X157272909Y-90268148D01*
X157386878Y-90438714D01*
X157465380Y-90628235D01*
X157505400Y-90829430D01*
X157505400Y-91034570D01*
X157465380Y-91235765D01*
X157401976Y-91388837D01*
X157386877Y-91425288D01*
X157272908Y-91595854D01*
X157127854Y-91740908D01*
X156957288Y-91854877D01*
X156957287Y-91854878D01*
X156957286Y-91854878D01*
X156767765Y-91933380D01*
X156566570Y-91973400D01*
X156361430Y-91973400D01*
X156160235Y-91933380D01*
X155970714Y-91854878D01*
X155970713Y-91854878D01*
X155970712Y-91854877D01*
X155800146Y-91740908D01*
X155655092Y-91595854D01*
X155541123Y-91425288D01*
X155526025Y-91388837D01*
X155462620Y-91235765D01*
X155422600Y-91034570D01*
X155422600Y-90829430D01*
X155462620Y-90628235D01*
X155541122Y-90438714D01*
X155655091Y-90268148D01*
X155655092Y-90268146D01*
X155800146Y-90123092D01*
X155970712Y-90009123D01*
X156160235Y-89930620D01*
X156361430Y-89890600D01*
X156566570Y-89890600D01*
X156767765Y-89930620D01*
X156767765Y-89930620D01*
G37*
G36*
X154227765Y-89930620D02*
G01*
X154417288Y-90009123D01*
X154587854Y-90123092D01*
X154732908Y-90268146D01*
X154732909Y-90268148D01*
X154846878Y-90438714D01*
X154925380Y-90628235D01*
X154965400Y-90829430D01*
X154965400Y-91034570D01*
X154925380Y-91235765D01*
X154861976Y-91388837D01*
X154846877Y-91425288D01*
X154732908Y-91595854D01*
X154587854Y-91740908D01*
X154417288Y-91854877D01*
X154417287Y-91854878D01*
X154417286Y-91854878D01*
X154227765Y-91933380D01*
X154026570Y-91973400D01*
X153821430Y-91973400D01*
X153620235Y-91933380D01*
X153430714Y-91854878D01*
X153430713Y-91854878D01*
X153430712Y-91854877D01*
X153260146Y-91740908D01*
X153115092Y-91595854D01*
X153001123Y-91425288D01*
X152986025Y-91388837D01*
X152922620Y-91235765D01*
X152882600Y-91034570D01*
X152882600Y-90829430D01*
X152922620Y-90628235D01*
X153001122Y-90438714D01*
X153115091Y-90268148D01*
X153115092Y-90268146D01*
X153260146Y-90123092D01*
X153430712Y-90009123D01*
X153620235Y-89930620D01*
X153821430Y-89890600D01*
X154026570Y-89890600D01*
X154227765Y-89930620D01*
X154227765Y-89930620D01*
G37*
G36*
X131367765Y-89930620D02*
G01*
X131557288Y-90009123D01*
X131727854Y-90123092D01*
X131872908Y-90268146D01*
X131872909Y-90268148D01*
X131986878Y-90438714D01*
X132065380Y-90628235D01*
X132105400Y-90829430D01*
X132105400Y-91034570D01*
X132065380Y-91235765D01*
X132001976Y-91388837D01*
X131986877Y-91425288D01*
X131872908Y-91595854D01*
X131727854Y-91740908D01*
X131557288Y-91854877D01*
X131557287Y-91854878D01*
X131557286Y-91854878D01*
X131367765Y-91933380D01*
X131166570Y-91973400D01*
X130961430Y-91973400D01*
X130760235Y-91933380D01*
X130570714Y-91854878D01*
X130570713Y-91854878D01*
X130570712Y-91854877D01*
X130400146Y-91740908D01*
X130255092Y-91595854D01*
X130141123Y-91425288D01*
X130126025Y-91388837D01*
X130062620Y-91235765D01*
X130022600Y-91034570D01*
X130022600Y-90829430D01*
X130062620Y-90628235D01*
X130141122Y-90438714D01*
X130255091Y-90268148D01*
X130255092Y-90268146D01*
X130400146Y-90123092D01*
X130570712Y-90009123D01*
X130760235Y-89930620D01*
X130961430Y-89890600D01*
X131166570Y-89890600D01*
X131367765Y-89930620D01*
X131367765Y-89930620D01*
G37*
G36*
X128827765Y-89930620D02*
G01*
X129017288Y-90009123D01*
X129187854Y-90123092D01*
X129332908Y-90268146D01*
X129332909Y-90268148D01*
X129446878Y-90438714D01*
X129525380Y-90628235D01*
X129565400Y-90829430D01*
X129565400Y-91034570D01*
X129525380Y-91235765D01*
X129461976Y-91388837D01*
X129446877Y-91425288D01*
X129332908Y-91595854D01*
X129187854Y-91740908D01*
X129017288Y-91854877D01*
X129017287Y-91854878D01*
X129017286Y-91854878D01*
X128827765Y-91933380D01*
X128626570Y-91973400D01*
X128421430Y-91973400D01*
X128220235Y-91933380D01*
X128030714Y-91854878D01*
X128030713Y-91854878D01*
X128030712Y-91854877D01*
X127860146Y-91740908D01*
X127715092Y-91595854D01*
X127601123Y-91425288D01*
X127586025Y-91388837D01*
X127522620Y-91235765D01*
X127482600Y-91034570D01*
X127482600Y-90829430D01*
X127522620Y-90628235D01*
X127601122Y-90438714D01*
X127715091Y-90268148D01*
X127715092Y-90268146D01*
X127860146Y-90123092D01*
X128030712Y-90009123D01*
X128220235Y-89930620D01*
X128421430Y-89890600D01*
X128626570Y-89890600D01*
X128827765Y-89930620D01*
X128827765Y-89930620D01*
G37*
G36*
X168714787Y-89839510D02*
G01*
X168875162Y-89888160D01*
X169022965Y-89967162D01*
X169152517Y-90073483D01*
X169258838Y-90203035D01*
X169337840Y-90350838D01*
X169386490Y-90511213D01*
X169402916Y-90678000D01*
X169386490Y-90844787D01*
X169337840Y-91005162D01*
X169258838Y-91152965D01*
X169152517Y-91282517D01*
X169022965Y-91388838D01*
X168875162Y-91467840D01*
X168714787Y-91516490D01*
X168589794Y-91528800D01*
X167706206Y-91528800D01*
X167581213Y-91516490D01*
X167420838Y-91467840D01*
X167273035Y-91388838D01*
X167143483Y-91282517D01*
X167037162Y-91152965D01*
X166958160Y-91005162D01*
X166909510Y-90844787D01*
X166893084Y-90678000D01*
X166909510Y-90511213D01*
X166958160Y-90350838D01*
X167037162Y-90203035D01*
X167143483Y-90073483D01*
X167273035Y-89967162D01*
X167420838Y-89888160D01*
X167581213Y-89839510D01*
X167706206Y-89827200D01*
X168589794Y-89827200D01*
X168714787Y-89839510D01*
X168714787Y-89839510D01*
G37*
G36*
X161094787Y-89839510D02*
G01*
X161255162Y-89888160D01*
X161402965Y-89967162D01*
X161532517Y-90073483D01*
X161638838Y-90203035D01*
X161717840Y-90350838D01*
X161766490Y-90511213D01*
X161782916Y-90678000D01*
X161766490Y-90844787D01*
X161717840Y-91005162D01*
X161638838Y-91152965D01*
X161532517Y-91282517D01*
X161402965Y-91388838D01*
X161255162Y-91467840D01*
X161094787Y-91516490D01*
X160969794Y-91528800D01*
X160086206Y-91528800D01*
X159961213Y-91516490D01*
X159800838Y-91467840D01*
X159653035Y-91388838D01*
X159523483Y-91282517D01*
X159417162Y-91152965D01*
X159338160Y-91005162D01*
X159289510Y-90844787D01*
X159273084Y-90678000D01*
X159289510Y-90511213D01*
X159338160Y-90350838D01*
X159417162Y-90203035D01*
X159523483Y-90073483D01*
X159653035Y-89967162D01*
X159800838Y-89888160D01*
X159961213Y-89839510D01*
X160086206Y-89827200D01*
X160969794Y-89827200D01*
X161094787Y-89839510D01*
X161094787Y-89839510D01*
G37*
G36*
X125280787Y-89839510D02*
G01*
X125441162Y-89888160D01*
X125588965Y-89967162D01*
X125718517Y-90073483D01*
X125824838Y-90203035D01*
X125903840Y-90350838D01*
X125952490Y-90511213D01*
X125968916Y-90678000D01*
X125952490Y-90844787D01*
X125903840Y-91005162D01*
X125824838Y-91152965D01*
X125718517Y-91282517D01*
X125588965Y-91388838D01*
X125441162Y-91467840D01*
X125280787Y-91516490D01*
X125155794Y-91528800D01*
X124272206Y-91528800D01*
X124147213Y-91516490D01*
X123986838Y-91467840D01*
X123839035Y-91388838D01*
X123709483Y-91282517D01*
X123603162Y-91152965D01*
X123524160Y-91005162D01*
X123475510Y-90844787D01*
X123459084Y-90678000D01*
X123475510Y-90511213D01*
X123524160Y-90350838D01*
X123603162Y-90203035D01*
X123709483Y-90073483D01*
X123839035Y-89967162D01*
X123986838Y-89888160D01*
X124147213Y-89839510D01*
X124272206Y-89827200D01*
X125155794Y-89827200D01*
X125280787Y-89839510D01*
X125280787Y-89839510D01*
G37*
G36*
X117660787Y-89839510D02*
G01*
X117821162Y-89888160D01*
X117968965Y-89967162D01*
X118098517Y-90073483D01*
X118204838Y-90203035D01*
X118283840Y-90350838D01*
X118332490Y-90511213D01*
X118348916Y-90678000D01*
X118332490Y-90844787D01*
X118283840Y-91005162D01*
X118204838Y-91152965D01*
X118098517Y-91282517D01*
X117968965Y-91388838D01*
X117821162Y-91467840D01*
X117660787Y-91516490D01*
X117535794Y-91528800D01*
X116652206Y-91528800D01*
X116527213Y-91516490D01*
X116366838Y-91467840D01*
X116219035Y-91388838D01*
X116089483Y-91282517D01*
X115983162Y-91152965D01*
X115904160Y-91005162D01*
X115855510Y-90844787D01*
X115839084Y-90678000D01*
X115855510Y-90511213D01*
X115904160Y-90350838D01*
X115983162Y-90203035D01*
X116089483Y-90073483D01*
X116219035Y-89967162D01*
X116366838Y-89888160D01*
X116527213Y-89839510D01*
X116652206Y-89827200D01*
X117535794Y-89827200D01*
X117660787Y-89839510D01*
X117660787Y-89839510D01*
G37*
G36*
X125280787Y-87299510D02*
G01*
X125441162Y-87348160D01*
X125588965Y-87427162D01*
X125718517Y-87533483D01*
X125824838Y-87663035D01*
X125903840Y-87810838D01*
X125952490Y-87971213D01*
X125968916Y-88138000D01*
X125952490Y-88304787D01*
X125903840Y-88465162D01*
X125824838Y-88612965D01*
X125718517Y-88742517D01*
X125588965Y-88848838D01*
X125441162Y-88927840D01*
X125280787Y-88976490D01*
X125155794Y-88988800D01*
X124272206Y-88988800D01*
X124147213Y-88976490D01*
X123986838Y-88927840D01*
X123839035Y-88848838D01*
X123709483Y-88742517D01*
X123603162Y-88612965D01*
X123524160Y-88465162D01*
X123475510Y-88304787D01*
X123459084Y-88138000D01*
X123475510Y-87971213D01*
X123524160Y-87810838D01*
X123603162Y-87663035D01*
X123709483Y-87533483D01*
X123839035Y-87427162D01*
X123986838Y-87348160D01*
X124147213Y-87299510D01*
X124272206Y-87287200D01*
X125155794Y-87287200D01*
X125280787Y-87299510D01*
X125280787Y-87299510D01*
G37*
G36*
X161094787Y-87299510D02*
G01*
X161255162Y-87348160D01*
X161402965Y-87427162D01*
X161532517Y-87533483D01*
X161638838Y-87663035D01*
X161717840Y-87810838D01*
X161766490Y-87971213D01*
X161782916Y-88138000D01*
X161766490Y-88304787D01*
X161717840Y-88465162D01*
X161638838Y-88612965D01*
X161532517Y-88742517D01*
X161402965Y-88848838D01*
X161255162Y-88927840D01*
X161094787Y-88976490D01*
X160969794Y-88988800D01*
X160086206Y-88988800D01*
X159961213Y-88976490D01*
X159800838Y-88927840D01*
X159653035Y-88848838D01*
X159523483Y-88742517D01*
X159417162Y-88612965D01*
X159338160Y-88465162D01*
X159289510Y-88304787D01*
X159273084Y-88138000D01*
X159289510Y-87971213D01*
X159338160Y-87810838D01*
X159417162Y-87663035D01*
X159523483Y-87533483D01*
X159653035Y-87427162D01*
X159800838Y-87348160D01*
X159961213Y-87299510D01*
X160086206Y-87287200D01*
X160969794Y-87287200D01*
X161094787Y-87299510D01*
X161094787Y-87299510D01*
G37*
G36*
X117660787Y-87299510D02*
G01*
X117821162Y-87348160D01*
X117968965Y-87427162D01*
X118098517Y-87533483D01*
X118204838Y-87663035D01*
X118283840Y-87810838D01*
X118332490Y-87971213D01*
X118348916Y-88138000D01*
X118332490Y-88304787D01*
X118283840Y-88465162D01*
X118204838Y-88612965D01*
X118098517Y-88742517D01*
X117968965Y-88848838D01*
X117821162Y-88927840D01*
X117660787Y-88976490D01*
X117535794Y-88988800D01*
X116652206Y-88988800D01*
X116527213Y-88976490D01*
X116366838Y-88927840D01*
X116219035Y-88848838D01*
X116089483Y-88742517D01*
X115983162Y-88612965D01*
X115904160Y-88465162D01*
X115855510Y-88304787D01*
X115839084Y-88138000D01*
X115855510Y-87971213D01*
X115904160Y-87810838D01*
X115983162Y-87663035D01*
X116089483Y-87533483D01*
X116219035Y-87427162D01*
X116366838Y-87348160D01*
X116527213Y-87299510D01*
X116652206Y-87287200D01*
X117535794Y-87287200D01*
X117660787Y-87299510D01*
X117660787Y-87299510D01*
G37*
G36*
X168714787Y-87299510D02*
G01*
X168875162Y-87348160D01*
X169022965Y-87427162D01*
X169152517Y-87533483D01*
X169258838Y-87663035D01*
X169337840Y-87810838D01*
X169386490Y-87971213D01*
X169402916Y-88138000D01*
X169386490Y-88304787D01*
X169337840Y-88465162D01*
X169258838Y-88612965D01*
X169152517Y-88742517D01*
X169022965Y-88848838D01*
X168875162Y-88927840D01*
X168714787Y-88976490D01*
X168589794Y-88988800D01*
X167706206Y-88988800D01*
X167581213Y-88976490D01*
X167420838Y-88927840D01*
X167273035Y-88848838D01*
X167143483Y-88742517D01*
X167037162Y-88612965D01*
X166958160Y-88465162D01*
X166909510Y-88304787D01*
X166893084Y-88138000D01*
X166909510Y-87971213D01*
X166958160Y-87810838D01*
X167037162Y-87663035D01*
X167143483Y-87533483D01*
X167273035Y-87427162D01*
X167420838Y-87348160D01*
X167581213Y-87299510D01*
X167706206Y-87287200D01*
X168589794Y-87287200D01*
X168714787Y-87299510D01*
X168714787Y-87299510D01*
G37*
G36*
X125280787Y-84759510D02*
G01*
X125441162Y-84808160D01*
X125588965Y-84887162D01*
X125718517Y-84993483D01*
X125824838Y-85123035D01*
X125903840Y-85270838D01*
X125952490Y-85431213D01*
X125968916Y-85598000D01*
X125952490Y-85764787D01*
X125903840Y-85925162D01*
X125824838Y-86072965D01*
X125718517Y-86202517D01*
X125588965Y-86308838D01*
X125441162Y-86387840D01*
X125280787Y-86436490D01*
X125155794Y-86448800D01*
X124272206Y-86448800D01*
X124147213Y-86436490D01*
X123986838Y-86387840D01*
X123839035Y-86308838D01*
X123709483Y-86202517D01*
X123603162Y-86072965D01*
X123524160Y-85925162D01*
X123475510Y-85764787D01*
X123459084Y-85598000D01*
X123475510Y-85431213D01*
X123524160Y-85270838D01*
X123603162Y-85123035D01*
X123709483Y-84993483D01*
X123839035Y-84887162D01*
X123986838Y-84808160D01*
X124147213Y-84759510D01*
X124272206Y-84747200D01*
X125155794Y-84747200D01*
X125280787Y-84759510D01*
X125280787Y-84759510D01*
G37*
G36*
X117660787Y-84759510D02*
G01*
X117821162Y-84808160D01*
X117968965Y-84887162D01*
X118098517Y-84993483D01*
X118204838Y-85123035D01*
X118283840Y-85270838D01*
X118332490Y-85431213D01*
X118348916Y-85598000D01*
X118332490Y-85764787D01*
X118283840Y-85925162D01*
X118204838Y-86072965D01*
X118098517Y-86202517D01*
X117968965Y-86308838D01*
X117821162Y-86387840D01*
X117660787Y-86436490D01*
X117535794Y-86448800D01*
X116652206Y-86448800D01*
X116527213Y-86436490D01*
X116366838Y-86387840D01*
X116219035Y-86308838D01*
X116089483Y-86202517D01*
X115983162Y-86072965D01*
X115904160Y-85925162D01*
X115855510Y-85764787D01*
X115839084Y-85598000D01*
X115855510Y-85431213D01*
X115904160Y-85270838D01*
X115983162Y-85123035D01*
X116089483Y-84993483D01*
X116219035Y-84887162D01*
X116366838Y-84808160D01*
X116527213Y-84759510D01*
X116652206Y-84747200D01*
X117535794Y-84747200D01*
X117660787Y-84759510D01*
X117660787Y-84759510D01*
G37*
G36*
X168714787Y-84759510D02*
G01*
X168875162Y-84808160D01*
X169022965Y-84887162D01*
X169152517Y-84993483D01*
X169258838Y-85123035D01*
X169337840Y-85270838D01*
X169386490Y-85431213D01*
X169402916Y-85598000D01*
X169386490Y-85764787D01*
X169337840Y-85925162D01*
X169258838Y-86072965D01*
X169152517Y-86202517D01*
X169022965Y-86308838D01*
X168875162Y-86387840D01*
X168714787Y-86436490D01*
X168589794Y-86448800D01*
X167706206Y-86448800D01*
X167581213Y-86436490D01*
X167420838Y-86387840D01*
X167273035Y-86308838D01*
X167143483Y-86202517D01*
X167037162Y-86072965D01*
X166958160Y-85925162D01*
X166909510Y-85764787D01*
X166893084Y-85598000D01*
X166909510Y-85431213D01*
X166958160Y-85270838D01*
X167037162Y-85123035D01*
X167143483Y-84993483D01*
X167273035Y-84887162D01*
X167420838Y-84808160D01*
X167581213Y-84759510D01*
X167706206Y-84747200D01*
X168589794Y-84747200D01*
X168714787Y-84759510D01*
X168714787Y-84759510D01*
G37*
G36*
X161094787Y-84759510D02*
G01*
X161255162Y-84808160D01*
X161402965Y-84887162D01*
X161532517Y-84993483D01*
X161638838Y-85123035D01*
X161717840Y-85270838D01*
X161766490Y-85431213D01*
X161782916Y-85598000D01*
X161766490Y-85764787D01*
X161717840Y-85925162D01*
X161638838Y-86072965D01*
X161532517Y-86202517D01*
X161402965Y-86308838D01*
X161255162Y-86387840D01*
X161094787Y-86436490D01*
X160969794Y-86448800D01*
X160086206Y-86448800D01*
X159961213Y-86436490D01*
X159800838Y-86387840D01*
X159653035Y-86308838D01*
X159523483Y-86202517D01*
X159417162Y-86072965D01*
X159338160Y-85925162D01*
X159289510Y-85764787D01*
X159273084Y-85598000D01*
X159289510Y-85431213D01*
X159338160Y-85270838D01*
X159417162Y-85123035D01*
X159523483Y-84993483D01*
X159653035Y-84887162D01*
X159800838Y-84808160D01*
X159961213Y-84759510D01*
X160086206Y-84747200D01*
X160969794Y-84747200D01*
X161094787Y-84759510D01*
X161094787Y-84759510D01*
G37*
G36*
X125280787Y-82219510D02*
G01*
X125441162Y-82268160D01*
X125588965Y-82347162D01*
X125718517Y-82453483D01*
X125824838Y-82583035D01*
X125903840Y-82730838D01*
X125952490Y-82891213D01*
X125968916Y-83058000D01*
X125952490Y-83224787D01*
X125903840Y-83385162D01*
X125824838Y-83532965D01*
X125718517Y-83662517D01*
X125588965Y-83768838D01*
X125441162Y-83847840D01*
X125280787Y-83896490D01*
X125155794Y-83908800D01*
X124272206Y-83908800D01*
X124147213Y-83896490D01*
X123986838Y-83847840D01*
X123839035Y-83768838D01*
X123709483Y-83662517D01*
X123603162Y-83532965D01*
X123524160Y-83385162D01*
X123475510Y-83224787D01*
X123459084Y-83058000D01*
X123475510Y-82891213D01*
X123524160Y-82730838D01*
X123603162Y-82583035D01*
X123709483Y-82453483D01*
X123839035Y-82347162D01*
X123986838Y-82268160D01*
X124147213Y-82219510D01*
X124272206Y-82207200D01*
X125155794Y-82207200D01*
X125280787Y-82219510D01*
X125280787Y-82219510D01*
G37*
G36*
X161778800Y-83908800D02*
G01*
X159277200Y-83908800D01*
X159277200Y-82207200D01*
X161778800Y-82207200D01*
X161778800Y-83908800D01*
X161778800Y-83908800D01*
G37*
G36*
X168714787Y-82219510D02*
G01*
X168875162Y-82268160D01*
X169022965Y-82347162D01*
X169152517Y-82453483D01*
X169258838Y-82583035D01*
X169337840Y-82730838D01*
X169386490Y-82891213D01*
X169402916Y-83058000D01*
X169386490Y-83224787D01*
X169337840Y-83385162D01*
X169258838Y-83532965D01*
X169152517Y-83662517D01*
X169022965Y-83768838D01*
X168875162Y-83847840D01*
X168714787Y-83896490D01*
X168589794Y-83908800D01*
X167706206Y-83908800D01*
X167581213Y-83896490D01*
X167420838Y-83847840D01*
X167273035Y-83768838D01*
X167143483Y-83662517D01*
X167037162Y-83532965D01*
X166958160Y-83385162D01*
X166909510Y-83224787D01*
X166893084Y-83058000D01*
X166909510Y-82891213D01*
X166958160Y-82730838D01*
X167037162Y-82583035D01*
X167143483Y-82453483D01*
X167273035Y-82347162D01*
X167420838Y-82268160D01*
X167581213Y-82219510D01*
X167706206Y-82207200D01*
X168589794Y-82207200D01*
X168714787Y-82219510D01*
X168714787Y-82219510D01*
G37*
G36*
X118344800Y-83908800D02*
G01*
X115843200Y-83908800D01*
X115843200Y-82207200D01*
X118344800Y-82207200D01*
X118344800Y-83908800D01*
X118344800Y-83908800D01*
G37*
G36*
X153631800Y-80098800D02*
G01*
X151930200Y-80098800D01*
X151930200Y-78397200D01*
X153631800Y-78397200D01*
X153631800Y-80098800D01*
X153631800Y-80098800D01*
G37*
G36*
X164109169Y-78429895D02*
G01*
X164264005Y-78494031D01*
X164403354Y-78587140D01*
X164521860Y-78705646D01*
X164614969Y-78844995D01*
X164679105Y-78999831D01*
X164711800Y-79164203D01*
X164711800Y-79331797D01*
X164679105Y-79496169D01*
X164614969Y-79651005D01*
X164521860Y-79790354D01*
X164403354Y-79908860D01*
X164264005Y-80001969D01*
X164109169Y-80066105D01*
X163944797Y-80098800D01*
X163777203Y-80098800D01*
X163612831Y-80066105D01*
X163457995Y-80001969D01*
X163318646Y-79908860D01*
X163200140Y-79790354D01*
X163107031Y-79651005D01*
X163042895Y-79496169D01*
X163010200Y-79331797D01*
X163010200Y-79164203D01*
X163042895Y-78999831D01*
X163107031Y-78844995D01*
X163200140Y-78705646D01*
X163318646Y-78587140D01*
X163457995Y-78494031D01*
X163612831Y-78429895D01*
X163777203Y-78397200D01*
X163944797Y-78397200D01*
X164109169Y-78429895D01*
X164109169Y-78429895D01*
G37*
G36*
X155799169Y-78429895D02*
G01*
X155954005Y-78494031D01*
X156093354Y-78587140D01*
X156211860Y-78705646D01*
X156304969Y-78844995D01*
X156369105Y-78999831D01*
X156401800Y-79164203D01*
X156401800Y-79331797D01*
X156369105Y-79496169D01*
X156304969Y-79651005D01*
X156211860Y-79790354D01*
X156093354Y-79908860D01*
X155954005Y-80001969D01*
X155799169Y-80066105D01*
X155634797Y-80098800D01*
X155467203Y-80098800D01*
X155302831Y-80066105D01*
X155147995Y-80001969D01*
X155008646Y-79908860D01*
X154890140Y-79790354D01*
X154797031Y-79651005D01*
X154732895Y-79496169D01*
X154700200Y-79331797D01*
X154700200Y-79164203D01*
X154732895Y-78999831D01*
X154797031Y-78844995D01*
X154890140Y-78705646D01*
X155008646Y-78587140D01*
X155147995Y-78494031D01*
X155302831Y-78429895D01*
X155467203Y-78397200D01*
X155634797Y-78397200D01*
X155799169Y-78429895D01*
X155799169Y-78429895D01*
G37*
G36*
X161339169Y-78429895D02*
G01*
X161494005Y-78494031D01*
X161633354Y-78587140D01*
X161751860Y-78705646D01*
X161844969Y-78844995D01*
X161909105Y-78999831D01*
X161941800Y-79164203D01*
X161941800Y-79331797D01*
X161909105Y-79496169D01*
X161844969Y-79651005D01*
X161751860Y-79790354D01*
X161633354Y-79908860D01*
X161494005Y-80001969D01*
X161339169Y-80066105D01*
X161174797Y-80098800D01*
X161007203Y-80098800D01*
X160842831Y-80066105D01*
X160687995Y-80001969D01*
X160548646Y-79908860D01*
X160430140Y-79790354D01*
X160337031Y-79651005D01*
X160272895Y-79496169D01*
X160240200Y-79331797D01*
X160240200Y-79164203D01*
X160272895Y-78999831D01*
X160337031Y-78844995D01*
X160430140Y-78705646D01*
X160548646Y-78587140D01*
X160687995Y-78494031D01*
X160842831Y-78429895D01*
X161007203Y-78397200D01*
X161174797Y-78397200D01*
X161339169Y-78429895D01*
X161339169Y-78429895D01*
G37*
G36*
X158569169Y-78429895D02*
G01*
X158724005Y-78494031D01*
X158863354Y-78587140D01*
X158981860Y-78705646D01*
X159074969Y-78844995D01*
X159139105Y-78999831D01*
X159171800Y-79164203D01*
X159171800Y-79331797D01*
X159139105Y-79496169D01*
X159074969Y-79651005D01*
X158981860Y-79790354D01*
X158863354Y-79908860D01*
X158724005Y-80001969D01*
X158569169Y-80066105D01*
X158404797Y-80098800D01*
X158237203Y-80098800D01*
X158072831Y-80066105D01*
X157917995Y-80001969D01*
X157778646Y-79908860D01*
X157660140Y-79790354D01*
X157567031Y-79651005D01*
X157502895Y-79496169D01*
X157470200Y-79331797D01*
X157470200Y-79164203D01*
X157502895Y-78999831D01*
X157567031Y-78844995D01*
X157660140Y-78705646D01*
X157778646Y-78587140D01*
X157917995Y-78494031D01*
X158072831Y-78429895D01*
X158237203Y-78397200D01*
X158404797Y-78397200D01*
X158569169Y-78429895D01*
X158569169Y-78429895D01*
G37*
G36*
X132105169Y-78429895D02*
G01*
X132260005Y-78494031D01*
X132399354Y-78587140D01*
X132517860Y-78705646D01*
X132610969Y-78844995D01*
X132675105Y-78999831D01*
X132707800Y-79164203D01*
X132707800Y-79331797D01*
X132675105Y-79496169D01*
X132610969Y-79651005D01*
X132517860Y-79790354D01*
X132399354Y-79908860D01*
X132260005Y-80001969D01*
X132105169Y-80066105D01*
X131940797Y-80098800D01*
X131773203Y-80098800D01*
X131608831Y-80066105D01*
X131453995Y-80001969D01*
X131314646Y-79908860D01*
X131196140Y-79790354D01*
X131103031Y-79651005D01*
X131038895Y-79496169D01*
X131006200Y-79331797D01*
X131006200Y-79164203D01*
X131038895Y-78999831D01*
X131103031Y-78844995D01*
X131196140Y-78705646D01*
X131314646Y-78587140D01*
X131453995Y-78494031D01*
X131608831Y-78429895D01*
X131773203Y-78397200D01*
X131940797Y-78397200D01*
X132105169Y-78429895D01*
X132105169Y-78429895D01*
G37*
G36*
X129335169Y-78429895D02*
G01*
X129490005Y-78494031D01*
X129629354Y-78587140D01*
X129747860Y-78705646D01*
X129840969Y-78844995D01*
X129905105Y-78999831D01*
X129937800Y-79164203D01*
X129937800Y-79331797D01*
X129905105Y-79496169D01*
X129840969Y-79651005D01*
X129747860Y-79790354D01*
X129629354Y-79908860D01*
X129490005Y-80001969D01*
X129335169Y-80066105D01*
X129170797Y-80098800D01*
X129003203Y-80098800D01*
X128838831Y-80066105D01*
X128683995Y-80001969D01*
X128544646Y-79908860D01*
X128426140Y-79790354D01*
X128333031Y-79651005D01*
X128268895Y-79496169D01*
X128236200Y-79331797D01*
X128236200Y-79164203D01*
X128268895Y-78999831D01*
X128333031Y-78844995D01*
X128426140Y-78705646D01*
X128544646Y-78587140D01*
X128683995Y-78494031D01*
X128838831Y-78429895D01*
X129003203Y-78397200D01*
X129170797Y-78397200D01*
X129335169Y-78429895D01*
X129335169Y-78429895D01*
G37*
G36*
X126565169Y-78429895D02*
G01*
X126720005Y-78494031D01*
X126859354Y-78587140D01*
X126977860Y-78705646D01*
X127070969Y-78844995D01*
X127135105Y-78999831D01*
X127167800Y-79164203D01*
X127167800Y-79331797D01*
X127135105Y-79496169D01*
X127070969Y-79651005D01*
X126977860Y-79790354D01*
X126859354Y-79908860D01*
X126720005Y-80001969D01*
X126565169Y-80066105D01*
X126400797Y-80098800D01*
X126233203Y-80098800D01*
X126068831Y-80066105D01*
X125913995Y-80001969D01*
X125774646Y-79908860D01*
X125656140Y-79790354D01*
X125563031Y-79651005D01*
X125498895Y-79496169D01*
X125466200Y-79331797D01*
X125466200Y-79164203D01*
X125498895Y-78999831D01*
X125563031Y-78844995D01*
X125656140Y-78705646D01*
X125774646Y-78587140D01*
X125913995Y-78494031D01*
X126068831Y-78429895D01*
X126233203Y-78397200D01*
X126400797Y-78397200D01*
X126565169Y-78429895D01*
X126565169Y-78429895D01*
G37*
G36*
X123795169Y-78429895D02*
G01*
X123950005Y-78494031D01*
X124089354Y-78587140D01*
X124207860Y-78705646D01*
X124300969Y-78844995D01*
X124365105Y-78999831D01*
X124397800Y-79164203D01*
X124397800Y-79331797D01*
X124365105Y-79496169D01*
X124300969Y-79651005D01*
X124207860Y-79790354D01*
X124089354Y-79908860D01*
X123950005Y-80001969D01*
X123795169Y-80066105D01*
X123630797Y-80098800D01*
X123463203Y-80098800D01*
X123298831Y-80066105D01*
X123143995Y-80001969D01*
X123004646Y-79908860D01*
X122886140Y-79790354D01*
X122793031Y-79651005D01*
X122728895Y-79496169D01*
X122696200Y-79331797D01*
X122696200Y-79164203D01*
X122728895Y-78999831D01*
X122793031Y-78844995D01*
X122886140Y-78705646D01*
X123004646Y-78587140D01*
X123143995Y-78494031D01*
X123298831Y-78429895D01*
X123463203Y-78397200D01*
X123630797Y-78397200D01*
X123795169Y-78429895D01*
X123795169Y-78429895D01*
G37*
G36*
X121627800Y-80098800D02*
G01*
X119926200Y-80098800D01*
X119926200Y-78397200D01*
X121627800Y-78397200D01*
X121627800Y-80098800D01*
X121627800Y-80098800D01*
G37*
G36*
X122410169Y-75589895D02*
G01*
X122565005Y-75654031D01*
X122704354Y-75747140D01*
X122822860Y-75865646D01*
X122915969Y-76004995D01*
X122980105Y-76159831D01*
X123012800Y-76324203D01*
X123012800Y-76491797D01*
X122980105Y-76656169D01*
X122915969Y-76811005D01*
X122822860Y-76950354D01*
X122704354Y-77068860D01*
X122565005Y-77161969D01*
X122410169Y-77226105D01*
X122245797Y-77258800D01*
X122078203Y-77258800D01*
X121913831Y-77226105D01*
X121758995Y-77161969D01*
X121619646Y-77068860D01*
X121501140Y-76950354D01*
X121408031Y-76811005D01*
X121343895Y-76656169D01*
X121311200Y-76491797D01*
X121311200Y-76324203D01*
X121343895Y-76159831D01*
X121408031Y-76004995D01*
X121501140Y-75865646D01*
X121619646Y-75747140D01*
X121758995Y-75654031D01*
X121913831Y-75589895D01*
X122078203Y-75557200D01*
X122245797Y-75557200D01*
X122410169Y-75589895D01*
X122410169Y-75589895D01*
G37*
G36*
X125180169Y-75589895D02*
G01*
X125335005Y-75654031D01*
X125474354Y-75747140D01*
X125592860Y-75865646D01*
X125685969Y-76004995D01*
X125750105Y-76159831D01*
X125782800Y-76324203D01*
X125782800Y-76491797D01*
X125750105Y-76656169D01*
X125685969Y-76811005D01*
X125592860Y-76950354D01*
X125474354Y-77068860D01*
X125335005Y-77161969D01*
X125180169Y-77226105D01*
X125015797Y-77258800D01*
X124848203Y-77258800D01*
X124683831Y-77226105D01*
X124528995Y-77161969D01*
X124389646Y-77068860D01*
X124271140Y-76950354D01*
X124178031Y-76811005D01*
X124113895Y-76656169D01*
X124081200Y-76491797D01*
X124081200Y-76324203D01*
X124113895Y-76159831D01*
X124178031Y-76004995D01*
X124271140Y-75865646D01*
X124389646Y-75747140D01*
X124528995Y-75654031D01*
X124683831Y-75589895D01*
X124848203Y-75557200D01*
X125015797Y-75557200D01*
X125180169Y-75589895D01*
X125180169Y-75589895D01*
G37*
G36*
X159954169Y-75589895D02*
G01*
X160109005Y-75654031D01*
X160248354Y-75747140D01*
X160366860Y-75865646D01*
X160459969Y-76004995D01*
X160524105Y-76159831D01*
X160556800Y-76324203D01*
X160556800Y-76491797D01*
X160524105Y-76656169D01*
X160459969Y-76811005D01*
X160366860Y-76950354D01*
X160248354Y-77068860D01*
X160109005Y-77161969D01*
X159954169Y-77226105D01*
X159789797Y-77258800D01*
X159622203Y-77258800D01*
X159457831Y-77226105D01*
X159302995Y-77161969D01*
X159163646Y-77068860D01*
X159045140Y-76950354D01*
X158952031Y-76811005D01*
X158887895Y-76656169D01*
X158855200Y-76491797D01*
X158855200Y-76324203D01*
X158887895Y-76159831D01*
X158952031Y-76004995D01*
X159045140Y-75865646D01*
X159163646Y-75747140D01*
X159302995Y-75654031D01*
X159457831Y-75589895D01*
X159622203Y-75557200D01*
X159789797Y-75557200D01*
X159954169Y-75589895D01*
X159954169Y-75589895D01*
G37*
G36*
X130720169Y-75589895D02*
G01*
X130875005Y-75654031D01*
X131014354Y-75747140D01*
X131132860Y-75865646D01*
X131225969Y-76004995D01*
X131290105Y-76159831D01*
X131322800Y-76324203D01*
X131322800Y-76491797D01*
X131290105Y-76656169D01*
X131225969Y-76811005D01*
X131132860Y-76950354D01*
X131014354Y-77068860D01*
X130875005Y-77161969D01*
X130720169Y-77226105D01*
X130555797Y-77258800D01*
X130388203Y-77258800D01*
X130223831Y-77226105D01*
X130068995Y-77161969D01*
X129929646Y-77068860D01*
X129811140Y-76950354D01*
X129718031Y-76811005D01*
X129653895Y-76656169D01*
X129621200Y-76491797D01*
X129621200Y-76324203D01*
X129653895Y-76159831D01*
X129718031Y-76004995D01*
X129811140Y-75865646D01*
X129929646Y-75747140D01*
X130068995Y-75654031D01*
X130223831Y-75589895D01*
X130388203Y-75557200D01*
X130555797Y-75557200D01*
X130720169Y-75589895D01*
X130720169Y-75589895D01*
G37*
G36*
X162724169Y-75589895D02*
G01*
X162879005Y-75654031D01*
X163018354Y-75747140D01*
X163136860Y-75865646D01*
X163229969Y-76004995D01*
X163294105Y-76159831D01*
X163326800Y-76324203D01*
X163326800Y-76491797D01*
X163294105Y-76656169D01*
X163229969Y-76811005D01*
X163136860Y-76950354D01*
X163018354Y-77068860D01*
X162879005Y-77161969D01*
X162724169Y-77226105D01*
X162559797Y-77258800D01*
X162392203Y-77258800D01*
X162227831Y-77226105D01*
X162072995Y-77161969D01*
X161933646Y-77068860D01*
X161815140Y-76950354D01*
X161722031Y-76811005D01*
X161657895Y-76656169D01*
X161625200Y-76491797D01*
X161625200Y-76324203D01*
X161657895Y-76159831D01*
X161722031Y-76004995D01*
X161815140Y-75865646D01*
X161933646Y-75747140D01*
X162072995Y-75654031D01*
X162227831Y-75589895D01*
X162392203Y-75557200D01*
X162559797Y-75557200D01*
X162724169Y-75589895D01*
X162724169Y-75589895D01*
G37*
G36*
X154414169Y-75589895D02*
G01*
X154569005Y-75654031D01*
X154708354Y-75747140D01*
X154826860Y-75865646D01*
X154919969Y-76004995D01*
X154984105Y-76159831D01*
X155016800Y-76324203D01*
X155016800Y-76491797D01*
X154984105Y-76656169D01*
X154919969Y-76811005D01*
X154826860Y-76950354D01*
X154708354Y-77068860D01*
X154569005Y-77161969D01*
X154414169Y-77226105D01*
X154249797Y-77258800D01*
X154082203Y-77258800D01*
X153917831Y-77226105D01*
X153762995Y-77161969D01*
X153623646Y-77068860D01*
X153505140Y-76950354D01*
X153412031Y-76811005D01*
X153347895Y-76656169D01*
X153315200Y-76491797D01*
X153315200Y-76324203D01*
X153347895Y-76159831D01*
X153412031Y-76004995D01*
X153505140Y-75865646D01*
X153623646Y-75747140D01*
X153762995Y-75654031D01*
X153917831Y-75589895D01*
X154082203Y-75557200D01*
X154249797Y-75557200D01*
X154414169Y-75589895D01*
X154414169Y-75589895D01*
G37*
G36*
X127950169Y-75589895D02*
G01*
X128105005Y-75654031D01*
X128244354Y-75747140D01*
X128362860Y-75865646D01*
X128455969Y-76004995D01*
X128520105Y-76159831D01*
X128552800Y-76324203D01*
X128552800Y-76491797D01*
X128520105Y-76656169D01*
X128455969Y-76811005D01*
X128362860Y-76950354D01*
X128244354Y-77068860D01*
X128105005Y-77161969D01*
X127950169Y-77226105D01*
X127785797Y-77258800D01*
X127618203Y-77258800D01*
X127453831Y-77226105D01*
X127298995Y-77161969D01*
X127159646Y-77068860D01*
X127041140Y-76950354D01*
X126948031Y-76811005D01*
X126883895Y-76656169D01*
X126851200Y-76491797D01*
X126851200Y-76324203D01*
X126883895Y-76159831D01*
X126948031Y-76004995D01*
X127041140Y-75865646D01*
X127159646Y-75747140D01*
X127298995Y-75654031D01*
X127453831Y-75589895D01*
X127618203Y-75557200D01*
X127785797Y-75557200D01*
X127950169Y-75589895D01*
X127950169Y-75589895D01*
G37*
G36*
X157184169Y-75589895D02*
G01*
X157339005Y-75654031D01*
X157478354Y-75747140D01*
X157596860Y-75865646D01*
X157689969Y-76004995D01*
X157754105Y-76159831D01*
X157786800Y-76324203D01*
X157786800Y-76491797D01*
X157754105Y-76656169D01*
X157689969Y-76811005D01*
X157596860Y-76950354D01*
X157478354Y-77068860D01*
X157339005Y-77161969D01*
X157184169Y-77226105D01*
X157019797Y-77258800D01*
X156852203Y-77258800D01*
X156687831Y-77226105D01*
X156532995Y-77161969D01*
X156393646Y-77068860D01*
X156275140Y-76950354D01*
X156182031Y-76811005D01*
X156117895Y-76656169D01*
X156085200Y-76491797D01*
X156085200Y-76324203D01*
X156117895Y-76159831D01*
X156182031Y-76004995D01*
X156275140Y-75865646D01*
X156393646Y-75747140D01*
X156532995Y-75654031D01*
X156687831Y-75589895D01*
X156852203Y-75557200D01*
X157019797Y-75557200D01*
X157184169Y-75589895D01*
X157184169Y-75589895D01*
G37*
M02*
