G04 #@! TF.GenerationSoftware,KiCad,Pcbnew,(5.1.0-0)*
G04 #@! TF.CreationDate,2019-03-28T18:25:31-07:00*
G04 #@! TF.ProjectId,unijoysticle,756e696a-6f79-4737-9469-636c652e6b69,v0.0.1*
G04 #@! TF.SameCoordinates,Original*
G04 #@! TF.FileFunction,Soldermask,Bot*
G04 #@! TF.FilePolarity,Negative*
%FSLAX46Y46*%
G04 Gerber Fmt 4.6, Leading zero omitted, Abs format (unit mm)*
G04 Created by KiCad (PCBNEW (5.1.0-0)) date 2019-03-28 18:25:31*
%MOMM*%
%LPD*%
G04 APERTURE LIST*
%ADD10C,0.100000*%
G04 APERTURE END LIST*
D10*
G36*
X119072200Y-113842402D02*
G01*
X119143091Y-113856503D01*
X119226071Y-113890875D01*
X119343423Y-113939483D01*
X119343424Y-113939484D01*
X119523719Y-114059953D01*
X119677047Y-114213281D01*
X119737691Y-114304041D01*
X119797517Y-114393577D01*
X119880497Y-114593910D01*
X119920156Y-114793286D01*
X119922800Y-114806581D01*
X119922800Y-115023419D01*
X119880497Y-115236091D01*
X119869373Y-115262947D01*
X119797517Y-115436423D01*
X119797516Y-115436424D01*
X119677047Y-115616719D01*
X119523719Y-115770047D01*
X119520519Y-115772185D01*
X119343423Y-115890517D01*
X119226071Y-115939125D01*
X119143091Y-115973497D01*
X119072200Y-115987598D01*
X118930421Y-116015800D01*
X118713579Y-116015800D01*
X118571800Y-115987598D01*
X118500909Y-115973497D01*
X118417929Y-115939125D01*
X118300577Y-115890517D01*
X118123481Y-115772185D01*
X118120281Y-115770047D01*
X117966953Y-115616719D01*
X117846484Y-115436424D01*
X117846483Y-115436423D01*
X117774627Y-115262947D01*
X117763503Y-115236091D01*
X117721200Y-115023419D01*
X117721200Y-114806581D01*
X117723845Y-114793286D01*
X117763503Y-114593910D01*
X117846483Y-114393577D01*
X117906309Y-114304041D01*
X117966953Y-114213281D01*
X118120281Y-114059953D01*
X118300576Y-113939484D01*
X118300577Y-113939483D01*
X118417929Y-113890875D01*
X118500909Y-113856503D01*
X118571800Y-113842402D01*
X118713579Y-113814200D01*
X118930421Y-113814200D01*
X119072200Y-113842402D01*
X119072200Y-113842402D01*
G37*
G36*
X125567999Y-114467052D02*
G01*
X125704639Y-114523650D01*
X125827605Y-114605813D01*
X125932187Y-114710395D01*
X126014350Y-114833361D01*
X126070948Y-114970001D01*
X126099800Y-115115051D01*
X126099800Y-115262949D01*
X126070948Y-115407999D01*
X126014350Y-115544639D01*
X125932187Y-115667605D01*
X125827605Y-115772187D01*
X125704639Y-115854350D01*
X125567999Y-115910948D01*
X125422949Y-115939800D01*
X125275051Y-115939800D01*
X125130001Y-115910948D01*
X124993361Y-115854350D01*
X124870395Y-115772187D01*
X124765813Y-115667605D01*
X124683650Y-115544639D01*
X124627052Y-115407999D01*
X124598200Y-115262949D01*
X124598200Y-115115051D01*
X124627052Y-114970001D01*
X124683650Y-114833361D01*
X124765813Y-114710395D01*
X124870395Y-114605813D01*
X124993361Y-114523650D01*
X125130001Y-114467052D01*
X125275051Y-114438200D01*
X125422949Y-114438200D01*
X125567999Y-114467052D01*
X125567999Y-114467052D01*
G37*
G36*
X122773999Y-114467052D02*
G01*
X122910639Y-114523650D01*
X123033605Y-114605813D01*
X123138187Y-114710395D01*
X123220350Y-114833361D01*
X123276948Y-114970001D01*
X123305800Y-115115051D01*
X123305800Y-115262949D01*
X123276948Y-115407999D01*
X123220350Y-115544639D01*
X123138187Y-115667605D01*
X123033605Y-115772187D01*
X122910639Y-115854350D01*
X122773999Y-115910948D01*
X122628949Y-115939800D01*
X122481051Y-115939800D01*
X122336001Y-115910948D01*
X122199361Y-115854350D01*
X122076395Y-115772187D01*
X121971813Y-115667605D01*
X121889650Y-115544639D01*
X121833052Y-115407999D01*
X121804200Y-115262949D01*
X121804200Y-115115051D01*
X121833052Y-114970001D01*
X121889650Y-114833361D01*
X121971813Y-114710395D01*
X122076395Y-114605813D01*
X122199361Y-114523650D01*
X122336001Y-114467052D01*
X122481051Y-114438200D01*
X122628949Y-114438200D01*
X122773999Y-114467052D01*
X122773999Y-114467052D01*
G37*
G36*
X162328800Y-115592800D02*
G01*
X158727200Y-115592800D01*
X158727200Y-111991200D01*
X162328800Y-111991200D01*
X162328800Y-115592800D01*
X162328800Y-115592800D01*
G37*
G36*
X167504860Y-112005491D02*
G01*
X167638487Y-112046026D01*
X167761629Y-112111847D01*
X167869569Y-112200431D01*
X167958153Y-112308371D01*
X168023974Y-112431513D01*
X168064509Y-112565140D01*
X168078800Y-112710240D01*
X168078800Y-114873760D01*
X168064509Y-115018860D01*
X168023974Y-115152487D01*
X167958153Y-115275629D01*
X167869569Y-115383569D01*
X167761629Y-115472153D01*
X167638487Y-115537974D01*
X167504860Y-115578509D01*
X167359760Y-115592800D01*
X165696240Y-115592800D01*
X165551140Y-115578509D01*
X165417513Y-115537974D01*
X165294371Y-115472153D01*
X165186431Y-115383569D01*
X165097847Y-115275629D01*
X165032026Y-115152487D01*
X164991491Y-115018860D01*
X164977200Y-114873760D01*
X164977200Y-112710240D01*
X164991491Y-112565140D01*
X165032026Y-112431513D01*
X165097847Y-112308371D01*
X165186431Y-112200431D01*
X165294371Y-112111847D01*
X165417513Y-112046026D01*
X165551140Y-112005491D01*
X165696240Y-111991200D01*
X167359760Y-111991200D01*
X167504860Y-112005491D01*
X167504860Y-112005491D01*
G37*
G36*
X157505400Y-115341400D02*
G01*
X155422600Y-115341400D01*
X155422600Y-113258600D01*
X157505400Y-113258600D01*
X157505400Y-115341400D01*
X157505400Y-115341400D01*
G37*
G36*
X132105400Y-115341400D02*
G01*
X130022600Y-115341400D01*
X130022600Y-113258600D01*
X132105400Y-113258600D01*
X132105400Y-115341400D01*
X132105400Y-115341400D01*
G37*
G36*
X154227765Y-113298620D02*
G01*
X154417288Y-113377123D01*
X154587854Y-113491092D01*
X154732908Y-113636146D01*
X154846877Y-113806712D01*
X154846878Y-113806714D01*
X154925380Y-113996235D01*
X154965400Y-114197430D01*
X154965400Y-114402570D01*
X154925380Y-114603765D01*
X154881213Y-114710395D01*
X154846877Y-114793288D01*
X154732908Y-114963854D01*
X154587854Y-115108908D01*
X154417288Y-115222877D01*
X154417287Y-115222878D01*
X154417286Y-115222878D01*
X154227765Y-115301380D01*
X154026570Y-115341400D01*
X153821430Y-115341400D01*
X153620235Y-115301380D01*
X153430714Y-115222878D01*
X153430713Y-115222878D01*
X153430712Y-115222877D01*
X153260146Y-115108908D01*
X153115092Y-114963854D01*
X153001123Y-114793288D01*
X152966788Y-114710395D01*
X152922620Y-114603765D01*
X152882600Y-114402570D01*
X152882600Y-114197430D01*
X152922620Y-113996235D01*
X153001122Y-113806714D01*
X153001123Y-113806712D01*
X153115092Y-113636146D01*
X153260146Y-113491092D01*
X153430712Y-113377123D01*
X153620235Y-113298620D01*
X153821430Y-113258600D01*
X154026570Y-113258600D01*
X154227765Y-113298620D01*
X154227765Y-113298620D01*
G37*
G36*
X128827765Y-113298620D02*
G01*
X129017288Y-113377123D01*
X129187854Y-113491092D01*
X129332908Y-113636146D01*
X129446877Y-113806712D01*
X129446878Y-113806714D01*
X129525380Y-113996235D01*
X129565400Y-114197430D01*
X129565400Y-114402570D01*
X129525380Y-114603765D01*
X129481213Y-114710395D01*
X129446877Y-114793288D01*
X129332908Y-114963854D01*
X129187854Y-115108908D01*
X129017288Y-115222877D01*
X129017287Y-115222878D01*
X129017286Y-115222878D01*
X128827765Y-115301380D01*
X128626570Y-115341400D01*
X128421430Y-115341400D01*
X128220235Y-115301380D01*
X128030714Y-115222878D01*
X128030713Y-115222878D01*
X128030712Y-115222877D01*
X127860146Y-115108908D01*
X127715092Y-114963854D01*
X127601123Y-114793288D01*
X127566788Y-114710395D01*
X127522620Y-114603765D01*
X127482600Y-114402570D01*
X127482600Y-114197430D01*
X127522620Y-113996235D01*
X127601122Y-113806714D01*
X127601123Y-113806712D01*
X127715092Y-113636146D01*
X127860146Y-113491092D01*
X128030712Y-113377123D01*
X128220235Y-113298620D01*
X128421430Y-113258600D01*
X128626570Y-113258600D01*
X128827765Y-113298620D01*
X128827765Y-113298620D01*
G37*
G36*
X116534690Y-112761380D02*
G01*
X116602046Y-112774778D01*
X116770531Y-112844566D01*
X116922163Y-112945884D01*
X117051116Y-113074837D01*
X117152434Y-113226469D01*
X117222222Y-113394954D01*
X117257800Y-113573817D01*
X117257800Y-113756183D01*
X117222222Y-113935046D01*
X117152434Y-114103531D01*
X117051116Y-114255163D01*
X116922163Y-114384116D01*
X116770531Y-114485434D01*
X116602046Y-114555222D01*
X116542425Y-114567081D01*
X116423185Y-114590800D01*
X116240815Y-114590800D01*
X116121575Y-114567081D01*
X116061954Y-114555222D01*
X115893469Y-114485434D01*
X115741837Y-114384116D01*
X115612884Y-114255163D01*
X115511566Y-114103531D01*
X115441778Y-113935046D01*
X115406200Y-113756183D01*
X115406200Y-113573817D01*
X115441778Y-113394954D01*
X115511566Y-113226469D01*
X115612884Y-113074837D01*
X115741837Y-112945884D01*
X115893469Y-112844566D01*
X116061954Y-112774778D01*
X116129310Y-112761380D01*
X116240815Y-112739200D01*
X116423185Y-112739200D01*
X116534690Y-112761380D01*
X116534690Y-112761380D01*
G37*
G36*
X154227765Y-110758620D02*
G01*
X154396372Y-110828459D01*
X154417288Y-110837123D01*
X154587854Y-110951092D01*
X154732908Y-111096146D01*
X154846877Y-111266712D01*
X154925380Y-111456235D01*
X154965400Y-111657431D01*
X154965400Y-111862569D01*
X154925380Y-112063765D01*
X154846877Y-112253288D01*
X154732908Y-112423854D01*
X154587854Y-112568908D01*
X154417288Y-112682877D01*
X154417287Y-112682878D01*
X154417286Y-112682878D01*
X154227765Y-112761380D01*
X154026570Y-112801400D01*
X153821430Y-112801400D01*
X153620235Y-112761380D01*
X153430714Y-112682878D01*
X153430713Y-112682878D01*
X153430712Y-112682877D01*
X153260146Y-112568908D01*
X153115092Y-112423854D01*
X153001123Y-112253288D01*
X152922620Y-112063765D01*
X152882600Y-111862569D01*
X152882600Y-111657431D01*
X152922620Y-111456235D01*
X153001123Y-111266712D01*
X153115092Y-111096146D01*
X153260146Y-110951092D01*
X153430712Y-110837123D01*
X153451629Y-110828459D01*
X153620235Y-110758620D01*
X153821430Y-110718600D01*
X154026570Y-110718600D01*
X154227765Y-110758620D01*
X154227765Y-110758620D01*
G37*
G36*
X131367765Y-110758620D02*
G01*
X131536372Y-110828459D01*
X131557288Y-110837123D01*
X131727854Y-110951092D01*
X131872908Y-111096146D01*
X131986877Y-111266712D01*
X132065380Y-111456235D01*
X132105400Y-111657431D01*
X132105400Y-111862569D01*
X132065380Y-112063765D01*
X131986877Y-112253288D01*
X131872908Y-112423854D01*
X131727854Y-112568908D01*
X131557288Y-112682877D01*
X131557287Y-112682878D01*
X131557286Y-112682878D01*
X131367765Y-112761380D01*
X131166570Y-112801400D01*
X130961430Y-112801400D01*
X130760235Y-112761380D01*
X130570714Y-112682878D01*
X130570713Y-112682878D01*
X130570712Y-112682877D01*
X130400146Y-112568908D01*
X130255092Y-112423854D01*
X130141123Y-112253288D01*
X130062620Y-112063765D01*
X130022600Y-111862569D01*
X130022600Y-111657431D01*
X130062620Y-111456235D01*
X130141123Y-111266712D01*
X130255092Y-111096146D01*
X130400146Y-110951092D01*
X130570712Y-110837123D01*
X130591629Y-110828459D01*
X130760235Y-110758620D01*
X130961430Y-110718600D01*
X131166570Y-110718600D01*
X131367765Y-110758620D01*
X131367765Y-110758620D01*
G37*
G36*
X128827765Y-110758620D02*
G01*
X128996372Y-110828459D01*
X129017288Y-110837123D01*
X129187854Y-110951092D01*
X129332908Y-111096146D01*
X129446877Y-111266712D01*
X129525380Y-111456235D01*
X129565400Y-111657431D01*
X129565400Y-111862569D01*
X129525380Y-112063765D01*
X129446877Y-112253288D01*
X129332908Y-112423854D01*
X129187854Y-112568908D01*
X129017288Y-112682877D01*
X129017287Y-112682878D01*
X129017286Y-112682878D01*
X128827765Y-112761380D01*
X128626570Y-112801400D01*
X128421430Y-112801400D01*
X128220235Y-112761380D01*
X128030714Y-112682878D01*
X128030713Y-112682878D01*
X128030712Y-112682877D01*
X127860146Y-112568908D01*
X127715092Y-112423854D01*
X127601123Y-112253288D01*
X127522620Y-112063765D01*
X127482600Y-111862569D01*
X127482600Y-111657431D01*
X127522620Y-111456235D01*
X127601123Y-111266712D01*
X127715092Y-111096146D01*
X127860146Y-110951092D01*
X128030712Y-110837123D01*
X128051629Y-110828459D01*
X128220235Y-110758620D01*
X128421430Y-110718600D01*
X128626570Y-110718600D01*
X128827765Y-110758620D01*
X128827765Y-110758620D01*
G37*
G36*
X156767765Y-110758620D02*
G01*
X156936372Y-110828459D01*
X156957288Y-110837123D01*
X157127854Y-110951092D01*
X157272908Y-111096146D01*
X157386877Y-111266712D01*
X157465380Y-111456235D01*
X157505400Y-111657431D01*
X157505400Y-111862569D01*
X157465380Y-112063765D01*
X157386877Y-112253288D01*
X157272908Y-112423854D01*
X157127854Y-112568908D01*
X156957288Y-112682877D01*
X156957287Y-112682878D01*
X156957286Y-112682878D01*
X156767765Y-112761380D01*
X156566570Y-112801400D01*
X156361430Y-112801400D01*
X156160235Y-112761380D01*
X155970714Y-112682878D01*
X155970713Y-112682878D01*
X155970712Y-112682877D01*
X155800146Y-112568908D01*
X155655092Y-112423854D01*
X155541123Y-112253288D01*
X155462620Y-112063765D01*
X155422600Y-111862569D01*
X155422600Y-111657431D01*
X155462620Y-111456235D01*
X155541123Y-111266712D01*
X155655092Y-111096146D01*
X155800146Y-110951092D01*
X155970712Y-110837123D01*
X155991629Y-110828459D01*
X156160235Y-110758620D01*
X156361430Y-110718600D01*
X156566570Y-110718600D01*
X156767765Y-110758620D01*
X156767765Y-110758620D01*
G37*
G36*
X164654246Y-107307893D02*
G01*
X164811321Y-107355541D01*
X164956075Y-107432914D01*
X165082957Y-107537043D01*
X165187086Y-107663925D01*
X165264459Y-107808679D01*
X165312107Y-107965754D01*
X165328800Y-108135240D01*
X165328800Y-110048760D01*
X165312107Y-110218246D01*
X165264459Y-110375321D01*
X165187086Y-110520075D01*
X165082957Y-110646957D01*
X164956075Y-110751086D01*
X164811321Y-110828459D01*
X164654246Y-110876107D01*
X164484760Y-110892800D01*
X162571240Y-110892800D01*
X162401754Y-110876107D01*
X162244679Y-110828459D01*
X162099925Y-110751086D01*
X161973043Y-110646957D01*
X161868914Y-110520075D01*
X161791541Y-110375321D01*
X161743893Y-110218246D01*
X161727200Y-110048760D01*
X161727200Y-108135240D01*
X161743893Y-107965754D01*
X161791541Y-107808679D01*
X161868914Y-107663925D01*
X161973043Y-107537043D01*
X162099925Y-107432914D01*
X162244679Y-107355541D01*
X162401754Y-107307893D01*
X162571240Y-107291200D01*
X164484760Y-107291200D01*
X164654246Y-107307893D01*
X164654246Y-107307893D01*
G37*
G36*
X128827765Y-108218620D02*
G01*
X128963343Y-108274778D01*
X129017288Y-108297123D01*
X129187854Y-108411092D01*
X129332908Y-108556146D01*
X129446716Y-108726471D01*
X129446878Y-108726714D01*
X129525380Y-108916235D01*
X129543196Y-109005800D01*
X129565400Y-109117431D01*
X129565400Y-109322569D01*
X129525380Y-109523765D01*
X129446877Y-109713288D01*
X129332908Y-109883854D01*
X129187854Y-110028908D01*
X129017288Y-110142877D01*
X129017287Y-110142878D01*
X129017286Y-110142878D01*
X128827765Y-110221380D01*
X128626570Y-110261400D01*
X128421430Y-110261400D01*
X128220235Y-110221380D01*
X128030714Y-110142878D01*
X128030713Y-110142878D01*
X128030712Y-110142877D01*
X127860146Y-110028908D01*
X127715092Y-109883854D01*
X127601123Y-109713288D01*
X127522620Y-109523765D01*
X127482600Y-109322569D01*
X127482600Y-109117431D01*
X127504805Y-109005800D01*
X127522620Y-108916235D01*
X127601122Y-108726714D01*
X127601284Y-108726471D01*
X127715092Y-108556146D01*
X127860146Y-108411092D01*
X128030712Y-108297123D01*
X128084658Y-108274778D01*
X128220235Y-108218620D01*
X128421430Y-108178600D01*
X128626570Y-108178600D01*
X128827765Y-108218620D01*
X128827765Y-108218620D01*
G37*
G36*
X156767765Y-108218620D02*
G01*
X156903343Y-108274778D01*
X156957288Y-108297123D01*
X157127854Y-108411092D01*
X157272908Y-108556146D01*
X157386716Y-108726471D01*
X157386878Y-108726714D01*
X157465380Y-108916235D01*
X157483196Y-109005800D01*
X157505400Y-109117431D01*
X157505400Y-109322569D01*
X157465380Y-109523765D01*
X157386877Y-109713288D01*
X157272908Y-109883854D01*
X157127854Y-110028908D01*
X156957288Y-110142877D01*
X156957287Y-110142878D01*
X156957286Y-110142878D01*
X156767765Y-110221380D01*
X156566570Y-110261400D01*
X156361430Y-110261400D01*
X156160235Y-110221380D01*
X155970714Y-110142878D01*
X155970713Y-110142878D01*
X155970712Y-110142877D01*
X155800146Y-110028908D01*
X155655092Y-109883854D01*
X155541123Y-109713288D01*
X155462620Y-109523765D01*
X155422600Y-109322569D01*
X155422600Y-109117431D01*
X155444805Y-109005800D01*
X155462620Y-108916235D01*
X155541122Y-108726714D01*
X155541284Y-108726471D01*
X155655092Y-108556146D01*
X155800146Y-108411092D01*
X155970712Y-108297123D01*
X156024658Y-108274778D01*
X156160235Y-108218620D01*
X156361430Y-108178600D01*
X156566570Y-108178600D01*
X156767765Y-108218620D01*
X156767765Y-108218620D01*
G37*
G36*
X154227765Y-108218620D02*
G01*
X154363343Y-108274778D01*
X154417288Y-108297123D01*
X154587854Y-108411092D01*
X154732908Y-108556146D01*
X154846716Y-108726471D01*
X154846878Y-108726714D01*
X154925380Y-108916235D01*
X154943196Y-109005800D01*
X154965400Y-109117431D01*
X154965400Y-109322569D01*
X154925380Y-109523765D01*
X154846877Y-109713288D01*
X154732908Y-109883854D01*
X154587854Y-110028908D01*
X154417288Y-110142877D01*
X154417287Y-110142878D01*
X154417286Y-110142878D01*
X154227765Y-110221380D01*
X154026570Y-110261400D01*
X153821430Y-110261400D01*
X153620235Y-110221380D01*
X153430714Y-110142878D01*
X153430713Y-110142878D01*
X153430712Y-110142877D01*
X153260146Y-110028908D01*
X153115092Y-109883854D01*
X153001123Y-109713288D01*
X152922620Y-109523765D01*
X152882600Y-109322569D01*
X152882600Y-109117431D01*
X152904805Y-109005800D01*
X152922620Y-108916235D01*
X153001122Y-108726714D01*
X153001284Y-108726471D01*
X153115092Y-108556146D01*
X153260146Y-108411092D01*
X153430712Y-108297123D01*
X153484658Y-108274778D01*
X153620235Y-108218620D01*
X153821430Y-108178600D01*
X154026570Y-108178600D01*
X154227765Y-108218620D01*
X154227765Y-108218620D01*
G37*
G36*
X131367765Y-108218620D02*
G01*
X131503343Y-108274778D01*
X131557288Y-108297123D01*
X131727854Y-108411092D01*
X131872908Y-108556146D01*
X131986716Y-108726471D01*
X131986878Y-108726714D01*
X132065380Y-108916235D01*
X132083196Y-109005800D01*
X132105400Y-109117431D01*
X132105400Y-109322569D01*
X132065380Y-109523765D01*
X131986877Y-109713288D01*
X131872908Y-109883854D01*
X131727854Y-110028908D01*
X131557288Y-110142877D01*
X131557287Y-110142878D01*
X131557286Y-110142878D01*
X131367765Y-110221380D01*
X131166570Y-110261400D01*
X130961430Y-110261400D01*
X130760235Y-110221380D01*
X130570714Y-110142878D01*
X130570713Y-110142878D01*
X130570712Y-110142877D01*
X130400146Y-110028908D01*
X130255092Y-109883854D01*
X130141123Y-109713288D01*
X130062620Y-109523765D01*
X130022600Y-109322569D01*
X130022600Y-109117431D01*
X130044805Y-109005800D01*
X130062620Y-108916235D01*
X130141122Y-108726714D01*
X130141284Y-108726471D01*
X130255092Y-108556146D01*
X130400146Y-108411092D01*
X130570712Y-108297123D01*
X130624658Y-108274778D01*
X130760235Y-108218620D01*
X130961430Y-108178600D01*
X131166570Y-108178600D01*
X131367765Y-108218620D01*
X131367765Y-108218620D01*
G37*
G36*
X116542425Y-108262919D02*
G01*
X116602046Y-108274778D01*
X116770531Y-108344566D01*
X116922163Y-108445884D01*
X117051116Y-108574837D01*
X117152434Y-108726469D01*
X117222222Y-108894954D01*
X117257800Y-109073817D01*
X117257800Y-109256183D01*
X117222222Y-109435046D01*
X117152434Y-109603531D01*
X117051116Y-109755163D01*
X116922163Y-109884116D01*
X116770531Y-109985434D01*
X116602046Y-110055222D01*
X116542425Y-110067081D01*
X116423185Y-110090800D01*
X116240815Y-110090800D01*
X116121575Y-110067081D01*
X116061954Y-110055222D01*
X115893469Y-109985434D01*
X115741837Y-109884116D01*
X115612884Y-109755163D01*
X115511566Y-109603531D01*
X115441778Y-109435046D01*
X115406200Y-109256183D01*
X115406200Y-109073817D01*
X115441778Y-108894954D01*
X115511566Y-108726469D01*
X115612884Y-108574837D01*
X115741837Y-108445884D01*
X115893469Y-108344566D01*
X116061954Y-108274778D01*
X116121575Y-108262919D01*
X116240815Y-108239200D01*
X116423185Y-108239200D01*
X116542425Y-108262919D01*
X116542425Y-108262919D01*
G37*
G36*
X119055419Y-106829064D02*
G01*
X119143091Y-106846503D01*
X119226071Y-106880875D01*
X119343423Y-106929483D01*
X119343424Y-106929484D01*
X119523719Y-107049953D01*
X119677047Y-107203281D01*
X119677048Y-107203283D01*
X119797517Y-107383577D01*
X119813357Y-107421819D01*
X119868490Y-107554921D01*
X119880497Y-107583910D01*
X119922800Y-107796579D01*
X119922800Y-108013421D01*
X119905088Y-108102464D01*
X119889944Y-108178600D01*
X119880497Y-108226090D01*
X119797517Y-108426423D01*
X119737691Y-108515959D01*
X119677047Y-108606719D01*
X119523719Y-108760047D01*
X119432959Y-108820691D01*
X119343423Y-108880517D01*
X119257191Y-108916235D01*
X119143091Y-108963497D01*
X119072200Y-108977598D01*
X118930421Y-109005800D01*
X118713579Y-109005800D01*
X118571800Y-108977598D01*
X118500909Y-108963497D01*
X118386809Y-108916235D01*
X118300577Y-108880517D01*
X118211041Y-108820691D01*
X118120281Y-108760047D01*
X117966953Y-108606719D01*
X117906309Y-108515959D01*
X117846483Y-108426423D01*
X117763503Y-108226090D01*
X117754057Y-108178600D01*
X117738912Y-108102464D01*
X117721200Y-108013421D01*
X117721200Y-107796579D01*
X117763503Y-107583910D01*
X117775511Y-107554921D01*
X117830643Y-107421819D01*
X117846483Y-107383577D01*
X117966952Y-107203283D01*
X117966953Y-107203281D01*
X118120281Y-107049953D01*
X118300576Y-106929484D01*
X118300577Y-106929483D01*
X118417929Y-106880875D01*
X118500909Y-106846503D01*
X118588581Y-106829064D01*
X118713579Y-106804200D01*
X118930421Y-106804200D01*
X119055419Y-106829064D01*
X119055419Y-106829064D01*
G37*
G36*
X125496182Y-106829064D02*
G01*
X125637709Y-106871996D01*
X125637711Y-106871997D01*
X125768139Y-106941712D01*
X125882464Y-107035536D01*
X125976288Y-107149861D01*
X126046003Y-107280289D01*
X126046004Y-107280291D01*
X126088936Y-107421818D01*
X126103432Y-107569000D01*
X126088936Y-107716182D01*
X126049243Y-107847032D01*
X126046003Y-107857711D01*
X125976288Y-107988139D01*
X125882464Y-108102464D01*
X125768139Y-108196288D01*
X125712383Y-108226090D01*
X125637709Y-108266004D01*
X125496182Y-108308936D01*
X125385878Y-108319800D01*
X125312122Y-108319800D01*
X125201818Y-108308936D01*
X125060291Y-108266004D01*
X124985617Y-108226090D01*
X124929861Y-108196288D01*
X124815536Y-108102464D01*
X124721712Y-107988139D01*
X124651997Y-107857711D01*
X124648758Y-107847032D01*
X124609064Y-107716182D01*
X124594568Y-107569000D01*
X124609064Y-107421818D01*
X124651996Y-107280291D01*
X124651997Y-107280289D01*
X124721712Y-107149861D01*
X124815536Y-107035536D01*
X124929861Y-106941712D01*
X125060289Y-106871997D01*
X125060291Y-106871996D01*
X125201818Y-106829064D01*
X125312122Y-106818200D01*
X125385878Y-106818200D01*
X125496182Y-106829064D01*
X125496182Y-106829064D01*
G37*
G36*
X122702182Y-106829064D02*
G01*
X122843709Y-106871996D01*
X122843711Y-106871997D01*
X122974139Y-106941712D01*
X123088464Y-107035536D01*
X123182288Y-107149861D01*
X123252003Y-107280289D01*
X123252004Y-107280291D01*
X123294936Y-107421818D01*
X123309432Y-107569000D01*
X123294936Y-107716182D01*
X123255243Y-107847032D01*
X123252003Y-107857711D01*
X123182288Y-107988139D01*
X123088464Y-108102464D01*
X122974139Y-108196288D01*
X122918383Y-108226090D01*
X122843709Y-108266004D01*
X122702182Y-108308936D01*
X122591878Y-108319800D01*
X122518122Y-108319800D01*
X122407818Y-108308936D01*
X122266291Y-108266004D01*
X122191617Y-108226090D01*
X122135861Y-108196288D01*
X122021536Y-108102464D01*
X121927712Y-107988139D01*
X121857997Y-107857711D01*
X121854758Y-107847032D01*
X121815064Y-107716182D01*
X121800568Y-107569000D01*
X121815064Y-107421818D01*
X121857996Y-107280291D01*
X121857997Y-107280289D01*
X121927712Y-107149861D01*
X122021536Y-107035536D01*
X122135861Y-106941712D01*
X122266289Y-106871997D01*
X122266291Y-106871996D01*
X122407818Y-106829064D01*
X122518122Y-106818200D01*
X122591878Y-106818200D01*
X122702182Y-106829064D01*
X122702182Y-106829064D01*
G37*
G36*
X131367765Y-105678620D02*
G01*
X131557288Y-105757123D01*
X131727854Y-105871092D01*
X131872908Y-106016146D01*
X131872909Y-106016148D01*
X131986878Y-106186714D01*
X132065380Y-106376235D01*
X132105400Y-106577430D01*
X132105400Y-106782570D01*
X132065380Y-106983765D01*
X132037965Y-107049952D01*
X131986877Y-107173288D01*
X131872908Y-107343854D01*
X131727854Y-107488908D01*
X131557288Y-107602877D01*
X131557287Y-107602878D01*
X131557286Y-107602878D01*
X131367765Y-107681380D01*
X131166570Y-107721400D01*
X130961430Y-107721400D01*
X130760235Y-107681380D01*
X130570714Y-107602878D01*
X130570713Y-107602878D01*
X130570712Y-107602877D01*
X130400146Y-107488908D01*
X130255092Y-107343854D01*
X130141123Y-107173288D01*
X130090036Y-107049952D01*
X130062620Y-106983765D01*
X130022600Y-106782570D01*
X130022600Y-106577430D01*
X130062620Y-106376235D01*
X130141122Y-106186714D01*
X130255091Y-106016148D01*
X130255092Y-106016146D01*
X130400146Y-105871092D01*
X130570712Y-105757123D01*
X130760235Y-105678620D01*
X130961430Y-105638600D01*
X131166570Y-105638600D01*
X131367765Y-105678620D01*
X131367765Y-105678620D01*
G37*
G36*
X156767765Y-105678620D02*
G01*
X156957288Y-105757123D01*
X157127854Y-105871092D01*
X157272908Y-106016146D01*
X157272909Y-106016148D01*
X157386878Y-106186714D01*
X157465380Y-106376235D01*
X157505400Y-106577430D01*
X157505400Y-106782570D01*
X157465380Y-106983765D01*
X157437965Y-107049952D01*
X157386877Y-107173288D01*
X157272908Y-107343854D01*
X157127854Y-107488908D01*
X156957288Y-107602877D01*
X156957287Y-107602878D01*
X156957286Y-107602878D01*
X156767765Y-107681380D01*
X156566570Y-107721400D01*
X156361430Y-107721400D01*
X156160235Y-107681380D01*
X155970714Y-107602878D01*
X155970713Y-107602878D01*
X155970712Y-107602877D01*
X155800146Y-107488908D01*
X155655092Y-107343854D01*
X155541123Y-107173288D01*
X155490036Y-107049952D01*
X155462620Y-106983765D01*
X155422600Y-106782570D01*
X155422600Y-106577430D01*
X155462620Y-106376235D01*
X155541122Y-106186714D01*
X155655091Y-106016148D01*
X155655092Y-106016146D01*
X155800146Y-105871092D01*
X155970712Y-105757123D01*
X156160235Y-105678620D01*
X156361430Y-105638600D01*
X156566570Y-105638600D01*
X156767765Y-105678620D01*
X156767765Y-105678620D01*
G37*
G36*
X154227765Y-105678620D02*
G01*
X154417288Y-105757123D01*
X154587854Y-105871092D01*
X154732908Y-106016146D01*
X154732909Y-106016148D01*
X154846878Y-106186714D01*
X154925380Y-106376235D01*
X154965400Y-106577430D01*
X154965400Y-106782570D01*
X154925380Y-106983765D01*
X154897965Y-107049952D01*
X154846877Y-107173288D01*
X154732908Y-107343854D01*
X154587854Y-107488908D01*
X154417288Y-107602877D01*
X154417287Y-107602878D01*
X154417286Y-107602878D01*
X154227765Y-107681380D01*
X154026570Y-107721400D01*
X153821430Y-107721400D01*
X153620235Y-107681380D01*
X153430714Y-107602878D01*
X153430713Y-107602878D01*
X153430712Y-107602877D01*
X153260146Y-107488908D01*
X153115092Y-107343854D01*
X153001123Y-107173288D01*
X152950036Y-107049952D01*
X152922620Y-106983765D01*
X152882600Y-106782570D01*
X152882600Y-106577430D01*
X152922620Y-106376235D01*
X153001122Y-106186714D01*
X153115091Y-106016148D01*
X153115092Y-106016146D01*
X153260146Y-105871092D01*
X153430712Y-105757123D01*
X153620235Y-105678620D01*
X153821430Y-105638600D01*
X154026570Y-105638600D01*
X154227765Y-105678620D01*
X154227765Y-105678620D01*
G37*
G36*
X128827765Y-105678620D02*
G01*
X129017288Y-105757123D01*
X129187854Y-105871092D01*
X129332908Y-106016146D01*
X129332909Y-106016148D01*
X129446878Y-106186714D01*
X129525380Y-106376235D01*
X129565400Y-106577430D01*
X129565400Y-106782570D01*
X129525380Y-106983765D01*
X129497965Y-107049952D01*
X129446877Y-107173288D01*
X129332908Y-107343854D01*
X129187854Y-107488908D01*
X129017288Y-107602877D01*
X129017287Y-107602878D01*
X129017286Y-107602878D01*
X128827765Y-107681380D01*
X128626570Y-107721400D01*
X128421430Y-107721400D01*
X128220235Y-107681380D01*
X128030714Y-107602878D01*
X128030713Y-107602878D01*
X128030712Y-107602877D01*
X127860146Y-107488908D01*
X127715092Y-107343854D01*
X127601123Y-107173288D01*
X127550036Y-107049952D01*
X127522620Y-106983765D01*
X127482600Y-106782570D01*
X127482600Y-106577430D01*
X127522620Y-106376235D01*
X127601122Y-106186714D01*
X127715091Y-106016148D01*
X127715092Y-106016146D01*
X127860146Y-105871092D01*
X128030712Y-105757123D01*
X128220235Y-105678620D01*
X128421430Y-105638600D01*
X128626570Y-105638600D01*
X128827765Y-105678620D01*
X128827765Y-105678620D01*
G37*
G36*
X124385506Y-103510581D02*
G01*
X124497528Y-103556982D01*
X124576740Y-103589793D01*
X124748846Y-103704791D01*
X124895209Y-103851154D01*
X125010207Y-104023260D01*
X125043018Y-104102472D01*
X125089419Y-104214494D01*
X125129800Y-104417504D01*
X125129800Y-104624496D01*
X125089419Y-104827506D01*
X125043018Y-104939528D01*
X125010207Y-105018740D01*
X124895209Y-105190846D01*
X124748846Y-105337209D01*
X124576740Y-105452207D01*
X124497528Y-105485018D01*
X124385506Y-105531419D01*
X124182496Y-105571800D01*
X123975504Y-105571800D01*
X123772494Y-105531419D01*
X123660472Y-105485018D01*
X123581260Y-105452207D01*
X123409154Y-105337209D01*
X123262791Y-105190846D01*
X123147793Y-105018740D01*
X123114982Y-104939528D01*
X123068581Y-104827506D01*
X123028200Y-104624496D01*
X123028200Y-104417504D01*
X123068581Y-104214494D01*
X123114982Y-104102472D01*
X123147793Y-104023260D01*
X123262791Y-103851154D01*
X123409154Y-103704791D01*
X123581260Y-103589793D01*
X123660472Y-103556982D01*
X123772494Y-103510581D01*
X123975504Y-103470200D01*
X124182496Y-103470200D01*
X124385506Y-103510581D01*
X124385506Y-103510581D01*
G37*
G36*
X118289506Y-103510581D02*
G01*
X118401528Y-103556982D01*
X118480740Y-103589793D01*
X118652846Y-103704791D01*
X118799209Y-103851154D01*
X118914207Y-104023260D01*
X118947018Y-104102472D01*
X118993419Y-104214494D01*
X119033800Y-104417504D01*
X119033800Y-104624496D01*
X118993419Y-104827506D01*
X118947018Y-104939528D01*
X118914207Y-105018740D01*
X118799209Y-105190846D01*
X118652846Y-105337209D01*
X118480740Y-105452207D01*
X118401528Y-105485018D01*
X118289506Y-105531419D01*
X118086496Y-105571800D01*
X117879504Y-105571800D01*
X117676494Y-105531419D01*
X117564472Y-105485018D01*
X117485260Y-105452207D01*
X117313154Y-105337209D01*
X117166791Y-105190846D01*
X117051793Y-105018740D01*
X117018982Y-104939528D01*
X116972581Y-104827506D01*
X116932200Y-104624496D01*
X116932200Y-104417504D01*
X116972581Y-104214494D01*
X117018982Y-104102472D01*
X117051793Y-104023260D01*
X117166791Y-103851154D01*
X117313154Y-103704791D01*
X117485260Y-103589793D01*
X117564472Y-103556982D01*
X117676494Y-103510581D01*
X117879504Y-103470200D01*
X118086496Y-103470200D01*
X118289506Y-103510581D01*
X118289506Y-103510581D01*
G37*
G36*
X156767765Y-103138620D02*
G01*
X156957288Y-103217123D01*
X157127854Y-103331092D01*
X157272908Y-103476146D01*
X157386877Y-103646712D01*
X157386878Y-103646714D01*
X157465380Y-103836235D01*
X157502582Y-104023261D01*
X157505400Y-104037431D01*
X157505400Y-104242569D01*
X157465380Y-104443765D01*
X157386877Y-104633288D01*
X157272908Y-104803854D01*
X157127854Y-104948908D01*
X156957288Y-105062877D01*
X156957287Y-105062878D01*
X156957286Y-105062878D01*
X156767765Y-105141380D01*
X156566570Y-105181400D01*
X156361430Y-105181400D01*
X156160235Y-105141380D01*
X155970714Y-105062878D01*
X155970713Y-105062878D01*
X155970712Y-105062877D01*
X155800146Y-104948908D01*
X155655092Y-104803854D01*
X155541123Y-104633288D01*
X155462620Y-104443765D01*
X155422600Y-104242569D01*
X155422600Y-104037431D01*
X155425419Y-104023261D01*
X155462620Y-103836235D01*
X155541122Y-103646714D01*
X155541123Y-103646712D01*
X155655092Y-103476146D01*
X155800146Y-103331092D01*
X155970712Y-103217123D01*
X156160235Y-103138620D01*
X156361430Y-103098600D01*
X156566570Y-103098600D01*
X156767765Y-103138620D01*
X156767765Y-103138620D01*
G37*
G36*
X154227765Y-103138620D02*
G01*
X154417288Y-103217123D01*
X154587854Y-103331092D01*
X154732908Y-103476146D01*
X154846877Y-103646712D01*
X154846878Y-103646714D01*
X154925380Y-103836235D01*
X154962582Y-104023261D01*
X154965400Y-104037431D01*
X154965400Y-104242569D01*
X154925380Y-104443765D01*
X154846877Y-104633288D01*
X154732908Y-104803854D01*
X154587854Y-104948908D01*
X154417288Y-105062877D01*
X154417287Y-105062878D01*
X154417286Y-105062878D01*
X154227765Y-105141380D01*
X154026570Y-105181400D01*
X153821430Y-105181400D01*
X153620235Y-105141380D01*
X153430714Y-105062878D01*
X153430713Y-105062878D01*
X153430712Y-105062877D01*
X153260146Y-104948908D01*
X153115092Y-104803854D01*
X153001123Y-104633288D01*
X152922620Y-104443765D01*
X152882600Y-104242569D01*
X152882600Y-104037431D01*
X152885419Y-104023261D01*
X152922620Y-103836235D01*
X153001122Y-103646714D01*
X153001123Y-103646712D01*
X153115092Y-103476146D01*
X153260146Y-103331092D01*
X153430712Y-103217123D01*
X153620235Y-103138620D01*
X153821430Y-103098600D01*
X154026570Y-103098600D01*
X154227765Y-103138620D01*
X154227765Y-103138620D01*
G37*
G36*
X131367765Y-103138620D02*
G01*
X131557288Y-103217123D01*
X131727854Y-103331092D01*
X131872908Y-103476146D01*
X131986877Y-103646712D01*
X131986878Y-103646714D01*
X132065380Y-103836235D01*
X132102582Y-104023261D01*
X132105400Y-104037431D01*
X132105400Y-104242569D01*
X132065380Y-104443765D01*
X131986877Y-104633288D01*
X131872908Y-104803854D01*
X131727854Y-104948908D01*
X131557288Y-105062877D01*
X131557287Y-105062878D01*
X131557286Y-105062878D01*
X131367765Y-105141380D01*
X131166570Y-105181400D01*
X130961430Y-105181400D01*
X130760235Y-105141380D01*
X130570714Y-105062878D01*
X130570713Y-105062878D01*
X130570712Y-105062877D01*
X130400146Y-104948908D01*
X130255092Y-104803854D01*
X130141123Y-104633288D01*
X130062620Y-104443765D01*
X130022600Y-104242569D01*
X130022600Y-104037431D01*
X130025419Y-104023261D01*
X130062620Y-103836235D01*
X130141122Y-103646714D01*
X130141123Y-103646712D01*
X130255092Y-103476146D01*
X130400146Y-103331092D01*
X130570712Y-103217123D01*
X130760235Y-103138620D01*
X130961430Y-103098600D01*
X131166570Y-103098600D01*
X131367765Y-103138620D01*
X131367765Y-103138620D01*
G37*
G36*
X128827765Y-103138620D02*
G01*
X129017288Y-103217123D01*
X129187854Y-103331092D01*
X129332908Y-103476146D01*
X129446877Y-103646712D01*
X129446878Y-103646714D01*
X129525380Y-103836235D01*
X129562582Y-104023261D01*
X129565400Y-104037431D01*
X129565400Y-104242569D01*
X129525380Y-104443765D01*
X129446877Y-104633288D01*
X129332908Y-104803854D01*
X129187854Y-104948908D01*
X129017288Y-105062877D01*
X129017287Y-105062878D01*
X129017286Y-105062878D01*
X128827765Y-105141380D01*
X128626570Y-105181400D01*
X128421430Y-105181400D01*
X128220235Y-105141380D01*
X128030714Y-105062878D01*
X128030713Y-105062878D01*
X128030712Y-105062877D01*
X127860146Y-104948908D01*
X127715092Y-104803854D01*
X127601123Y-104633288D01*
X127522620Y-104443765D01*
X127482600Y-104242569D01*
X127482600Y-104037431D01*
X127485419Y-104023261D01*
X127522620Y-103836235D01*
X127601122Y-103646714D01*
X127601123Y-103646712D01*
X127715092Y-103476146D01*
X127860146Y-103331092D01*
X128030712Y-103217123D01*
X128220235Y-103138620D01*
X128421430Y-103098600D01*
X128626570Y-103098600D01*
X128827765Y-103138620D01*
X128827765Y-103138620D01*
G37*
G36*
X168260888Y-102359750D02*
G01*
X168373596Y-102370851D01*
X168590523Y-102436655D01*
X168590525Y-102436656D01*
X168790439Y-102543512D01*
X168790440Y-102543513D01*
X168790444Y-102543515D01*
X168965676Y-102687324D01*
X169109485Y-102862556D01*
X169216345Y-103062477D01*
X169282149Y-103279404D01*
X169304368Y-103505000D01*
X169282149Y-103730596D01*
X169216345Y-103947523D01*
X169109485Y-104147444D01*
X168965676Y-104322676D01*
X168790444Y-104466485D01*
X168790440Y-104466487D01*
X168790439Y-104466488D01*
X168590525Y-104573344D01*
X168590523Y-104573345D01*
X168373596Y-104639149D01*
X168260888Y-104650250D01*
X168204535Y-104655800D01*
X168091465Y-104655800D01*
X168035112Y-104650250D01*
X167922404Y-104639149D01*
X167705477Y-104573345D01*
X167705475Y-104573344D01*
X167505561Y-104466488D01*
X167505560Y-104466487D01*
X167505556Y-104466485D01*
X167330324Y-104322676D01*
X167186515Y-104147444D01*
X167079655Y-103947523D01*
X167013851Y-103730596D01*
X166991632Y-103505000D01*
X167013851Y-103279404D01*
X167079655Y-103062477D01*
X167186515Y-102862556D01*
X167330324Y-102687324D01*
X167505556Y-102543515D01*
X167505560Y-102543513D01*
X167505561Y-102543512D01*
X167705475Y-102436656D01*
X167705477Y-102436655D01*
X167922404Y-102370851D01*
X168035112Y-102359750D01*
X168091465Y-102354200D01*
X168204535Y-102354200D01*
X168260888Y-102359750D01*
X168260888Y-102359750D01*
G37*
G36*
X161678800Y-104655800D02*
G01*
X159377200Y-104655800D01*
X159377200Y-102354200D01*
X161678800Y-102354200D01*
X161678800Y-104655800D01*
X161678800Y-104655800D01*
G37*
G36*
X125129800Y-103031800D02*
G01*
X123028200Y-103031800D01*
X123028200Y-100930200D01*
X125129800Y-100930200D01*
X125129800Y-103031800D01*
X125129800Y-103031800D01*
G37*
G36*
X119033800Y-103031800D02*
G01*
X116932200Y-103031800D01*
X116932200Y-100930200D01*
X119033800Y-100930200D01*
X119033800Y-103031800D01*
X119033800Y-103031800D01*
G37*
G36*
X128827765Y-100598620D02*
G01*
X129017288Y-100677123D01*
X129187854Y-100791092D01*
X129332908Y-100936146D01*
X129446877Y-101106712D01*
X129525380Y-101296235D01*
X129565400Y-101497431D01*
X129565400Y-101702569D01*
X129525380Y-101903765D01*
X129446877Y-102093288D01*
X129332908Y-102263854D01*
X129187854Y-102408908D01*
X129017288Y-102522877D01*
X129017287Y-102522878D01*
X129017286Y-102522878D01*
X128827765Y-102601380D01*
X128626570Y-102641400D01*
X128421430Y-102641400D01*
X128220235Y-102601380D01*
X128030714Y-102522878D01*
X128030713Y-102522878D01*
X128030712Y-102522877D01*
X127860146Y-102408908D01*
X127715092Y-102263854D01*
X127601123Y-102093288D01*
X127522620Y-101903765D01*
X127482600Y-101702569D01*
X127482600Y-101497431D01*
X127522620Y-101296235D01*
X127601123Y-101106712D01*
X127715092Y-100936146D01*
X127860146Y-100791092D01*
X128030712Y-100677123D01*
X128220235Y-100598620D01*
X128421430Y-100558600D01*
X128626570Y-100558600D01*
X128827765Y-100598620D01*
X128827765Y-100598620D01*
G37*
G36*
X131367765Y-100598620D02*
G01*
X131557288Y-100677123D01*
X131727854Y-100791092D01*
X131872908Y-100936146D01*
X131986877Y-101106712D01*
X132065380Y-101296235D01*
X132105400Y-101497431D01*
X132105400Y-101702569D01*
X132065380Y-101903765D01*
X131986877Y-102093288D01*
X131872908Y-102263854D01*
X131727854Y-102408908D01*
X131557288Y-102522877D01*
X131557287Y-102522878D01*
X131557286Y-102522878D01*
X131367765Y-102601380D01*
X131166570Y-102641400D01*
X130961430Y-102641400D01*
X130760235Y-102601380D01*
X130570714Y-102522878D01*
X130570713Y-102522878D01*
X130570712Y-102522877D01*
X130400146Y-102408908D01*
X130255092Y-102263854D01*
X130141123Y-102093288D01*
X130062620Y-101903765D01*
X130022600Y-101702569D01*
X130022600Y-101497431D01*
X130062620Y-101296235D01*
X130141123Y-101106712D01*
X130255092Y-100936146D01*
X130400146Y-100791092D01*
X130570712Y-100677123D01*
X130760235Y-100598620D01*
X130961430Y-100558600D01*
X131166570Y-100558600D01*
X131367765Y-100598620D01*
X131367765Y-100598620D01*
G37*
G36*
X156767765Y-100598620D02*
G01*
X156957288Y-100677123D01*
X157127854Y-100791092D01*
X157272908Y-100936146D01*
X157386877Y-101106712D01*
X157465380Y-101296235D01*
X157505400Y-101497431D01*
X157505400Y-101702569D01*
X157465380Y-101903765D01*
X157386877Y-102093288D01*
X157272908Y-102263854D01*
X157127854Y-102408908D01*
X156957288Y-102522877D01*
X156957287Y-102522878D01*
X156957286Y-102522878D01*
X156767765Y-102601380D01*
X156566570Y-102641400D01*
X156361430Y-102641400D01*
X156160235Y-102601380D01*
X155970714Y-102522878D01*
X155970713Y-102522878D01*
X155970712Y-102522877D01*
X155800146Y-102408908D01*
X155655092Y-102263854D01*
X155541123Y-102093288D01*
X155462620Y-101903765D01*
X155422600Y-101702569D01*
X155422600Y-101497431D01*
X155462620Y-101296235D01*
X155541123Y-101106712D01*
X155655092Y-100936146D01*
X155800146Y-100791092D01*
X155970712Y-100677123D01*
X156160235Y-100598620D01*
X156361430Y-100558600D01*
X156566570Y-100558600D01*
X156767765Y-100598620D01*
X156767765Y-100598620D01*
G37*
G36*
X154227765Y-100598620D02*
G01*
X154417288Y-100677123D01*
X154587854Y-100791092D01*
X154732908Y-100936146D01*
X154846877Y-101106712D01*
X154925380Y-101296235D01*
X154965400Y-101497431D01*
X154965400Y-101702569D01*
X154925380Y-101903765D01*
X154846877Y-102093288D01*
X154732908Y-102263854D01*
X154587854Y-102408908D01*
X154417288Y-102522877D01*
X154417287Y-102522878D01*
X154417286Y-102522878D01*
X154227765Y-102601380D01*
X154026570Y-102641400D01*
X153821430Y-102641400D01*
X153620235Y-102601380D01*
X153430714Y-102522878D01*
X153430713Y-102522878D01*
X153430712Y-102522877D01*
X153260146Y-102408908D01*
X153115092Y-102263854D01*
X153001123Y-102093288D01*
X152922620Y-101903765D01*
X152882600Y-101702569D01*
X152882600Y-101497431D01*
X152922620Y-101296235D01*
X153001123Y-101106712D01*
X153115092Y-100936146D01*
X153260146Y-100791092D01*
X153430712Y-100677123D01*
X153620235Y-100598620D01*
X153821430Y-100558600D01*
X154026570Y-100558600D01*
X154227765Y-100598620D01*
X154227765Y-100598620D01*
G37*
G36*
X131367765Y-98058620D02*
G01*
X131557288Y-98137123D01*
X131727854Y-98251092D01*
X131872908Y-98396146D01*
X131950462Y-98512214D01*
X131986878Y-98566714D01*
X132065380Y-98756235D01*
X132105400Y-98957430D01*
X132105400Y-99162570D01*
X132065380Y-99363765D01*
X132001706Y-99517489D01*
X131986877Y-99553288D01*
X131872908Y-99723854D01*
X131727854Y-99868908D01*
X131557288Y-99982877D01*
X131557287Y-99982878D01*
X131557286Y-99982878D01*
X131367765Y-100061380D01*
X131166570Y-100101400D01*
X130961430Y-100101400D01*
X130760235Y-100061380D01*
X130570714Y-99982878D01*
X130570713Y-99982878D01*
X130570712Y-99982877D01*
X130400146Y-99868908D01*
X130255092Y-99723854D01*
X130141123Y-99553288D01*
X130126295Y-99517489D01*
X130062620Y-99363765D01*
X130022600Y-99162570D01*
X130022600Y-98957430D01*
X130062620Y-98756235D01*
X130141122Y-98566714D01*
X130177538Y-98512214D01*
X130255092Y-98396146D01*
X130400146Y-98251092D01*
X130570712Y-98137123D01*
X130760235Y-98058620D01*
X130961430Y-98018600D01*
X131166570Y-98018600D01*
X131367765Y-98058620D01*
X131367765Y-98058620D01*
G37*
G36*
X128827765Y-98058620D02*
G01*
X129017288Y-98137123D01*
X129187854Y-98251092D01*
X129332908Y-98396146D01*
X129410462Y-98512214D01*
X129446878Y-98566714D01*
X129525380Y-98756235D01*
X129565400Y-98957430D01*
X129565400Y-99162570D01*
X129525380Y-99363765D01*
X129461706Y-99517489D01*
X129446877Y-99553288D01*
X129332908Y-99723854D01*
X129187854Y-99868908D01*
X129017288Y-99982877D01*
X129017287Y-99982878D01*
X129017286Y-99982878D01*
X128827765Y-100061380D01*
X128626570Y-100101400D01*
X128421430Y-100101400D01*
X128220235Y-100061380D01*
X128030714Y-99982878D01*
X128030713Y-99982878D01*
X128030712Y-99982877D01*
X127860146Y-99868908D01*
X127715092Y-99723854D01*
X127601123Y-99553288D01*
X127586295Y-99517489D01*
X127522620Y-99363765D01*
X127482600Y-99162570D01*
X127482600Y-98957430D01*
X127522620Y-98756235D01*
X127601122Y-98566714D01*
X127637538Y-98512214D01*
X127715092Y-98396146D01*
X127860146Y-98251092D01*
X128030712Y-98137123D01*
X128220235Y-98058620D01*
X128421430Y-98018600D01*
X128626570Y-98018600D01*
X128827765Y-98058620D01*
X128827765Y-98058620D01*
G37*
G36*
X154227765Y-98058620D02*
G01*
X154417288Y-98137123D01*
X154587854Y-98251092D01*
X154732908Y-98396146D01*
X154810462Y-98512214D01*
X154846878Y-98566714D01*
X154925380Y-98756235D01*
X154965400Y-98957430D01*
X154965400Y-99162570D01*
X154925380Y-99363765D01*
X154861706Y-99517489D01*
X154846877Y-99553288D01*
X154732908Y-99723854D01*
X154587854Y-99868908D01*
X154417288Y-99982877D01*
X154417287Y-99982878D01*
X154417286Y-99982878D01*
X154227765Y-100061380D01*
X154026570Y-100101400D01*
X153821430Y-100101400D01*
X153620235Y-100061380D01*
X153430714Y-99982878D01*
X153430713Y-99982878D01*
X153430712Y-99982877D01*
X153260146Y-99868908D01*
X153115092Y-99723854D01*
X153001123Y-99553288D01*
X152986295Y-99517489D01*
X152922620Y-99363765D01*
X152882600Y-99162570D01*
X152882600Y-98957430D01*
X152922620Y-98756235D01*
X153001122Y-98566714D01*
X153037538Y-98512214D01*
X153115092Y-98396146D01*
X153260146Y-98251092D01*
X153430712Y-98137123D01*
X153620235Y-98058620D01*
X153821430Y-98018600D01*
X154026570Y-98018600D01*
X154227765Y-98058620D01*
X154227765Y-98058620D01*
G37*
G36*
X156767765Y-98058620D02*
G01*
X156957288Y-98137123D01*
X157127854Y-98251092D01*
X157272908Y-98396146D01*
X157350462Y-98512214D01*
X157386878Y-98566714D01*
X157465380Y-98756235D01*
X157505400Y-98957430D01*
X157505400Y-99162570D01*
X157465380Y-99363765D01*
X157401706Y-99517489D01*
X157386877Y-99553288D01*
X157272908Y-99723854D01*
X157127854Y-99868908D01*
X156957288Y-99982877D01*
X156957287Y-99982878D01*
X156957286Y-99982878D01*
X156767765Y-100061380D01*
X156566570Y-100101400D01*
X156361430Y-100101400D01*
X156160235Y-100061380D01*
X155970714Y-99982878D01*
X155970713Y-99982878D01*
X155970712Y-99982877D01*
X155800146Y-99868908D01*
X155655092Y-99723854D01*
X155541123Y-99553288D01*
X155526295Y-99517489D01*
X155462620Y-99363765D01*
X155422600Y-99162570D01*
X155422600Y-98957430D01*
X155462620Y-98756235D01*
X155541122Y-98566714D01*
X155577538Y-98512214D01*
X155655092Y-98396146D01*
X155800146Y-98251092D01*
X155970712Y-98137123D01*
X156160235Y-98058620D01*
X156361430Y-98018600D01*
X156566570Y-98018600D01*
X156767765Y-98058620D01*
X156767765Y-98058620D01*
G37*
G36*
X168714787Y-97840510D02*
G01*
X168875162Y-97889160D01*
X169022965Y-97968162D01*
X169152517Y-98074483D01*
X169258838Y-98204035D01*
X169337840Y-98351838D01*
X169386490Y-98512213D01*
X169402916Y-98679000D01*
X169386490Y-98845787D01*
X169337840Y-99006162D01*
X169258838Y-99153965D01*
X169152517Y-99283517D01*
X169022965Y-99389838D01*
X168875162Y-99468840D01*
X168714787Y-99517490D01*
X168589794Y-99529800D01*
X167706206Y-99529800D01*
X167581213Y-99517490D01*
X167420838Y-99468840D01*
X167273035Y-99389838D01*
X167143483Y-99283517D01*
X167037162Y-99153965D01*
X166958160Y-99006162D01*
X166909510Y-98845787D01*
X166893084Y-98679000D01*
X166909510Y-98512213D01*
X166958160Y-98351838D01*
X167037162Y-98204035D01*
X167143483Y-98074483D01*
X167273035Y-97968162D01*
X167420838Y-97889160D01*
X167581213Y-97840510D01*
X167706206Y-97828200D01*
X168589794Y-97828200D01*
X168714787Y-97840510D01*
X168714787Y-97840510D01*
G37*
G36*
X161094787Y-97840510D02*
G01*
X161255162Y-97889160D01*
X161402965Y-97968162D01*
X161532517Y-98074483D01*
X161638838Y-98204035D01*
X161717840Y-98351838D01*
X161766490Y-98512213D01*
X161782916Y-98679000D01*
X161766490Y-98845787D01*
X161717840Y-99006162D01*
X161638838Y-99153965D01*
X161532517Y-99283517D01*
X161402965Y-99389838D01*
X161255162Y-99468840D01*
X161094787Y-99517490D01*
X160969794Y-99529800D01*
X160086206Y-99529800D01*
X159961213Y-99517490D01*
X159800838Y-99468840D01*
X159653035Y-99389838D01*
X159523483Y-99283517D01*
X159417162Y-99153965D01*
X159338160Y-99006162D01*
X159289510Y-98845787D01*
X159273084Y-98679000D01*
X159289510Y-98512213D01*
X159338160Y-98351838D01*
X159417162Y-98204035D01*
X159523483Y-98074483D01*
X159653035Y-97968162D01*
X159800838Y-97889160D01*
X159961213Y-97840510D01*
X160086206Y-97828200D01*
X160969794Y-97828200D01*
X161094787Y-97840510D01*
X161094787Y-97840510D01*
G37*
G36*
X125280787Y-97840510D02*
G01*
X125441162Y-97889160D01*
X125588965Y-97968162D01*
X125718517Y-98074483D01*
X125824838Y-98204035D01*
X125903840Y-98351838D01*
X125952490Y-98512213D01*
X125968916Y-98679000D01*
X125952490Y-98845787D01*
X125903840Y-99006162D01*
X125824838Y-99153965D01*
X125718517Y-99283517D01*
X125588965Y-99389838D01*
X125441162Y-99468840D01*
X125280787Y-99517490D01*
X125155794Y-99529800D01*
X124272206Y-99529800D01*
X124147213Y-99517490D01*
X123986838Y-99468840D01*
X123839035Y-99389838D01*
X123709483Y-99283517D01*
X123603162Y-99153965D01*
X123524160Y-99006162D01*
X123475510Y-98845787D01*
X123459084Y-98679000D01*
X123475510Y-98512213D01*
X123524160Y-98351838D01*
X123603162Y-98204035D01*
X123709483Y-98074483D01*
X123839035Y-97968162D01*
X123986838Y-97889160D01*
X124147213Y-97840510D01*
X124272206Y-97828200D01*
X125155794Y-97828200D01*
X125280787Y-97840510D01*
X125280787Y-97840510D01*
G37*
G36*
X117660787Y-97840510D02*
G01*
X117821162Y-97889160D01*
X117968965Y-97968162D01*
X118098517Y-98074483D01*
X118204838Y-98204035D01*
X118283840Y-98351838D01*
X118332490Y-98512213D01*
X118348916Y-98679000D01*
X118332490Y-98845787D01*
X118283840Y-99006162D01*
X118204838Y-99153965D01*
X118098517Y-99283517D01*
X117968965Y-99389838D01*
X117821162Y-99468840D01*
X117660787Y-99517490D01*
X117535794Y-99529800D01*
X116652206Y-99529800D01*
X116527213Y-99517490D01*
X116366838Y-99468840D01*
X116219035Y-99389838D01*
X116089483Y-99283517D01*
X115983162Y-99153965D01*
X115904160Y-99006162D01*
X115855510Y-98845787D01*
X115839084Y-98679000D01*
X115855510Y-98512213D01*
X115904160Y-98351838D01*
X115983162Y-98204035D01*
X116089483Y-98074483D01*
X116219035Y-97968162D01*
X116366838Y-97889160D01*
X116527213Y-97840510D01*
X116652206Y-97828200D01*
X117535794Y-97828200D01*
X117660787Y-97840510D01*
X117660787Y-97840510D01*
G37*
G36*
X128827765Y-95518620D02*
G01*
X129017288Y-95597123D01*
X129187854Y-95711092D01*
X129332908Y-95856146D01*
X129410462Y-95972214D01*
X129446878Y-96026714D01*
X129525380Y-96216235D01*
X129565400Y-96417430D01*
X129565400Y-96622570D01*
X129525380Y-96823765D01*
X129461706Y-96977489D01*
X129446877Y-97013288D01*
X129332908Y-97183854D01*
X129187854Y-97328908D01*
X129017288Y-97442877D01*
X129017287Y-97442878D01*
X129017286Y-97442878D01*
X128827765Y-97521380D01*
X128626570Y-97561400D01*
X128421430Y-97561400D01*
X128220235Y-97521380D01*
X128030714Y-97442878D01*
X128030713Y-97442878D01*
X128030712Y-97442877D01*
X127860146Y-97328908D01*
X127715092Y-97183854D01*
X127601123Y-97013288D01*
X127586295Y-96977489D01*
X127522620Y-96823765D01*
X127482600Y-96622570D01*
X127482600Y-96417430D01*
X127522620Y-96216235D01*
X127601122Y-96026714D01*
X127637538Y-95972214D01*
X127715092Y-95856146D01*
X127860146Y-95711092D01*
X128030712Y-95597123D01*
X128220235Y-95518620D01*
X128421430Y-95478600D01*
X128626570Y-95478600D01*
X128827765Y-95518620D01*
X128827765Y-95518620D01*
G37*
G36*
X131367765Y-95518620D02*
G01*
X131557288Y-95597123D01*
X131727854Y-95711092D01*
X131872908Y-95856146D01*
X131950462Y-95972214D01*
X131986878Y-96026714D01*
X132065380Y-96216235D01*
X132105400Y-96417430D01*
X132105400Y-96622570D01*
X132065380Y-96823765D01*
X132001706Y-96977489D01*
X131986877Y-97013288D01*
X131872908Y-97183854D01*
X131727854Y-97328908D01*
X131557288Y-97442877D01*
X131557287Y-97442878D01*
X131557286Y-97442878D01*
X131367765Y-97521380D01*
X131166570Y-97561400D01*
X130961430Y-97561400D01*
X130760235Y-97521380D01*
X130570714Y-97442878D01*
X130570713Y-97442878D01*
X130570712Y-97442877D01*
X130400146Y-97328908D01*
X130255092Y-97183854D01*
X130141123Y-97013288D01*
X130126295Y-96977489D01*
X130062620Y-96823765D01*
X130022600Y-96622570D01*
X130022600Y-96417430D01*
X130062620Y-96216235D01*
X130141122Y-96026714D01*
X130177538Y-95972214D01*
X130255092Y-95856146D01*
X130400146Y-95711092D01*
X130570712Y-95597123D01*
X130760235Y-95518620D01*
X130961430Y-95478600D01*
X131166570Y-95478600D01*
X131367765Y-95518620D01*
X131367765Y-95518620D01*
G37*
G36*
X154227765Y-95518620D02*
G01*
X154417288Y-95597123D01*
X154587854Y-95711092D01*
X154732908Y-95856146D01*
X154810462Y-95972214D01*
X154846878Y-96026714D01*
X154925380Y-96216235D01*
X154965400Y-96417430D01*
X154965400Y-96622570D01*
X154925380Y-96823765D01*
X154861706Y-96977489D01*
X154846877Y-97013288D01*
X154732908Y-97183854D01*
X154587854Y-97328908D01*
X154417288Y-97442877D01*
X154417287Y-97442878D01*
X154417286Y-97442878D01*
X154227765Y-97521380D01*
X154026570Y-97561400D01*
X153821430Y-97561400D01*
X153620235Y-97521380D01*
X153430714Y-97442878D01*
X153430713Y-97442878D01*
X153430712Y-97442877D01*
X153260146Y-97328908D01*
X153115092Y-97183854D01*
X153001123Y-97013288D01*
X152986295Y-96977489D01*
X152922620Y-96823765D01*
X152882600Y-96622570D01*
X152882600Y-96417430D01*
X152922620Y-96216235D01*
X153001122Y-96026714D01*
X153037538Y-95972214D01*
X153115092Y-95856146D01*
X153260146Y-95711092D01*
X153430712Y-95597123D01*
X153620235Y-95518620D01*
X153821430Y-95478600D01*
X154026570Y-95478600D01*
X154227765Y-95518620D01*
X154227765Y-95518620D01*
G37*
G36*
X156767765Y-95518620D02*
G01*
X156957288Y-95597123D01*
X157127854Y-95711092D01*
X157272908Y-95856146D01*
X157350462Y-95972214D01*
X157386878Y-96026714D01*
X157465380Y-96216235D01*
X157505400Y-96417430D01*
X157505400Y-96622570D01*
X157465380Y-96823765D01*
X157401706Y-96977489D01*
X157386877Y-97013288D01*
X157272908Y-97183854D01*
X157127854Y-97328908D01*
X156957288Y-97442877D01*
X156957287Y-97442878D01*
X156957286Y-97442878D01*
X156767765Y-97521380D01*
X156566570Y-97561400D01*
X156361430Y-97561400D01*
X156160235Y-97521380D01*
X155970714Y-97442878D01*
X155970713Y-97442878D01*
X155970712Y-97442877D01*
X155800146Y-97328908D01*
X155655092Y-97183854D01*
X155541123Y-97013288D01*
X155526295Y-96977489D01*
X155462620Y-96823765D01*
X155422600Y-96622570D01*
X155422600Y-96417430D01*
X155462620Y-96216235D01*
X155541122Y-96026714D01*
X155577538Y-95972214D01*
X155655092Y-95856146D01*
X155800146Y-95711092D01*
X155970712Y-95597123D01*
X156160235Y-95518620D01*
X156361430Y-95478600D01*
X156566570Y-95478600D01*
X156767765Y-95518620D01*
X156767765Y-95518620D01*
G37*
G36*
X168714787Y-95300510D02*
G01*
X168875162Y-95349160D01*
X169022965Y-95428162D01*
X169152517Y-95534483D01*
X169258838Y-95664035D01*
X169337840Y-95811838D01*
X169386490Y-95972213D01*
X169402916Y-96139000D01*
X169386490Y-96305787D01*
X169337840Y-96466162D01*
X169258838Y-96613965D01*
X169152517Y-96743517D01*
X169022965Y-96849838D01*
X168875162Y-96928840D01*
X168714787Y-96977490D01*
X168589794Y-96989800D01*
X167706206Y-96989800D01*
X167581213Y-96977490D01*
X167420838Y-96928840D01*
X167273035Y-96849838D01*
X167143483Y-96743517D01*
X167037162Y-96613965D01*
X166958160Y-96466162D01*
X166909510Y-96305787D01*
X166893084Y-96139000D01*
X166909510Y-95972213D01*
X166958160Y-95811838D01*
X167037162Y-95664035D01*
X167143483Y-95534483D01*
X167273035Y-95428162D01*
X167420838Y-95349160D01*
X167581213Y-95300510D01*
X167706206Y-95288200D01*
X168589794Y-95288200D01*
X168714787Y-95300510D01*
X168714787Y-95300510D01*
G37*
G36*
X161094787Y-95300510D02*
G01*
X161255162Y-95349160D01*
X161402965Y-95428162D01*
X161532517Y-95534483D01*
X161638838Y-95664035D01*
X161717840Y-95811838D01*
X161766490Y-95972213D01*
X161782916Y-96139000D01*
X161766490Y-96305787D01*
X161717840Y-96466162D01*
X161638838Y-96613965D01*
X161532517Y-96743517D01*
X161402965Y-96849838D01*
X161255162Y-96928840D01*
X161094787Y-96977490D01*
X160969794Y-96989800D01*
X160086206Y-96989800D01*
X159961213Y-96977490D01*
X159800838Y-96928840D01*
X159653035Y-96849838D01*
X159523483Y-96743517D01*
X159417162Y-96613965D01*
X159338160Y-96466162D01*
X159289510Y-96305787D01*
X159273084Y-96139000D01*
X159289510Y-95972213D01*
X159338160Y-95811838D01*
X159417162Y-95664035D01*
X159523483Y-95534483D01*
X159653035Y-95428162D01*
X159800838Y-95349160D01*
X159961213Y-95300510D01*
X160086206Y-95288200D01*
X160969794Y-95288200D01*
X161094787Y-95300510D01*
X161094787Y-95300510D01*
G37*
G36*
X125280787Y-95300510D02*
G01*
X125441162Y-95349160D01*
X125588965Y-95428162D01*
X125718517Y-95534483D01*
X125824838Y-95664035D01*
X125903840Y-95811838D01*
X125952490Y-95972213D01*
X125968916Y-96139000D01*
X125952490Y-96305787D01*
X125903840Y-96466162D01*
X125824838Y-96613965D01*
X125718517Y-96743517D01*
X125588965Y-96849838D01*
X125441162Y-96928840D01*
X125280787Y-96977490D01*
X125155794Y-96989800D01*
X124272206Y-96989800D01*
X124147213Y-96977490D01*
X123986838Y-96928840D01*
X123839035Y-96849838D01*
X123709483Y-96743517D01*
X123603162Y-96613965D01*
X123524160Y-96466162D01*
X123475510Y-96305787D01*
X123459084Y-96139000D01*
X123475510Y-95972213D01*
X123524160Y-95811838D01*
X123603162Y-95664035D01*
X123709483Y-95534483D01*
X123839035Y-95428162D01*
X123986838Y-95349160D01*
X124147213Y-95300510D01*
X124272206Y-95288200D01*
X125155794Y-95288200D01*
X125280787Y-95300510D01*
X125280787Y-95300510D01*
G37*
G36*
X117660787Y-95300510D02*
G01*
X117821162Y-95349160D01*
X117968965Y-95428162D01*
X118098517Y-95534483D01*
X118204838Y-95664035D01*
X118283840Y-95811838D01*
X118332490Y-95972213D01*
X118348916Y-96139000D01*
X118332490Y-96305787D01*
X118283840Y-96466162D01*
X118204838Y-96613965D01*
X118098517Y-96743517D01*
X117968965Y-96849838D01*
X117821162Y-96928840D01*
X117660787Y-96977490D01*
X117535794Y-96989800D01*
X116652206Y-96989800D01*
X116527213Y-96977490D01*
X116366838Y-96928840D01*
X116219035Y-96849838D01*
X116089483Y-96743517D01*
X115983162Y-96613965D01*
X115904160Y-96466162D01*
X115855510Y-96305787D01*
X115839084Y-96139000D01*
X115855510Y-95972213D01*
X115904160Y-95811838D01*
X115983162Y-95664035D01*
X116089483Y-95534483D01*
X116219035Y-95428162D01*
X116366838Y-95349160D01*
X116527213Y-95300510D01*
X116652206Y-95288200D01*
X117535794Y-95288200D01*
X117660787Y-95300510D01*
X117660787Y-95300510D01*
G37*
G36*
X156767765Y-92978620D02*
G01*
X156957288Y-93057123D01*
X157127854Y-93171092D01*
X157272908Y-93316146D01*
X157350462Y-93432214D01*
X157386878Y-93486714D01*
X157465380Y-93676235D01*
X157505400Y-93877430D01*
X157505400Y-94082570D01*
X157465380Y-94283765D01*
X157401706Y-94437489D01*
X157386877Y-94473288D01*
X157272908Y-94643854D01*
X157127854Y-94788908D01*
X156957288Y-94902877D01*
X156957287Y-94902878D01*
X156957286Y-94902878D01*
X156767765Y-94981380D01*
X156566570Y-95021400D01*
X156361430Y-95021400D01*
X156160235Y-94981380D01*
X155970714Y-94902878D01*
X155970713Y-94902878D01*
X155970712Y-94902877D01*
X155800146Y-94788908D01*
X155655092Y-94643854D01*
X155541123Y-94473288D01*
X155526295Y-94437489D01*
X155462620Y-94283765D01*
X155422600Y-94082570D01*
X155422600Y-93877430D01*
X155462620Y-93676235D01*
X155541122Y-93486714D01*
X155577538Y-93432214D01*
X155655092Y-93316146D01*
X155800146Y-93171092D01*
X155970712Y-93057123D01*
X156160235Y-92978620D01*
X156361430Y-92938600D01*
X156566570Y-92938600D01*
X156767765Y-92978620D01*
X156767765Y-92978620D01*
G37*
G36*
X154227765Y-92978620D02*
G01*
X154417288Y-93057123D01*
X154587854Y-93171092D01*
X154732908Y-93316146D01*
X154810462Y-93432214D01*
X154846878Y-93486714D01*
X154925380Y-93676235D01*
X154965400Y-93877430D01*
X154965400Y-94082570D01*
X154925380Y-94283765D01*
X154861706Y-94437489D01*
X154846877Y-94473288D01*
X154732908Y-94643854D01*
X154587854Y-94788908D01*
X154417288Y-94902877D01*
X154417287Y-94902878D01*
X154417286Y-94902878D01*
X154227765Y-94981380D01*
X154026570Y-95021400D01*
X153821430Y-95021400D01*
X153620235Y-94981380D01*
X153430714Y-94902878D01*
X153430713Y-94902878D01*
X153430712Y-94902877D01*
X153260146Y-94788908D01*
X153115092Y-94643854D01*
X153001123Y-94473288D01*
X152986295Y-94437489D01*
X152922620Y-94283765D01*
X152882600Y-94082570D01*
X152882600Y-93877430D01*
X152922620Y-93676235D01*
X153001122Y-93486714D01*
X153037538Y-93432214D01*
X153115092Y-93316146D01*
X153260146Y-93171092D01*
X153430712Y-93057123D01*
X153620235Y-92978620D01*
X153821430Y-92938600D01*
X154026570Y-92938600D01*
X154227765Y-92978620D01*
X154227765Y-92978620D01*
G37*
G36*
X131367765Y-92978620D02*
G01*
X131557288Y-93057123D01*
X131727854Y-93171092D01*
X131872908Y-93316146D01*
X131950462Y-93432214D01*
X131986878Y-93486714D01*
X132065380Y-93676235D01*
X132105400Y-93877430D01*
X132105400Y-94082570D01*
X132065380Y-94283765D01*
X132001706Y-94437489D01*
X131986877Y-94473288D01*
X131872908Y-94643854D01*
X131727854Y-94788908D01*
X131557288Y-94902877D01*
X131557287Y-94902878D01*
X131557286Y-94902878D01*
X131367765Y-94981380D01*
X131166570Y-95021400D01*
X130961430Y-95021400D01*
X130760235Y-94981380D01*
X130570714Y-94902878D01*
X130570713Y-94902878D01*
X130570712Y-94902877D01*
X130400146Y-94788908D01*
X130255092Y-94643854D01*
X130141123Y-94473288D01*
X130126295Y-94437489D01*
X130062620Y-94283765D01*
X130022600Y-94082570D01*
X130022600Y-93877430D01*
X130062620Y-93676235D01*
X130141122Y-93486714D01*
X130177538Y-93432214D01*
X130255092Y-93316146D01*
X130400146Y-93171092D01*
X130570712Y-93057123D01*
X130760235Y-92978620D01*
X130961430Y-92938600D01*
X131166570Y-92938600D01*
X131367765Y-92978620D01*
X131367765Y-92978620D01*
G37*
G36*
X128827765Y-92978620D02*
G01*
X129017288Y-93057123D01*
X129187854Y-93171092D01*
X129332908Y-93316146D01*
X129410462Y-93432214D01*
X129446878Y-93486714D01*
X129525380Y-93676235D01*
X129565400Y-93877430D01*
X129565400Y-94082570D01*
X129525380Y-94283765D01*
X129461706Y-94437489D01*
X129446877Y-94473288D01*
X129332908Y-94643854D01*
X129187854Y-94788908D01*
X129017288Y-94902877D01*
X129017287Y-94902878D01*
X129017286Y-94902878D01*
X128827765Y-94981380D01*
X128626570Y-95021400D01*
X128421430Y-95021400D01*
X128220235Y-94981380D01*
X128030714Y-94902878D01*
X128030713Y-94902878D01*
X128030712Y-94902877D01*
X127860146Y-94788908D01*
X127715092Y-94643854D01*
X127601123Y-94473288D01*
X127586295Y-94437489D01*
X127522620Y-94283765D01*
X127482600Y-94082570D01*
X127482600Y-93877430D01*
X127522620Y-93676235D01*
X127601122Y-93486714D01*
X127637538Y-93432214D01*
X127715092Y-93316146D01*
X127860146Y-93171092D01*
X128030712Y-93057123D01*
X128220235Y-92978620D01*
X128421430Y-92938600D01*
X128626570Y-92938600D01*
X128827765Y-92978620D01*
X128827765Y-92978620D01*
G37*
G36*
X161094787Y-92760510D02*
G01*
X161255162Y-92809160D01*
X161402965Y-92888162D01*
X161532517Y-92994483D01*
X161638838Y-93124035D01*
X161717840Y-93271838D01*
X161766490Y-93432213D01*
X161782916Y-93599000D01*
X161766490Y-93765787D01*
X161717840Y-93926162D01*
X161638838Y-94073965D01*
X161532517Y-94203517D01*
X161402965Y-94309838D01*
X161255162Y-94388840D01*
X161094787Y-94437490D01*
X160969794Y-94449800D01*
X160086206Y-94449800D01*
X159961213Y-94437490D01*
X159800838Y-94388840D01*
X159653035Y-94309838D01*
X159523483Y-94203517D01*
X159417162Y-94073965D01*
X159338160Y-93926162D01*
X159289510Y-93765787D01*
X159273084Y-93599000D01*
X159289510Y-93432213D01*
X159338160Y-93271838D01*
X159417162Y-93124035D01*
X159523483Y-92994483D01*
X159653035Y-92888162D01*
X159800838Y-92809160D01*
X159961213Y-92760510D01*
X160086206Y-92748200D01*
X160969794Y-92748200D01*
X161094787Y-92760510D01*
X161094787Y-92760510D01*
G37*
G36*
X168714787Y-92760510D02*
G01*
X168875162Y-92809160D01*
X169022965Y-92888162D01*
X169152517Y-92994483D01*
X169258838Y-93124035D01*
X169337840Y-93271838D01*
X169386490Y-93432213D01*
X169402916Y-93599000D01*
X169386490Y-93765787D01*
X169337840Y-93926162D01*
X169258838Y-94073965D01*
X169152517Y-94203517D01*
X169022965Y-94309838D01*
X168875162Y-94388840D01*
X168714787Y-94437490D01*
X168589794Y-94449800D01*
X167706206Y-94449800D01*
X167581213Y-94437490D01*
X167420838Y-94388840D01*
X167273035Y-94309838D01*
X167143483Y-94203517D01*
X167037162Y-94073965D01*
X166958160Y-93926162D01*
X166909510Y-93765787D01*
X166893084Y-93599000D01*
X166909510Y-93432213D01*
X166958160Y-93271838D01*
X167037162Y-93124035D01*
X167143483Y-92994483D01*
X167273035Y-92888162D01*
X167420838Y-92809160D01*
X167581213Y-92760510D01*
X167706206Y-92748200D01*
X168589794Y-92748200D01*
X168714787Y-92760510D01*
X168714787Y-92760510D01*
G37*
G36*
X125280787Y-92760510D02*
G01*
X125441162Y-92809160D01*
X125588965Y-92888162D01*
X125718517Y-92994483D01*
X125824838Y-93124035D01*
X125903840Y-93271838D01*
X125952490Y-93432213D01*
X125968916Y-93599000D01*
X125952490Y-93765787D01*
X125903840Y-93926162D01*
X125824838Y-94073965D01*
X125718517Y-94203517D01*
X125588965Y-94309838D01*
X125441162Y-94388840D01*
X125280787Y-94437490D01*
X125155794Y-94449800D01*
X124272206Y-94449800D01*
X124147213Y-94437490D01*
X123986838Y-94388840D01*
X123839035Y-94309838D01*
X123709483Y-94203517D01*
X123603162Y-94073965D01*
X123524160Y-93926162D01*
X123475510Y-93765787D01*
X123459084Y-93599000D01*
X123475510Y-93432213D01*
X123524160Y-93271838D01*
X123603162Y-93124035D01*
X123709483Y-92994483D01*
X123839035Y-92888162D01*
X123986838Y-92809160D01*
X124147213Y-92760510D01*
X124272206Y-92748200D01*
X125155794Y-92748200D01*
X125280787Y-92760510D01*
X125280787Y-92760510D01*
G37*
G36*
X117660787Y-92760510D02*
G01*
X117821162Y-92809160D01*
X117968965Y-92888162D01*
X118098517Y-92994483D01*
X118204838Y-93124035D01*
X118283840Y-93271838D01*
X118332490Y-93432213D01*
X118348916Y-93599000D01*
X118332490Y-93765787D01*
X118283840Y-93926162D01*
X118204838Y-94073965D01*
X118098517Y-94203517D01*
X117968965Y-94309838D01*
X117821162Y-94388840D01*
X117660787Y-94437490D01*
X117535794Y-94449800D01*
X116652206Y-94449800D01*
X116527213Y-94437490D01*
X116366838Y-94388840D01*
X116219035Y-94309838D01*
X116089483Y-94203517D01*
X115983162Y-94073965D01*
X115904160Y-93926162D01*
X115855510Y-93765787D01*
X115839084Y-93599000D01*
X115855510Y-93432213D01*
X115904160Y-93271838D01*
X115983162Y-93124035D01*
X116089483Y-92994483D01*
X116219035Y-92888162D01*
X116366838Y-92809160D01*
X116527213Y-92760510D01*
X116652206Y-92748200D01*
X117535794Y-92748200D01*
X117660787Y-92760510D01*
X117660787Y-92760510D01*
G37*
G36*
X156767765Y-90438620D02*
G01*
X156957288Y-90517123D01*
X157127854Y-90631092D01*
X157272908Y-90776146D01*
X157350462Y-90892214D01*
X157386878Y-90946714D01*
X157465380Y-91136235D01*
X157505400Y-91337430D01*
X157505400Y-91542570D01*
X157465380Y-91743765D01*
X157401706Y-91897489D01*
X157386877Y-91933288D01*
X157272908Y-92103854D01*
X157127854Y-92248908D01*
X156957288Y-92362877D01*
X156957287Y-92362878D01*
X156957286Y-92362878D01*
X156767765Y-92441380D01*
X156566570Y-92481400D01*
X156361430Y-92481400D01*
X156160235Y-92441380D01*
X155970714Y-92362878D01*
X155970713Y-92362878D01*
X155970712Y-92362877D01*
X155800146Y-92248908D01*
X155655092Y-92103854D01*
X155541123Y-91933288D01*
X155526295Y-91897489D01*
X155462620Y-91743765D01*
X155422600Y-91542570D01*
X155422600Y-91337430D01*
X155462620Y-91136235D01*
X155541122Y-90946714D01*
X155577538Y-90892214D01*
X155655092Y-90776146D01*
X155800146Y-90631092D01*
X155970712Y-90517123D01*
X156160235Y-90438620D01*
X156361430Y-90398600D01*
X156566570Y-90398600D01*
X156767765Y-90438620D01*
X156767765Y-90438620D01*
G37*
G36*
X154227765Y-90438620D02*
G01*
X154417288Y-90517123D01*
X154587854Y-90631092D01*
X154732908Y-90776146D01*
X154810462Y-90892214D01*
X154846878Y-90946714D01*
X154925380Y-91136235D01*
X154965400Y-91337430D01*
X154965400Y-91542570D01*
X154925380Y-91743765D01*
X154861706Y-91897489D01*
X154846877Y-91933288D01*
X154732908Y-92103854D01*
X154587854Y-92248908D01*
X154417288Y-92362877D01*
X154417287Y-92362878D01*
X154417286Y-92362878D01*
X154227765Y-92441380D01*
X154026570Y-92481400D01*
X153821430Y-92481400D01*
X153620235Y-92441380D01*
X153430714Y-92362878D01*
X153430713Y-92362878D01*
X153430712Y-92362877D01*
X153260146Y-92248908D01*
X153115092Y-92103854D01*
X153001123Y-91933288D01*
X152986295Y-91897489D01*
X152922620Y-91743765D01*
X152882600Y-91542570D01*
X152882600Y-91337430D01*
X152922620Y-91136235D01*
X153001122Y-90946714D01*
X153037538Y-90892214D01*
X153115092Y-90776146D01*
X153260146Y-90631092D01*
X153430712Y-90517123D01*
X153620235Y-90438620D01*
X153821430Y-90398600D01*
X154026570Y-90398600D01*
X154227765Y-90438620D01*
X154227765Y-90438620D01*
G37*
G36*
X131367765Y-90438620D02*
G01*
X131557288Y-90517123D01*
X131727854Y-90631092D01*
X131872908Y-90776146D01*
X131950462Y-90892214D01*
X131986878Y-90946714D01*
X132065380Y-91136235D01*
X132105400Y-91337430D01*
X132105400Y-91542570D01*
X132065380Y-91743765D01*
X132001706Y-91897489D01*
X131986877Y-91933288D01*
X131872908Y-92103854D01*
X131727854Y-92248908D01*
X131557288Y-92362877D01*
X131557287Y-92362878D01*
X131557286Y-92362878D01*
X131367765Y-92441380D01*
X131166570Y-92481400D01*
X130961430Y-92481400D01*
X130760235Y-92441380D01*
X130570714Y-92362878D01*
X130570713Y-92362878D01*
X130570712Y-92362877D01*
X130400146Y-92248908D01*
X130255092Y-92103854D01*
X130141123Y-91933288D01*
X130126295Y-91897489D01*
X130062620Y-91743765D01*
X130022600Y-91542570D01*
X130022600Y-91337430D01*
X130062620Y-91136235D01*
X130141122Y-90946714D01*
X130177538Y-90892214D01*
X130255092Y-90776146D01*
X130400146Y-90631092D01*
X130570712Y-90517123D01*
X130760235Y-90438620D01*
X130961430Y-90398600D01*
X131166570Y-90398600D01*
X131367765Y-90438620D01*
X131367765Y-90438620D01*
G37*
G36*
X128827765Y-90438620D02*
G01*
X129017288Y-90517123D01*
X129187854Y-90631092D01*
X129332908Y-90776146D01*
X129410462Y-90892214D01*
X129446878Y-90946714D01*
X129525380Y-91136235D01*
X129565400Y-91337430D01*
X129565400Y-91542570D01*
X129525380Y-91743765D01*
X129461706Y-91897489D01*
X129446877Y-91933288D01*
X129332908Y-92103854D01*
X129187854Y-92248908D01*
X129017288Y-92362877D01*
X129017287Y-92362878D01*
X129017286Y-92362878D01*
X128827765Y-92441380D01*
X128626570Y-92481400D01*
X128421430Y-92481400D01*
X128220235Y-92441380D01*
X128030714Y-92362878D01*
X128030713Y-92362878D01*
X128030712Y-92362877D01*
X127860146Y-92248908D01*
X127715092Y-92103854D01*
X127601123Y-91933288D01*
X127586295Y-91897489D01*
X127522620Y-91743765D01*
X127482600Y-91542570D01*
X127482600Y-91337430D01*
X127522620Y-91136235D01*
X127601122Y-90946714D01*
X127637538Y-90892214D01*
X127715092Y-90776146D01*
X127860146Y-90631092D01*
X128030712Y-90517123D01*
X128220235Y-90438620D01*
X128421430Y-90398600D01*
X128626570Y-90398600D01*
X128827765Y-90438620D01*
X128827765Y-90438620D01*
G37*
G36*
X168714787Y-90220510D02*
G01*
X168875162Y-90269160D01*
X169022965Y-90348162D01*
X169152517Y-90454483D01*
X169258838Y-90584035D01*
X169337840Y-90731838D01*
X169386490Y-90892213D01*
X169402916Y-91059000D01*
X169386490Y-91225787D01*
X169337840Y-91386162D01*
X169258838Y-91533965D01*
X169152517Y-91663517D01*
X169022965Y-91769838D01*
X168875162Y-91848840D01*
X168714787Y-91897490D01*
X168589794Y-91909800D01*
X167706206Y-91909800D01*
X167581213Y-91897490D01*
X167420838Y-91848840D01*
X167273035Y-91769838D01*
X167143483Y-91663517D01*
X167037162Y-91533965D01*
X166958160Y-91386162D01*
X166909510Y-91225787D01*
X166893084Y-91059000D01*
X166909510Y-90892213D01*
X166958160Y-90731838D01*
X167037162Y-90584035D01*
X167143483Y-90454483D01*
X167273035Y-90348162D01*
X167420838Y-90269160D01*
X167581213Y-90220510D01*
X167706206Y-90208200D01*
X168589794Y-90208200D01*
X168714787Y-90220510D01*
X168714787Y-90220510D01*
G37*
G36*
X161094787Y-90220510D02*
G01*
X161255162Y-90269160D01*
X161402965Y-90348162D01*
X161532517Y-90454483D01*
X161638838Y-90584035D01*
X161717840Y-90731838D01*
X161766490Y-90892213D01*
X161782916Y-91059000D01*
X161766490Y-91225787D01*
X161717840Y-91386162D01*
X161638838Y-91533965D01*
X161532517Y-91663517D01*
X161402965Y-91769838D01*
X161255162Y-91848840D01*
X161094787Y-91897490D01*
X160969794Y-91909800D01*
X160086206Y-91909800D01*
X159961213Y-91897490D01*
X159800838Y-91848840D01*
X159653035Y-91769838D01*
X159523483Y-91663517D01*
X159417162Y-91533965D01*
X159338160Y-91386162D01*
X159289510Y-91225787D01*
X159273084Y-91059000D01*
X159289510Y-90892213D01*
X159338160Y-90731838D01*
X159417162Y-90584035D01*
X159523483Y-90454483D01*
X159653035Y-90348162D01*
X159800838Y-90269160D01*
X159961213Y-90220510D01*
X160086206Y-90208200D01*
X160969794Y-90208200D01*
X161094787Y-90220510D01*
X161094787Y-90220510D01*
G37*
G36*
X125280787Y-90220510D02*
G01*
X125441162Y-90269160D01*
X125588965Y-90348162D01*
X125718517Y-90454483D01*
X125824838Y-90584035D01*
X125903840Y-90731838D01*
X125952490Y-90892213D01*
X125968916Y-91059000D01*
X125952490Y-91225787D01*
X125903840Y-91386162D01*
X125824838Y-91533965D01*
X125718517Y-91663517D01*
X125588965Y-91769838D01*
X125441162Y-91848840D01*
X125280787Y-91897490D01*
X125155794Y-91909800D01*
X124272206Y-91909800D01*
X124147213Y-91897490D01*
X123986838Y-91848840D01*
X123839035Y-91769838D01*
X123709483Y-91663517D01*
X123603162Y-91533965D01*
X123524160Y-91386162D01*
X123475510Y-91225787D01*
X123459084Y-91059000D01*
X123475510Y-90892213D01*
X123524160Y-90731838D01*
X123603162Y-90584035D01*
X123709483Y-90454483D01*
X123839035Y-90348162D01*
X123986838Y-90269160D01*
X124147213Y-90220510D01*
X124272206Y-90208200D01*
X125155794Y-90208200D01*
X125280787Y-90220510D01*
X125280787Y-90220510D01*
G37*
G36*
X117660787Y-90220510D02*
G01*
X117821162Y-90269160D01*
X117968965Y-90348162D01*
X118098517Y-90454483D01*
X118204838Y-90584035D01*
X118283840Y-90731838D01*
X118332490Y-90892213D01*
X118348916Y-91059000D01*
X118332490Y-91225787D01*
X118283840Y-91386162D01*
X118204838Y-91533965D01*
X118098517Y-91663517D01*
X117968965Y-91769838D01*
X117821162Y-91848840D01*
X117660787Y-91897490D01*
X117535794Y-91909800D01*
X116652206Y-91909800D01*
X116527213Y-91897490D01*
X116366838Y-91848840D01*
X116219035Y-91769838D01*
X116089483Y-91663517D01*
X115983162Y-91533965D01*
X115904160Y-91386162D01*
X115855510Y-91225787D01*
X115839084Y-91059000D01*
X115855510Y-90892213D01*
X115904160Y-90731838D01*
X115983162Y-90584035D01*
X116089483Y-90454483D01*
X116219035Y-90348162D01*
X116366838Y-90269160D01*
X116527213Y-90220510D01*
X116652206Y-90208200D01*
X117535794Y-90208200D01*
X117660787Y-90220510D01*
X117660787Y-90220510D01*
G37*
G36*
X117660787Y-87680510D02*
G01*
X117821162Y-87729160D01*
X117968965Y-87808162D01*
X118098517Y-87914483D01*
X118204838Y-88044035D01*
X118283840Y-88191838D01*
X118332490Y-88352213D01*
X118348916Y-88519000D01*
X118332490Y-88685787D01*
X118283840Y-88846162D01*
X118204838Y-88993965D01*
X118098517Y-89123517D01*
X117968965Y-89229838D01*
X117821162Y-89308840D01*
X117660787Y-89357490D01*
X117535794Y-89369800D01*
X116652206Y-89369800D01*
X116527213Y-89357490D01*
X116366838Y-89308840D01*
X116219035Y-89229838D01*
X116089483Y-89123517D01*
X115983162Y-88993965D01*
X115904160Y-88846162D01*
X115855510Y-88685787D01*
X115839084Y-88519000D01*
X115855510Y-88352213D01*
X115904160Y-88191838D01*
X115983162Y-88044035D01*
X116089483Y-87914483D01*
X116219035Y-87808162D01*
X116366838Y-87729160D01*
X116527213Y-87680510D01*
X116652206Y-87668200D01*
X117535794Y-87668200D01*
X117660787Y-87680510D01*
X117660787Y-87680510D01*
G37*
G36*
X125280787Y-87680510D02*
G01*
X125441162Y-87729160D01*
X125588965Y-87808162D01*
X125718517Y-87914483D01*
X125824838Y-88044035D01*
X125903840Y-88191838D01*
X125952490Y-88352213D01*
X125968916Y-88519000D01*
X125952490Y-88685787D01*
X125903840Y-88846162D01*
X125824838Y-88993965D01*
X125718517Y-89123517D01*
X125588965Y-89229838D01*
X125441162Y-89308840D01*
X125280787Y-89357490D01*
X125155794Y-89369800D01*
X124272206Y-89369800D01*
X124147213Y-89357490D01*
X123986838Y-89308840D01*
X123839035Y-89229838D01*
X123709483Y-89123517D01*
X123603162Y-88993965D01*
X123524160Y-88846162D01*
X123475510Y-88685787D01*
X123459084Y-88519000D01*
X123475510Y-88352213D01*
X123524160Y-88191838D01*
X123603162Y-88044035D01*
X123709483Y-87914483D01*
X123839035Y-87808162D01*
X123986838Y-87729160D01*
X124147213Y-87680510D01*
X124272206Y-87668200D01*
X125155794Y-87668200D01*
X125280787Y-87680510D01*
X125280787Y-87680510D01*
G37*
G36*
X161094787Y-87680510D02*
G01*
X161255162Y-87729160D01*
X161402965Y-87808162D01*
X161532517Y-87914483D01*
X161638838Y-88044035D01*
X161717840Y-88191838D01*
X161766490Y-88352213D01*
X161782916Y-88519000D01*
X161766490Y-88685787D01*
X161717840Y-88846162D01*
X161638838Y-88993965D01*
X161532517Y-89123517D01*
X161402965Y-89229838D01*
X161255162Y-89308840D01*
X161094787Y-89357490D01*
X160969794Y-89369800D01*
X160086206Y-89369800D01*
X159961213Y-89357490D01*
X159800838Y-89308840D01*
X159653035Y-89229838D01*
X159523483Y-89123517D01*
X159417162Y-88993965D01*
X159338160Y-88846162D01*
X159289510Y-88685787D01*
X159273084Y-88519000D01*
X159289510Y-88352213D01*
X159338160Y-88191838D01*
X159417162Y-88044035D01*
X159523483Y-87914483D01*
X159653035Y-87808162D01*
X159800838Y-87729160D01*
X159961213Y-87680510D01*
X160086206Y-87668200D01*
X160969794Y-87668200D01*
X161094787Y-87680510D01*
X161094787Y-87680510D01*
G37*
G36*
X168714787Y-87680510D02*
G01*
X168875162Y-87729160D01*
X169022965Y-87808162D01*
X169152517Y-87914483D01*
X169258838Y-88044035D01*
X169337840Y-88191838D01*
X169386490Y-88352213D01*
X169402916Y-88519000D01*
X169386490Y-88685787D01*
X169337840Y-88846162D01*
X169258838Y-88993965D01*
X169152517Y-89123517D01*
X169022965Y-89229838D01*
X168875162Y-89308840D01*
X168714787Y-89357490D01*
X168589794Y-89369800D01*
X167706206Y-89369800D01*
X167581213Y-89357490D01*
X167420838Y-89308840D01*
X167273035Y-89229838D01*
X167143483Y-89123517D01*
X167037162Y-88993965D01*
X166958160Y-88846162D01*
X166909510Y-88685787D01*
X166893084Y-88519000D01*
X166909510Y-88352213D01*
X166958160Y-88191838D01*
X167037162Y-88044035D01*
X167143483Y-87914483D01*
X167273035Y-87808162D01*
X167420838Y-87729160D01*
X167581213Y-87680510D01*
X167706206Y-87668200D01*
X168589794Y-87668200D01*
X168714787Y-87680510D01*
X168714787Y-87680510D01*
G37*
G36*
X168714787Y-85140510D02*
G01*
X168875162Y-85189160D01*
X169022965Y-85268162D01*
X169152517Y-85374483D01*
X169258838Y-85504035D01*
X169337840Y-85651838D01*
X169386490Y-85812213D01*
X169402916Y-85979000D01*
X169386490Y-86145787D01*
X169337840Y-86306162D01*
X169258838Y-86453965D01*
X169152517Y-86583517D01*
X169022965Y-86689838D01*
X168875162Y-86768840D01*
X168714787Y-86817490D01*
X168589794Y-86829800D01*
X167706206Y-86829800D01*
X167581213Y-86817490D01*
X167420838Y-86768840D01*
X167273035Y-86689838D01*
X167143483Y-86583517D01*
X167037162Y-86453965D01*
X166958160Y-86306162D01*
X166909510Y-86145787D01*
X166893084Y-85979000D01*
X166909510Y-85812213D01*
X166958160Y-85651838D01*
X167037162Y-85504035D01*
X167143483Y-85374483D01*
X167273035Y-85268162D01*
X167420838Y-85189160D01*
X167581213Y-85140510D01*
X167706206Y-85128200D01*
X168589794Y-85128200D01*
X168714787Y-85140510D01*
X168714787Y-85140510D01*
G37*
G36*
X161094787Y-85140510D02*
G01*
X161255162Y-85189160D01*
X161402965Y-85268162D01*
X161532517Y-85374483D01*
X161638838Y-85504035D01*
X161717840Y-85651838D01*
X161766490Y-85812213D01*
X161782916Y-85979000D01*
X161766490Y-86145787D01*
X161717840Y-86306162D01*
X161638838Y-86453965D01*
X161532517Y-86583517D01*
X161402965Y-86689838D01*
X161255162Y-86768840D01*
X161094787Y-86817490D01*
X160969794Y-86829800D01*
X160086206Y-86829800D01*
X159961213Y-86817490D01*
X159800838Y-86768840D01*
X159653035Y-86689838D01*
X159523483Y-86583517D01*
X159417162Y-86453965D01*
X159338160Y-86306162D01*
X159289510Y-86145787D01*
X159273084Y-85979000D01*
X159289510Y-85812213D01*
X159338160Y-85651838D01*
X159417162Y-85504035D01*
X159523483Y-85374483D01*
X159653035Y-85268162D01*
X159800838Y-85189160D01*
X159961213Y-85140510D01*
X160086206Y-85128200D01*
X160969794Y-85128200D01*
X161094787Y-85140510D01*
X161094787Y-85140510D01*
G37*
G36*
X125280787Y-85140510D02*
G01*
X125441162Y-85189160D01*
X125588965Y-85268162D01*
X125718517Y-85374483D01*
X125824838Y-85504035D01*
X125903840Y-85651838D01*
X125952490Y-85812213D01*
X125968916Y-85979000D01*
X125952490Y-86145787D01*
X125903840Y-86306162D01*
X125824838Y-86453965D01*
X125718517Y-86583517D01*
X125588965Y-86689838D01*
X125441162Y-86768840D01*
X125280787Y-86817490D01*
X125155794Y-86829800D01*
X124272206Y-86829800D01*
X124147213Y-86817490D01*
X123986838Y-86768840D01*
X123839035Y-86689838D01*
X123709483Y-86583517D01*
X123603162Y-86453965D01*
X123524160Y-86306162D01*
X123475510Y-86145787D01*
X123459084Y-85979000D01*
X123475510Y-85812213D01*
X123524160Y-85651838D01*
X123603162Y-85504035D01*
X123709483Y-85374483D01*
X123839035Y-85268162D01*
X123986838Y-85189160D01*
X124147213Y-85140510D01*
X124272206Y-85128200D01*
X125155794Y-85128200D01*
X125280787Y-85140510D01*
X125280787Y-85140510D01*
G37*
G36*
X117660787Y-85140510D02*
G01*
X117821162Y-85189160D01*
X117968965Y-85268162D01*
X118098517Y-85374483D01*
X118204838Y-85504035D01*
X118283840Y-85651838D01*
X118332490Y-85812213D01*
X118348916Y-85979000D01*
X118332490Y-86145787D01*
X118283840Y-86306162D01*
X118204838Y-86453965D01*
X118098517Y-86583517D01*
X117968965Y-86689838D01*
X117821162Y-86768840D01*
X117660787Y-86817490D01*
X117535794Y-86829800D01*
X116652206Y-86829800D01*
X116527213Y-86817490D01*
X116366838Y-86768840D01*
X116219035Y-86689838D01*
X116089483Y-86583517D01*
X115983162Y-86453965D01*
X115904160Y-86306162D01*
X115855510Y-86145787D01*
X115839084Y-85979000D01*
X115855510Y-85812213D01*
X115904160Y-85651838D01*
X115983162Y-85504035D01*
X116089483Y-85374483D01*
X116219035Y-85268162D01*
X116366838Y-85189160D01*
X116527213Y-85140510D01*
X116652206Y-85128200D01*
X117535794Y-85128200D01*
X117660787Y-85140510D01*
X117660787Y-85140510D01*
G37*
G36*
X161778800Y-84289800D02*
G01*
X159277200Y-84289800D01*
X159277200Y-82588200D01*
X161778800Y-82588200D01*
X161778800Y-84289800D01*
X161778800Y-84289800D01*
G37*
G36*
X125280787Y-82600510D02*
G01*
X125441162Y-82649160D01*
X125588965Y-82728162D01*
X125718517Y-82834483D01*
X125824838Y-82964035D01*
X125903840Y-83111838D01*
X125952490Y-83272213D01*
X125968916Y-83439000D01*
X125952490Y-83605787D01*
X125903840Y-83766162D01*
X125824838Y-83913965D01*
X125718517Y-84043517D01*
X125588965Y-84149838D01*
X125441162Y-84228840D01*
X125280787Y-84277490D01*
X125155794Y-84289800D01*
X124272206Y-84289800D01*
X124147213Y-84277490D01*
X123986838Y-84228840D01*
X123839035Y-84149838D01*
X123709483Y-84043517D01*
X123603162Y-83913965D01*
X123524160Y-83766162D01*
X123475510Y-83605787D01*
X123459084Y-83439000D01*
X123475510Y-83272213D01*
X123524160Y-83111838D01*
X123603162Y-82964035D01*
X123709483Y-82834483D01*
X123839035Y-82728162D01*
X123986838Y-82649160D01*
X124147213Y-82600510D01*
X124272206Y-82588200D01*
X125155794Y-82588200D01*
X125280787Y-82600510D01*
X125280787Y-82600510D01*
G37*
G36*
X168714787Y-82600510D02*
G01*
X168875162Y-82649160D01*
X169022965Y-82728162D01*
X169152517Y-82834483D01*
X169258838Y-82964035D01*
X169337840Y-83111838D01*
X169386490Y-83272213D01*
X169402916Y-83439000D01*
X169386490Y-83605787D01*
X169337840Y-83766162D01*
X169258838Y-83913965D01*
X169152517Y-84043517D01*
X169022965Y-84149838D01*
X168875162Y-84228840D01*
X168714787Y-84277490D01*
X168589794Y-84289800D01*
X167706206Y-84289800D01*
X167581213Y-84277490D01*
X167420838Y-84228840D01*
X167273035Y-84149838D01*
X167143483Y-84043517D01*
X167037162Y-83913965D01*
X166958160Y-83766162D01*
X166909510Y-83605787D01*
X166893084Y-83439000D01*
X166909510Y-83272213D01*
X166958160Y-83111838D01*
X167037162Y-82964035D01*
X167143483Y-82834483D01*
X167273035Y-82728162D01*
X167420838Y-82649160D01*
X167581213Y-82600510D01*
X167706206Y-82588200D01*
X168589794Y-82588200D01*
X168714787Y-82600510D01*
X168714787Y-82600510D01*
G37*
G36*
X118344800Y-84289800D02*
G01*
X115843200Y-84289800D01*
X115843200Y-82588200D01*
X118344800Y-82588200D01*
X118344800Y-84289800D01*
X118344800Y-84289800D01*
G37*
G36*
X164109169Y-78429895D02*
G01*
X164264005Y-78494031D01*
X164403354Y-78587140D01*
X164521860Y-78705646D01*
X164614969Y-78844995D01*
X164679105Y-78999831D01*
X164711800Y-79164203D01*
X164711800Y-79331797D01*
X164679105Y-79496169D01*
X164614969Y-79651005D01*
X164521860Y-79790354D01*
X164403354Y-79908860D01*
X164264005Y-80001969D01*
X164109169Y-80066105D01*
X163944797Y-80098800D01*
X163777203Y-80098800D01*
X163612831Y-80066105D01*
X163457995Y-80001969D01*
X163318646Y-79908860D01*
X163200140Y-79790354D01*
X163107031Y-79651005D01*
X163042895Y-79496169D01*
X163010200Y-79331797D01*
X163010200Y-79164203D01*
X163042895Y-78999831D01*
X163107031Y-78844995D01*
X163200140Y-78705646D01*
X163318646Y-78587140D01*
X163457995Y-78494031D01*
X163612831Y-78429895D01*
X163777203Y-78397200D01*
X163944797Y-78397200D01*
X164109169Y-78429895D01*
X164109169Y-78429895D01*
G37*
G36*
X161339169Y-78429895D02*
G01*
X161494005Y-78494031D01*
X161633354Y-78587140D01*
X161751860Y-78705646D01*
X161844969Y-78844995D01*
X161909105Y-78999831D01*
X161941800Y-79164203D01*
X161941800Y-79331797D01*
X161909105Y-79496169D01*
X161844969Y-79651005D01*
X161751860Y-79790354D01*
X161633354Y-79908860D01*
X161494005Y-80001969D01*
X161339169Y-80066105D01*
X161174797Y-80098800D01*
X161007203Y-80098800D01*
X160842831Y-80066105D01*
X160687995Y-80001969D01*
X160548646Y-79908860D01*
X160430140Y-79790354D01*
X160337031Y-79651005D01*
X160272895Y-79496169D01*
X160240200Y-79331797D01*
X160240200Y-79164203D01*
X160272895Y-78999831D01*
X160337031Y-78844995D01*
X160430140Y-78705646D01*
X160548646Y-78587140D01*
X160687995Y-78494031D01*
X160842831Y-78429895D01*
X161007203Y-78397200D01*
X161174797Y-78397200D01*
X161339169Y-78429895D01*
X161339169Y-78429895D01*
G37*
G36*
X158569169Y-78429895D02*
G01*
X158724005Y-78494031D01*
X158863354Y-78587140D01*
X158981860Y-78705646D01*
X159074969Y-78844995D01*
X159139105Y-78999831D01*
X159171800Y-79164203D01*
X159171800Y-79331797D01*
X159139105Y-79496169D01*
X159074969Y-79651005D01*
X158981860Y-79790354D01*
X158863354Y-79908860D01*
X158724005Y-80001969D01*
X158569169Y-80066105D01*
X158404797Y-80098800D01*
X158237203Y-80098800D01*
X158072831Y-80066105D01*
X157917995Y-80001969D01*
X157778646Y-79908860D01*
X157660140Y-79790354D01*
X157567031Y-79651005D01*
X157502895Y-79496169D01*
X157470200Y-79331797D01*
X157470200Y-79164203D01*
X157502895Y-78999831D01*
X157567031Y-78844995D01*
X157660140Y-78705646D01*
X157778646Y-78587140D01*
X157917995Y-78494031D01*
X158072831Y-78429895D01*
X158237203Y-78397200D01*
X158404797Y-78397200D01*
X158569169Y-78429895D01*
X158569169Y-78429895D01*
G37*
G36*
X155799169Y-78429895D02*
G01*
X155954005Y-78494031D01*
X156093354Y-78587140D01*
X156211860Y-78705646D01*
X156304969Y-78844995D01*
X156369105Y-78999831D01*
X156401800Y-79164203D01*
X156401800Y-79331797D01*
X156369105Y-79496169D01*
X156304969Y-79651005D01*
X156211860Y-79790354D01*
X156093354Y-79908860D01*
X155954005Y-80001969D01*
X155799169Y-80066105D01*
X155634797Y-80098800D01*
X155467203Y-80098800D01*
X155302831Y-80066105D01*
X155147995Y-80001969D01*
X155008646Y-79908860D01*
X154890140Y-79790354D01*
X154797031Y-79651005D01*
X154732895Y-79496169D01*
X154700200Y-79331797D01*
X154700200Y-79164203D01*
X154732895Y-78999831D01*
X154797031Y-78844995D01*
X154890140Y-78705646D01*
X155008646Y-78587140D01*
X155147995Y-78494031D01*
X155302831Y-78429895D01*
X155467203Y-78397200D01*
X155634797Y-78397200D01*
X155799169Y-78429895D01*
X155799169Y-78429895D01*
G37*
G36*
X132740169Y-78429895D02*
G01*
X132895005Y-78494031D01*
X133034354Y-78587140D01*
X133152860Y-78705646D01*
X133245969Y-78844995D01*
X133310105Y-78999831D01*
X133342800Y-79164203D01*
X133342800Y-79331797D01*
X133310105Y-79496169D01*
X133245969Y-79651005D01*
X133152860Y-79790354D01*
X133034354Y-79908860D01*
X132895005Y-80001969D01*
X132740169Y-80066105D01*
X132575797Y-80098800D01*
X132408203Y-80098800D01*
X132243831Y-80066105D01*
X132088995Y-80001969D01*
X131949646Y-79908860D01*
X131831140Y-79790354D01*
X131738031Y-79651005D01*
X131673895Y-79496169D01*
X131641200Y-79331797D01*
X131641200Y-79164203D01*
X131673895Y-78999831D01*
X131738031Y-78844995D01*
X131831140Y-78705646D01*
X131949646Y-78587140D01*
X132088995Y-78494031D01*
X132243831Y-78429895D01*
X132408203Y-78397200D01*
X132575797Y-78397200D01*
X132740169Y-78429895D01*
X132740169Y-78429895D01*
G37*
G36*
X153631800Y-80098800D02*
G01*
X151930200Y-80098800D01*
X151930200Y-78397200D01*
X153631800Y-78397200D01*
X153631800Y-80098800D01*
X153631800Y-80098800D01*
G37*
G36*
X129970169Y-78429895D02*
G01*
X130125005Y-78494031D01*
X130264354Y-78587140D01*
X130382860Y-78705646D01*
X130475969Y-78844995D01*
X130540105Y-78999831D01*
X130572800Y-79164203D01*
X130572800Y-79331797D01*
X130540105Y-79496169D01*
X130475969Y-79651005D01*
X130382860Y-79790354D01*
X130264354Y-79908860D01*
X130125005Y-80001969D01*
X129970169Y-80066105D01*
X129805797Y-80098800D01*
X129638203Y-80098800D01*
X129473831Y-80066105D01*
X129318995Y-80001969D01*
X129179646Y-79908860D01*
X129061140Y-79790354D01*
X128968031Y-79651005D01*
X128903895Y-79496169D01*
X128871200Y-79331797D01*
X128871200Y-79164203D01*
X128903895Y-78999831D01*
X128968031Y-78844995D01*
X129061140Y-78705646D01*
X129179646Y-78587140D01*
X129318995Y-78494031D01*
X129473831Y-78429895D01*
X129638203Y-78397200D01*
X129805797Y-78397200D01*
X129970169Y-78429895D01*
X129970169Y-78429895D01*
G37*
G36*
X127200169Y-78429895D02*
G01*
X127355005Y-78494031D01*
X127494354Y-78587140D01*
X127612860Y-78705646D01*
X127705969Y-78844995D01*
X127770105Y-78999831D01*
X127802800Y-79164203D01*
X127802800Y-79331797D01*
X127770105Y-79496169D01*
X127705969Y-79651005D01*
X127612860Y-79790354D01*
X127494354Y-79908860D01*
X127355005Y-80001969D01*
X127200169Y-80066105D01*
X127035797Y-80098800D01*
X126868203Y-80098800D01*
X126703831Y-80066105D01*
X126548995Y-80001969D01*
X126409646Y-79908860D01*
X126291140Y-79790354D01*
X126198031Y-79651005D01*
X126133895Y-79496169D01*
X126101200Y-79331797D01*
X126101200Y-79164203D01*
X126133895Y-78999831D01*
X126198031Y-78844995D01*
X126291140Y-78705646D01*
X126409646Y-78587140D01*
X126548995Y-78494031D01*
X126703831Y-78429895D01*
X126868203Y-78397200D01*
X127035797Y-78397200D01*
X127200169Y-78429895D01*
X127200169Y-78429895D01*
G37*
G36*
X122262800Y-80098800D02*
G01*
X120561200Y-80098800D01*
X120561200Y-78397200D01*
X122262800Y-78397200D01*
X122262800Y-80098800D01*
X122262800Y-80098800D01*
G37*
G36*
X124430169Y-78429895D02*
G01*
X124585005Y-78494031D01*
X124724354Y-78587140D01*
X124842860Y-78705646D01*
X124935969Y-78844995D01*
X125000105Y-78999831D01*
X125032800Y-79164203D01*
X125032800Y-79331797D01*
X125000105Y-79496169D01*
X124935969Y-79651005D01*
X124842860Y-79790354D01*
X124724354Y-79908860D01*
X124585005Y-80001969D01*
X124430169Y-80066105D01*
X124265797Y-80098800D01*
X124098203Y-80098800D01*
X123933831Y-80066105D01*
X123778995Y-80001969D01*
X123639646Y-79908860D01*
X123521140Y-79790354D01*
X123428031Y-79651005D01*
X123363895Y-79496169D01*
X123331200Y-79331797D01*
X123331200Y-79164203D01*
X123363895Y-78999831D01*
X123428031Y-78844995D01*
X123521140Y-78705646D01*
X123639646Y-78587140D01*
X123778995Y-78494031D01*
X123933831Y-78429895D01*
X124098203Y-78397200D01*
X124265797Y-78397200D01*
X124430169Y-78429895D01*
X124430169Y-78429895D01*
G37*
G36*
X123045169Y-75589895D02*
G01*
X123200005Y-75654031D01*
X123339354Y-75747140D01*
X123457860Y-75865646D01*
X123550969Y-76004995D01*
X123615105Y-76159831D01*
X123647800Y-76324203D01*
X123647800Y-76491797D01*
X123615105Y-76656169D01*
X123550969Y-76811005D01*
X123457860Y-76950354D01*
X123339354Y-77068860D01*
X123200005Y-77161969D01*
X123045169Y-77226105D01*
X122880797Y-77258800D01*
X122713203Y-77258800D01*
X122548831Y-77226105D01*
X122393995Y-77161969D01*
X122254646Y-77068860D01*
X122136140Y-76950354D01*
X122043031Y-76811005D01*
X121978895Y-76656169D01*
X121946200Y-76491797D01*
X121946200Y-76324203D01*
X121978895Y-76159831D01*
X122043031Y-76004995D01*
X122136140Y-75865646D01*
X122254646Y-75747140D01*
X122393995Y-75654031D01*
X122548831Y-75589895D01*
X122713203Y-75557200D01*
X122880797Y-75557200D01*
X123045169Y-75589895D01*
X123045169Y-75589895D01*
G37*
G36*
X125815169Y-75589895D02*
G01*
X125970005Y-75654031D01*
X126109354Y-75747140D01*
X126227860Y-75865646D01*
X126320969Y-76004995D01*
X126385105Y-76159831D01*
X126417800Y-76324203D01*
X126417800Y-76491797D01*
X126385105Y-76656169D01*
X126320969Y-76811005D01*
X126227860Y-76950354D01*
X126109354Y-77068860D01*
X125970005Y-77161969D01*
X125815169Y-77226105D01*
X125650797Y-77258800D01*
X125483203Y-77258800D01*
X125318831Y-77226105D01*
X125163995Y-77161969D01*
X125024646Y-77068860D01*
X124906140Y-76950354D01*
X124813031Y-76811005D01*
X124748895Y-76656169D01*
X124716200Y-76491797D01*
X124716200Y-76324203D01*
X124748895Y-76159831D01*
X124813031Y-76004995D01*
X124906140Y-75865646D01*
X125024646Y-75747140D01*
X125163995Y-75654031D01*
X125318831Y-75589895D01*
X125483203Y-75557200D01*
X125650797Y-75557200D01*
X125815169Y-75589895D01*
X125815169Y-75589895D01*
G37*
G36*
X131355169Y-75589895D02*
G01*
X131510005Y-75654031D01*
X131649354Y-75747140D01*
X131767860Y-75865646D01*
X131860969Y-76004995D01*
X131925105Y-76159831D01*
X131957800Y-76324203D01*
X131957800Y-76491797D01*
X131925105Y-76656169D01*
X131860969Y-76811005D01*
X131767860Y-76950354D01*
X131649354Y-77068860D01*
X131510005Y-77161969D01*
X131355169Y-77226105D01*
X131190797Y-77258800D01*
X131023203Y-77258800D01*
X130858831Y-77226105D01*
X130703995Y-77161969D01*
X130564646Y-77068860D01*
X130446140Y-76950354D01*
X130353031Y-76811005D01*
X130288895Y-76656169D01*
X130256200Y-76491797D01*
X130256200Y-76324203D01*
X130288895Y-76159831D01*
X130353031Y-76004995D01*
X130446140Y-75865646D01*
X130564646Y-75747140D01*
X130703995Y-75654031D01*
X130858831Y-75589895D01*
X131023203Y-75557200D01*
X131190797Y-75557200D01*
X131355169Y-75589895D01*
X131355169Y-75589895D01*
G37*
G36*
X162724169Y-75589895D02*
G01*
X162879005Y-75654031D01*
X163018354Y-75747140D01*
X163136860Y-75865646D01*
X163229969Y-76004995D01*
X163294105Y-76159831D01*
X163326800Y-76324203D01*
X163326800Y-76491797D01*
X163294105Y-76656169D01*
X163229969Y-76811005D01*
X163136860Y-76950354D01*
X163018354Y-77068860D01*
X162879005Y-77161969D01*
X162724169Y-77226105D01*
X162559797Y-77258800D01*
X162392203Y-77258800D01*
X162227831Y-77226105D01*
X162072995Y-77161969D01*
X161933646Y-77068860D01*
X161815140Y-76950354D01*
X161722031Y-76811005D01*
X161657895Y-76656169D01*
X161625200Y-76491797D01*
X161625200Y-76324203D01*
X161657895Y-76159831D01*
X161722031Y-76004995D01*
X161815140Y-75865646D01*
X161933646Y-75747140D01*
X162072995Y-75654031D01*
X162227831Y-75589895D01*
X162392203Y-75557200D01*
X162559797Y-75557200D01*
X162724169Y-75589895D01*
X162724169Y-75589895D01*
G37*
G36*
X159954169Y-75589895D02*
G01*
X160109005Y-75654031D01*
X160248354Y-75747140D01*
X160366860Y-75865646D01*
X160459969Y-76004995D01*
X160524105Y-76159831D01*
X160556800Y-76324203D01*
X160556800Y-76491797D01*
X160524105Y-76656169D01*
X160459969Y-76811005D01*
X160366860Y-76950354D01*
X160248354Y-77068860D01*
X160109005Y-77161969D01*
X159954169Y-77226105D01*
X159789797Y-77258800D01*
X159622203Y-77258800D01*
X159457831Y-77226105D01*
X159302995Y-77161969D01*
X159163646Y-77068860D01*
X159045140Y-76950354D01*
X158952031Y-76811005D01*
X158887895Y-76656169D01*
X158855200Y-76491797D01*
X158855200Y-76324203D01*
X158887895Y-76159831D01*
X158952031Y-76004995D01*
X159045140Y-75865646D01*
X159163646Y-75747140D01*
X159302995Y-75654031D01*
X159457831Y-75589895D01*
X159622203Y-75557200D01*
X159789797Y-75557200D01*
X159954169Y-75589895D01*
X159954169Y-75589895D01*
G37*
G36*
X157184169Y-75589895D02*
G01*
X157339005Y-75654031D01*
X157478354Y-75747140D01*
X157596860Y-75865646D01*
X157689969Y-76004995D01*
X157754105Y-76159831D01*
X157786800Y-76324203D01*
X157786800Y-76491797D01*
X157754105Y-76656169D01*
X157689969Y-76811005D01*
X157596860Y-76950354D01*
X157478354Y-77068860D01*
X157339005Y-77161969D01*
X157184169Y-77226105D01*
X157019797Y-77258800D01*
X156852203Y-77258800D01*
X156687831Y-77226105D01*
X156532995Y-77161969D01*
X156393646Y-77068860D01*
X156275140Y-76950354D01*
X156182031Y-76811005D01*
X156117895Y-76656169D01*
X156085200Y-76491797D01*
X156085200Y-76324203D01*
X156117895Y-76159831D01*
X156182031Y-76004995D01*
X156275140Y-75865646D01*
X156393646Y-75747140D01*
X156532995Y-75654031D01*
X156687831Y-75589895D01*
X156852203Y-75557200D01*
X157019797Y-75557200D01*
X157184169Y-75589895D01*
X157184169Y-75589895D01*
G37*
G36*
X128585169Y-75589895D02*
G01*
X128740005Y-75654031D01*
X128879354Y-75747140D01*
X128997860Y-75865646D01*
X129090969Y-76004995D01*
X129155105Y-76159831D01*
X129187800Y-76324203D01*
X129187800Y-76491797D01*
X129155105Y-76656169D01*
X129090969Y-76811005D01*
X128997860Y-76950354D01*
X128879354Y-77068860D01*
X128740005Y-77161969D01*
X128585169Y-77226105D01*
X128420797Y-77258800D01*
X128253203Y-77258800D01*
X128088831Y-77226105D01*
X127933995Y-77161969D01*
X127794646Y-77068860D01*
X127676140Y-76950354D01*
X127583031Y-76811005D01*
X127518895Y-76656169D01*
X127486200Y-76491797D01*
X127486200Y-76324203D01*
X127518895Y-76159831D01*
X127583031Y-76004995D01*
X127676140Y-75865646D01*
X127794646Y-75747140D01*
X127933995Y-75654031D01*
X128088831Y-75589895D01*
X128253203Y-75557200D01*
X128420797Y-75557200D01*
X128585169Y-75589895D01*
X128585169Y-75589895D01*
G37*
G36*
X154414169Y-75589895D02*
G01*
X154569005Y-75654031D01*
X154708354Y-75747140D01*
X154826860Y-75865646D01*
X154919969Y-76004995D01*
X154984105Y-76159831D01*
X155016800Y-76324203D01*
X155016800Y-76491797D01*
X154984105Y-76656169D01*
X154919969Y-76811005D01*
X154826860Y-76950354D01*
X154708354Y-77068860D01*
X154569005Y-77161969D01*
X154414169Y-77226105D01*
X154249797Y-77258800D01*
X154082203Y-77258800D01*
X153917831Y-77226105D01*
X153762995Y-77161969D01*
X153623646Y-77068860D01*
X153505140Y-76950354D01*
X153412031Y-76811005D01*
X153347895Y-76656169D01*
X153315200Y-76491797D01*
X153315200Y-76324203D01*
X153347895Y-76159831D01*
X153412031Y-76004995D01*
X153505140Y-75865646D01*
X153623646Y-75747140D01*
X153762995Y-75654031D01*
X153917831Y-75589895D01*
X154082203Y-75557200D01*
X154249797Y-75557200D01*
X154414169Y-75589895D01*
X154414169Y-75589895D01*
G37*
M02*
